<?xml version="1.0" encoding="UTF-8" standalone="no"?>
<!DOCTYPE svg PUBLIC "-//W3C//DTD SVG 1.1//EN"
 "http://www.w3.org/Graphics/SVG/1.1/DTD/svg11.dtd">
<!-- Generated by graphviz version 3.0.0 (20220413.0106)
 -->
<!-- Title: include/york/Asset.hpp Pages: 1 -->
<svg width="336pt" height="140pt"
 viewBox="0.00 0.00 336.00 140.00" xmlns="http://www.w3.org/2000/svg" xmlns:xlink="http://www.w3.org/1999/xlink">
<g id="graph0" class="graph" transform="scale(1 1) rotate(0) translate(4 136)">
<title>include/york/Asset.hpp</title>
<!-- Node1 -->
<g id="node1" class="node">
<title>Node1</title>
<g id="a_node1"><a xlink:title=" ">
<polygon fill="#bfbfbf" stroke="black" points="27.5,-112.5 27.5,-131.5 142.5,-131.5 142.5,-112.5 27.5,-112.5"/>
<text text-anchor="middle" x="85" y="-119.5" font-family="Helvetica,sans-Serif" font-size="10.00">include/york/Asset.hpp</text>
</a>
</g>
</g>
<!-- Node2 -->
<g id="node2" class="node">
<title>Node2</title>
<g id="a_node2"><a xlink:title=" ">
<polygon fill="none" stroke="#bfbfbf" points="25.5,-56.5 25.5,-75.5 66.5,-75.5 66.5,-56.5 25.5,-56.5"/>
<text text-anchor="middle" x="46" y="-63.5" font-family="Helvetica,sans-Serif" font-size="10.00">string</text>
</a>
</g>
</g>
<!-- Node1&#45;&gt;Node2 -->
<g id="edge1" class="edge">
<title>Node1&#45;&gt;Node2</title>
<path fill="none" stroke="midnightblue" d="M78.56,-112.08C73.05,-104.46 64.97,-93.26 58.24,-83.94"/>
<polygon fill="midnightblue" stroke="midnightblue" points="61.01,-81.81 52.32,-75.75 55.34,-85.91 61.01,-81.81"/>
</g>
<!-- Node3 -->
<g id="node3" class="node">
<title>Node3</title>
<g id="a_node3"><a xlink:href="_containers_8hpp.html" target="_top" xlink:title=" ">
<polygon fill="none" stroke="black" points="84.5,-56.5 84.5,-75.5 165.5,-75.5 165.5,-56.5 84.5,-56.5"/>
<text text-anchor="middle" x="125" y="-63.5" font-family="Helvetica,sans-Serif" font-size="10.00">Containers.hpp</text>
</a>
</g>
</g>
<!-- Node1&#45;&gt;Node3 -->
<g id="edge2" class="edge">
<title>Node1&#45;&gt;Node3</title>
<path fill="none" stroke="midnightblue" d="M91.61,-112.08C97.26,-104.46 105.54,-93.26 112.45,-83.94"/>
<polygon fill="midnightblue" stroke="midnightblue" points="115.38,-85.87 118.52,-75.75 109.75,-81.7 115.38,-85.87"/>
</g>
<!-- Node4 -->
<g id="node4" class="node">
<title>Node4</title>
<g id="a_node4"><a xlink:title=" ">
<polygon fill="none" stroke="#bfbfbf" points="0,-0.5 0,-19.5 44,-19.5 44,-0.5 0,-0.5"/>
<text text-anchor="middle" x="22" y="-7.5" font-family="Helvetica,sans-Serif" font-size="10.00">vector</text>
</a>
</g>
</g>
<!-- Node3&#45;&gt;Node4 -->
<g id="edge3" class="edge">
<title>Node3&#45;&gt;Node4</title>
<path fill="none" stroke="midnightblue" d="M108.45,-56.32C92.01,-47.7 66.57,-34.36 47.53,-24.39"/>
<polygon fill="midnightblue" stroke="midnightblue" points="48.99,-21.2 38.51,-19.65 45.74,-27.4 48.99,-21.2"/>
</g>
<!-- Node5 -->
<g id="node5" class="node">
<title>Node5</title>
<g id="a_node5"><a xlink:title=" ">
<polygon fill="none" stroke="#bfbfbf" points="62,-0.5 62,-19.5 188,-19.5 188,-0.5 62,-0.5"/>
<text text-anchor="middle" x="125" y="-7.5" font-family="Helvetica,sans-Serif" font-size="10.00">boost/pool/pool_alloc.hpp</text>
</a>
</g>
</g>
<!-- Node3&#45;&gt;Node5 -->
<g id="edge4" class="edge">
<title>Node3&#45;&gt;Node5</title>
<path fill="none" stroke="midnightblue" d="M125,-56.08C125,-49.01 125,-38.86 125,-29.99"/>
<polygon fill="midnightblue" stroke="midnightblue" points="128.5,-29.75 125,-19.75 121.5,-29.75 128.5,-29.75"/>
</g>
<!-- Node6 -->
<g id="node6" class="node">
<title>Node6</title>
<g id="a_node6"><a xlink:title=" ">
<polygon fill="none" stroke="#bfbfbf" points="206,-0.5 206,-19.5 328,-19.5 328,-0.5 206,-0.5"/>
<text text-anchor="middle" x="267" y="-7.5" font-family="Helvetica,sans-Serif" font-size="10.00">boost/circular_buffer.hpp</text>
</a>
</g>
</g>
<!-- Node3&#45;&gt;Node6 -->
<g id="edge5" class="edge">
<title>Node3&#45;&gt;Node6</title>
<path fill="none" stroke="midnightblue" d="M147.5,-56.44C171.08,-47.48 208.32,-33.31 234.96,-23.18"/>
<polygon fill="midnightblue" stroke="midnightblue" points="236.5,-26.34 244.6,-19.52 234.01,-19.8 236.5,-26.34"/>
</g>
</g>
</svg>
