<?xml version="1.0" encoding="UTF-8" standalone="no"?>
<!DOCTYPE svg PUBLIC "-//W3C//DTD SVG 1.1//EN"
 "http://www.w3.org/Graphics/SVG/1.1/DTD/svg11.dtd">
<!-- Generated by graphviz version 2.50.0 (20211204.2007)
 -->
<!-- Title: include/york/Graphics/CommandPool.hpp Pages: 1 -->
<svg width="622pt" height="487pt"
 viewBox="0.00 0.00 621.50 487.00" xmlns="http://www.w3.org/2000/svg" xmlns:xlink="http://www.w3.org/1999/xlink">
<g id="graph0" class="graph" transform="scale(1 1) rotate(0) translate(4 483)">
<title>include/york/Graphics/CommandPool.hpp</title>
<!-- Node1 -->
<g id="node1" class="node">
<title>Node1</title>
<g id="a_node1"><a xlink:title=" ">
<polygon fill="#bfbfbf" stroke="black" points="200.5,-448.5 200.5,-478.5 311.5,-478.5 311.5,-448.5 200.5,-448.5"/>
<text text-anchor="start" x="208.5" y="-466.5" font-family="Helvetica,sans-Serif" font-size="10.00">include/york/Graphics</text>
<text text-anchor="middle" x="256" y="-455.5" font-family="Helvetica,sans-Serif" font-size="10.00">/CommandPool.hpp</text>
</a>
</g>
</g>
<!-- Node2 -->
<g id="node2" class="node">
<title>Node2</title>
<g id="a_node2"><a xlink:title=" ">
<polygon fill="none" stroke="#bfbfbf" points="41.5,-168.5 41.5,-187.5 136.5,-187.5 136.5,-168.5 41.5,-168.5"/>
<text text-anchor="middle" x="89" y="-175.5" font-family="Helvetica,sans-Serif" font-size="10.00">vulkan/vulkan.hpp</text>
</a>
</g>
</g>
<!-- Node1&#45;&gt;Node2 -->
<g id="edge1" class="edge">
<title>Node1&#45;&gt;Node2</title>
<path fill="none" stroke="midnightblue" d="M200.45,-461.13C125.16,-455.97 0,-434.28 0,-347 0,-347 0,-347 0,-289 0,-246.85 39.99,-211.78 66.36,-193.24"/>
<polygon fill="midnightblue" stroke="midnightblue" points="68.38,-196.1 74.7,-187.6 64.46,-190.3 68.38,-196.1"/>
</g>
<!-- Node3 -->
<g id="node3" class="node">
<title>Node3</title>
<g id="a_node3"><a xlink:href="_handle_8hpp.html" target="_top" xlink:title="Contains the declarations for the Handle classes which form the basis of our Vulkan implementation.">
<polygon fill="none" stroke="black" points="472,-112.5 472,-131.5 538,-131.5 538,-112.5 472,-112.5"/>
<text text-anchor="middle" x="505" y="-119.5" font-family="Helvetica,sans-Serif" font-size="10.00">Handle.hpp</text>
</a>
</g>
</g>
<!-- Node1&#45;&gt;Node3 -->
<g id="edge2" class="edge">
<title>Node1&#45;&gt;Node3</title>
<path fill="none" stroke="midnightblue" d="M311.65,-455.14C407.37,-440.92 593,-405.76 593,-347 593,-347 593,-347 593,-233 593,-191.03 553.46,-155.9 527.39,-137.3"/>
<polygon fill="midnightblue" stroke="midnightblue" points="529.36,-134.41 519.14,-131.64 525.4,-140.18 529.36,-134.41"/>
</g>
<!-- Node8 -->
<g id="node8" class="node">
<title>Node8</title>
<g id="a_node8"><a xlink:href="_device_8hpp.html" target="_top" xlink:title=" ">
<polygon fill="none" stroke="black" points="223,-392.5 223,-411.5 289,-411.5 289,-392.5 223,-392.5"/>
<text text-anchor="middle" x="256" y="-399.5" font-family="Helvetica,sans-Serif" font-size="10.00">Device.hpp</text>
</a>
</g>
</g>
<!-- Node1&#45;&gt;Node8 -->
<g id="edge7" class="edge">
<title>Node1&#45;&gt;Node8</title>
<path fill="none" stroke="midnightblue" d="M256,-448.4C256,-440.47 256,-430.46 256,-421.86"/>
<polygon fill="midnightblue" stroke="midnightblue" points="259.5,-421.66 256,-411.66 252.5,-421.66 259.5,-421.66"/>
</g>
<!-- Node4 -->
<g id="node4" class="node">
<title>Node4</title>
<g id="a_node4"><a xlink:title=" ">
<polygon fill="none" stroke="#bfbfbf" points="350,-56.5 350,-75.5 394,-75.5 394,-56.5 350,-56.5"/>
<text text-anchor="middle" x="372" y="-63.5" font-family="Helvetica,sans-Serif" font-size="10.00">vector</text>
</a>
</g>
</g>
<!-- Node3&#45;&gt;Node4 -->
<g id="edge3" class="edge">
<title>Node3&#45;&gt;Node4</title>
<path fill="none" stroke="midnightblue" d="M483.93,-112.44C461.94,-103.52 427.27,-89.44 402.34,-79.32"/>
<polygon fill="midnightblue" stroke="midnightblue" points="403.56,-76.04 392.98,-75.52 400.92,-82.52 403.56,-76.04"/>
</g>
<!-- Node5 -->
<g id="node5" class="node">
<title>Node5</title>
<g id="a_node5"><a xlink:title=" ">
<polygon fill="none" stroke="#bfbfbf" points="554.5,-56.5 554.5,-75.5 613.5,-75.5 613.5,-56.5 554.5,-56.5"/>
<text text-anchor="middle" x="584" y="-63.5" font-family="Helvetica,sans-Serif" font-size="10.00">functional</text>
</a>
</g>
</g>
<!-- Node3&#45;&gt;Node5 -->
<g id="edge4" class="edge">
<title>Node3&#45;&gt;Node5</title>
<path fill="none" stroke="midnightblue" d="M517.69,-112.32C529.9,-103.98 548.58,-91.21 563,-81.35"/>
<polygon fill="midnightblue" stroke="midnightblue" points="565.06,-84.19 571.34,-75.65 561.11,-78.41 565.06,-84.19"/>
</g>
<!-- Node6 -->
<g id="node6" class="node">
<title>Node6</title>
<g id="a_node6"><a xlink:href="_identifiable_8hpp.html" target="_top" xlink:title=" ">
<polygon fill="none" stroke="black" points="432,-56.5 432,-75.5 536,-75.5 536,-56.5 432,-56.5"/>
<text text-anchor="middle" x="484" y="-63.5" font-family="Helvetica,sans-Serif" font-size="10.00">york/Identifiable.hpp</text>
</a>
</g>
</g>
<!-- Node3&#45;&gt;Node6 -->
<g id="edge5" class="edge">
<title>Node3&#45;&gt;Node6</title>
<path fill="none" stroke="midnightblue" d="M501.53,-112.08C498.69,-104.77 494.57,-94.18 491.04,-85.1"/>
<polygon fill="midnightblue" stroke="midnightblue" points="494.29,-83.8 487.4,-75.75 487.77,-86.34 494.29,-83.8"/>
</g>
<!-- Node7 -->
<g id="node7" class="node">
<title>Node7</title>
<g id="a_node7"><a xlink:title=" ">
<polygon fill="none" stroke="#bfbfbf" points="433.5,-0.5 433.5,-19.5 534.5,-19.5 534.5,-0.5 433.5,-0.5"/>
<text text-anchor="middle" x="484" y="-7.5" font-family="Helvetica,sans-Serif" font-size="10.00">boost/uuid/uuid.hpp</text>
</a>
</g>
</g>
<!-- Node6&#45;&gt;Node7 -->
<g id="edge6" class="edge">
<title>Node6&#45;&gt;Node7</title>
<path fill="none" stroke="midnightblue" d="M484,-56.08C484,-49.01 484,-38.86 484,-29.99"/>
<polygon fill="midnightblue" stroke="midnightblue" points="487.5,-29.75 484,-19.75 480.5,-29.75 487.5,-29.75"/>
</g>
<!-- Node8&#45;&gt;Node2 -->
<g id="edge9" class="edge">
<title>Node8&#45;&gt;Node2</title>
<path fill="none" stroke="midnightblue" d="M222.87,-398.4C171.76,-393.63 77.4,-381.53 57,-356 19.03,-308.49 57.36,-230.81 77.87,-196.38"/>
<polygon fill="midnightblue" stroke="midnightblue" points="81.06,-197.86 83.33,-187.51 75.1,-194.19 81.06,-197.86"/>
</g>
<!-- Node8&#45;&gt;Node3 -->
<g id="edge10" class="edge">
<title>Node8&#45;&gt;Node3</title>
<path fill="none" stroke="midnightblue" d="M289.14,-396.03C366.99,-383.41 555,-347.14 555,-291 555,-291 555,-291 555,-233 555,-197.18 532.76,-160.21 517.95,-139.56"/>
<polygon fill="midnightblue" stroke="midnightblue" points="520.73,-137.45 511.95,-131.52 515.12,-141.63 520.73,-137.45"/>
</g>
<!-- Node9 -->
<g id="node9" class="node">
<title>Node9</title>
<g id="a_node9"><a xlink:title=" ">
<polygon fill="none" stroke="#bfbfbf" points="66,-336.5 66,-355.5 106,-355.5 106,-336.5 66,-336.5"/>
<text text-anchor="middle" x="86" y="-343.5" font-family="Helvetica,sans-Serif" font-size="10.00">utility</text>
</a>
</g>
</g>
<!-- Node8&#45;&gt;Node9 -->
<g id="edge8" class="edge">
<title>Node8&#45;&gt;Node9</title>
<path fill="none" stroke="midnightblue" d="M229.06,-392.44C198.23,-382.65 147.86,-366.65 115.86,-356.48"/>
<polygon fill="midnightblue" stroke="midnightblue" points="116.75,-353.09 106.16,-353.4 114.63,-359.77 116.75,-353.09"/>
</g>
<!-- Node10 -->
<g id="node10" class="node">
<title>Node10</title>
<g id="a_node10"><a xlink:href="_instance_8hpp.html" target="_top" xlink:title=" ">
<polygon fill="none" stroke="black" points="310.5,-224.5 310.5,-243.5 383.5,-243.5 383.5,-224.5 310.5,-224.5"/>
<text text-anchor="middle" x="347" y="-231.5" font-family="Helvetica,sans-Serif" font-size="10.00">Instance.hpp</text>
</a>
</g>
</g>
<!-- Node8&#45;&gt;Node10 -->
<g id="edge11" class="edge">
<title>Node8&#45;&gt;Node10</title>
<path fill="none" stroke="midnightblue" d="M259.3,-392.48C267.27,-372.27 288.74,-320.14 313,-280 319.01,-270.05 326.77,-259.65 333.35,-251.35"/>
<polygon fill="midnightblue" stroke="midnightblue" points="336.07,-253.55 339.66,-243.58 330.64,-249.14 336.07,-253.55"/>
</g>
<!-- Node12 -->
<g id="node12" class="node">
<title>Node12</title>
<g id="a_node12"><a xlink:href="_requestable_item_8hpp.html" target="_top" xlink:title=" ">
<polygon fill="none" stroke="black" points="155,-168.5 155,-187.5 265,-187.5 265,-168.5 155,-168.5"/>
<text text-anchor="middle" x="210" y="-175.5" font-family="Helvetica,sans-Serif" font-size="10.00">RequestableItem.hpp</text>
</a>
</g>
</g>
<!-- Node8&#45;&gt;Node12 -->
<g id="edge31" class="edge">
<title>Node8&#45;&gt;Node12</title>
<path fill="none" stroke="midnightblue" d="M254.2,-392.3C247.43,-359.63 223.44,-243.87 213.93,-197.96"/>
<polygon fill="midnightblue" stroke="midnightblue" points="217.3,-196.97 211.84,-187.88 210.44,-198.39 217.3,-196.97"/>
</g>
<!-- Node15 -->
<g id="node15" class="node">
<title>Node15</title>
<g id="a_node15"><a xlink:href="_physical_device_8hpp.html" target="_top" xlink:title=" ">
<polygon fill="none" stroke="black" points="124,-336.5 124,-355.5 228,-355.5 228,-336.5 124,-336.5"/>
<text text-anchor="middle" x="176" y="-343.5" font-family="Helvetica,sans-Serif" font-size="10.00">PhysicalDevice.hpp</text>
</a>
</g>
</g>
<!-- Node8&#45;&gt;Node15 -->
<g id="edge22" class="edge">
<title>Node8&#45;&gt;Node15</title>
<path fill="none" stroke="midnightblue" d="M243.15,-392.32C230.78,-383.98 211.87,-371.21 197.26,-361.35"/>
<polygon fill="midnightblue" stroke="midnightblue" points="199.07,-358.35 188.82,-355.65 195.15,-364.15 199.07,-358.35"/>
</g>
<!-- Node17 -->
<g id="node17" class="node">
<title>Node17</title>
<g id="a_node17"><a xlink:href="_surface_8hpp.html" target="_top" xlink:title=" ">
<polygon fill="none" stroke="black" points="322.5,-280.5 322.5,-299.5 391.5,-299.5 391.5,-280.5 322.5,-280.5"/>
<text text-anchor="middle" x="357" y="-287.5" font-family="Helvetica,sans-Serif" font-size="10.00">Surface.hpp</text>
</a>
</g>
</g>
<!-- Node8&#45;&gt;Node17 -->
<g id="edge32" class="edge">
<title>Node8&#45;&gt;Node17</title>
<path fill="none" stroke="midnightblue" d="M267.36,-392.32C278.33,-383.69 295.12,-369.78 308,-356 322.11,-340.9 336.09,-321.84 345.49,-308.27"/>
<polygon fill="midnightblue" stroke="midnightblue" points="348.47,-310.11 351.2,-299.87 342.68,-306.17 348.47,-310.11"/>
</g>
<!-- Node10&#45;&gt;Node2 -->
<g id="edge14" class="edge">
<title>Node10&#45;&gt;Node2</title>
<path fill="none" stroke="midnightblue" d="M310.31,-225.32C265.67,-215.98 190.05,-200.15 139.82,-189.64"/>
<polygon fill="midnightblue" stroke="midnightblue" points="140.33,-186.17 129.82,-187.54 138.89,-193.02 140.33,-186.17"/>
</g>
<!-- Node10&#45;&gt;Node3 -->
<g id="edge15" class="edge">
<title>Node10&#45;&gt;Node3</title>
<path fill="none" stroke="midnightblue" d="M382.24,-224.48C405.76,-217.51 436.39,-205.86 459,-188 475.22,-175.19 488.18,-155.17 496.16,-140.74"/>
<polygon fill="midnightblue" stroke="midnightblue" points="499.31,-142.27 500.87,-131.79 493.11,-139.01 499.31,-142.27"/>
</g>
<!-- Node10&#45;&gt;Node4 -->
<g id="edge13" class="edge">
<title>Node10&#45;&gt;Node4</title>
<path fill="none" stroke="midnightblue" d="M347.09,-224.15C347.29,-211.61 347.94,-188 350,-168 352.59,-142.92 353.49,-136.6 359,-112 361,-103.06 363.76,-93.28 366.22,-85.12"/>
<polygon fill="midnightblue" stroke="midnightblue" points="369.57,-86.13 369.19,-75.55 362.88,-84.06 369.57,-86.13"/>
</g>
<!-- Node11 -->
<g id="node11" class="node">
<title>Node11</title>
<g id="a_node11"><a xlink:title=" ">
<polygon fill="none" stroke="#bfbfbf" points="261.5,-112.5 261.5,-131.5 302.5,-131.5 302.5,-112.5 261.5,-112.5"/>
<text text-anchor="middle" x="282" y="-119.5" font-family="Helvetica,sans-Serif" font-size="10.00">string</text>
</a>
</g>
</g>
<!-- Node10&#45;&gt;Node11 -->
<g id="edge12" class="edge">
<title>Node10&#45;&gt;Node11</title>
<path fill="none" stroke="midnightblue" d="M340.77,-224.19C334.52,-215.24 324.74,-200.88 317,-188 307.53,-172.24 297.69,-153.74 290.86,-140.51"/>
<polygon fill="midnightblue" stroke="midnightblue" points="293.95,-138.87 286.28,-131.56 287.72,-142.05 293.95,-138.87"/>
</g>
<!-- Node10&#45;&gt;Node12 -->
<g id="edge16" class="edge">
<title>Node10&#45;&gt;Node12</title>
<path fill="none" stroke="midnightblue" d="M325.29,-224.44C302.65,-215.52 266.93,-201.44 241.25,-191.32"/>
<polygon fill="midnightblue" stroke="midnightblue" points="242.19,-187.93 231.61,-187.52 239.63,-194.44 242.19,-187.93"/>
</g>
<!-- Node13 -->
<g id="node13" class="node">
<title>Node13</title>
<g id="a_node13"><a xlink:href="_window_8hpp.html" target="_top" xlink:title=" ">
<polygon fill="none" stroke="black" points="359.5,-168.5 359.5,-187.5 450.5,-187.5 450.5,-168.5 359.5,-168.5"/>
<text text-anchor="middle" x="405" y="-175.5" font-family="Helvetica,sans-Serif" font-size="10.00">york/Window.hpp</text>
</a>
</g>
</g>
<!-- Node10&#45;&gt;Node13 -->
<g id="edge18" class="edge">
<title>Node10&#45;&gt;Node13</title>
<path fill="none" stroke="midnightblue" d="M356.32,-224.32C364.89,-216.34 377.81,-204.31 388.19,-194.65"/>
<polygon fill="midnightblue" stroke="midnightblue" points="390.58,-197.21 395.51,-187.83 385.81,-192.09 390.58,-197.21"/>
</g>
<!-- Node12&#45;&gt;Node11 -->
<g id="edge17" class="edge">
<title>Node12&#45;&gt;Node11</title>
<path fill="none" stroke="midnightblue" d="M221.57,-168.32C232.42,-160.18 248.88,-147.84 261.88,-138.09"/>
<polygon fill="midnightblue" stroke="midnightblue" points="264.32,-140.63 270.22,-131.83 260.12,-135.03 264.32,-140.63"/>
</g>
<!-- Node13&#45;&gt;Node3 -->
<g id="edge21" class="edge">
<title>Node13&#45;&gt;Node3</title>
<path fill="none" stroke="midnightblue" d="M421.07,-168.32C436.96,-159.74 461.51,-146.49 479.96,-136.52"/>
<polygon fill="midnightblue" stroke="midnightblue" points="481.84,-139.49 488.97,-131.65 478.51,-133.33 481.84,-139.49"/>
</g>
<!-- Node13&#45;&gt;Node11 -->
<g id="edge19" class="edge">
<title>Node13&#45;&gt;Node11</title>
<path fill="none" stroke="midnightblue" d="M385.51,-168.44C365.36,-159.6 333.68,-145.69 310.67,-135.59"/>
<polygon fill="midnightblue" stroke="midnightblue" points="311.96,-132.33 301.4,-131.52 309.15,-138.74 311.96,-132.33"/>
</g>
<!-- Node14 -->
<g id="node14" class="node">
<title>Node14</title>
<g id="a_node14"><a xlink:title=" ">
<polygon fill="none" stroke="#bfbfbf" points="368.5,-112.5 368.5,-131.5 441.5,-131.5 441.5,-112.5 368.5,-112.5"/>
<text text-anchor="middle" x="405" y="-119.5" font-family="Helvetica,sans-Serif" font-size="10.00">SDL_video.h</text>
</a>
</g>
</g>
<!-- Node13&#45;&gt;Node14 -->
<g id="edge20" class="edge">
<title>Node13&#45;&gt;Node14</title>
<path fill="none" stroke="midnightblue" d="M405,-168.08C405,-161.01 405,-150.86 405,-141.99"/>
<polygon fill="midnightblue" stroke="midnightblue" points="408.5,-141.75 405,-131.75 401.5,-141.75 408.5,-141.75"/>
</g>
<!-- Node15&#45;&gt;Node2 -->
<g id="edge24" class="edge">
<title>Node15&#45;&gt;Node2</title>
<path fill="none" stroke="midnightblue" d="M160.05,-336.42C147.06,-328.61 129.25,-315.89 119,-300 98.35,-267.98 91.91,-222.78 89.91,-197.67"/>
<polygon fill="midnightblue" stroke="midnightblue" points="93.4,-197.42 89.26,-187.66 86.41,-197.87 93.4,-197.42"/>
</g>
<!-- Node15&#45;&gt;Node12 -->
<g id="edge30" class="edge">
<title>Node15&#45;&gt;Node12</title>
<path fill="none" stroke="midnightblue" d="M178.24,-336.4C180.56,-327.37 184.24,-312.73 187,-300 194.84,-263.9 202.57,-221.43 206.77,-197.62"/>
<polygon fill="midnightblue" stroke="midnightblue" points="210.26,-197.99 208.53,-187.54 203.36,-196.79 210.26,-197.99"/>
</g>
<!-- Node16 -->
<g id="node16" class="node">
<title>Node16</title>
<g id="a_node16"><a xlink:title=" ">
<polygon fill="none" stroke="#bfbfbf" points="128,-280.5 128,-299.5 178,-299.5 178,-280.5 128,-280.5"/>
<text text-anchor="middle" x="153" y="-287.5" font-family="Helvetica,sans-Serif" font-size="10.00">optional</text>
</a>
</g>
</g>
<!-- Node15&#45;&gt;Node16 -->
<g id="edge23" class="edge">
<title>Node15&#45;&gt;Node16</title>
<path fill="none" stroke="midnightblue" d="M172.2,-336.08C169.09,-328.77 164.58,-318.18 160.71,-309.1"/>
<polygon fill="midnightblue" stroke="midnightblue" points="163.87,-307.58 156.73,-299.75 157.43,-310.32 163.87,-307.58"/>
</g>
<!-- Node15&#45;&gt;Node17 -->
<g id="edge25" class="edge">
<title>Node15&#45;&gt;Node17</title>
<path fill="none" stroke="midnightblue" d="M204.68,-336.44C235.53,-327.24 284.73,-312.56 318.83,-302.39"/>
<polygon fill="midnightblue" stroke="midnightblue" points="319.87,-305.73 328.45,-299.52 317.87,-299.02 319.87,-305.73"/>
</g>
<!-- Node17&#45;&gt;Node2 -->
<g id="edge26" class="edge">
<title>Node17&#45;&gt;Node2</title>
<path fill="none" stroke="midnightblue" d="M335.97,-280.37C288.81,-261.01 174.43,-214.06 119.47,-191.51"/>
<polygon fill="midnightblue" stroke="midnightblue" points="120.51,-188.15 109.93,-187.59 117.85,-194.63 120.51,-188.15"/>
</g>
<!-- Node17&#45;&gt;Node3 -->
<g id="edge28" class="edge">
<title>Node17&#45;&gt;Node3</title>
<path fill="none" stroke="midnightblue" d="M372.97,-280.3C399.56,-265.04 452.94,-230.95 483,-188 492.71,-174.12 498.42,-155.61 501.58,-141.89"/>
<polygon fill="midnightblue" stroke="midnightblue" points="505.09,-142.2 503.66,-131.7 498.23,-140.8 505.09,-142.2"/>
</g>
<!-- Node17&#45;&gt;Node10 -->
<g id="edge29" class="edge">
<title>Node17&#45;&gt;Node10</title>
<path fill="none" stroke="midnightblue" d="M355.35,-280.08C354.02,-272.93 352.12,-262.64 350.46,-253.69"/>
<polygon fill="midnightblue" stroke="midnightblue" points="353.88,-252.95 348.62,-243.75 347,-254.22 353.88,-252.95"/>
</g>
<!-- Node17&#45;&gt;Node13 -->
<g id="edge27" class="edge">
<title>Node17&#45;&gt;Node13</title>
<path fill="none" stroke="midnightblue" d="M365.91,-280.19C373.98,-271.68 385.57,-258.04 392,-244 398.67,-229.43 401.93,-211.49 403.51,-198.14"/>
<polygon fill="midnightblue" stroke="midnightblue" points="407.04,-198.1 404.52,-187.8 400.07,-197.42 407.04,-198.1"/>
</g>
</g>
</svg>
