<?xml version="1.0" encoding="UTF-8" standalone="no"?>
<!DOCTYPE svg PUBLIC "-//W3C//DTD SVG 1.1//EN"
 "http://www.w3.org/Graphics/SVG/1.1/DTD/svg11.dtd">
<!-- Generated by graphviz version 3.0.0 (20220413.0106)
 -->
<!-- Title: include/york/Containers.hpp Pages: 1 -->
<svg width="387pt" height="252pt"
 viewBox="0.00 0.00 386.50 252.00" xmlns="http://www.w3.org/2000/svg" xmlns:xlink="http://www.w3.org/1999/xlink">
<g id="graph0" class="graph" transform="scale(1 1) rotate(0) translate(4 248)">
<title>include/york/Containers.hpp</title>
<!-- Node1 -->
<g id="node1" class="node">
<title>Node1</title>
<g id="a_node1"><a xlink:title=" ">
<polygon fill="#bfbfbf" stroke="black" points="80.5,-224.5 80.5,-243.5 216.5,-243.5 216.5,-224.5 80.5,-224.5"/>
<text text-anchor="middle" x="148.5" y="-231.5" font-family="Helvetica,sans-Serif" font-size="10.00">include/york/Containers.hpp</text>
</a>
</g>
</g>
<!-- Node2 -->
<g id="node2" class="node">
<title>Node2</title>
<g id="a_node2"><a xlink:href="_asset_8hpp.html" target="_top" xlink:title=" ">
<polygon fill="none" stroke="black" points="0,-56.5 0,-75.5 115,-75.5 115,-56.5 0,-56.5"/>
<text text-anchor="middle" x="57.5" y="-63.5" font-family="Helvetica,sans-Serif" font-size="10.00">include/york/Asset.hpp</text>
</a>
</g>
</g>
<!-- Node1&#45;&gt;Node2 -->
<g id="edge1" class="edge">
<title>Node1&#45;&gt;Node2</title>
<path fill="none" stroke="midnightblue" d="M115.79,-220.08C101.5,-212.78 85.9,-202.22 76.5,-188 52.7,-151.99 54.7,-97 56.55,-75.78"/>
<polygon fill="midnightblue" stroke="midnightblue" points="114.37,-223.28 124.9,-224.41 117.37,-216.96 114.37,-223.28"/>
</g>
<!-- Node4 -->
<g id="node4" class="node">
<title>Node4</title>
<g id="a_node4"><a xlink:href="_registry_8hpp.html" target="_top" xlink:title=" ">
<polygon fill="none" stroke="black" points="86,-168.5 86,-187.5 211,-187.5 211,-168.5 86,-168.5"/>
<text text-anchor="middle" x="148.5" y="-175.5" font-family="Helvetica,sans-Serif" font-size="10.00">include/york/Registry.hpp</text>
</a>
</g>
</g>
<!-- Node1&#45;&gt;Node4 -->
<g id="edge3" class="edge">
<title>Node1&#45;&gt;Node4</title>
<path fill="none" stroke="midnightblue" d="M148.5,-213.8C148.5,-204.91 148.5,-194.78 148.5,-187.75"/>
<polygon fill="midnightblue" stroke="midnightblue" points="145,-214.08 148.5,-224.08 152,-214.08 145,-214.08"/>
</g>
<!-- Node7 -->
<g id="node7" class="node">
<title>Node7</title>
<g id="a_node7"><a xlink:href="_tag_8hpp.html" target="_top" xlink:title=" ">
<polygon fill="none" stroke="black" points="230.5,-168.5 230.5,-187.5 360.5,-187.5 360.5,-168.5 230.5,-168.5"/>
<text text-anchor="middle" x="295.5" y="-175.5" font-family="Helvetica,sans-Serif" font-size="10.00">include/york/XML/Tag.hpp</text>
</a>
</g>
</g>
<!-- Node1&#45;&gt;Node7 -->
<g id="edge8" class="edge">
<title>Node1&#45;&gt;Node7</title>
<path fill="none" stroke="midnightblue" d="M181.42,-220.91C209.06,-210.75 247.84,-196.51 272.32,-187.52"/>
<polygon fill="midnightblue" stroke="midnightblue" points="179.97,-217.71 171.79,-224.44 182.39,-224.28 179.97,-217.71"/>
</g>
<!-- Node3 -->
<g id="node3" class="node">
<title>Node3</title>
<g id="a_node3"><a xlink:href="_york_8hpp.html" target="_top" xlink:title=" ">
<polygon fill="none" stroke="black" points="88.5,-0.5 88.5,-19.5 198.5,-19.5 198.5,-0.5 88.5,-0.5"/>
<text text-anchor="middle" x="143.5" y="-7.5" font-family="Helvetica,sans-Serif" font-size="10.00">include/york/York.hpp</text>
</a>
</g>
</g>
<!-- Node2&#45;&gt;Node3 -->
<g id="edge2" class="edge">
<title>Node2&#45;&gt;Node3</title>
<path fill="none" stroke="midnightblue" d="M79.95,-50.9C95.72,-41 116.31,-28.07 129.72,-19.65"/>
<polygon fill="midnightblue" stroke="midnightblue" points="77.93,-48.04 71.32,-56.32 81.65,-53.97 77.93,-48.04"/>
</g>
<!-- Node5 -->
<g id="node5" class="node">
<title>Node5</title>
<g id="a_node5"><a xlink:href="_event_8hpp.html" target="_top" xlink:title=" ">
<polygon fill="none" stroke="black" points="88.5,-112.5 88.5,-131.5 202.5,-131.5 202.5,-112.5 88.5,-112.5"/>
<text text-anchor="middle" x="145.5" y="-119.5" font-family="Helvetica,sans-Serif" font-size="10.00">include/york/Event.hpp</text>
</a>
</g>
</g>
<!-- Node4&#45;&gt;Node5 -->
<g id="edge4" class="edge">
<title>Node4&#45;&gt;Node5</title>
<path fill="none" stroke="midnightblue" d="M147.43,-157.8C146.94,-148.91 146.38,-138.78 145.99,-131.75"/>
<polygon fill="midnightblue" stroke="midnightblue" points="143.96,-158.29 148,-168.08 150.94,-157.9 143.96,-158.29"/>
</g>
<!-- Node5&#45;&gt;Node3 -->
<g id="edge7" class="edge">
<title>Node5&#45;&gt;Node3</title>
<path fill="none" stroke="midnightblue" d="M145.16,-102.35C144.72,-78.25 143.98,-37.31 143.66,-19.59"/>
<polygon fill="midnightblue" stroke="midnightblue" points="141.66,-102.43 145.34,-112.37 148.66,-102.31 141.66,-102.43"/>
</g>
<!-- Node6 -->
<g id="node6" class="node">
<title>Node6</title>
<g id="a_node6"><a xlink:href="_layer_8hpp.html" target="_top" xlink:title=" ">
<polygon fill="none" stroke="black" points="172,-56.5 172,-75.5 285,-75.5 285,-56.5 172,-56.5"/>
<text text-anchor="middle" x="228.5" y="-63.5" font-family="Helvetica,sans-Serif" font-size="10.00">include/york/Layer.hpp</text>
</a>
</g>
</g>
<!-- Node5&#45;&gt;Node6 -->
<g id="edge5" class="edge">
<title>Node5&#45;&gt;Node6</title>
<path fill="none" stroke="midnightblue" d="M167.6,-106.62C182.76,-96.76 202.38,-83.99 215.2,-75.65"/>
<polygon fill="midnightblue" stroke="midnightblue" points="165.31,-103.94 158.84,-112.32 169.13,-109.8 165.31,-103.94"/>
</g>
<!-- Node6&#45;&gt;Node3 -->
<g id="edge6" class="edge">
<title>Node6&#45;&gt;Node3</title>
<path fill="none" stroke="midnightblue" d="M206.31,-50.9C190.72,-41 170.37,-28.07 157.12,-19.65"/>
<polygon fill="midnightblue" stroke="midnightblue" points="204.53,-53.92 214.84,-56.32 208.28,-48.01 204.53,-53.92"/>
</g>
<!-- Node8 -->
<g id="node8" class="node">
<title>Node8</title>
<g id="a_node8"><a xlink:href="_document_8hpp.html" target="_top" xlink:title=" ">
<polygon fill="none" stroke="black" points="220.5,-112.5 220.5,-131.5 378.5,-131.5 378.5,-112.5 220.5,-112.5"/>
<text text-anchor="middle" x="299.5" y="-119.5" font-family="Helvetica,sans-Serif" font-size="10.00">include/york/XML/Document.hpp</text>
</a>
</g>
</g>
<!-- Node7&#45;&gt;Node8 -->
<g id="edge9" class="edge">
<title>Node7&#45;&gt;Node8</title>
<path fill="none" stroke="midnightblue" d="M296.9,-158.1C297.56,-149.14 298.33,-138.86 298.85,-131.75"/>
<polygon fill="midnightblue" stroke="midnightblue" points="293.41,-157.85 296.16,-168.08 300.39,-158.37 293.41,-157.85"/>
</g>
</g>
</svg>
