<?xml version="1.0" encoding="UTF-8" standalone="no"?>
<!DOCTYPE svg PUBLIC "-//W3C//DTD SVG 1.1//EN"
 "http://www.w3.org/Graphics/SVG/1.1/DTD/svg11.dtd">
<!-- Generated by graphviz version 2.50.0 (20211204.2007)
 -->
<!-- Title: include/york/Graphics/Device.hpp Pages: 1 -->
<svg width="658pt" height="375pt"
 viewBox="0.00 0.00 657.50 375.00" xmlns="http://www.w3.org/2000/svg" xmlns:xlink="http://www.w3.org/1999/xlink">
<g id="graph0" class="graph" transform="scale(1 1) rotate(0) translate(4 371)">
<title>include/york/Graphics/Device.hpp</title>
<!-- Node1 -->
<g id="node1" class="node">
<title>Node1</title>
<g id="a_node1"><a xlink:title=" ">
<polygon fill="#bfbfbf" stroke="black" points="250.5,-336.5 250.5,-366.5 361.5,-366.5 361.5,-336.5 250.5,-336.5"/>
<text text-anchor="start" x="258.5" y="-354.5" font-family="Helvetica,sans-Serif" font-size="10.00">include/york/Graphics</text>
<text text-anchor="middle" x="306" y="-343.5" font-family="Helvetica,sans-Serif" font-size="10.00">/Device.hpp</text>
</a>
</g>
</g>
<!-- Node2 -->
<g id="node2" class="node">
<title>Node2</title>
<g id="a_node2"><a xlink:title=" ">
<polygon fill="none" stroke="#bfbfbf" points="0,-280.5 0,-299.5 40,-299.5 40,-280.5 0,-280.5"/>
<text text-anchor="middle" x="20" y="-287.5" font-family="Helvetica,sans-Serif" font-size="10.00">utility</text>
</a>
</g>
</g>
<!-- Node1&#45;&gt;Node2 -->
<g id="edge1" class="edge">
<title>Node1&#45;&gt;Node2</title>
<path fill="none" stroke="midnightblue" d="M250.24,-340.34C199.03,-330.76 121.15,-315.6 54,-300 52.73,-299.7 51.43,-299.4 50.12,-299.08"/>
<polygon fill="midnightblue" stroke="midnightblue" points="50.64,-295.6 40.09,-296.53 48.92,-302.38 50.64,-295.6"/>
</g>
<!-- Node3 -->
<g id="node3" class="node">
<title>Node3</title>
<g id="a_node3"><a xlink:title=" ">
<polygon fill="none" stroke="#bfbfbf" points="554.5,-168.5 554.5,-187.5 649.5,-187.5 649.5,-168.5 554.5,-168.5"/>
<text text-anchor="middle" x="602" y="-175.5" font-family="Helvetica,sans-Serif" font-size="10.00">vulkan/vulkan.hpp</text>
</a>
</g>
</g>
<!-- Node1&#45;&gt;Node3 -->
<g id="edge2" class="edge">
<title>Node1&#45;&gt;Node3</title>
<path fill="none" stroke="midnightblue" d="M344.47,-336.39C390.81,-318.5 470.02,-284.98 531,-244 552.1,-229.82 573.2,-209.54 586.84,-195.41"/>
<polygon fill="midnightblue" stroke="midnightblue" points="589.62,-197.57 593.96,-187.9 584.54,-192.75 589.62,-197.57"/>
</g>
<!-- Node4 -->
<g id="node4" class="node">
<title>Node4</title>
<g id="a_node4"><a xlink:href="_handle_8hpp.html" target="_top" xlink:title="Contains the declarations for the Handle classes which form the basis of our Vulkan implementation.">
<polygon fill="none" stroke="black" points="85,-112.5 85,-131.5 151,-131.5 151,-112.5 85,-112.5"/>
<text text-anchor="middle" x="118" y="-119.5" font-family="Helvetica,sans-Serif" font-size="10.00">Handle.hpp</text>
</a>
</g>
</g>
<!-- Node1&#45;&gt;Node4 -->
<g id="edge3" class="edge">
<title>Node1&#45;&gt;Node4</title>
<path fill="none" stroke="midnightblue" d="M263.02,-336.42C242.33,-328.13 218.15,-316.09 200,-300 155.89,-260.91 150.11,-243.03 129,-188 123.29,-173.12 120.54,-155.2 119.22,-141.95"/>
<polygon fill="midnightblue" stroke="midnightblue" points="122.68,-141.38 118.38,-131.7 115.7,-141.95 122.68,-141.38"/>
</g>
<!-- Node9 -->
<g id="node9" class="node">
<title>Node9</title>
<g id="a_node9"><a xlink:href="_instance_8hpp.html" target="_top" xlink:title=" ">
<polygon fill="none" stroke="black" points="255.5,-224.5 255.5,-243.5 328.5,-243.5 328.5,-224.5 255.5,-224.5"/>
<text text-anchor="middle" x="292" y="-231.5" font-family="Helvetica,sans-Serif" font-size="10.00">Instance.hpp</text>
</a>
</g>
</g>
<!-- Node1&#45;&gt;Node9 -->
<g id="edge8" class="edge">
<title>Node1&#45;&gt;Node9</title>
<path fill="none" stroke="midnightblue" d="M304.28,-336.34C301.77,-315.62 297.09,-277.02 294.29,-253.9"/>
<polygon fill="midnightblue" stroke="midnightblue" points="297.73,-253.18 293.05,-243.67 290.78,-254.02 297.73,-253.18"/>
</g>
<!-- Node11 -->
<g id="node11" class="node">
<title>Node11</title>
<g id="a_node11"><a xlink:href="_requestable_item_8hpp.html" target="_top" xlink:title=" ">
<polygon fill="none" stroke="black" points="358,-168.5 358,-187.5 468,-187.5 468,-168.5 358,-168.5"/>
<text text-anchor="middle" x="413" y="-175.5" font-family="Helvetica,sans-Serif" font-size="10.00">RequestableItem.hpp</text>
</a>
</g>
</g>
<!-- Node1&#45;&gt;Node11 -->
<g id="edge24" class="edge">
<title>Node1&#45;&gt;Node11</title>
<path fill="none" stroke="midnightblue" d="M312.77,-336.35C324.43,-312.43 349.62,-262.82 376,-224 382.75,-214.07 391.2,-203.66 398.32,-195.37"/>
<polygon fill="midnightblue" stroke="midnightblue" points="401.17,-197.42 405.13,-187.59 395.91,-192.81 401.17,-197.42"/>
</g>
<!-- Node14 -->
<g id="node14" class="node">
<title>Node14</title>
<g id="a_node14"><a xlink:href="_physical_device_8hpp.html" target="_top" xlink:title=" ">
<polygon fill="none" stroke="black" points="385,-224.5 385,-243.5 489,-243.5 489,-224.5 385,-224.5"/>
<text text-anchor="middle" x="437" y="-231.5" font-family="Helvetica,sans-Serif" font-size="10.00">PhysicalDevice.hpp</text>
</a>
</g>
</g>
<!-- Node1&#45;&gt;Node14 -->
<g id="edge19" class="edge">
<title>Node1&#45;&gt;Node14</title>
<path fill="none" stroke="midnightblue" d="M325.24,-336.48C338.43,-326.65 356.16,-312.99 371,-300 389.04,-284.21 408.45,-264.77 421.51,-251.28"/>
<polygon fill="midnightblue" stroke="midnightblue" points="424.36,-253.38 428.76,-243.74 419.31,-248.53 424.36,-253.38"/>
</g>
<!-- Node16 -->
<g id="node16" class="node">
<title>Node16</title>
<g id="a_node16"><a xlink:href="_surface_8hpp.html" target="_top" xlink:title=" ">
<polygon fill="none" stroke="black" points="208.5,-280.5 208.5,-299.5 277.5,-299.5 277.5,-280.5 208.5,-280.5"/>
<text text-anchor="middle" x="243" y="-287.5" font-family="Helvetica,sans-Serif" font-size="10.00">Surface.hpp</text>
</a>
</g>
</g>
<!-- Node1&#45;&gt;Node16 -->
<g id="edge25" class="edge">
<title>Node1&#45;&gt;Node16</title>
<path fill="none" stroke="midnightblue" d="M291.07,-336.4C281.63,-327.49 269.42,-315.95 259.67,-306.74"/>
<polygon fill="midnightblue" stroke="midnightblue" points="261.84,-303.98 252.17,-299.66 257.03,-309.07 261.84,-303.98"/>
</g>
<!-- Node5 -->
<g id="node5" class="node">
<title>Node5</title>
<g id="a_node5"><a xlink:title=" ">
<polygon fill="none" stroke="#bfbfbf" points="273,-56.5 273,-75.5 317,-75.5 317,-56.5 273,-56.5"/>
<text text-anchor="middle" x="295" y="-63.5" font-family="Helvetica,sans-Serif" font-size="10.00">vector</text>
</a>
</g>
</g>
<!-- Node4&#45;&gt;Node5 -->
<g id="edge4" class="edge">
<title>Node4&#45;&gt;Node5</title>
<path fill="none" stroke="midnightblue" d="M146.05,-112.44C177.94,-102.71 229.89,-86.86 263.24,-76.69"/>
<polygon fill="midnightblue" stroke="midnightblue" points="264.41,-79.99 272.96,-73.73 262.37,-73.3 264.41,-79.99"/>
</g>
<!-- Node6 -->
<g id="node6" class="node">
<title>Node6</title>
<g id="a_node6"><a xlink:title=" ">
<polygon fill="none" stroke="#bfbfbf" points="38.5,-56.5 38.5,-75.5 97.5,-75.5 97.5,-56.5 38.5,-56.5"/>
<text text-anchor="middle" x="68" y="-63.5" font-family="Helvetica,sans-Serif" font-size="10.00">functional</text>
</a>
</g>
</g>
<!-- Node4&#45;&gt;Node6 -->
<g id="edge5" class="edge">
<title>Node4&#45;&gt;Node6</title>
<path fill="none" stroke="midnightblue" d="M109.74,-112.08C102.54,-104.3 91.89,-92.8 83.15,-83.37"/>
<polygon fill="midnightblue" stroke="midnightblue" points="85.47,-80.71 76.1,-75.75 80.33,-85.47 85.47,-80.71"/>
</g>
<!-- Node7 -->
<g id="node7" class="node">
<title>Node7</title>
<g id="a_node7"><a xlink:href="_identifiable_8hpp.html" target="_top" xlink:title=" ">
<polygon fill="none" stroke="black" points="116,-56.5 116,-75.5 220,-75.5 220,-56.5 116,-56.5"/>
<text text-anchor="middle" x="168" y="-63.5" font-family="Helvetica,sans-Serif" font-size="10.00">york/Identifiable.hpp</text>
</a>
</g>
</g>
<!-- Node4&#45;&gt;Node7 -->
<g id="edge6" class="edge">
<title>Node4&#45;&gt;Node7</title>
<path fill="none" stroke="midnightblue" d="M126.26,-112.08C133.46,-104.3 144.11,-92.8 152.85,-83.37"/>
<polygon fill="midnightblue" stroke="midnightblue" points="155.67,-85.47 159.9,-75.75 150.53,-80.71 155.67,-85.47"/>
</g>
<!-- Node8 -->
<g id="node8" class="node">
<title>Node8</title>
<g id="a_node8"><a xlink:title=" ">
<polygon fill="none" stroke="#bfbfbf" points="145,-0.5 145,-19.5 191,-19.5 191,-0.5 145,-0.5"/>
<text text-anchor="middle" x="168" y="-7.5" font-family="Helvetica,sans-Serif" font-size="10.00">cstdint</text>
</a>
</g>
</g>
<!-- Node7&#45;&gt;Node8 -->
<g id="edge7" class="edge">
<title>Node7&#45;&gt;Node8</title>
<path fill="none" stroke="midnightblue" d="M168,-56.08C168,-49.01 168,-38.86 168,-29.99"/>
<polygon fill="midnightblue" stroke="midnightblue" points="171.5,-29.75 168,-19.75 164.5,-29.75 171.5,-29.75"/>
</g>
<!-- Node9&#45;&gt;Node3 -->
<g id="edge11" class="edge">
<title>Node9&#45;&gt;Node3</title>
<path fill="none" stroke="midnightblue" d="M328.78,-226.59C382.03,-217.32 481.11,-200.06 544.19,-189.07"/>
<polygon fill="midnightblue" stroke="midnightblue" points="545.12,-192.46 554.38,-187.3 543.92,-185.56 545.12,-192.46"/>
</g>
<!-- Node9&#45;&gt;Node4 -->
<g id="edge12" class="edge">
<title>Node9&#45;&gt;Node4</title>
<path fill="none" stroke="midnightblue" d="M255.48,-226.43C228.19,-220.12 191.07,-208.43 164,-188 147.5,-175.55 134.59,-155.47 126.69,-140.92"/>
<polygon fill="midnightblue" stroke="midnightblue" points="129.74,-139.19 122.05,-131.9 123.51,-142.39 129.74,-139.19"/>
</g>
<!-- Node9&#45;&gt;Node5 -->
<g id="edge10" class="edge">
<title>Node9&#45;&gt;Node5</title>
<path fill="none" stroke="midnightblue" d="M295.26,-224.48C302.41,-204.69 318.27,-154.12 311,-112 309.43,-102.91 306.21,-93.22 303.06,-85.17"/>
<polygon fill="midnightblue" stroke="midnightblue" points="306.19,-83.6 299.11,-75.72 299.74,-86.3 306.19,-83.6"/>
</g>
<!-- Node10 -->
<g id="node10" class="node">
<title>Node10</title>
<g id="a_node10"><a xlink:title=" ">
<polygon fill="none" stroke="#bfbfbf" points="260.5,-112.5 260.5,-131.5 301.5,-131.5 301.5,-112.5 260.5,-112.5"/>
<text text-anchor="middle" x="281" y="-119.5" font-family="Helvetica,sans-Serif" font-size="10.00">string</text>
</a>
</g>
</g>
<!-- Node9&#45;&gt;Node10 -->
<g id="edge9" class="edge">
<title>Node9&#45;&gt;Node10</title>
<path fill="none" stroke="midnightblue" d="M291.14,-224.37C289.36,-206.62 285.27,-165.67 282.86,-141.6"/>
<polygon fill="midnightblue" stroke="midnightblue" points="286.34,-141.19 281.86,-131.59 279.37,-141.89 286.34,-141.19"/>
</g>
<!-- Node9&#45;&gt;Node11 -->
<g id="edge13" class="edge">
<title>Node9&#45;&gt;Node11</title>
<path fill="none" stroke="midnightblue" d="M311.17,-224.44C330.91,-215.64 361.89,-201.81 384.49,-191.72"/>
<polygon fill="midnightblue" stroke="midnightblue" points="386.21,-194.79 393.92,-187.52 383.36,-188.4 386.21,-194.79"/>
</g>
<!-- Node12 -->
<g id="node12" class="node">
<title>Node12</title>
<g id="a_node12"><a xlink:href="_window_8hpp.html" target="_top" xlink:title=" ">
<polygon fill="none" stroke="black" points="172.5,-168.5 172.5,-187.5 263.5,-187.5 263.5,-168.5 172.5,-168.5"/>
<text text-anchor="middle" x="218" y="-175.5" font-family="Helvetica,sans-Serif" font-size="10.00">york/Window.hpp</text>
</a>
</g>
</g>
<!-- Node9&#45;&gt;Node12 -->
<g id="edge15" class="edge">
<title>Node9&#45;&gt;Node12</title>
<path fill="none" stroke="midnightblue" d="M280.11,-224.32C268.85,-216.11 251.71,-203.6 238.29,-193.81"/>
<polygon fill="midnightblue" stroke="midnightblue" points="240.25,-190.9 230.11,-187.83 236.12,-196.56 240.25,-190.9"/>
</g>
<!-- Node11&#45;&gt;Node10 -->
<g id="edge14" class="edge">
<title>Node11&#45;&gt;Node10</title>
<path fill="none" stroke="midnightblue" d="M392.08,-168.44C370.26,-159.52 335.85,-145.44 311.11,-135.32"/>
<polygon fill="midnightblue" stroke="midnightblue" points="312.4,-132.06 301.82,-131.52 309.75,-138.54 312.4,-132.06"/>
</g>
<!-- Node12&#45;&gt;Node4 -->
<g id="edge18" class="edge">
<title>Node12&#45;&gt;Node4</title>
<path fill="none" stroke="midnightblue" d="M201.93,-168.32C186.04,-159.74 161.49,-146.49 143.04,-136.52"/>
<polygon fill="midnightblue" stroke="midnightblue" points="144.49,-133.33 134.03,-131.65 141.16,-139.49 144.49,-133.33"/>
</g>
<!-- Node12&#45;&gt;Node10 -->
<g id="edge16" class="edge">
<title>Node12&#45;&gt;Node10</title>
<path fill="none" stroke="midnightblue" d="M228.12,-168.32C237.53,-160.26 251.74,-148.08 263.07,-138.37"/>
<polygon fill="midnightblue" stroke="midnightblue" points="265.38,-141 270.69,-131.83 260.82,-135.68 265.38,-141"/>
</g>
<!-- Node13 -->
<g id="node13" class="node">
<title>Node13</title>
<g id="a_node13"><a xlink:title=" ">
<polygon fill="none" stroke="#bfbfbf" points="169.5,-112.5 169.5,-131.5 242.5,-131.5 242.5,-112.5 169.5,-112.5"/>
<text text-anchor="middle" x="206" y="-119.5" font-family="Helvetica,sans-Serif" font-size="10.00">SDL_video.h</text>
</a>
</g>
</g>
<!-- Node12&#45;&gt;Node13 -->
<g id="edge17" class="edge">
<title>Node12&#45;&gt;Node13</title>
<path fill="none" stroke="midnightblue" d="M216.02,-168.08C214.43,-160.93 212.14,-150.64 210.15,-141.69"/>
<polygon fill="midnightblue" stroke="midnightblue" points="213.53,-140.75 207.94,-131.75 206.7,-142.27 213.53,-140.75"/>
</g>
<!-- Node14&#45;&gt;Node3 -->
<g id="edge21" class="edge">
<title>Node14&#45;&gt;Node3</title>
<path fill="none" stroke="midnightblue" d="M463.14,-224.44C491.02,-215.32 535.35,-200.81 566.4,-190.65"/>
<polygon fill="midnightblue" stroke="midnightblue" points="567.56,-193.95 575.98,-187.52 565.38,-187.3 567.56,-193.95"/>
</g>
<!-- Node14&#45;&gt;Node11 -->
<g id="edge22" class="edge">
<title>Node14&#45;&gt;Node11</title>
<path fill="none" stroke="midnightblue" d="M433.04,-224.08C429.79,-216.77 425.08,-206.18 421.05,-197.1"/>
<polygon fill="midnightblue" stroke="midnightblue" points="424.15,-195.47 416.89,-187.75 417.75,-198.31 424.15,-195.47"/>
</g>
<!-- Node14&#45;&gt;Node12 -->
<g id="edge23" class="edge">
<title>Node14&#45;&gt;Node12</title>
<path fill="none" stroke="midnightblue" d="M402.3,-224.44C364.42,-215.1 303.65,-200.12 262.34,-189.93"/>
<polygon fill="midnightblue" stroke="midnightblue" points="263.09,-186.51 252.54,-187.52 261.41,-193.31 263.09,-186.51"/>
</g>
<!-- Node15 -->
<g id="node15" class="node">
<title>Node15</title>
<g id="a_node15"><a xlink:title=" ">
<polygon fill="none" stroke="#bfbfbf" points="486,-168.5 486,-187.5 536,-187.5 536,-168.5 486,-168.5"/>
<text text-anchor="middle" x="511" y="-175.5" font-family="Helvetica,sans-Serif" font-size="10.00">optional</text>
</a>
</g>
</g>
<!-- Node14&#45;&gt;Node15 -->
<g id="edge20" class="edge">
<title>Node14&#45;&gt;Node15</title>
<path fill="none" stroke="midnightblue" d="M448.89,-224.32C460.15,-216.11 477.29,-203.6 490.71,-193.81"/>
<polygon fill="midnightblue" stroke="midnightblue" points="492.88,-196.56 498.89,-187.83 488.75,-190.9 492.88,-196.56"/>
</g>
<!-- Node16&#45;&gt;Node3 -->
<g id="edge26" class="edge">
<title>Node16&#45;&gt;Node3</title>
<path fill="none" stroke="midnightblue" d="M277.52,-287.1C327.61,-283.41 422.67,-272.93 498,-244 530.23,-231.62 563.36,-208.84 583.32,-193.81"/>
<polygon fill="midnightblue" stroke="midnightblue" points="585.71,-196.38 591.51,-187.51 581.45,-190.83 585.71,-196.38"/>
</g>
<!-- Node16&#45;&gt;Node4 -->
<g id="edge27" class="edge">
<title>Node16&#45;&gt;Node4</title>
<path fill="none" stroke="midnightblue" d="M231.71,-280.49C211.19,-264.48 167.54,-227.89 142,-188 132.78,-173.6 126.39,-155.14 122.54,-141.58"/>
<polygon fill="midnightblue" stroke="midnightblue" points="125.83,-140.31 119.9,-131.53 119.06,-142.09 125.83,-140.31"/>
</g>
<!-- Node16&#45;&gt;Node9 -->
<g id="edge28" class="edge">
<title>Node16&#45;&gt;Node9</title>
<path fill="none" stroke="midnightblue" d="M251.09,-280.08C258.16,-272.3 268.59,-260.8 277.15,-251.37"/>
<polygon fill="midnightblue" stroke="midnightblue" points="279.93,-253.51 284.06,-243.75 274.75,-248.8 279.93,-253.51"/>
</g>
<!-- Node16&#45;&gt;Node12 -->
<g id="edge29" class="edge">
<title>Node16&#45;&gt;Node12</title>
<path fill="none" stroke="midnightblue" d="M241.04,-280.37C237,-262.62 227.7,-221.67 222.23,-197.6"/>
<polygon fill="midnightblue" stroke="midnightblue" points="225.58,-196.57 219.95,-187.59 218.76,-198.12 225.58,-196.57"/>
</g>
</g>
</svg>
