<?xml version="1.0" encoding="UTF-8" standalone="no"?>
<!DOCTYPE svg PUBLIC "-//W3C//DTD SVG 1.1//EN"
 "http://www.w3.org/Graphics/SVG/1.1/DTD/svg11.dtd">
<!-- Generated by graphviz version 2.50.0 (20211204.2007)
 -->
<!-- Title: include/york/XML/Document.hpp Pages: 1 -->
<svg width="546pt" height="140pt"
 viewBox="0.00 0.00 546.00 140.00" xmlns="http://www.w3.org/2000/svg" xmlns:xlink="http://www.w3.org/1999/xlink">
<g id="graph0" class="graph" transform="scale(1 1) rotate(0) translate(4 136)">
<title>include/york/XML/Document.hpp</title>
<!-- Node1 -->
<g id="node1" class="node">
<title>Node1</title>
<g id="a_node1"><a xlink:title=" ">
<polygon fill="#bfbfbf" stroke="black" points="89.5,-112.5 89.5,-131.5 248.5,-131.5 248.5,-112.5 89.5,-112.5"/>
<text text-anchor="middle" x="169" y="-119.5" font-family="Helvetica,sans-Serif" font-size="10.00">include/york/XML/Document.hpp</text>
</a>
</g>
</g>
<!-- Node2 -->
<g id="node2" class="node">
<title>Node2</title>
<g id="a_node2"><a xlink:title=" ">
<polygon fill="none" stroke="#bfbfbf" points="0,-56.5 0,-75.5 50,-75.5 50,-56.5 0,-56.5"/>
<text text-anchor="middle" x="25" y="-63.5" font-family="Helvetica,sans-Serif" font-size="10.00">optional</text>
</a>
</g>
</g>
<!-- Node1&#45;&gt;Node2 -->
<g id="edge1" class="edge">
<title>Node1&#45;&gt;Node2</title>
<path fill="none" stroke="midnightblue" d="M146.18,-112.44C122.17,-103.44 84.17,-89.19 57.13,-79.05"/>
<polygon fill="midnightblue" stroke="midnightblue" points="58.3,-75.75 47.71,-75.52 55.84,-82.3 58.3,-75.75"/>
</g>
<!-- Node3 -->
<g id="node3" class="node">
<title>Node3</title>
<g id="a_node3"><a xlink:title=" ">
<polygon fill="none" stroke="#bfbfbf" points="68.5,-56.5 68.5,-75.5 127.5,-75.5 127.5,-56.5 68.5,-56.5"/>
<text text-anchor="middle" x="98" y="-63.5" font-family="Helvetica,sans-Serif" font-size="10.00">functional</text>
</a>
</g>
</g>
<!-- Node1&#45;&gt;Node3 -->
<g id="edge2" class="edge">
<title>Node1&#45;&gt;Node3</title>
<path fill="none" stroke="midnightblue" d="M157.59,-112.32C146.89,-104.18 130.66,-91.84 117.84,-82.09"/>
<polygon fill="midnightblue" stroke="midnightblue" points="119.69,-79.1 109.61,-75.83 115.46,-84.67 119.69,-79.1"/>
</g>
<!-- Node4 -->
<g id="node4" class="node">
<title>Node4</title>
<g id="a_node4"><a xlink:title=" ">
<polygon fill="none" stroke="#bfbfbf" points="146,-56.5 146,-75.5 336,-75.5 336,-56.5 146,-56.5"/>
<text text-anchor="middle" x="241" y="-63.5" font-family="Helvetica,sans-Serif" font-size="10.00">xercesc/parsers/XercesDOMParser.hpp</text>
</a>
</g>
</g>
<!-- Node1&#45;&gt;Node4 -->
<g id="edge3" class="edge">
<title>Node1&#45;&gt;Node4</title>
<path fill="none" stroke="midnightblue" d="M180.57,-112.32C191.42,-104.18 207.88,-91.84 220.88,-82.09"/>
<polygon fill="midnightblue" stroke="midnightblue" points="223.32,-84.63 229.22,-75.83 219.12,-79.03 223.32,-84.63"/>
</g>
<!-- Node5 -->
<g id="node5" class="node">
<title>Node5</title>
<g id="a_node5"><a xlink:href="_tag_8hpp.html" target="_top" xlink:title=" ">
<polygon fill="none" stroke="black" points="354.5,-56.5 354.5,-75.5 405.5,-75.5 405.5,-56.5 354.5,-56.5"/>
<text text-anchor="middle" x="380" y="-63.5" font-family="Helvetica,sans-Serif" font-size="10.00">Tag.hpp</text>
</a>
</g>
</g>
<!-- Node1&#45;&gt;Node5 -->
<g id="edge4" class="edge">
<title>Node1&#45;&gt;Node5</title>
<path fill="none" stroke="midnightblue" d="M202.42,-112.47C235.82,-103.94 288.91,-90.38 344.37,-76.16"/>
<polygon fill="midnightblue" stroke="midnightblue" points="345.57,-79.46 354.39,-73.59 343.83,-72.68 345.57,-79.46"/>
</g>
<!-- Node6 -->
<g id="node6" class="node">
<title>Node6</title>
<g id="a_node6"><a xlink:title=" ">
<polygon fill="none" stroke="#bfbfbf" points="298.5,-0.5 298.5,-19.5 339.5,-19.5 339.5,-0.5 298.5,-0.5"/>
<text text-anchor="middle" x="319" y="-7.5" font-family="Helvetica,sans-Serif" font-size="10.00">string</text>
</a>
</g>
</g>
<!-- Node5&#45;&gt;Node6 -->
<g id="edge5" class="edge">
<title>Node5&#45;&gt;Node6</title>
<path fill="none" stroke="midnightblue" d="M370.2,-56.32C361.18,-48.34 347.59,-36.31 336.68,-26.65"/>
<polygon fill="midnightblue" stroke="midnightblue" points="338.79,-23.84 328.98,-19.83 334.15,-29.08 338.79,-23.84"/>
</g>
<!-- Node7 -->
<g id="node7" class="node">
<title>Node7</title>
<g id="a_node7"><a xlink:title=" ">
<polygon fill="none" stroke="#bfbfbf" points="358,-0.5 358,-19.5 402,-19.5 402,-0.5 358,-0.5"/>
<text text-anchor="middle" x="380" y="-7.5" font-family="Helvetica,sans-Serif" font-size="10.00">vector</text>
</a>
</g>
</g>
<!-- Node5&#45;&gt;Node7 -->
<g id="edge6" class="edge">
<title>Node5&#45;&gt;Node7</title>
<path fill="none" stroke="midnightblue" d="M380,-56.08C380,-49.01 380,-38.86 380,-29.99"/>
<polygon fill="midnightblue" stroke="midnightblue" points="383.5,-29.75 380,-19.75 376.5,-29.75 383.5,-29.75"/>
</g>
<!-- Node8 -->
<g id="node8" class="node">
<title>Node8</title>
<g id="a_node8"><a xlink:title=" ">
<polygon fill="none" stroke="#bfbfbf" points="420,-0.5 420,-19.5 538,-19.5 538,-0.5 420,-0.5"/>
<text text-anchor="middle" x="479" y="-7.5" font-family="Helvetica,sans-Serif" font-size="10.00">xercesc/dom/DOM.hpp</text>
</a>
</g>
</g>
<!-- Node5&#45;&gt;Node8 -->
<g id="edge7" class="edge">
<title>Node5&#45;&gt;Node8</title>
<path fill="none" stroke="midnightblue" d="M395.91,-56.32C411.64,-47.74 435.94,-34.49 454.21,-24.52"/>
<polygon fill="midnightblue" stroke="midnightblue" points="456.03,-27.52 463.13,-19.65 452.68,-21.37 456.03,-27.52"/>
</g>
</g>
</svg>
