<?xml version="1.0" encoding="UTF-8" standalone="no"?>
<!DOCTYPE svg PUBLIC "-//W3C//DTD SVG 1.1//EN"
 "http://www.w3.org/Graphics/SVG/1.1/DTD/svg11.dtd">
<!-- Generated by graphviz version 3.0.0 (20220413.0106)
 -->
<!-- Title: include/york/XML/Document.hpp Pages: 1 -->
<svg width="716pt" height="196pt"
 viewBox="0.00 0.00 716.00 196.00" xmlns="http://www.w3.org/2000/svg" xmlns:xlink="http://www.w3.org/1999/xlink">
<g id="graph0" class="graph" transform="scale(1 1) rotate(0) translate(4 192)">
<title>include/york/XML/Document.hpp</title>
<!-- Node1 -->
<g id="node1" class="node">
<title>Node1</title>
<g id="a_node1"><a xlink:title=" ">
<polygon fill="#bfbfbf" stroke="black" points="90,-168.5 90,-187.5 248,-187.5 248,-168.5 90,-168.5"/>
<text text-anchor="middle" x="169" y="-175.5" font-family="Helvetica,sans-Serif" font-size="10.00">include/york/XML/Document.hpp</text>
</a>
</g>
</g>
<!-- Node2 -->
<g id="node2" class="node">
<title>Node2</title>
<g id="a_node2"><a xlink:title=" ">
<polygon fill="none" stroke="#bfbfbf" points="0,-112.5 0,-131.5 50,-131.5 50,-112.5 0,-112.5"/>
<text text-anchor="middle" x="25" y="-119.5" font-family="Helvetica,sans-Serif" font-size="10.00">optional</text>
</a>
</g>
</g>
<!-- Node1&#45;&gt;Node2 -->
<g id="edge1" class="edge">
<title>Node1&#45;&gt;Node2</title>
<path fill="none" stroke="midnightblue" d="M146.18,-168.44C122.17,-159.44 84.17,-145.19 57.13,-135.05"/>
<polygon fill="midnightblue" stroke="midnightblue" points="58.3,-131.75 47.71,-131.52 55.84,-138.3 58.3,-131.75"/>
</g>
<!-- Node3 -->
<g id="node3" class="node">
<title>Node3</title>
<g id="a_node3"><a xlink:title=" ">
<polygon fill="none" stroke="#bfbfbf" points="68.5,-112.5 68.5,-131.5 127.5,-131.5 127.5,-112.5 68.5,-112.5"/>
<text text-anchor="middle" x="98" y="-119.5" font-family="Helvetica,sans-Serif" font-size="10.00">functional</text>
</a>
</g>
</g>
<!-- Node1&#45;&gt;Node3 -->
<g id="edge2" class="edge">
<title>Node1&#45;&gt;Node3</title>
<path fill="none" stroke="midnightblue" d="M157.59,-168.32C146.89,-160.18 130.66,-147.84 117.84,-138.09"/>
<polygon fill="midnightblue" stroke="midnightblue" points="119.69,-135.1 109.61,-131.83 115.46,-140.67 119.69,-135.1"/>
</g>
<!-- Node4 -->
<g id="node4" class="node">
<title>Node4</title>
<g id="a_node4"><a xlink:title=" ">
<polygon fill="none" stroke="#bfbfbf" points="146,-112.5 146,-131.5 334,-131.5 334,-112.5 146,-112.5"/>
<text text-anchor="middle" x="240" y="-119.5" font-family="Helvetica,sans-Serif" font-size="10.00">xercesc/parsers/XercesDOMParser.hpp</text>
</a>
</g>
</g>
<!-- Node1&#45;&gt;Node4 -->
<g id="edge3" class="edge">
<title>Node1&#45;&gt;Node4</title>
<path fill="none" stroke="midnightblue" d="M180.41,-168.32C191.11,-160.18 207.34,-147.84 220.16,-138.09"/>
<polygon fill="midnightblue" stroke="midnightblue" points="222.54,-140.67 228.39,-131.83 218.31,-135.1 222.54,-140.67"/>
</g>
<!-- Node5 -->
<g id="node5" class="node">
<title>Node5</title>
<g id="a_node5"><a xlink:href="_tag_8hpp.html" target="_top" xlink:title=" ">
<polygon fill="none" stroke="black" points="352.5,-112.5 352.5,-131.5 403.5,-131.5 403.5,-112.5 352.5,-112.5"/>
<text text-anchor="middle" x="378" y="-119.5" font-family="Helvetica,sans-Serif" font-size="10.00">Tag.hpp</text>
</a>
</g>
</g>
<!-- Node1&#45;&gt;Node5 -->
<g id="edge4" class="edge">
<title>Node1&#45;&gt;Node5</title>
<path fill="none" stroke="midnightblue" d="M202.12,-168.44C240.45,-158.54 303.32,-142.29 342.6,-132.15"/>
<polygon fill="midnightblue" stroke="midnightblue" points="343.48,-135.53 352.29,-129.64 341.73,-128.76 343.48,-135.53"/>
</g>
<!-- Node6 -->
<g id="node6" class="node">
<title>Node6</title>
<g id="a_node6"><a xlink:title=" ">
<polygon fill="none" stroke="#bfbfbf" points="260.5,-56.5 260.5,-75.5 301.5,-75.5 301.5,-56.5 260.5,-56.5"/>
<text text-anchor="middle" x="281" y="-63.5" font-family="Helvetica,sans-Serif" font-size="10.00">string</text>
</a>
</g>
</g>
<!-- Node5&#45;&gt;Node6 -->
<g id="edge5" class="edge">
<title>Node5&#45;&gt;Node6</title>
<path fill="none" stroke="midnightblue" d="M362.42,-112.32C347,-103.74 323.19,-90.49 305.29,-80.52"/>
<polygon fill="midnightblue" stroke="midnightblue" points="306.99,-77.46 296.55,-75.65 303.58,-83.58 306.99,-77.46"/>
</g>
<!-- Node7 -->
<g id="node7" class="node">
<title>Node7</title>
<g id="a_node7"><a xlink:title=" ">
<polygon fill="none" stroke="#bfbfbf" points="320,-56.5 320,-75.5 436,-75.5 436,-56.5 320,-56.5"/>
<text text-anchor="middle" x="378" y="-63.5" font-family="Helvetica,sans-Serif" font-size="10.00">xercesc/dom/DOM.hpp</text>
</a>
</g>
</g>
<!-- Node5&#45;&gt;Node7 -->
<g id="edge6" class="edge">
<title>Node5&#45;&gt;Node7</title>
<path fill="none" stroke="midnightblue" d="M378,-112.08C378,-105.01 378,-94.86 378,-85.99"/>
<polygon fill="midnightblue" stroke="midnightblue" points="381.5,-85.75 378,-75.75 374.5,-85.75 381.5,-85.75"/>
</g>
<!-- Node8 -->
<g id="node8" class="node">
<title>Node8</title>
<g id="a_node8"><a xlink:href="_containers_8hpp.html" target="_top" xlink:title=" ">
<polygon fill="none" stroke="black" points="454,-56.5 454,-75.5 556,-75.5 556,-56.5 454,-56.5"/>
<text text-anchor="middle" x="505" y="-63.5" font-family="Helvetica,sans-Serif" font-size="10.00">york/Containers.hpp</text>
</a>
</g>
</g>
<!-- Node5&#45;&gt;Node8 -->
<g id="edge7" class="edge">
<title>Node5&#45;&gt;Node8</title>
<path fill="none" stroke="midnightblue" d="M398.12,-112.44C419.02,-103.56 451.93,-89.56 475.72,-79.45"/>
<polygon fill="midnightblue" stroke="midnightblue" points="477.14,-82.65 484.97,-75.52 474.4,-76.21 477.14,-82.65"/>
</g>
<!-- Node9 -->
<g id="node9" class="node">
<title>Node9</title>
<g id="a_node9"><a xlink:title=" ">
<polygon fill="none" stroke="#bfbfbf" points="380,-0.5 380,-19.5 424,-19.5 424,-0.5 380,-0.5"/>
<text text-anchor="middle" x="402" y="-7.5" font-family="Helvetica,sans-Serif" font-size="10.00">vector</text>
</a>
</g>
</g>
<!-- Node8&#45;&gt;Node9 -->
<g id="edge8" class="edge">
<title>Node8&#45;&gt;Node9</title>
<path fill="none" stroke="midnightblue" d="M488.45,-56.32C472.01,-47.7 446.57,-34.36 427.53,-24.39"/>
<polygon fill="midnightblue" stroke="midnightblue" points="428.99,-21.2 418.51,-19.65 425.74,-27.4 428.99,-21.2"/>
</g>
<!-- Node10 -->
<g id="node10" class="node">
<title>Node10</title>
<g id="a_node10"><a xlink:title=" ">
<polygon fill="none" stroke="#bfbfbf" points="442,-0.5 442,-19.5 568,-19.5 568,-0.5 442,-0.5"/>
<text text-anchor="middle" x="505" y="-7.5" font-family="Helvetica,sans-Serif" font-size="10.00">boost/pool/pool_alloc.hpp</text>
</a>
</g>
</g>
<!-- Node8&#45;&gt;Node10 -->
<g id="edge9" class="edge">
<title>Node8&#45;&gt;Node10</title>
<path fill="none" stroke="midnightblue" d="M505,-56.08C505,-49.01 505,-38.86 505,-29.99"/>
<polygon fill="midnightblue" stroke="midnightblue" points="508.5,-29.75 505,-19.75 501.5,-29.75 508.5,-29.75"/>
</g>
<!-- Node11 -->
<g id="node11" class="node">
<title>Node11</title>
<g id="a_node11"><a xlink:title=" ">
<polygon fill="none" stroke="#bfbfbf" points="586,-0.5 586,-19.5 708,-19.5 708,-0.5 586,-0.5"/>
<text text-anchor="middle" x="647" y="-7.5" font-family="Helvetica,sans-Serif" font-size="10.00">boost/circular_buffer.hpp</text>
</a>
</g>
</g>
<!-- Node8&#45;&gt;Node11 -->
<g id="edge10" class="edge">
<title>Node8&#45;&gt;Node11</title>
<path fill="none" stroke="midnightblue" d="M527.5,-56.44C551.08,-47.48 588.32,-33.31 614.96,-23.18"/>
<polygon fill="midnightblue" stroke="midnightblue" points="616.5,-26.34 624.6,-19.52 614.01,-19.8 616.5,-26.34"/>
</g>
</g>
</svg>
