<?xml version="1.0" encoding="UTF-8" standalone="no"?>
<!DOCTYPE svg PUBLIC "-//W3C//DTD SVG 1.1//EN"
 "http://www.w3.org/Graphics/SVG/1.1/DTD/svg11.dtd">
<!-- Generated by graphviz version 3.0.0 (20220413.0106)
 -->
<!-- Title: include/york/Event.hpp Pages: 1 -->
<svg width="449pt" height="196pt"
 viewBox="0.00 0.00 449.33 196.00" xmlns="http://www.w3.org/2000/svg" xmlns:xlink="http://www.w3.org/1999/xlink">
<g id="graph0" class="graph" transform="scale(1 1) rotate(0) translate(4 192)">
<title>include/york/Event.hpp</title>
<!-- Node1 -->
<g id="node1" class="node">
<title>Node1</title>
<g id="a_node1"><a xlink:title=" ">
<polygon fill="#bfbfbf" stroke="black" points="92.33,-168.5 92.33,-187.5 206.33,-187.5 206.33,-168.5 92.33,-168.5"/>
<text text-anchor="middle" x="149.33" y="-175.5" font-family="Helvetica,sans-Serif" font-size="10.00">include/york/Event.hpp</text>
</a>
</g>
</g>
<!-- Node2 -->
<g id="node2" class="node">
<title>Node2</title>
<g id="a_node2"><a xlink:title=" ">
<polygon fill="none" stroke="#bfbfbf" points="40.83,-56.5 40.83,-75.5 99.83,-75.5 99.83,-56.5 40.83,-56.5"/>
<text text-anchor="middle" x="70.33" y="-63.5" font-family="Helvetica,sans-Serif" font-size="10.00">functional</text>
</a>
</g>
</g>
<!-- Node1&#45;&gt;Node2 -->
<g id="edge1" class="edge">
<title>Node1&#45;&gt;Node2</title>
<path fill="none" stroke="midnightblue" d="M92.21,-174.92C60.88,-170.5 24.42,-159.27 4.33,-132 -10.4,-112 16.69,-92.46 40.48,-80.12"/>
<polygon fill="midnightblue" stroke="midnightblue" points="42.25,-83.15 49.68,-75.6 39.16,-76.87 42.25,-83.15"/>
</g>
<!-- Node3 -->
<g id="node3" class="node">
<title>Node3</title>
<g id="a_node3"><a xlink:title=" ">
<polygon fill="none" stroke="#bfbfbf" points="13.33,-112.5 13.33,-131.5 91.33,-131.5 91.33,-112.5 13.33,-112.5"/>
<text text-anchor="middle" x="52.33" y="-119.5" font-family="Helvetica,sans-Serif" font-size="10.00">SDL_events.h</text>
</a>
</g>
</g>
<!-- Node1&#45;&gt;Node3 -->
<g id="edge2" class="edge">
<title>Node1&#45;&gt;Node3</title>
<path fill="none" stroke="midnightblue" d="M133.75,-168.32C118.34,-159.74 94.52,-146.49 76.63,-136.52"/>
<polygon fill="midnightblue" stroke="midnightblue" points="78.32,-133.46 67.88,-131.65 74.92,-139.58 78.32,-133.46"/>
</g>
<!-- Node4 -->
<g id="node4" class="node">
<title>Node4</title>
<g id="a_node4"><a xlink:href="_key_codes_8hpp.html" target="_top" xlink:title=" ">
<polygon fill="none" stroke="black" points="109.83,-112.5 109.83,-131.5 188.83,-131.5 188.83,-112.5 109.83,-112.5"/>
<text text-anchor="middle" x="149.33" y="-119.5" font-family="Helvetica,sans-Serif" font-size="10.00">KeyCodes.hpp</text>
</a>
</g>
</g>
<!-- Node1&#45;&gt;Node4 -->
<g id="edge3" class="edge">
<title>Node1&#45;&gt;Node4</title>
<path fill="none" stroke="midnightblue" d="M149.33,-168.08C149.33,-161.01 149.33,-150.86 149.33,-141.99"/>
<polygon fill="midnightblue" stroke="midnightblue" points="152.84,-141.75 149.33,-131.75 145.84,-141.75 152.84,-141.75"/>
</g>
<!-- Node5 -->
<g id="node5" class="node">
<title>Node5</title>
<g id="a_node5"><a xlink:href="_identifiable_8hpp.html" target="_top" xlink:title=" ">
<polygon fill="none" stroke="black" points="302.83,-112.5 302.83,-131.5 383.83,-131.5 383.83,-112.5 302.83,-112.5"/>
<text text-anchor="middle" x="343.33" y="-119.5" font-family="Helvetica,sans-Serif" font-size="10.00">Identifiable.hpp</text>
</a>
</g>
</g>
<!-- Node1&#45;&gt;Node5 -->
<g id="edge4" class="edge">
<title>Node1&#45;&gt;Node5</title>
<path fill="none" stroke="midnightblue" d="M180.07,-168.44C213.28,-159.2 266.33,-144.44 302.89,-134.26"/>
<polygon fill="midnightblue" stroke="midnightblue" points="304.04,-137.57 312.74,-131.52 302.17,-130.83 304.04,-137.57"/>
</g>
<!-- Node7 -->
<g id="node7" class="node">
<title>Node7</title>
<g id="a_node7"><a xlink:href="_registry_8hpp.html" target="_top" xlink:title=" ">
<polygon fill="none" stroke="black" points="207.33,-112.5 207.33,-131.5 277.33,-131.5 277.33,-112.5 207.33,-112.5"/>
<text text-anchor="middle" x="242.33" y="-119.5" font-family="Helvetica,sans-Serif" font-size="10.00">Registry.hpp</text>
</a>
</g>
</g>
<!-- Node1&#45;&gt;Node7 -->
<g id="edge6" class="edge">
<title>Node1&#45;&gt;Node7</title>
<path fill="none" stroke="midnightblue" d="M164.28,-168.32C178.92,-159.82 201.47,-146.73 218.57,-136.8"/>
<polygon fill="midnightblue" stroke="midnightblue" points="220.54,-139.7 227.43,-131.65 217.02,-133.65 220.54,-139.7"/>
</g>
<!-- Node6 -->
<g id="node6" class="node">
<title>Node6</title>
<g id="a_node6"><a xlink:title=" ">
<polygon fill="none" stroke="#bfbfbf" points="296.83,-56.5 296.83,-75.5 397.83,-75.5 397.83,-56.5 296.83,-56.5"/>
<text text-anchor="middle" x="347.33" y="-63.5" font-family="Helvetica,sans-Serif" font-size="10.00">boost/uuid/uuid.hpp</text>
</a>
</g>
</g>
<!-- Node5&#45;&gt;Node6 -->
<g id="edge5" class="edge">
<title>Node5&#45;&gt;Node6</title>
<path fill="none" stroke="midnightblue" d="M344,-112.08C344.52,-105.01 345.27,-94.86 345.93,-85.99"/>
<polygon fill="midnightblue" stroke="midnightblue" points="349.44,-85.98 346.69,-75.75 342.46,-85.47 349.44,-85.98"/>
</g>
<!-- Node7&#45;&gt;Node2 -->
<g id="edge7" class="edge">
<title>Node7&#45;&gt;Node2</title>
<path fill="none" stroke="midnightblue" d="M215.08,-112.44C185.89,-103.28 139.41,-88.69 107.03,-78.52"/>
<polygon fill="midnightblue" stroke="midnightblue" points="108.05,-75.17 97.46,-75.52 105.95,-81.85 108.05,-75.17"/>
</g>
<!-- Node8 -->
<g id="node8" class="node">
<title>Node8</title>
<g id="a_node8"><a xlink:href="_containers_8hpp.html" target="_top" xlink:title=" ">
<polygon fill="none" stroke="black" points="197.83,-56.5 197.83,-75.5 278.83,-75.5 278.83,-56.5 197.83,-56.5"/>
<text text-anchor="middle" x="238.33" y="-63.5" font-family="Helvetica,sans-Serif" font-size="10.00">Containers.hpp</text>
</a>
</g>
</g>
<!-- Node7&#45;&gt;Node8 -->
<g id="edge8" class="edge">
<title>Node7&#45;&gt;Node8</title>
<path fill="none" stroke="midnightblue" d="M241.67,-112.08C241.15,-105.01 240.4,-94.86 239.74,-85.99"/>
<polygon fill="midnightblue" stroke="midnightblue" points="243.21,-85.47 238.98,-75.75 236.23,-85.98 243.21,-85.47"/>
</g>
<!-- Node9 -->
<g id="node9" class="node">
<title>Node9</title>
<g id="a_node9"><a xlink:title=" ">
<polygon fill="none" stroke="#bfbfbf" points="113.33,-0.5 113.33,-19.5 157.33,-19.5 157.33,-0.5 113.33,-0.5"/>
<text text-anchor="middle" x="135.33" y="-7.5" font-family="Helvetica,sans-Serif" font-size="10.00">vector</text>
</a>
</g>
</g>
<!-- Node8&#45;&gt;Node9 -->
<g id="edge9" class="edge">
<title>Node8&#45;&gt;Node9</title>
<path fill="none" stroke="midnightblue" d="M221.79,-56.32C205.34,-47.7 179.9,-34.36 160.87,-24.39"/>
<polygon fill="midnightblue" stroke="midnightblue" points="162.32,-21.2 151.84,-19.65 159.07,-27.4 162.32,-21.2"/>
</g>
<!-- Node10 -->
<g id="node10" class="node">
<title>Node10</title>
<g id="a_node10"><a xlink:title=" ">
<polygon fill="none" stroke="#bfbfbf" points="175.33,-0.5 175.33,-19.5 301.33,-19.5 301.33,-0.5 175.33,-0.5"/>
<text text-anchor="middle" x="238.33" y="-7.5" font-family="Helvetica,sans-Serif" font-size="10.00">boost/pool/pool_alloc.hpp</text>
</a>
</g>
</g>
<!-- Node8&#45;&gt;Node10 -->
<g id="edge10" class="edge">
<title>Node8&#45;&gt;Node10</title>
<path fill="none" stroke="midnightblue" d="M238.33,-56.08C238.33,-49.01 238.33,-38.86 238.33,-29.99"/>
<polygon fill="midnightblue" stroke="midnightblue" points="241.84,-29.75 238.33,-19.75 234.84,-29.75 241.84,-29.75"/>
</g>
<!-- Node11 -->
<g id="node11" class="node">
<title>Node11</title>
<g id="a_node11"><a xlink:title=" ">
<polygon fill="none" stroke="#bfbfbf" points="319.33,-0.5 319.33,-19.5 441.33,-19.5 441.33,-0.5 319.33,-0.5"/>
<text text-anchor="middle" x="380.33" y="-7.5" font-family="Helvetica,sans-Serif" font-size="10.00">boost/circular_buffer.hpp</text>
</a>
</g>
</g>
<!-- Node8&#45;&gt;Node11 -->
<g id="edge11" class="edge">
<title>Node8&#45;&gt;Node11</title>
<path fill="none" stroke="midnightblue" d="M260.84,-56.44C284.41,-47.48 321.66,-33.31 348.3,-23.18"/>
<polygon fill="midnightblue" stroke="midnightblue" points="349.84,-26.34 357.94,-19.52 347.35,-19.8 349.84,-26.34"/>
</g>
</g>
</svg>
