<?xml version="1.0" encoding="UTF-8" standalone="no"?>
<!DOCTYPE svg PUBLIC "-//W3C//DTD SVG 1.1//EN"
 "http://www.w3.org/Graphics/SVG/1.1/DTD/svg11.dtd">
<!-- Generated by graphviz version 2.50.0 (20211204.2007)
 -->
<!-- Title: include/york/Graphics/FrameData.hpp Pages: 1 -->
<svg width="1054pt" height="655pt"
 viewBox="0.00 0.00 1054.00 655.00" xmlns="http://www.w3.org/2000/svg" xmlns:xlink="http://www.w3.org/1999/xlink">
<g id="graph0" class="graph" transform="scale(1 1) rotate(0) translate(4 651)">
<title>include/york/Graphics/FrameData.hpp</title>
<!-- Node1 -->
<g id="node1" class="node">
<title>Node1</title>
<g id="a_node1"><a xlink:title=" ">
<polygon fill="#bfbfbf" stroke="black" points="601.5,-616.5 601.5,-646.5 712.5,-646.5 712.5,-616.5 601.5,-616.5"/>
<text text-anchor="start" x="609.5" y="-634.5" font-family="Helvetica,sans-Serif" font-size="10.00">include/york/Graphics</text>
<text text-anchor="middle" x="657" y="-623.5" font-family="Helvetica,sans-Serif" font-size="10.00">/FrameData.hpp</text>
</a>
</g>
</g>
<!-- Node2 -->
<g id="node2" class="node">
<title>Node2</title>
<g id="a_node2"><a xlink:href="_semaphore_8hpp.html" target="_top" xlink:title=" ">
<polygon fill="none" stroke="black" points="366.5,-392.5 366.5,-411.5 451.5,-411.5 451.5,-392.5 366.5,-392.5"/>
<text text-anchor="middle" x="409" y="-399.5" font-family="Helvetica,sans-Serif" font-size="10.00">Semaphore.hpp</text>
</a>
</g>
</g>
<!-- Node1&#45;&gt;Node2 -->
<g id="edge1" class="edge">
<title>Node1&#45;&gt;Node2</title>
<path fill="none" stroke="midnightblue" d="M641.49,-616.27C597.47,-575.89 472.02,-460.81 426.11,-418.69"/>
<polygon fill="midnightblue" stroke="midnightblue" points="428.47,-416.11 418.73,-411.93 423.73,-421.27 428.47,-416.11"/>
</g>
<!-- Node19 -->
<g id="node19" class="node">
<title>Node19</title>
<g id="a_node19"><a xlink:href="_command_pool_8hpp.html" target="_top" xlink:title=" ">
<polygon fill="none" stroke="black" points="470,-392.5 470,-411.5 570,-411.5 570,-392.5 470,-392.5"/>
<text text-anchor="middle" x="520" y="-399.5" font-family="Helvetica,sans-Serif" font-size="10.00">CommandPool.hpp</text>
</a>
</g>
</g>
<!-- Node1&#45;&gt;Node19 -->
<g id="edge34" class="edge">
<title>Node1&#45;&gt;Node19</title>
<path fill="none" stroke="midnightblue" d="M648.43,-616.27C624.47,-576.48 556.82,-464.13 530.58,-420.57"/>
<polygon fill="midnightblue" stroke="midnightblue" points="533.53,-418.69 525.38,-411.93 527.54,-422.3 533.53,-418.69"/>
</g>
<!-- Node20 -->
<g id="node20" class="node">
<title>Node20</title>
<g id="a_node20"><a xlink:href="_fence_8hpp.html" target="_top" xlink:title=" ">
<polygon fill="none" stroke="black" points="626,-392.5 626,-411.5 688,-411.5 688,-392.5 626,-392.5"/>
<text text-anchor="middle" x="657" y="-399.5" font-family="Helvetica,sans-Serif" font-size="10.00">Fence.hpp</text>
</a>
</g>
</g>
<!-- Node1&#45;&gt;Node20 -->
<g id="edge38" class="edge">
<title>Node1&#45;&gt;Node20</title>
<path fill="none" stroke="midnightblue" d="M657,-616.27C657,-576.89 657,-466.49 657,-421.97"/>
<polygon fill="midnightblue" stroke="midnightblue" points="660.5,-421.93 657,-411.93 653.5,-421.93 660.5,-421.93"/>
</g>
<!-- Node21 -->
<g id="node21" class="node">
<title>Node21</title>
<g id="a_node21"><a xlink:href="_framebuffer_8hpp.html" target="_top" xlink:title=" ">
<polygon fill="none" stroke="black" points="812.5,-560.5 812.5,-579.5 899.5,-579.5 899.5,-560.5 812.5,-560.5"/>
<text text-anchor="middle" x="856" y="-567.5" font-family="Helvetica,sans-Serif" font-size="10.00">Framebuffer.hpp</text>
</a>
</g>
</g>
<!-- Node1&#45;&gt;Node21 -->
<g id="edge42" class="edge">
<title>Node1&#45;&gt;Node21</title>
<path fill="none" stroke="midnightblue" d="M703.91,-616.47C738.69,-606.08 785.5,-592.08 817.97,-582.37"/>
<polygon fill="midnightblue" stroke="midnightblue" points="818.97,-585.72 827.55,-579.51 816.97,-579.02 818.97,-585.72"/>
</g>
<!-- Node23 -->
<g id="node23" class="node">
<title>Node23</title>
<g id="a_node23"><a xlink:href="_swap_chain_8hpp.html" target="_top" xlink:title=" ">
<polygon fill="none" stroke="black" points="742,-448.5 742,-467.5 828,-467.5 828,-448.5 742,-448.5"/>
<text text-anchor="middle" x="785" y="-455.5" font-family="Helvetica,sans-Serif" font-size="10.00">SwapChain.hpp</text>
</a>
</g>
</g>
<!-- Node1&#45;&gt;Node23 -->
<g id="edge57" class="edge">
<title>Node1&#45;&gt;Node23</title>
<path fill="none" stroke="midnightblue" d="M667.47,-616.47C690.83,-585.17 747.11,-509.76 772.36,-475.93"/>
<polygon fill="midnightblue" stroke="midnightblue" points="775.43,-477.67 778.61,-467.56 769.83,-473.48 775.43,-477.67"/>
</g>
<!-- Node3 -->
<g id="node3" class="node">
<title>Node3</title>
<g id="a_node3"><a xlink:href="_handle_8hpp.html" target="_top" xlink:title="Contains the declarations for the Handle classes which form the basis of our Vulkan implementation.">
<polygon fill="none" stroke="black" points="414,-112.5 414,-131.5 480,-131.5 480,-112.5 414,-112.5"/>
<text text-anchor="middle" x="447" y="-119.5" font-family="Helvetica,sans-Serif" font-size="10.00">Handle.hpp</text>
</a>
</g>
</g>
<!-- Node2&#45;&gt;Node3 -->
<g id="edge2" class="edge">
<title>Node2&#45;&gt;Node3</title>
<path fill="none" stroke="midnightblue" d="M366.39,-398.59C261.63,-391.51 0,-366.28 0,-291 0,-291 0,-291 0,-233 0,-179.99 50.25,-186.31 100,-168 127.97,-157.7 317.02,-136.74 403.71,-127.52"/>
<polygon fill="midnightblue" stroke="midnightblue" points="404.19,-130.99 413.76,-126.46 403.45,-124.03 404.19,-130.99"/>
</g>
<!-- Node8 -->
<g id="node8" class="node">
<title>Node8</title>
<g id="a_node8"><a xlink:href="_device_8hpp.html" target="_top" xlink:title=" ">
<polygon fill="none" stroke="black" points="504,-336.5 504,-355.5 570,-355.5 570,-336.5 504,-336.5"/>
<text text-anchor="middle" x="537" y="-343.5" font-family="Helvetica,sans-Serif" font-size="10.00">Device.hpp</text>
</a>
</g>
</g>
<!-- Node2&#45;&gt;Node8 -->
<g id="edge7" class="edge">
<title>Node2&#45;&gt;Node8</title>
<path fill="none" stroke="midnightblue" d="M429.28,-392.44C450.35,-383.56 483.52,-369.56 507.49,-359.45"/>
<polygon fill="midnightblue" stroke="midnightblue" points="508.96,-362.63 516.81,-355.52 506.24,-356.18 508.96,-362.63"/>
</g>
<!-- Node10 -->
<g id="node10" class="node">
<title>Node10</title>
<g id="a_node10"><a xlink:title=" ">
<polygon fill="none" stroke="#bfbfbf" points="618.5,-168.5 618.5,-187.5 713.5,-187.5 713.5,-168.5 618.5,-168.5"/>
<text text-anchor="middle" x="666" y="-175.5" font-family="Helvetica,sans-Serif" font-size="10.00">vulkan/vulkan.hpp</text>
</a>
</g>
</g>
<!-- Node2&#45;&gt;Node10 -->
<g id="edge33" class="edge">
<title>Node2&#45;&gt;Node10</title>
<path fill="none" stroke="midnightblue" d="M417.08,-392.41C436.38,-372.07 486.97,-319.67 533,-280 571.08,-247.18 618.59,-212.48 645.29,-193.51"/>
<polygon fill="midnightblue" stroke="midnightblue" points="647.36,-196.33 653.5,-187.7 643.32,-190.62 647.36,-196.33"/>
</g>
<!-- Node4 -->
<g id="node4" class="node">
<title>Node4</title>
<g id="a_node4"><a xlink:title=" ">
<polygon fill="none" stroke="#bfbfbf" points="195,-56.5 195,-75.5 239,-75.5 239,-56.5 195,-56.5"/>
<text text-anchor="middle" x="217" y="-63.5" font-family="Helvetica,sans-Serif" font-size="10.00">vector</text>
</a>
</g>
</g>
<!-- Node3&#45;&gt;Node4 -->
<g id="edge3" class="edge">
<title>Node3&#45;&gt;Node4</title>
<path fill="none" stroke="midnightblue" d="M413.56,-113.15C369.47,-102.8 292.45,-84.71 249.07,-74.53"/>
<polygon fill="midnightblue" stroke="midnightblue" points="249.59,-71.06 239.06,-72.18 247.99,-77.87 249.59,-71.06"/>
</g>
<!-- Node5 -->
<g id="node5" class="node">
<title>Node5</title>
<g id="a_node5"><a xlink:title=" ">
<polygon fill="none" stroke="#bfbfbf" points="367.5,-56.5 367.5,-75.5 426.5,-75.5 426.5,-56.5 367.5,-56.5"/>
<text text-anchor="middle" x="397" y="-63.5" font-family="Helvetica,sans-Serif" font-size="10.00">functional</text>
</a>
</g>
</g>
<!-- Node3&#45;&gt;Node5 -->
<g id="edge4" class="edge">
<title>Node3&#45;&gt;Node5</title>
<path fill="none" stroke="midnightblue" d="M438.74,-112.08C431.54,-104.3 420.89,-92.8 412.15,-83.37"/>
<polygon fill="midnightblue" stroke="midnightblue" points="414.47,-80.71 405.1,-75.75 409.33,-85.47 414.47,-80.71"/>
</g>
<!-- Node6 -->
<g id="node6" class="node">
<title>Node6</title>
<g id="a_node6"><a xlink:href="_identifiable_8hpp.html" target="_top" xlink:title=" ">
<polygon fill="none" stroke="black" points="445,-56.5 445,-75.5 549,-75.5 549,-56.5 445,-56.5"/>
<text text-anchor="middle" x="497" y="-63.5" font-family="Helvetica,sans-Serif" font-size="10.00">york/Identifiable.hpp</text>
</a>
</g>
</g>
<!-- Node3&#45;&gt;Node6 -->
<g id="edge5" class="edge">
<title>Node3&#45;&gt;Node6</title>
<path fill="none" stroke="midnightblue" d="M455.26,-112.08C462.46,-104.3 473.11,-92.8 481.85,-83.37"/>
<polygon fill="midnightblue" stroke="midnightblue" points="484.67,-85.47 488.9,-75.75 479.53,-80.71 484.67,-85.47"/>
</g>
<!-- Node7 -->
<g id="node7" class="node">
<title>Node7</title>
<g id="a_node7"><a xlink:title=" ">
<polygon fill="none" stroke="#bfbfbf" points="474,-0.5 474,-19.5 520,-19.5 520,-0.5 474,-0.5"/>
<text text-anchor="middle" x="497" y="-7.5" font-family="Helvetica,sans-Serif" font-size="10.00">cstdint</text>
</a>
</g>
</g>
<!-- Node6&#45;&gt;Node7 -->
<g id="edge6" class="edge">
<title>Node6&#45;&gt;Node7</title>
<path fill="none" stroke="midnightblue" d="M497,-56.08C497,-49.01 497,-38.86 497,-29.99"/>
<polygon fill="midnightblue" stroke="midnightblue" points="500.5,-29.75 497,-19.75 493.5,-29.75 500.5,-29.75"/>
</g>
<!-- Node8&#45;&gt;Node3 -->
<g id="edge10" class="edge">
<title>Node8&#45;&gt;Node3</title>
<path fill="none" stroke="midnightblue" d="M517.52,-336.33C488.05,-321.99 433.2,-290.25 411,-244 407.15,-235.99 409.49,-232.76 411,-224 412.45,-215.62 430.17,-167.74 440.2,-141.02"/>
<polygon fill="midnightblue" stroke="midnightblue" points="443.48,-142.23 443.73,-131.64 436.93,-139.77 443.48,-142.23"/>
</g>
<!-- Node9 -->
<g id="node9" class="node">
<title>Node9</title>
<g id="a_node9"><a xlink:title=" ">
<polygon fill="none" stroke="#bfbfbf" points="542,-280.5 542,-299.5 582,-299.5 582,-280.5 542,-280.5"/>
<text text-anchor="middle" x="562" y="-287.5" font-family="Helvetica,sans-Serif" font-size="10.00">utility</text>
</a>
</g>
</g>
<!-- Node8&#45;&gt;Node9 -->
<g id="edge8" class="edge">
<title>Node8&#45;&gt;Node9</title>
<path fill="none" stroke="midnightblue" d="M541.13,-336.08C544.51,-328.77 549.42,-318.18 553.62,-309.1"/>
<polygon fill="midnightblue" stroke="midnightblue" points="556.92,-310.3 557.95,-299.75 550.57,-307.36 556.92,-310.3"/>
</g>
<!-- Node8&#45;&gt;Node10 -->
<g id="edge9" class="edge">
<title>Node8&#45;&gt;Node10</title>
<path fill="none" stroke="midnightblue" d="M549.57,-336.34C561.19,-327.94 578.51,-314.37 591,-300 619.8,-266.86 644.74,-221.46 657.31,-196.76"/>
<polygon fill="midnightblue" stroke="midnightblue" points="660.58,-198.05 661.92,-187.54 654.32,-194.92 660.58,-198.05"/>
</g>
<!-- Node11 -->
<g id="node11" class="node">
<title>Node11</title>
<g id="a_node11"><a xlink:href="_instance_8hpp.html" target="_top" xlink:title=" ">
<polygon fill="none" stroke="black" points="214.5,-224.5 214.5,-243.5 287.5,-243.5 287.5,-224.5 214.5,-224.5"/>
<text text-anchor="middle" x="251" y="-231.5" font-family="Helvetica,sans-Serif" font-size="10.00">Instance.hpp</text>
</a>
</g>
</g>
<!-- Node8&#45;&gt;Node11 -->
<g id="edge11" class="edge">
<title>Node8&#45;&gt;Node11</title>
<path fill="none" stroke="midnightblue" d="M503.6,-342.66C443.3,-337.86 319.31,-325.17 285,-300 269.63,-288.73 260.61,-268.42 255.77,-253.49"/>
<polygon fill="midnightblue" stroke="midnightblue" points="259.1,-252.41 252.95,-243.78 252.38,-254.36 259.1,-252.41"/>
</g>
<!-- Node13 -->
<g id="node13" class="node">
<title>Node13</title>
<g id="a_node13"><a xlink:href="_requestable_item_8hpp.html" target="_top" xlink:title=" ">
<polygon fill="none" stroke="black" points="142,-168.5 142,-187.5 252,-187.5 252,-168.5 142,-168.5"/>
<text text-anchor="middle" x="197" y="-175.5" font-family="Helvetica,sans-Serif" font-size="10.00">RequestableItem.hpp</text>
</a>
</g>
</g>
<!-- Node8&#45;&gt;Node13 -->
<g id="edge27" class="edge">
<title>Node8&#45;&gt;Node13</title>
<path fill="none" stroke="midnightblue" d="M503.74,-345.56C450.54,-345.16 344.23,-339 265,-300 232.27,-283.89 221.56,-276.5 205,-244 197.66,-229.59 196.01,-211.14 195.99,-197.58"/>
<polygon fill="midnightblue" stroke="midnightblue" points="199.49,-197.62 196.26,-187.53 192.49,-197.43 199.49,-197.62"/>
</g>
<!-- Node16 -->
<g id="node16" class="node">
<title>Node16</title>
<g id="a_node16"><a xlink:href="_physical_device_8hpp.html" target="_top" xlink:title=" ">
<polygon fill="none" stroke="black" points="420,-224.5 420,-243.5 524,-243.5 524,-224.5 420,-224.5"/>
<text text-anchor="middle" x="472" y="-231.5" font-family="Helvetica,sans-Serif" font-size="10.00">PhysicalDevice.hpp</text>
</a>
</g>
</g>
<!-- Node8&#45;&gt;Node16 -->
<g id="edge22" class="edge">
<title>Node8&#45;&gt;Node16</title>
<path fill="none" stroke="midnightblue" d="M531.9,-336.37C521.22,-318.3 496.33,-276.18 482.23,-252.31"/>
<polygon fill="midnightblue" stroke="midnightblue" points="485.18,-250.42 477.08,-243.59 479.15,-253.98 485.18,-250.42"/>
</g>
<!-- Node18 -->
<g id="node18" class="node">
<title>Node18</title>
<g id="a_node18"><a xlink:href="_surface_8hpp.html" target="_top" xlink:title=" ">
<polygon fill="none" stroke="black" points="294.5,-280.5 294.5,-299.5 363.5,-299.5 363.5,-280.5 294.5,-280.5"/>
<text text-anchor="middle" x="329" y="-287.5" font-family="Helvetica,sans-Serif" font-size="10.00">Surface.hpp</text>
</a>
</g>
</g>
<!-- Node8&#45;&gt;Node18 -->
<g id="edge28" class="edge">
<title>Node8&#45;&gt;Node18</title>
<path fill="none" stroke="midnightblue" d="M504.04,-336.44C468.21,-327.14 410.84,-312.25 371.61,-302.06"/>
<polygon fill="midnightblue" stroke="midnightblue" points="372.36,-298.64 361.8,-299.52 370.6,-305.42 372.36,-298.64"/>
</g>
<!-- Node11&#45;&gt;Node3 -->
<g id="edge15" class="edge">
<title>Node11&#45;&gt;Node3</title>
<path fill="none" stroke="midnightblue" d="M281.87,-224.5C306.69,-216.93 341.91,-204.51 370,-188 393.42,-174.24 416.75,-153.26 431.49,-138.88"/>
<polygon fill="midnightblue" stroke="midnightblue" points="434.12,-141.2 438.74,-131.66 429.18,-136.24 434.12,-141.2"/>
</g>
<!-- Node11&#45;&gt;Node4 -->
<g id="edge13" class="edge">
<title>Node11&#45;&gt;Node4</title>
<path fill="none" stroke="midnightblue" d="M214.39,-230.76C185.13,-226.82 145.83,-216.21 126,-188 98.25,-148.52 157.11,-103.43 192.62,-81.09"/>
<polygon fill="midnightblue" stroke="midnightblue" points="194.79,-83.86 201.5,-75.66 191.14,-77.89 194.79,-83.86"/>
</g>
<!-- Node11&#45;&gt;Node10 -->
<g id="edge14" class="edge">
<title>Node11&#45;&gt;Node10</title>
<path fill="none" stroke="midnightblue" d="M287.83,-228.21C360.24,-218.79 521.64,-197.78 608.32,-186.51"/>
<polygon fill="midnightblue" stroke="midnightblue" points="608.79,-189.97 618.25,-185.21 607.89,-183.03 608.79,-189.97"/>
</g>
<!-- Node12 -->
<g id="node12" class="node">
<title>Node12</title>
<g id="a_node12"><a xlink:title=" ">
<polygon fill="none" stroke="#bfbfbf" points="176.5,-112.5 176.5,-131.5 217.5,-131.5 217.5,-112.5 176.5,-112.5"/>
<text text-anchor="middle" x="197" y="-119.5" font-family="Helvetica,sans-Serif" font-size="10.00">string</text>
</a>
</g>
</g>
<!-- Node11&#45;&gt;Node12 -->
<g id="edge12" class="edge">
<title>Node11&#45;&gt;Node12</title>
<path fill="none" stroke="midnightblue" d="M214.42,-229.82C186.99,-225.29 151.16,-214.36 133,-188 119.18,-167.94 145.07,-148.52 167.94,-136.21"/>
<polygon fill="midnightblue" stroke="midnightblue" points="169.78,-139.2 177.11,-131.55 166.61,-132.96 169.78,-139.2"/>
</g>
<!-- Node11&#45;&gt;Node13 -->
<g id="edge16" class="edge">
<title>Node11&#45;&gt;Node13</title>
<path fill="none" stroke="midnightblue" d="M242.08,-224.08C234.22,-216.22 222.57,-204.57 213.08,-195.08"/>
<polygon fill="midnightblue" stroke="midnightblue" points="215.3,-192.35 205.75,-187.75 210.35,-197.3 215.3,-192.35"/>
</g>
<!-- Node14 -->
<g id="node14" class="node">
<title>Node14</title>
<g id="a_node14"><a xlink:href="_window_8hpp.html" target="_top" xlink:title=" ">
<polygon fill="none" stroke="black" points="270.5,-168.5 270.5,-187.5 361.5,-187.5 361.5,-168.5 270.5,-168.5"/>
<text text-anchor="middle" x="316" y="-175.5" font-family="Helvetica,sans-Serif" font-size="10.00">york/Window.hpp</text>
</a>
</g>
</g>
<!-- Node11&#45;&gt;Node14 -->
<g id="edge18" class="edge">
<title>Node11&#45;&gt;Node14</title>
<path fill="none" stroke="midnightblue" d="M261.44,-224.32C271.15,-216.26 285.82,-204.08 297.5,-194.37"/>
<polygon fill="midnightblue" stroke="midnightblue" points="299.91,-196.92 305.37,-187.83 295.44,-191.53 299.91,-196.92"/>
</g>
<!-- Node13&#45;&gt;Node12 -->
<g id="edge17" class="edge">
<title>Node13&#45;&gt;Node12</title>
<path fill="none" stroke="midnightblue" d="M197,-168.08C197,-161.01 197,-150.86 197,-141.99"/>
<polygon fill="midnightblue" stroke="midnightblue" points="200.5,-141.75 197,-131.75 193.5,-141.75 200.5,-141.75"/>
</g>
<!-- Node14&#45;&gt;Node3 -->
<g id="edge21" class="edge">
<title>Node14&#45;&gt;Node3</title>
<path fill="none" stroke="midnightblue" d="M336.76,-168.44C358.32,-159.56 392.26,-145.56 416.79,-135.45"/>
<polygon fill="midnightblue" stroke="midnightblue" points="418.43,-138.56 426.34,-131.52 415.76,-132.09 418.43,-138.56"/>
</g>
<!-- Node14&#45;&gt;Node12 -->
<g id="edge19" class="edge">
<title>Node14&#45;&gt;Node12</title>
<path fill="none" stroke="midnightblue" d="M297.14,-168.44C277.73,-159.64 247.27,-145.81 225.04,-135.72"/>
<polygon fill="midnightblue" stroke="midnightblue" points="226.32,-132.46 215.77,-131.52 223.43,-138.84 226.32,-132.46"/>
</g>
<!-- Node15 -->
<g id="node15" class="node">
<title>Node15</title>
<g id="a_node15"><a xlink:title=" ">
<polygon fill="none" stroke="#bfbfbf" points="279.5,-112.5 279.5,-131.5 352.5,-131.5 352.5,-112.5 279.5,-112.5"/>
<text text-anchor="middle" x="316" y="-119.5" font-family="Helvetica,sans-Serif" font-size="10.00">SDL_video.h</text>
</a>
</g>
</g>
<!-- Node14&#45;&gt;Node15 -->
<g id="edge20" class="edge">
<title>Node14&#45;&gt;Node15</title>
<path fill="none" stroke="midnightblue" d="M316,-168.08C316,-161.01 316,-150.86 316,-141.99"/>
<polygon fill="midnightblue" stroke="midnightblue" points="319.5,-141.75 316,-131.75 312.5,-141.75 319.5,-141.75"/>
</g>
<!-- Node16&#45;&gt;Node10 -->
<g id="edge24" class="edge">
<title>Node16&#45;&gt;Node10</title>
<path fill="none" stroke="midnightblue" d="M502.74,-224.44C535.94,-215.2 588.99,-200.44 625.56,-190.26"/>
<polygon fill="midnightblue" stroke="midnightblue" points="626.71,-193.57 635.4,-187.52 624.83,-186.83 626.71,-193.57"/>
</g>
<!-- Node16&#45;&gt;Node13 -->
<g id="edge25" class="edge">
<title>Node16&#45;&gt;Node13</title>
<path fill="none" stroke="midnightblue" d="M428.43,-224.44C380.15,-214.96 302.29,-199.67 250.39,-189.48"/>
<polygon fill="midnightblue" stroke="midnightblue" points="250.86,-186.01 240.37,-187.52 249.51,-192.88 250.86,-186.01"/>
</g>
<!-- Node16&#45;&gt;Node14 -->
<g id="edge26" class="edge">
<title>Node16&#45;&gt;Node14</title>
<path fill="none" stroke="midnightblue" d="M447.28,-224.44C421.15,-215.4 379.74,-201.06 350.42,-190.92"/>
<polygon fill="midnightblue" stroke="midnightblue" points="351.2,-187.48 340.6,-187.52 348.91,-194.1 351.2,-187.48"/>
</g>
<!-- Node17 -->
<g id="node17" class="node">
<title>Node17</title>
<g id="a_node17"><a xlink:title=" ">
<polygon fill="none" stroke="#bfbfbf" points="494,-168.5 494,-187.5 544,-187.5 544,-168.5 494,-168.5"/>
<text text-anchor="middle" x="519" y="-175.5" font-family="Helvetica,sans-Serif" font-size="10.00">optional</text>
</a>
</g>
</g>
<!-- Node16&#45;&gt;Node17 -->
<g id="edge23" class="edge">
<title>Node16&#45;&gt;Node17</title>
<path fill="none" stroke="midnightblue" d="M479.76,-224.08C486.54,-216.3 496.54,-204.8 504.76,-195.37"/>
<polygon fill="midnightblue" stroke="midnightblue" points="507.46,-197.59 511.38,-187.75 502.18,-193 507.46,-197.59"/>
</g>
<!-- Node18&#45;&gt;Node3 -->
<g id="edge30" class="edge">
<title>Node18&#45;&gt;Node3</title>
<path fill="none" stroke="midnightblue" d="M335.34,-280.08C354.24,-253.49 410.36,-174.54 435.08,-139.76"/>
<polygon fill="midnightblue" stroke="midnightblue" points="437.97,-141.75 440.91,-131.57 432.26,-137.69 437.97,-141.75"/>
</g>
<!-- Node18&#45;&gt;Node10 -->
<g id="edge29" class="edge">
<title>Node18&#45;&gt;Node10</title>
<path fill="none" stroke="midnightblue" d="M363.62,-283.94C404.76,-277.34 475.13,-264.2 533,-244 543.81,-240.23 604.04,-210.2 639.64,-192.3"/>
<polygon fill="midnightblue" stroke="midnightblue" points="641.6,-195.23 648.96,-187.61 638.45,-188.98 641.6,-195.23"/>
</g>
<!-- Node18&#45;&gt;Node11 -->
<g id="edge31" class="edge">
<title>Node18&#45;&gt;Node11</title>
<path fill="none" stroke="midnightblue" d="M316.47,-280.32C304.41,-271.98 285.97,-259.21 271.73,-249.35"/>
<polygon fill="midnightblue" stroke="midnightblue" points="273.72,-246.47 263.5,-243.65 269.73,-252.22 273.72,-246.47"/>
</g>
<!-- Node18&#45;&gt;Node14 -->
<g id="edge32" class="edge">
<title>Node18&#45;&gt;Node14</title>
<path fill="none" stroke="midnightblue" d="M327.98,-280.37C325.88,-262.62 321.04,-221.67 318.2,-197.6"/>
<polygon fill="midnightblue" stroke="midnightblue" points="321.66,-197.11 317.02,-187.59 314.71,-197.93 321.66,-197.11"/>
</g>
<!-- Node19&#45;&gt;Node3 -->
<g id="edge36" class="edge">
<title>Node19&#45;&gt;Node3</title>
<path fill="none" stroke="midnightblue" d="M469.81,-392.68C361.18,-374 114,-327.47 114,-291 114,-291 114,-291 114,-233 114,-202.9 110.26,-187.72 133,-168 143.15,-159.2 320.22,-137.67 403.88,-127.93"/>
<polygon fill="midnightblue" stroke="midnightblue" points="404.31,-131.41 413.84,-126.78 403.51,-124.45 404.31,-131.41"/>
</g>
<!-- Node19&#45;&gt;Node8 -->
<g id="edge37" class="edge">
<title>Node19&#45;&gt;Node8</title>
<path fill="none" stroke="midnightblue" d="M522.81,-392.08C525.08,-384.85 528.37,-374.41 531.21,-365.4"/>
<polygon fill="midnightblue" stroke="midnightblue" points="534.58,-366.34 534.25,-355.75 527.9,-364.24 534.58,-366.34"/>
</g>
<!-- Node19&#45;&gt;Node10 -->
<g id="edge35" class="edge">
<title>Node19&#45;&gt;Node10</title>
<path fill="none" stroke="midnightblue" d="M534.25,-392.23C546.96,-383.94 565.59,-370.62 579,-356 618.83,-312.56 626.88,-298.21 650,-244 656.35,-229.12 660.52,-211.2 663.01,-197.95"/>
<polygon fill="midnightblue" stroke="midnightblue" points="666.53,-198.15 664.78,-187.7 659.63,-196.96 666.53,-198.15"/>
</g>
<!-- Node20&#45;&gt;Node3 -->
<g id="edge40" class="edge">
<title>Node20&#45;&gt;Node3</title>
<path fill="none" stroke="midnightblue" d="M667.08,-392.45C676.19,-384.13 689.18,-370.61 696,-356 731.7,-279.51 777.68,-232.31 723,-168 693.65,-133.48 560.36,-125.37 490.31,-123.52"/>
<polygon fill="midnightblue" stroke="midnightblue" points="490.12,-120.01 480.04,-123.28 489.96,-127.01 490.12,-120.01"/>
</g>
<!-- Node20&#45;&gt;Node8 -->
<g id="edge41" class="edge">
<title>Node20&#45;&gt;Node8</title>
<path fill="none" stroke="midnightblue" d="M637.99,-392.44C618.41,-383.64 587.69,-369.81 565.27,-359.72"/>
<polygon fill="midnightblue" stroke="midnightblue" points="566.48,-356.43 555.93,-355.52 563.61,-362.81 566.48,-356.43"/>
</g>
<!-- Node20&#45;&gt;Node10 -->
<g id="edge39" class="edge">
<title>Node20&#45;&gt;Node10</title>
<path fill="none" stroke="midnightblue" d="M663.1,-392.19C668.75,-383.46 676.76,-369.48 680,-356 693.73,-298.96 688.81,-282 680,-224 678.63,-215 675.81,-205.33 673.05,-197.26"/>
<polygon fill="midnightblue" stroke="midnightblue" points="676.31,-195.98 669.6,-187.78 669.73,-198.37 676.31,-195.98"/>
</g>
<!-- Node21&#45;&gt;Node3 -->
<g id="edge43" class="edge">
<title>Node21&#45;&gt;Node3</title>
<path fill="none" stroke="midnightblue" d="M899.59,-563.23C955.68,-553.07 1046,-526.27 1046,-459 1046,-459 1046,-459 1046,-233 1046,-189.23 1012.27,-185.17 972,-168 885.59,-131.15 599.94,-124.46 490.34,-123.26"/>
<polygon fill="midnightblue" stroke="midnightblue" points="490.33,-119.76 480.29,-123.16 490.26,-126.76 490.33,-119.76"/>
</g>
<!-- Node21&#45;&gt;Node10 -->
<g id="edge56" class="edge">
<title>Node21&#45;&gt;Node10</title>
<path fill="none" stroke="midnightblue" d="M856,-560.44C856,-541.94 856,-496.81 856,-459 856,-459 856,-459 856,-401 856,-300.71 742.69,-222.92 691.08,-192.69"/>
<polygon fill="midnightblue" stroke="midnightblue" points="692.62,-189.54 682.2,-187.61 689.14,-195.62 692.62,-189.54"/>
</g>
<!-- Node22 -->
<g id="node22" class="node">
<title>Node22</title>
<g id="a_node22"><a xlink:href="_render_pass_8hpp.html" target="_top" xlink:title=" ">
<polygon fill="none" stroke="black" points="905.5,-504.5 905.5,-523.5 994.5,-523.5 994.5,-504.5 905.5,-504.5"/>
<text text-anchor="middle" x="950" y="-511.5" font-family="Helvetica,sans-Serif" font-size="10.00">RenderPass.hpp</text>
</a>
</g>
</g>
<!-- Node21&#45;&gt;Node22 -->
<g id="edge44" class="edge">
<title>Node21&#45;&gt;Node22</title>
<path fill="none" stroke="midnightblue" d="M871.1,-560.32C885.9,-551.82 908.69,-538.73 925.98,-528.8"/>
<polygon fill="midnightblue" stroke="midnightblue" points="928.01,-531.67 934.93,-523.65 924.52,-525.6 928.01,-531.67"/>
</g>
<!-- Node24 -->
<g id="node24" class="node">
<title>Node24</title>
<g id="a_node24"><a xlink:href="_image_view_8hpp.html" target="_top" xlink:title=" ">
<polygon fill="none" stroke="black" points="706.5,-392.5 706.5,-411.5 789.5,-411.5 789.5,-392.5 706.5,-392.5"/>
<text text-anchor="middle" x="748" y="-399.5" font-family="Helvetica,sans-Serif" font-size="10.00">ImageView.hpp</text>
</a>
</g>
</g>
<!-- Node21&#45;&gt;Node24 -->
<g id="edge55" class="edge">
<title>Node21&#45;&gt;Node24</title>
<path fill="none" stroke="midnightblue" d="M837.44,-560.43C808.77,-546.03 754.73,-513.96 733,-468 725.9,-452.98 731.46,-434.39 737.73,-420.94"/>
<polygon fill="midnightblue" stroke="midnightblue" points="740.97,-422.29 742.46,-411.8 734.76,-419.07 740.97,-422.29"/>
</g>
<!-- Node22&#45;&gt;Node3 -->
<g id="edge46" class="edge">
<title>Node22&#45;&gt;Node3</title>
<path fill="none" stroke="midnightblue" d="M958.31,-504.41C974.35,-486.89 1008,-445.1 1008,-403 1008,-403 1008,-403 1008,-233 1008,-127.67 622.36,-121.38 490.55,-122.31"/>
<polygon fill="midnightblue" stroke="midnightblue" points="490.38,-118.81 480.41,-122.4 490.44,-125.81 490.38,-118.81"/>
</g>
<!-- Node22&#45;&gt;Node10 -->
<g id="edge45" class="edge">
<title>Node22&#45;&gt;Node10</title>
<path fill="none" stroke="midnightblue" d="M952.7,-504.26C958.16,-485.77 970,-441.24 970,-403 970,-403 970,-403 970,-345 970,-234.09 812.19,-196.82 723.97,-184.66"/>
<polygon fill="midnightblue" stroke="midnightblue" points="724.2,-181.16 713.83,-183.33 723.29,-188.1 724.2,-181.16"/>
</g>
<!-- Node22&#45;&gt;Node23 -->
<g id="edge47" class="edge">
<title>Node22&#45;&gt;Node23</title>
<path fill="none" stroke="midnightblue" d="M923.86,-504.44C895.98,-495.32 851.65,-480.81 820.6,-470.65"/>
<polygon fill="midnightblue" stroke="midnightblue" points="821.62,-467.3 811.02,-467.52 819.44,-473.95 821.62,-467.3"/>
</g>
<!-- Node23&#45;&gt;Node3 -->
<g id="edge50" class="edge">
<title>Node23&#45;&gt;Node3</title>
<path fill="none" stroke="midnightblue" d="M792.41,-448.41C799.28,-439.84 809.01,-425.98 813,-412 815.44,-403.45 813.58,-400.87 813,-392 806.38,-290.4 846.77,-228.67 765,-168 722.34,-136.35 567.02,-126.88 490.38,-124.11"/>
<polygon fill="midnightblue" stroke="midnightblue" points="490.22,-120.61 480.1,-123.77 489.98,-127.6 490.22,-120.61"/>
</g>
<!-- Node23&#45;&gt;Node8 -->
<g id="edge49" class="edge">
<title>Node23&#45;&gt;Node8</title>
<path fill="none" stroke="midnightblue" d="M741.78,-450.58C706.73,-444.18 656.8,-432.32 617,-412 591.99,-399.23 567.58,-377.69 552.43,-362.93"/>
<polygon fill="midnightblue" stroke="midnightblue" points="554.57,-360.12 545.02,-355.53 549.62,-365.07 554.57,-360.12"/>
</g>
<!-- Node23&#45;&gt;Node10 -->
<g id="edge48" class="edge">
<title>Node23&#45;&gt;Node10</title>
<path fill="none" stroke="midnightblue" d="M789.46,-448.13C795.19,-435.59 803.86,-411.96 799,-392 779.1,-310.3 762.02,-291.59 712,-224 704.06,-213.27 693.52,-202.76 684.53,-194.6"/>
<polygon fill="midnightblue" stroke="midnightblue" points="686.65,-191.8 676.83,-187.82 682.02,-197.06 686.65,-191.8"/>
</g>
<!-- Node23&#45;&gt;Node24 -->
<g id="edge51" class="edge">
<title>Node23&#45;&gt;Node24</title>
<path fill="none" stroke="midnightblue" d="M778.89,-448.08C773.72,-440.53 766.15,-429.49 759.81,-420.23"/>
<polygon fill="midnightblue" stroke="midnightblue" points="762.54,-418.02 754,-411.75 756.76,-421.98 762.54,-418.02"/>
</g>
<!-- Node24&#45;&gt;Node3 -->
<g id="edge52" class="edge">
<title>Node24&#45;&gt;Node3</title>
<path fill="none" stroke="midnightblue" d="M751.56,-392.38C765.34,-357.5 811.08,-225.97 743,-168 705.75,-136.28 563.24,-126.88 490.4,-124.12"/>
<polygon fill="midnightblue" stroke="midnightblue" points="490.3,-120.62 480.18,-123.76 490.05,-127.61 490.3,-120.62"/>
</g>
<!-- Node24&#45;&gt;Node8 -->
<g id="edge53" class="edge">
<title>Node24&#45;&gt;Node8</title>
<path fill="none" stroke="midnightblue" d="M714.57,-392.44C678.14,-383.12 619.77,-368.18 579.97,-358"/>
<polygon fill="midnightblue" stroke="midnightblue" points="580.83,-354.61 570.28,-355.52 579.1,-361.39 580.83,-354.61"/>
</g>
<!-- Node24&#45;&gt;Node10 -->
<g id="edge54" class="edge">
<title>Node24&#45;&gt;Node10</title>
<path fill="none" stroke="midnightblue" d="M746.29,-392.21C740.96,-365.85 723.32,-285.47 695,-224 690.48,-214.19 684.08,-204.01 678.45,-195.82"/>
<polygon fill="midnightblue" stroke="midnightblue" points="681.2,-193.65 672.55,-187.54 675.5,-197.71 681.2,-193.65"/>
</g>
</g>
</svg>
