<?xml version="1.0" encoding="UTF-8" standalone="no"?>
<!DOCTYPE svg PUBLIC "-//W3C//DTD SVG 1.1//EN"
 "http://www.w3.org/Graphics/SVG/1.1/DTD/svg11.dtd">
<!-- Generated by graphviz version 2.50.0 (20211204.2007)
 -->
<!-- Title: include/york/Graphics/Handle.hpp Pages: 1 -->
<svg width="967pt" height="765pt"
 viewBox="0.00 0.00 966.50 765.00" xmlns="http://www.w3.org/2000/svg" xmlns:xlink="http://www.w3.org/1999/xlink">
<g id="graph0" class="graph" transform="scale(1 1) rotate(0) translate(4 761)">
<title>include/york/Graphics/Handle.hpp</title>
<!-- Node1 -->
<g id="node1" class="node">
<title>Node1</title>
<g id="a_node1"><a xlink:title="Contains the declarations for the Handle classes which form the basis of our Vulkan implementation.">
<polygon fill="#bfbfbf" stroke="black" points="393,-726.5 393,-756.5 504,-756.5 504,-726.5 393,-726.5"/>
<text text-anchor="start" x="401" y="-744.5" font-family="Helvetica,sans-Serif" font-size="10.00">include/york/Graphics</text>
<text text-anchor="middle" x="448.5" y="-733.5" font-family="Helvetica,sans-Serif" font-size="10.00">/Handle.hpp</text>
</a>
</g>
</g>
<!-- Node2 -->
<g id="node2" class="node">
<title>Node2</title>
<g id="a_node2"><a xlink:href="_command_pool_8hpp.html" target="_top" xlink:title=" ">
<polygon fill="none" stroke="black" points="206,-268.5 206,-298.5 317,-298.5 317,-268.5 206,-268.5"/>
<text text-anchor="start" x="214" y="-286.5" font-family="Helvetica,sans-Serif" font-size="10.00">include/york/Graphics</text>
<text text-anchor="middle" x="261.5" y="-275.5" font-family="Helvetica,sans-Serif" font-size="10.00">/CommandPool.hpp</text>
</a>
</g>
</g>
<!-- Node1&#45;&gt;Node2 -->
<g id="edge1" class="edge">
<title>Node1&#45;&gt;Node2</title>
<path fill="none" stroke="midnightblue" d="M382.8,-738.51C340.73,-733.96 287.49,-721.68 251.5,-690 226.19,-667.72 223.5,-653.21 223.5,-619.5 223.5,-619.5 223.5,-619.5 223.5,-416.5 223.5,-372.14 243.56,-322.56 254.53,-298.76"/>
<polygon fill="midnightblue" stroke="midnightblue" points="382.67,-742.01 392.96,-739.48 383.34,-735.04 382.67,-742.01"/>
</g>
<!-- Node5 -->
<g id="node5" class="node">
<title>Node5</title>
<g id="a_node5"><a xlink:href="_device_8hpp.html" target="_top" xlink:title=" ">
<polygon fill="none" stroke="black" points="362,-402.5 362,-432.5 473,-432.5 473,-402.5 362,-402.5"/>
<text text-anchor="start" x="370" y="-420.5" font-family="Helvetica,sans-Serif" font-size="10.00">include/york/Graphics</text>
<text text-anchor="middle" x="417.5" y="-409.5" font-family="Helvetica,sans-Serif" font-size="10.00">/Device.hpp</text>
</a>
</g>
</g>
<!-- Node1&#45;&gt;Node5 -->
<g id="edge5" class="edge">
<title>Node1&#45;&gt;Node5</title>
<path fill="none" stroke="midnightblue" d="M414.35,-720.95C383.04,-700.19 341.5,-664.23 341.5,-619.5 341.5,-619.5 341.5,-619.5 341.5,-550.5 341.5,-502.11 380.34,-455.45 402.48,-432.77"/>
<polygon fill="midnightblue" stroke="midnightblue" points="412.56,-723.96 422.87,-726.4 416.33,-718.06 412.56,-723.96"/>
</g>
<!-- Node6 -->
<g id="node6" class="node">
<title>Node6</title>
<g id="a_node6"><a xlink:href="_fence_8hpp.html" target="_top" xlink:title=" ">
<polygon fill="none" stroke="black" points="84,-335.5 84,-365.5 195,-365.5 195,-335.5 84,-335.5"/>
<text text-anchor="start" x="92" y="-353.5" font-family="Helvetica,sans-Serif" font-size="10.00">include/york/Graphics</text>
<text text-anchor="middle" x="139.5" y="-342.5" font-family="Helvetica,sans-Serif" font-size="10.00">/Fence.hpp</text>
</a>
</g>
</g>
<!-- Node1&#45;&gt;Node6 -->
<g id="edge28" class="edge">
<title>Node1&#45;&gt;Node6</title>
<path fill="none" stroke="midnightblue" d="M382.64,-740.26C298.19,-736.08 162.5,-714.57 162.5,-619.5 162.5,-619.5 162.5,-619.5 162.5,-483.5 162.5,-440 150.23,-389.62 143.61,-365.62"/>
<polygon fill="midnightblue" stroke="midnightblue" points="382.54,-743.76 392.68,-740.69 382.84,-736.76 382.54,-743.76"/>
</g>
<!-- Node7 -->
<g id="node7" class="node">
<title>Node7</title>
<g id="a_node7"><a xlink:href="_image_view_8hpp.html" target="_top" xlink:title=" ">
<polygon fill="none" stroke="black" points="366,-335.5 366,-365.5 477,-365.5 477,-335.5 366,-335.5"/>
<text text-anchor="start" x="374" y="-353.5" font-family="Helvetica,sans-Serif" font-size="10.00">include/york/Graphics</text>
<text text-anchor="middle" x="421.5" y="-342.5" font-family="Helvetica,sans-Serif" font-size="10.00">/ImageView.hpp</text>
</a>
</g>
</g>
<!-- Node1&#45;&gt;Node7 -->
<g id="edge30" class="edge">
<title>Node1&#45;&gt;Node7</title>
<path fill="none" stroke="midnightblue" d="M398.43,-722.52C356.51,-703.87 303.5,-670.25 303.5,-619.5 303.5,-619.5 303.5,-619.5 303.5,-483.5 303.5,-428.79 360.55,-386.34 395.31,-365.56"/>
<polygon fill="midnightblue" stroke="midnightblue" points="397.15,-725.78 407.72,-726.49 399.91,-719.34 397.15,-725.78"/>
</g>
<!-- Node8 -->
<g id="node8" class="node">
<title>Node8</title>
<g id="a_node8"><a xlink:href="_framebuffer_8hpp.html" target="_top" xlink:title=" ">
<polygon fill="none" stroke="black" points="289,-134.5 289,-164.5 400,-164.5 400,-134.5 289,-134.5"/>
<text text-anchor="start" x="297" y="-152.5" font-family="Helvetica,sans-Serif" font-size="10.00">include/york/Graphics</text>
<text text-anchor="middle" x="344.5" y="-141.5" font-family="Helvetica,sans-Serif" font-size="10.00">/Framebuffer.hpp</text>
</a>
</g>
</g>
<!-- Node1&#45;&gt;Node8 -->
<g id="edge29" class="edge">
<title>Node1&#45;&gt;Node8</title>
<path fill="none" stroke="midnightblue" d="M382.96,-725.64C330.45,-709.41 265.5,-677.59 265.5,-619.5 265.5,-619.5 265.5,-619.5 265.5,-483.5 265.5,-397.13 307.66,-383.28 326.5,-299 337.38,-250.34 342.06,-191.14 343.73,-164.58"/>
<polygon fill="midnightblue" stroke="midnightblue" points="382.02,-729.01 392.6,-728.5 384,-722.3 382.02,-729.01"/>
</g>
<!-- Node9 -->
<g id="node9" class="node">
<title>Node9</title>
<g id="a_node9"><a xlink:href="_swap_chain_8hpp.html" target="_top" xlink:title=" ">
<polygon fill="none" stroke="black" points="454,-268.5 454,-298.5 565,-298.5 565,-268.5 454,-268.5"/>
<text text-anchor="start" x="462" y="-286.5" font-family="Helvetica,sans-Serif" font-size="10.00">include/york/Graphics</text>
<text text-anchor="middle" x="509.5" y="-275.5" font-family="Helvetica,sans-Serif" font-size="10.00">/SwapChain.hpp</text>
</a>
</g>
</g>
<!-- Node1&#45;&gt;Node9 -->
<g id="edge43" class="edge">
<title>Node1&#45;&gt;Node9</title>
<path fill="none" stroke="midnightblue" d="M514.02,-726.03C537.85,-718.33 563.76,-706.84 583.5,-690 610.91,-666.62 623.5,-655.53 623.5,-619.5 623.5,-619.5 623.5,-619.5 623.5,-416.5 623.5,-362.45 568.08,-319.6 534.52,-298.61"/>
<polygon fill="midnightblue" stroke="midnightblue" points="512.85,-722.73 504.31,-729 514.9,-729.42 512.85,-722.73"/>
</g>
<!-- Node10 -->
<g id="node10" class="node">
<title>Node10</title>
<g id="a_node10"><a xlink:href="_pipeline_8hpp.html" target="_top" xlink:title=" ">
<polygon fill="none" stroke="black" points="668,-134.5 668,-164.5 779,-164.5 779,-134.5 668,-134.5"/>
<text text-anchor="start" x="676" y="-152.5" font-family="Helvetica,sans-Serif" font-size="10.00">include/york/Graphics</text>
<text text-anchor="middle" x="723.5" y="-141.5" font-family="Helvetica,sans-Serif" font-size="10.00">/Pipeline.hpp</text>
</a>
</g>
</g>
<!-- Node1&#45;&gt;Node10 -->
<g id="edge37" class="edge">
<title>Node1&#45;&gt;Node10</title>
<path fill="none" stroke="midnightblue" d="M514.06,-738.6C651.77,-732.83 958.5,-709.83 958.5,-619.5 958.5,-619.5 958.5,-619.5 958.5,-282.5 958.5,-200.61 848.68,-169 779.19,-157.19"/>
<polygon fill="midnightblue" stroke="midnightblue" points="513.9,-735.1 504.05,-739 514.18,-742.1 513.9,-735.1"/>
</g>
<!-- Node11 -->
<g id="node11" class="node">
<title>Node11</title>
<g id="a_node11"><a xlink:href="_render_pass_8hpp.html" target="_top" xlink:title=" ">
<polygon fill="none" stroke="black" points="456,-201.5 456,-231.5 567,-231.5 567,-201.5 456,-201.5"/>
<text text-anchor="start" x="464" y="-219.5" font-family="Helvetica,sans-Serif" font-size="10.00">include/york/Graphics</text>
<text text-anchor="middle" x="511.5" y="-208.5" font-family="Helvetica,sans-Serif" font-size="10.00">/RenderPass.hpp</text>
</a>
</g>
</g>
<!-- Node1&#45;&gt;Node11 -->
<g id="edge39" class="edge">
<title>Node1&#45;&gt;Node11</title>
<path fill="none" stroke="midnightblue" d="M514.02,-731.31C576.62,-718.4 661.5,-688.23 661.5,-619.5 661.5,-619.5 661.5,-619.5 661.5,-349.5 661.5,-289.83 593.79,-250.76 549.35,-231.54"/>
<polygon fill="midnightblue" stroke="midnightblue" points="513.33,-727.88 504.19,-733.24 514.67,-734.75 513.33,-727.88"/>
</g>
<!-- Node12 -->
<g id="node12" class="node">
<title>Node12</title>
<g id="a_node12"><a xlink:href="_pipeline_layout_8hpp.html" target="_top" xlink:title=" ">
<polygon fill="none" stroke="black" points="690,-335.5 690,-365.5 801,-365.5 801,-335.5 690,-335.5"/>
<text text-anchor="start" x="698" y="-353.5" font-family="Helvetica,sans-Serif" font-size="10.00">include/york/Graphics</text>
<text text-anchor="middle" x="745.5" y="-342.5" font-family="Helvetica,sans-Serif" font-size="10.00">/PipelineLayout.hpp</text>
</a>
</g>
</g>
<!-- Node1&#45;&gt;Node12 -->
<g id="edge38" class="edge">
<title>Node1&#45;&gt;Node12</title>
<path fill="none" stroke="midnightblue" d="M514.42,-739.09C595.49,-733.44 722.5,-710.14 722.5,-619.5 722.5,-619.5 722.5,-619.5 722.5,-483.5 722.5,-440 734.77,-389.62 741.39,-365.62"/>
<polygon fill="midnightblue" stroke="midnightblue" points="514.04,-735.61 504.28,-739.72 514.48,-742.59 514.04,-735.61"/>
</g>
<!-- Node13 -->
<g id="node13" class="node">
<title>Node13</title>
<g id="a_node13"><a xlink:href="_semaphore_8hpp.html" target="_top" xlink:title=" ">
<polygon fill="none" stroke="black" points="0,-201.5 0,-231.5 111,-231.5 111,-201.5 0,-201.5"/>
<text text-anchor="start" x="8" y="-219.5" font-family="Helvetica,sans-Serif" font-size="10.00">include/york/Graphics</text>
<text text-anchor="middle" x="55.5" y="-208.5" font-family="Helvetica,sans-Serif" font-size="10.00">/Semaphore.hpp</text>
</a>
</g>
</g>
<!-- Node1&#45;&gt;Node13 -->
<g id="edge40" class="edge">
<title>Node1&#45;&gt;Node13</title>
<path fill="none" stroke="midnightblue" d="M382.44,-733.91C270.48,-720.89 55.5,-687.08 55.5,-619.5 55.5,-619.5 55.5,-619.5 55.5,-349.5 55.5,-306.65 55.5,-255.97 55.5,-231.76"/>
<polygon fill="midnightblue" stroke="midnightblue" points="382.28,-737.41 392.61,-735.07 383.07,-730.46 382.28,-737.41"/>
</g>
<!-- Node14 -->
<g id="node14" class="node">
<title>Node14</title>
<g id="a_node14"><a xlink:href="_shader_8hpp.html" target="_top" xlink:title=" ">
<polygon fill="none" stroke="black" points="819,-335.5 819,-365.5 930,-365.5 930,-335.5 819,-335.5"/>
<text text-anchor="start" x="827" y="-353.5" font-family="Helvetica,sans-Serif" font-size="10.00">include/york/Graphics</text>
<text text-anchor="middle" x="874.5" y="-342.5" font-family="Helvetica,sans-Serif" font-size="10.00">/Shader.hpp</text>
</a>
</g>
</g>
<!-- Node1&#45;&gt;Node14 -->
<g id="edge41" class="edge">
<title>Node1&#45;&gt;Node14</title>
<path fill="none" stroke="midnightblue" d="M514.11,-732.66C620.16,-718.12 817.5,-682.61 817.5,-619.5 817.5,-619.5 817.5,-619.5 817.5,-483.5 817.5,-437.32 847.27,-388.95 863.78,-365.67"/>
<polygon fill="midnightblue" stroke="midnightblue" points="513.59,-729.19 504.14,-734 514.52,-736.13 513.59,-729.19"/>
</g>
<!-- Node15 -->
<g id="node15" class="node">
<title>Node15</title>
<g id="a_node15"><a xlink:href="_instance_8hpp.html" target="_top" xlink:title=" ">
<polygon fill="none" stroke="black" points="370,-603.5 370,-633.5 481,-633.5 481,-603.5 370,-603.5"/>
<text text-anchor="start" x="378" y="-621.5" font-family="Helvetica,sans-Serif" font-size="10.00">include/york/Graphics</text>
<text text-anchor="middle" x="425.5" y="-610.5" font-family="Helvetica,sans-Serif" font-size="10.00">/Instance.hpp</text>
</a>
</g>
</g>
<!-- Node1&#45;&gt;Node15 -->
<g id="edge31" class="edge">
<title>Node1&#45;&gt;Node15</title>
<path fill="none" stroke="midnightblue" d="M434.29,-717.41C429.93,-709.08 425.7,-699.41 423.5,-690 419.04,-670.92 420.93,-648.15 422.98,-633.76"/>
<polygon fill="midnightblue" stroke="midnightblue" points="431.24,-719.13 439.17,-726.15 437.35,-715.72 431.24,-719.13"/>
</g>
<!-- Node16 -->
<g id="node16" class="node">
<title>Node16</title>
<g id="a_node16"><a xlink:href="_surface_8hpp.html" target="_top" xlink:title=" ">
<polygon fill="none" stroke="black" points="446,-536.5 446,-566.5 557,-566.5 557,-536.5 446,-536.5"/>
<text text-anchor="start" x="454" y="-554.5" font-family="Helvetica,sans-Serif" font-size="10.00">include/york/Graphics</text>
<text text-anchor="middle" x="501.5" y="-543.5" font-family="Helvetica,sans-Serif" font-size="10.00">/Surface.hpp</text>
</a>
</g>
</g>
<!-- Node1&#45;&gt;Node16 -->
<g id="edge42" class="edge">
<title>Node1&#45;&gt;Node16</title>
<path fill="none" stroke="midnightblue" d="M513.86,-727.46C534.19,-720 554.42,-708.3 566.5,-690 594.13,-648.12 544.94,-592.67 517.74,-566.86"/>
<polygon fill="midnightblue" stroke="midnightblue" points="512.59,-724.19 504.23,-730.7 514.82,-730.83 512.59,-724.19"/>
</g>
<!-- Node18 -->
<g id="node18" class="node">
<title>Node18</title>
<g id="a_node18"><a xlink:href="_window_8hpp.html" target="_top" xlink:title=" ">
<polygon fill="none" stroke="black" points="432,-670.5 432,-689.5 557,-689.5 557,-670.5 432,-670.5"/>
<text text-anchor="middle" x="494.5" y="-677.5" font-family="Helvetica,sans-Serif" font-size="10.00">include/york/Window.hpp</text>
</a>
</g>
</g>
<!-- Node1&#45;&gt;Node18 -->
<g id="edge44" class="edge">
<title>Node1&#45;&gt;Node18</title>
<path fill="none" stroke="midnightblue" d="M465.58,-718.4C473.31,-708.41 481.99,-697.18 487.81,-689.66"/>
<polygon fill="midnightblue" stroke="midnightblue" points="462.75,-716.35 459.4,-726.4 468.29,-720.63 462.75,-716.35"/>
</g>
<!-- Node3 -->
<g id="node3" class="node">
<title>Node3</title>
<g id="a_node3"><a xlink:href="_frame_data_8hpp.html" target="_top" xlink:title=" ">
<polygon fill="none" stroke="black" points="121,-67.5 121,-97.5 232,-97.5 232,-67.5 121,-67.5"/>
<text text-anchor="start" x="129" y="-85.5" font-family="Helvetica,sans-Serif" font-size="10.00">include/york/Graphics</text>
<text text-anchor="middle" x="176.5" y="-74.5" font-family="Helvetica,sans-Serif" font-size="10.00">/FrameData.hpp</text>
</a>
</g>
</g>
<!-- Node2&#45;&gt;Node3 -->
<g id="edge2" class="edge">
<title>Node2&#45;&gt;Node3</title>
<path fill="none" stroke="midnightblue" d="M251.38,-258.8C233.53,-217.01 196.99,-131.47 182.56,-97.68"/>
<polygon fill="midnightblue" stroke="midnightblue" points="248.24,-260.37 255.39,-268.19 254.68,-257.62 248.24,-260.37"/>
</g>
<!-- Node4 -->
<g id="node4" class="node">
<title>Node4</title>
<g id="a_node4"><a xlink:href="_renderer_8hpp.html" target="_top" xlink:title=" ">
<polygon fill="none" stroke="black" points="246.5,-0.5 246.5,-30.5 358.5,-30.5 358.5,-0.5 246.5,-0.5"/>
<text text-anchor="start" x="254.5" y="-18.5" font-family="Helvetica,sans-Serif" font-size="10.00">include/york/Renderer</text>
<text text-anchor="middle" x="302.5" y="-7.5" font-family="Helvetica,sans-Serif" font-size="10.00">/Renderer.hpp</text>
</a>
</g>
</g>
<!-- Node2&#45;&gt;Node4 -->
<g id="edge4" class="edge">
<title>Node2&#45;&gt;Node4</title>
<path fill="none" stroke="midnightblue" d="M263.93,-257.91C266.97,-228.4 272.62,-177.44 279.5,-134 285.45,-96.43 294.64,-52.53 299.41,-30.55"/>
<polygon fill="midnightblue" stroke="midnightblue" points="260.42,-257.81 262.89,-268.12 267.38,-258.52 260.42,-257.81"/>
</g>
<!-- Node3&#45;&gt;Node4 -->
<g id="edge3" class="edge">
<title>Node3&#45;&gt;Node4</title>
<path fill="none" stroke="midnightblue" d="M212.92,-62.71C232.79,-52.46 256.98,-39.98 275.21,-30.58"/>
<polygon fill="midnightblue" stroke="midnightblue" points="211.12,-59.7 203.84,-67.4 214.33,-65.92 211.12,-59.7"/>
</g>
<!-- Node5&#45;&gt;Node2 -->
<g id="edge6" class="edge">
<title>Node5&#45;&gt;Node2</title>
<path fill="none" stroke="midnightblue" d="M392.83,-395.78C381.98,-386.66 369.1,-375.81 357.5,-366 329.62,-342.43 297.26,-314.93 278.13,-298.66"/>
<polygon fill="midnightblue" stroke="midnightblue" points="390.77,-398.61 400.67,-402.37 395.27,-393.26 390.77,-398.61"/>
</g>
<!-- Node5&#45;&gt;Node6 -->
<g id="edge7" class="edge">
<title>Node5&#45;&gt;Node6</title>
<path fill="none" stroke="midnightblue" d="M352.01,-401.19C304.42,-390.06 240.69,-375.16 195.47,-364.59"/>
<polygon fill="midnightblue" stroke="midnightblue" points="351.38,-404.63 361.91,-403.5 352.97,-397.82 351.38,-404.63"/>
</g>
<!-- Node5&#45;&gt;Node7 -->
<g id="edge9" class="edge">
<title>Node5&#45;&gt;Node7</title>
<path fill="none" stroke="midnightblue" d="M418.98,-392.4C419.54,-383.37 420.15,-373.41 420.63,-365.58"/>
<polygon fill="midnightblue" stroke="midnightblue" points="415.49,-392.2 418.37,-402.4 422.48,-392.63 415.49,-392.2"/>
</g>
<!-- Node5&#45;&gt;Node9 -->
<g id="edge27" class="edge">
<title>Node5&#45;&gt;Node9</title>
<path fill="none" stroke="midnightblue" d="M453.5,-396.82C465.51,-388.69 477.98,-378.26 486.5,-366 500.84,-345.35 506.29,-315.92 508.32,-298.66"/>
<polygon fill="midnightblue" stroke="midnightblue" points="451.43,-393.99 444.9,-402.34 455.21,-399.88 451.43,-393.99"/>
</g>
<!-- Node5&#45;&gt;Node12 -->
<g id="edge20" class="edge">
<title>Node5&#45;&gt;Node12</title>
<path fill="none" stroke="midnightblue" d="M482.98,-403.52C543.56,-391.52 632.64,-373.87 689.86,-362.53"/>
<polygon fill="midnightblue" stroke="midnightblue" points="482.27,-400.1 473.14,-405.47 483.63,-406.96 482.27,-400.1"/>
</g>
<!-- Node5&#45;&gt;Node13 -->
<g id="edge22" class="edge">
<title>Node5&#45;&gt;Node13</title>
<path fill="none" stroke="midnightblue" d="M380.18,-397.8C361.58,-388.39 338.78,-376.74 318.5,-366 263.83,-337.05 250.39,-329.37 196.5,-299 155.12,-275.68 107.33,-247.87 79.36,-231.5"/>
<polygon fill="midnightblue" stroke="midnightblue" points="378.71,-400.98 389.22,-402.36 381.87,-394.73 378.71,-400.98"/>
</g>
<!-- Node5&#45;&gt;Node14 -->
<g id="edge25" class="edge">
<title>Node5&#45;&gt;Node14</title>
<path fill="none" stroke="midnightblue" d="M483.27,-409.98C561.56,-401.77 696.08,-386.27 810.5,-366 813.19,-365.52 815.94,-365.01 818.72,-364.47"/>
<polygon fill="midnightblue" stroke="midnightblue" points="482.66,-406.52 473.07,-411.04 483.38,-413.49 482.66,-406.52"/>
</g>
<!-- Node6&#45;&gt;Node3 -->
<g id="edge8" class="edge">
<title>Node6&#45;&gt;Node3</title>
<path fill="none" stroke="midnightblue" d="M142.9,-325.07C150.48,-270.57 168.57,-140.52 174.55,-97.55"/>
<polygon fill="midnightblue" stroke="midnightblue" points="139.4,-324.81 141.49,-335.2 146.33,-325.78 139.4,-324.81"/>
</g>
<!-- Node7&#45;&gt;Node8 -->
<g id="edge10" class="edge">
<title>Node7&#45;&gt;Node8</title>
<path fill="none" stroke="midnightblue" d="M412.33,-325.8C396.16,-284.01 363.06,-198.47 349.99,-164.68"/>
<polygon fill="midnightblue" stroke="midnightblue" points="409.09,-327.13 415.96,-335.19 415.62,-324.6 409.09,-327.13"/>
</g>
<!-- Node7&#45;&gt;Node9 -->
<g id="edge13" class="edge">
<title>Node7&#45;&gt;Node9</title>
<path fill="none" stroke="midnightblue" d="M448.64,-329.45C462.18,-319.45 478.23,-307.6 490.44,-298.58"/>
<polygon fill="midnightblue" stroke="midnightblue" points="446.56,-326.64 440.59,-335.4 450.72,-332.27 446.56,-326.64"/>
</g>
<!-- Node8&#45;&gt;Node3 -->
<g id="edge11" class="edge">
<title>Node8&#45;&gt;Node3</title>
<path fill="none" stroke="midnightblue" d="M298.45,-130.68C271.5,-120.26 237.96,-107.28 212.88,-97.58"/>
<polygon fill="midnightblue" stroke="midnightblue" points="297.46,-134.05 308.05,-134.4 299.98,-127.52 297.46,-134.05"/>
</g>
<!-- Node8&#45;&gt;Node4 -->
<g id="edge12" class="edge">
<title>Node8&#45;&gt;Node4</title>
<path fill="none" stroke="midnightblue" d="M336.94,-124.75C328.21,-97.29 314.11,-52.99 306.96,-30.52"/>
<polygon fill="midnightblue" stroke="midnightblue" points="333.64,-125.91 340.01,-134.37 340.31,-123.78 333.64,-125.91"/>
</g>
<!-- Node9&#45;&gt;Node3 -->
<g id="edge14" class="edge">
<title>Node9&#45;&gt;Node3</title>
<path fill="none" stroke="midnightblue" d="M478.73,-262.48C467.72,-254.12 455.96,-243.63 447.5,-232 420.03,-194.21 445.01,-164.35 409.5,-134 383.27,-111.58 292.35,-96.94 232.15,-89.46"/>
<polygon fill="midnightblue" stroke="midnightblue" points="476.79,-265.4 486.94,-268.45 480.91,-259.74 476.79,-265.4"/>
</g>
<!-- Node9&#45;&gt;Node10 -->
<g id="edge15" class="edge">
<title>Node9&#45;&gt;Node10</title>
<path fill="none" stroke="midnightblue" d="M541.18,-262.96C584.83,-236.04 662.42,-188.17 700.76,-164.52"/>
<polygon fill="midnightblue" stroke="midnightblue" points="539.08,-260.14 532.4,-268.37 542.75,-266.1 539.08,-260.14"/>
</g>
<!-- Node9&#45;&gt;Node11 -->
<g id="edge17" class="edge">
<title>Node9&#45;&gt;Node11</title>
<path fill="none" stroke="midnightblue" d="M510.25,-258.11C510.53,-249.15 510.83,-239.32 511.07,-231.58"/>
<polygon fill="midnightblue" stroke="midnightblue" points="506.74,-258.29 509.93,-268.4 513.74,-258.51 506.74,-258.29"/>
</g>
<!-- Node10&#45;&gt;Node4 -->
<g id="edge16" class="edge">
<title>Node10&#45;&gt;Node4</title>
<path fill="none" stroke="midnightblue" d="M708.94,-125.81C695.44,-106.8 673.53,-80.65 647.5,-67 598.44,-41.28 443.23,-26.53 358.69,-20.2"/>
<polygon fill="midnightblue" stroke="midnightblue" points="706.17,-127.96 714.71,-134.23 711.94,-124 706.17,-127.96"/>
</g>
<!-- Node11&#45;&gt;Node8 -->
<g id="edge18" class="edge">
<title>Node11&#45;&gt;Node8</title>
<path fill="none" stroke="midnightblue" d="M465.72,-197.68C438.94,-187.26 405.6,-174.28 380.67,-164.58"/>
<polygon fill="midnightblue" stroke="midnightblue" points="464.67,-201.03 475.26,-201.4 467.21,-194.51 464.67,-201.03"/>
</g>
<!-- Node11&#45;&gt;Node10 -->
<g id="edge19" class="edge">
<title>Node11&#45;&gt;Node10</title>
<path fill="none" stroke="midnightblue" d="M567.13,-198.44C601.49,-187.91 645.06,-174.55 677.48,-164.61"/>
<polygon fill="midnightblue" stroke="midnightblue" points="565.77,-195.2 557.24,-201.48 567.83,-201.89 565.77,-195.2"/>
</g>
<!-- Node12&#45;&gt;Node10 -->
<g id="edge21" class="edge">
<title>Node12&#45;&gt;Node10</title>
<path fill="none" stroke="midnightblue" d="M742.79,-325C738.14,-282.93 728.78,-198.26 725.07,-164.68"/>
<polygon fill="midnightblue" stroke="midnightblue" points="739.34,-325.63 743.92,-335.19 746.3,-324.86 739.34,-325.63"/>
</g>
<!-- Node13&#45;&gt;Node3 -->
<g id="edge23" class="edge">
<title>Node13&#45;&gt;Node3</title>
<path fill="none" stroke="midnightblue" d="M73.73,-193.31C87.59,-176.68 107.31,-153.52 125.5,-134 137.22,-121.42 151.13,-107.73 161.45,-97.78"/>
<polygon fill="midnightblue" stroke="midnightblue" points="70.75,-191.43 67.06,-201.36 76.13,-195.89 70.75,-191.43"/>
</g>
<!-- Node13&#45;&gt;Node4 -->
<g id="edge24" class="edge">
<title>Node13&#45;&gt;Node4</title>
<path fill="none" stroke="midnightblue" d="M57.87,-191.14C62.39,-158.15 75.3,-99.68 111.5,-67 148.29,-33.79 204.4,-21.98 246.3,-17.99"/>
<polygon fill="midnightblue" stroke="midnightblue" points="54.37,-190.92 56.63,-201.27 61.31,-191.76 54.37,-190.92"/>
</g>
<!-- Node14&#45;&gt;Node10 -->
<g id="edge26" class="edge">
<title>Node14&#45;&gt;Node10</title>
<path fill="none" stroke="midnightblue" d="M857.51,-327.11C826.19,-285.83 760.17,-198.83 734.26,-164.68"/>
<polygon fill="midnightblue" stroke="midnightblue" points="854.81,-329.34 863.64,-335.19 860.38,-325.11 854.81,-329.34"/>
</g>
<!-- Node15&#45;&gt;Node5 -->
<g id="edge32" class="edge">
<title>Node15&#45;&gt;Node5</title>
<path fill="none" stroke="midnightblue" d="M424.42,-593.19C423.38,-569.43 421.78,-532.23 420.5,-500 419.56,-476.37 418.57,-448.89 418,-432.64"/>
<polygon fill="midnightblue" stroke="midnightblue" points="420.94,-593.56 424.87,-603.39 427.93,-593.25 420.94,-593.56"/>
</g>
<!-- Node15&#45;&gt;Node16 -->
<g id="edge33" class="edge">
<title>Node15&#45;&gt;Node16</title>
<path fill="none" stroke="midnightblue" d="M449.61,-596.88C461.16,-587.01 474.69,-575.43 485.04,-566.58"/>
<polygon fill="midnightblue" stroke="midnightblue" points="447.32,-594.24 441.99,-603.4 451.87,-599.56 447.32,-594.24"/>
</g>
<!-- Node16&#45;&gt;Node5 -->
<g id="edge34" class="edge">
<title>Node16&#45;&gt;Node5</title>
<path fill="none" stroke="midnightblue" d="M468.1,-530.65C456.87,-522.46 445.25,-512.05 437.5,-500 424.02,-479.05 419.63,-449.72 418.19,-432.56"/>
<polygon fill="midnightblue" stroke="midnightblue" points="466.31,-533.67 476.53,-536.47 470.29,-527.91 466.31,-533.67"/>
</g>
<!-- Node17 -->
<g id="node17" class="node">
<title>Node17</title>
<g id="a_node17"><a xlink:href="_physical_device_8hpp.html" target="_top" xlink:title=" ">
<polygon fill="none" stroke="black" points="446,-469.5 446,-499.5 557,-499.5 557,-469.5 446,-469.5"/>
<text text-anchor="start" x="454" y="-487.5" font-family="Helvetica,sans-Serif" font-size="10.00">include/york/Graphics</text>
<text text-anchor="middle" x="501.5" y="-476.5" font-family="Helvetica,sans-Serif" font-size="10.00">/PhysicalDevice.hpp</text>
</a>
</g>
</g>
<!-- Node16&#45;&gt;Node17 -->
<g id="edge35" class="edge">
<title>Node16&#45;&gt;Node17</title>
<path fill="none" stroke="midnightblue" d="M501.5,-526.11C501.5,-517.15 501.5,-507.32 501.5,-499.58"/>
<polygon fill="midnightblue" stroke="midnightblue" points="498,-526.4 501.5,-536.4 505,-526.4 498,-526.4"/>
</g>
<!-- Node17&#45;&gt;Node5 -->
<g id="edge36" class="edge">
<title>Node17&#45;&gt;Node5</title>
<path fill="none" stroke="midnightblue" d="M475.22,-463.17C462.38,-453.23 447.24,-441.51 435.69,-432.58"/>
<polygon fill="midnightblue" stroke="midnightblue" points="473.22,-466.04 483.27,-469.4 477.51,-460.51 473.22,-466.04"/>
</g>
<!-- Node18&#45;&gt;Node4 -->
<g id="edge47" class="edge">
<title>Node18&#45;&gt;Node4</title>
<path fill="none" stroke="midnightblue" d="M508.37,-662.56C533.85,-630.64 585.5,-557.1 585.5,-485.5 585.5,-485.5 585.5,-485.5 585.5,-416.5 585.5,-320.64 623.29,-284.66 576.5,-201 525.2,-109.28 406.95,-54.33 343.88,-30.51"/>
<polygon fill="midnightblue" stroke="midnightblue" points="505.57,-660.47 501.95,-670.43 510.99,-664.9 505.57,-660.47"/>
</g>
<!-- Node18&#45;&gt;Node15 -->
<g id="edge45" class="edge">
<title>Node18&#45;&gt;Node15</title>
<path fill="none" stroke="midnightblue" d="M477.01,-663.92C466.18,-654.58 452.36,-642.66 441.76,-633.52"/>
<polygon fill="midnightblue" stroke="midnightblue" points="474.76,-666.6 484.61,-670.48 479.33,-661.29 474.76,-666.6"/>
</g>
<!-- Node18&#45;&gt;Node16 -->
<g id="edge46" class="edge">
<title>Node18&#45;&gt;Node16</title>
<path fill="none" stroke="midnightblue" d="M495.55,-660.11C496.96,-634.63 499.44,-589.81 500.7,-566.89"/>
<polygon fill="midnightblue" stroke="midnightblue" points="492.04,-660.13 494.98,-670.31 499.03,-660.51 492.04,-660.13"/>
</g>
</g>
</svg>
