<?xml version="1.0" encoding="UTF-8" standalone="no"?>
<!DOCTYPE svg PUBLIC "-//W3C//DTD SVG 1.1//EN"
 "http://www.w3.org/Graphics/SVG/1.1/DTD/svg11.dtd">
<!-- Generated by graphviz version 2.50.0 (20211204.2007)
 -->
<!-- Title: include/york/Identifiable.hpp Pages: 1 -->
<svg width="208pt" height="196pt"
 viewBox="0.00 0.00 208.00 196.00" xmlns="http://www.w3.org/2000/svg" xmlns:xlink="http://www.w3.org/1999/xlink">
<g id="graph0" class="graph" transform="scale(1 1) rotate(0) translate(4 192)">
<title>include/york/Identifiable.hpp</title>
<!-- Node1 -->
<g id="node1" class="node">
<title>Node1</title>
<g id="a_node1"><a xlink:title=" ">
<polygon fill="#bfbfbf" stroke="black" points="30,-168.5 30,-187.5 168,-187.5 168,-168.5 30,-168.5"/>
<text text-anchor="middle" x="99" y="-175.5" font-family="Helvetica,sans-Serif" font-size="10.00">include/york/Identifiable.hpp</text>
</a>
</g>
</g>
<!-- Node2 -->
<g id="node2" class="node">
<title>Node2</title>
<g id="a_node2"><a xlink:href="_event_8hpp.html" target="_top" xlink:title=" ">
<polygon fill="none" stroke="black" points="84,-112.5 84,-131.5 200,-131.5 200,-112.5 84,-112.5"/>
<text text-anchor="middle" x="142" y="-119.5" font-family="Helvetica,sans-Serif" font-size="10.00">include/york/Event.hpp</text>
</a>
</g>
</g>
<!-- Node1&#45;&gt;Node2 -->
<g id="edge1" class="edge">
<title>Node1&#45;&gt;Node2</title>
<path fill="none" stroke="midnightblue" d="M112.42,-160.14C119.91,-150.74 128.94,-139.4 135.03,-131.75"/>
<polygon fill="midnightblue" stroke="midnightblue" points="109.59,-158.08 106.1,-168.08 115.07,-162.44 109.59,-158.08"/>
</g>
<!-- Node3 -->
<g id="node3" class="node">
<title>Node3</title>
<g id="a_node3"><a xlink:href="_layer_8hpp.html" target="_top" xlink:title=" ">
<polygon fill="none" stroke="black" points="0,-56.5 0,-75.5 114,-75.5 114,-56.5 0,-56.5"/>
<text text-anchor="middle" x="57" y="-63.5" font-family="Helvetica,sans-Serif" font-size="10.00">include/york/Layer.hpp</text>
</a>
</g>
</g>
<!-- Node1&#45;&gt;Node3 -->
<g id="edge5" class="edge">
<title>Node1&#45;&gt;Node3</title>
<path fill="none" stroke="midnightblue" d="M88.47,-159.42C83.89,-151.28 78.74,-141.35 75,-132 67.18,-112.43 61.46,-88.24 58.75,-75.61"/>
<polygon fill="midnightblue" stroke="midnightblue" points="85.58,-161.42 93.62,-168.31 91.63,-157.91 85.58,-161.42"/>
</g>
<!-- Node2&#45;&gt;Node3 -->
<g id="edge2" class="edge">
<title>Node2&#45;&gt;Node3</title>
<path fill="none" stroke="midnightblue" d="M119.81,-106.9C104.22,-97 83.87,-84.07 70.62,-75.65"/>
<polygon fill="midnightblue" stroke="midnightblue" points="118.03,-109.92 128.34,-112.32 121.78,-104.01 118.03,-109.92"/>
</g>
<!-- Node4 -->
<g id="node4" class="node">
<title>Node4</title>
<g id="a_node4"><a xlink:href="_york_8hpp.html" target="_top" xlink:title=" ">
<polygon fill="none" stroke="black" points="44,-0.5 44,-19.5 154,-19.5 154,-0.5 44,-0.5"/>
<text text-anchor="middle" x="99" y="-7.5" font-family="Helvetica,sans-Serif" font-size="10.00">include/york/York.hpp</text>
</a>
</g>
</g>
<!-- Node2&#45;&gt;Node4 -->
<g id="edge4" class="edge">
<title>Node2&#45;&gt;Node4</title>
<path fill="none" stroke="midnightblue" d="M137.7,-102.62C134.36,-89.41 129.24,-71.31 123,-56 117.65,-42.88 109.61,-28.58 104.34,-19.7"/>
<polygon fill="midnightblue" stroke="midnightblue" points="134.32,-103.51 140.08,-112.4 141.12,-101.85 134.32,-103.51"/>
</g>
<!-- Node3&#45;&gt;Node4 -->
<g id="edge3" class="edge">
<title>Node3&#45;&gt;Node4</title>
<path fill="none" stroke="midnightblue" d="M70.11,-48.14C77.43,-38.74 86.24,-27.4 92.19,-19.75"/>
<polygon fill="midnightblue" stroke="midnightblue" points="67.31,-46.04 63.94,-56.08 72.84,-50.34 67.31,-46.04"/>
</g>
</g>
</svg>
