<?xml version="1.0" encoding="UTF-8" standalone="no"?>
<!DOCTYPE svg PUBLIC "-//W3C//DTD SVG 1.1//EN"
 "http://www.w3.org/Graphics/SVG/1.1/DTD/svg11.dtd">
<!-- Generated by graphviz version 2.50.0 (20211204.2007)
 -->
<!-- Title: include/york/Graphics/ImageView.hpp Pages: 1 -->
<svg width="302pt" height="374pt"
 viewBox="0.00 0.00 301.70 374.00" xmlns="http://www.w3.org/2000/svg" xmlns:xlink="http://www.w3.org/1999/xlink">
<g id="graph0" class="graph" transform="scale(1 1) rotate(0) translate(4 370)">
<title>include/york/Graphics/ImageView.hpp</title>
<!-- Node1 -->
<g id="node1" class="node">
<title>Node1</title>
<g id="a_node1"><a xlink:title=" ">
<polygon fill="#bfbfbf" stroke="black" points="98.7,-335.5 98.7,-365.5 209.7,-365.5 209.7,-335.5 98.7,-335.5"/>
<text text-anchor="start" x="106.7" y="-353.5" font-family="Helvetica,sans-Serif" font-size="10.00">include/york/Graphics</text>
<text text-anchor="middle" x="154.2" y="-342.5" font-family="Helvetica,sans-Serif" font-size="10.00">/ImageView.hpp</text>
</a>
</g>
</g>
<!-- Node2 -->
<g id="node2" class="node">
<title>Node2</title>
<g id="a_node2"><a xlink:href="_framebuffer_8hpp.html" target="_top" xlink:title=" ">
<polygon fill="none" stroke="black" points="182.7,-134.5 182.7,-164.5 293.7,-164.5 293.7,-134.5 182.7,-134.5"/>
<text text-anchor="start" x="190.7" y="-152.5" font-family="Helvetica,sans-Serif" font-size="10.00">include/york/Graphics</text>
<text text-anchor="middle" x="238.2" y="-141.5" font-family="Helvetica,sans-Serif" font-size="10.00">/Framebuffer.hpp</text>
</a>
</g>
</g>
<!-- Node1&#45;&gt;Node2 -->
<g id="edge1" class="edge">
<title>Node1&#45;&gt;Node2</title>
<path fill="none" stroke="midnightblue" d="M165.08,-326.1C168.97,-317.6 173.35,-307.9 177.2,-299 198.35,-250.15 221.9,-191.53 232.49,-164.91"/>
<polygon fill="midnightblue" stroke="midnightblue" points="161.8,-324.87 160.79,-335.41 168.15,-327.8 161.8,-324.87"/>
</g>
<!-- Node5 -->
<g id="node5" class="node">
<title>Node5</title>
<g id="a_node5"><a xlink:href="_swap_chain_8hpp.html" target="_top" xlink:title=" ">
<polygon fill="none" stroke="black" points="56.7,-268.5 56.7,-298.5 167.7,-298.5 167.7,-268.5 56.7,-268.5"/>
<text text-anchor="start" x="64.7" y="-286.5" font-family="Helvetica,sans-Serif" font-size="10.00">include/york/Graphics</text>
<text text-anchor="middle" x="112.2" y="-275.5" font-family="Helvetica,sans-Serif" font-size="10.00">/SwapChain.hpp</text>
</a>
</g>
</g>
<!-- Node1&#45;&gt;Node5 -->
<g id="edge5" class="edge">
<title>Node1&#45;&gt;Node5</title>
<path fill="none" stroke="midnightblue" d="M139.58,-326.87C133.5,-317.46 126.63,-306.83 121.3,-298.58"/>
<polygon fill="midnightblue" stroke="midnightblue" points="136.72,-328.9 145.09,-335.4 142.6,-325.1 136.72,-328.9"/>
</g>
<!-- Node3 -->
<g id="node3" class="node">
<title>Node3</title>
<g id="a_node3"><a xlink:href="_frame_data_8hpp.html" target="_top" xlink:title=" ">
<polygon fill="none" stroke="black" points="98.7,-67.5 98.7,-97.5 209.7,-97.5 209.7,-67.5 98.7,-67.5"/>
<text text-anchor="start" x="106.7" y="-85.5" font-family="Helvetica,sans-Serif" font-size="10.00">include/york/Graphics</text>
<text text-anchor="middle" x="154.2" y="-74.5" font-family="Helvetica,sans-Serif" font-size="10.00">/FrameData.hpp</text>
</a>
</g>
</g>
<!-- Node2&#45;&gt;Node3 -->
<g id="edge2" class="edge">
<title>Node2&#45;&gt;Node3</title>
<path fill="none" stroke="midnightblue" d="M211.93,-128.17C199.08,-118.23 183.94,-106.51 172.39,-97.58"/>
<polygon fill="midnightblue" stroke="midnightblue" points="209.92,-131.04 219.98,-134.4 214.21,-125.51 209.92,-131.04"/>
</g>
<!-- Node4 -->
<g id="node4" class="node">
<title>Node4</title>
<g id="a_node4"><a xlink:href="_renderer_8hpp.html" target="_top" xlink:title=" ">
<polygon fill="none" stroke="black" points="98.2,-0.5 98.2,-30.5 210.2,-30.5 210.2,-0.5 98.2,-0.5"/>
<text text-anchor="start" x="106.2" y="-18.5" font-family="Helvetica,sans-Serif" font-size="10.00">include/york/Renderer</text>
<text text-anchor="middle" x="154.2" y="-7.5" font-family="Helvetica,sans-Serif" font-size="10.00">/Renderer.hpp</text>
</a>
</g>
</g>
<!-- Node2&#45;&gt;Node4 -->
<g id="edge4" class="edge">
<title>Node2&#45;&gt;Node4</title>
<path fill="none" stroke="midnightblue" d="M236.8,-124.11C234.84,-106.99 230.19,-84.16 219.2,-67 209.49,-51.84 193.59,-39.37 179.95,-30.61"/>
<polygon fill="midnightblue" stroke="midnightblue" points="233.35,-124.79 237.74,-134.43 240.32,-124.16 233.35,-124.79"/>
</g>
<!-- Node3&#45;&gt;Node4 -->
<g id="edge3" class="edge">
<title>Node3&#45;&gt;Node4</title>
<path fill="none" stroke="midnightblue" d="M154.2,-57.11C154.2,-48.15 154.2,-38.32 154.2,-30.58"/>
<polygon fill="midnightblue" stroke="midnightblue" points="150.7,-57.4 154.2,-67.4 157.7,-57.4 150.7,-57.4"/>
</g>
<!-- Node5&#45;&gt;Node3 -->
<g id="edge6" class="edge">
<title>Node5&#45;&gt;Node3</title>
<path fill="none" stroke="midnightblue" d="M123.98,-259.15C127.77,-250.77 131.65,-241.14 134.2,-232 147.64,-183.89 152.17,-124.42 153.6,-97.68"/>
<polygon fill="midnightblue" stroke="midnightblue" points="120.76,-257.77 119.65,-268.3 127.09,-260.76 120.76,-257.77"/>
</g>
<!-- Node6 -->
<g id="node6" class="node">
<title>Node6</title>
<g id="a_node6"><a xlink:href="_pipeline_8hpp.html" target="_top" xlink:title=" ">
<polygon fill="none" stroke="black" points="14.7,-134.5 14.7,-164.5 125.7,-164.5 125.7,-134.5 14.7,-134.5"/>
<text text-anchor="start" x="22.7" y="-152.5" font-family="Helvetica,sans-Serif" font-size="10.00">include/york/Graphics</text>
<text text-anchor="middle" x="70.2" y="-141.5" font-family="Helvetica,sans-Serif" font-size="10.00">/Pipeline.hpp</text>
</a>
</g>
</g>
<!-- Node5&#45;&gt;Node6 -->
<g id="edge7" class="edge">
<title>Node5&#45;&gt;Node6</title>
<path fill="none" stroke="midnightblue" d="M46.82,-265.47C30.47,-257.95 14.85,-247.23 5.2,-232 -2.17,-220.36 -0.85,-213.38 5.2,-201 12.87,-185.34 27.99,-173.14 41.72,-164.65"/>
<polygon fill="midnightblue" stroke="midnightblue" points="45.91,-268.88 56.49,-269.53 48.63,-262.43 45.91,-268.88"/>
</g>
<!-- Node7 -->
<g id="node7" class="node">
<title>Node7</title>
<g id="a_node7"><a xlink:href="_render_pass_8hpp.html" target="_top" xlink:title=" ">
<polygon fill="none" stroke="black" points="14.7,-201.5 14.7,-231.5 125.7,-231.5 125.7,-201.5 14.7,-201.5"/>
<text text-anchor="start" x="22.7" y="-219.5" font-family="Helvetica,sans-Serif" font-size="10.00">include/york/Graphics</text>
<text text-anchor="middle" x="70.2" y="-208.5" font-family="Helvetica,sans-Serif" font-size="10.00">/RenderPass.hpp</text>
</a>
</g>
</g>
<!-- Node5&#45;&gt;Node7 -->
<g id="edge9" class="edge">
<title>Node5&#45;&gt;Node7</title>
<path fill="none" stroke="midnightblue" d="M97.58,-259.87C91.5,-250.46 84.63,-239.83 79.3,-231.58"/>
<polygon fill="midnightblue" stroke="midnightblue" points="94.72,-261.9 103.09,-268.4 100.6,-258.1 94.72,-261.9"/>
</g>
<!-- Node6&#45;&gt;Node4 -->
<g id="edge8" class="edge">
<title>Node6&#45;&gt;Node4</title>
<path fill="none" stroke="midnightblue" d="M71.6,-124.11C73.56,-106.99 78.21,-84.16 89.2,-67 98.91,-51.84 114.81,-39.37 128.45,-30.61"/>
<polygon fill="midnightblue" stroke="midnightblue" points="68.08,-124.16 70.66,-134.43 75.05,-124.79 68.08,-124.16"/>
</g>
<!-- Node7&#45;&gt;Node2 -->
<g id="edge10" class="edge">
<title>Node7&#45;&gt;Node2</title>
<path fill="none" stroke="midnightblue" d="M116.26,-197.68C143.2,-187.26 176.74,-174.28 201.82,-164.58"/>
<polygon fill="midnightblue" stroke="midnightblue" points="114.72,-194.52 106.66,-201.4 117.24,-201.05 114.72,-194.52"/>
</g>
<!-- Node7&#45;&gt;Node6 -->
<g id="edge11" class="edge">
<title>Node7&#45;&gt;Node6</title>
<path fill="none" stroke="midnightblue" d="M70.2,-191.11C70.2,-182.15 70.2,-172.32 70.2,-164.58"/>
<polygon fill="midnightblue" stroke="midnightblue" points="66.7,-191.4 70.2,-201.4 73.7,-191.4 66.7,-191.4"/>
</g>
</g>
</svg>
