<?xml version="1.0" encoding="UTF-8" standalone="no"?>
<!DOCTYPE svg PUBLIC "-//W3C//DTD SVG 1.1//EN"
 "http://www.w3.org/Graphics/SVG/1.1/DTD/svg11.dtd">
<!-- Generated by graphviz version 2.50.0 (20211204.2007)
 -->
<!-- Title: include/york/Graphics/Instance.hpp Pages: 1 -->
<svg width="616pt" height="642pt"
 viewBox="0.00 0.00 616.00 642.00" xmlns="http://www.w3.org/2000/svg" xmlns:xlink="http://www.w3.org/1999/xlink">
<g id="graph0" class="graph" transform="scale(1 1) rotate(0) translate(4 638)">
<title>include/york/Graphics/Instance.hpp</title>
<!-- Node1 -->
<g id="node1" class="node">
<title>Node1</title>
<g id="a_node1"><a xlink:title=" ">
<polygon fill="#bfbfbf" stroke="black" points="210,-603.5 210,-633.5 321,-633.5 321,-603.5 210,-603.5"/>
<text text-anchor="start" x="218" y="-621.5" font-family="Helvetica,sans-Serif" font-size="10.00">include/york/Graphics</text>
<text text-anchor="middle" x="265.5" y="-610.5" font-family="Helvetica,sans-Serif" font-size="10.00">/Instance.hpp</text>
</a>
</g>
</g>
<!-- Node2 -->
<g id="node2" class="node">
<title>Node2</title>
<g id="a_node2"><a xlink:href="_device_8hpp.html" target="_top" xlink:title=" ">
<polygon fill="none" stroke="black" points="252,-402.5 252,-432.5 363,-432.5 363,-402.5 252,-402.5"/>
<text text-anchor="start" x="260" y="-420.5" font-family="Helvetica,sans-Serif" font-size="10.00">include/york/Graphics</text>
<text text-anchor="middle" x="307.5" y="-409.5" font-family="Helvetica,sans-Serif" font-size="10.00">/Device.hpp</text>
</a>
</g>
</g>
<!-- Node1&#45;&gt;Node2 -->
<g id="edge1" class="edge">
<title>Node1&#45;&gt;Node2</title>
<path fill="none" stroke="midnightblue" d="M252.46,-594.38C248.44,-586.02 244.53,-576.34 242.5,-567 233.26,-524.44 223.35,-508.12 242.5,-469 250.16,-453.34 265.29,-441.14 279.02,-432.65"/>
<polygon fill="midnightblue" stroke="midnightblue" points="249.46,-596.19 257.14,-603.48 255.68,-592.99 249.46,-596.19"/>
</g>
<!-- Node15 -->
<g id="node15" class="node">
<title>Node15</title>
<g id="a_node15"><a xlink:href="_surface_8hpp.html" target="_top" xlink:title=" ">
<polygon fill="none" stroke="black" points="252,-536.5 252,-566.5 363,-566.5 363,-536.5 252,-536.5"/>
<text text-anchor="start" x="260" y="-554.5" font-family="Helvetica,sans-Serif" font-size="10.00">include/york/Graphics</text>
<text text-anchor="middle" x="307.5" y="-543.5" font-family="Helvetica,sans-Serif" font-size="10.00">/Surface.hpp</text>
</a>
</g>
</g>
<!-- Node1&#45;&gt;Node15 -->
<g id="edge27" class="edge">
<title>Node1&#45;&gt;Node15</title>
<path fill="none" stroke="midnightblue" d="M280.12,-594.87C286.2,-585.46 293.07,-574.83 298.4,-566.58"/>
<polygon fill="midnightblue" stroke="midnightblue" points="277.1,-593.1 274.61,-603.4 282.98,-596.9 277.1,-593.1"/>
</g>
<!-- Node3 -->
<g id="node3" class="node">
<title>Node3</title>
<g id="a_node3"><a xlink:href="_command_pool_8hpp.html" target="_top" xlink:title=" ">
<polygon fill="none" stroke="black" points="0,-134.5 0,-164.5 111,-164.5 111,-134.5 0,-134.5"/>
<text text-anchor="start" x="8" y="-152.5" font-family="Helvetica,sans-Serif" font-size="10.00">include/york/Graphics</text>
<text text-anchor="middle" x="55.5" y="-141.5" font-family="Helvetica,sans-Serif" font-size="10.00">/CommandPool.hpp</text>
</a>
</g>
</g>
<!-- Node2&#45;&gt;Node3 -->
<g id="edge2" class="edge">
<title>Node2&#45;&gt;Node3</title>
<path fill="none" stroke="midnightblue" d="M246.98,-399.08C225.38,-391.11 201.66,-380.21 182.5,-366 121.06,-320.43 108.03,-300.75 74.5,-232 63.74,-209.93 58.91,-181.48 56.86,-164.69"/>
<polygon fill="midnightblue" stroke="midnightblue" points="245.82,-402.39 256.42,-402.43 248.16,-395.79 245.82,-402.39"/>
</g>
<!-- Node6 -->
<g id="node6" class="node">
<title>Node6</title>
<g id="a_node6"><a xlink:href="_fence_8hpp.html" target="_top" xlink:title=" ">
<polygon fill="none" stroke="black" points="84,-201.5 84,-231.5 195,-231.5 195,-201.5 84,-201.5"/>
<text text-anchor="start" x="92" y="-219.5" font-family="Helvetica,sans-Serif" font-size="10.00">include/york/Graphics</text>
<text text-anchor="middle" x="139.5" y="-208.5" font-family="Helvetica,sans-Serif" font-size="10.00">/Fence.hpp</text>
</a>
</g>
</g>
<!-- Node2&#45;&gt;Node6 -->
<g id="edge6" class="edge">
<title>Node2&#45;&gt;Node6</title>
<path fill="none" stroke="midnightblue" d="M257.27,-398.33C240.5,-390.4 222.73,-379.71 209.5,-366 170.7,-325.81 150.28,-260.11 142.84,-231.52"/>
<polygon fill="midnightblue" stroke="midnightblue" points="255.89,-401.55 266.44,-402.46 258.76,-395.17 255.89,-401.55"/>
</g>
<!-- Node7 -->
<g id="node7" class="node">
<title>Node7</title>
<g id="a_node7"><a xlink:href="_image_view_8hpp.html" target="_top" xlink:title=" ">
<polygon fill="none" stroke="black" points="252,-335.5 252,-365.5 363,-365.5 363,-335.5 252,-335.5"/>
<text text-anchor="start" x="260" y="-353.5" font-family="Helvetica,sans-Serif" font-size="10.00">include/york/Graphics</text>
<text text-anchor="middle" x="307.5" y="-342.5" font-family="Helvetica,sans-Serif" font-size="10.00">/ImageView.hpp</text>
</a>
</g>
</g>
<!-- Node2&#45;&gt;Node7 -->
<g id="edge8" class="edge">
<title>Node2&#45;&gt;Node7</title>
<path fill="none" stroke="midnightblue" d="M307.5,-392.11C307.5,-383.15 307.5,-373.32 307.5,-365.58"/>
<polygon fill="midnightblue" stroke="midnightblue" points="304,-392.4 307.5,-402.4 311,-392.4 304,-392.4"/>
</g>
<!-- Node9 -->
<g id="node9" class="node">
<title>Node9</title>
<g id="a_node9"><a xlink:href="_swap_chain_8hpp.html" target="_top" xlink:title=" ">
<polygon fill="none" stroke="black" points="298,-268.5 298,-298.5 409,-298.5 409,-268.5 298,-268.5"/>
<text text-anchor="start" x="306" y="-286.5" font-family="Helvetica,sans-Serif" font-size="10.00">include/york/Graphics</text>
<text text-anchor="middle" x="353.5" y="-275.5" font-family="Helvetica,sans-Serif" font-size="10.00">/SwapChain.hpp</text>
</a>
</g>
</g>
<!-- Node2&#45;&gt;Node9 -->
<g id="edge26" class="edge">
<title>Node2&#45;&gt;Node9</title>
<path fill="none" stroke="midnightblue" d="M343.62,-396.8C354.65,-388.81 365.45,-378.48 371.5,-366 382.18,-343.96 370.92,-315.5 362.02,-298.71"/>
<polygon fill="midnightblue" stroke="midnightblue" points="341.57,-393.97 335.22,-402.46 345.48,-399.78 341.57,-393.97"/>
</g>
<!-- Node12 -->
<g id="node12" class="node">
<title>Node12</title>
<g id="a_node12"><a xlink:href="_pipeline_layout_8hpp.html" target="_top" xlink:title=" ">
<polygon fill="none" stroke="black" points="427,-268.5 427,-298.5 538,-298.5 538,-268.5 427,-268.5"/>
<text text-anchor="start" x="435" y="-286.5" font-family="Helvetica,sans-Serif" font-size="10.00">include/york/Graphics</text>
<text text-anchor="middle" x="482.5" y="-275.5" font-family="Helvetica,sans-Serif" font-size="10.00">/PipelineLayout.hpp</text>
</a>
</g>
</g>
<!-- Node2&#45;&gt;Node12 -->
<g id="edge19" class="edge">
<title>Node2&#45;&gt;Node12</title>
<path fill="none" stroke="midnightblue" d="M341.13,-397.15C356,-388.19 373.48,-377.08 388.5,-366 418.04,-344.19 449.8,-315.41 467.8,-298.53"/>
<polygon fill="midnightblue" stroke="midnightblue" points="339.06,-394.31 332.26,-402.44 342.64,-400.33 339.06,-394.31"/>
</g>
<!-- Node13 -->
<g id="node13" class="node">
<title>Node13</title>
<g id="a_node13"><a xlink:href="_semaphore_8hpp.html" target="_top" xlink:title=" ">
<polygon fill="none" stroke="black" points="168,-134.5 168,-164.5 279,-164.5 279,-134.5 168,-134.5"/>
<text text-anchor="start" x="176" y="-152.5" font-family="Helvetica,sans-Serif" font-size="10.00">include/york/Graphics</text>
<text text-anchor="middle" x="223.5" y="-141.5" font-family="Helvetica,sans-Serif" font-size="10.00">/Semaphore.hpp</text>
</a>
</g>
</g>
<!-- Node2&#45;&gt;Node13 -->
<g id="edge21" class="edge">
<title>Node2&#45;&gt;Node13</title>
<path fill="none" stroke="midnightblue" d="M271.72,-396.79C260.48,-388.75 249.26,-378.4 242.5,-366 205.65,-298.4 215.63,-200.88 221.07,-164.7"/>
<polygon fill="midnightblue" stroke="midnightblue" points="269.98,-399.83 280.24,-402.48 273.87,-394.01 269.98,-399.83"/>
</g>
<!-- Node14 -->
<g id="node14" class="node">
<title>Node14</title>
<g id="a_node14"><a xlink:href="_shader_8hpp.html" target="_top" xlink:title=" ">
<polygon fill="none" stroke="black" points="497,-335.5 497,-365.5 608,-365.5 608,-335.5 497,-335.5"/>
<text text-anchor="start" x="505" y="-353.5" font-family="Helvetica,sans-Serif" font-size="10.00">include/york/Graphics</text>
<text text-anchor="middle" x="552.5" y="-342.5" font-family="Helvetica,sans-Serif" font-size="10.00">/Shader.hpp</text>
</a>
</g>
</g>
<!-- Node2&#45;&gt;Node14 -->
<g id="edge24" class="edge">
<title>Node2&#45;&gt;Node14</title>
<path fill="none" stroke="midnightblue" d="M370.26,-399.85C410.2,-389.25 461.37,-375.68 499.31,-365.61"/>
<polygon fill="midnightblue" stroke="midnightblue" points="369.13,-396.53 360.36,-402.48 370.92,-403.29 369.13,-396.53"/>
</g>
<!-- Node4 -->
<g id="node4" class="node">
<title>Node4</title>
<g id="a_node4"><a xlink:href="_frame_data_8hpp.html" target="_top" xlink:title=" ">
<polygon fill="none" stroke="black" points="252,-67.5 252,-97.5 363,-97.5 363,-67.5 252,-67.5"/>
<text text-anchor="start" x="260" y="-85.5" font-family="Helvetica,sans-Serif" font-size="10.00">include/york/Graphics</text>
<text text-anchor="middle" x="307.5" y="-74.5" font-family="Helvetica,sans-Serif" font-size="10.00">/FrameData.hpp</text>
</a>
</g>
</g>
<!-- Node3&#45;&gt;Node4 -->
<g id="edge3" class="edge">
<title>Node3&#45;&gt;Node4</title>
<path fill="none" stroke="midnightblue" d="M119.79,-131.92C160.91,-121.31 213.68,-107.7 252.79,-97.61"/>
<polygon fill="midnightblue" stroke="midnightblue" points="118.68,-128.59 109.87,-134.48 120.43,-135.37 118.68,-128.59"/>
</g>
<!-- Node5 -->
<g id="node5" class="node">
<title>Node5</title>
<g id="a_node5"><a xlink:href="_renderer_8hpp.html" target="_top" xlink:title=" ">
<polygon fill="none" stroke="black" points="251.5,-0.5 251.5,-30.5 363.5,-30.5 363.5,-0.5 251.5,-0.5"/>
<text text-anchor="start" x="259.5" y="-18.5" font-family="Helvetica,sans-Serif" font-size="10.00">include/york/Renderer</text>
<text text-anchor="middle" x="307.5" y="-7.5" font-family="Helvetica,sans-Serif" font-size="10.00">/Renderer.hpp</text>
</a>
</g>
</g>
<!-- Node3&#45;&gt;Node5 -->
<g id="edge5" class="edge">
<title>Node3&#45;&gt;Node5</title>
<path fill="none" stroke="midnightblue" d="M91.52,-129.63C142.67,-102.84 235.2,-54.37 280.73,-30.52"/>
<polygon fill="midnightblue" stroke="midnightblue" points="89.7,-126.63 82.47,-134.37 92.95,-132.83 89.7,-126.63"/>
</g>
<!-- Node4&#45;&gt;Node5 -->
<g id="edge4" class="edge">
<title>Node4&#45;&gt;Node5</title>
<path fill="none" stroke="midnightblue" d="M307.5,-57.11C307.5,-48.15 307.5,-38.32 307.5,-30.58"/>
<polygon fill="midnightblue" stroke="midnightblue" points="304,-57.4 307.5,-67.4 311,-57.4 304,-57.4"/>
</g>
<!-- Node6&#45;&gt;Node4 -->
<g id="edge7" class="edge">
<title>Node6&#45;&gt;Node4</title>
<path fill="none" stroke="midnightblue" d="M139.16,-191.23C140.2,-173.33 144.45,-149.49 158.5,-134 182.26,-107.8 220.11,-95.18 251.71,-89.11"/>
<polygon fill="midnightblue" stroke="midnightblue" points="135.66,-191.13 138.87,-201.23 142.66,-191.33 135.66,-191.13"/>
</g>
<!-- Node8 -->
<g id="node8" class="node">
<title>Node8</title>
<g id="a_node8"><a xlink:href="_framebuffer_8hpp.html" target="_top" xlink:title=" ">
<polygon fill="none" stroke="black" points="336,-134.5 336,-164.5 447,-164.5 447,-134.5 336,-134.5"/>
<text text-anchor="start" x="344" y="-152.5" font-family="Helvetica,sans-Serif" font-size="10.00">include/york/Graphics</text>
<text text-anchor="middle" x="391.5" y="-141.5" font-family="Helvetica,sans-Serif" font-size="10.00">/Framebuffer.hpp</text>
</a>
</g>
</g>
<!-- Node7&#45;&gt;Node8 -->
<g id="edge9" class="edge">
<title>Node7&#45;&gt;Node8</title>
<path fill="none" stroke="midnightblue" d="M295.89,-325.98C289.33,-309.65 283.37,-287.43 288.5,-268 297.23,-234.9 304.1,-226.89 326.5,-201 338.84,-186.73 355.74,-173.75 369.21,-164.52"/>
<polygon fill="midnightblue" stroke="midnightblue" points="292.76,-327.54 299.96,-335.3 299.17,-324.74 292.76,-327.54"/>
</g>
<!-- Node7&#45;&gt;Node9 -->
<g id="edge12" class="edge">
<title>Node7&#45;&gt;Node9</title>
<path fill="none" stroke="midnightblue" d="M323.31,-327.16C330.02,-317.68 337.63,-306.92 343.54,-298.58"/>
<polygon fill="midnightblue" stroke="midnightblue" points="320.4,-325.21 317.48,-335.4 326.12,-329.26 320.4,-325.21"/>
</g>
<!-- Node8&#45;&gt;Node4 -->
<g id="edge10" class="edge">
<title>Node8&#45;&gt;Node4</title>
<path fill="none" stroke="midnightblue" d="M365.22,-128.17C352.38,-118.23 337.24,-106.51 325.69,-97.58"/>
<polygon fill="midnightblue" stroke="midnightblue" points="363.22,-131.04 373.27,-134.4 367.51,-125.51 363.22,-131.04"/>
</g>
<!-- Node8&#45;&gt;Node5 -->
<g id="edge11" class="edge">
<title>Node8&#45;&gt;Node5</title>
<path fill="none" stroke="midnightblue" d="M389.71,-124.13C387.5,-107.01 382.56,-84.19 371.5,-67 361.77,-51.88 345.95,-39.34 332.47,-30.53"/>
<polygon fill="midnightblue" stroke="midnightblue" points="386.27,-124.87 390.81,-134.44 393.23,-124.13 386.27,-124.87"/>
</g>
<!-- Node9&#45;&gt;Node4 -->
<g id="edge13" class="edge">
<title>Node9&#45;&gt;Node4</title>
<path fill="none" stroke="midnightblue" d="M338.84,-259.35C334.19,-251.02 329.49,-241.36 326.5,-232 311.32,-184.46 308.22,-124.7 307.62,-97.79"/>
<polygon fill="midnightblue" stroke="midnightblue" points="335.9,-261.25 343.98,-268.1 341.94,-257.71 335.9,-261.25"/>
</g>
<!-- Node10 -->
<g id="node10" class="node">
<title>Node10</title>
<g id="a_node10"><a xlink:href="_pipeline_8hpp.html" target="_top" xlink:title=" ">
<polygon fill="none" stroke="black" points="465,-134.5 465,-164.5 576,-164.5 576,-134.5 465,-134.5"/>
<text text-anchor="start" x="473" y="-152.5" font-family="Helvetica,sans-Serif" font-size="10.00">include/york/Graphics</text>
<text text-anchor="middle" x="520.5" y="-141.5" font-family="Helvetica,sans-Serif" font-size="10.00">/Pipeline.hpp</text>
</a>
</g>
</g>
<!-- Node9&#45;&gt;Node10 -->
<g id="edge14" class="edge">
<title>Node9&#45;&gt;Node10</title>
<path fill="none" stroke="midnightblue" d="M401.46,-264.39C419.77,-256.14 440.15,-245.23 456.5,-232 480.55,-212.53 501.17,-182.43 512.12,-164.78"/>
<polygon fill="midnightblue" stroke="midnightblue" points="399.88,-261.26 392.1,-268.46 402.67,-267.68 399.88,-261.26"/>
</g>
<!-- Node11 -->
<g id="node11" class="node">
<title>Node11</title>
<g id="a_node11"><a xlink:href="_render_pass_8hpp.html" target="_top" xlink:title=" ">
<polygon fill="none" stroke="black" points="336,-201.5 336,-231.5 447,-231.5 447,-201.5 336,-201.5"/>
<text text-anchor="start" x="344" y="-219.5" font-family="Helvetica,sans-Serif" font-size="10.00">include/york/Graphics</text>
<text text-anchor="middle" x="391.5" y="-208.5" font-family="Helvetica,sans-Serif" font-size="10.00">/RenderPass.hpp</text>
</a>
</g>
</g>
<!-- Node9&#45;&gt;Node11 -->
<g id="edge16" class="edge">
<title>Node9&#45;&gt;Node11</title>
<path fill="none" stroke="midnightblue" d="M366.9,-259.58C372.36,-250.24 378.49,-239.75 383.27,-231.58"/>
<polygon fill="midnightblue" stroke="midnightblue" points="363.77,-258 361.75,-268.4 369.81,-261.53 363.77,-258"/>
</g>
<!-- Node10&#45;&gt;Node5 -->
<g id="edge15" class="edge">
<title>Node10&#45;&gt;Node5</title>
<path fill="none" stroke="midnightblue" d="M490.29,-128.9C464.46,-112.22 426.22,-87.75 392.5,-67 372.18,-54.5 348.87,-40.68 331.8,-30.67"/>
<polygon fill="midnightblue" stroke="midnightblue" points="488.59,-131.96 498.89,-134.45 492.39,-126.08 488.59,-131.96"/>
</g>
<!-- Node11&#45;&gt;Node8 -->
<g id="edge17" class="edge">
<title>Node11&#45;&gt;Node8</title>
<path fill="none" stroke="midnightblue" d="M391.5,-191.11C391.5,-182.15 391.5,-172.32 391.5,-164.58"/>
<polygon fill="midnightblue" stroke="midnightblue" points="388,-191.4 391.5,-201.4 395,-191.4 388,-191.4"/>
</g>
<!-- Node11&#45;&gt;Node10 -->
<g id="edge18" class="edge">
<title>Node11&#45;&gt;Node10</title>
<path fill="none" stroke="midnightblue" d="M428.51,-196.85C448.9,-186.58 473.81,-174.03 492.56,-164.58"/>
<polygon fill="midnightblue" stroke="midnightblue" points="426.85,-193.77 419.49,-201.4 430,-200.02 426.85,-193.77"/>
</g>
<!-- Node12&#45;&gt;Node10 -->
<g id="edge20" class="edge">
<title>Node12&#45;&gt;Node10</title>
<path fill="none" stroke="midnightblue" d="M489.34,-258.75C497.24,-231.29 510,-186.99 516.46,-164.52"/>
<polygon fill="midnightblue" stroke="midnightblue" points="485.97,-257.8 486.57,-268.37 492.7,-259.73 485.97,-257.8"/>
</g>
<!-- Node13&#45;&gt;Node4 -->
<g id="edge22" class="edge">
<title>Node13&#45;&gt;Node4</title>
<path fill="none" stroke="midnightblue" d="M249.78,-128.17C262.62,-118.23 277.76,-106.51 289.31,-97.58"/>
<polygon fill="midnightblue" stroke="midnightblue" points="247.49,-125.51 241.73,-134.4 251.78,-131.04 247.49,-125.51"/>
</g>
<!-- Node13&#45;&gt;Node5 -->
<g id="edge23" class="edge">
<title>Node13&#45;&gt;Node5</title>
<path fill="none" stroke="midnightblue" d="M224.9,-124.11C226.86,-106.99 231.51,-84.16 242.5,-67 252.21,-51.84 268.11,-39.37 281.75,-30.61"/>
<polygon fill="midnightblue" stroke="midnightblue" points="221.38,-124.16 223.96,-134.43 228.35,-124.79 221.38,-124.16"/>
</g>
<!-- Node14&#45;&gt;Node10 -->
<g id="edge25" class="edge">
<title>Node14&#45;&gt;Node10</title>
<path fill="none" stroke="midnightblue" d="M552.05,-325.03C551.49,-308.79 550.25,-287.04 547.5,-268 542.05,-230.3 530.7,-186.82 524.6,-164.83"/>
<polygon fill="midnightblue" stroke="midnightblue" points="548.56,-325.4 552.34,-335.29 555.55,-325.2 548.56,-325.4"/>
</g>
<!-- Node15&#45;&gt;Node2 -->
<g id="edge28" class="edge">
<title>Node15&#45;&gt;Node2</title>
<path fill="none" stroke="midnightblue" d="M343.62,-530.8C354.65,-522.81 365.45,-512.48 371.5,-500 377.51,-487.6 377.51,-481.4 371.5,-469 363.91,-453.33 348.84,-441.06 335.22,-432.54"/>
<polygon fill="midnightblue" stroke="midnightblue" points="341.57,-527.97 335.22,-536.46 345.48,-533.78 341.57,-527.97"/>
</g>
<!-- Node16 -->
<g id="node16" class="node">
<title>Node16</title>
<g id="a_node16"><a xlink:href="_physical_device_8hpp.html" target="_top" xlink:title=" ">
<polygon fill="none" stroke="black" points="252,-469.5 252,-499.5 363,-499.5 363,-469.5 252,-469.5"/>
<text text-anchor="start" x="260" y="-487.5" font-family="Helvetica,sans-Serif" font-size="10.00">include/york/Graphics</text>
<text text-anchor="middle" x="307.5" y="-476.5" font-family="Helvetica,sans-Serif" font-size="10.00">/PhysicalDevice.hpp</text>
</a>
</g>
</g>
<!-- Node15&#45;&gt;Node16 -->
<g id="edge29" class="edge">
<title>Node15&#45;&gt;Node16</title>
<path fill="none" stroke="midnightblue" d="M307.5,-526.11C307.5,-517.15 307.5,-507.32 307.5,-499.58"/>
<polygon fill="midnightblue" stroke="midnightblue" points="304,-526.4 307.5,-536.4 311,-526.4 304,-526.4"/>
</g>
<!-- Node16&#45;&gt;Node2 -->
<g id="edge30" class="edge">
<title>Node16&#45;&gt;Node2</title>
<path fill="none" stroke="midnightblue" d="M307.5,-459.11C307.5,-450.15 307.5,-440.32 307.5,-432.58"/>
<polygon fill="midnightblue" stroke="midnightblue" points="304,-459.4 307.5,-469.4 311,-459.4 304,-459.4"/>
</g>
</g>
</svg>
