<?xml version="1.0" encoding="UTF-8" standalone="no"?>
<!DOCTYPE svg PUBLIC "-//W3C//DTD SVG 1.1//EN"
 "http://www.w3.org/Graphics/SVG/1.1/DTD/svg11.dtd">
<!-- Generated by graphviz version 3.0.0 (20220413.0106)
 -->
<!-- Title: include/york/Layer.hpp Pages: 1 -->
<svg width="446pt" height="252pt"
 viewBox="0.00 0.00 445.65 252.00" xmlns="http://www.w3.org/2000/svg" xmlns:xlink="http://www.w3.org/1999/xlink">
<g id="graph0" class="graph" transform="scale(1 1) rotate(0) translate(4 248)">
<title>include/york/Layer.hpp</title>
<!-- Node1 -->
<g id="node1" class="node">
<title>Node1</title>
<g id="a_node1"><a xlink:title=" ">
<polygon fill="#bfbfbf" stroke="black" points="168.15,-224.5 168.15,-243.5 281.15,-243.5 281.15,-224.5 168.15,-224.5"/>
<text text-anchor="middle" x="224.65" y="-231.5" font-family="Helvetica,sans-Serif" font-size="10.00">include/york/Layer.hpp</text>
</a>
</g>
</g>
<!-- Node2 -->
<g id="node2" class="node">
<title>Node2</title>
<g id="a_node2"><a xlink:href="_event_8hpp.html" target="_top" xlink:title=" ">
<polygon fill="none" stroke="black" points="166.15,-168.5 166.15,-187.5 225.15,-187.5 225.15,-168.5 166.15,-168.5"/>
<text text-anchor="middle" x="195.65" y="-175.5" font-family="Helvetica,sans-Serif" font-size="10.00">Event.hpp</text>
</a>
</g>
</g>
<!-- Node1&#45;&gt;Node2 -->
<g id="edge1" class="edge">
<title>Node1&#45;&gt;Node2</title>
<path fill="none" stroke="midnightblue" d="M219.86,-224.08C215.89,-216.69 210.13,-205.95 205.22,-196.81"/>
<polygon fill="midnightblue" stroke="midnightblue" points="208.17,-194.91 200.35,-187.75 202,-198.22 208.17,-194.91"/>
</g>
<!-- Node6 -->
<g id="node6" class="node">
<title>Node6</title>
<g id="a_node6"><a xlink:href="_identifiable_8hpp.html" target="_top" xlink:title=" ">
<polygon fill="none" stroke="black" points="296.15,-112.5 296.15,-131.5 377.15,-131.5 377.15,-112.5 296.15,-112.5"/>
<text text-anchor="middle" x="336.65" y="-119.5" font-family="Helvetica,sans-Serif" font-size="10.00">Identifiable.hpp</text>
</a>
</g>
</g>
<!-- Node1&#45;&gt;Node6 -->
<g id="edge13" class="edge">
<title>Node1&#45;&gt;Node6</title>
<path fill="none" stroke="midnightblue" d="M233.44,-224.37C252.25,-205.89 296.64,-162.29 320.62,-138.74"/>
<polygon fill="midnightblue" stroke="midnightblue" points="323.22,-141.1 327.9,-131.59 318.32,-136.1 323.22,-141.1"/>
</g>
<!-- Node3 -->
<g id="node3" class="node">
<title>Node3</title>
<g id="a_node3"><a xlink:title=" ">
<polygon fill="none" stroke="#bfbfbf" points="40.15,-56.5 40.15,-75.5 99.15,-75.5 99.15,-56.5 40.15,-56.5"/>
<text text-anchor="middle" x="69.65" y="-63.5" font-family="Helvetica,sans-Serif" font-size="10.00">functional</text>
</a>
</g>
</g>
<!-- Node2&#45;&gt;Node3 -->
<g id="edge2" class="edge">
<title>Node2&#45;&gt;Node3</title>
<path fill="none" stroke="midnightblue" d="M165.81,-174.4C117.23,-169.47 24.42,-156.97 4.65,-132 -10.74,-112.56 16.5,-92.77 40.28,-80.22"/>
<polygon fill="midnightblue" stroke="midnightblue" points="42.09,-83.23 49.47,-75.62 38.96,-76.97 42.09,-83.23"/>
</g>
<!-- Node4 -->
<g id="node4" class="node">
<title>Node4</title>
<g id="a_node4"><a xlink:title=" ">
<polygon fill="none" stroke="#bfbfbf" points="13.65,-112.5 13.65,-131.5 91.65,-131.5 91.65,-112.5 13.65,-112.5"/>
<text text-anchor="middle" x="52.65" y="-119.5" font-family="Helvetica,sans-Serif" font-size="10.00">SDL_events.h</text>
</a>
</g>
</g>
<!-- Node2&#45;&gt;Node4 -->
<g id="edge3" class="edge">
<title>Node2&#45;&gt;Node4</title>
<path fill="none" stroke="midnightblue" d="M172.99,-168.44C149.25,-159.48 111.74,-145.31 84.91,-135.18"/>
<polygon fill="midnightblue" stroke="midnightblue" points="85.8,-131.77 75.2,-131.52 83.32,-138.32 85.8,-131.77"/>
</g>
<!-- Node5 -->
<g id="node5" class="node">
<title>Node5</title>
<g id="a_node5"><a xlink:href="_key_codes_8hpp.html" target="_top" xlink:title=" ">
<polygon fill="none" stroke="black" points="110.15,-112.5 110.15,-131.5 189.15,-131.5 189.15,-112.5 110.15,-112.5"/>
<text text-anchor="middle" x="149.65" y="-119.5" font-family="Helvetica,sans-Serif" font-size="10.00">KeyCodes.hpp</text>
</a>
</g>
</g>
<!-- Node2&#45;&gt;Node5 -->
<g id="edge4" class="edge">
<title>Node2&#45;&gt;Node5</title>
<path fill="none" stroke="midnightblue" d="M188.06,-168.08C181.42,-160.3 171.63,-148.8 163.59,-139.37"/>
<polygon fill="midnightblue" stroke="midnightblue" points="166.26,-137.09 157.11,-131.75 160.93,-141.63 166.26,-137.09"/>
</g>
<!-- Node2&#45;&gt;Node6 -->
<g id="edge5" class="edge">
<title>Node2&#45;&gt;Node6</title>
<path fill="none" stroke="midnightblue" d="M217.99,-168.44C241.4,-159.48 278.39,-145.31 304.84,-135.18"/>
<polygon fill="midnightblue" stroke="midnightblue" points="306.33,-138.36 314.41,-131.52 303.82,-131.82 306.33,-138.36"/>
</g>
<!-- Node8 -->
<g id="node8" class="node">
<title>Node8</title>
<g id="a_node8"><a xlink:href="_registry_8hpp.html" target="_top" xlink:title=" ">
<polygon fill="none" stroke="black" points="207.65,-112.5 207.65,-131.5 277.65,-131.5 277.65,-112.5 207.65,-112.5"/>
<text text-anchor="middle" x="242.65" y="-119.5" font-family="Helvetica,sans-Serif" font-size="10.00">Registry.hpp</text>
</a>
</g>
</g>
<!-- Node2&#45;&gt;Node8 -->
<g id="edge7" class="edge">
<title>Node2&#45;&gt;Node8</title>
<path fill="none" stroke="midnightblue" d="M203.41,-168.08C210.19,-160.3 220.19,-148.8 228.41,-139.37"/>
<polygon fill="midnightblue" stroke="midnightblue" points="231.11,-141.59 235.04,-131.75 225.83,-137 231.11,-141.59"/>
</g>
<!-- Node7 -->
<g id="node7" class="node">
<title>Node7</title>
<g id="a_node7"><a xlink:title=" ">
<polygon fill="none" stroke="#bfbfbf" points="293.15,-56.5 293.15,-75.5 394.15,-75.5 394.15,-56.5 293.15,-56.5"/>
<text text-anchor="middle" x="343.65" y="-63.5" font-family="Helvetica,sans-Serif" font-size="10.00">boost/uuid/uuid.hpp</text>
</a>
</g>
</g>
<!-- Node6&#45;&gt;Node7 -->
<g id="edge6" class="edge">
<title>Node6&#45;&gt;Node7</title>
<path fill="none" stroke="midnightblue" d="M337.81,-112.08C338.74,-104.93 340.07,-94.64 341.23,-85.69"/>
<polygon fill="midnightblue" stroke="midnightblue" points="344.7,-86.12 342.52,-75.75 337.76,-85.22 344.7,-86.12"/>
</g>
<!-- Node8&#45;&gt;Node3 -->
<g id="edge8" class="edge">
<title>Node8&#45;&gt;Node3</title>
<path fill="none" stroke="midnightblue" d="M215.24,-112.44C185.88,-103.28 139.13,-88.69 106.56,-78.52"/>
<polygon fill="midnightblue" stroke="midnightblue" points="107.52,-75.16 96.94,-75.52 105.44,-81.84 107.52,-75.16"/>
</g>
<!-- Node9 -->
<g id="node9" class="node">
<title>Node9</title>
<g id="a_node9"><a xlink:href="_containers_8hpp.html" target="_top" xlink:title=" ">
<polygon fill="none" stroke="black" points="194.15,-56.5 194.15,-75.5 275.15,-75.5 275.15,-56.5 194.15,-56.5"/>
<text text-anchor="middle" x="234.65" y="-63.5" font-family="Helvetica,sans-Serif" font-size="10.00">Containers.hpp</text>
</a>
</g>
</g>
<!-- Node8&#45;&gt;Node9 -->
<g id="edge9" class="edge">
<title>Node8&#45;&gt;Node9</title>
<path fill="none" stroke="midnightblue" d="M241.33,-112.08C240.27,-104.93 238.75,-94.64 237.42,-85.69"/>
<polygon fill="midnightblue" stroke="midnightblue" points="240.88,-85.13 235.95,-75.75 233.95,-86.16 240.88,-85.13"/>
</g>
<!-- Node10 -->
<g id="node10" class="node">
<title>Node10</title>
<g id="a_node10"><a xlink:title=" ">
<polygon fill="none" stroke="#bfbfbf" points="109.65,-0.5 109.65,-19.5 153.65,-19.5 153.65,-0.5 109.65,-0.5"/>
<text text-anchor="middle" x="131.65" y="-7.5" font-family="Helvetica,sans-Serif" font-size="10.00">vector</text>
</a>
</g>
</g>
<!-- Node9&#45;&gt;Node10 -->
<g id="edge10" class="edge">
<title>Node9&#45;&gt;Node10</title>
<path fill="none" stroke="midnightblue" d="M218.1,-56.32C201.66,-47.7 176.22,-34.36 157.18,-24.39"/>
<polygon fill="midnightblue" stroke="midnightblue" points="158.64,-21.2 148.16,-19.65 155.39,-27.4 158.64,-21.2"/>
</g>
<!-- Node11 -->
<g id="node11" class="node">
<title>Node11</title>
<g id="a_node11"><a xlink:title=" ">
<polygon fill="none" stroke="#bfbfbf" points="171.65,-0.5 171.65,-19.5 297.65,-19.5 297.65,-0.5 171.65,-0.5"/>
<text text-anchor="middle" x="234.65" y="-7.5" font-family="Helvetica,sans-Serif" font-size="10.00">boost/pool/pool_alloc.hpp</text>
</a>
</g>
</g>
<!-- Node9&#45;&gt;Node11 -->
<g id="edge11" class="edge">
<title>Node9&#45;&gt;Node11</title>
<path fill="none" stroke="midnightblue" d="M234.65,-56.08C234.65,-49.01 234.65,-38.86 234.65,-29.99"/>
<polygon fill="midnightblue" stroke="midnightblue" points="238.15,-29.75 234.65,-19.75 231.15,-29.75 238.15,-29.75"/>
</g>
<!-- Node12 -->
<g id="node12" class="node">
<title>Node12</title>
<g id="a_node12"><a xlink:title=" ">
<polygon fill="none" stroke="#bfbfbf" points="315.65,-0.5 315.65,-19.5 437.65,-19.5 437.65,-0.5 315.65,-0.5"/>
<text text-anchor="middle" x="376.65" y="-7.5" font-family="Helvetica,sans-Serif" font-size="10.00">boost/circular_buffer.hpp</text>
</a>
</g>
</g>
<!-- Node9&#45;&gt;Node12 -->
<g id="edge12" class="edge">
<title>Node9&#45;&gt;Node12</title>
<path fill="none" stroke="midnightblue" d="M257.15,-56.44C280.73,-47.48 317.97,-33.31 344.62,-23.18"/>
<polygon fill="midnightblue" stroke="midnightblue" points="346.15,-26.34 354.26,-19.52 343.67,-19.8 346.15,-26.34"/>
</g>
</g>
</svg>
