<?xml version="1.0" encoding="UTF-8" standalone="no"?>
<!DOCTYPE svg PUBLIC "-//W3C//DTD SVG 1.1//EN"
 "http://www.w3.org/Graphics/SVG/1.1/DTD/svg11.dtd">
<!-- Generated by graphviz version 2.50.0 (20211204.2007)
 -->
<!-- Title: include/york/Layer.hpp Pages: 1 -->
<svg width="439pt" height="196pt"
 viewBox="0.00 0.00 439.16 196.00" xmlns="http://www.w3.org/2000/svg" xmlns:xlink="http://www.w3.org/1999/xlink">
<g id="graph0" class="graph" transform="scale(1 1) rotate(0) translate(4 192)">
<title>include/york/Layer.hpp</title>
<!-- Node1 -->
<g id="node1" class="node">
<title>Node1</title>
<g id="a_node1"><a xlink:title=" ">
<polygon fill="#bfbfbf" stroke="black" points="218.66,-168.5 218.66,-187.5 332.66,-187.5 332.66,-168.5 218.66,-168.5"/>
<text text-anchor="middle" x="275.66" y="-175.5" font-family="Helvetica,sans-Serif" font-size="10.00">include/york/Layer.hpp</text>
</a>
</g>
</g>
<!-- Node2 -->
<g id="node2" class="node">
<title>Node2</title>
<g id="a_node2"><a xlink:href="_event_8hpp.html" target="_top" xlink:title=" ">
<polygon fill="none" stroke="black" points="216.16,-112.5 216.16,-131.5 277.16,-131.5 277.16,-112.5 216.16,-112.5"/>
<text text-anchor="middle" x="246.66" y="-119.5" font-family="Helvetica,sans-Serif" font-size="10.00">Event.hpp</text>
</a>
</g>
</g>
<!-- Node1&#45;&gt;Node2 -->
<g id="edge1" class="edge">
<title>Node1&#45;&gt;Node2</title>
<path fill="none" stroke="midnightblue" d="M270.87,-168.08C266.9,-160.69 261.13,-149.95 256.22,-140.81"/>
<polygon fill="midnightblue" stroke="midnightblue" points="259.17,-138.91 251.36,-131.75 253,-142.22 259.17,-138.91"/>
</g>
<!-- Node7 -->
<g id="node7" class="node">
<title>Node7</title>
<g id="a_node7"><a xlink:href="_identifiable_8hpp.html" target="_top" xlink:title=" ">
<polygon fill="none" stroke="black" points="339.16,-56.5 339.16,-75.5 422.16,-75.5 422.16,-56.5 339.16,-56.5"/>
<text text-anchor="middle" x="380.66" y="-63.5" font-family="Helvetica,sans-Serif" font-size="10.00">Identifiable.hpp</text>
</a>
</g>
</g>
<!-- Node1&#45;&gt;Node7 -->
<g id="edge11" class="edge">
<title>Node1&#45;&gt;Node7</title>
<path fill="none" stroke="midnightblue" d="M283.9,-168.37C301.45,-149.97 342.79,-106.67 365.34,-83.05"/>
<polygon fill="midnightblue" stroke="midnightblue" points="368.08,-85.24 372.46,-75.59 363.02,-80.41 368.08,-85.24"/>
</g>
<!-- Node3 -->
<g id="node3" class="node">
<title>Node3</title>
<g id="a_node3"><a xlink:title=" ">
<polygon fill="none" stroke="#bfbfbf" points="245.66,-0.5 245.66,-19.5 289.66,-19.5 289.66,-0.5 245.66,-0.5"/>
<text text-anchor="middle" x="267.66" y="-7.5" font-family="Helvetica,sans-Serif" font-size="10.00">vector</text>
</a>
</g>
</g>
<!-- Node2&#45;&gt;Node3 -->
<g id="edge2" class="edge">
<title>Node2&#45;&gt;Node3</title>
<path fill="none" stroke="midnightblue" d="M259.44,-112.37C270.05,-104.36 284.39,-91.38 290.66,-76 297.2,-59.94 288.98,-41.25 280.6,-28.04"/>
<polygon fill="midnightblue" stroke="midnightblue" points="283.26,-25.73 274.69,-19.51 277.51,-29.72 283.26,-25.73"/>
</g>
<!-- Node4 -->
<g id="node4" class="node">
<title>Node4</title>
<g id="a_node4"><a xlink:title=" ">
<polygon fill="none" stroke="#bfbfbf" points="73.16,-0.5 73.16,-19.5 132.16,-19.5 132.16,-0.5 73.16,-0.5"/>
<text text-anchor="middle" x="102.66" y="-7.5" font-family="Helvetica,sans-Serif" font-size="10.00">functional</text>
</a>
</g>
</g>
<!-- Node2&#45;&gt;Node4 -->
<g id="edge3" class="edge">
<title>Node2&#45;&gt;Node4</title>
<path fill="none" stroke="midnightblue" d="M215.74,-119.95C156.84,-117.23 32.04,-107.76 5.66,-76 -15.06,-51.06 27.98,-31.91 63.2,-21.05"/>
<polygon fill="midnightblue" stroke="midnightblue" points="64.25,-24.39 72.86,-18.21 62.28,-17.67 64.25,-24.39"/>
</g>
<!-- Node5 -->
<g id="node5" class="node">
<title>Node5</title>
<g id="a_node5"><a xlink:title=" ">
<polygon fill="none" stroke="#bfbfbf" points="15.16,-56.5 15.16,-75.5 94.16,-75.5 94.16,-56.5 15.16,-56.5"/>
<text text-anchor="middle" x="54.66" y="-63.5" font-family="Helvetica,sans-Serif" font-size="10.00">SDL_events.h</text>
</a>
</g>
</g>
<!-- Node2&#45;&gt;Node5 -->
<g id="edge4" class="edge">
<title>Node2&#45;&gt;Node5</title>
<path fill="none" stroke="midnightblue" d="M216.23,-112.44C183.37,-103.2 130.87,-88.44 94.68,-78.26"/>
<polygon fill="midnightblue" stroke="midnightblue" points="95.51,-74.85 84.94,-75.52 93.62,-81.59 95.51,-74.85"/>
</g>
<!-- Node6 -->
<g id="node6" class="node">
<title>Node6</title>
<g id="a_node6"><a xlink:href="_key_codes_8hpp.html" target="_top" xlink:title=" ">
<polygon fill="none" stroke="black" points="112.16,-56.5 112.16,-75.5 193.16,-75.5 193.16,-56.5 112.16,-56.5"/>
<text text-anchor="middle" x="152.66" y="-63.5" font-family="Helvetica,sans-Serif" font-size="10.00">KeyCodes.hpp</text>
</a>
</g>
</g>
<!-- Node2&#45;&gt;Node6 -->
<g id="edge5" class="edge">
<title>Node2&#45;&gt;Node6</title>
<path fill="none" stroke="midnightblue" d="M231.55,-112.32C216.75,-103.82 193.96,-90.73 176.68,-80.8"/>
<polygon fill="midnightblue" stroke="midnightblue" points="178.14,-77.6 167.72,-75.65 174.65,-83.67 178.14,-77.6"/>
</g>
<!-- Node2&#45;&gt;Node7 -->
<g id="edge6" class="edge">
<title>Node2&#45;&gt;Node7</title>
<path fill="none" stroke="midnightblue" d="M267.89,-112.44C290.04,-103.52 324.98,-89.44 350.09,-79.32"/>
<polygon fill="midnightblue" stroke="midnightblue" points="351.56,-82.5 359.52,-75.52 348.94,-76.01 351.56,-82.5"/>
</g>
<!-- Node9 -->
<g id="node9" class="node">
<title>Node9</title>
<g id="a_node9"><a xlink:href="_registry_8hpp.html" target="_top" xlink:title=" ">
<polygon fill="none" stroke="black" points="211.16,-56.5 211.16,-75.5 282.16,-75.5 282.16,-56.5 211.16,-56.5"/>
<text text-anchor="middle" x="246.66" y="-63.5" font-family="Helvetica,sans-Serif" font-size="10.00">Registry.hpp</text>
</a>
</g>
</g>
<!-- Node2&#45;&gt;Node9 -->
<g id="edge8" class="edge">
<title>Node2&#45;&gt;Node9</title>
<path fill="none" stroke="midnightblue" d="M246.66,-112.08C246.66,-105.01 246.66,-94.86 246.66,-85.99"/>
<polygon fill="midnightblue" stroke="midnightblue" points="250.16,-85.75 246.66,-75.75 243.16,-85.75 250.16,-85.75"/>
</g>
<!-- Node8 -->
<g id="node8" class="node">
<title>Node8</title>
<g id="a_node8"><a xlink:title=" ">
<polygon fill="none" stroke="#bfbfbf" points="330.16,-0.5 330.16,-19.5 431.16,-19.5 431.16,-0.5 330.16,-0.5"/>
<text text-anchor="middle" x="380.66" y="-7.5" font-family="Helvetica,sans-Serif" font-size="10.00">boost/uuid/uuid.hpp</text>
</a>
</g>
</g>
<!-- Node7&#45;&gt;Node8 -->
<g id="edge7" class="edge">
<title>Node7&#45;&gt;Node8</title>
<path fill="none" stroke="midnightblue" d="M380.66,-56.08C380.66,-49.01 380.66,-38.86 380.66,-29.99"/>
<polygon fill="midnightblue" stroke="midnightblue" points="384.16,-29.75 380.66,-19.75 377.16,-29.75 384.16,-29.75"/>
</g>
<!-- Node9&#45;&gt;Node3 -->
<g id="edge9" class="edge">
<title>Node9&#45;&gt;Node3</title>
<path fill="none" stroke="midnightblue" d="M250.12,-56.08C252.97,-48.77 257.09,-38.18 260.62,-29.1"/>
<polygon fill="midnightblue" stroke="midnightblue" points="263.89,-30.34 264.25,-19.75 257.37,-27.8 263.89,-30.34"/>
</g>
<!-- Node9&#45;&gt;Node4 -->
<g id="edge10" class="edge">
<title>Node9&#45;&gt;Node4</title>
<path fill="none" stroke="midnightblue" d="M223.84,-56.44C199.83,-47.44 161.83,-33.19 134.79,-23.05"/>
<polygon fill="midnightblue" stroke="midnightblue" points="135.96,-19.75 125.37,-19.52 133.5,-26.3 135.96,-19.75"/>
</g>
</g>
</svg>
