<?xml version="1.0" encoding="UTF-8" standalone="no"?>
<!DOCTYPE svg PUBLIC "-//W3C//DTD SVG 1.1//EN"
 "http://www.w3.org/Graphics/SVG/1.1/DTD/svg11.dtd">
<!-- Generated by graphviz version 2.50.0 (20211204.2007)
 -->
<!-- Title: include/york/Graphics/Pipeline.hpp Pages: 1 -->
<svg width="1154pt" height="655pt"
 viewBox="0.00 0.00 1154.00 655.00" xmlns="http://www.w3.org/2000/svg" xmlns:xlink="http://www.w3.org/1999/xlink">
<g id="graph0" class="graph" transform="scale(1 1) rotate(0) translate(4 651)">
<title>include/york/Graphics/Pipeline.hpp</title>
<!-- Node1 -->
<g id="node1" class="node">
<title>Node1</title>
<g id="a_node1"><a xlink:title=" ">
<polygon fill="#bfbfbf" stroke="black" points="255.5,-616.5 255.5,-646.5 366.5,-646.5 366.5,-616.5 255.5,-616.5"/>
<text text-anchor="start" x="263.5" y="-634.5" font-family="Helvetica,sans-Serif" font-size="10.00">include/york/Graphics</text>
<text text-anchor="middle" x="311" y="-623.5" font-family="Helvetica,sans-Serif" font-size="10.00">/Pipeline.hpp</text>
</a>
</g>
</g>
<!-- Node2 -->
<g id="node2" class="node">
<title>Node2</title>
<g id="a_node2"><a xlink:title=" ">
<polygon fill="none" stroke="#bfbfbf" points="331.5,-168.5 331.5,-187.5 426.5,-187.5 426.5,-168.5 331.5,-168.5"/>
<text text-anchor="middle" x="379" y="-175.5" font-family="Helvetica,sans-Serif" font-size="10.00">vulkan/vulkan.hpp</text>
</a>
</g>
</g>
<!-- Node1&#45;&gt;Node2 -->
<g id="edge1" class="edge">
<title>Node1&#45;&gt;Node2</title>
<path fill="none" stroke="midnightblue" d="M311.57,-616.24C313.94,-563.46 324.69,-374.5 362,-224 364.24,-214.98 367.74,-205.3 370.99,-197.24"/>
<polygon fill="midnightblue" stroke="midnightblue" points="374.32,-198.34 374.98,-187.77 367.87,-195.62 374.32,-198.34"/>
</g>
<!-- Node3 -->
<g id="node3" class="node">
<title>Node3</title>
<g id="a_node3"><a xlink:href="_handle_8hpp.html" target="_top" xlink:title="Contains the declarations for the Handle classes which form the basis of our Vulkan implementation.">
<polygon fill="none" stroke="black" points="433,-112.5 433,-131.5 499,-131.5 499,-112.5 433,-112.5"/>
<text text-anchor="middle" x="466" y="-119.5" font-family="Helvetica,sans-Serif" font-size="10.00">Handle.hpp</text>
</a>
</g>
</g>
<!-- Node1&#45;&gt;Node3 -->
<g id="edge2" class="edge">
<title>Node1&#45;&gt;Node3</title>
<path fill="none" stroke="midnightblue" d="M255.41,-628.01C203.67,-623.69 125.76,-611.92 66,-580 29.68,-560.61 0,-556.17 0,-515 0,-515 0,-515 0,-233 0,-190.22 32.07,-185.73 71,-168 132.93,-139.79 333.82,-128.34 422.85,-124.57"/>
<polygon fill="midnightblue" stroke="midnightblue" points="423.03,-128.06 432.88,-124.16 422.75,-121.07 423.03,-128.06"/>
</g>
<!-- Node8 -->
<g id="node8" class="node">
<title>Node8</title>
<g id="a_node8"><a xlink:href="_pipeline_layout_8hpp.html" target="_top" xlink:title=" ">
<polygon fill="none" stroke="black" points="496.5,-448.5 496.5,-467.5 595.5,-467.5 595.5,-448.5 496.5,-448.5"/>
<text text-anchor="middle" x="546" y="-455.5" font-family="Helvetica,sans-Serif" font-size="10.00">PipelineLayout.hpp</text>
</a>
</g>
</g>
<!-- Node1&#45;&gt;Node8 -->
<g id="edge7" class="edge">
<title>Node1&#45;&gt;Node8</title>
<path fill="none" stroke="midnightblue" d="M330.23,-616.47C374.12,-584.43 481.33,-506.19 525.98,-473.61"/>
<polygon fill="midnightblue" stroke="midnightblue" points="528.26,-476.28 534.27,-467.56 524.13,-470.63 528.26,-476.28"/>
</g>
<!-- Node19 -->
<g id="node19" class="node">
<title>Node19</title>
<g id="a_node19"><a xlink:href="_render_pass_8hpp.html" target="_top" xlink:title=" ">
<polygon fill="none" stroke="black" points="75.5,-560.5 75.5,-579.5 164.5,-579.5 164.5,-560.5 75.5,-560.5"/>
<text text-anchor="middle" x="120" y="-567.5" font-family="Helvetica,sans-Serif" font-size="10.00">RenderPass.hpp</text>
</a>
</g>
</g>
<!-- Node1&#45;&gt;Node19 -->
<g id="edge36" class="edge">
<title>Node1&#45;&gt;Node19</title>
<path fill="none" stroke="midnightblue" d="M265.74,-616.4C232.59,-606.07 188.15,-592.23 157.1,-582.56"/>
<polygon fill="midnightblue" stroke="midnightblue" points="158.1,-579.2 147.51,-579.57 156.02,-585.89 158.1,-579.2"/>
</g>
<!-- Node20 -->
<g id="node20" class="node">
<title>Node20</title>
<g id="a_node20"><a xlink:href="_swap_chain_8hpp.html" target="_top" xlink:title=" ">
<polygon fill="none" stroke="black" points="176,-504.5 176,-523.5 262,-523.5 262,-504.5 176,-504.5"/>
<text text-anchor="middle" x="219" y="-511.5" font-family="Helvetica,sans-Serif" font-size="10.00">SwapChain.hpp</text>
</a>
</g>
</g>
<!-- Node1&#45;&gt;Node20 -->
<g id="edge57" class="edge">
<title>Node1&#45;&gt;Node20</title>
<path fill="none" stroke="midnightblue" d="M299.72,-616.34C282.69,-594.96 250.49,-554.53 232.33,-531.73"/>
<polygon fill="midnightblue" stroke="midnightblue" points="234.87,-529.31 225.91,-523.67 229.4,-533.67 234.87,-529.31"/>
</g>
<!-- Node22 -->
<g id="node22" class="node">
<title>Node22</title>
<g id="a_node22"><a xlink:href="_shader_8hpp.html" target="_top" xlink:title=" ">
<polygon fill="none" stroke="black" points="880.5,-448.5 880.5,-467.5 945.5,-467.5 945.5,-448.5 880.5,-448.5"/>
<text text-anchor="middle" x="913" y="-455.5" font-family="Helvetica,sans-Serif" font-size="10.00">Shader.hpp</text>
</a>
</g>
</g>
<!-- Node1&#45;&gt;Node22 -->
<g id="edge47" class="edge">
<title>Node1&#45;&gt;Node22</title>
<path fill="none" stroke="midnightblue" d="M360.26,-616.47C476.7,-583.3 767.04,-500.58 873.26,-470.32"/>
<polygon fill="midnightblue" stroke="midnightblue" points="874.3,-473.67 882.95,-467.56 872.38,-466.93 874.3,-473.67"/>
</g>
<!-- Node4 -->
<g id="node4" class="node">
<title>Node4</title>
<g id="a_node4"><a xlink:title=" ">
<polygon fill="none" stroke="#bfbfbf" points="824,-56.5 824,-75.5 868,-75.5 868,-56.5 824,-56.5"/>
<text text-anchor="middle" x="846" y="-63.5" font-family="Helvetica,sans-Serif" font-size="10.00">vector</text>
</a>
</g>
</g>
<!-- Node3&#45;&gt;Node4 -->
<g id="edge3" class="edge">
<title>Node3&#45;&gt;Node4</title>
<path fill="none" stroke="midnightblue" d="M499.06,-116.3C571.19,-106.05 741.98,-81.78 813.55,-71.61"/>
<polygon fill="midnightblue" stroke="midnightblue" points="814.36,-75.03 823.77,-70.16 813.37,-68.1 814.36,-75.03"/>
</g>
<!-- Node5 -->
<g id="node5" class="node">
<title>Node5</title>
<g id="a_node5"><a xlink:title=" ">
<polygon fill="none" stroke="#bfbfbf" points="486.5,-56.5 486.5,-75.5 545.5,-75.5 545.5,-56.5 486.5,-56.5"/>
<text text-anchor="middle" x="516" y="-63.5" font-family="Helvetica,sans-Serif" font-size="10.00">functional</text>
</a>
</g>
</g>
<!-- Node3&#45;&gt;Node5 -->
<g id="edge4" class="edge">
<title>Node3&#45;&gt;Node5</title>
<path fill="none" stroke="midnightblue" d="M474.26,-112.08C481.46,-104.3 492.11,-92.8 500.85,-83.37"/>
<polygon fill="midnightblue" stroke="midnightblue" points="503.67,-85.47 507.9,-75.75 498.53,-80.71 503.67,-85.47"/>
</g>
<!-- Node6 -->
<g id="node6" class="node">
<title>Node6</title>
<g id="a_node6"><a xlink:href="_identifiable_8hpp.html" target="_top" xlink:title=" ">
<polygon fill="none" stroke="black" points="364,-56.5 364,-75.5 468,-75.5 468,-56.5 364,-56.5"/>
<text text-anchor="middle" x="416" y="-63.5" font-family="Helvetica,sans-Serif" font-size="10.00">york/Identifiable.hpp</text>
</a>
</g>
</g>
<!-- Node3&#45;&gt;Node6 -->
<g id="edge5" class="edge">
<title>Node3&#45;&gt;Node6</title>
<path fill="none" stroke="midnightblue" d="M457.74,-112.08C450.54,-104.3 439.89,-92.8 431.15,-83.37"/>
<polygon fill="midnightblue" stroke="midnightblue" points="433.47,-80.71 424.1,-75.75 428.33,-85.47 433.47,-80.71"/>
</g>
<!-- Node7 -->
<g id="node7" class="node">
<title>Node7</title>
<g id="a_node7"><a xlink:title=" ">
<polygon fill="none" stroke="#bfbfbf" points="365.5,-0.5 365.5,-19.5 466.5,-19.5 466.5,-0.5 365.5,-0.5"/>
<text text-anchor="middle" x="416" y="-7.5" font-family="Helvetica,sans-Serif" font-size="10.00">boost/uuid/uuid.hpp</text>
</a>
</g>
</g>
<!-- Node6&#45;&gt;Node7 -->
<g id="edge6" class="edge">
<title>Node6&#45;&gt;Node7</title>
<path fill="none" stroke="midnightblue" d="M416,-56.08C416,-49.01 416,-38.86 416,-29.99"/>
<polygon fill="midnightblue" stroke="midnightblue" points="419.5,-29.75 416,-19.75 412.5,-29.75 419.5,-29.75"/>
</g>
<!-- Node8&#45;&gt;Node2 -->
<g id="edge8" class="edge">
<title>Node8&#45;&gt;Node2</title>
<path fill="none" stroke="midnightblue" d="M550.84,-448.33C561.62,-427.8 585.25,-375.01 567,-336 557.84,-316.41 444.56,-228.85 398.39,-193.68"/>
<polygon fill="midnightblue" stroke="midnightblue" points="400.43,-190.83 390.35,-187.57 396.19,-196.41 400.43,-190.83"/>
</g>
<!-- Node8&#45;&gt;Node3 -->
<g id="edge35" class="edge">
<title>Node8&#45;&gt;Node3</title>
<path fill="none" stroke="midnightblue" d="M555.76,-448.49C564.49,-440.18 576.7,-426.68 582,-412 593.47,-380.22 591.45,-368.71 583,-336 564.18,-263.19 537.05,-254 501,-188 492.29,-172.05 482.48,-153.82 475.47,-140.73"/>
<polygon fill="midnightblue" stroke="midnightblue" points="478.53,-139.02 470.72,-131.85 472.35,-142.32 478.53,-139.02"/>
</g>
<!-- Node9 -->
<g id="node9" class="node">
<title>Node9</title>
<g id="a_node9"><a xlink:href="_device_8hpp.html" target="_top" xlink:title=" ">
<polygon fill="none" stroke="black" points="473,-392.5 473,-411.5 539,-411.5 539,-392.5 473,-392.5"/>
<text text-anchor="middle" x="506" y="-399.5" font-family="Helvetica,sans-Serif" font-size="10.00">Device.hpp</text>
</a>
</g>
</g>
<!-- Node8&#45;&gt;Node9 -->
<g id="edge9" class="edge">
<title>Node8&#45;&gt;Node9</title>
<path fill="none" stroke="midnightblue" d="M539.39,-448.08C533.74,-440.46 525.46,-429.26 518.55,-419.94"/>
<polygon fill="midnightblue" stroke="midnightblue" points="521.25,-417.7 512.48,-411.75 515.62,-421.87 521.25,-417.7"/>
</g>
<!-- Node9&#45;&gt;Node2 -->
<g id="edge11" class="edge">
<title>Node9&#45;&gt;Node2</title>
<path fill="none" stroke="midnightblue" d="M472.79,-398.21C444.96,-393.95 406.7,-383.18 387,-356 352.3,-308.13 365.2,-232.37 373.78,-197.58"/>
<polygon fill="midnightblue" stroke="midnightblue" points="377.19,-198.38 376.35,-187.81 370.42,-196.59 377.19,-198.38"/>
</g>
<!-- Node9&#45;&gt;Node3 -->
<g id="edge12" class="edge">
<title>Node9&#45;&gt;Node3</title>
<path fill="none" stroke="midnightblue" d="M472.8,-398.23C442.78,-393.98 399.38,-383.22 373,-356 318.7,-299.96 333.46,-265.19 322,-188 320.69,-179.21 316.73,-175.16 322,-168 344.92,-136.83 389.33,-126.65 422.81,-123.61"/>
<polygon fill="midnightblue" stroke="midnightblue" points="423.09,-127.1 432.81,-122.88 422.58,-120.12 423.09,-127.1"/>
</g>
<!-- Node10 -->
<g id="node10" class="node">
<title>Node10</title>
<g id="a_node10"><a xlink:title=" ">
<polygon fill="none" stroke="#bfbfbf" points="396,-336.5 396,-355.5 436,-355.5 436,-336.5 396,-336.5"/>
<text text-anchor="middle" x="416" y="-343.5" font-family="Helvetica,sans-Serif" font-size="10.00">utility</text>
</a>
</g>
</g>
<!-- Node9&#45;&gt;Node10 -->
<g id="edge10" class="edge">
<title>Node9&#45;&gt;Node10</title>
<path fill="none" stroke="midnightblue" d="M491.54,-392.32C477.5,-383.9 455.95,-370.97 439.46,-361.07"/>
<polygon fill="midnightblue" stroke="midnightblue" points="440.8,-357.8 430.42,-355.65 437.2,-363.8 440.8,-357.8"/>
</g>
<!-- Node11 -->
<g id="node11" class="node">
<title>Node11</title>
<g id="a_node11"><a xlink:href="_instance_8hpp.html" target="_top" xlink:title=" ">
<polygon fill="none" stroke="black" points="662.5,-224.5 662.5,-243.5 735.5,-243.5 735.5,-224.5 662.5,-224.5"/>
<text text-anchor="middle" x="699" y="-231.5" font-family="Helvetica,sans-Serif" font-size="10.00">Instance.hpp</text>
</a>
</g>
</g>
<!-- Node9&#45;&gt;Node11 -->
<g id="edge13" class="edge">
<title>Node9&#45;&gt;Node11</title>
<path fill="none" stroke="midnightblue" d="M539.19,-393.87C583.32,-382.45 659.84,-355.46 695,-300 703.61,-286.42 703.89,-267.88 702.44,-254.07"/>
<polygon fill="midnightblue" stroke="midnightblue" points="705.85,-253.19 700.95,-243.8 698.92,-254.2 705.85,-253.19"/>
</g>
<!-- Node13 -->
<g id="node13" class="node">
<title>Node13</title>
<g id="a_node13"><a xlink:href="_requestable_item_8hpp.html" target="_top" xlink:title=" ">
<polygon fill="none" stroke="black" points="756,-168.5 756,-187.5 866,-187.5 866,-168.5 756,-168.5"/>
<text text-anchor="middle" x="811" y="-175.5" font-family="Helvetica,sans-Serif" font-size="10.00">RequestableItem.hpp</text>
</a>
</g>
</g>
<!-- Node9&#45;&gt;Node13 -->
<g id="edge33" class="edge">
<title>Node9&#45;&gt;Node13</title>
<path fill="none" stroke="midnightblue" d="M539.1,-396.06C571.92,-390.13 622.85,-378.1 662,-356 725.82,-319.98 740.7,-303.84 783,-244 793.19,-229.59 800.76,-210.89 805.44,-197.25"/>
<polygon fill="midnightblue" stroke="midnightblue" points="808.82,-198.17 808.57,-187.58 802.16,-196.01 808.82,-198.17"/>
</g>
<!-- Node16 -->
<g id="node16" class="node">
<title>Node16</title>
<g id="a_node16"><a xlink:href="_physical_device_8hpp.html" target="_top" xlink:title=" ">
<polygon fill="none" stroke="black" points="454,-336.5 454,-355.5 558,-355.5 558,-336.5 454,-336.5"/>
<text text-anchor="middle" x="506" y="-343.5" font-family="Helvetica,sans-Serif" font-size="10.00">PhysicalDevice.hpp</text>
</a>
</g>
</g>
<!-- Node9&#45;&gt;Node16 -->
<g id="edge24" class="edge">
<title>Node9&#45;&gt;Node16</title>
<path fill="none" stroke="midnightblue" d="M506,-392.08C506,-385.01 506,-374.86 506,-365.99"/>
<polygon fill="midnightblue" stroke="midnightblue" points="509.5,-365.75 506,-355.75 502.5,-365.75 509.5,-365.75"/>
</g>
<!-- Node18 -->
<g id="node18" class="node">
<title>Node18</title>
<g id="a_node18"><a xlink:href="_surface_8hpp.html" target="_top" xlink:title=" ">
<polygon fill="none" stroke="black" points="616.5,-280.5 616.5,-299.5 685.5,-299.5 685.5,-280.5 616.5,-280.5"/>
<text text-anchor="middle" x="651" y="-287.5" font-family="Helvetica,sans-Serif" font-size="10.00">Surface.hpp</text>
</a>
</g>
</g>
<!-- Node9&#45;&gt;Node18 -->
<g id="edge34" class="edge">
<title>Node9&#45;&gt;Node18</title>
<path fill="none" stroke="midnightblue" d="M517.75,-392.45C530.08,-383.46 549.99,-368.85 567,-356 589.43,-339.06 614.93,-319.24 631.89,-305.99"/>
<polygon fill="midnightblue" stroke="midnightblue" points="634.2,-308.62 639.92,-299.7 629.89,-303.11 634.2,-308.62"/>
</g>
<!-- Node11&#45;&gt;Node2 -->
<g id="edge16" class="edge">
<title>Node11&#45;&gt;Node2</title>
<path fill="none" stroke="midnightblue" d="M662.29,-226.81C607.13,-217.5 502.35,-199.82 436.84,-188.76"/>
<polygon fill="midnightblue" stroke="midnightblue" points="437.12,-185.26 426.68,-187.05 435.96,-192.16 437.12,-185.26"/>
</g>
<!-- Node11&#45;&gt;Node3 -->
<g id="edge17" class="edge">
<title>Node11&#45;&gt;Node3</title>
<path fill="none" stroke="midnightblue" d="M664.18,-224.45C635.85,-216.81 595.26,-204.33 562,-188 533.3,-173.91 503.26,-152.28 484.58,-137.89"/>
<polygon fill="midnightblue" stroke="midnightblue" points="486.65,-135.07 476.62,-131.66 482.34,-140.58 486.65,-135.07"/>
</g>
<!-- Node11&#45;&gt;Node4 -->
<g id="edge15" class="edge">
<title>Node11&#45;&gt;Node4</title>
<path fill="none" stroke="midnightblue" d="M701.19,-224.46C704.77,-211.5 712.74,-186.41 725,-168 750.61,-129.53 795.1,-97.86 822.41,-80.76"/>
<polygon fill="midnightblue" stroke="midnightblue" points="824.25,-83.73 830.96,-75.53 820.6,-77.76 824.25,-83.73"/>
</g>
<!-- Node12 -->
<g id="node12" class="node">
<title>Node12</title>
<g id="a_node12"><a xlink:title=" ">
<polygon fill="none" stroke="#bfbfbf" points="790.5,-112.5 790.5,-131.5 831.5,-131.5 831.5,-112.5 790.5,-112.5"/>
<text text-anchor="middle" x="811" y="-119.5" font-family="Helvetica,sans-Serif" font-size="10.00">string</text>
</a>
</g>
</g>
<!-- Node11&#45;&gt;Node12 -->
<g id="edge14" class="edge">
<title>Node11&#45;&gt;Node12</title>
<path fill="none" stroke="midnightblue" d="M704.14,-224.32C712.18,-211.17 728.74,-185.84 747,-168 759.12,-156.16 774.62,-145.18 787.33,-137.02"/>
<polygon fill="midnightblue" stroke="midnightblue" points="789.37,-139.88 796.01,-131.62 785.67,-133.94 789.37,-139.88"/>
</g>
<!-- Node11&#45;&gt;Node13 -->
<g id="edge18" class="edge">
<title>Node11&#45;&gt;Node13</title>
<path fill="none" stroke="midnightblue" d="M716.99,-224.32C735.04,-215.62 763.05,-202.12 783.8,-192.11"/>
<polygon fill="midnightblue" stroke="midnightblue" points="785.56,-195.15 793.05,-187.65 782.52,-188.84 785.56,-195.15"/>
</g>
<!-- Node14 -->
<g id="node14" class="node">
<title>Node14</title>
<g id="a_node14"><a xlink:href="_window_8hpp.html" target="_top" xlink:title=" ">
<polygon fill="none" stroke="black" points="570.5,-168.5 570.5,-187.5 661.5,-187.5 661.5,-168.5 570.5,-168.5"/>
<text text-anchor="middle" x="616" y="-175.5" font-family="Helvetica,sans-Serif" font-size="10.00">york/Window.hpp</text>
</a>
</g>
</g>
<!-- Node11&#45;&gt;Node14 -->
<g id="edge20" class="edge">
<title>Node11&#45;&gt;Node14</title>
<path fill="none" stroke="midnightblue" d="M685.66,-224.32C672.84,-215.98 653.22,-203.21 638.06,-193.35"/>
<polygon fill="midnightblue" stroke="midnightblue" points="639.59,-190.17 629.3,-187.65 635.78,-196.04 639.59,-190.17"/>
</g>
<!-- Node13&#45;&gt;Node12 -->
<g id="edge19" class="edge">
<title>Node13&#45;&gt;Node12</title>
<path fill="none" stroke="midnightblue" d="M811,-168.08C811,-161.01 811,-150.86 811,-141.99"/>
<polygon fill="midnightblue" stroke="midnightblue" points="814.5,-141.75 811,-131.75 807.5,-141.75 814.5,-141.75"/>
</g>
<!-- Node14&#45;&gt;Node3 -->
<g id="edge23" class="edge">
<title>Node14&#45;&gt;Node3</title>
<path fill="none" stroke="midnightblue" d="M592.23,-168.44C567.11,-159.4 527.29,-145.06 499.1,-134.92"/>
<polygon fill="midnightblue" stroke="midnightblue" points="500.25,-131.61 489.66,-131.52 497.88,-138.2 500.25,-131.61"/>
</g>
<!-- Node14&#45;&gt;Node12 -->
<g id="edge21" class="edge">
<title>Node14&#45;&gt;Node12</title>
<path fill="none" stroke="midnightblue" d="M646.9,-168.44C683.45,-158.32 743.94,-141.57 780.37,-131.48"/>
<polygon fill="midnightblue" stroke="midnightblue" points="781.71,-134.74 790.42,-128.7 779.84,-128 781.71,-134.74"/>
</g>
<!-- Node15 -->
<g id="node15" class="node">
<title>Node15</title>
<g id="a_node15"><a xlink:title=" ">
<polygon fill="none" stroke="#bfbfbf" points="579.5,-112.5 579.5,-131.5 652.5,-131.5 652.5,-112.5 579.5,-112.5"/>
<text text-anchor="middle" x="616" y="-119.5" font-family="Helvetica,sans-Serif" font-size="10.00">SDL_video.h</text>
</a>
</g>
</g>
<!-- Node14&#45;&gt;Node15 -->
<g id="edge22" class="edge">
<title>Node14&#45;&gt;Node15</title>
<path fill="none" stroke="midnightblue" d="M616,-168.08C616,-161.01 616,-150.86 616,-141.99"/>
<polygon fill="midnightblue" stroke="midnightblue" points="619.5,-141.75 616,-131.75 612.5,-141.75 619.5,-141.75"/>
</g>
<!-- Node16&#45;&gt;Node2 -->
<g id="edge26" class="edge">
<title>Node16&#45;&gt;Node2</title>
<path fill="none" stroke="midnightblue" d="M481.01,-336.45C463.24,-329.23 439.95,-317.27 425,-300 398.86,-269.8 386.85,-223.23 381.94,-197.56"/>
<polygon fill="midnightblue" stroke="midnightblue" points="385.38,-196.91 380.21,-187.66 378.49,-198.11 385.38,-196.91"/>
</g>
<!-- Node16&#45;&gt;Node13 -->
<g id="edge32" class="edge">
<title>Node16&#45;&gt;Node13</title>
<path fill="none" stroke="midnightblue" d="M558.26,-340.61C597.94,-335.44 652.71,-324.22 695,-300 741.53,-273.35 781.18,-222.37 799.74,-195.9"/>
<polygon fill="midnightblue" stroke="midnightblue" points="802.64,-197.86 805.41,-187.63 796.87,-193.9 802.64,-197.86"/>
</g>
<!-- Node17 -->
<g id="node17" class="node">
<title>Node17</title>
<g id="a_node17"><a xlink:title=" ">
<polygon fill="none" stroke="#bfbfbf" points="434,-280.5 434,-299.5 484,-299.5 484,-280.5 434,-280.5"/>
<text text-anchor="middle" x="459" y="-287.5" font-family="Helvetica,sans-Serif" font-size="10.00">optional</text>
</a>
</g>
</g>
<!-- Node16&#45;&gt;Node17 -->
<g id="edge25" class="edge">
<title>Node16&#45;&gt;Node17</title>
<path fill="none" stroke="midnightblue" d="M498.24,-336.08C491.46,-328.3 481.46,-316.8 473.24,-307.37"/>
<polygon fill="midnightblue" stroke="midnightblue" points="475.82,-305 466.62,-299.75 470.54,-309.59 475.82,-305"/>
</g>
<!-- Node16&#45;&gt;Node18 -->
<g id="edge27" class="edge">
<title>Node16&#45;&gt;Node18</title>
<path fill="none" stroke="midnightblue" d="M528.98,-336.44C553.16,-327.44 591.42,-313.19 618.65,-303.05"/>
<polygon fill="midnightblue" stroke="midnightblue" points="619.98,-306.29 628.13,-299.52 617.54,-299.73 619.98,-306.29"/>
</g>
<!-- Node18&#45;&gt;Node2 -->
<g id="edge28" class="edge">
<title>Node18&#45;&gt;Node2</title>
<path fill="none" stroke="midnightblue" d="M631.01,-280.39C601.57,-267.76 544.74,-243.59 496,-224 467.55,-212.57 434.98,-200.09 411.44,-191.18"/>
<polygon fill="midnightblue" stroke="midnightblue" points="412.54,-187.85 401.95,-187.59 410.07,-194.4 412.54,-187.85"/>
</g>
<!-- Node18&#45;&gt;Node3 -->
<g id="edge30" class="edge">
<title>Node18&#45;&gt;Node3</title>
<path fill="none" stroke="midnightblue" d="M640.89,-280.44C625.98,-267.86 597.14,-243.75 572,-224 551.03,-207.52 543.64,-206.04 524,-188 507.55,-172.89 490.78,-153.59 479.53,-139.96"/>
<polygon fill="midnightblue" stroke="midnightblue" points="482.02,-137.47 473,-131.92 476.59,-141.88 482.02,-137.47"/>
</g>
<!-- Node18&#45;&gt;Node11 -->
<g id="edge31" class="edge">
<title>Node18&#45;&gt;Node11</title>
<path fill="none" stroke="midnightblue" d="M658.93,-280.08C665.85,-272.3 676.07,-260.8 684.45,-251.37"/>
<polygon fill="midnightblue" stroke="midnightblue" points="687.19,-253.55 691.22,-243.75 681.96,-248.9 687.19,-253.55"/>
</g>
<!-- Node18&#45;&gt;Node14 -->
<g id="edge29" class="edge">
<title>Node18&#45;&gt;Node14</title>
<path fill="none" stroke="midnightblue" d="M648.25,-280.37C642.58,-262.54 629.46,-221.3 621.81,-197.27"/>
<polygon fill="midnightblue" stroke="midnightblue" points="625.1,-196.06 618.73,-187.59 618.43,-198.18 625.1,-196.06"/>
</g>
<!-- Node19&#45;&gt;Node2 -->
<g id="edge37" class="edge">
<title>Node19&#45;&gt;Node2</title>
<path fill="none" stroke="midnightblue" d="M121.02,-560.08C125.09,-524.14 140,-389.76 140,-347 140,-347 140,-347 140,-289 140,-209.44 250.65,-187.22 321.37,-181.15"/>
<polygon fill="midnightblue" stroke="midnightblue" points="321.8,-184.62 331.5,-180.36 321.26,-177.64 321.8,-184.62"/>
</g>
<!-- Node19&#45;&gt;Node3 -->
<g id="edge38" class="edge">
<title>Node19&#45;&gt;Node3</title>
<path fill="none" stroke="midnightblue" d="M107.19,-560.39C84.12,-543.74 38,-504.73 38,-459 38,-459 38,-459 38,-233 38,-154.2 313.55,-131.04 422.46,-124.96"/>
<polygon fill="midnightblue" stroke="midnightblue" points="422.97,-128.44 432.77,-124.41 422.6,-121.45 422.97,-128.44"/>
</g>
<!-- Node19&#45;&gt;Node20 -->
<g id="edge39" class="edge">
<title>Node19&#45;&gt;Node20</title>
<path fill="none" stroke="midnightblue" d="M135.91,-560.32C151.64,-551.74 175.94,-538.49 194.21,-528.52"/>
<polygon fill="midnightblue" stroke="midnightblue" points="196.03,-531.52 203.13,-523.65 192.68,-525.37 196.03,-531.52"/>
</g>
<!-- Node20&#45;&gt;Node2 -->
<g id="edge40" class="edge">
<title>Node20&#45;&gt;Node2</title>
<path fill="none" stroke="midnightblue" d="M223.72,-504.46C233.27,-486.34 254,-442.48 254,-403 254,-403 254,-403 254,-345 254,-284.57 276.52,-269.75 316,-224 326.74,-211.55 341.6,-200.73 354.19,-192.82"/>
<polygon fill="midnightblue" stroke="midnightblue" points="356.11,-195.75 362.86,-187.59 352.49,-189.75 356.11,-195.75"/>
</g>
<!-- Node20&#45;&gt;Node3 -->
<g id="edge42" class="edge">
<title>Node20&#45;&gt;Node3</title>
<path fill="none" stroke="midnightblue" d="M189.4,-504.45C170.61,-497.54 147.23,-485.97 133,-468 98.54,-424.48 102,-402.51 102,-347 102,-347 102,-347 102,-233 102,-166.68 326.24,-136.7 422.71,-126.87"/>
<polygon fill="midnightblue" stroke="midnightblue" points="423.13,-130.35 432.73,-125.88 422.44,-123.38 423.13,-130.35"/>
</g>
<!-- Node20&#45;&gt;Node9 -->
<g id="edge41" class="edge">
<title>Node20&#45;&gt;Node9</title>
<path fill="none" stroke="midnightblue" d="M241.52,-504.37C292.24,-484.93 415.53,-437.67 474.1,-415.23"/>
<polygon fill="midnightblue" stroke="midnightblue" points="475.5,-418.44 483.58,-411.59 472.99,-411.9 475.5,-418.44"/>
</g>
<!-- Node21 -->
<g id="node21" class="node">
<title>Node21</title>
<g id="a_node21"><a xlink:href="_image_view_8hpp.html" target="_top" xlink:title=" ">
<polygon fill="none" stroke="black" points="142.5,-448.5 142.5,-467.5 225.5,-467.5 225.5,-448.5 142.5,-448.5"/>
<text text-anchor="middle" x="184" y="-455.5" font-family="Helvetica,sans-Serif" font-size="10.00">ImageView.hpp</text>
</a>
</g>
</g>
<!-- Node20&#45;&gt;Node21 -->
<g id="edge43" class="edge">
<title>Node20&#45;&gt;Node21</title>
<path fill="none" stroke="midnightblue" d="M213.22,-504.08C208.33,-496.53 201.17,-485.49 195.17,-476.23"/>
<polygon fill="midnightblue" stroke="midnightblue" points="198.05,-474.24 189.67,-467.75 192.17,-478.05 198.05,-474.24"/>
</g>
<!-- Node21&#45;&gt;Node2 -->
<g id="edge46" class="edge">
<title>Node21&#45;&gt;Node2</title>
<path fill="none" stroke="midnightblue" d="M188.32,-448.41C197.05,-430.2 216,-386.18 216,-347 216,-347 216,-347 216,-289 216,-233.75 281.15,-204.39 329.08,-190.27"/>
<polygon fill="midnightblue" stroke="midnightblue" points="330.03,-193.64 338.71,-187.57 328.13,-186.9 330.03,-193.64"/>
</g>
<!-- Node21&#45;&gt;Node3 -->
<g id="edge44" class="edge">
<title>Node21&#45;&gt;Node3</title>
<path fill="none" stroke="midnightblue" d="M183.22,-448.45C181.59,-429.96 178,-384.87 178,-347 178,-347 178,-347 178,-233 178,-181.26 342.24,-144.94 422.66,-130.25"/>
<polygon fill="midnightblue" stroke="midnightblue" points="423.74,-133.61 432.96,-128.4 422.5,-126.72 423.74,-133.61"/>
</g>
<!-- Node21&#45;&gt;Node9 -->
<g id="edge45" class="edge">
<title>Node21&#45;&gt;Node9</title>
<path fill="none" stroke="midnightblue" d="M225.77,-450C287.02,-439.72 400.66,-420.67 462.75,-410.25"/>
<polygon fill="midnightblue" stroke="midnightblue" points="463.34,-413.7 472.62,-408.6 462.18,-406.8 463.34,-413.7"/>
</g>
<!-- Node22&#45;&gt;Node2 -->
<g id="edge51" class="edge">
<title>Node22&#45;&gt;Node2</title>
<path fill="none" stroke="midnightblue" d="M894.36,-448.31C835.08,-420.49 646.04,-330.43 496,-244 481.79,-235.82 479.17,-232.25 465,-224 445.53,-212.65 422.93,-200.88 405.78,-192.22"/>
<polygon fill="midnightblue" stroke="midnightblue" points="406.89,-188.86 396.38,-187.51 403.75,-195.12 406.89,-188.86"/>
</g>
<!-- Node22&#45;&gt;Node3 -->
<g id="edge56" class="edge">
<title>Node22&#45;&gt;Node3</title>
<path fill="none" stroke="midnightblue" d="M910.44,-448.25C905.25,-429.74 894,-385.18 894,-347 894,-347 894,-347 894,-233 894,-202.9 898.06,-187.34 875,-168 868.03,-162.15 613.07,-137.11 509.28,-127.13"/>
<polygon fill="midnightblue" stroke="midnightblue" points="509.43,-123.63 499.14,-126.15 508.76,-130.59 509.43,-123.63"/>
</g>
<!-- Node22&#45;&gt;Node4 -->
<g id="edge50" class="edge">
<title>Node22&#45;&gt;Node4</title>
<path fill="none" stroke="midnightblue" d="M945.56,-449.95C992.08,-437.75 1072,-407.92 1072,-347 1072,-347 1072,-347 1072,-177 1072,-91.82 940.59,-72.58 878.18,-68.25"/>
<polygon fill="midnightblue" stroke="midnightblue" points="878.27,-64.75 868.08,-67.64 877.85,-71.74 878.27,-64.75"/>
</g>
<!-- Node22&#45;&gt;Node9 -->
<g id="edge55" class="edge">
<title>Node22&#45;&gt;Node9</title>
<path fill="none" stroke="midnightblue" d="M880.38,-452.67C807.39,-442.99 630.89,-419.57 549.03,-408.71"/>
<polygon fill="midnightblue" stroke="midnightblue" points="549.43,-405.23 539.06,-407.39 548.51,-412.17 549.43,-405.23"/>
</g>
<!-- Node22&#45;&gt;Node12 -->
<g id="edge49" class="edge">
<title>Node22&#45;&gt;Node12</title>
<path fill="none" stroke="midnightblue" d="M915.56,-448.25C920.75,-429.74 932,-385.18 932,-347 932,-347 932,-347 932,-233 932,-202.2 928.88,-190.64 908,-168 890.26,-148.77 862.65,-137.07 841.42,-130.45"/>
<polygon fill="midnightblue" stroke="midnightblue" points="842.16,-127.02 831.58,-127.59 840.21,-133.74 842.16,-127.02"/>
</g>
<!-- Node23 -->
<g id="node23" class="node">
<title>Node23</title>
<g id="a_node23"><a xlink:title=" ">
<polygon fill="none" stroke="#bfbfbf" points="1100,-392.5 1100,-411.5 1146,-411.5 1146,-392.5 1100,-392.5"/>
<text text-anchor="middle" x="1123" y="-399.5" font-family="Helvetica,sans-Serif" font-size="10.00">cstdint</text>
</a>
</g>
</g>
<!-- Node22&#45;&gt;Node23 -->
<g id="edge48" class="edge">
<title>Node22&#45;&gt;Node23</title>
<path fill="none" stroke="midnightblue" d="M945.81,-448.56C985.1,-438.46 1050.52,-421.64 1089.92,-411.51"/>
<polygon fill="midnightblue" stroke="midnightblue" points="1091.01,-414.84 1099.82,-408.96 1089.27,-408.06 1091.01,-414.84"/>
</g>
<!-- Node24 -->
<g id="node24" class="node">
<title>Node24</title>
<g id="a_node24"><a xlink:href="_asset_8hpp.html" target="_top" xlink:title=" ">
<polygon fill="none" stroke="black" points="960.5,-168.5 960.5,-187.5 1043.5,-187.5 1043.5,-168.5 960.5,-168.5"/>
<text text-anchor="middle" x="1002" y="-175.5" font-family="Helvetica,sans-Serif" font-size="10.00">york/Asset.hpp</text>
</a>
</g>
</g>
<!-- Node22&#45;&gt;Node24 -->
<g id="edge52" class="edge">
<title>Node22&#45;&gt;Node24</title>
<path fill="none" stroke="midnightblue" d="M924.09,-448.33C944.51,-431.29 986,-391.24 986,-347 986,-347 986,-347 986,-289 986,-256.63 992.87,-219.44 997.61,-197.66"/>
<polygon fill="midnightblue" stroke="midnightblue" points="1001.05,-198.3 999.84,-187.78 994.22,-196.76 1001.05,-198.3"/>
</g>
<!-- Node24&#45;&gt;Node4 -->
<g id="edge54" class="edge">
<title>Node24&#45;&gt;Node4</title>
<path fill="none" stroke="midnightblue" d="M989.76,-168.37C963.1,-149.57 899.56,-104.77 866.61,-81.53"/>
<polygon fill="midnightblue" stroke="midnightblue" points="868.37,-78.49 858.18,-75.59 864.34,-84.21 868.37,-78.49"/>
</g>
<!-- Node24&#45;&gt;Node12 -->
<g id="edge53" class="edge">
<title>Node24&#45;&gt;Node12</title>
<path fill="none" stroke="midnightblue" d="M971.74,-168.44C936.12,-158.37 877.32,-141.75 841.57,-131.64"/>
<polygon fill="midnightblue" stroke="midnightblue" points="842.28,-128.21 831.7,-128.85 840.37,-134.94 842.28,-128.21"/>
</g>
</g>
</svg>
