<?xml version="1.0" encoding="UTF-8" standalone="no"?>
<!DOCTYPE svg PUBLIC "-//W3C//DTD SVG 1.1//EN"
 "http://www.w3.org/Graphics/SVG/1.1/DTD/svg11.dtd">
<!-- Generated by graphviz version 3.0.0 (20220413.0106)
 -->
<!-- Title: include/york/Renderer/Renderer.hpp Pages: 1 -->
<svg width="309pt" height="207pt"
 viewBox="0.00 0.00 308.50 207.00" xmlns="http://www.w3.org/2000/svg" xmlns:xlink="http://www.w3.org/1999/xlink">
<g id="graph0" class="graph" transform="scale(1 1) rotate(0) translate(4 203)">
<title>include/york/Renderer/Renderer.hpp</title>
<!-- Node1 -->
<g id="node1" class="node">
<title>Node1</title>
<g id="a_node1"><a xlink:title=" ">
<polygon fill="#bfbfbf" stroke="black" points="90.5,-168.5 90.5,-198.5 200.5,-198.5 200.5,-168.5 90.5,-168.5"/>
<text text-anchor="start" x="98.5" y="-186.5" font-family="Helvetica,sans-Serif" font-size="10.00">include/york/Renderer</text>
<text text-anchor="middle" x="145.5" y="-175.5" font-family="Helvetica,sans-Serif" font-size="10.00">/Renderer.hpp</text>
</a>
</g>
</g>
<!-- Node2 -->
<g id="node2" class="node">
<title>Node2</title>
<g id="a_node2"><a xlink:title=" ">
<polygon fill="none" stroke="#bfbfbf" points="0,-112.5 0,-131.5 51,-131.5 51,-112.5 0,-112.5"/>
<text text-anchor="middle" x="25.5" y="-119.5" font-family="Helvetica,sans-Serif" font-size="10.00">memory</text>
</a>
</g>
</g>
<!-- Node1&#45;&gt;Node2 -->
<g id="edge1" class="edge">
<title>Node1&#45;&gt;Node2</title>
<path fill="none" stroke="midnightblue" d="M117.06,-168.4C97.38,-158.64 71.36,-145.74 52.09,-136.18"/>
<polygon fill="midnightblue" stroke="midnightblue" points="53.48,-132.96 42.96,-131.66 50.37,-139.24 53.48,-132.96"/>
</g>
<!-- Node3 -->
<g id="node3" class="node">
<title>Node3</title>
<g id="a_node3"><a xlink:title=" ">
<polygon fill="none" stroke="#bfbfbf" points="69,-112.5 69,-131.5 152,-131.5 152,-112.5 69,-112.5"/>
<text text-anchor="middle" x="110.5" y="-119.5" font-family="Helvetica,sans-Serif" font-size="10.00">unordered_map</text>
</a>
</g>
</g>
<!-- Node1&#45;&gt;Node3 -->
<g id="edge2" class="edge">
<title>Node1&#45;&gt;Node3</title>
<path fill="none" stroke="midnightblue" d="M137.21,-168.4C132.28,-160.02 125.99,-149.33 120.75,-140.42"/>
<polygon fill="midnightblue" stroke="midnightblue" points="123.68,-138.5 115.59,-131.66 117.65,-142.05 123.68,-138.5"/>
</g>
<!-- Node4 -->
<g id="node4" class="node">
<title>Node4</title>
<g id="a_node4"><a xlink:href="_window_8hpp.html" target="_top" xlink:title=" ">
<polygon fill="none" stroke="black" points="172.5,-56.5 172.5,-75.5 262.5,-75.5 262.5,-56.5 172.5,-56.5"/>
<text text-anchor="middle" x="217.5" y="-63.5" font-family="Helvetica,sans-Serif" font-size="10.00">york/Window.hpp</text>
</a>
</g>
</g>
<!-- Node1&#45;&gt;Node4 -->
<g id="edge3" class="edge">
<title>Node1&#45;&gt;Node4</title>
<path fill="none" stroke="midnightblue" d="M154.33,-168.34C167.54,-147.15 192.41,-107.24 206.69,-84.34"/>
<polygon fill="midnightblue" stroke="midnightblue" points="209.78,-86.01 212.1,-75.67 203.84,-82.3 209.78,-86.01"/>
</g>
<!-- Node7 -->
<g id="node7" class="node">
<title>Node7</title>
<g id="a_node7"><a xlink:href="_renderer_impl_8hpp.html" target="_top" xlink:title=" ">
<polygon fill="none" stroke="black" points="208.5,-112.5 208.5,-131.5 300.5,-131.5 300.5,-112.5 208.5,-112.5"/>
<text text-anchor="middle" x="254.5" y="-119.5" font-family="Helvetica,sans-Serif" font-size="10.00">RendererImpl.hpp</text>
</a>
</g>
</g>
<!-- Node1&#45;&gt;Node7 -->
<g id="edge6" class="edge">
<title>Node1&#45;&gt;Node7</title>
<path fill="none" stroke="midnightblue" d="M171.33,-168.4C188.97,-158.77 212.2,-146.09 229.63,-136.58"/>
<polygon fill="midnightblue" stroke="midnightblue" points="231.54,-139.52 238.64,-131.66 228.19,-133.38 231.54,-139.52"/>
</g>
<!-- Node5 -->
<g id="node5" class="node">
<title>Node5</title>
<g id="a_node5"><a xlink:title=" ">
<polygon fill="none" stroke="#bfbfbf" points="160,-0.5 160,-19.5 201,-19.5 201,-0.5 160,-0.5"/>
<text text-anchor="middle" x="180.5" y="-7.5" font-family="Helvetica,sans-Serif" font-size="10.00">string</text>
</a>
</g>
</g>
<!-- Node4&#45;&gt;Node5 -->
<g id="edge4" class="edge">
<title>Node4&#45;&gt;Node5</title>
<path fill="none" stroke="midnightblue" d="M211.39,-56.08C206.22,-48.53 198.65,-37.49 192.31,-28.23"/>
<polygon fill="midnightblue" stroke="midnightblue" points="195.04,-26.02 186.5,-19.75 189.26,-29.98 195.04,-26.02"/>
</g>
<!-- Node6 -->
<g id="node6" class="node">
<title>Node6</title>
<g id="a_node6"><a xlink:title=" ">
<polygon fill="none" stroke="#bfbfbf" points="219.5,-0.5 219.5,-19.5 291.5,-19.5 291.5,-0.5 219.5,-0.5"/>
<text text-anchor="middle" x="255.5" y="-7.5" font-family="Helvetica,sans-Serif" font-size="10.00">SDL_video.h</text>
</a>
</g>
</g>
<!-- Node4&#45;&gt;Node6 -->
<g id="edge5" class="edge">
<title>Node4&#45;&gt;Node6</title>
<path fill="none" stroke="midnightblue" d="M223.77,-56.08C229.14,-48.46 237.02,-37.26 243.58,-27.94"/>
<polygon fill="midnightblue" stroke="midnightblue" points="246.45,-29.94 249.34,-19.75 240.72,-25.91 246.45,-29.94"/>
</g>
<!-- Node7&#45;&gt;Node4 -->
<g id="edge7" class="edge">
<title>Node7&#45;&gt;Node4</title>
<path fill="none" stroke="midnightblue" d="M248.39,-112.08C243.22,-104.53 235.65,-93.49 229.31,-84.23"/>
<polygon fill="midnightblue" stroke="midnightblue" points="232.04,-82.02 223.5,-75.75 226.26,-85.98 232.04,-82.02"/>
</g>
</g>
</svg>
