<?xml version="1.0" encoding="UTF-8" standalone="no"?>
<!DOCTYPE svg PUBLIC "-//W3C//DTD SVG 1.1//EN"
 "http://www.w3.org/Graphics/SVG/1.1/DTD/svg11.dtd">
<!-- Generated by graphviz version 2.50.0 (20211204.2007)
 -->
<!-- Title: include/york/Renderer/Renderer.hpp Pages: 1 -->
<svg width="390pt" height="207pt"
 viewBox="0.00 0.00 389.50 207.00" xmlns="http://www.w3.org/2000/svg" xmlns:xlink="http://www.w3.org/1999/xlink">
<g id="graph0" class="graph" transform="scale(1 1) rotate(0) translate(4 203)">
<title>include/york/Renderer/Renderer.hpp</title>
<!-- Node1 -->
<g id="node1" class="node">
<title>Node1</title>
<g id="a_node1"><a xlink:title=" ">
<polygon fill="#bfbfbf" stroke="black" points="133.5,-168.5 133.5,-198.5 245.5,-198.5 245.5,-168.5 133.5,-168.5"/>
<text text-anchor="start" x="141.5" y="-186.5" font-family="Helvetica,sans-Serif" font-size="10.00">include/york/Renderer</text>
<text text-anchor="middle" x="189.5" y="-175.5" font-family="Helvetica,sans-Serif" font-size="10.00">/Renderer.hpp</text>
</a>
</g>
</g>
<!-- Node2 -->
<g id="node2" class="node">
<title>Node2</title>
<g id="a_node2"><a xlink:title=" ">
<polygon fill="none" stroke="#bfbfbf" points="0,-112.5 0,-131.5 59,-131.5 59,-112.5 0,-112.5"/>
<text text-anchor="middle" x="29.5" y="-119.5" font-family="Helvetica,sans-Serif" font-size="10.00">functional</text>
</a>
</g>
</g>
<!-- Node1&#45;&gt;Node2 -->
<g id="edge1" class="edge">
<title>Node1&#45;&gt;Node2</title>
<path fill="none" stroke="midnightblue" d="M151.58,-168.4C124.38,-158.28 88.1,-144.79 62.17,-135.15"/>
<polygon fill="midnightblue" stroke="midnightblue" points="63.37,-131.86 52.78,-131.66 60.93,-138.42 63.37,-131.86"/>
</g>
<!-- Node3 -->
<g id="node3" class="node">
<title>Node3</title>
<g id="a_node3"><a xlink:title=" ">
<polygon fill="none" stroke="#bfbfbf" points="77.5,-112.5 77.5,-131.5 129.5,-131.5 129.5,-112.5 77.5,-112.5"/>
<text text-anchor="middle" x="103.5" y="-119.5" font-family="Helvetica,sans-Serif" font-size="10.00">memory</text>
</a>
</g>
</g>
<!-- Node1&#45;&gt;Node3 -->
<g id="edge2" class="edge">
<title>Node1&#45;&gt;Node3</title>
<path fill="none" stroke="midnightblue" d="M169.12,-168.4C155.59,-159.04 137.89,-146.79 124.28,-137.38"/>
<polygon fill="midnightblue" stroke="midnightblue" points="126.23,-134.47 116.01,-131.66 122.25,-140.23 126.23,-134.47"/>
</g>
<!-- Node4 -->
<g id="node4" class="node">
<title>Node4</title>
<g id="a_node4"><a xlink:title=" ">
<polygon fill="none" stroke="#bfbfbf" points="148,-112.5 148,-131.5 231,-131.5 231,-112.5 148,-112.5"/>
<text text-anchor="middle" x="189.5" y="-119.5" font-family="Helvetica,sans-Serif" font-size="10.00">unordered_map</text>
</a>
</g>
</g>
<!-- Node1&#45;&gt;Node4 -->
<g id="edge3" class="edge">
<title>Node1&#45;&gt;Node4</title>
<path fill="none" stroke="midnightblue" d="M189.5,-168.4C189.5,-160.47 189.5,-150.46 189.5,-141.86"/>
<polygon fill="midnightblue" stroke="midnightblue" points="193,-141.66 189.5,-131.66 186,-141.66 193,-141.66"/>
</g>
<!-- Node5 -->
<g id="node5" class="node">
<title>Node5</title>
<g id="a_node5"><a xlink:href="_window_8hpp.html" target="_top" xlink:title=" ">
<polygon fill="none" stroke="black" points="251,-56.5 251,-75.5 342,-75.5 342,-56.5 251,-56.5"/>
<text text-anchor="middle" x="296.5" y="-63.5" font-family="Helvetica,sans-Serif" font-size="10.00">york/Window.hpp</text>
</a>
</g>
</g>
<!-- Node1&#45;&gt;Node5 -->
<g id="edge4" class="edge">
<title>Node1&#45;&gt;Node5</title>
<path fill="none" stroke="midnightblue" d="M204.54,-168.22C214.87,-158.27 228.77,-144.57 240.5,-132 255.5,-115.92 271.83,-96.76 282.96,-83.43"/>
<polygon fill="midnightblue" stroke="midnightblue" points="285.77,-85.53 289.46,-75.6 280.38,-81.06 285.77,-85.53"/>
</g>
<!-- Node8 -->
<g id="node8" class="node">
<title>Node8</title>
<g id="a_node8"><a xlink:href="_renderer_impl_8hpp.html" target="_top" xlink:title=" ">
<polygon fill="none" stroke="black" points="287.5,-112.5 287.5,-131.5 381.5,-131.5 381.5,-112.5 287.5,-112.5"/>
<text text-anchor="middle" x="334.5" y="-119.5" font-family="Helvetica,sans-Serif" font-size="10.00">RendererImpl.hpp</text>
</a>
</g>
</g>
<!-- Node1&#45;&gt;Node8 -->
<g id="edge7" class="edge">
<title>Node1&#45;&gt;Node8</title>
<path fill="none" stroke="midnightblue" d="M223.86,-168.4C248.19,-158.42 280.53,-145.15 303.96,-135.53"/>
<polygon fill="midnightblue" stroke="midnightblue" points="305.48,-138.69 313.4,-131.66 302.82,-132.22 305.48,-138.69"/>
</g>
<!-- Node6 -->
<g id="node6" class="node">
<title>Node6</title>
<g id="a_node6"><a xlink:title=" ">
<polygon fill="none" stroke="#bfbfbf" points="239,-0.5 239,-19.5 280,-19.5 280,-0.5 239,-0.5"/>
<text text-anchor="middle" x="259.5" y="-7.5" font-family="Helvetica,sans-Serif" font-size="10.00">string</text>
</a>
</g>
</g>
<!-- Node5&#45;&gt;Node6 -->
<g id="edge5" class="edge">
<title>Node5&#45;&gt;Node6</title>
<path fill="none" stroke="midnightblue" d="M290.39,-56.08C285.22,-48.53 277.65,-37.49 271.31,-28.23"/>
<polygon fill="midnightblue" stroke="midnightblue" points="274.04,-26.02 265.5,-19.75 268.26,-29.98 274.04,-26.02"/>
</g>
<!-- Node7 -->
<g id="node7" class="node">
<title>Node7</title>
<g id="a_node7"><a xlink:title=" ">
<polygon fill="none" stroke="#bfbfbf" points="298,-0.5 298,-19.5 371,-19.5 371,-0.5 298,-0.5"/>
<text text-anchor="middle" x="334.5" y="-7.5" font-family="Helvetica,sans-Serif" font-size="10.00">SDL_video.h</text>
</a>
</g>
</g>
<!-- Node5&#45;&gt;Node7 -->
<g id="edge6" class="edge">
<title>Node5&#45;&gt;Node7</title>
<path fill="none" stroke="midnightblue" d="M302.77,-56.08C308.14,-48.46 316.02,-37.26 322.58,-27.94"/>
<polygon fill="midnightblue" stroke="midnightblue" points="325.45,-29.94 328.34,-19.75 319.72,-25.91 325.45,-29.94"/>
</g>
<!-- Node8&#45;&gt;Node5 -->
<g id="edge8" class="edge">
<title>Node8&#45;&gt;Node5</title>
<path fill="none" stroke="midnightblue" d="M328.23,-112.08C322.86,-104.46 314.98,-93.26 308.42,-83.94"/>
<polygon fill="midnightblue" stroke="midnightblue" points="311.28,-81.91 302.66,-75.75 305.55,-85.94 311.28,-81.91"/>
</g>
</g>
</svg>
