<?xml version="1.0" encoding="UTF-8" standalone="no"?>
<!DOCTYPE svg PUBLIC "-//W3C//DTD SVG 1.1//EN"
 "http://www.w3.org/Graphics/SVG/1.1/DTD/svg11.dtd">
<!-- Generated by graphviz version 2.50.0 (20211204.2007)
 -->
<!-- Title: include/york/Renderer/Renderer.hpp Pages: 1 -->
<svg width="1464pt" height="711pt"
 viewBox="0.00 0.00 1464.00 711.00" xmlns="http://www.w3.org/2000/svg" xmlns:xlink="http://www.w3.org/1999/xlink">
<g id="graph0" class="graph" transform="scale(1 1) rotate(0) translate(4 707)">
<title>include/york/Renderer/Renderer.hpp</title>
<!-- Node1 -->
<g id="node1" class="node">
<title>Node1</title>
<g id="a_node1"><a xlink:title=" ">
<polygon fill="#bfbfbf" stroke="black" points="1043,-672.5 1043,-702.5 1155,-702.5 1155,-672.5 1043,-672.5"/>
<text text-anchor="start" x="1051" y="-690.5" font-family="Helvetica,sans-Serif" font-size="10.00">include/york/Renderer</text>
<text text-anchor="middle" x="1099" y="-679.5" font-family="Helvetica,sans-Serif" font-size="10.00">/Renderer.hpp</text>
</a>
</g>
</g>
<!-- Node2 -->
<g id="node2" class="node">
<title>Node2</title>
<g id="a_node2"><a xlink:href="_framebuffer_8hpp.html" target="_top" xlink:title=" ">
<polygon fill="none" stroke="black" points="425.5,-560.5 425.5,-579.5 576.5,-579.5 576.5,-560.5 425.5,-560.5"/>
<text text-anchor="middle" x="501" y="-567.5" font-family="Helvetica,sans-Serif" font-size="10.00">york/Graphics/Framebuffer.hpp</text>
</a>
</g>
</g>
<!-- Node1&#45;&gt;Node2 -->
<g id="edge1" class="edge">
<title>Node1&#45;&gt;Node2</title>
<path fill="none" stroke="midnightblue" d="M1042.74,-675.63C927.99,-653.47 668.24,-603.3 555.22,-581.47"/>
<polygon fill="midnightblue" stroke="midnightblue" points="555.56,-577.97 545.08,-579.51 554.23,-584.85 555.56,-577.97"/>
</g>
<!-- Node16 -->
<g id="node16" class="node">
<title>Node16</title>
<g id="a_node16"><a xlink:href="_window_8hpp.html" target="_top" xlink:title=" ">
<polygon fill="none" stroke="black" points="1059.5,-168.5 1059.5,-187.5 1150.5,-187.5 1150.5,-168.5 1059.5,-168.5"/>
<text text-anchor="middle" x="1105" y="-175.5" font-family="Helvetica,sans-Serif" font-size="10.00">york/Window.hpp</text>
</a>
</g>
</g>
<!-- Node1&#45;&gt;Node16 -->
<g id="edge45" class="edge">
<title>Node1&#45;&gt;Node16</title>
<path fill="none" stroke="midnightblue" d="M1155.17,-680.13C1255.71,-667.15 1456,-633.46 1456,-571 1456,-571 1456,-571 1456,-401 1456,-262.8 1259.25,-207.1 1160.36,-187.83"/>
<polygon fill="midnightblue" stroke="midnightblue" points="1161,-184.39 1150.53,-185.97 1159.7,-191.27 1161,-184.39"/>
</g>
<!-- Node22 -->
<g id="node22" class="node">
<title>Node22</title>
<g id="a_node22"><a xlink:href="_pipeline_8hpp.html" target="_top" xlink:title=" ">
<polygon fill="none" stroke="black" points="607,-560.5 607,-579.5 741,-579.5 741,-560.5 607,-560.5"/>
<text text-anchor="middle" x="674" y="-567.5" font-family="Helvetica,sans-Serif" font-size="10.00">york/Graphics/Pipeline.hpp</text>
</a>
</g>
</g>
<!-- Node1&#45;&gt;Node22 -->
<g id="edge46" class="edge">
<title>Node1&#45;&gt;Node22</title>
<path fill="none" stroke="midnightblue" d="M1047.31,-672.45C961.99,-649.27 793.38,-603.44 715.38,-582.24"/>
<polygon fill="midnightblue" stroke="midnightblue" points="716,-578.79 705.43,-579.54 714.16,-585.54 716,-578.79"/>
</g>
<!-- Node26 -->
<g id="node26" class="node">
<title>Node26</title>
<g id="a_node26"><a xlink:href="_command_pool_8hpp.html" target="_top" xlink:title=" ">
<polygon fill="none" stroke="black" points="1089,-392.5 1089,-411.5 1253,-411.5 1253,-392.5 1089,-392.5"/>
<text text-anchor="middle" x="1171" y="-399.5" font-family="Helvetica,sans-Serif" font-size="10.00">york/Graphics/CommandPool.hpp</text>
</a>
</g>
</g>
<!-- Node1&#45;&gt;Node26 -->
<g id="edge65" class="edge">
<title>Node1&#45;&gt;Node26</title>
<path fill="none" stroke="midnightblue" d="M1110.16,-672.3C1117.22,-662.6 1125.93,-649.17 1131,-636 1160.18,-560.19 1168.15,-462.32 1170.26,-421.83"/>
<polygon fill="midnightblue" stroke="midnightblue" points="1173.76,-421.94 1170.73,-411.79 1166.77,-421.62 1173.76,-421.94"/>
</g>
<!-- Node27 -->
<g id="node27" class="node">
<title>Node27</title>
<g id="a_node27"><a xlink:href="_semaphore_8hpp.html" target="_top" xlink:title=" ">
<polygon fill="none" stroke="black" points="1271.5,-392.5 1271.5,-411.5 1420.5,-411.5 1420.5,-392.5 1271.5,-392.5"/>
<text text-anchor="middle" x="1346" y="-399.5" font-family="Helvetica,sans-Serif" font-size="10.00">york/Graphics/Semaphore.hpp</text>
</a>
</g>
</g>
<!-- Node1&#45;&gt;Node27 -->
<g id="edge69" class="edge">
<title>Node1&#45;&gt;Node27</title>
<path fill="none" stroke="midnightblue" d="M1155.19,-678.06C1213.42,-665.75 1296,-636.71 1296,-571 1296,-571 1296,-571 1296,-513 1296,-477.18 1318.24,-440.21 1333.05,-419.56"/>
<polygon fill="midnightblue" stroke="midnightblue" points="1335.88,-421.63 1339.05,-411.52 1330.27,-417.45 1335.88,-421.63"/>
</g>
<!-- Node28 -->
<g id="node28" class="node">
<title>Node28</title>
<g id="a_node28"><a xlink:href="_frame_data_8hpp.html" target="_top" xlink:title=" ">
<polygon fill="none" stroke="black" points="974,-616.5 974,-635.5 1122,-635.5 1122,-616.5 974,-616.5"/>
<text text-anchor="middle" x="1048" y="-623.5" font-family="Helvetica,sans-Serif" font-size="10.00">york/Graphics/FrameData.hpp</text>
</a>
</g>
</g>
<!-- Node1&#45;&gt;Node28 -->
<g id="edge73" class="edge">
<title>Node1&#45;&gt;Node28</title>
<path fill="none" stroke="midnightblue" d="M1086.91,-672.4C1079.43,-663.66 1069.78,-652.41 1061.97,-643.3"/>
<polygon fill="midnightblue" stroke="midnightblue" points="1064.59,-640.97 1055.42,-635.66 1059.27,-645.53 1064.59,-640.97"/>
</g>
<!-- Node3 -->
<g id="node3" class="node">
<title>Node3</title>
<g id="a_node3"><a xlink:href="_handle_8hpp.html" target="_top" xlink:title="Contains the declarations for the Handle classes which form the basis of our Vulkan implementation.">
<polygon fill="none" stroke="black" points="905,-112.5 905,-131.5 971,-131.5 971,-112.5 905,-112.5"/>
<text text-anchor="middle" x="938" y="-119.5" font-family="Helvetica,sans-Serif" font-size="10.00">Handle.hpp</text>
</a>
</g>
</g>
<!-- Node2&#45;&gt;Node3 -->
<g id="edge2" class="edge">
<title>Node2&#45;&gt;Node3</title>
<path fill="none" stroke="midnightblue" d="M425.48,-563.61C309.81,-553.24 102,-525.38 102,-459 102,-459 102,-459 102,-345 102,-240.73 162.41,-213.98 256,-168 378.87,-107.64 734.73,-145.12 871,-132 878.64,-131.26 886.74,-130.32 894.57,-129.32"/>
<polygon fill="midnightblue" stroke="midnightblue" points="895.21,-132.76 904.66,-127.98 894.29,-125.82 895.21,-132.76"/>
</g>
<!-- Node8 -->
<g id="node8" class="node">
<title>Node8</title>
<g id="a_node8"><a xlink:href="_render_pass_8hpp.html" target="_top" xlink:title=" ">
<polygon fill="none" stroke="black" points="517.5,-504.5 517.5,-523.5 606.5,-523.5 606.5,-504.5 517.5,-504.5"/>
<text text-anchor="middle" x="562" y="-511.5" font-family="Helvetica,sans-Serif" font-size="10.00">RenderPass.hpp</text>
</a>
</g>
</g>
<!-- Node2&#45;&gt;Node8 -->
<g id="edge7" class="edge">
<title>Node2&#45;&gt;Node8</title>
<path fill="none" stroke="midnightblue" d="M510.8,-560.32C519.82,-552.34 533.41,-540.31 544.32,-530.65"/>
<polygon fill="midnightblue" stroke="midnightblue" points="546.85,-533.08 552.02,-523.83 542.21,-527.84 546.85,-533.08"/>
</g>
<!-- Node9 -->
<g id="node9" class="node">
<title>Node9</title>
<g id="a_node9"><a xlink:title=" ">
<polygon fill="none" stroke="#bfbfbf" points="627.5,-168.5 627.5,-187.5 722.5,-187.5 722.5,-168.5 627.5,-168.5"/>
<text text-anchor="middle" x="675" y="-175.5" font-family="Helvetica,sans-Serif" font-size="10.00">vulkan/vulkan.hpp</text>
</a>
</g>
</g>
<!-- Node2&#45;&gt;Node9 -->
<g id="edge44" class="edge">
<title>Node2&#45;&gt;Node9</title>
<path fill="none" stroke="midnightblue" d="M486.86,-560.36C461.99,-543.95 413,-505.71 413,-459 413,-459 413,-459 413,-401 413,-303.92 462.64,-281.31 541,-224 563.47,-207.57 592.34,-196.86 617.52,-190.03"/>
<polygon fill="midnightblue" stroke="midnightblue" points="618.52,-193.39 627.33,-187.52 616.78,-186.61 618.52,-193.39"/>
</g>
<!-- Node21 -->
<g id="node21" class="node">
<title>Node21</title>
<g id="a_node21"><a xlink:href="_image_view_8hpp.html" target="_top" xlink:title=" ">
<polygon fill="none" stroke="black" points="484.5,-392.5 484.5,-411.5 567.5,-411.5 567.5,-392.5 484.5,-392.5"/>
<text text-anchor="middle" x="526" y="-399.5" font-family="Helvetica,sans-Serif" font-size="10.00">ImageView.hpp</text>
</a>
</g>
</g>
<!-- Node2&#45;&gt;Node21 -->
<g id="edge43" class="edge">
<title>Node2&#45;&gt;Node21</title>
<path fill="none" stroke="midnightblue" d="M501.76,-560.14C502.88,-547.61 505.14,-524 508,-504 512.12,-475.12 518.34,-441.86 522.28,-421.64"/>
<polygon fill="midnightblue" stroke="midnightblue" points="525.76,-422.1 524.26,-411.61 518.89,-420.75 525.76,-422.1"/>
</g>
<!-- Node4 -->
<g id="node4" class="node">
<title>Node4</title>
<g id="a_node4"><a xlink:title=" ">
<polygon fill="none" stroke="#bfbfbf" points="563,-56.5 563,-75.5 607,-75.5 607,-56.5 563,-56.5"/>
<text text-anchor="middle" x="585" y="-63.5" font-family="Helvetica,sans-Serif" font-size="10.00">vector</text>
</a>
</g>
</g>
<!-- Node3&#45;&gt;Node4 -->
<g id="edge3" class="edge">
<title>Node3&#45;&gt;Node4</title>
<path fill="none" stroke="midnightblue" d="M904.79,-115.92C837.18,-105.58 684.31,-82.19 617.39,-71.95"/>
<polygon fill="midnightblue" stroke="midnightblue" points="617.83,-68.48 607.42,-70.43 616.77,-75.4 617.83,-68.48"/>
</g>
<!-- Node5 -->
<g id="node5" class="node">
<title>Node5</title>
<g id="a_node5"><a xlink:title=" ">
<polygon fill="none" stroke="#bfbfbf" points="808.5,-56.5 808.5,-75.5 867.5,-75.5 867.5,-56.5 808.5,-56.5"/>
<text text-anchor="middle" x="838" y="-63.5" font-family="Helvetica,sans-Serif" font-size="10.00">functional</text>
</a>
</g>
</g>
<!-- Node3&#45;&gt;Node5 -->
<g id="edge4" class="edge">
<title>Node3&#45;&gt;Node5</title>
<path fill="none" stroke="midnightblue" d="M921.93,-112.32C906.04,-103.74 881.49,-90.49 863.04,-80.52"/>
<polygon fill="midnightblue" stroke="midnightblue" points="864.49,-77.33 854.03,-75.65 861.16,-83.49 864.49,-77.33"/>
</g>
<!-- Node6 -->
<g id="node6" class="node">
<title>Node6</title>
<g id="a_node6"><a xlink:href="_identifiable_8hpp.html" target="_top" xlink:title=" ">
<polygon fill="none" stroke="black" points="886,-56.5 886,-75.5 990,-75.5 990,-56.5 886,-56.5"/>
<text text-anchor="middle" x="938" y="-63.5" font-family="Helvetica,sans-Serif" font-size="10.00">york/Identifiable.hpp</text>
</a>
</g>
</g>
<!-- Node3&#45;&gt;Node6 -->
<g id="edge5" class="edge">
<title>Node3&#45;&gt;Node6</title>
<path fill="none" stroke="midnightblue" d="M938,-112.08C938,-105.01 938,-94.86 938,-85.99"/>
<polygon fill="midnightblue" stroke="midnightblue" points="941.5,-85.75 938,-75.75 934.5,-85.75 941.5,-85.75"/>
</g>
<!-- Node7 -->
<g id="node7" class="node">
<title>Node7</title>
<g id="a_node7"><a xlink:title=" ">
<polygon fill="none" stroke="#bfbfbf" points="428,-0.5 428,-19.5 474,-19.5 474,-0.5 428,-0.5"/>
<text text-anchor="middle" x="451" y="-7.5" font-family="Helvetica,sans-Serif" font-size="10.00">cstdint</text>
</a>
</g>
</g>
<!-- Node6&#45;&gt;Node7 -->
<g id="edge6" class="edge">
<title>Node6&#45;&gt;Node7</title>
<path fill="none" stroke="midnightblue" d="M885.78,-57.15C882.81,-56.75 879.87,-56.36 877,-56 731.03,-37.53 556.24,-20.73 484.37,-14.05"/>
<polygon fill="midnightblue" stroke="midnightblue" points="484.41,-10.54 474.13,-13.1 483.76,-17.51 484.41,-10.54"/>
</g>
<!-- Node8&#45;&gt;Node3 -->
<g id="edge9" class="edge">
<title>Node8&#45;&gt;Node3</title>
<path fill="none" stroke="midnightblue" d="M541.59,-504.38C524.97,-496.63 501.61,-484.02 485,-468 442.58,-427.08 430.43,-412.6 414,-356 384.59,-254.67 441.46,-232.27 566,-168 687.3,-105.4 735.58,-149.09 871,-132 878.69,-131.03 886.87,-129.96 894.78,-128.91"/>
<polygon fill="midnightblue" stroke="midnightblue" points="895.51,-132.34 904.96,-127.55 894.58,-125.4 895.51,-132.34"/>
</g>
<!-- Node8&#45;&gt;Node9 -->
<g id="edge8" class="edge">
<title>Node8&#45;&gt;Node9</title>
<path fill="none" stroke="midnightblue" d="M547.87,-504.28C520.21,-485.98 462.66,-441.19 475,-392 495.62,-309.84 502.09,-280.72 565,-224 582.53,-208.2 606.36,-197.53 627.35,-190.57"/>
<polygon fill="midnightblue" stroke="midnightblue" points="628.57,-193.85 637.08,-187.53 626.49,-187.17 628.57,-193.85"/>
</g>
<!-- Node10 -->
<g id="node10" class="node">
<title>Node10</title>
<g id="a_node10"><a xlink:href="_swap_chain_8hpp.html" target="_top" xlink:title=" ">
<polygon fill="none" stroke="black" points="709,-448.5 709,-467.5 795,-467.5 795,-448.5 709,-448.5"/>
<text text-anchor="middle" x="752" y="-455.5" font-family="Helvetica,sans-Serif" font-size="10.00">SwapChain.hpp</text>
</a>
</g>
</g>
<!-- Node8&#45;&gt;Node10 -->
<g id="edge10" class="edge">
<title>Node8&#45;&gt;Node10</title>
<path fill="none" stroke="midnightblue" d="M592.11,-504.44C624.63,-495.2 676.58,-480.44 712.39,-470.26"/>
<polygon fill="midnightblue" stroke="midnightblue" points="713.37,-473.62 722.03,-467.52 711.46,-466.88 713.37,-473.62"/>
</g>
<!-- Node10&#45;&gt;Node3 -->
<g id="edge38" class="edge">
<title>Node10&#45;&gt;Node3</title>
<path fill="none" stroke="midnightblue" d="M795.44,-455.07C844.49,-451.49 925.7,-441.26 989,-412 1094.69,-363.15 1135.3,-346.78 1190,-244 1205.96,-214.02 1219.87,-193.98 1198,-168 1184.2,-151.6 1051.63,-135.13 981.32,-127.46"/>
<polygon fill="midnightblue" stroke="midnightblue" points="981.32,-123.94 971,-126.35 980.57,-130.9 981.32,-123.94"/>
</g>
<!-- Node10&#45;&gt;Node9 -->
<g id="edge11" class="edge">
<title>Node10&#45;&gt;Node9</title>
<path fill="none" stroke="midnightblue" d="M765.14,-448.33C802.99,-422.31 906.8,-342.76 863,-280 836.44,-241.95 805.97,-265.79 765,-244 738.34,-229.82 710.6,-208.65 693.09,-194.35"/>
<polygon fill="midnightblue" stroke="midnightblue" points="694.85,-191.27 684.92,-187.58 690.38,-196.66 694.85,-191.27"/>
</g>
<!-- Node11 -->
<g id="node11" class="node">
<title>Node11</title>
<g id="a_node11"><a xlink:href="_device_8hpp.html" target="_top" xlink:title=" ">
<polygon fill="none" stroke="black" points="717,-336.5 717,-355.5 783,-355.5 783,-336.5 717,-336.5"/>
<text text-anchor="middle" x="750" y="-343.5" font-family="Helvetica,sans-Serif" font-size="10.00">Device.hpp</text>
</a>
</g>
</g>
<!-- Node10&#45;&gt;Node11 -->
<g id="edge12" class="edge">
<title>Node10&#45;&gt;Node11</title>
<path fill="none" stroke="midnightblue" d="M751.84,-448.37C751.52,-430.62 750.78,-389.67 750.34,-365.6"/>
<polygon fill="midnightblue" stroke="midnightblue" points="753.84,-365.53 750.16,-355.59 746.84,-365.65 753.84,-365.53"/>
</g>
<!-- Node10&#45;&gt;Node21 -->
<g id="edge39" class="edge">
<title>Node10&#45;&gt;Node21</title>
<path fill="none" stroke="midnightblue" d="M716.19,-448.44C677.01,-439.08 614.12,-424.06 571.48,-413.87"/>
<polygon fill="midnightblue" stroke="midnightblue" points="572.18,-410.44 561.64,-411.52 570.56,-417.24 572.18,-410.44"/>
</g>
<!-- Node11&#45;&gt;Node3 -->
<g id="edge15" class="edge">
<title>Node11&#45;&gt;Node3</title>
<path fill="none" stroke="midnightblue" d="M734.6,-336.36C689.61,-310.09 564.81,-229.19 618,-168 619.13,-166.7 807.54,-140.82 894.69,-128.91"/>
<polygon fill="midnightblue" stroke="midnightblue" points="895.37,-132.35 904.8,-127.53 894.42,-125.41 895.37,-132.35"/>
</g>
<!-- Node11&#45;&gt;Node9 -->
<g id="edge14" class="edge">
<title>Node11&#45;&gt;Node9</title>
<path fill="none" stroke="midnightblue" d="M734.6,-336.4C722.12,-328.57 705.16,-315.85 696,-300 677.31,-267.65 674.37,-222.89 674.37,-197.87"/>
<polygon fill="midnightblue" stroke="midnightblue" points="677.87,-197.65 674.54,-187.59 670.88,-197.53 677.87,-197.65"/>
</g>
<!-- Node12 -->
<g id="node12" class="node">
<title>Node12</title>
<g id="a_node12"><a xlink:title=" ">
<polygon fill="none" stroke="#bfbfbf" points="814,-280.5 814,-299.5 854,-299.5 854,-280.5 814,-280.5"/>
<text text-anchor="middle" x="834" y="-287.5" font-family="Helvetica,sans-Serif" font-size="10.00">utility</text>
</a>
</g>
</g>
<!-- Node11&#45;&gt;Node12 -->
<g id="edge13" class="edge">
<title>Node11&#45;&gt;Node12</title>
<path fill="none" stroke="midnightblue" d="M763.5,-336.32C776.6,-327.9 796.71,-314.97 812.11,-305.07"/>
<polygon fill="midnightblue" stroke="midnightblue" points="814.02,-308.01 820.54,-299.65 810.23,-302.12 814.02,-308.01"/>
</g>
<!-- Node13 -->
<g id="node13" class="node">
<title>Node13</title>
<g id="a_node13"><a xlink:href="_instance_8hpp.html" target="_top" xlink:title=" ">
<polygon fill="none" stroke="black" points="928.5,-224.5 928.5,-243.5 1001.5,-243.5 1001.5,-224.5 928.5,-224.5"/>
<text text-anchor="middle" x="965" y="-231.5" font-family="Helvetica,sans-Serif" font-size="10.00">Instance.hpp</text>
</a>
</g>
</g>
<!-- Node11&#45;&gt;Node13 -->
<g id="edge16" class="edge">
<title>Node11&#45;&gt;Node13</title>
<path fill="none" stroke="midnightblue" d="M750.35,-336.42C751.41,-322.46 755.59,-294.89 772,-280 793.22,-260.75 868.5,-247.5 918.53,-240.59"/>
<polygon fill="midnightblue" stroke="midnightblue" points="919.04,-244.06 928.48,-239.26 918.11,-237.12 919.04,-244.06"/>
</g>
<!-- Node15 -->
<g id="node15" class="node">
<title>Node15</title>
<g id="a_node15"><a xlink:href="_requestable_item_8hpp.html" target="_top" xlink:title=" ">
<polygon fill="none" stroke="black" points="787,-168.5 787,-187.5 897,-187.5 897,-168.5 787,-168.5"/>
<text text-anchor="middle" x="842" y="-175.5" font-family="Helvetica,sans-Serif" font-size="10.00">RequestableItem.hpp</text>
</a>
</g>
</g>
<!-- Node11&#45;&gt;Node15 -->
<g id="edge32" class="edge">
<title>Node11&#45;&gt;Node15</title>
<path fill="none" stroke="midnightblue" d="M748.99,-336.19C747.89,-323.3 747.18,-298.81 755,-280 769.83,-244.31 802.33,-212.21 823.14,-194.2"/>
<polygon fill="midnightblue" stroke="midnightblue" points="825.6,-196.7 831,-187.58 821.09,-191.34 825.6,-196.7"/>
</g>
<!-- Node18 -->
<g id="node18" class="node">
<title>Node18</title>
<g id="a_node18"><a xlink:href="_physical_device_8hpp.html" target="_top" xlink:title=" ">
<polygon fill="none" stroke="black" points="1020,-224.5 1020,-243.5 1124,-243.5 1124,-224.5 1020,-224.5"/>
<text text-anchor="middle" x="1072" y="-231.5" font-family="Helvetica,sans-Serif" font-size="10.00">PhysicalDevice.hpp</text>
</a>
</g>
</g>
<!-- Node11&#45;&gt;Node18 -->
<g id="edge27" class="edge">
<title>Node11&#45;&gt;Node18</title>
<path fill="none" stroke="midnightblue" d="M754.73,-336.13C762.9,-321.76 781.11,-293.61 805,-280 813.88,-274.94 933.96,-255.98 1010.02,-244.35"/>
<polygon fill="midnightblue" stroke="midnightblue" points="1010.63,-247.8 1019.99,-242.83 1009.58,-240.88 1010.63,-247.8"/>
</g>
<!-- Node20 -->
<g id="node20" class="node">
<title>Node20</title>
<g id="a_node20"><a xlink:href="_surface_8hpp.html" target="_top" xlink:title=" ">
<polygon fill="none" stroke="black" points="986.5,-280.5 986.5,-299.5 1055.5,-299.5 1055.5,-280.5 986.5,-280.5"/>
<text text-anchor="middle" x="1021" y="-287.5" font-family="Helvetica,sans-Serif" font-size="10.00">Surface.hpp</text>
</a>
</g>
</g>
<!-- Node11&#45;&gt;Node20 -->
<g id="edge33" class="edge">
<title>Node11&#45;&gt;Node20</title>
<path fill="none" stroke="midnightblue" d="M783.23,-338.38C831.69,-328.72 921.89,-310.75 976.18,-299.93"/>
<polygon fill="midnightblue" stroke="midnightblue" points="977.09,-303.32 986.21,-297.93 975.72,-296.45 977.09,-303.32"/>
</g>
<!-- Node13&#45;&gt;Node3 -->
<g id="edge20" class="edge">
<title>Node13&#45;&gt;Node3</title>
<path fill="none" stroke="midnightblue" d="M962.88,-224.37C958.52,-206.62 948.47,-165.67 942.56,-141.6"/>
<polygon fill="midnightblue" stroke="midnightblue" points="945.89,-140.47 940.11,-131.59 939.09,-142.14 945.89,-140.47"/>
</g>
<!-- Node13&#45;&gt;Node4 -->
<g id="edge18" class="edge">
<title>Node13&#45;&gt;Node4</title>
<path fill="none" stroke="midnightblue" d="M928.37,-225.66C881.99,-216.1 804.86,-199.29 778,-188 709.4,-159.15 637.36,-107.33 604.01,-81.9"/>
<polygon fill="midnightblue" stroke="midnightblue" points="606.09,-79.08 596.03,-75.75 601.82,-84.63 606.09,-79.08"/>
</g>
<!-- Node13&#45;&gt;Node9 -->
<g id="edge19" class="edge">
<title>Node13&#45;&gt;Node9</title>
<path fill="none" stroke="midnightblue" d="M928.27,-226.16C878.52,-216.9 789.27,-200.28 731.1,-189.45"/>
<polygon fill="midnightblue" stroke="midnightblue" points="731.45,-185.95 720.98,-187.56 730.17,-192.83 731.45,-185.95"/>
</g>
<!-- Node14 -->
<g id="node14" class="node">
<title>Node14</title>
<g id="a_node14"><a xlink:title=" ">
<polygon fill="none" stroke="#bfbfbf" points="821.5,-112.5 821.5,-131.5 862.5,-131.5 862.5,-112.5 821.5,-112.5"/>
<text text-anchor="middle" x="842" y="-119.5" font-family="Helvetica,sans-Serif" font-size="10.00">string</text>
</a>
</g>
</g>
<!-- Node13&#45;&gt;Node14 -->
<g id="edge17" class="edge">
<title>Node13&#45;&gt;Node14</title>
<path fill="none" stroke="midnightblue" d="M958.27,-224.45C947.84,-211.47 926.79,-186.36 906,-168 893.14,-156.64 877.38,-145.54 864.72,-137.2"/>
<polygon fill="midnightblue" stroke="midnightblue" points="866.44,-134.14 856.14,-131.65 862.64,-140.02 866.44,-134.14"/>
</g>
<!-- Node13&#45;&gt;Node15 -->
<g id="edge21" class="edge">
<title>Node13&#45;&gt;Node15</title>
<path fill="none" stroke="midnightblue" d="M945.51,-224.44C925.36,-215.6 893.68,-201.69 870.67,-191.59"/>
<polygon fill="midnightblue" stroke="midnightblue" points="871.96,-188.33 861.4,-187.52 869.15,-194.74 871.96,-188.33"/>
</g>
<!-- Node13&#45;&gt;Node16 -->
<g id="edge23" class="edge">
<title>Node13&#45;&gt;Node16</title>
<path fill="none" stroke="midnightblue" d="M987.18,-224.44C1010.43,-215.48 1047.15,-201.31 1073.42,-191.18"/>
<polygon fill="midnightblue" stroke="midnightblue" points="1074.85,-194.38 1082.92,-187.52 1072.33,-187.85 1074.85,-194.38"/>
</g>
<!-- Node15&#45;&gt;Node14 -->
<g id="edge22" class="edge">
<title>Node15&#45;&gt;Node14</title>
<path fill="none" stroke="midnightblue" d="M842,-168.08C842,-161.01 842,-150.86 842,-141.99"/>
<polygon fill="midnightblue" stroke="midnightblue" points="845.5,-141.75 842,-131.75 838.5,-141.75 845.5,-141.75"/>
</g>
<!-- Node16&#45;&gt;Node3 -->
<g id="edge26" class="edge">
<title>Node16&#45;&gt;Node3</title>
<path fill="none" stroke="midnightblue" d="M1078.54,-168.44C1050.32,-159.32 1005.46,-144.81 974.03,-134.65"/>
<polygon fill="midnightblue" stroke="midnightblue" points="974.93,-131.26 964.34,-131.52 972.78,-137.92 974.93,-131.26"/>
</g>
<!-- Node16&#45;&gt;Node14 -->
<g id="edge24" class="edge">
<title>Node16&#45;&gt;Node14</title>
<path fill="none" stroke="midnightblue" d="M1063.33,-168.44C1010.27,-157.55 919.85,-138.98 872.68,-129.3"/>
<polygon fill="midnightblue" stroke="midnightblue" points="873.26,-125.84 862.76,-127.26 871.85,-132.7 873.26,-125.84"/>
</g>
<!-- Node17 -->
<g id="node17" class="node">
<title>Node17</title>
<g id="a_node17"><a xlink:title=" ">
<polygon fill="none" stroke="#bfbfbf" points="1068.5,-112.5 1068.5,-131.5 1141.5,-131.5 1141.5,-112.5 1068.5,-112.5"/>
<text text-anchor="middle" x="1105" y="-119.5" font-family="Helvetica,sans-Serif" font-size="10.00">SDL_video.h</text>
</a>
</g>
</g>
<!-- Node16&#45;&gt;Node17 -->
<g id="edge25" class="edge">
<title>Node16&#45;&gt;Node17</title>
<path fill="none" stroke="midnightblue" d="M1105,-168.08C1105,-161.01 1105,-150.86 1105,-141.99"/>
<polygon fill="midnightblue" stroke="midnightblue" points="1108.5,-141.75 1105,-131.75 1101.5,-141.75 1108.5,-141.75"/>
</g>
<!-- Node18&#45;&gt;Node9 -->
<g id="edge29" class="edge">
<title>Node18&#45;&gt;Node9</title>
<path fill="none" stroke="midnightblue" d="M1019.76,-225.25C1016.8,-224.82 1013.86,-224.4 1011,-224 913.3,-210.25 799.47,-195.21 732.53,-186.47"/>
<polygon fill="midnightblue" stroke="midnightblue" points="732.97,-183 722.6,-185.17 732.06,-189.94 732.97,-183"/>
</g>
<!-- Node18&#45;&gt;Node15 -->
<g id="edge30" class="edge">
<title>Node18&#45;&gt;Node15</title>
<path fill="none" stroke="midnightblue" d="M1035.56,-224.44C995.6,-215.06 931.41,-199.99 888.02,-189.8"/>
<polygon fill="midnightblue" stroke="midnightblue" points="888.81,-186.39 878.27,-187.52 887.21,-193.21 888.81,-186.39"/>
</g>
<!-- Node18&#45;&gt;Node16 -->
<g id="edge31" class="edge">
<title>Node18&#45;&gt;Node16</title>
<path fill="none" stroke="midnightblue" d="M1077.45,-224.08C1082.01,-216.61 1088.67,-205.72 1094.29,-196.52"/>
<polygon fill="midnightblue" stroke="midnightblue" points="1097.42,-198.11 1099.65,-187.75 1091.45,-194.46 1097.42,-198.11"/>
</g>
<!-- Node19 -->
<g id="node19" class="node">
<title>Node19</title>
<g id="a_node19"><a xlink:title=" ">
<polygon fill="none" stroke="#bfbfbf" points="991,-168.5 991,-187.5 1041,-187.5 1041,-168.5 991,-168.5"/>
<text text-anchor="middle" x="1016" y="-175.5" font-family="Helvetica,sans-Serif" font-size="10.00">optional</text>
</a>
</g>
</g>
<!-- Node18&#45;&gt;Node19 -->
<g id="edge28" class="edge">
<title>Node18&#45;&gt;Node19</title>
<path fill="none" stroke="midnightblue" d="M1063,-224.32C1054.81,-216.42 1042.49,-204.55 1032.53,-194.94"/>
<polygon fill="midnightblue" stroke="midnightblue" points="1034.79,-192.26 1025.16,-187.83 1029.93,-197.29 1034.79,-192.26"/>
</g>
<!-- Node20&#45;&gt;Node3 -->
<g id="edge35" class="edge">
<title>Node20&#45;&gt;Node3</title>
<path fill="none" stroke="midnightblue" d="M1055.67,-280.93C1089.16,-272.44 1136.59,-258.34 1149,-244 1171.33,-218.19 1181.6,-194.42 1160,-168 1137.87,-140.93 1039.37,-129.76 981.27,-125.45"/>
<polygon fill="midnightblue" stroke="midnightblue" points="981.49,-121.96 971.27,-124.75 981,-128.94 981.49,-121.96"/>
</g>
<!-- Node20&#45;&gt;Node9 -->
<g id="edge34" class="edge">
<title>Node20&#45;&gt;Node9</title>
<path fill="none" stroke="midnightblue" d="M993.39,-280.45C965.96,-271.8 922.79,-257.77 886,-244 864.36,-235.9 859.85,-231.53 838,-224 799.02,-210.56 753.74,-198.32 720.81,-190.01"/>
<polygon fill="midnightblue" stroke="midnightblue" points="721.56,-186.59 711.01,-187.56 719.86,-193.38 721.56,-186.59"/>
</g>
<!-- Node20&#45;&gt;Node13 -->
<g id="edge36" class="edge">
<title>Node20&#45;&gt;Node13</title>
<path fill="none" stroke="midnightblue" d="M1012,-280.32C1003.81,-272.42 991.49,-260.55 981.53,-250.94"/>
<polygon fill="midnightblue" stroke="midnightblue" points="983.79,-248.26 974.16,-243.83 978.93,-253.29 983.79,-248.26"/>
</g>
<!-- Node20&#45;&gt;Node16 -->
<g id="edge37" class="edge">
<title>Node20&#45;&gt;Node16</title>
<path fill="none" stroke="midnightblue" d="M1053.04,-280.46C1082.73,-271.82 1123.67,-257.8 1133,-244 1143.37,-228.66 1131.82,-208.85 1120.57,-195.15"/>
<polygon fill="midnightblue" stroke="midnightblue" points="1123.06,-192.68 1113.81,-187.51 1117.81,-197.32 1123.06,-192.68"/>
</g>
<!-- Node21&#45;&gt;Node3 -->
<g id="edge40" class="edge">
<title>Node21&#45;&gt;Node3</title>
<path fill="none" stroke="midnightblue" d="M525.11,-392.36C522.04,-357.44 515.75,-225.77 588,-168 637.51,-128.41 808.14,-140.22 871,-132 878.69,-130.99 886.87,-129.91 894.78,-128.85"/>
<polygon fill="midnightblue" stroke="midnightblue" points="895.5,-132.29 904.95,-127.49 894.57,-125.35 895.5,-132.29"/>
</g>
<!-- Node21&#45;&gt;Node9 -->
<g id="edge42" class="edge">
<title>Node21&#45;&gt;Node9</title>
<path fill="none" stroke="midnightblue" d="M526.38,-392.48C528.06,-364.8 536.87,-276.16 582,-224 595.27,-208.66 614.96,-198.1 632.81,-191.08"/>
<polygon fill="midnightblue" stroke="midnightblue" points="634.3,-194.26 642.48,-187.54 631.89,-187.69 634.3,-194.26"/>
</g>
<!-- Node21&#45;&gt;Node11 -->
<g id="edge41" class="edge">
<title>Node21&#45;&gt;Node11</title>
<path fill="none" stroke="midnightblue" d="M561.49,-392.44C601.01,-382.92 664.86,-367.52 707.14,-357.33"/>
<polygon fill="midnightblue" stroke="midnightblue" points="707.96,-360.73 716.86,-354.99 706.32,-353.93 707.96,-360.73"/>
</g>
<!-- Node22&#45;&gt;Node3 -->
<g id="edge48" class="edge">
<title>Node22&#45;&gt;Node3</title>
<path fill="none" stroke="midnightblue" d="M702.5,-560.48C777.44,-537.09 983.87,-466.21 1124,-356 1173.12,-317.37 1188.33,-302.97 1209,-244 1220.24,-211.95 1239.02,-193.86 1217,-168 1201.9,-150.27 1055.8,-134.09 981.27,-126.91"/>
<polygon fill="midnightblue" stroke="midnightblue" points="981.53,-123.42 971.25,-125.96 980.87,-130.39 981.53,-123.42"/>
</g>
<!-- Node22&#45;&gt;Node8 -->
<g id="edge53" class="edge">
<title>Node22&#45;&gt;Node8</title>
<path fill="none" stroke="midnightblue" d="M656.01,-560.32C637.96,-551.62 609.95,-538.12 589.2,-528.11"/>
<polygon fill="midnightblue" stroke="midnightblue" points="590.48,-524.84 579.95,-523.65 587.44,-531.15 590.48,-524.84"/>
</g>
<!-- Node22&#45;&gt;Node9 -->
<g id="edge47" class="edge">
<title>Node22&#45;&gt;Node9</title>
<path fill="none" stroke="midnightblue" d="M668.64,-560.5C651.02,-531.72 596,-434.83 596,-347 596,-347 596,-347 596,-289 596,-248.79 631.25,-213.22 654.66,-194.03"/>
<polygon fill="midnightblue" stroke="midnightblue" points="656.97,-196.66 662.66,-187.72 652.64,-191.17 656.97,-196.66"/>
</g>
<!-- Node22&#45;&gt;Node10 -->
<g id="edge64" class="edge">
<title>Node22&#45;&gt;Node10</title>
<path fill="none" stroke="midnightblue" d="M680.12,-560.37C692.99,-542.22 723.07,-499.8 739.95,-475.99"/>
<polygon fill="midnightblue" stroke="midnightblue" points="742.98,-477.77 745.91,-467.59 737.27,-473.72 742.98,-477.77"/>
</g>
<!-- Node23 -->
<g id="node23" class="node">
<title>Node23</title>
<g id="a_node23"><a xlink:href="_pipeline_layout_8hpp.html" target="_top" xlink:title=" ">
<polygon fill="none" stroke="black" points="624.5,-392.5 624.5,-411.5 723.5,-411.5 723.5,-392.5 624.5,-392.5"/>
<text text-anchor="middle" x="674" y="-399.5" font-family="Helvetica,sans-Serif" font-size="10.00">PipelineLayout.hpp</text>
</a>
</g>
</g>
<!-- Node22&#45;&gt;Node23 -->
<g id="edge49" class="edge">
<title>Node22&#45;&gt;Node23</title>
<path fill="none" stroke="midnightblue" d="M674,-560.08C674,-533.95 674,-457.21 674,-421.58"/>
<polygon fill="midnightblue" stroke="midnightblue" points="677.5,-421.57 674,-411.57 670.5,-421.57 677.5,-421.57"/>
</g>
<!-- Node24 -->
<g id="node24" class="node">
<title>Node24</title>
<g id="a_node24"><a xlink:href="_shader_8hpp.html" target="_top" xlink:title=" ">
<polygon fill="none" stroke="black" points="183.5,-392.5 183.5,-411.5 248.5,-411.5 248.5,-392.5 183.5,-392.5"/>
<text text-anchor="middle" x="216" y="-399.5" font-family="Helvetica,sans-Serif" font-size="10.00">Shader.hpp</text>
</a>
</g>
</g>
<!-- Node22&#45;&gt;Node24 -->
<g id="edge54" class="edge">
<title>Node22&#45;&gt;Node24</title>
<path fill="none" stroke="midnightblue" d="M638.4,-560.44C604.58,-552.05 552.44,-538.45 508,-524 441.51,-502.38 425.59,-494.75 361,-468 319.55,-450.83 272.25,-429.25 243.26,-415.78"/>
<polygon fill="midnightblue" stroke="midnightblue" points="244.71,-412.6 234.17,-411.55 241.75,-418.94 244.71,-412.6"/>
</g>
<!-- Node23&#45;&gt;Node3 -->
<g id="edge52" class="edge">
<title>Node23&#45;&gt;Node3</title>
<path fill="none" stroke="midnightblue" d="M666.22,-392.17C637.63,-358.65 543.12,-237.64 604,-168 604,-168 804.52,-140.98 894.82,-128.82"/>
<polygon fill="midnightblue" stroke="midnightblue" points="895.31,-132.28 904.75,-127.48 894.38,-125.35 895.31,-132.28"/>
</g>
<!-- Node23&#45;&gt;Node9 -->
<g id="edge50" class="edge">
<title>Node23&#45;&gt;Node9</title>
<path fill="none" stroke="midnightblue" d="M673.62,-392.16C672.57,-366.29 669.85,-288.5 672,-224 672.29,-215.38 672.88,-205.85 673.47,-197.79"/>
<polygon fill="midnightblue" stroke="midnightblue" points="676.97,-197.86 674.25,-187.62 669.99,-197.32 676.97,-197.86"/>
</g>
<!-- Node23&#45;&gt;Node11 -->
<g id="edge51" class="edge">
<title>Node23&#45;&gt;Node11</title>
<path fill="none" stroke="midnightblue" d="M686.21,-392.32C697.78,-384.11 715.38,-371.6 729.16,-361.81"/>
<polygon fill="midnightblue" stroke="midnightblue" points="731.44,-364.48 737.57,-355.83 727.39,-358.77 731.44,-364.48"/>
</g>
<!-- Node24&#45;&gt;Node3 -->
<g id="edge63" class="edge">
<title>Node24&#45;&gt;Node3</title>
<path fill="none" stroke="midnightblue" d="M221.28,-392.23C231.73,-374.04 254,-330.6 254,-291 254,-291 254,-291 254,-233 254,-202.2 253.28,-186.36 278,-168 330.99,-128.64 805.3,-138.4 871,-132 878.72,-131.25 886.91,-130.29 894.82,-129.27"/>
<polygon fill="midnightblue" stroke="midnightblue" points="895.55,-132.71 905,-127.92 894.63,-125.77 895.55,-132.71"/>
</g>
<!-- Node24&#45;&gt;Node4 -->
<g id="edge57" class="edge">
<title>Node24&#45;&gt;Node4</title>
<path fill="none" stroke="midnightblue" d="M183.35,-395.98C131.96,-386.02 38,-358.57 38,-291 38,-291 38,-291 38,-177 38,-71.32 435.35,-65.88 552.73,-66.57"/>
<polygon fill="midnightblue" stroke="midnightblue" points="552.85,-70.08 562.88,-66.65 552.91,-63.08 552.85,-70.08"/>
</g>
<!-- Node24&#45;&gt;Node7 -->
<g id="edge55" class="edge">
<title>Node24&#45;&gt;Node7</title>
<path fill="none" stroke="midnightblue" d="M183.19,-399.05C122.77,-393.5 0,-372.22 0,-291 0,-291 0,-291 0,-121 0,-35.08 312.82,-15.98 417.4,-11.99"/>
<polygon fill="midnightblue" stroke="midnightblue" points="417.83,-15.48 427.7,-11.62 417.58,-8.48 417.83,-15.48"/>
</g>
<!-- Node24&#45;&gt;Node9 -->
<g id="edge58" class="edge">
<title>Node24&#45;&gt;Node9</title>
<path fill="none" stroke="midnightblue" d="M226.23,-392.29C267.21,-357.45 417.93,-229.63 430,-224 489.95,-196.04 565.73,-185.43 617.02,-181.41"/>
<polygon fill="midnightblue" stroke="midnightblue" points="617.53,-184.89 627.25,-180.68 617.03,-177.9 617.53,-184.89"/>
</g>
<!-- Node24&#45;&gt;Node11 -->
<g id="edge62" class="edge">
<title>Node24&#45;&gt;Node11</title>
<path fill="none" stroke="midnightblue" d="M248.6,-397.7C340.66,-388.39 602.64,-361.9 706.66,-351.38"/>
<polygon fill="midnightblue" stroke="midnightblue" points="707.21,-354.85 716.81,-350.36 706.5,-347.88 707.21,-354.85"/>
</g>
<!-- Node24&#45;&gt;Node14 -->
<g id="edge56" class="edge">
<title>Node24&#45;&gt;Node14</title>
<path fill="none" stroke="midnightblue" d="M210.72,-392.23C200.27,-374.04 178,-330.6 178,-291 178,-291 178,-291 178,-233 178,-193.08 203.91,-185.07 240,-168 291.86,-143.47 695.32,-127.98 811.06,-124.01"/>
<polygon fill="midnightblue" stroke="midnightblue" points="811.47,-127.5 821.34,-123.67 811.23,-120.51 811.47,-127.5"/>
</g>
<!-- Node25 -->
<g id="node25" class="node">
<title>Node25</title>
<g id="a_node25"><a xlink:href="_asset_8hpp.html" target="_top" xlink:title=" ">
<polygon fill="none" stroke="black" points="66.5,-168.5 66.5,-187.5 149.5,-187.5 149.5,-168.5 66.5,-168.5"/>
<text text-anchor="middle" x="108" y="-175.5" font-family="Helvetica,sans-Serif" font-size="10.00">york/Asset.hpp</text>
</a>
</g>
</g>
<!-- Node24&#45;&gt;Node25 -->
<g id="edge59" class="edge">
<title>Node24&#45;&gt;Node25</title>
<path fill="none" stroke="midnightblue" d="M202.17,-392.26C190.44,-384.18 173.97,-371.16 164,-356 130.26,-304.72 115.73,-231.76 110.5,-197.78"/>
<polygon fill="midnightblue" stroke="midnightblue" points="113.95,-197.23 109.07,-187.83 107.03,-198.23 113.95,-197.23"/>
</g>
<!-- Node25&#45;&gt;Node4 -->
<g id="edge61" class="edge">
<title>Node25&#45;&gt;Node4</title>
<path fill="none" stroke="midnightblue" d="M145.03,-168.46C235.7,-147.55 467.63,-94.07 552.91,-74.4"/>
<polygon fill="midnightblue" stroke="midnightblue" points="553.84,-77.78 562.8,-72.12 552.27,-70.96 553.84,-77.78"/>
</g>
<!-- Node25&#45;&gt;Node14 -->
<g id="edge60" class="edge">
<title>Node25&#45;&gt;Node14</title>
<path fill="none" stroke="midnightblue" d="M149.53,-169.88C154.4,-169.18 159.3,-168.53 164,-168 412.87,-139.8 715.29,-127.42 811.25,-124.02"/>
<polygon fill="midnightblue" stroke="midnightblue" points="811.54,-127.51 821.41,-123.67 811.3,-120.52 811.54,-127.51"/>
</g>
<!-- Node26&#45;&gt;Node3 -->
<g id="edge67" class="edge">
<title>Node26&#45;&gt;Node3</title>
<path fill="none" stroke="midnightblue" d="M1244.69,-392.49C1304.86,-380.95 1380,-353.94 1380,-291 1380,-291 1380,-291 1380,-233 1380,-202.2 1380.29,-186.93 1356,-168 1341.34,-156.57 1085.23,-134.83 981.29,-126.43"/>
<polygon fill="midnightblue" stroke="midnightblue" points="981.39,-122.93 971.14,-125.61 980.83,-129.9 981.39,-122.93"/>
</g>
<!-- Node26&#45;&gt;Node9 -->
<g id="edge66" class="edge">
<title>Node26&#45;&gt;Node9</title>
<path fill="none" stroke="midnightblue" d="M1153.58,-392.5C1112.64,-372.55 1006.99,-321.3 918,-280 882.63,-263.59 872.63,-261.91 838,-244 822.43,-235.95 819.91,-231.37 804,-224 774.83,-210.49 740.4,-198.68 714.45,-190.55"/>
<polygon fill="midnightblue" stroke="midnightblue" points="715.18,-187.11 704.59,-187.51 713.12,-193.8 715.18,-187.11"/>
</g>
<!-- Node26&#45;&gt;Node11 -->
<g id="edge68" class="edge">
<title>Node26&#45;&gt;Node11</title>
<path fill="none" stroke="midnightblue" d="M1104.29,-392.44C1017.22,-381.28 867.28,-362.04 793.54,-352.58"/>
<polygon fill="midnightblue" stroke="midnightblue" points="793.59,-349.06 783.22,-351.26 792.7,-356.01 793.59,-349.06"/>
</g>
<!-- Node27&#45;&gt;Node3 -->
<g id="edge70" class="edge">
<title>Node27&#45;&gt;Node3</title>
<path fill="none" stroke="midnightblue" d="M1356.94,-392.3C1377.08,-375.2 1418,-335.05 1418,-291 1418,-291 1418,-291 1418,-233 1418,-199.08 1406.73,-186.03 1378,-168 1361.34,-157.54 1089.41,-134.99 981.56,-126.41"/>
<polygon fill="midnightblue" stroke="midnightblue" points="981.6,-122.9 971.35,-125.6 981.04,-129.88 981.6,-122.9"/>
</g>
<!-- Node27&#45;&gt;Node9 -->
<g id="edge72" class="edge">
<title>Node27&#45;&gt;Node9</title>
<path fill="none" stroke="midnightblue" d="M1328.96,-392.49C1285.73,-371.17 1167.94,-314.68 1065,-280 1002.07,-258.8 982.71,-265.83 920,-244 899.71,-236.94 896.37,-230.83 876,-224 828.8,-208.18 773.5,-196.26 732.87,-188.67"/>
<polygon fill="midnightblue" stroke="midnightblue" points="733.33,-185.2 722.87,-186.84 732.07,-192.09 733.33,-185.2"/>
</g>
<!-- Node27&#45;&gt;Node11 -->
<g id="edge71" class="edge">
<title>Node27&#45;&gt;Node11</title>
<path fill="none" stroke="midnightblue" d="M1271.35,-392.93C1268.19,-392.61 1265.07,-392.3 1262,-392 1088.54,-375.09 881.74,-357.79 793.44,-350.54"/>
<polygon fill="midnightblue" stroke="midnightblue" points="793.52,-347.03 783.27,-349.7 792.95,-354.01 793.52,-347.03"/>
</g>
<!-- Node28&#45;&gt;Node2 -->
<g id="edge80" class="edge">
<title>Node28&#45;&gt;Node2</title>
<path fill="none" stroke="midnightblue" d="M973.94,-617.69C873.15,-607.74 693.15,-589.97 586.65,-579.46"/>
<polygon fill="midnightblue" stroke="midnightblue" points="586.88,-575.96 576.58,-578.46 586.19,-582.93 586.88,-575.96"/>
</g>
<!-- Node28&#45;&gt;Node10 -->
<g id="edge81" class="edge">
<title>Node28&#45;&gt;Node10</title>
<path fill="none" stroke="midnightblue" d="M1032.5,-616.31C984.05,-589.14 835.16,-505.64 776.3,-472.63"/>
<polygon fill="midnightblue" stroke="midnightblue" points="777.78,-469.44 767.34,-467.61 774.35,-475.55 777.78,-469.44"/>
</g>
<!-- Node28&#45;&gt;Node26 -->
<g id="edge75" class="edge">
<title>Node28&#45;&gt;Node26</title>
<path fill="none" stroke="midnightblue" d="M1052.82,-616.3C1071.07,-583.36 1136.15,-465.9 1161.13,-420.81"/>
<polygon fill="midnightblue" stroke="midnightblue" points="1164.29,-422.33 1166.08,-411.88 1158.17,-418.93 1164.29,-422.33"/>
</g>
<!-- Node28&#45;&gt;Node27 -->
<g id="edge74" class="edge">
<title>Node28&#45;&gt;Node27</title>
<path fill="none" stroke="midnightblue" d="M1059.1,-616.39C1092.51,-590.51 1195.17,-511.34 1282,-448 1296.31,-437.57 1312.64,-426.09 1325.22,-417.34"/>
<polygon fill="midnightblue" stroke="midnightblue" points="1327.42,-420.07 1333.64,-411.5 1323.43,-414.32 1327.42,-420.07"/>
</g>
<!-- Node29 -->
<g id="node29" class="node">
<title>Node29</title>
<g id="a_node29"><a xlink:href="_fence_8hpp.html" target="_top" xlink:title=" ">
<polygon fill="none" stroke="black" points="918,-392.5 918,-411.5 980,-411.5 980,-392.5 918,-392.5"/>
<text text-anchor="middle" x="949" y="-399.5" font-family="Helvetica,sans-Serif" font-size="10.00">Fence.hpp</text>
</a>
</g>
</g>
<!-- Node28&#45;&gt;Node29 -->
<g id="edge76" class="edge">
<title>Node28&#45;&gt;Node29</title>
<path fill="none" stroke="midnightblue" d="M1044.12,-616.3C1029.46,-583.42 977.27,-466.39 957.07,-421.09"/>
<polygon fill="midnightblue" stroke="midnightblue" points="960.23,-419.59 952.96,-411.88 953.84,-422.44 960.23,-419.59"/>
</g>
<!-- Node29&#45;&gt;Node3 -->
<g id="edge78" class="edge">
<title>Node29&#45;&gt;Node3</title>
<path fill="none" stroke="midnightblue" d="M957.28,-392.43C970.07,-379.43 995.71,-354.3 1020,-336 1082.46,-288.94 1126.49,-308.99 1170,-244 1188.92,-215.74 1200.73,-194.17 1179,-168 1166.48,-152.93 1047.27,-136.25 981.34,-128.08"/>
<polygon fill="midnightblue" stroke="midnightblue" points="981.59,-124.59 971.24,-126.85 980.74,-131.54 981.59,-124.59"/>
</g>
<!-- Node29&#45;&gt;Node9 -->
<g id="edge77" class="edge">
<title>Node29&#45;&gt;Node9</title>
<path fill="none" stroke="midnightblue" d="M947.52,-392.43C943.34,-370.73 929.52,-312.97 896,-280 866.46,-250.94 847.79,-260.99 810,-244 771.97,-226.9 728.63,-205.72 701.54,-192.29"/>
<polygon fill="midnightblue" stroke="midnightblue" points="702.85,-189.03 692.34,-187.71 699.73,-195.3 702.85,-189.03"/>
</g>
<!-- Node29&#45;&gt;Node11 -->
<g id="edge79" class="edge">
<title>Node29&#45;&gt;Node11</title>
<path fill="none" stroke="midnightblue" d="M917.91,-392.56C883.79,-383.3 828.87,-368.4 791.19,-358.18"/>
<polygon fill="midnightblue" stroke="midnightblue" points="792.1,-354.8 781.53,-355.56 790.27,-361.55 792.1,-354.8"/>
</g>
</g>
</svg>
