<?xml version="1.0" encoding="UTF-8" standalone="no"?>
<!DOCTYPE svg PUBLIC "-//W3C//DTD SVG 1.1//EN"
 "http://www.w3.org/Graphics/SVG/1.1/DTD/svg11.dtd">
<!-- Generated by graphviz version 2.50.0 (20211204.2007)
 -->
<!-- Title: include/york/Graphics/RequestableItem.hpp Pages: 1 -->
<svg width="661pt" height="642pt"
 viewBox="0.00 0.00 661.00 642.00" xmlns="http://www.w3.org/2000/svg" xmlns:xlink="http://www.w3.org/1999/xlink">
<g id="graph0" class="graph" transform="scale(1 1) rotate(0) translate(4 638)">
<title>include/york/Graphics/RequestableItem.hpp</title>
<!-- Node1 -->
<g id="node1" class="node">
<title>Node1</title>
<g id="a_node1"><a xlink:title=" ">
<polygon fill="#bfbfbf" stroke="black" points="274,-603.5 274,-633.5 387,-633.5 387,-603.5 274,-603.5"/>
<text text-anchor="start" x="282" y="-621.5" font-family="Helvetica,sans-Serif" font-size="10.00">include/york/Graphics</text>
<text text-anchor="middle" x="330.5" y="-610.5" font-family="Helvetica,sans-Serif" font-size="10.00">/RequestableItem.hpp</text>
</a>
</g>
</g>
<!-- Node2 -->
<g id="node2" class="node">
<title>Node2</title>
<g id="a_node2"><a xlink:href="_device_8hpp.html" target="_top" xlink:title=" ">
<polygon fill="none" stroke="black" points="252,-402.5 252,-432.5 363,-432.5 363,-402.5 252,-402.5"/>
<text text-anchor="start" x="260" y="-420.5" font-family="Helvetica,sans-Serif" font-size="10.00">include/york/Graphics</text>
<text text-anchor="middle" x="307.5" y="-409.5" font-family="Helvetica,sans-Serif" font-size="10.00">/Device.hpp</text>
</a>
</g>
</g>
<!-- Node1&#45;&gt;Node2 -->
<g id="edge1" class="edge">
<title>Node1&#45;&gt;Node2</title>
<path fill="none" stroke="midnightblue" d="M293.55,-597.72C282.45,-589.76 271.61,-579.48 265.5,-567 242.77,-520.55 278.18,-459.74 296.99,-432.62"/>
<polygon fill="midnightblue" stroke="midnightblue" points="291.75,-600.72 302.02,-603.35 295.63,-594.9 291.75,-600.72"/>
</g>
<!-- Node15 -->
<g id="node15" class="node">
<title>Node15</title>
<g id="a_node15"><a xlink:href="_instance_8hpp.html" target="_top" xlink:title=" ">
<polygon fill="none" stroke="black" points="275,-536.5 275,-566.5 386,-566.5 386,-536.5 275,-536.5"/>
<text text-anchor="start" x="283" y="-554.5" font-family="Helvetica,sans-Serif" font-size="10.00">include/york/Graphics</text>
<text text-anchor="middle" x="330.5" y="-543.5" font-family="Helvetica,sans-Serif" font-size="10.00">/Instance.hpp</text>
</a>
</g>
</g>
<!-- Node1&#45;&gt;Node15 -->
<g id="edge27" class="edge">
<title>Node1&#45;&gt;Node15</title>
<path fill="none" stroke="midnightblue" d="M330.5,-593.11C330.5,-584.15 330.5,-574.32 330.5,-566.58"/>
<polygon fill="midnightblue" stroke="midnightblue" points="327,-593.4 330.5,-603.4 334,-593.4 327,-593.4"/>
</g>
<!-- Node17 -->
<g id="node17" class="node">
<title>Node17</title>
<g id="a_node17"><a xlink:href="_physical_device_8hpp.html" target="_top" xlink:title=" ">
<polygon fill="none" stroke="black" points="423,-469.5 423,-499.5 534,-499.5 534,-469.5 423,-469.5"/>
<text text-anchor="start" x="431" y="-487.5" font-family="Helvetica,sans-Serif" font-size="10.00">include/york/Graphics</text>
<text text-anchor="middle" x="478.5" y="-476.5" font-family="Helvetica,sans-Serif" font-size="10.00">/PhysicalDevice.hpp</text>
</a>
</g>
</g>
<!-- Node1&#45;&gt;Node17 -->
<g id="edge31" class="edge">
<title>Node1&#45;&gt;Node17</title>
<path fill="none" stroke="midnightblue" d="M357.93,-597.31C369.74,-588.33 383.55,-577.44 395.5,-567 421.2,-544.54 449.14,-516.21 465.16,-499.56"/>
<polygon fill="midnightblue" stroke="midnightblue" points="355.62,-594.67 349.74,-603.48 359.83,-600.26 355.62,-594.67"/>
</g>
<!-- Node3 -->
<g id="node3" class="node">
<title>Node3</title>
<g id="a_node3"><a xlink:href="_command_pool_8hpp.html" target="_top" xlink:title=" ">
<polygon fill="none" stroke="black" points="0,-134.5 0,-164.5 111,-164.5 111,-134.5 0,-134.5"/>
<text text-anchor="start" x="8" y="-152.5" font-family="Helvetica,sans-Serif" font-size="10.00">include/york/Graphics</text>
<text text-anchor="middle" x="55.5" y="-141.5" font-family="Helvetica,sans-Serif" font-size="10.00">/CommandPool.hpp</text>
</a>
</g>
</g>
<!-- Node2&#45;&gt;Node3 -->
<g id="edge2" class="edge">
<title>Node2&#45;&gt;Node3</title>
<path fill="none" stroke="midnightblue" d="M242.21,-403.32C186.89,-388.34 110.92,-357.88 74.5,-299 47.98,-256.12 50.74,-192.95 53.64,-164.87"/>
<polygon fill="midnightblue" stroke="midnightblue" points="241.38,-406.72 251.94,-405.86 243.15,-399.95 241.38,-406.72"/>
</g>
<!-- Node6 -->
<g id="node6" class="node">
<title>Node6</title>
<g id="a_node6"><a xlink:href="_fence_8hpp.html" target="_top" xlink:title=" ">
<polygon fill="none" stroke="black" points="84,-268.5 84,-298.5 195,-298.5 195,-268.5 84,-268.5"/>
<text text-anchor="start" x="92" y="-286.5" font-family="Helvetica,sans-Serif" font-size="10.00">include/york/Graphics</text>
<text text-anchor="middle" x="139.5" y="-275.5" font-family="Helvetica,sans-Serif" font-size="10.00">/Fence.hpp</text>
</a>
</g>
</g>
<!-- Node2&#45;&gt;Node6 -->
<g id="edge6" class="edge">
<title>Node2&#45;&gt;Node6</title>
<path fill="none" stroke="midnightblue" d="M262.96,-398.03C245.39,-389.63 225.6,-378.71 209.5,-366 184.32,-346.12 161.38,-316.16 149.03,-298.64"/>
<polygon fill="midnightblue" stroke="midnightblue" points="261.91,-401.4 272.46,-402.43 264.86,-395.05 261.91,-401.4"/>
</g>
<!-- Node7 -->
<g id="node7" class="node">
<title>Node7</title>
<g id="a_node7"><a xlink:href="_image_view_8hpp.html" target="_top" xlink:title=" ">
<polygon fill="none" stroke="black" points="252,-335.5 252,-365.5 363,-365.5 363,-335.5 252,-335.5"/>
<text text-anchor="start" x="260" y="-353.5" font-family="Helvetica,sans-Serif" font-size="10.00">include/york/Graphics</text>
<text text-anchor="middle" x="307.5" y="-342.5" font-family="Helvetica,sans-Serif" font-size="10.00">/ImageView.hpp</text>
</a>
</g>
</g>
<!-- Node2&#45;&gt;Node7 -->
<g id="edge8" class="edge">
<title>Node2&#45;&gt;Node7</title>
<path fill="none" stroke="midnightblue" d="M307.5,-392.11C307.5,-383.15 307.5,-373.32 307.5,-365.58"/>
<polygon fill="midnightblue" stroke="midnightblue" points="304,-392.4 307.5,-402.4 311,-392.4 304,-392.4"/>
</g>
<!-- Node9 -->
<g id="node9" class="node">
<title>Node9</title>
<g id="a_node9"><a xlink:href="_swap_chain_8hpp.html" target="_top" xlink:title=" ">
<polygon fill="none" stroke="black" points="336,-268.5 336,-298.5 447,-298.5 447,-268.5 336,-268.5"/>
<text text-anchor="start" x="344" y="-286.5" font-family="Helvetica,sans-Serif" font-size="10.00">include/york/Graphics</text>
<text text-anchor="middle" x="391.5" y="-275.5" font-family="Helvetica,sans-Serif" font-size="10.00">/SwapChain.hpp</text>
</a>
</g>
</g>
<!-- Node2&#45;&gt;Node9 -->
<g id="edge26" class="edge">
<title>Node2&#45;&gt;Node9</title>
<path fill="none" stroke="midnightblue" d="M341.77,-396.6C353.09,-388.46 364.76,-378.08 372.5,-366 385.9,-345.08 389.88,-315.74 391.04,-298.57"/>
<polygon fill="midnightblue" stroke="midnightblue" points="339.56,-393.87 333.25,-402.39 343.49,-399.67 339.56,-393.87"/>
</g>
<!-- Node12 -->
<g id="node12" class="node">
<title>Node12</title>
<g id="a_node12"><a xlink:href="_pipeline_layout_8hpp.html" target="_top" xlink:title=" ">
<polygon fill="none" stroke="black" points="439,-335.5 439,-365.5 550,-365.5 550,-335.5 439,-335.5"/>
<text text-anchor="start" x="447" y="-353.5" font-family="Helvetica,sans-Serif" font-size="10.00">include/york/Graphics</text>
<text text-anchor="middle" x="494.5" y="-342.5" font-family="Helvetica,sans-Serif" font-size="10.00">/PipelineLayout.hpp</text>
</a>
</g>
</g>
<!-- Node2&#45;&gt;Node12 -->
<g id="edge19" class="edge">
<title>Node2&#45;&gt;Node12</title>
<path fill="none" stroke="midnightblue" d="M357.58,-399.09C387.77,-388.6 425.72,-375.41 454,-365.58"/>
<polygon fill="midnightblue" stroke="midnightblue" points="356.37,-395.81 348.08,-402.4 358.67,-402.42 356.37,-395.81"/>
</g>
<!-- Node13 -->
<g id="node13" class="node">
<title>Node13</title>
<g id="a_node13"><a xlink:href="_semaphore_8hpp.html" target="_top" xlink:title=" ">
<polygon fill="none" stroke="black" points="168,-134.5 168,-164.5 279,-164.5 279,-134.5 168,-134.5"/>
<text text-anchor="start" x="176" y="-152.5" font-family="Helvetica,sans-Serif" font-size="10.00">include/york/Graphics</text>
<text text-anchor="middle" x="223.5" y="-141.5" font-family="Helvetica,sans-Serif" font-size="10.00">/Semaphore.hpp</text>
</a>
</g>
</g>
<!-- Node2&#45;&gt;Node13 -->
<g id="edge21" class="edge">
<title>Node2&#45;&gt;Node13</title>
<path fill="none" stroke="midnightblue" d="M271.72,-396.79C260.48,-388.75 249.26,-378.4 242.5,-366 205.65,-298.4 215.63,-200.88 221.07,-164.7"/>
<polygon fill="midnightblue" stroke="midnightblue" points="269.98,-399.83 280.24,-402.48 273.87,-394.01 269.98,-399.83"/>
</g>
<!-- Node14 -->
<g id="node14" class="node">
<title>Node14</title>
<g id="a_node14"><a xlink:href="_shader_8hpp.html" target="_top" xlink:title=" ">
<polygon fill="none" stroke="black" points="542,-201.5 542,-231.5 653,-231.5 653,-201.5 542,-201.5"/>
<text text-anchor="start" x="550" y="-219.5" font-family="Helvetica,sans-Serif" font-size="10.00">include/york/Graphics</text>
<text text-anchor="middle" x="597.5" y="-208.5" font-family="Helvetica,sans-Serif" font-size="10.00">/Shader.hpp</text>
</a>
</g>
</g>
<!-- Node2&#45;&gt;Node14 -->
<g id="edge24" class="edge">
<title>Node2&#45;&gt;Node14</title>
<path fill="none" stroke="midnightblue" d="M373.49,-411.17C438.96,-404.54 533.23,-390.92 559.5,-366 597.54,-329.92 599.53,-261.43 598.44,-231.78"/>
<polygon fill="midnightblue" stroke="midnightblue" points="372.85,-407.72 363.24,-412.18 373.54,-414.69 372.85,-407.72"/>
</g>
<!-- Node4 -->
<g id="node4" class="node">
<title>Node4</title>
<g id="a_node4"><a xlink:href="_frame_data_8hpp.html" target="_top" xlink:title=" ">
<polygon fill="none" stroke="black" points="252,-67.5 252,-97.5 363,-97.5 363,-67.5 252,-67.5"/>
<text text-anchor="start" x="260" y="-85.5" font-family="Helvetica,sans-Serif" font-size="10.00">include/york/Graphics</text>
<text text-anchor="middle" x="307.5" y="-74.5" font-family="Helvetica,sans-Serif" font-size="10.00">/FrameData.hpp</text>
</a>
</g>
</g>
<!-- Node3&#45;&gt;Node4 -->
<g id="edge3" class="edge">
<title>Node3&#45;&gt;Node4</title>
<path fill="none" stroke="midnightblue" d="M119.79,-131.92C160.91,-121.31 213.68,-107.7 252.79,-97.61"/>
<polygon fill="midnightblue" stroke="midnightblue" points="118.68,-128.59 109.87,-134.48 120.43,-135.37 118.68,-128.59"/>
</g>
<!-- Node5 -->
<g id="node5" class="node">
<title>Node5</title>
<g id="a_node5"><a xlink:href="_renderer_8hpp.html" target="_top" xlink:title=" ">
<polygon fill="none" stroke="black" points="251.5,-0.5 251.5,-30.5 363.5,-30.5 363.5,-0.5 251.5,-0.5"/>
<text text-anchor="start" x="259.5" y="-18.5" font-family="Helvetica,sans-Serif" font-size="10.00">include/york/Renderer</text>
<text text-anchor="middle" x="307.5" y="-7.5" font-family="Helvetica,sans-Serif" font-size="10.00">/Renderer.hpp</text>
</a>
</g>
</g>
<!-- Node3&#45;&gt;Node5 -->
<g id="edge5" class="edge">
<title>Node3&#45;&gt;Node5</title>
<path fill="none" stroke="midnightblue" d="M91.52,-129.63C142.67,-102.84 235.2,-54.37 280.73,-30.52"/>
<polygon fill="midnightblue" stroke="midnightblue" points="89.7,-126.63 82.47,-134.37 92.95,-132.83 89.7,-126.63"/>
</g>
<!-- Node4&#45;&gt;Node5 -->
<g id="edge4" class="edge">
<title>Node4&#45;&gt;Node5</title>
<path fill="none" stroke="midnightblue" d="M307.5,-57.11C307.5,-48.15 307.5,-38.32 307.5,-30.58"/>
<polygon fill="midnightblue" stroke="midnightblue" points="304,-57.4 307.5,-67.4 311,-57.4 304,-57.4"/>
</g>
<!-- Node6&#45;&gt;Node4 -->
<g id="edge7" class="edge">
<title>Node6&#45;&gt;Node4</title>
<path fill="none" stroke="midnightblue" d="M135.38,-258.06C131.4,-225.88 129.65,-169.27 158.5,-134 181.16,-106.31 219.64,-93.73 251.82,-88.05"/>
<polygon fill="midnightblue" stroke="midnightblue" points="131.96,-258.94 136.83,-268.35 138.9,-257.96 131.96,-258.94"/>
</g>
<!-- Node8 -->
<g id="node8" class="node">
<title>Node8</title>
<g id="a_node8"><a xlink:href="_framebuffer_8hpp.html" target="_top" xlink:title=" ">
<polygon fill="none" stroke="black" points="336,-134.5 336,-164.5 447,-164.5 447,-134.5 336,-134.5"/>
<text text-anchor="start" x="344" y="-152.5" font-family="Helvetica,sans-Serif" font-size="10.00">include/york/Graphics</text>
<text text-anchor="middle" x="391.5" y="-141.5" font-family="Helvetica,sans-Serif" font-size="10.00">/Framebuffer.hpp</text>
</a>
</g>
</g>
<!-- Node7&#45;&gt;Node8 -->
<g id="edge9" class="edge">
<title>Node7&#45;&gt;Node8</title>
<path fill="none" stroke="midnightblue" d="M305.41,-325C303.91,-294.03 305.23,-240.04 327.5,-201 336.26,-185.63 351.73,-173.23 365.26,-164.56"/>
<polygon fill="midnightblue" stroke="midnightblue" points="301.93,-325.54 306.05,-335.3 308.92,-325.1 301.93,-325.54"/>
</g>
<!-- Node7&#45;&gt;Node9 -->
<g id="edge12" class="edge">
<title>Node7&#45;&gt;Node9</title>
<path fill="none" stroke="midnightblue" d="M333.78,-329.17C346.62,-319.23 361.76,-307.51 373.31,-298.58"/>
<polygon fill="midnightblue" stroke="midnightblue" points="331.49,-326.51 325.73,-335.4 335.78,-332.04 331.49,-326.51"/>
</g>
<!-- Node8&#45;&gt;Node4 -->
<g id="edge10" class="edge">
<title>Node8&#45;&gt;Node4</title>
<path fill="none" stroke="midnightblue" d="M365.22,-128.17C352.38,-118.23 337.24,-106.51 325.69,-97.58"/>
<polygon fill="midnightblue" stroke="midnightblue" points="363.22,-131.04 373.27,-134.4 367.51,-125.51 363.22,-131.04"/>
</g>
<!-- Node8&#45;&gt;Node5 -->
<g id="edge11" class="edge">
<title>Node8&#45;&gt;Node5</title>
<path fill="none" stroke="midnightblue" d="M390.1,-124.11C388.14,-106.99 383.49,-84.16 372.5,-67 362.79,-51.84 346.89,-39.37 333.25,-30.61"/>
<polygon fill="midnightblue" stroke="midnightblue" points="386.65,-124.79 391.04,-134.43 393.62,-124.16 386.65,-124.79"/>
</g>
<!-- Node9&#45;&gt;Node4 -->
<g id="edge13" class="edge">
<title>Node9&#45;&gt;Node4</title>
<path fill="none" stroke="midnightblue" d="M356.85,-262.7C345.72,-254.61 334.48,-244.25 327.5,-232 302.5,-188.16 303.9,-125.49 306.05,-97.7"/>
<polygon fill="midnightblue" stroke="midnightblue" points="355.03,-265.69 365.26,-268.44 358.97,-259.91 355.03,-265.69"/>
</g>
<!-- Node10 -->
<g id="node10" class="node">
<title>Node10</title>
<g id="a_node10"><a xlink:href="_pipeline_8hpp.html" target="_top" xlink:title=" ">
<polygon fill="none" stroke="black" points="465,-134.5 465,-164.5 576,-164.5 576,-134.5 465,-134.5"/>
<text text-anchor="start" x="473" y="-152.5" font-family="Helvetica,sans-Serif" font-size="10.00">include/york/Graphics</text>
<text text-anchor="middle" x="520.5" y="-141.5" font-family="Helvetica,sans-Serif" font-size="10.00">/Pipeline.hpp</text>
</a>
</g>
</g>
<!-- Node9&#45;&gt;Node10 -->
<g id="edge14" class="edge">
<title>Node9&#45;&gt;Node10</title>
<path fill="none" stroke="midnightblue" d="M420.38,-262.45C432.12,-253.7 445.49,-242.95 456.5,-232 478.18,-210.43 499.29,-181.57 511.03,-164.61"/>
<polygon fill="midnightblue" stroke="midnightblue" points="418.18,-259.72 412.17,-268.44 422.31,-265.37 418.18,-259.72"/>
</g>
<!-- Node11 -->
<g id="node11" class="node">
<title>Node11</title>
<g id="a_node11"><a xlink:href="_render_pass_8hpp.html" target="_top" xlink:title=" ">
<polygon fill="none" stroke="black" points="336,-201.5 336,-231.5 447,-231.5 447,-201.5 336,-201.5"/>
<text text-anchor="start" x="344" y="-219.5" font-family="Helvetica,sans-Serif" font-size="10.00">include/york/Graphics</text>
<text text-anchor="middle" x="391.5" y="-208.5" font-family="Helvetica,sans-Serif" font-size="10.00">/RenderPass.hpp</text>
</a>
</g>
</g>
<!-- Node9&#45;&gt;Node11 -->
<g id="edge16" class="edge">
<title>Node9&#45;&gt;Node11</title>
<path fill="none" stroke="midnightblue" d="M391.5,-258.11C391.5,-249.15 391.5,-239.32 391.5,-231.58"/>
<polygon fill="midnightblue" stroke="midnightblue" points="388,-258.4 391.5,-268.4 395,-258.4 388,-258.4"/>
</g>
<!-- Node10&#45;&gt;Node5 -->
<g id="edge15" class="edge">
<title>Node10&#45;&gt;Node5</title>
<path fill="none" stroke="midnightblue" d="M490.29,-128.9C464.46,-112.22 426.22,-87.75 392.5,-67 372.18,-54.5 348.87,-40.68 331.8,-30.67"/>
<polygon fill="midnightblue" stroke="midnightblue" points="488.59,-131.96 498.89,-134.45 492.39,-126.08 488.59,-131.96"/>
</g>
<!-- Node11&#45;&gt;Node8 -->
<g id="edge17" class="edge">
<title>Node11&#45;&gt;Node8</title>
<path fill="none" stroke="midnightblue" d="M391.5,-191.11C391.5,-182.15 391.5,-172.32 391.5,-164.58"/>
<polygon fill="midnightblue" stroke="midnightblue" points="388,-191.4 391.5,-201.4 395,-191.4 388,-191.4"/>
</g>
<!-- Node11&#45;&gt;Node10 -->
<g id="edge18" class="edge">
<title>Node11&#45;&gt;Node10</title>
<path fill="none" stroke="midnightblue" d="M428.51,-196.85C448.9,-186.58 473.81,-174.03 492.56,-164.58"/>
<polygon fill="midnightblue" stroke="midnightblue" points="426.85,-193.77 419.49,-201.4 430,-200.02 426.85,-193.77"/>
</g>
<!-- Node12&#45;&gt;Node10 -->
<g id="edge20" class="edge">
<title>Node12&#45;&gt;Node10</title>
<path fill="none" stroke="midnightblue" d="M497.67,-325.27C503.15,-283.29 514.25,-198.33 518.65,-164.68"/>
<polygon fill="midnightblue" stroke="midnightblue" points="494.19,-324.82 496.37,-335.19 501.14,-325.73 494.19,-324.82"/>
</g>
<!-- Node13&#45;&gt;Node4 -->
<g id="edge22" class="edge">
<title>Node13&#45;&gt;Node4</title>
<path fill="none" stroke="midnightblue" d="M249.78,-128.17C262.62,-118.23 277.76,-106.51 289.31,-97.58"/>
<polygon fill="midnightblue" stroke="midnightblue" points="247.49,-125.51 241.73,-134.4 251.78,-131.04 247.49,-125.51"/>
</g>
<!-- Node13&#45;&gt;Node5 -->
<g id="edge23" class="edge">
<title>Node13&#45;&gt;Node5</title>
<path fill="none" stroke="midnightblue" d="M224.9,-124.11C226.86,-106.99 231.51,-84.16 242.5,-67 252.21,-51.84 268.11,-39.37 281.75,-30.61"/>
<polygon fill="midnightblue" stroke="midnightblue" points="221.38,-124.16 223.96,-134.43 228.35,-124.79 221.38,-124.16"/>
</g>
<!-- Node14&#45;&gt;Node10 -->
<g id="edge25" class="edge">
<title>Node14&#45;&gt;Node10</title>
<path fill="none" stroke="midnightblue" d="M573.08,-194.88C561.38,-185.01 547.66,-173.43 537.18,-164.58"/>
<polygon fill="midnightblue" stroke="midnightblue" points="570.89,-197.62 580.79,-201.4 575.41,-192.27 570.89,-197.62"/>
</g>
<!-- Node15&#45;&gt;Node2 -->
<g id="edge28" class="edge">
<title>Node15&#45;&gt;Node2</title>
<path fill="none" stroke="midnightblue" d="M305.28,-529.21C297.39,-520.99 289.66,-510.92 285.5,-500 276.74,-476.99 288.95,-449.08 298.38,-432.61"/>
<polygon fill="midnightblue" stroke="midnightblue" points="302.87,-531.74 312.48,-536.21 307.75,-526.73 302.87,-531.74"/>
</g>
<!-- Node16 -->
<g id="node16" class="node">
<title>Node16</title>
<g id="a_node16"><a xlink:href="_surface_8hpp.html" target="_top" xlink:title=" ">
<polygon fill="none" stroke="black" points="294,-469.5 294,-499.5 405,-499.5 405,-469.5 294,-469.5"/>
<text text-anchor="start" x="302" y="-487.5" font-family="Helvetica,sans-Serif" font-size="10.00">include/york/Graphics</text>
<text text-anchor="middle" x="349.5" y="-476.5" font-family="Helvetica,sans-Serif" font-size="10.00">/Surface.hpp</text>
</a>
</g>
</g>
<!-- Node15&#45;&gt;Node16 -->
<g id="edge29" class="edge">
<title>Node15&#45;&gt;Node16</title>
<path fill="none" stroke="midnightblue" d="M337.46,-526.7C340.12,-517.59 343.07,-507.49 345.39,-499.58"/>
<polygon fill="midnightblue" stroke="midnightblue" points="334.07,-525.82 334.62,-536.4 340.79,-527.78 334.07,-525.82"/>
</g>
<!-- Node16&#45;&gt;Node2 -->
<g id="edge30" class="edge">
<title>Node16&#45;&gt;Node2</title>
<path fill="none" stroke="midnightblue" d="M334.88,-460.87C328.8,-451.46 321.93,-440.83 316.6,-432.58"/>
<polygon fill="midnightblue" stroke="midnightblue" points="332.02,-462.9 340.39,-469.4 337.9,-459.1 332.02,-462.9"/>
</g>
<!-- Node17&#45;&gt;Node2 -->
<g id="edge32" class="edge">
<title>Node17&#45;&gt;Node2</title>
<path fill="none" stroke="midnightblue" d="M431.98,-465.82C404.5,-455.37 370.17,-442.32 344.53,-432.58"/>
<polygon fill="midnightblue" stroke="midnightblue" points="430.8,-469.11 441.4,-469.4 433.29,-462.57 430.8,-469.11"/>
</g>
</g>
</svg>
