<?xml version="1.0" encoding="UTF-8" standalone="no"?>
<!DOCTYPE svg PUBLIC "-//W3C//DTD SVG 1.1//EN"
 "http://www.w3.org/Graphics/SVG/1.1/DTD/svg11.dtd">
<!-- Generated by graphviz version 2.50.0 (20211204.2007)
 -->
<!-- Title: include/york/Graphics/Semaphore.hpp Pages: 1 -->
<svg width="616pt" height="487pt"
 viewBox="0.00 0.00 615.50 487.00" xmlns="http://www.w3.org/2000/svg" xmlns:xlink="http://www.w3.org/1999/xlink">
<g id="graph0" class="graph" transform="scale(1 1) rotate(0) translate(4 483)">
<title>include/york/Graphics/Semaphore.hpp</title>
<!-- Node1 -->
<g id="node1" class="node">
<title>Node1</title>
<g id="a_node1"><a xlink:title=" ">
<polygon fill="#bfbfbf" stroke="black" points="0,-448.5 0,-478.5 111,-478.5 111,-448.5 0,-448.5"/>
<text text-anchor="start" x="8" y="-466.5" font-family="Helvetica,sans-Serif" font-size="10.00">include/york/Graphics</text>
<text text-anchor="middle" x="55.5" y="-455.5" font-family="Helvetica,sans-Serif" font-size="10.00">/Semaphore.hpp</text>
</a>
</g>
</g>
<!-- Node2 -->
<g id="node2" class="node">
<title>Node2</title>
<g id="a_node2"><a xlink:href="_handle_8hpp.html" target="_top" xlink:title="Contains the declarations for the Handle classes which form the basis of our Vulkan implementation.">
<polygon fill="none" stroke="black" points="217.5,-112.5 217.5,-131.5 283.5,-131.5 283.5,-112.5 217.5,-112.5"/>
<text text-anchor="middle" x="250.5" y="-119.5" font-family="Helvetica,sans-Serif" font-size="10.00">Handle.hpp</text>
</a>
</g>
</g>
<!-- Node1&#45;&gt;Node2 -->
<g id="edge1" class="edge">
<title>Node1&#45;&gt;Node2</title>
<path fill="none" stroke="midnightblue" d="M47.63,-448.41C36.5,-427.13 17.5,-385.21 17.5,-347 17.5,-347 17.5,-347 17.5,-233 17.5,-150.2 139.31,-129.63 206.78,-124.59"/>
<polygon fill="midnightblue" stroke="midnightblue" points="207.37,-128.05 217.12,-123.9 206.91,-121.07 207.37,-128.05"/>
</g>
<!-- Node7 -->
<g id="node7" class="node">
<title>Node7</title>
<g id="a_node7"><a xlink:href="_device_8hpp.html" target="_top" xlink:title=" ">
<polygon fill="none" stroke="black" points="229.5,-392.5 229.5,-411.5 295.5,-411.5 295.5,-392.5 229.5,-392.5"/>
<text text-anchor="middle" x="262.5" y="-399.5" font-family="Helvetica,sans-Serif" font-size="10.00">Device.hpp</text>
</a>
</g>
</g>
<!-- Node1&#45;&gt;Node7 -->
<g id="edge6" class="edge">
<title>Node1&#45;&gt;Node7</title>
<path fill="none" stroke="midnightblue" d="M104.29,-448.47C140.47,-438.08 189.17,-424.08 222.94,-414.37"/>
<polygon fill="midnightblue" stroke="midnightblue" points="224.26,-417.63 232.91,-411.51 222.33,-410.91 224.26,-417.63"/>
</g>
<!-- Node9 -->
<g id="node9" class="node">
<title>Node9</title>
<g id="a_node9"><a xlink:title=" ">
<polygon fill="none" stroke="#bfbfbf" points="122,-168.5 122,-187.5 217,-187.5 217,-168.5 122,-168.5"/>
<text text-anchor="middle" x="169.5" y="-175.5" font-family="Helvetica,sans-Serif" font-size="10.00">vulkan/vulkan.hpp</text>
</a>
</g>
</g>
<!-- Node1&#45;&gt;Node9 -->
<g id="edge32" class="edge">
<title>Node1&#45;&gt;Node9</title>
<path fill="none" stroke="midnightblue" d="M55.5,-448.28C55.5,-426.48 55.5,-383.49 55.5,-347 55.5,-347 55.5,-347 55.5,-289 55.5,-242.11 106.05,-208.89 139.83,-191.93"/>
<polygon fill="midnightblue" stroke="midnightblue" points="141.37,-195.07 148.86,-187.58 138.33,-188.77 141.37,-195.07"/>
</g>
<!-- Node3 -->
<g id="node3" class="node">
<title>Node3</title>
<g id="a_node3"><a xlink:title=" ">
<polygon fill="none" stroke="#bfbfbf" points="404.5,-56.5 404.5,-75.5 448.5,-75.5 448.5,-56.5 404.5,-56.5"/>
<text text-anchor="middle" x="426.5" y="-63.5" font-family="Helvetica,sans-Serif" font-size="10.00">vector</text>
</a>
</g>
</g>
<!-- Node2&#45;&gt;Node3 -->
<g id="edge2" class="edge">
<title>Node2&#45;&gt;Node3</title>
<path fill="none" stroke="midnightblue" d="M278.39,-112.44C310.01,-102.74 361.47,-86.95 394.65,-76.77"/>
<polygon fill="midnightblue" stroke="midnightblue" points="395.78,-80.09 404.32,-73.81 393.73,-73.39 395.78,-80.09"/>
</g>
<!-- Node4 -->
<g id="node4" class="node">
<title>Node4</title>
<g id="a_node4"><a xlink:title=" ">
<polygon fill="none" stroke="#bfbfbf" points="317,-56.5 317,-75.5 376,-75.5 376,-56.5 317,-56.5"/>
<text text-anchor="middle" x="346.5" y="-63.5" font-family="Helvetica,sans-Serif" font-size="10.00">functional</text>
</a>
</g>
</g>
<!-- Node2&#45;&gt;Node4 -->
<g id="edge3" class="edge">
<title>Node2&#45;&gt;Node4</title>
<path fill="none" stroke="midnightblue" d="M265.92,-112.32C281.04,-103.82 304.32,-90.73 321.97,-80.8"/>
<polygon fill="midnightblue" stroke="midnightblue" points="324.11,-83.61 331.11,-75.65 320.68,-77.51 324.11,-83.61"/>
</g>
<!-- Node5 -->
<g id="node5" class="node">
<title>Node5</title>
<g id="a_node5"><a xlink:href="_identifiable_8hpp.html" target="_top" xlink:title=" ">
<polygon fill="none" stroke="black" points="194.5,-56.5 194.5,-75.5 298.5,-75.5 298.5,-56.5 194.5,-56.5"/>
<text text-anchor="middle" x="246.5" y="-63.5" font-family="Helvetica,sans-Serif" font-size="10.00">york/Identifiable.hpp</text>
</a>
</g>
</g>
<!-- Node2&#45;&gt;Node5 -->
<g id="edge4" class="edge">
<title>Node2&#45;&gt;Node5</title>
<path fill="none" stroke="midnightblue" d="M249.84,-112.08C249.32,-105.01 248.56,-94.86 247.91,-85.99"/>
<polygon fill="midnightblue" stroke="midnightblue" points="251.38,-85.47 247.15,-75.75 244.4,-85.98 251.38,-85.47"/>
</g>
<!-- Node6 -->
<g id="node6" class="node">
<title>Node6</title>
<g id="a_node6"><a xlink:title=" ">
<polygon fill="none" stroke="#bfbfbf" points="196,-0.5 196,-19.5 297,-19.5 297,-0.5 196,-0.5"/>
<text text-anchor="middle" x="246.5" y="-7.5" font-family="Helvetica,sans-Serif" font-size="10.00">boost/uuid/uuid.hpp</text>
</a>
</g>
</g>
<!-- Node5&#45;&gt;Node6 -->
<g id="edge5" class="edge">
<title>Node5&#45;&gt;Node6</title>
<path fill="none" stroke="midnightblue" d="M246.5,-56.08C246.5,-49.01 246.5,-38.86 246.5,-29.99"/>
<polygon fill="midnightblue" stroke="midnightblue" points="250,-29.75 246.5,-19.75 243,-29.75 250,-29.75"/>
</g>
<!-- Node7&#45;&gt;Node2 -->
<g id="edge9" class="edge">
<title>Node7&#45;&gt;Node2</title>
<path fill="none" stroke="midnightblue" d="M229.11,-394.9C179.86,-383.75 93.5,-355.06 93.5,-291 93.5,-291 93.5,-291 93.5,-233 93.5,-202.9 91.55,-189.61 112.5,-168 137.4,-142.32 177.12,-131.28 207.56,-126.54"/>
<polygon fill="midnightblue" stroke="midnightblue" points="208.07,-130.01 217.5,-125.17 207.11,-123.07 208.07,-130.01"/>
</g>
<!-- Node8 -->
<g id="node8" class="node">
<title>Node8</title>
<g id="a_node8"><a xlink:title=" ">
<polygon fill="none" stroke="#bfbfbf" points="507.5,-336.5 507.5,-355.5 547.5,-355.5 547.5,-336.5 507.5,-336.5"/>
<text text-anchor="middle" x="527.5" y="-343.5" font-family="Helvetica,sans-Serif" font-size="10.00">utility</text>
</a>
</g>
</g>
<!-- Node7&#45;&gt;Node8 -->
<g id="edge7" class="edge">
<title>Node7&#45;&gt;Node8</title>
<path fill="none" stroke="midnightblue" d="M295.54,-395.28C340.51,-387.32 423.41,-372.08 493.5,-356 494.77,-355.71 496.07,-355.4 497.38,-355.09"/>
<polygon fill="midnightblue" stroke="midnightblue" points="498.58,-358.39 507.42,-352.55 496.87,-351.61 498.58,-358.39"/>
</g>
<!-- Node7&#45;&gt;Node9 -->
<g id="edge8" class="edge">
<title>Node7&#45;&gt;Node9</title>
<path fill="none" stroke="midnightblue" d="M229.08,-395.78C205.8,-390.21 176.34,-378.86 161.5,-356 129.31,-306.41 149.96,-231.51 162.26,-197.26"/>
<polygon fill="midnightblue" stroke="midnightblue" points="165.63,-198.24 165.88,-187.65 159.08,-195.78 165.63,-198.24"/>
</g>
<!-- Node10 -->
<g id="node10" class="node">
<title>Node10</title>
<g id="a_node10"><a xlink:href="_instance_8hpp.html" target="_top" xlink:title=" ">
<polygon fill="none" stroke="black" points="321,-224.5 321,-243.5 394,-243.5 394,-224.5 321,-224.5"/>
<text text-anchor="middle" x="357.5" y="-231.5" font-family="Helvetica,sans-Serif" font-size="10.00">Instance.hpp</text>
</a>
</g>
</g>
<!-- Node7&#45;&gt;Node10 -->
<g id="edge10" class="edge">
<title>Node7&#45;&gt;Node10</title>
<path fill="none" stroke="midnightblue" d="M272.07,-392.33C289.37,-376.06 325.69,-339.06 343.5,-300 350.17,-285.38 353.72,-267.44 355.58,-254.11"/>
<polygon fill="midnightblue" stroke="midnightblue" points="359.1,-254.13 356.81,-243.79 352.15,-253.3 359.1,-254.13"/>
</g>
<!-- Node12 -->
<g id="node12" class="node">
<title>Node12</title>
<g id="a_node12"><a xlink:href="_requestable_item_8hpp.html" target="_top" xlink:title=" ">
<polygon fill="none" stroke="black" points="497.5,-168.5 497.5,-187.5 607.5,-187.5 607.5,-168.5 497.5,-168.5"/>
<text text-anchor="middle" x="552.5" y="-175.5" font-family="Helvetica,sans-Serif" font-size="10.00">RequestableItem.hpp</text>
</a>
</g>
</g>
<!-- Node7&#45;&gt;Node12 -->
<g id="edge30" class="edge">
<title>Node7&#45;&gt;Node12</title>
<path fill="none" stroke="midnightblue" d="M276.06,-392.34C289.75,-383.5 311.4,-369.23 329.5,-356 407.45,-299.02 496.28,-225.94 534,-194.51"/>
<polygon fill="midnightblue" stroke="midnightblue" points="536.62,-196.88 542.06,-187.78 532.14,-191.5 536.62,-196.88"/>
</g>
<!-- Node15 -->
<g id="node15" class="node">
<title>Node15</title>
<g id="a_node15"><a xlink:href="_physical_device_8hpp.html" target="_top" xlink:title=" ">
<polygon fill="none" stroke="black" points="170.5,-336.5 170.5,-355.5 274.5,-355.5 274.5,-336.5 170.5,-336.5"/>
<text text-anchor="middle" x="222.5" y="-343.5" font-family="Helvetica,sans-Serif" font-size="10.00">PhysicalDevice.hpp</text>
</a>
</g>
</g>
<!-- Node7&#45;&gt;Node15 -->
<g id="edge21" class="edge">
<title>Node7&#45;&gt;Node15</title>
<path fill="none" stroke="midnightblue" d="M255.89,-392.08C250.24,-384.46 241.96,-373.26 235.05,-363.94"/>
<polygon fill="midnightblue" stroke="midnightblue" points="237.75,-361.7 228.98,-355.75 232.12,-365.87 237.75,-361.7"/>
</g>
<!-- Node17 -->
<g id="node17" class="node">
<title>Node17</title>
<g id="a_node17"><a xlink:href="_surface_8hpp.html" target="_top" xlink:title=" ">
<polygon fill="none" stroke="black" points="266,-280.5 266,-299.5 335,-299.5 335,-280.5 266,-280.5"/>
<text text-anchor="middle" x="300.5" y="-287.5" font-family="Helvetica,sans-Serif" font-size="10.00">Surface.hpp</text>
</a>
</g>
</g>
<!-- Node7&#45;&gt;Node17 -->
<g id="edge31" class="edge">
<title>Node7&#45;&gt;Node17</title>
<path fill="none" stroke="midnightblue" d="M267.17,-392.24C271.79,-383.31 278.82,-368.98 283.5,-356 289.01,-340.72 293.56,-322.84 296.55,-309.7"/>
<polygon fill="midnightblue" stroke="midnightblue" points="300.05,-310.08 298.78,-299.56 293.22,-308.58 300.05,-310.08"/>
</g>
<!-- Node10&#45;&gt;Node2 -->
<g id="edge14" class="edge">
<title>Node10&#45;&gt;Node2</title>
<path fill="none" stroke="midnightblue" d="M345.52,-224.36C333.95,-215.75 316.21,-201.86 302.5,-188 287.64,-172.97 272.79,-153.9 262.78,-140.31"/>
<polygon fill="midnightblue" stroke="midnightblue" points="265.39,-137.94 256.69,-131.89 259.72,-142.05 265.39,-137.94"/>
</g>
<!-- Node10&#45;&gt;Node3 -->
<g id="edge12" class="edge">
<title>Node10&#45;&gt;Node3</title>
<path fill="none" stroke="midnightblue" d="M373.35,-224.35C385.92,-216.59 402.79,-203.96 411.5,-188 429.27,-155.44 429.74,-110.76 428.27,-85.8"/>
<polygon fill="midnightblue" stroke="midnightblue" points="431.74,-85.26 427.48,-75.56 424.76,-85.8 431.74,-85.26"/>
</g>
<!-- Node10&#45;&gt;Node9 -->
<g id="edge13" class="edge">
<title>Node10&#45;&gt;Node9</title>
<path fill="none" stroke="midnightblue" d="M327.71,-224.44C295.67,-215.24 244.57,-200.56 209.15,-190.39"/>
<polygon fill="midnightblue" stroke="midnightblue" points="209.73,-186.91 199.15,-187.52 207.79,-193.64 209.73,-186.91"/>
</g>
<!-- Node11 -->
<g id="node11" class="node">
<title>Node11</title>
<g id="a_node11"><a xlink:title=" ">
<polygon fill="none" stroke="#bfbfbf" points="460,-112.5 460,-131.5 501,-131.5 501,-112.5 460,-112.5"/>
<text text-anchor="middle" x="480.5" y="-119.5" font-family="Helvetica,sans-Serif" font-size="10.00">string</text>
</a>
</g>
</g>
<!-- Node10&#45;&gt;Node11 -->
<g id="edge11" class="edge">
<title>Node10&#45;&gt;Node11</title>
<path fill="none" stroke="midnightblue" d="M383.55,-224.47C402.56,-217.2 427.97,-205.17 445.5,-188 458.93,-174.85 468.46,-155.44 474.15,-141.26"/>
<polygon fill="midnightblue" stroke="midnightblue" points="477.53,-142.21 477.75,-131.62 470.97,-139.76 477.53,-142.21"/>
</g>
<!-- Node10&#45;&gt;Node12 -->
<g id="edge15" class="edge">
<title>Node10&#45;&gt;Node12</title>
<path fill="none" stroke="midnightblue" d="M388.4,-224.44C421.77,-215.2 475.09,-200.44 511.85,-190.26"/>
<polygon fill="midnightblue" stroke="midnightblue" points="513.04,-193.56 521.75,-187.52 511.17,-186.81 513.04,-193.56"/>
</g>
<!-- Node13 -->
<g id="node13" class="node">
<title>Node13</title>
<g id="a_node13"><a xlink:href="_window_8hpp.html" target="_top" xlink:title=" ">
<polygon fill="none" stroke="black" points="312,-168.5 312,-187.5 403,-187.5 403,-168.5 312,-168.5"/>
<text text-anchor="middle" x="357.5" y="-175.5" font-family="Helvetica,sans-Serif" font-size="10.00">york/Window.hpp</text>
</a>
</g>
</g>
<!-- Node10&#45;&gt;Node13 -->
<g id="edge17" class="edge">
<title>Node10&#45;&gt;Node13</title>
<path fill="none" stroke="midnightblue" d="M357.5,-224.08C357.5,-217.01 357.5,-206.86 357.5,-197.99"/>
<polygon fill="midnightblue" stroke="midnightblue" points="361,-197.75 357.5,-187.75 354,-197.75 361,-197.75"/>
</g>
<!-- Node12&#45;&gt;Node11 -->
<g id="edge16" class="edge">
<title>Node12&#45;&gt;Node11</title>
<path fill="none" stroke="midnightblue" d="M540.93,-168.32C530.08,-160.18 513.62,-147.84 500.62,-138.09"/>
<polygon fill="midnightblue" stroke="midnightblue" points="502.38,-135.03 492.28,-131.83 498.18,-140.63 502.38,-135.03"/>
</g>
<!-- Node13&#45;&gt;Node2 -->
<g id="edge20" class="edge">
<title>Node13&#45;&gt;Node2</title>
<path fill="none" stroke="midnightblue" d="M340.31,-168.32C323.15,-159.66 296.55,-146.24 276.75,-136.25"/>
<polygon fill="midnightblue" stroke="midnightblue" points="278.15,-133.04 267.65,-131.65 275,-139.28 278.15,-133.04"/>
</g>
<!-- Node13&#45;&gt;Node11 -->
<g id="edge18" class="edge">
<title>Node13&#45;&gt;Node11</title>
<path fill="none" stroke="midnightblue" d="M376.99,-168.44C397.14,-159.6 428.82,-145.69 451.83,-135.59"/>
<polygon fill="midnightblue" stroke="midnightblue" points="453.35,-138.74 461.1,-131.52 450.54,-132.33 453.35,-138.74"/>
</g>
<!-- Node14 -->
<g id="node14" class="node">
<title>Node14</title>
<g id="a_node14"><a xlink:title=" ">
<polygon fill="none" stroke="#bfbfbf" points="321,-112.5 321,-131.5 394,-131.5 394,-112.5 321,-112.5"/>
<text text-anchor="middle" x="357.5" y="-119.5" font-family="Helvetica,sans-Serif" font-size="10.00">SDL_video.h</text>
</a>
</g>
</g>
<!-- Node13&#45;&gt;Node14 -->
<g id="edge19" class="edge">
<title>Node13&#45;&gt;Node14</title>
<path fill="none" stroke="midnightblue" d="M357.5,-168.08C357.5,-161.01 357.5,-150.86 357.5,-141.99"/>
<polygon fill="midnightblue" stroke="midnightblue" points="361,-141.75 357.5,-131.75 354,-141.75 361,-141.75"/>
</g>
<!-- Node15&#45;&gt;Node9 -->
<g id="edge23" class="edge">
<title>Node15&#45;&gt;Node9</title>
<path fill="none" stroke="midnightblue" d="M213.72,-336.2C205.79,-327.7 194.47,-314.06 188.5,-300 174.01,-265.87 170.45,-222.09 169.64,-197.65"/>
<polygon fill="midnightblue" stroke="midnightblue" points="173.14,-197.53 169.44,-187.6 166.14,-197.67 173.14,-197.53"/>
</g>
<!-- Node15&#45;&gt;Node12 -->
<g id="edge29" class="edge">
<title>Node15&#45;&gt;Node12</title>
<path fill="none" stroke="midnightblue" d="M250.55,-336.35C275.51,-328.24 312.72,-315.12 343.5,-300 400.84,-271.83 409.97,-255.59 465.5,-224 485.45,-212.65 508.56,-200.76 525.94,-192.05"/>
<polygon fill="midnightblue" stroke="midnightblue" points="527.56,-195.15 534.95,-187.56 524.44,-188.89 527.56,-195.15"/>
</g>
<!-- Node16 -->
<g id="node16" class="node">
<title>Node16</title>
<g id="a_node16"><a xlink:title=" ">
<polygon fill="none" stroke="#bfbfbf" points="197.5,-280.5 197.5,-299.5 247.5,-299.5 247.5,-280.5 197.5,-280.5"/>
<text text-anchor="middle" x="222.5" y="-287.5" font-family="Helvetica,sans-Serif" font-size="10.00">optional</text>
</a>
</g>
</g>
<!-- Node15&#45;&gt;Node16 -->
<g id="edge22" class="edge">
<title>Node15&#45;&gt;Node16</title>
<path fill="none" stroke="midnightblue" d="M222.5,-336.08C222.5,-329.01 222.5,-318.86 222.5,-309.99"/>
<polygon fill="midnightblue" stroke="midnightblue" points="226,-309.75 222.5,-299.75 219,-309.75 226,-309.75"/>
</g>
<!-- Node15&#45;&gt;Node17 -->
<g id="edge24" class="edge">
<title>Node15&#45;&gt;Node17</title>
<path fill="none" stroke="midnightblue" d="M235.03,-336.32C247.09,-327.98 265.53,-315.21 279.77,-305.35"/>
<polygon fill="midnightblue" stroke="midnightblue" points="281.77,-308.22 288,-299.65 277.78,-302.47 281.77,-308.22"/>
</g>
<!-- Node17&#45;&gt;Node2 -->
<g id="edge27" class="edge">
<title>Node17&#45;&gt;Node2</title>
<path fill="none" stroke="midnightblue" d="M297.81,-280.08C289.94,-253.95 266.83,-177.21 256.1,-141.58"/>
<polygon fill="midnightblue" stroke="midnightblue" points="259.32,-140.13 253.08,-131.57 252.61,-142.15 259.32,-140.13"/>
</g>
<!-- Node17&#45;&gt;Node9 -->
<g id="edge25" class="edge">
<title>Node17&#45;&gt;Node9</title>
<path fill="none" stroke="midnightblue" d="M285.27,-280.45C270.81,-272.03 248.77,-258.35 231.5,-244 213.42,-228.98 195.14,-209.11 183.16,-195.32"/>
<polygon fill="midnightblue" stroke="midnightblue" points="185.73,-192.94 176.58,-187.61 180.41,-197.48 185.73,-192.94"/>
</g>
<!-- Node17&#45;&gt;Node10 -->
<g id="edge28" class="edge">
<title>Node17&#45;&gt;Node10</title>
<path fill="none" stroke="midnightblue" d="M309.66,-280.32C318,-272.42 330.53,-260.55 340.68,-250.94"/>
<polygon fill="midnightblue" stroke="midnightblue" points="343.32,-253.25 348.18,-243.83 338.51,-248.17 343.32,-253.25"/>
</g>
<!-- Node17&#45;&gt;Node13 -->
<g id="edge26" class="edge">
<title>Node17&#45;&gt;Node13</title>
<path fill="none" stroke="midnightblue" d="M300.31,-280.47C300.36,-267.52 301.84,-242.46 311.5,-224 317.53,-212.48 327.58,-202.13 336.75,-194.28"/>
<polygon fill="midnightblue" stroke="midnightblue" points="339.2,-196.8 344.79,-187.8 334.81,-191.35 339.2,-196.8"/>
</g>
</g>
</svg>
