<?xml version="1.0" encoding="UTF-8" standalone="no"?>
<!DOCTYPE svg PUBLIC "-//W3C//DTD SVG 1.1//EN"
 "http://www.w3.org/Graphics/SVG/1.1/DTD/svg11.dtd">
<!-- Generated by graphviz version 2.50.0 (20211204.2007)
 -->
<!-- Title: include/york/Graphics/Shader.hpp Pages: 1 -->
<svg width="120pt" height="173pt"
 viewBox="0.00 0.00 120.00 173.00" xmlns="http://www.w3.org/2000/svg" xmlns:xlink="http://www.w3.org/1999/xlink">
<g id="graph0" class="graph" transform="scale(1 1) rotate(0) translate(4 169)">
<title>include/york/Graphics/Shader.hpp</title>
<!-- Node1 -->
<g id="node1" class="node">
<title>Node1</title>
<g id="a_node1"><a xlink:title=" ">
<polygon fill="#bfbfbf" stroke="black" points="0.5,-134.5 0.5,-164.5 111.5,-164.5 111.5,-134.5 0.5,-134.5"/>
<text text-anchor="start" x="8.5" y="-152.5" font-family="Helvetica,sans-Serif" font-size="10.00">include/york/Graphics</text>
<text text-anchor="middle" x="56" y="-141.5" font-family="Helvetica,sans-Serif" font-size="10.00">/Shader.hpp</text>
</a>
</g>
</g>
<!-- Node2 -->
<g id="node2" class="node">
<title>Node2</title>
<g id="a_node2"><a xlink:href="_pipeline_8hpp.html" target="_top" xlink:title=" ">
<polygon fill="none" stroke="black" points="0.5,-67.5 0.5,-97.5 111.5,-97.5 111.5,-67.5 0.5,-67.5"/>
<text text-anchor="start" x="8.5" y="-85.5" font-family="Helvetica,sans-Serif" font-size="10.00">include/york/Graphics</text>
<text text-anchor="middle" x="56" y="-74.5" font-family="Helvetica,sans-Serif" font-size="10.00">/Pipeline.hpp</text>
</a>
</g>
</g>
<!-- Node1&#45;&gt;Node2 -->
<g id="edge1" class="edge">
<title>Node1&#45;&gt;Node2</title>
<path fill="none" stroke="midnightblue" d="M56,-124.11C56,-115.15 56,-105.32 56,-97.58"/>
<polygon fill="midnightblue" stroke="midnightblue" points="52.5,-124.4 56,-134.4 59.5,-124.4 52.5,-124.4"/>
</g>
<!-- Node3 -->
<g id="node3" class="node">
<title>Node3</title>
<g id="a_node3"><a xlink:href="_renderer_8hpp.html" target="_top" xlink:title=" ">
<polygon fill="none" stroke="black" points="0,-0.5 0,-30.5 112,-30.5 112,-0.5 0,-0.5"/>
<text text-anchor="start" x="8" y="-18.5" font-family="Helvetica,sans-Serif" font-size="10.00">include/york/Renderer</text>
<text text-anchor="middle" x="56" y="-7.5" font-family="Helvetica,sans-Serif" font-size="10.00">/Renderer.hpp</text>
</a>
</g>
</g>
<!-- Node2&#45;&gt;Node3 -->
<g id="edge2" class="edge">
<title>Node2&#45;&gt;Node3</title>
<path fill="none" stroke="midnightblue" d="M56,-57.11C56,-48.15 56,-38.32 56,-30.58"/>
<polygon fill="midnightblue" stroke="midnightblue" points="52.5,-57.4 56,-67.4 59.5,-57.4 52.5,-57.4"/>
</g>
</g>
</svg>
