<?xml version="1.0" encoding="UTF-8" standalone="no"?>
<!DOCTYPE svg PUBLIC "-//W3C//DTD SVG 1.1//EN"
 "http://www.w3.org/Graphics/SVG/1.1/DTD/svg11.dtd">
<!-- Generated by graphviz version 2.50.0 (20211204.2007)
 -->
<!-- Title: include/york/Graphics/SwapChain.hpp Pages: 1 -->
<svg width="290pt" height="307pt"
 viewBox="0.00 0.00 290.00 307.00" xmlns="http://www.w3.org/2000/svg" xmlns:xlink="http://www.w3.org/1999/xlink">
<g id="graph0" class="graph" transform="scale(1 1) rotate(0) translate(4 303)">
<title>include/york/Graphics/SwapChain.hpp</title>
<!-- Node1 -->
<g id="node1" class="node">
<title>Node1</title>
<g id="a_node1"><a xlink:title=" ">
<polygon fill="#bfbfbf" stroke="black" points="118,-268.5 118,-298.5 229,-298.5 229,-268.5 118,-268.5"/>
<text text-anchor="start" x="126" y="-286.5" font-family="Helvetica,sans-Serif" font-size="10.00">include/york/Graphics</text>
<text text-anchor="middle" x="173.5" y="-275.5" font-family="Helvetica,sans-Serif" font-size="10.00">/SwapChain.hpp</text>
</a>
</g>
</g>
<!-- Node2 -->
<g id="node2" class="node">
<title>Node2</title>
<g id="a_node2"><a xlink:href="_frame_data_8hpp.html" target="_top" xlink:title=" ">
<polygon fill="none" stroke="black" points="171,-67.5 171,-97.5 282,-97.5 282,-67.5 171,-67.5"/>
<text text-anchor="start" x="179" y="-85.5" font-family="Helvetica,sans-Serif" font-size="10.00">include/york/Graphics</text>
<text text-anchor="middle" x="226.5" y="-74.5" font-family="Helvetica,sans-Serif" font-size="10.00">/FrameData.hpp</text>
</a>
</g>
</g>
<!-- Node1&#45;&gt;Node2 -->
<g id="edge1" class="edge">
<title>Node1&#45;&gt;Node2</title>
<path fill="none" stroke="midnightblue" d="M208.49,-262.68C219.77,-254.59 231.22,-244.23 238.5,-232 260.9,-194.33 258.79,-176.83 249.5,-134 246.68,-121.01 240.22,-107.35 234.86,-97.52"/>
<polygon fill="midnightblue" stroke="midnightblue" points="206.31,-259.93 199.97,-268.42 210.22,-265.74 206.31,-259.93"/>
</g>
<!-- Node4 -->
<g id="node4" class="node">
<title>Node4</title>
<g id="a_node4"><a xlink:href="_pipeline_8hpp.html" target="_top" xlink:title=" ">
<polygon fill="none" stroke="black" points="0,-134.5 0,-164.5 111,-164.5 111,-134.5 0,-134.5"/>
<text text-anchor="start" x="8" y="-152.5" font-family="Helvetica,sans-Serif" font-size="10.00">include/york/Graphics</text>
<text text-anchor="middle" x="55.5" y="-141.5" font-family="Helvetica,sans-Serif" font-size="10.00">/Pipeline.hpp</text>
</a>
</g>
</g>
<!-- Node1&#45;&gt;Node4 -->
<g id="edge3" class="edge">
<title>Node1&#45;&gt;Node4</title>
<path fill="none" stroke="midnightblue" d="M143.6,-262.54C131.91,-253.93 118.85,-243.26 108.5,-232 89.08,-210.88 72.08,-181.87 62.85,-164.76"/>
<polygon fill="midnightblue" stroke="midnightblue" points="141.64,-265.44 151.81,-268.42 145.72,-259.75 141.64,-265.44"/>
</g>
<!-- Node5 -->
<g id="node5" class="node">
<title>Node5</title>
<g id="a_node5"><a xlink:href="_render_pass_8hpp.html" target="_top" xlink:title=" ">
<polygon fill="none" stroke="black" points="118,-201.5 118,-231.5 229,-231.5 229,-201.5 118,-201.5"/>
<text text-anchor="start" x="126" y="-219.5" font-family="Helvetica,sans-Serif" font-size="10.00">include/york/Graphics</text>
<text text-anchor="middle" x="173.5" y="-208.5" font-family="Helvetica,sans-Serif" font-size="10.00">/RenderPass.hpp</text>
</a>
</g>
</g>
<!-- Node1&#45;&gt;Node5 -->
<g id="edge5" class="edge">
<title>Node1&#45;&gt;Node5</title>
<path fill="none" stroke="midnightblue" d="M173.5,-258.11C173.5,-249.15 173.5,-239.32 173.5,-231.58"/>
<polygon fill="midnightblue" stroke="midnightblue" points="170,-258.4 173.5,-268.4 177,-258.4 170,-258.4"/>
</g>
<!-- Node3 -->
<g id="node3" class="node">
<title>Node3</title>
<g id="a_node3"><a xlink:href="_renderer_8hpp.html" target="_top" xlink:title=" ">
<polygon fill="none" stroke="black" points="86.5,-0.5 86.5,-30.5 198.5,-30.5 198.5,-0.5 86.5,-0.5"/>
<text text-anchor="start" x="94.5" y="-18.5" font-family="Helvetica,sans-Serif" font-size="10.00">include/york/Renderer</text>
<text text-anchor="middle" x="142.5" y="-7.5" font-family="Helvetica,sans-Serif" font-size="10.00">/Renderer.hpp</text>
</a>
</g>
</g>
<!-- Node2&#45;&gt;Node3 -->
<g id="edge2" class="edge">
<title>Node2&#45;&gt;Node3</title>
<path fill="none" stroke="midnightblue" d="M200.22,-61.17C187.38,-51.23 172.24,-39.51 160.69,-30.58"/>
<polygon fill="midnightblue" stroke="midnightblue" points="198.22,-64.04 208.27,-67.4 202.51,-58.51 198.22,-64.04"/>
</g>
<!-- Node4&#45;&gt;Node3 -->
<g id="edge4" class="edge">
<title>Node4&#45;&gt;Node3</title>
<path fill="none" stroke="midnightblue" d="M70.44,-125.83C88.48,-98.47 118.26,-53.28 133.26,-30.52"/>
<polygon fill="midnightblue" stroke="midnightblue" points="67.39,-124.1 64.81,-134.37 73.24,-127.95 67.39,-124.1"/>
</g>
<!-- Node5&#45;&gt;Node4 -->
<g id="edge9" class="edge">
<title>Node5&#45;&gt;Node4</title>
<path fill="none" stroke="midnightblue" d="M138.89,-196.44C120.38,-186.24 97.98,-173.9 81.05,-164.58"/>
<polygon fill="midnightblue" stroke="midnightblue" points="137.45,-199.64 147.9,-201.4 140.83,-193.51 137.45,-199.64"/>
</g>
<!-- Node6 -->
<g id="node6" class="node">
<title>Node6</title>
<g id="a_node6"><a xlink:href="_framebuffer_8hpp.html" target="_top" xlink:title=" ">
<polygon fill="none" stroke="black" points="129,-134.5 129,-164.5 240,-164.5 240,-134.5 129,-134.5"/>
<text text-anchor="start" x="137" y="-152.5" font-family="Helvetica,sans-Serif" font-size="10.00">include/york/Graphics</text>
<text text-anchor="middle" x="184.5" y="-141.5" font-family="Helvetica,sans-Serif" font-size="10.00">/Framebuffer.hpp</text>
</a>
</g>
</g>
<!-- Node5&#45;&gt;Node6 -->
<g id="edge6" class="edge">
<title>Node5&#45;&gt;Node6</title>
<path fill="none" stroke="midnightblue" d="M177.58,-191.4C179.11,-182.37 180.79,-172.41 182.12,-164.58"/>
<polygon fill="midnightblue" stroke="midnightblue" points="174.1,-190.95 175.89,-201.4 181.01,-192.12 174.1,-190.95"/>
</g>
<!-- Node6&#45;&gt;Node2 -->
<g id="edge7" class="edge">
<title>Node6&#45;&gt;Node2</title>
<path fill="none" stroke="midnightblue" d="M199.12,-125.87C205.2,-116.46 212.07,-105.83 217.4,-97.58"/>
<polygon fill="midnightblue" stroke="midnightblue" points="196.1,-124.1 193.61,-134.4 201.98,-127.9 196.1,-124.1"/>
</g>
<!-- Node6&#45;&gt;Node3 -->
<g id="edge8" class="edge">
<title>Node6&#45;&gt;Node3</title>
<path fill="none" stroke="midnightblue" d="M172.65,-125.05C168.73,-116.66 164.58,-107.05 161.5,-98 153.63,-74.89 147.91,-47.02 144.9,-30.58"/>
<polygon fill="midnightblue" stroke="midnightblue" points="169.58,-126.74 177.08,-134.22 175.88,-123.7 169.58,-126.74"/>
</g>
</g>
</svg>
