<?xml version="1.0" encoding="UTF-8" standalone="no"?>
<!DOCTYPE svg PUBLIC "-//W3C//DTD SVG 1.1//EN"
 "http://www.w3.org/Graphics/SVG/1.1/DTD/svg11.dtd">
<!-- Generated by graphviz version 3.0.0 (20220413.0106)
 -->
<!-- Title: include/york/York.hpp Pages: 1 -->
<svg width="1001pt" height="308pt"
 viewBox="0.00 0.00 1001.00 308.00" xmlns="http://www.w3.org/2000/svg" xmlns:xlink="http://www.w3.org/1999/xlink">
<g id="graph0" class="graph" transform="scale(1 1) rotate(0) translate(4 304)">
<title>include/york/York.hpp</title>
<!-- Node1 -->
<g id="node1" class="node">
<title>Node1</title>
<g id="a_node1"><a xlink:title=" ">
<polygon fill="#bfbfbf" stroke="black" points="470,-280.5 470,-299.5 580,-299.5 580,-280.5 470,-280.5"/>
<text text-anchor="middle" x="525" y="-287.5" font-family="Helvetica,sans-Serif" font-size="10.00">include/york/York.hpp</text>
</a>
</g>
</g>
<!-- Node2 -->
<g id="node2" class="node">
<title>Node2</title>
<g id="a_node2"><a xlink:href="_asset_8hpp.html" target="_top" xlink:title=" ">
<polygon fill="none" stroke="black" points="76,-224.5 76,-243.5 136,-243.5 136,-224.5 76,-224.5"/>
<text text-anchor="middle" x="106" y="-231.5" font-family="Helvetica,sans-Serif" font-size="10.00">Asset.hpp</text>
</a>
</g>
</g>
<!-- Node1&#45;&gt;Node2 -->
<g id="edge1" class="edge">
<title>Node1&#45;&gt;Node2</title>
<path fill="none" stroke="midnightblue" d="M469.79,-281.88C384.15,-270.85 221.33,-249.86 146.03,-240.16"/>
<polygon fill="midnightblue" stroke="midnightblue" points="146.37,-236.67 136.01,-238.87 145.48,-243.62 146.37,-236.67"/>
</g>
<!-- Node8 -->
<g id="node8" class="node">
<title>Node8</title>
<g id="a_node8"><a xlink:href="_async_8hpp.html" target="_top" xlink:title=" ">
<polygon fill="none" stroke="black" points="534,-224.5 534,-243.5 596,-243.5 596,-224.5 534,-224.5"/>
<text text-anchor="middle" x="565" y="-231.5" font-family="Helvetica,sans-Serif" font-size="10.00">Async.hpp</text>
</a>
</g>
</g>
<!-- Node1&#45;&gt;Node8 -->
<g id="edge7" class="edge">
<title>Node1&#45;&gt;Node8</title>
<path fill="none" stroke="midnightblue" d="M531.61,-280.08C537.26,-272.46 545.54,-261.26 552.45,-251.94"/>
<polygon fill="midnightblue" stroke="midnightblue" points="555.38,-253.87 558.52,-243.75 549.75,-249.7 555.38,-253.87"/>
</g>
<!-- Node11 -->
<g id="node11" class="node">
<title>Node11</title>
<g id="a_node11"><a xlink:href="_event_8hpp.html" target="_top" xlink:title=" ">
<polygon fill="none" stroke="black" points="366.5,-168.5 366.5,-187.5 425.5,-187.5 425.5,-168.5 366.5,-168.5"/>
<text text-anchor="middle" x="396" y="-175.5" font-family="Helvetica,sans-Serif" font-size="10.00">Event.hpp</text>
</a>
</g>
</g>
<!-- Node1&#45;&gt;Node11 -->
<g id="edge10" class="edge">
<title>Node1&#45;&gt;Node11</title>
<path fill="none" stroke="midnightblue" d="M505.73,-280.46C489.08,-272.51 464.95,-259.57 447,-244 430.98,-230.1 416.45,-210.57 407.03,-196.55"/>
<polygon fill="midnightblue" stroke="midnightblue" points="409.77,-194.34 401.38,-187.87 403.9,-198.16 409.77,-194.34"/>
</g>
<!-- Node17 -->
<g id="node17" class="node">
<title>Node17</title>
<g id="a_node17"><a xlink:href="_layer_8hpp.html" target="_top" xlink:title=" ">
<polygon fill="none" stroke="black" points="456.5,-224.5 456.5,-243.5 515.5,-243.5 515.5,-224.5 456.5,-224.5"/>
<text text-anchor="middle" x="486" y="-231.5" font-family="Helvetica,sans-Serif" font-size="10.00">Layer.hpp</text>
</a>
</g>
</g>
<!-- Node1&#45;&gt;Node17 -->
<g id="edge19" class="edge">
<title>Node1&#45;&gt;Node17</title>
<path fill="none" stroke="midnightblue" d="M518.56,-280.08C513.05,-272.46 504.97,-261.26 498.24,-251.94"/>
<polygon fill="midnightblue" stroke="midnightblue" points="501.01,-249.81 492.32,-243.75 495.34,-253.91 501.01,-249.81"/>
</g>
<!-- Node18 -->
<g id="node18" class="node">
<title>Node18</title>
<g id="a_node18"><a xlink:href="_log_8hpp.html" target="_top" xlink:title=" ">
<polygon fill="none" stroke="black" points="754.5,-224.5 754.5,-243.5 805.5,-243.5 805.5,-224.5 754.5,-224.5"/>
<text text-anchor="middle" x="780" y="-231.5" font-family="Helvetica,sans-Serif" font-size="10.00">Log.hpp</text>
</a>
</g>
</g>
<!-- Node1&#45;&gt;Node18 -->
<g id="edge22" class="edge">
<title>Node1&#45;&gt;Node18</title>
<path fill="none" stroke="midnightblue" d="M565.41,-280.44C614.63,-270.02 697.02,-252.57 744.11,-242.6"/>
<polygon fill="midnightblue" stroke="midnightblue" points="745.09,-245.97 754.15,-240.47 743.64,-239.12 745.09,-245.97"/>
</g>
<!-- Node22 -->
<g id="node22" class="node">
<title>Node22</title>
<g id="a_node22"><a xlink:href="_stop_watch_8hpp.html" target="_top" xlink:title=" ">
<polygon fill="none" stroke="black" points="893.5,-224.5 893.5,-243.5 976.5,-243.5 976.5,-224.5 893.5,-224.5"/>
<text text-anchor="middle" x="935" y="-231.5" font-family="Helvetica,sans-Serif" font-size="10.00">StopWatch.hpp</text>
</a>
</g>
</g>
<!-- Node1&#45;&gt;Node22 -->
<g id="edge26" class="edge">
<title>Node1&#45;&gt;Node22</title>
<path fill="none" stroke="midnightblue" d="M580.29,-281.72C659.89,-271.23 805.69,-252.03 883.26,-241.81"/>
<polygon fill="midnightblue" stroke="midnightblue" points="883.83,-245.27 893.28,-240.49 882.91,-238.33 883.83,-245.27"/>
</g>
<!-- Node3 -->
<g id="node3" class="node">
<title>Node3</title>
<g id="a_node3"><a xlink:title=" ">
<polygon fill="none" stroke="#bfbfbf" points="36.5,-168.5 36.5,-187.5 77.5,-187.5 77.5,-168.5 36.5,-168.5"/>
<text text-anchor="middle" x="57" y="-175.5" font-family="Helvetica,sans-Serif" font-size="10.00">string</text>
</a>
</g>
</g>
<!-- Node2&#45;&gt;Node3 -->
<g id="edge2" class="edge">
<title>Node2&#45;&gt;Node3</title>
<path fill="none" stroke="midnightblue" d="M97.91,-224.08C90.84,-216.3 80.41,-204.8 71.85,-195.37"/>
<polygon fill="midnightblue" stroke="midnightblue" points="74.25,-192.8 64.94,-187.75 69.07,-197.51 74.25,-192.8"/>
</g>
<!-- Node4 -->
<g id="node4" class="node">
<title>Node4</title>
<g id="a_node4"><a xlink:href="_containers_8hpp.html" target="_top" xlink:title=" ">
<polygon fill="none" stroke="black" points="84.5,-56.5 84.5,-75.5 165.5,-75.5 165.5,-56.5 84.5,-56.5"/>
<text text-anchor="middle" x="125" y="-63.5" font-family="Helvetica,sans-Serif" font-size="10.00">Containers.hpp</text>
</a>
</g>
</g>
<!-- Node2&#45;&gt;Node4 -->
<g id="edge3" class="edge">
<title>Node2&#45;&gt;Node4</title>
<path fill="none" stroke="midnightblue" d="M107.02,-224.08C110.01,-197.95 118.8,-121.21 122.87,-85.58"/>
<polygon fill="midnightblue" stroke="midnightblue" points="126.36,-85.9 124.02,-75.57 119.4,-85.11 126.36,-85.9"/>
</g>
<!-- Node5 -->
<g id="node5" class="node">
<title>Node5</title>
<g id="a_node5"><a xlink:title=" ">
<polygon fill="none" stroke="#bfbfbf" points="0,-0.5 0,-19.5 44,-19.5 44,-0.5 0,-0.5"/>
<text text-anchor="middle" x="22" y="-7.5" font-family="Helvetica,sans-Serif" font-size="10.00">vector</text>
</a>
</g>
</g>
<!-- Node4&#45;&gt;Node5 -->
<g id="edge4" class="edge">
<title>Node4&#45;&gt;Node5</title>
<path fill="none" stroke="midnightblue" d="M108.45,-56.32C92.01,-47.7 66.57,-34.36 47.53,-24.39"/>
<polygon fill="midnightblue" stroke="midnightblue" points="48.99,-21.2 38.51,-19.65 45.74,-27.4 48.99,-21.2"/>
</g>
<!-- Node6 -->
<g id="node6" class="node">
<title>Node6</title>
<g id="a_node6"><a xlink:title=" ">
<polygon fill="none" stroke="#bfbfbf" points="62,-0.5 62,-19.5 188,-19.5 188,-0.5 62,-0.5"/>
<text text-anchor="middle" x="125" y="-7.5" font-family="Helvetica,sans-Serif" font-size="10.00">boost/pool/pool_alloc.hpp</text>
</a>
</g>
</g>
<!-- Node4&#45;&gt;Node6 -->
<g id="edge5" class="edge">
<title>Node4&#45;&gt;Node6</title>
<path fill="none" stroke="midnightblue" d="M125,-56.08C125,-49.01 125,-38.86 125,-29.99"/>
<polygon fill="midnightblue" stroke="midnightblue" points="128.5,-29.75 125,-19.75 121.5,-29.75 128.5,-29.75"/>
</g>
<!-- Node7 -->
<g id="node7" class="node">
<title>Node7</title>
<g id="a_node7"><a xlink:title=" ">
<polygon fill="none" stroke="#bfbfbf" points="206,-0.5 206,-19.5 328,-19.5 328,-0.5 206,-0.5"/>
<text text-anchor="middle" x="267" y="-7.5" font-family="Helvetica,sans-Serif" font-size="10.00">boost/circular_buffer.hpp</text>
</a>
</g>
</g>
<!-- Node4&#45;&gt;Node7 -->
<g id="edge6" class="edge">
<title>Node4&#45;&gt;Node7</title>
<path fill="none" stroke="midnightblue" d="M147.5,-56.44C171.08,-47.48 208.32,-33.31 234.96,-23.18"/>
<polygon fill="midnightblue" stroke="midnightblue" points="236.5,-26.34 244.6,-19.52 234.01,-19.8 236.5,-26.34"/>
</g>
<!-- Node9 -->
<g id="node9" class="node">
<title>Node9</title>
<g id="a_node9"><a xlink:title=" ">
<polygon fill="none" stroke="#bfbfbf" points="202.5,-56.5 202.5,-75.5 261.5,-75.5 261.5,-56.5 202.5,-56.5"/>
<text text-anchor="middle" x="232" y="-63.5" font-family="Helvetica,sans-Serif" font-size="10.00">functional</text>
</a>
</g>
</g>
<!-- Node8&#45;&gt;Node9 -->
<g id="edge8" class="edge">
<title>Node8&#45;&gt;Node9</title>
<path fill="none" stroke="midnightblue" d="M566.43,-224.45C569.61,-202.28 574.66,-142.53 543,-112 505.06,-75.41 347.18,-68.42 272.06,-67.19"/>
<polygon fill="midnightblue" stroke="midnightblue" points="271.65,-63.68 261.6,-67.05 271.55,-70.68 271.65,-63.68"/>
</g>
<!-- Node10 -->
<g id="node10" class="node">
<title>Node10</title>
<g id="a_node10"><a xlink:title=" ">
<polygon fill="none" stroke="#bfbfbf" points="591,-168.5 591,-187.5 701,-187.5 701,-168.5 591,-168.5"/>
<text text-anchor="middle" x="646" y="-175.5" font-family="Helvetica,sans-Serif" font-size="10.00">taskflow/taskflow.hpp</text>
</a>
</g>
</g>
<!-- Node8&#45;&gt;Node10 -->
<g id="edge9" class="edge">
<title>Node8&#45;&gt;Node10</title>
<path fill="none" stroke="midnightblue" d="M578.01,-224.32C590.53,-215.98 609.68,-203.21 624.47,-193.35"/>
<polygon fill="midnightblue" stroke="midnightblue" points="626.64,-196.11 633.02,-187.65 622.76,-190.29 626.64,-196.11"/>
</g>
<!-- Node11&#45;&gt;Node9 -->
<g id="edge11" class="edge">
<title>Node11&#45;&gt;Node9</title>
<path fill="none" stroke="midnightblue" d="M366.21,-175.79C333.54,-172.85 281.68,-163.19 251,-132 239.03,-119.83 234.53,-100.56 232.87,-86.15"/>
<polygon fill="midnightblue" stroke="midnightblue" points="236.33,-85.57 232.06,-75.87 229.36,-86.12 236.33,-85.57"/>
</g>
<!-- Node12 -->
<g id="node12" class="node">
<title>Node12</title>
<g id="a_node12"><a xlink:title=" ">
<polygon fill="none" stroke="#bfbfbf" points="260,-112.5 260,-131.5 338,-131.5 338,-112.5 260,-112.5"/>
<text text-anchor="middle" x="299" y="-119.5" font-family="Helvetica,sans-Serif" font-size="10.00">SDL_events.h</text>
</a>
</g>
</g>
<!-- Node11&#45;&gt;Node12 -->
<g id="edge12" class="edge">
<title>Node11&#45;&gt;Node12</title>
<path fill="none" stroke="midnightblue" d="M380.42,-168.32C365,-159.74 341.19,-146.49 323.29,-136.52"/>
<polygon fill="midnightblue" stroke="midnightblue" points="324.99,-133.46 314.55,-131.65 321.58,-139.58 324.99,-133.46"/>
</g>
<!-- Node13 -->
<g id="node13" class="node">
<title>Node13</title>
<g id="a_node13"><a xlink:href="_key_codes_8hpp.html" target="_top" xlink:title=" ">
<polygon fill="none" stroke="black" points="356.5,-112.5 356.5,-131.5 435.5,-131.5 435.5,-112.5 356.5,-112.5"/>
<text text-anchor="middle" x="396" y="-119.5" font-family="Helvetica,sans-Serif" font-size="10.00">KeyCodes.hpp</text>
</a>
</g>
</g>
<!-- Node11&#45;&gt;Node13 -->
<g id="edge13" class="edge">
<title>Node11&#45;&gt;Node13</title>
<path fill="none" stroke="midnightblue" d="M396,-168.08C396,-161.01 396,-150.86 396,-141.99"/>
<polygon fill="midnightblue" stroke="midnightblue" points="399.5,-141.75 396,-131.75 392.5,-141.75 399.5,-141.75"/>
</g>
<!-- Node14 -->
<g id="node14" class="node">
<title>Node14</title>
<g id="a_node14"><a xlink:href="_identifiable_8hpp.html" target="_top" xlink:title=" ">
<polygon fill="none" stroke="black" points="453.5,-112.5 453.5,-131.5 534.5,-131.5 534.5,-112.5 453.5,-112.5"/>
<text text-anchor="middle" x="494" y="-119.5" font-family="Helvetica,sans-Serif" font-size="10.00">Identifiable.hpp</text>
</a>
</g>
</g>
<!-- Node11&#45;&gt;Node14 -->
<g id="edge14" class="edge">
<title>Node11&#45;&gt;Node14</title>
<path fill="none" stroke="midnightblue" d="M411.75,-168.32C427.32,-159.74 451.38,-146.49 469.46,-136.52"/>
<polygon fill="midnightblue" stroke="midnightblue" points="471.22,-139.55 478.29,-131.65 467.85,-133.42 471.22,-139.55"/>
</g>
<!-- Node16 -->
<g id="node16" class="node">
<title>Node16</title>
<g id="a_node16"><a xlink:href="_registry_8hpp.html" target="_top" xlink:title=" ">
<polygon fill="none" stroke="black" points="134,-112.5 134,-131.5 204,-131.5 204,-112.5 134,-112.5"/>
<text text-anchor="middle" x="169" y="-119.5" font-family="Helvetica,sans-Serif" font-size="10.00">Registry.hpp</text>
</a>
</g>
</g>
<!-- Node11&#45;&gt;Node16 -->
<g id="edge16" class="edge">
<title>Node11&#45;&gt;Node16</title>
<path fill="none" stroke="midnightblue" d="M366.32,-169.94C327.55,-160.72 259.3,-144.48 214.11,-133.73"/>
<polygon fill="midnightblue" stroke="midnightblue" points="214.82,-130.3 204.28,-131.39 213.2,-137.11 214.82,-130.3"/>
</g>
<!-- Node15 -->
<g id="node15" class="node">
<title>Node15</title>
<g id="a_node15"><a xlink:title=" ">
<polygon fill="none" stroke="#bfbfbf" points="443.5,-56.5 443.5,-75.5 544.5,-75.5 544.5,-56.5 443.5,-56.5"/>
<text text-anchor="middle" x="494" y="-63.5" font-family="Helvetica,sans-Serif" font-size="10.00">boost/uuid/uuid.hpp</text>
</a>
</g>
</g>
<!-- Node14&#45;&gt;Node15 -->
<g id="edge15" class="edge">
<title>Node14&#45;&gt;Node15</title>
<path fill="none" stroke="midnightblue" d="M494,-112.08C494,-105.01 494,-94.86 494,-85.99"/>
<polygon fill="midnightblue" stroke="midnightblue" points="497.5,-85.75 494,-75.75 490.5,-85.75 497.5,-85.75"/>
</g>
<!-- Node16&#45;&gt;Node4 -->
<g id="edge18" class="edge">
<title>Node16&#45;&gt;Node4</title>
<path fill="none" stroke="midnightblue" d="M161.73,-112.08C155.46,-104.38 146.21,-93.03 138.57,-83.65"/>
<polygon fill="midnightblue" stroke="midnightblue" points="141.16,-81.29 132.13,-75.75 135.73,-85.71 141.16,-81.29"/>
</g>
<!-- Node16&#45;&gt;Node9 -->
<g id="edge17" class="edge">
<title>Node16&#45;&gt;Node9</title>
<path fill="none" stroke="midnightblue" d="M179.12,-112.32C188.53,-104.26 202.74,-92.08 214.07,-82.37"/>
<polygon fill="midnightblue" stroke="midnightblue" points="216.38,-85 221.69,-75.83 211.82,-79.68 216.38,-85"/>
</g>
<!-- Node17&#45;&gt;Node11 -->
<g id="edge20" class="edge">
<title>Node17&#45;&gt;Node11</title>
<path fill="none" stroke="midnightblue" d="M471.54,-224.32C457.5,-215.9 435.95,-202.97 419.46,-193.07"/>
<polygon fill="midnightblue" stroke="midnightblue" points="420.8,-189.8 410.42,-187.65 417.2,-195.8 420.8,-189.8"/>
</g>
<!-- Node17&#45;&gt;Node14 -->
<g id="edge21" class="edge">
<title>Node17&#45;&gt;Node14</title>
<path fill="none" stroke="midnightblue" d="M486.63,-224.37C487.92,-206.62 490.9,-165.67 492.65,-141.6"/>
<polygon fill="midnightblue" stroke="midnightblue" points="496.14,-141.82 493.38,-131.59 489.16,-141.31 496.14,-141.82"/>
</g>
<!-- Node19 -->
<g id="node19" class="node">
<title>Node19</title>
<g id="a_node19"><a xlink:title=" ">
<polygon fill="none" stroke="#bfbfbf" points="719.5,-168.5 719.5,-187.5 770.5,-187.5 770.5,-168.5 719.5,-168.5"/>
<text text-anchor="middle" x="745" y="-175.5" font-family="Helvetica,sans-Serif" font-size="10.00">memory</text>
</a>
</g>
</g>
<!-- Node18&#45;&gt;Node19 -->
<g id="edge23" class="edge">
<title>Node18&#45;&gt;Node19</title>
<path fill="none" stroke="midnightblue" d="M774.22,-224.08C769.33,-216.53 762.17,-205.49 756.17,-196.23"/>
<polygon fill="midnightblue" stroke="midnightblue" points="759.05,-194.24 750.67,-187.75 753.17,-198.05 759.05,-194.24"/>
</g>
<!-- Node20 -->
<g id="node20" class="node">
<title>Node20</title>
<g id="a_node20"><a xlink:title=" ">
<polygon fill="none" stroke="#bfbfbf" points="789,-168.5 789,-187.5 851,-187.5 851,-168.5 789,-168.5"/>
<text text-anchor="middle" x="820" y="-175.5" font-family="Helvetica,sans-Serif" font-size="10.00">fmt/color.h</text>
</a>
</g>
</g>
<!-- Node18&#45;&gt;Node20 -->
<g id="edge24" class="edge">
<title>Node18&#45;&gt;Node20</title>
<path fill="none" stroke="midnightblue" d="M786.61,-224.08C792.26,-216.46 800.54,-205.26 807.45,-195.94"/>
<polygon fill="midnightblue" stroke="midnightblue" points="810.38,-197.87 813.52,-187.75 804.75,-193.7 810.38,-197.87"/>
</g>
<!-- Node21 -->
<g id="node21" class="node">
<title>Node21</title>
<g id="a_node21"><a xlink:title=" ">
<polygon fill="none" stroke="#bfbfbf" points="869,-168.5 869,-187.5 929,-187.5 929,-168.5 869,-168.5"/>
<text text-anchor="middle" x="899" y="-175.5" font-family="Helvetica,sans-Serif" font-size="10.00">fmt/core.h</text>
</a>
</g>
</g>
<!-- Node18&#45;&gt;Node21 -->
<g id="edge25" class="edge">
<title>Node18&#45;&gt;Node21</title>
<path fill="none" stroke="midnightblue" d="M798.86,-224.44C818.27,-215.64 848.73,-201.81 870.96,-191.72"/>
<polygon fill="midnightblue" stroke="midnightblue" points="872.57,-194.84 880.23,-187.52 869.68,-188.46 872.57,-194.84"/>
</g>
<!-- Node23 -->
<g id="node23" class="node">
<title>Node23</title>
<g id="a_node23"><a xlink:title=" ">
<polygon fill="none" stroke="#bfbfbf" points="947,-168.5 947,-187.5 993,-187.5 993,-168.5 947,-168.5"/>
<text text-anchor="middle" x="970" y="-175.5" font-family="Helvetica,sans-Serif" font-size="10.00">chrono</text>
</a>
</g>
</g>
<!-- Node22&#45;&gt;Node23 -->
<g id="edge27" class="edge">
<title>Node22&#45;&gt;Node23</title>
<path fill="none" stroke="midnightblue" d="M940.78,-224.08C945.67,-216.53 952.83,-205.49 958.83,-196.23"/>
<polygon fill="midnightblue" stroke="midnightblue" points="961.83,-198.05 964.33,-187.75 955.95,-194.24 961.83,-198.05"/>
</g>
</g>
</svg>
