<?xml version="1.0" encoding="UTF-8" standalone="no"?>
<!DOCTYPE svg PUBLIC "-//W3C//DTD SVG 1.1//EN"
 "http://www.w3.org/Graphics/SVG/1.1/DTD/svg11.dtd">
<!-- Generated by graphviz version 2.50.0 (20211204.2007)
 -->
<!-- Title: include/york/York.hpp Pages: 1 -->
<svg width="1013pt" height="252pt"
 viewBox="0.00 0.00 1012.50 252.00" xmlns="http://www.w3.org/2000/svg" xmlns:xlink="http://www.w3.org/1999/xlink">
<g id="graph0" class="graph" transform="scale(1 1) rotate(0) translate(4 248)">
<title>include/york/York.hpp</title>
<!-- Node1 -->
<g id="node1" class="node">
<title>Node1</title>
<g id="a_node1"><a xlink:title=" ">
<polygon fill="#bfbfbf" stroke="black" points="479.5,-224.5 479.5,-243.5 589.5,-243.5 589.5,-224.5 479.5,-224.5"/>
<text text-anchor="middle" x="534.5" y="-231.5" font-family="Helvetica,sans-Serif" font-size="10.00">include/york/York.hpp</text>
</a>
</g>
</g>
<!-- Node2 -->
<g id="node2" class="node">
<title>Node2</title>
<g id="a_node2"><a xlink:href="_asset_8hpp.html" target="_top" xlink:title=" ">
<polygon fill="none" stroke="black" points="39,-168.5 39,-187.5 100,-187.5 100,-168.5 39,-168.5"/>
<text text-anchor="middle" x="69.5" y="-175.5" font-family="Helvetica,sans-Serif" font-size="10.00">Asset.hpp</text>
</a>
</g>
</g>
<!-- Node1&#45;&gt;Node2 -->
<g id="edge1" class="edge">
<title>Node1&#45;&gt;Node2</title>
<path fill="none" stroke="midnightblue" d="M479.33,-226.59C384.74,-215.61 193.74,-193.43 110.19,-183.72"/>
<polygon fill="midnightblue" stroke="midnightblue" points="110.41,-180.23 100.07,-182.55 109.6,-187.18 110.41,-180.23"/>
</g>
<!-- Node5 -->
<g id="node5" class="node">
<title>Node5</title>
<g id="a_node5"><a xlink:href="_async_8hpp.html" target="_top" xlink:title=" ">
<polygon fill="none" stroke="black" points="543,-168.5 543,-187.5 606,-187.5 606,-168.5 543,-168.5"/>
<text text-anchor="middle" x="574.5" y="-175.5" font-family="Helvetica,sans-Serif" font-size="10.00">Async.hpp</text>
</a>
</g>
</g>
<!-- Node1&#45;&gt;Node5 -->
<g id="edge4" class="edge">
<title>Node1&#45;&gt;Node5</title>
<path fill="none" stroke="midnightblue" d="M541.11,-224.08C546.76,-216.46 555.04,-205.26 561.95,-195.94"/>
<polygon fill="midnightblue" stroke="midnightblue" points="564.88,-197.87 568.02,-187.75 559.25,-193.7 564.88,-197.87"/>
</g>
<!-- Node8 -->
<g id="node8" class="node">
<title>Node8</title>
<g id="a_node8"><a xlink:href="_event_8hpp.html" target="_top" xlink:title=" ">
<polygon fill="none" stroke="black" points="368,-112.5 368,-131.5 429,-131.5 429,-112.5 368,-112.5"/>
<text text-anchor="middle" x="398.5" y="-119.5" font-family="Helvetica,sans-Serif" font-size="10.00">Event.hpp</text>
</a>
</g>
</g>
<!-- Node1&#45;&gt;Node8 -->
<g id="edge7" class="edge">
<title>Node1&#45;&gt;Node8</title>
<path fill="none" stroke="midnightblue" d="M516.12,-224.5C499.61,-216.39 475.18,-203.19 456.5,-188 438.98,-173.75 422.17,-154.02 411.2,-140.04"/>
<polygon fill="midnightblue" stroke="midnightblue" points="413.75,-137.61 404.88,-131.8 408.19,-141.87 413.75,-137.61"/>
</g>
<!-- Node14 -->
<g id="node14" class="node">
<title>Node14</title>
<g id="a_node14"><a xlink:href="_layer_8hpp.html" target="_top" xlink:title=" ">
<polygon fill="none" stroke="black" points="466,-168.5 466,-187.5 525,-187.5 525,-168.5 466,-168.5"/>
<text text-anchor="middle" x="495.5" y="-175.5" font-family="Helvetica,sans-Serif" font-size="10.00">Layer.hpp</text>
</a>
</g>
</g>
<!-- Node1&#45;&gt;Node14 -->
<g id="edge17" class="edge">
<title>Node1&#45;&gt;Node14</title>
<path fill="none" stroke="midnightblue" d="M528.06,-224.08C522.55,-216.46 514.47,-205.26 507.74,-195.94"/>
<polygon fill="midnightblue" stroke="midnightblue" points="510.51,-193.81 501.82,-187.75 504.84,-197.91 510.51,-193.81"/>
</g>
<!-- Node15 -->
<g id="node15" class="node">
<title>Node15</title>
<g id="a_node15"><a xlink:href="_log_8hpp.html" target="_top" xlink:title=" ">
<polygon fill="none" stroke="black" points="764,-168.5 764,-187.5 815,-187.5 815,-168.5 764,-168.5"/>
<text text-anchor="middle" x="789.5" y="-175.5" font-family="Helvetica,sans-Serif" font-size="10.00">Log.hpp</text>
</a>
</g>
</g>
<!-- Node1&#45;&gt;Node15 -->
<g id="edge20" class="edge">
<title>Node1&#45;&gt;Node15</title>
<path fill="none" stroke="midnightblue" d="M574.91,-224.44C624.13,-214.02 706.52,-196.57 753.61,-186.6"/>
<polygon fill="midnightblue" stroke="midnightblue" points="754.59,-189.97 763.65,-184.47 753.14,-183.12 754.59,-189.97"/>
</g>
<!-- Node19 -->
<g id="node19" class="node">
<title>Node19</title>
<g id="a_node19"><a xlink:href="_stop_watch_8hpp.html" target="_top" xlink:title=" ">
<polygon fill="none" stroke="black" points="904,-168.5 904,-187.5 987,-187.5 987,-168.5 904,-168.5"/>
<text text-anchor="middle" x="945.5" y="-175.5" font-family="Helvetica,sans-Serif" font-size="10.00">StopWatch.hpp</text>
</a>
</g>
</g>
<!-- Node1&#45;&gt;Node19 -->
<g id="edge24" class="edge">
<title>Node1&#45;&gt;Node19</title>
<path fill="none" stroke="midnightblue" d="M589.5,-225.77C669.26,-215.29 815.97,-196.02 893.82,-185.79"/>
<polygon fill="midnightblue" stroke="midnightblue" points="894.42,-189.24 903.88,-184.47 893.51,-182.3 894.42,-189.24"/>
</g>
<!-- Node3 -->
<g id="node3" class="node">
<title>Node3</title>
<g id="a_node3"><a xlink:title=" ">
<polygon fill="none" stroke="#bfbfbf" points="0,-112.5 0,-131.5 41,-131.5 41,-112.5 0,-112.5"/>
<text text-anchor="middle" x="20.5" y="-119.5" font-family="Helvetica,sans-Serif" font-size="10.00">string</text>
</a>
</g>
</g>
<!-- Node2&#45;&gt;Node3 -->
<g id="edge2" class="edge">
<title>Node2&#45;&gt;Node3</title>
<path fill="none" stroke="midnightblue" d="M61.41,-168.08C54.34,-160.3 43.91,-148.8 35.35,-139.37"/>
<polygon fill="midnightblue" stroke="midnightblue" points="37.75,-136.8 28.44,-131.75 32.57,-141.51 37.75,-136.8"/>
</g>
<!-- Node4 -->
<g id="node4" class="node">
<title>Node4</title>
<g id="a_node4"><a xlink:title=" ">
<polygon fill="none" stroke="#bfbfbf" points="185.5,-0.5 185.5,-19.5 229.5,-19.5 229.5,-0.5 185.5,-0.5"/>
<text text-anchor="middle" x="207.5" y="-7.5" font-family="Helvetica,sans-Serif" font-size="10.00">vector</text>
</a>
</g>
</g>
<!-- Node2&#45;&gt;Node4 -->
<g id="edge3" class="edge">
<title>Node2&#45;&gt;Node4</title>
<path fill="none" stroke="midnightblue" d="M68.15,-168.22C65.32,-146.51 61.14,-89.66 88.5,-56 109.75,-29.86 147.92,-18.89 175.3,-14.3"/>
<polygon fill="midnightblue" stroke="midnightblue" points="175.83,-17.76 185.21,-12.83 174.81,-10.84 175.83,-17.76"/>
</g>
<!-- Node6 -->
<g id="node6" class="node">
<title>Node6</title>
<g id="a_node6"><a xlink:title=" ">
<polygon fill="none" stroke="#bfbfbf" points="389,-0.5 389,-19.5 448,-19.5 448,-0.5 389,-0.5"/>
<text text-anchor="middle" x="418.5" y="-7.5" font-family="Helvetica,sans-Serif" font-size="10.00">functional</text>
</a>
</g>
</g>
<!-- Node5&#45;&gt;Node6 -->
<g id="edge5" class="edge">
<title>Node5&#45;&gt;Node6</title>
<path fill="none" stroke="midnightblue" d="M575.64,-168.45C578.02,-146.78 581.14,-89.1 552.5,-56 546.08,-48.58 495.36,-32.86 458.22,-22.11"/>
<polygon fill="midnightblue" stroke="midnightblue" points="458.72,-18.62 448.15,-19.23 456.79,-25.35 458.72,-18.62"/>
</g>
<!-- Node7 -->
<g id="node7" class="node">
<title>Node7</title>
<g id="a_node7"><a xlink:title=" ">
<polygon fill="none" stroke="#bfbfbf" points="600.5,-112.5 600.5,-131.5 710.5,-131.5 710.5,-112.5 600.5,-112.5"/>
<text text-anchor="middle" x="655.5" y="-119.5" font-family="Helvetica,sans-Serif" font-size="10.00">taskflow/taskflow.hpp</text>
</a>
</g>
</g>
<!-- Node5&#45;&gt;Node7 -->
<g id="edge6" class="edge">
<title>Node5&#45;&gt;Node7</title>
<path fill="none" stroke="midnightblue" d="M587.51,-168.32C600.03,-159.98 619.18,-147.21 633.97,-137.35"/>
<polygon fill="midnightblue" stroke="midnightblue" points="636.14,-140.11 642.52,-131.65 632.26,-134.29 636.14,-140.11"/>
</g>
<!-- Node8&#45;&gt;Node4 -->
<g id="edge8" class="edge">
<title>Node8&#45;&gt;Node4</title>
<path fill="none" stroke="midnightblue" d="M367.73,-121.6C329.5,-120.64 264.68,-113.11 226.5,-76 214.13,-63.97 209.7,-44.37 208.17,-29.84"/>
<polygon fill="midnightblue" stroke="midnightblue" points="211.64,-29.24 207.47,-19.5 204.65,-29.72 211.64,-29.24"/>
</g>
<!-- Node8&#45;&gt;Node6 -->
<g id="edge9" class="edge">
<title>Node8&#45;&gt;Node6</title>
<path fill="none" stroke="midnightblue" d="M401.85,-112.18C405.11,-103.21 409.94,-88.84 412.5,-76 415.55,-60.7 417.06,-43.06 417.8,-30.02"/>
<polygon fill="midnightblue" stroke="midnightblue" points="421.3,-30.07 418.27,-19.92 414.3,-29.74 421.3,-30.07"/>
</g>
<!-- Node9 -->
<g id="node9" class="node">
<title>Node9</title>
<g id="a_node9"><a xlink:title=" ">
<polygon fill="none" stroke="#bfbfbf" points="325,-56.5 325,-75.5 404,-75.5 404,-56.5 325,-56.5"/>
<text text-anchor="middle" x="364.5" y="-63.5" font-family="Helvetica,sans-Serif" font-size="10.00">SDL_events.h</text>
</a>
</g>
</g>
<!-- Node8&#45;&gt;Node9 -->
<g id="edge10" class="edge">
<title>Node8&#45;&gt;Node9</title>
<path fill="none" stroke="midnightblue" d="M392.89,-112.08C388.13,-104.53 381.18,-93.49 375.35,-84.23"/>
<polygon fill="midnightblue" stroke="midnightblue" points="378.3,-82.35 370.01,-75.75 372.38,-86.08 378.3,-82.35"/>
</g>
<!-- Node10 -->
<g id="node10" class="node">
<title>Node10</title>
<g id="a_node10"><a xlink:href="_key_codes_8hpp.html" target="_top" xlink:title=" ">
<polygon fill="none" stroke="black" points="98,-56.5 98,-75.5 179,-75.5 179,-56.5 98,-56.5"/>
<text text-anchor="middle" x="138.5" y="-63.5" font-family="Helvetica,sans-Serif" font-size="10.00">KeyCodes.hpp</text>
</a>
</g>
</g>
<!-- Node8&#45;&gt;Node10 -->
<g id="edge11" class="edge">
<title>Node8&#45;&gt;Node10</title>
<path fill="none" stroke="midnightblue" d="M367.91,-114.65C323.9,-105.51 242.18,-88.53 189.09,-77.51"/>
<polygon fill="midnightblue" stroke="midnightblue" points="189.71,-74.06 179.2,-75.45 188.28,-80.91 189.71,-74.06"/>
</g>
<!-- Node11 -->
<g id="node11" class="node">
<title>Node11</title>
<g id="a_node11"><a xlink:href="_identifiable_8hpp.html" target="_top" xlink:title=" ">
<polygon fill="none" stroke="black" points="461,-56.5 461,-75.5 544,-75.5 544,-56.5 461,-56.5"/>
<text text-anchor="middle" x="502.5" y="-63.5" font-family="Helvetica,sans-Serif" font-size="10.00">Identifiable.hpp</text>
</a>
</g>
</g>
<!-- Node8&#45;&gt;Node11 -->
<g id="edge12" class="edge">
<title>Node8&#45;&gt;Node11</title>
<path fill="none" stroke="midnightblue" d="M415.21,-112.32C431.81,-103.7 457.5,-90.36 476.72,-80.39"/>
<polygon fill="midnightblue" stroke="midnightblue" points="478.57,-83.37 485.83,-75.65 475.34,-77.16 478.57,-83.37"/>
</g>
<!-- Node13 -->
<g id="node13" class="node">
<title>Node13</title>
<g id="a_node13"><a xlink:href="_registry_8hpp.html" target="_top" xlink:title=" ">
<polygon fill="none" stroke="black" points="236,-56.5 236,-75.5 307,-75.5 307,-56.5 236,-56.5"/>
<text text-anchor="middle" x="271.5" y="-63.5" font-family="Helvetica,sans-Serif" font-size="10.00">Registry.hpp</text>
</a>
</g>
</g>
<!-- Node8&#45;&gt;Node13 -->
<g id="edge14" class="edge">
<title>Node8&#45;&gt;Node13</title>
<path fill="none" stroke="midnightblue" d="M378.38,-112.44C357.48,-103.56 324.57,-89.56 300.78,-79.45"/>
<polygon fill="midnightblue" stroke="midnightblue" points="302.1,-76.21 291.53,-75.52 299.36,-82.65 302.1,-76.21"/>
</g>
<!-- Node12 -->
<g id="node12" class="node">
<title>Node12</title>
<g id="a_node12"><a xlink:title=" ">
<polygon fill="none" stroke="#bfbfbf" points="466,-0.5 466,-19.5 567,-19.5 567,-0.5 466,-0.5"/>
<text text-anchor="middle" x="516.5" y="-7.5" font-family="Helvetica,sans-Serif" font-size="10.00">boost/uuid/uuid.hpp</text>
</a>
</g>
</g>
<!-- Node11&#45;&gt;Node12 -->
<g id="edge13" class="edge">
<title>Node11&#45;&gt;Node12</title>
<path fill="none" stroke="midnightblue" d="M504.81,-56.08C506.67,-48.93 509.34,-38.64 511.65,-29.69"/>
<polygon fill="midnightblue" stroke="midnightblue" points="515.11,-30.31 514.23,-19.75 508.33,-28.55 515.11,-30.31"/>
</g>
<!-- Node13&#45;&gt;Node4 -->
<g id="edge15" class="edge">
<title>Node13&#45;&gt;Node4</title>
<path fill="none" stroke="midnightblue" d="M261.22,-56.32C251.66,-48.26 237.22,-36.08 225.72,-26.37"/>
<polygon fill="midnightblue" stroke="midnightblue" points="227.87,-23.61 217.97,-19.83 223.36,-28.96 227.87,-23.61"/>
</g>
<!-- Node13&#45;&gt;Node6 -->
<g id="edge16" class="edge">
<title>Node13&#45;&gt;Node6</title>
<path fill="none" stroke="midnightblue" d="M294.79,-56.44C319.31,-47.44 358.1,-33.19 385.7,-23.05"/>
<polygon fill="midnightblue" stroke="midnightblue" points="387.14,-26.25 395.32,-19.52 384.72,-19.68 387.14,-26.25"/>
</g>
<!-- Node14&#45;&gt;Node8 -->
<g id="edge18" class="edge">
<title>Node14&#45;&gt;Node8</title>
<path fill="none" stroke="midnightblue" d="M479.92,-168.32C464.5,-159.74 440.69,-146.49 422.79,-136.52"/>
<polygon fill="midnightblue" stroke="midnightblue" points="424.49,-133.46 414.05,-131.65 421.08,-139.58 424.49,-133.46"/>
</g>
<!-- Node14&#45;&gt;Node11 -->
<g id="edge19" class="edge">
<title>Node14&#45;&gt;Node11</title>
<path fill="none" stroke="midnightblue" d="M496.05,-168.37C497.18,-150.62 499.78,-109.67 501.32,-85.6"/>
<polygon fill="midnightblue" stroke="midnightblue" points="504.81,-85.79 501.95,-75.59 497.83,-85.35 504.81,-85.79"/>
</g>
<!-- Node16 -->
<g id="node16" class="node">
<title>Node16</title>
<g id="a_node16"><a xlink:title=" ">
<polygon fill="none" stroke="#bfbfbf" points="728.5,-112.5 728.5,-131.5 780.5,-131.5 780.5,-112.5 728.5,-112.5"/>
<text text-anchor="middle" x="754.5" y="-119.5" font-family="Helvetica,sans-Serif" font-size="10.00">memory</text>
</a>
</g>
</g>
<!-- Node15&#45;&gt;Node16 -->
<g id="edge21" class="edge">
<title>Node15&#45;&gt;Node16</title>
<path fill="none" stroke="midnightblue" d="M783.72,-168.08C778.83,-160.53 771.67,-149.49 765.67,-140.23"/>
<polygon fill="midnightblue" stroke="midnightblue" points="768.55,-138.24 760.17,-131.75 762.67,-142.05 768.55,-138.24"/>
</g>
<!-- Node17 -->
<g id="node17" class="node">
<title>Node17</title>
<g id="a_node17"><a xlink:title=" ">
<polygon fill="none" stroke="#bfbfbf" points="798.5,-112.5 798.5,-131.5 860.5,-131.5 860.5,-112.5 798.5,-112.5"/>
<text text-anchor="middle" x="829.5" y="-119.5" font-family="Helvetica,sans-Serif" font-size="10.00">fmt/color.h</text>
</a>
</g>
</g>
<!-- Node15&#45;&gt;Node17 -->
<g id="edge22" class="edge">
<title>Node15&#45;&gt;Node17</title>
<path fill="none" stroke="midnightblue" d="M796.11,-168.08C801.76,-160.46 810.04,-149.26 816.95,-139.94"/>
<polygon fill="midnightblue" stroke="midnightblue" points="819.88,-141.87 823.02,-131.75 814.25,-137.7 819.88,-141.87"/>
</g>
<!-- Node18 -->
<g id="node18" class="node">
<title>Node18</title>
<g id="a_node18"><a xlink:title=" ">
<polygon fill="none" stroke="#bfbfbf" points="879,-112.5 879,-131.5 940,-131.5 940,-112.5 879,-112.5"/>
<text text-anchor="middle" x="909.5" y="-119.5" font-family="Helvetica,sans-Serif" font-size="10.00">fmt/core.h</text>
</a>
</g>
</g>
<!-- Node15&#45;&gt;Node18 -->
<g id="edge23" class="edge">
<title>Node15&#45;&gt;Node18</title>
<path fill="none" stroke="midnightblue" d="M808.51,-168.44C828.09,-159.64 858.81,-145.81 881.23,-135.72"/>
<polygon fill="midnightblue" stroke="midnightblue" points="882.89,-138.81 890.57,-131.52 880.02,-132.43 882.89,-138.81"/>
</g>
<!-- Node20 -->
<g id="node20" class="node">
<title>Node20</title>
<g id="a_node20"><a xlink:title=" ">
<polygon fill="none" stroke="#bfbfbf" points="958.5,-112.5 958.5,-131.5 1004.5,-131.5 1004.5,-112.5 958.5,-112.5"/>
<text text-anchor="middle" x="981.5" y="-119.5" font-family="Helvetica,sans-Serif" font-size="10.00">chrono</text>
</a>
</g>
</g>
<!-- Node19&#45;&gt;Node20 -->
<g id="edge25" class="edge">
<title>Node19&#45;&gt;Node20</title>
<path fill="none" stroke="midnightblue" d="M951.44,-168.08C956.48,-160.53 963.84,-149.49 970.01,-140.23"/>
<polygon fill="midnightblue" stroke="midnightblue" points="973.03,-142.01 975.67,-131.75 967.21,-138.13 973.03,-142.01"/>
</g>
</g>
</svg>
