<?xml version="1.0" encoding="UTF-8" standalone="no"?>
<!DOCTYPE svg PUBLIC "-//W3C//DTD SVG 1.1//EN"
 "http://www.w3.org/Graphics/SVG/1.1/DTD/svg11.dtd">
<!-- Generated by graphviz version 2.50.0 (20211204.2007)
 -->
<!-- Title: york::Asset Pages: 1 -->
<svg width="360pt" height="84pt"
 viewBox="0.00 0.00 360.00 84.00" xmlns="http://www.w3.org/2000/svg" xmlns:xlink="http://www.w3.org/1999/xlink">
<g id="graph0" class="graph" transform="scale(1 1) rotate(0) translate(4 80)">
<title>york::Asset</title>
<!-- Node1 -->
<g id="node1" class="node">
<title>Node1</title>
<g id="a_node1"><a xlink:title="An Asset is any file that can be loaded by the engine.">
<polygon fill="#bfbfbf" stroke="black" points="156.5,-56.5 156.5,-75.5 223.5,-75.5 223.5,-56.5 156.5,-56.5"/>
<text text-anchor="middle" x="190" y="-63.5" font-family="Helvetica,sans-Serif" font-size="10.00">york::Asset</text>
</a>
</g>
</g>
<!-- Node2 -->
<g id="node2" class="node">
<title>Node2</title>
<g id="a_node2"><a xlink:href="classyork_1_1_binary_asset.html" target="_top" xlink:title="An asset that represents an in&#45;memory byte array.">
<polygon fill="none" stroke="black" points="0,-0.5 0,-19.5 120,-19.5 120,-0.5 0,-0.5"/>
<text text-anchor="middle" x="60" y="-7.5" font-family="Helvetica,sans-Serif" font-size="10.00">york::BinaryAsset&lt; N &gt;</text>
</a>
</g>
</g>
<!-- Node1&#45;&gt;Node2 -->
<g id="edge1" class="edge">
<title>Node1&#45;&gt;Node2</title>
<path fill="none" stroke="midnightblue" d="M159.91,-52.5C135.54,-42.38 101.86,-28.39 80.5,-19.52"/>
<polygon fill="midnightblue" stroke="midnightblue" points="158.82,-55.84 169.4,-56.44 161.51,-49.38 158.82,-55.84"/>
</g>
<!-- Node3 -->
<g id="node3" class="node">
<title>Node3</title>
<g id="a_node3"><a xlink:href="classyork_1_1_network_asset.html" target="_top" xlink:title="An asset to be fetched from the internet.">
<polygon fill="none" stroke="black" points="138,-0.5 138,-19.5 242,-19.5 242,-0.5 138,-0.5"/>
<text text-anchor="middle" x="190" y="-7.5" font-family="Helvetica,sans-Serif" font-size="10.00">york::NetworkAsset</text>
</a>
</g>
</g>
<!-- Node1&#45;&gt;Node3 -->
<g id="edge2" class="edge">
<title>Node1&#45;&gt;Node3</title>
<path fill="none" stroke="midnightblue" d="M190,-45.8C190,-36.91 190,-26.78 190,-19.75"/>
<polygon fill="midnightblue" stroke="midnightblue" points="186.5,-46.08 190,-56.08 193.5,-46.08 186.5,-46.08"/>
</g>
<!-- Node4 -->
<g id="node4" class="node">
<title>Node4</title>
<g id="a_node4"><a xlink:href="classyork_1_1_string_asset.html" target="_top" xlink:title="An that represents and in&#45;memory string.">
<polygon fill="none" stroke="black" points="260,-0.5 260,-19.5 352,-19.5 352,-0.5 260,-0.5"/>
<text text-anchor="middle" x="306" y="-7.5" font-family="Helvetica,sans-Serif" font-size="10.00">york::StringAsset</text>
</a>
</g>
</g>
<!-- Node1&#45;&gt;Node4 -->
<g id="edge3" class="edge">
<title>Node1&#45;&gt;Node4</title>
<path fill="none" stroke="midnightblue" d="M217.72,-52.1C239.39,-42.01 268.9,-28.27 287.71,-19.52"/>
<polygon fill="midnightblue" stroke="midnightblue" points="215.97,-49.05 208.38,-56.44 218.92,-55.4 215.97,-49.05"/>
</g>
</g>
</svg>
