<?xml version="1.0" encoding="UTF-8" standalone="no"?>
<!DOCTYPE svg PUBLIC "-//W3C//DTD SVG 1.1//EN"
 "http://www.w3.org/Graphics/SVG/1.1/DTD/svg11.dtd">
<!-- Generated by graphviz version 2.50.0 (20211204.2007)
 -->
<!-- Title: york::Identifiable Pages: 1 -->
<svg width="630pt" height="829pt"
 viewBox="0.00 0.00 630.00 829.00" xmlns="http://www.w3.org/2000/svg" xmlns:xlink="http://www.w3.org/1999/xlink">
<g id="graph0" class="graph" transform="scale(1 1) rotate(0) translate(4 825)">
<title>york::Identifiable</title>
<!-- Node1 -->
<g id="node1" class="node">
<title>Node1</title>
<g id="a_node1"><a xlink:title=" ">
<polygon fill="#bfbfbf" stroke="black" points="0,-408.5 0,-427.5 89,-427.5 89,-408.5 0,-408.5"/>
<text text-anchor="middle" x="44.5" y="-415.5" font-family="Helvetica,sans-Serif" font-size="10.00">york::Identifiable</text>
</a>
</g>
</g>
<!-- Node2 -->
<g id="node2" class="node">
<title>Node2</title>
<g id="a_node2"><a xlink:href="classyork_1_1_event_handler.html" target="_top" xlink:title="Override this to handle events.">
<polygon fill="none" stroke="black" points="143,-614.5 143,-633.5 244,-633.5 244,-614.5 143,-614.5"/>
<text text-anchor="middle" x="193.5" y="-621.5" font-family="Helvetica,sans-Serif" font-size="10.00">york::EventHandler</text>
</a>
</g>
</g>
<!-- Node1&#45;&gt;Node2 -->
<g id="edge1" class="edge">
<title>Node1&#45;&gt;Node2</title>
<path fill="none" stroke="midnightblue" d="M58.23,-435.84C88.18,-477.8 162.27,-581.64 185.45,-614.12"/>
<polygon fill="midnightblue" stroke="midnightblue" points="61.05,-433.77 52.39,-427.66 55.35,-437.83 61.05,-433.77"/>
</g>
<!-- Node4 -->
<g id="node4" class="node">
<title>Node4</title>
<g id="a_node4"><a xlink:href="classyork_1_1graphics_1_1_handle_base.html" target="_top" xlink:title=" ">
<polygon fill="none" stroke="black" points="125,-389.5 125,-408.5 262,-408.5 262,-389.5 125,-389.5"/>
<text text-anchor="middle" x="193.5" y="-396.5" font-family="Helvetica,sans-Serif" font-size="10.00">york::graphics::HandleBase</text>
</a>
</g>
</g>
<!-- Node1&#45;&gt;Node4 -->
<g id="edge3" class="edge">
<title>Node1&#45;&gt;Node4</title>
<path fill="none" stroke="midnightblue" d="M99.22,-411.06C107.6,-409.97 116.36,-408.84 125,-407.72"/>
<polygon fill="midnightblue" stroke="midnightblue" points="98.68,-407.6 89.21,-412.35 99.57,-414.54 98.68,-407.6"/>
</g>
<!-- Node3 -->
<g id="node3" class="node">
<title>Node3</title>
<g id="a_node3"><a xlink:href="classyork_1_1_layer.html" target="_top" xlink:title=" ">
<polygon fill="none" stroke="black" points="335,-801.5 335,-820.5 400,-820.5 400,-801.5 335,-801.5"/>
<text text-anchor="middle" x="367.5" y="-808.5" font-family="Helvetica,sans-Serif" font-size="10.00">york::Layer</text>
</a>
</g>
</g>
<!-- Node2&#45;&gt;Node3 -->
<g id="edge2" class="edge">
<title>Node2&#45;&gt;Node3</title>
<path fill="none" stroke="midnightblue" d="M200.97,-643.27C213.75,-678.35 245.64,-752.64 298,-792 308.65,-800.01 322.51,-804.64 334.97,-807.32"/>
<polygon fill="midnightblue" stroke="midnightblue" points="204.23,-642 197.61,-633.72 197.63,-644.32 204.23,-642"/>
</g>
<!-- Node5 -->
<g id="node5" class="node">
<title>Node5</title>
<g id="a_node5"><a xlink:href="classyork_1_1graphics_1_1_handle.html" target="_top" xlink:title=" ">
<polygon fill="none" stroke="black" points="309.5,-752 309.5,-782 425.5,-782 425.5,-752 309.5,-752"/>
<text text-anchor="start" x="317.5" y="-770" font-family="Helvetica,sans-Serif" font-size="10.00">york::graphics::Handle</text>
<text text-anchor="middle" x="367.5" y="-759" font-family="Helvetica,sans-Serif" font-size="10.00">&lt; vk::CommandPool &gt;</text>
</a>
</g>
</g>
<!-- Node4&#45;&gt;Node5 -->
<g id="edge4" class="edge">
<title>Node4&#45;&gt;Node5</title>
<path fill="none" stroke="midnightblue" d="M201.38,-418.63C214.07,-455.12 241.7,-535.96 262,-605 279.88,-665.81 255.05,-696.38 298,-743 301.33,-746.61 305.24,-749.68 309.46,-752.29"/>
<polygon fill="midnightblue" stroke="midnightblue" points="204.55,-417.08 197.95,-408.8 197.94,-419.39 204.55,-417.08"/>
</g>
<!-- Node7 -->
<g id="node7" class="node">
<title>Node7</title>
<g id="a_node7"><a xlink:href="classyork_1_1graphics_1_1_handle.html" target="_top" xlink:title=" ">
<polygon fill="none" stroke="black" points="310,-703 310,-733 425,-733 425,-703 310,-703"/>
<text text-anchor="start" x="318" y="-721" font-family="Helvetica,sans-Serif" font-size="10.00">york::graphics::Handle</text>
<text text-anchor="middle" x="367.5" y="-710" font-family="Helvetica,sans-Serif" font-size="10.00">&lt; vk::Device &gt;</text>
</a>
</g>
</g>
<!-- Node4&#45;&gt;Node7 -->
<g id="edge6" class="edge">
<title>Node4&#45;&gt;Node7</title>
<path fill="none" stroke="midnightblue" d="M200.8,-418.43C221.66,-482.51 287.68,-683.69 298,-694 301.48,-697.47 305.48,-700.45 309.78,-702.99"/>
<polygon fill="midnightblue" stroke="midnightblue" points="204.08,-417.18 197.66,-408.75 197.42,-419.34 204.08,-417.18"/>
</g>
<!-- Node9 -->
<g id="node9" class="node">
<title>Node9</title>
<g id="a_node9"><a xlink:href="classyork_1_1graphics_1_1_handle.html" target="_top" xlink:title=" ">
<polygon fill="none" stroke="black" points="310,-654 310,-684 425,-684 425,-654 310,-654"/>
<text text-anchor="start" x="318" y="-672" font-family="Helvetica,sans-Serif" font-size="10.00">york::graphics::Handle</text>
<text text-anchor="middle" x="367.5" y="-661" font-family="Helvetica,sans-Serif" font-size="10.00">&lt; vk::Fence &gt;</text>
</a>
</g>
</g>
<!-- Node4&#45;&gt;Node9 -->
<g id="edge8" class="edge">
<title>Node4&#45;&gt;Node9</title>
<path fill="none" stroke="midnightblue" d="M197.28,-418.73C204.82,-464.91 229.86,-580.91 298,-645 301.67,-648.45 305.87,-651.41 310.34,-653.95"/>
<polygon fill="midnightblue" stroke="midnightblue" points="200.7,-417.93 195.73,-408.57 193.78,-418.99 200.7,-417.93"/>
</g>
<!-- Node11 -->
<g id="node11" class="node">
<title>Node11</title>
<g id="a_node11"><a xlink:href="classyork_1_1graphics_1_1_handle.html" target="_top" xlink:title=" ">
<polygon fill="none" stroke="black" points="310,-605 310,-635 425,-635 425,-605 310,-605"/>
<text text-anchor="start" x="318" y="-623" font-family="Helvetica,sans-Serif" font-size="10.00">york::graphics::Handle</text>
<text text-anchor="middle" x="367.5" y="-612" font-family="Helvetica,sans-Serif" font-size="10.00">&lt; vk::Framebuffer &gt;</text>
</a>
</g>
</g>
<!-- Node4&#45;&gt;Node11 -->
<g id="edge10" class="edge">
<title>Node4&#45;&gt;Node11</title>
<path fill="none" stroke="midnightblue" d="M199.51,-418.47C210.58,-457.69 240.79,-546.62 298,-596 302.01,-599.46 306.54,-602.43 311.33,-604.98"/>
<polygon fill="midnightblue" stroke="midnightblue" points="202.88,-417.54 196.89,-408.81 196.13,-419.37 202.88,-417.54"/>
</g>
<!-- Node13 -->
<g id="node13" class="node">
<title>Node13</title>
<g id="a_node13"><a xlink:href="classyork_1_1graphics_1_1_handle.html" target="_top" xlink:title=" ">
<polygon fill="none" stroke="black" points="310,-556 310,-586 425,-586 425,-556 310,-556"/>
<text text-anchor="start" x="318" y="-574" font-family="Helvetica,sans-Serif" font-size="10.00">york::graphics::Handle</text>
<text text-anchor="middle" x="367.5" y="-563" font-family="Helvetica,sans-Serif" font-size="10.00">&lt; vk::ImageView &gt;</text>
</a>
</g>
</g>
<!-- Node4&#45;&gt;Node13 -->
<g id="edge12" class="edge">
<title>Node4&#45;&gt;Node13</title>
<path fill="none" stroke="midnightblue" d="M202.85,-417.8C217.63,-449.02 251.31,-511.6 298,-547 302.52,-550.43 307.56,-553.39 312.81,-555.95"/>
<polygon fill="midnightblue" stroke="midnightblue" points="205.93,-416.12 198.57,-408.5 199.57,-419.05 205.93,-416.12"/>
</g>
<!-- Node15 -->
<g id="node15" class="node">
<title>Node15</title>
<g id="a_node15"><a xlink:href="classyork_1_1graphics_1_1_handle.html" target="_top" xlink:title=" ">
<polygon fill="none" stroke="black" points="310,-507 310,-537 425,-537 425,-507 310,-507"/>
<text text-anchor="start" x="318" y="-525" font-family="Helvetica,sans-Serif" font-size="10.00">york::graphics::Handle</text>
<text text-anchor="middle" x="367.5" y="-514" font-family="Helvetica,sans-Serif" font-size="10.00">&lt; vk::Instance &gt;</text>
</a>
</g>
</g>
<!-- Node4&#45;&gt;Node15 -->
<g id="edge14" class="edge">
<title>Node4&#45;&gt;Node15</title>
<path fill="none" stroke="midnightblue" d="M208.51,-416.37C226.94,-438.19 261.32,-475.51 298,-498 303.48,-501.36 309.49,-504.33 315.61,-506.94"/>
<polygon fill="midnightblue" stroke="midnightblue" points="211.12,-414.03 202.04,-408.57 205.73,-418.5 211.12,-414.03"/>
</g>
<!-- Node17 -->
<g id="node17" class="node">
<title>Node17</title>
<g id="a_node17"><a xlink:href="classyork_1_1graphics_1_1_handle.html" target="_top" xlink:title=" ">
<polygon fill="none" stroke="black" points="310,-458 310,-488 425,-488 425,-458 310,-458"/>
<text text-anchor="start" x="318" y="-476" font-family="Helvetica,sans-Serif" font-size="10.00">york::graphics::Handle</text>
<text text-anchor="middle" x="367.5" y="-465" font-family="Helvetica,sans-Serif" font-size="10.00">&lt; vk::Pipeline &gt;</text>
</a>
</g>
</g>
<!-- Node4&#45;&gt;Node17 -->
<g id="edge16" class="edge">
<title>Node4&#45;&gt;Node17</title>
<path fill="none" stroke="midnightblue" d="M222.03,-413.35C242.67,-423.85 271.75,-438.1 298,-449 305.45,-452.09 313.45,-455.14 321.27,-457.97"/>
<polygon fill="midnightblue" stroke="midnightblue" points="223.4,-410.12 212.91,-408.68 220.21,-416.35 223.4,-410.12"/>
</g>
<!-- Node19 -->
<g id="node19" class="node">
<title>Node19</title>
<g id="a_node19"><a xlink:href="classyork_1_1graphics_1_1_handle.html" target="_top" xlink:title=" ">
<polygon fill="none" stroke="black" points="310,-409 310,-439 425,-439 425,-409 310,-409"/>
<text text-anchor="start" x="318" y="-427" font-family="Helvetica,sans-Serif" font-size="10.00">york::graphics::Handle</text>
<text text-anchor="middle" x="367.5" y="-416" font-family="Helvetica,sans-Serif" font-size="10.00">&lt; vk::PipelineLayout &gt;</text>
</a>
</g>
</g>
<!-- Node4&#45;&gt;Node19 -->
<g id="edge18" class="edge">
<title>Node4&#45;&gt;Node19</title>
<path fill="none" stroke="midnightblue" d="M270.13,-409.99C283.48,-411.93 297.16,-413.92 309.87,-415.77"/>
<polygon fill="midnightblue" stroke="midnightblue" points="270.42,-406.5 260.02,-408.52 269.41,-413.42 270.42,-406.5"/>
</g>
<!-- Node21 -->
<g id="node21" class="node">
<title>Node21</title>
<g id="a_node21"><a xlink:href="classyork_1_1graphics_1_1_handle.html" target="_top" xlink:title=" ">
<polygon fill="none" stroke="black" points="310,-360 310,-390 425,-390 425,-360 310,-360"/>
<text text-anchor="start" x="318" y="-378" font-family="Helvetica,sans-Serif" font-size="10.00">york::graphics::Handle</text>
<text text-anchor="middle" x="367.5" y="-367" font-family="Helvetica,sans-Serif" font-size="10.00">&lt; vk::RenderPass &gt;</text>
</a>
</g>
</g>
<!-- Node4&#45;&gt;Node21 -->
<g id="edge20" class="edge">
<title>Node4&#45;&gt;Node21</title>
<path fill="none" stroke="midnightblue" d="M272.49,-388.12C285.07,-386.36 297.87,-384.58 309.82,-382.91"/>
<polygon fill="midnightblue" stroke="midnightblue" points="271.9,-384.67 262.48,-389.51 272.87,-391.6 271.9,-384.67"/>
</g>
<!-- Node23 -->
<g id="node23" class="node">
<title>Node23</title>
<g id="a_node23"><a xlink:href="classyork_1_1graphics_1_1_handle.html" target="_top" xlink:title=" ">
<polygon fill="none" stroke="black" points="310,-311 310,-341 425,-341 425,-311 310,-311"/>
<text text-anchor="start" x="318" y="-329" font-family="Helvetica,sans-Serif" font-size="10.00">york::graphics::Handle</text>
<text text-anchor="middle" x="367.5" y="-318" font-family="Helvetica,sans-Serif" font-size="10.00">&lt; vk::Semaphore &gt;</text>
</a>
</g>
</g>
<!-- Node4&#45;&gt;Node23 -->
<g id="edge22" class="edge">
<title>Node4&#45;&gt;Node23</title>
<path fill="none" stroke="midnightblue" d="M222.89,-385.04C243.53,-375.09 272.24,-361.65 298,-351 306.19,-347.61 315.02,-344.21 323.53,-341.05"/>
<polygon fill="midnightblue" stroke="midnightblue" points="221.21,-381.97 213.74,-389.48 224.27,-388.27 221.21,-381.97"/>
</g>
<!-- Node25 -->
<g id="node25" class="node">
<title>Node25</title>
<g id="a_node25"><a xlink:href="classyork_1_1graphics_1_1_handle.html" target="_top" xlink:title=" ">
<polygon fill="none" stroke="black" points="310,-262 310,-292 425,-292 425,-262 310,-262"/>
<text text-anchor="start" x="318" y="-280" font-family="Helvetica,sans-Serif" font-size="10.00">york::graphics::Handle</text>
<text text-anchor="middle" x="367.5" y="-269" font-family="Helvetica,sans-Serif" font-size="10.00">&lt; vk::ShaderModule &gt;</text>
</a>
</g>
</g>
<!-- Node4&#45;&gt;Node25 -->
<g id="edge24" class="edge">
<title>Node4&#45;&gt;Node25</title>
<path fill="none" stroke="midnightblue" d="M208.92,-381.75C227.54,-360.41 261.89,-324.21 298,-302 304.04,-298.29 310.71,-295 317.46,-292.13"/>
<polygon fill="midnightblue" stroke="midnightblue" points="206.22,-379.52 202.36,-389.39 211.53,-384.08 206.22,-379.52"/>
</g>
<!-- Node27 -->
<g id="node27" class="node">
<title>Node27</title>
<g id="a_node27"><a xlink:href="classyork_1_1graphics_1_1_handle.html" target="_top" xlink:title=" ">
<polygon fill="none" stroke="black" points="310,-213 310,-243 425,-243 425,-213 310,-213"/>
<text text-anchor="start" x="318" y="-231" font-family="Helvetica,sans-Serif" font-size="10.00">york::graphics::Handle</text>
<text text-anchor="middle" x="367.5" y="-220" font-family="Helvetica,sans-Serif" font-size="10.00">&lt; vk::SurfaceKHR &gt;</text>
</a>
</g>
</g>
<!-- Node4&#45;&gt;Node27 -->
<g id="edge26" class="edge">
<title>Node4&#45;&gt;Node27</title>
<path fill="none" stroke="midnightblue" d="M203.19,-380.08C218.25,-349.23 252.07,-288.06 298,-253 303.03,-249.16 308.71,-245.86 314.59,-243.05"/>
<polygon fill="midnightblue" stroke="midnightblue" points="199.94,-378.76 198.81,-389.29 206.26,-381.76 199.94,-378.76"/>
</g>
<!-- Node29 -->
<g id="node29" class="node">
<title>Node29</title>
<g id="a_node29"><a xlink:href="classyork_1_1graphics_1_1_handle.html" target="_top" xlink:title=" ">
<polygon fill="none" stroke="black" points="307,-164 307,-194 428,-194 428,-164 307,-164"/>
<text text-anchor="start" x="315" y="-182" font-family="Helvetica,sans-Serif" font-size="10.00">york::graphics::Handle</text>
<text text-anchor="middle" x="367.5" y="-171" font-family="Helvetica,sans-Serif" font-size="10.00">&lt; vk::SwapchainKHR &gt;</text>
</a>
</g>
</g>
<!-- Node4&#45;&gt;Node29 -->
<g id="edge28" class="edge">
<title>Node4&#45;&gt;Node29</title>
<path fill="none" stroke="midnightblue" d="M199.77,-379.29C211.16,-340.33 241.7,-253.02 298,-204 302.39,-200.18 307.42,-196.92 312.71,-194.15"/>
<polygon fill="midnightblue" stroke="midnightblue" points="196.28,-378.75 196.95,-389.33 203.02,-380.64 196.28,-378.75"/>
</g>
<!-- Node31 -->
<g id="node31" class="node">
<title>Node31</title>
<g id="a_node31"><a xlink:href="classyork_1_1graphics_1_1_handle.html" target="_top" xlink:title=" ">
<polygon fill="none" stroke="black" points="310,-115 310,-145 425,-145 425,-115 310,-115"/>
<text text-anchor="start" x="318" y="-133" font-family="Helvetica,sans-Serif" font-size="10.00">york::graphics::Handle</text>
<text text-anchor="middle" x="367.5" y="-122" font-family="Helvetica,sans-Serif" font-size="10.00">&lt; SDL_Window * &gt;</text>
</a>
</g>
</g>
<!-- Node4&#45;&gt;Node31 -->
<g id="edge30" class="edge">
<title>Node4&#45;&gt;Node31</title>
<path fill="none" stroke="midnightblue" d="M197.31,-379.34C204.9,-333.35 230.05,-217.82 298,-154 301.67,-150.55 305.87,-147.59 310.34,-145.06"/>
<polygon fill="midnightblue" stroke="midnightblue" points="193.81,-379.05 195.74,-389.46 200.73,-380.12 193.81,-379.05"/>
</g>
<!-- Node33 -->
<g id="node33" class="node">
<title>Node33</title>
<g id="a_node33"><a xlink:href="classyork_1_1_renderer.html" target="_top" xlink:title="The Renderer allows you to draw content to a Window.">
<polygon fill="none" stroke="black" points="327,-76.5 327,-95.5 408,-95.5 408,-76.5 327,-76.5"/>
<text text-anchor="middle" x="367.5" y="-83.5" font-family="Helvetica,sans-Serif" font-size="10.00">york::Renderer</text>
</a>
</g>
</g>
<!-- Node4&#45;&gt;Node33 -->
<g id="edge32" class="edge">
<title>Node4&#45;&gt;Node33</title>
<path fill="none" stroke="midnightblue" d="M195.41,-379.44C198.95,-326.9 216.04,-181.58 298,-105 305.94,-97.59 316.51,-93.02 326.97,-90.23"/>
<polygon fill="midnightblue" stroke="midnightblue" points="191.92,-379.25 194.83,-389.44 198.91,-379.66 191.92,-379.25"/>
</g>
<!-- Node34 -->
<g id="node34" class="node">
<title>Node34</title>
<g id="a_node34"><a xlink:href="classyork_1_1graphics_1_1_frame_data.html" target="_top" xlink:title="Contains the necessary synchronization data structures, framebuffer and command buffer for a frame.">
<polygon fill="none" stroke="black" points="301,-38.5 301,-57.5 434,-57.5 434,-38.5 301,-38.5"/>
<text text-anchor="middle" x="367.5" y="-45.5" font-family="Helvetica,sans-Serif" font-size="10.00">york::graphics::FrameData</text>
</a>
</g>
</g>
<!-- Node4&#45;&gt;Node34 -->
<g id="edge33" class="edge">
<title>Node4&#45;&gt;Node34</title>
<path fill="none" stroke="midnightblue" d="M194.5,-379.26C195.63,-322.16 206.93,-155.24 298,-67 301.99,-63.14 306.69,-60.04 311.73,-57.57"/>
<polygon fill="midnightblue" stroke="midnightblue" points="191,-379.4 194.39,-389.44 198,-379.48 191,-379.4"/>
</g>
<!-- Node35 -->
<g id="node35" class="node">
<title>Node35</title>
<g id="a_node35"><a xlink:href="classyork_1_1graphics_1_1_handle.html" target="_top" xlink:title="A template wrapper that allows any type to be treated as handle.">
<polygon fill="none" stroke="black" points="298,-0.5 298,-19.5 437,-19.5 437,-0.5 298,-0.5"/>
<text text-anchor="middle" x="367.5" y="-7.5" font-family="Helvetica,sans-Serif" font-size="10.00">york::graphics::Handle&lt; T &gt;</text>
</a>
</g>
</g>
<!-- Node4&#45;&gt;Node35 -->
<g id="edge34" class="edge">
<title>Node4&#45;&gt;Node35</title>
<path fill="none" stroke="midnightblue" d="M193.76,-379.09C192.6,-317.64 197.75,-129.03 298,-29 301.84,-25.16 306.39,-22.09 311.28,-19.62"/>
<polygon fill="midnightblue" stroke="midnightblue" points="190.26,-379.43 194.03,-389.33 197.26,-379.24 190.26,-379.43"/>
</g>
<!-- Node6 -->
<g id="node6" class="node">
<title>Node6</title>
<g id="a_node6"><a xlink:href="classyork_1_1graphics_1_1_command_pool.html" target="_top" xlink:title="Handle wrapper for Vulkan Command Pool.">
<polygon fill="none" stroke="black" points="473,-757.5 473,-776.5 622,-776.5 622,-757.5 473,-757.5"/>
<text text-anchor="middle" x="547.5" y="-764.5" font-family="Helvetica,sans-Serif" font-size="10.00">york::graphics::CommandPool</text>
</a>
</g>
</g>
<!-- Node5&#45;&gt;Node6 -->
<g id="edge5" class="edge">
<title>Node5&#45;&gt;Node6</title>
<path fill="none" stroke="midnightblue" d="M436.14,-767C448.1,-767 460.6,-767 472.71,-767"/>
<polygon fill="midnightblue" stroke="midnightblue" points="435.8,-763.5 425.8,-767 435.8,-770.5 435.8,-763.5"/>
</g>
<!-- Node8 -->
<g id="node8" class="node">
<title>Node8</title>
<g id="a_node8"><a xlink:href="classyork_1_1graphics_1_1_device.html" target="_top" xlink:title="A class representing a GPU device.">
<polygon fill="none" stroke="black" points="490,-708.5 490,-727.5 605,-727.5 605,-708.5 490,-708.5"/>
<text text-anchor="middle" x="547.5" y="-715.5" font-family="Helvetica,sans-Serif" font-size="10.00">york::graphics::Device</text>
</a>
</g>
</g>
<!-- Node7&#45;&gt;Node8 -->
<g id="edge7" class="edge">
<title>Node7&#45;&gt;Node8</title>
<path fill="none" stroke="midnightblue" d="M435.42,-718C453.37,-718 472.6,-718 489.92,-718"/>
<polygon fill="midnightblue" stroke="midnightblue" points="435.31,-714.5 425.31,-718 435.31,-721.5 435.31,-714.5"/>
</g>
<!-- Node10 -->
<g id="node10" class="node">
<title>Node10</title>
<g id="a_node10"><a xlink:href="classyork_1_1graphics_1_1_fence.html" target="_top" xlink:title="Handle wrapper for Vulkan Fence.">
<polygon fill="none" stroke="black" points="492,-659.5 492,-678.5 603,-678.5 603,-659.5 492,-659.5"/>
<text text-anchor="middle" x="547.5" y="-666.5" font-family="Helvetica,sans-Serif" font-size="10.00">york::graphics::Fence</text>
</a>
</g>
</g>
<!-- Node9&#45;&gt;Node10 -->
<g id="edge9" class="edge">
<title>Node9&#45;&gt;Node10</title>
<path fill="none" stroke="midnightblue" d="M435.46,-669C454.03,-669 473.97,-669 491.75,-669"/>
<polygon fill="midnightblue" stroke="midnightblue" points="435.31,-665.5 425.31,-669 435.31,-672.5 435.31,-665.5"/>
</g>
<!-- Node12 -->
<g id="node12" class="node">
<title>Node12</title>
<g id="a_node12"><a xlink:href="classyork_1_1graphics_1_1_framebuffer.html" target="_top" xlink:title="Handle wrapper for Vulkan Framebuffer.">
<polygon fill="none" stroke="black" points="479,-610.5 479,-629.5 616,-629.5 616,-610.5 479,-610.5"/>
<text text-anchor="middle" x="547.5" y="-617.5" font-family="Helvetica,sans-Serif" font-size="10.00">york::graphics::Framebuffer</text>
</a>
</g>
</g>
<!-- Node11&#45;&gt;Node12 -->
<g id="edge11" class="edge">
<title>Node11&#45;&gt;Node12</title>
<path fill="none" stroke="midnightblue" d="M435.45,-620C449.6,-620 464.54,-620 478.72,-620"/>
<polygon fill="midnightblue" stroke="midnightblue" points="435.31,-616.5 425.31,-620 435.31,-623.5 435.31,-616.5"/>
</g>
<!-- Node14 -->
<g id="node14" class="node">
<title>Node14</title>
<g id="a_node14"><a xlink:href="classyork_1_1graphics_1_1_image_view.html" target="_top" xlink:title="Handle wrapper for Vulkan Image Views.">
<polygon fill="none" stroke="black" points="481,-561.5 481,-580.5 614,-580.5 614,-561.5 481,-561.5"/>
<text text-anchor="middle" x="547.5" y="-568.5" font-family="Helvetica,sans-Serif" font-size="10.00">york::graphics::ImageView</text>
</a>
</g>
</g>
<!-- Node13&#45;&gt;Node14 -->
<g id="edge13" class="edge">
<title>Node13&#45;&gt;Node14</title>
<path fill="none" stroke="midnightblue" d="M435.45,-571C450.34,-571 466.1,-571 480.93,-571"/>
<polygon fill="midnightblue" stroke="midnightblue" points="435.31,-567.5 425.31,-571 435.31,-574.5 435.31,-567.5"/>
</g>
<!-- Node16 -->
<g id="node16" class="node">
<title>Node16</title>
<g id="a_node16"><a xlink:href="classyork_1_1graphics_1_1_instance.html" target="_top" xlink:title="A handle for Vulkan instances.">
<polygon fill="none" stroke="black" points="486.5,-512.5 486.5,-531.5 608.5,-531.5 608.5,-512.5 486.5,-512.5"/>
<text text-anchor="middle" x="547.5" y="-519.5" font-family="Helvetica,sans-Serif" font-size="10.00">york::graphics::Instance</text>
</a>
</g>
</g>
<!-- Node15&#45;&gt;Node16 -->
<g id="edge15" class="edge">
<title>Node15&#45;&gt;Node16</title>
<path fill="none" stroke="midnightblue" d="M435.52,-522C452.17,-522 469.93,-522 486.24,-522"/>
<polygon fill="midnightblue" stroke="midnightblue" points="435.31,-518.5 425.31,-522 435.31,-525.5 435.31,-518.5"/>
</g>
<!-- Node18 -->
<g id="node18" class="node">
<title>Node18</title>
<g id="a_node18"><a xlink:href="classyork_1_1graphics_1_1_pipeline.html" target="_top" xlink:title="Handle wrapper for Vulkan Pipeline.">
<polygon fill="none" stroke="black" points="488,-463.5 488,-482.5 607,-482.5 607,-463.5 488,-463.5"/>
<text text-anchor="middle" x="547.5" y="-470.5" font-family="Helvetica,sans-Serif" font-size="10.00">york::graphics::Pipeline</text>
</a>
</g>
</g>
<!-- Node17&#45;&gt;Node18 -->
<g id="edge17" class="edge">
<title>Node17&#45;&gt;Node18</title>
<path fill="none" stroke="midnightblue" d="M435.79,-473C452.89,-473 471.14,-473 487.78,-473"/>
<polygon fill="midnightblue" stroke="midnightblue" points="435.31,-469.5 425.31,-473 435.31,-476.5 435.31,-469.5"/>
</g>
<!-- Node20 -->
<g id="node20" class="node">
<title>Node20</title>
<g id="a_node20"><a xlink:href="classyork_1_1graphics_1_1_pipeline_layout.html" target="_top" xlink:title="Handle wrapper for Vulkan Pipeline Layout.">
<polygon fill="none" stroke="black" points="488,-409 488,-439 607,-439 607,-409 488,-409"/>
<text text-anchor="start" x="496" y="-427" font-family="Helvetica,sans-Serif" font-size="10.00">york::graphics::Pipeline</text>
<text text-anchor="middle" x="547.5" y="-416" font-family="Helvetica,sans-Serif" font-size="10.00">Layout</text>
</a>
</g>
</g>
<!-- Node19&#45;&gt;Node20 -->
<g id="edge19" class="edge">
<title>Node19&#45;&gt;Node20</title>
<path fill="none" stroke="midnightblue" d="M435.79,-424C452.89,-424 471.14,-424 487.78,-424"/>
<polygon fill="midnightblue" stroke="midnightblue" points="435.31,-420.5 425.31,-424 435.31,-427.5 435.31,-420.5"/>
</g>
<!-- Node22 -->
<g id="node22" class="node">
<title>Node22</title>
<g id="a_node22"><a xlink:href="classyork_1_1graphics_1_1_render_pass.html" target="_top" xlink:title="Handle wrapper for Vulkan Render Pass.">
<polygon fill="none" stroke="black" points="478.5,-365.5 478.5,-384.5 616.5,-384.5 616.5,-365.5 478.5,-365.5"/>
<text text-anchor="middle" x="547.5" y="-372.5" font-family="Helvetica,sans-Serif" font-size="10.00">york::graphics::RenderPass</text>
</a>
</g>
</g>
<!-- Node21&#45;&gt;Node22 -->
<g id="edge21" class="edge">
<title>Node21&#45;&gt;Node22</title>
<path fill="none" stroke="midnightblue" d="M435.39,-375C449.45,-375 464.3,-375 478.41,-375"/>
<polygon fill="midnightblue" stroke="midnightblue" points="435.31,-371.5 425.31,-375 435.31,-378.5 435.31,-371.5"/>
</g>
<!-- Node24 -->
<g id="node24" class="node">
<title>Node24</title>
<g id="a_node24"><a xlink:href="classyork_1_1graphics_1_1_semaphore.html" target="_top" xlink:title="Handle wrapper for Vulkan Semaphore.">
<polygon fill="none" stroke="black" points="480.5,-316.5 480.5,-335.5 614.5,-335.5 614.5,-316.5 480.5,-316.5"/>
<text text-anchor="middle" x="547.5" y="-323.5" font-family="Helvetica,sans-Serif" font-size="10.00">york::graphics::Semaphore</text>
</a>
</g>
</g>
<!-- Node23&#45;&gt;Node24 -->
<g id="edge23" class="edge">
<title>Node23&#45;&gt;Node24</title>
<path fill="none" stroke="midnightblue" d="M435.33,-326C450.04,-326 465.62,-326 480.3,-326"/>
<polygon fill="midnightblue" stroke="midnightblue" points="435.31,-322.5 425.31,-326 435.31,-329.5 435.31,-322.5"/>
</g>
<!-- Node26 -->
<g id="node26" class="node">
<title>Node26</title>
<g id="a_node26"><a xlink:href="classyork_1_1graphics_1_1_shader.html" target="_top" xlink:title="Represents a SPIR&#45;V shaders for use with a Pipeline.">
<polygon fill="none" stroke="black" points="490,-267.5 490,-286.5 605,-286.5 605,-267.5 490,-267.5"/>
<text text-anchor="middle" x="547.5" y="-274.5" font-family="Helvetica,sans-Serif" font-size="10.00">york::graphics::Shader</text>
</a>
</g>
</g>
<!-- Node25&#45;&gt;Node26 -->
<g id="edge25" class="edge">
<title>Node25&#45;&gt;Node26</title>
<path fill="none" stroke="midnightblue" d="M435.42,-277C453.37,-277 472.6,-277 489.92,-277"/>
<polygon fill="midnightblue" stroke="midnightblue" points="435.31,-273.5 425.31,-277 435.31,-280.5 435.31,-273.5"/>
</g>
<!-- Node28 -->
<g id="node28" class="node">
<title>Node28</title>
<g id="a_node28"><a xlink:href="classyork_1_1graphics_1_1_surface.html" target="_top" xlink:title="Handle wrapper for Vulkan Surface.">
<polygon fill="none" stroke="black" points="488.5,-218.5 488.5,-237.5 606.5,-237.5 606.5,-218.5 488.5,-218.5"/>
<text text-anchor="middle" x="547.5" y="-225.5" font-family="Helvetica,sans-Serif" font-size="10.00">york::graphics::Surface</text>
</a>
</g>
</g>
<!-- Node27&#45;&gt;Node28 -->
<g id="edge27" class="edge">
<title>Node27&#45;&gt;Node28</title>
<path fill="none" stroke="midnightblue" d="M435.41,-228C452.83,-228 471.47,-228 488.4,-228"/>
<polygon fill="midnightblue" stroke="midnightblue" points="435.31,-224.5 425.31,-228 435.31,-231.5 435.31,-224.5"/>
</g>
<!-- Node30 -->
<g id="node30" class="node">
<title>Node30</title>
<g id="a_node30"><a xlink:href="classyork_1_1graphics_1_1_swap_chain.html" target="_top" xlink:title="Handle wrapper for Vulkan Swapchain.">
<polygon fill="none" stroke="black" points="480.5,-169.5 480.5,-188.5 614.5,-188.5 614.5,-169.5 480.5,-169.5"/>
<text text-anchor="middle" x="547.5" y="-176.5" font-family="Helvetica,sans-Serif" font-size="10.00">york::graphics::SwapChain</text>
</a>
</g>
</g>
<!-- Node29&#45;&gt;Node30 -->
<g id="edge29" class="edge">
<title>Node29&#45;&gt;Node30</title>
<path fill="none" stroke="midnightblue" d="M438.65,-179C452.43,-179 466.83,-179 480.46,-179"/>
<polygon fill="midnightblue" stroke="midnightblue" points="438.27,-175.5 428.27,-179 438.27,-182.5 438.27,-175.5"/>
</g>
<!-- Node32 -->
<g id="node32" class="node">
<title>Node32</title>
<g id="a_node32"><a xlink:href="classyork_1_1graphics_1_1_window.html" target="_top" xlink:title="A graphical window to which we can render to.">
<polygon fill="none" stroke="black" points="488,-120.5 488,-139.5 607,-139.5 607,-120.5 488,-120.5"/>
<text text-anchor="middle" x="547.5" y="-127.5" font-family="Helvetica,sans-Serif" font-size="10.00">york::graphics::Window</text>
</a>
</g>
</g>
<!-- Node31&#45;&gt;Node32 -->
<g id="edge31" class="edge">
<title>Node31&#45;&gt;Node32</title>
<path fill="none" stroke="midnightblue" d="M435.79,-130C452.89,-130 471.14,-130 487.78,-130"/>
<polygon fill="midnightblue" stroke="midnightblue" points="435.31,-126.5 425.31,-130 435.31,-133.5 435.31,-126.5"/>
</g>
</g>
</svg>
