<?xml version="1.0" encoding="UTF-8" standalone="no"?>
<!DOCTYPE svg PUBLIC "-//W3C//DTD SVG 1.1//EN"
 "http://www.w3.org/Graphics/SVG/1.1/DTD/svg11.dtd">
<!-- Generated by graphviz version 3.0.0 (20220413.0106)
 -->
<!-- Title: Graphical Class Hierarchy Pages: 1 -->
<svg width="327pt" height="28pt"
 viewBox="0.00 0.00 327.00 28.00" xmlns="http://www.w3.org/2000/svg" xmlns:xlink="http://www.w3.org/1999/xlink">
<g id="graph0" class="graph" transform="scale(1 1) rotate(0) translate(4 24)">
<title>Graphical Class Hierarchy</title>
<!-- Node0 -->
<g id="node1" class="node">
<title>Node0</title>
<g id="a_node1"><a xlink:href="classyork_1_1_identifiable.html" target="_top" xlink:title="A convience class that generates a unique id upon creation and makes for easy comparison.">
<polygon fill="none" stroke="black" points="0,-0.5 0,-19.5 86,-19.5 86,-0.5 0,-0.5"/>
<text text-anchor="middle" x="43" y="-7.5" font-family="Helvetica,sans-Serif" font-size="10.00">york::Identifiable</text>
</a>
</g>
</g>
<!-- Node1 -->
<g id="node2" class="node">
<title>Node1</title>
<g id="a_node2"><a xlink:href="classyork_1_1_event_handler.html" target="_top" xlink:title="Override this to handle events.">
<polygon fill="none" stroke="black" points="122,-0.5 122,-19.5 220,-19.5 220,-0.5 122,-0.5"/>
<text text-anchor="middle" x="171" y="-7.5" font-family="Helvetica,sans-Serif" font-size="10.00">york::EventHandler</text>
</a>
</g>
</g>
<!-- Node0&#45;&gt;Node1 -->
<g id="edge1" class="edge">
<title>Node0&#45;&gt;Node1</title>
<path fill="none" stroke="midnightblue" d="M96.44,-10C104.89,-10 113.6,-10 121.94,-10"/>
<polygon fill="midnightblue" stroke="midnightblue" points="96.31,-6.5 86.31,-10 96.31,-13.5 96.31,-6.5"/>
</g>
<!-- Node2 -->
<g id="node3" class="node">
<title>Node2</title>
<g id="a_node3"><a xlink:href="classyork_1_1_layer.html" target="_top" xlink:title="A layer represents a modular part of your application.">
<polygon fill="none" stroke="black" points="256,-0.5 256,-19.5 319,-19.5 319,-0.5 256,-0.5"/>
<text text-anchor="middle" x="287.5" y="-7.5" font-family="Helvetica,sans-Serif" font-size="10.00">york::Layer</text>
</a>
</g>
</g>
<!-- Node1&#45;&gt;Node2 -->
<g id="edge2" class="edge">
<title>Node1&#45;&gt;Node2</title>
<path fill="none" stroke="midnightblue" d="M230.23,-10C239.12,-10 247.98,-10 255.95,-10"/>
<polygon fill="midnightblue" stroke="midnightblue" points="230.23,-6.5 220.23,-10 230.23,-13.5 230.23,-6.5"/>
</g>
</g>
</svg>
