<?xml version="1.0" encoding="UTF-8" standalone="no"?>
<!DOCTYPE svg PUBLIC "-//W3C//DTD SVG 1.1//EN"
 "http://www.w3.org/Graphics/SVG/1.1/DTD/svg11.dtd">
<!-- Generated by graphviz version 2.50.0 (20211204.2007)
 -->
<!-- Title: include/york/Graphics/Device.hpp Pages: 1 -->
<svg width="686pt" height="441pt"
 viewBox="0.00 0.00 686.00 441.00" xmlns="http://www.w3.org/2000/svg" xmlns:xlink="http://www.w3.org/1999/xlink">
<g id="graph0" class="graph" transform="scale(1 1) rotate(0) translate(4 437)">
<title>include/york/Graphics/Device.hpp</title>
<!-- Node1 -->
<g id="node1" class="node">
<title>Node1</title>
<g id="a_node1"><a xlink:title=" ">
<polygon fill="#bfbfbf" stroke="black" points="252,-402.5 252,-432.5 363,-432.5 363,-402.5 252,-402.5"/>
<text text-anchor="start" x="260" y="-420.5" font-family="Helvetica,sans-Serif" font-size="10.00">include/york/Graphics</text>
<text text-anchor="middle" x="307.5" y="-409.5" font-family="Helvetica,sans-Serif" font-size="10.00">/Device.hpp</text>
</a>
</g>
</g>
<!-- Node2 -->
<g id="node2" class="node">
<title>Node2</title>
<g id="a_node2"><a xlink:href="_command_pool_8hpp.html" target="_top" xlink:title=" ">
<polygon fill="none" stroke="black" points="0,-134.5 0,-164.5 111,-164.5 111,-134.5 0,-134.5"/>
<text text-anchor="start" x="8" y="-152.5" font-family="Helvetica,sans-Serif" font-size="10.00">include/york/Graphics</text>
<text text-anchor="middle" x="55.5" y="-141.5" font-family="Helvetica,sans-Serif" font-size="10.00">/CommandPool.hpp</text>
</a>
</g>
</g>
<!-- Node1&#45;&gt;Node2 -->
<g id="edge1" class="edge">
<title>Node1&#45;&gt;Node2</title>
<path fill="none" stroke="midnightblue" d="M242.15,-403.36C186.78,-388.41 110.78,-357.97 74.5,-299 48.08,-256.05 50.79,-192.92 53.65,-164.85"/>
<polygon fill="midnightblue" stroke="midnightblue" points="241.32,-406.76 251.88,-405.89 243.08,-399.99 241.32,-406.76"/>
</g>
<!-- Node5 -->
<g id="node5" class="node">
<title>Node5</title>
<g id="a_node5"><a xlink:href="_fence_8hpp.html" target="_top" xlink:title=" ">
<polygon fill="none" stroke="black" points="84,-268.5 84,-298.5 195,-298.5 195,-268.5 84,-268.5"/>
<text text-anchor="start" x="92" y="-286.5" font-family="Helvetica,sans-Serif" font-size="10.00">include/york/Graphics</text>
<text text-anchor="middle" x="139.5" y="-275.5" font-family="Helvetica,sans-Serif" font-size="10.00">/Fence.hpp</text>
</a>
</g>
</g>
<!-- Node1&#45;&gt;Node5 -->
<g id="edge5" class="edge">
<title>Node1&#45;&gt;Node5</title>
<path fill="none" stroke="midnightblue" d="M262.96,-398.03C245.39,-389.63 225.6,-378.71 209.5,-366 184.32,-346.12 161.38,-316.16 149.03,-298.64"/>
<polygon fill="midnightblue" stroke="midnightblue" points="261.91,-401.4 272.46,-402.43 264.86,-395.05 261.91,-401.4"/>
</g>
<!-- Node6 -->
<g id="node6" class="node">
<title>Node6</title>
<g id="a_node6"><a xlink:href="_image_view_8hpp.html" target="_top" xlink:title=" ">
<polygon fill="none" stroke="black" points="252,-335.5 252,-365.5 363,-365.5 363,-335.5 252,-335.5"/>
<text text-anchor="start" x="260" y="-353.5" font-family="Helvetica,sans-Serif" font-size="10.00">include/york/Graphics</text>
<text text-anchor="middle" x="307.5" y="-342.5" font-family="Helvetica,sans-Serif" font-size="10.00">/ImageView.hpp</text>
</a>
</g>
</g>
<!-- Node1&#45;&gt;Node6 -->
<g id="edge7" class="edge">
<title>Node1&#45;&gt;Node6</title>
<path fill="none" stroke="midnightblue" d="M307.5,-392.11C307.5,-383.15 307.5,-373.32 307.5,-365.58"/>
<polygon fill="midnightblue" stroke="midnightblue" points="304,-392.4 307.5,-402.4 311,-392.4 304,-392.4"/>
</g>
<!-- Node8 -->
<g id="node8" class="node">
<title>Node8</title>
<g id="a_node8"><a xlink:href="_swap_chain_8hpp.html" target="_top" xlink:title=" ">
<polygon fill="none" stroke="black" points="336,-268.5 336,-298.5 447,-298.5 447,-268.5 336,-268.5"/>
<text text-anchor="start" x="344" y="-286.5" font-family="Helvetica,sans-Serif" font-size="10.00">include/york/Graphics</text>
<text text-anchor="middle" x="391.5" y="-275.5" font-family="Helvetica,sans-Serif" font-size="10.00">/SwapChain.hpp</text>
</a>
</g>
</g>
<!-- Node1&#45;&gt;Node8 -->
<g id="edge25" class="edge">
<title>Node1&#45;&gt;Node8</title>
<path fill="none" stroke="midnightblue" d="M341.77,-396.6C353.09,-388.46 364.76,-378.08 372.5,-366 385.9,-345.08 389.88,-315.74 391.04,-298.57"/>
<polygon fill="midnightblue" stroke="midnightblue" points="339.56,-393.87 333.25,-402.39 343.49,-399.67 339.56,-393.87"/>
</g>
<!-- Node11 -->
<g id="node11" class="node">
<title>Node11</title>
<g id="a_node11"><a xlink:href="_pipeline_layout_8hpp.html" target="_top" xlink:title=" ">
<polygon fill="none" stroke="black" points="504,-201.5 504,-231.5 615,-231.5 615,-201.5 504,-201.5"/>
<text text-anchor="start" x="512" y="-219.5" font-family="Helvetica,sans-Serif" font-size="10.00">include/york/Graphics</text>
<text text-anchor="middle" x="559.5" y="-208.5" font-family="Helvetica,sans-Serif" font-size="10.00">/PipelineLayout.hpp</text>
</a>
</g>
</g>
<!-- Node1&#45;&gt;Node11 -->
<g id="edge18" class="edge">
<title>Node1&#45;&gt;Node11</title>
<path fill="none" stroke="midnightblue" d="M342.84,-397.51C358.5,-388.6 376.86,-377.44 392.5,-366 453.25,-321.57 517.83,-259.2 545.55,-231.59"/>
<polygon fill="midnightblue" stroke="midnightblue" points="340.99,-394.54 333.98,-402.49 344.41,-400.65 340.99,-394.54"/>
</g>
<!-- Node12 -->
<g id="node12" class="node">
<title>Node12</title>
<g id="a_node12"><a xlink:href="_semaphore_8hpp.html" target="_top" xlink:title=" ">
<polygon fill="none" stroke="black" points="168,-134.5 168,-164.5 279,-164.5 279,-134.5 168,-134.5"/>
<text text-anchor="start" x="176" y="-152.5" font-family="Helvetica,sans-Serif" font-size="10.00">include/york/Graphics</text>
<text text-anchor="middle" x="223.5" y="-141.5" font-family="Helvetica,sans-Serif" font-size="10.00">/Semaphore.hpp</text>
</a>
</g>
</g>
<!-- Node1&#45;&gt;Node12 -->
<g id="edge20" class="edge">
<title>Node1&#45;&gt;Node12</title>
<path fill="none" stroke="midnightblue" d="M272.3,-396.66C261.23,-388.62 250.18,-378.29 243.5,-366 206.73,-298.32 216.02,-200.84 221.19,-164.69"/>
<polygon fill="midnightblue" stroke="midnightblue" points="270.45,-399.64 280.68,-402.37 274.38,-393.85 270.45,-399.64"/>
</g>
<!-- Node13 -->
<g id="node13" class="node">
<title>Node13</title>
<g id="a_node13"><a xlink:href="_shader_8hpp.html" target="_top" xlink:title=" ">
<polygon fill="none" stroke="black" points="567,-335.5 567,-365.5 678,-365.5 678,-335.5 567,-335.5"/>
<text text-anchor="start" x="575" y="-353.5" font-family="Helvetica,sans-Serif" font-size="10.00">include/york/Graphics</text>
<text text-anchor="middle" x="622.5" y="-342.5" font-family="Helvetica,sans-Serif" font-size="10.00">/Shader.hpp</text>
</a>
</g>
</g>
<!-- Node1&#45;&gt;Node13 -->
<g id="edge23" class="edge">
<title>Node1&#45;&gt;Node13</title>
<path fill="none" stroke="midnightblue" d="M373.14,-402.96C430.48,-391.12 512.79,-374.14 566.94,-362.97"/>
<polygon fill="midnightblue" stroke="midnightblue" points="372.18,-399.58 363.09,-405.03 373.59,-406.44 372.18,-399.58"/>
</g>
<!-- Node3 -->
<g id="node3" class="node">
<title>Node3</title>
<g id="a_node3"><a xlink:href="_frame_data_8hpp.html" target="_top" xlink:title=" ">
<polygon fill="none" stroke="black" points="252,-67.5 252,-97.5 363,-97.5 363,-67.5 252,-67.5"/>
<text text-anchor="start" x="260" y="-85.5" font-family="Helvetica,sans-Serif" font-size="10.00">include/york/Graphics</text>
<text text-anchor="middle" x="307.5" y="-74.5" font-family="Helvetica,sans-Serif" font-size="10.00">/FrameData.hpp</text>
</a>
</g>
</g>
<!-- Node2&#45;&gt;Node3 -->
<g id="edge2" class="edge">
<title>Node2&#45;&gt;Node3</title>
<path fill="none" stroke="midnightblue" d="M119.79,-131.92C160.91,-121.31 213.68,-107.7 252.79,-97.61"/>
<polygon fill="midnightblue" stroke="midnightblue" points="118.68,-128.59 109.87,-134.48 120.43,-135.37 118.68,-128.59"/>
</g>
<!-- Node4 -->
<g id="node4" class="node">
<title>Node4</title>
<g id="a_node4"><a xlink:href="_renderer_8hpp.html" target="_top" xlink:title=" ">
<polygon fill="none" stroke="black" points="251.5,-0.5 251.5,-30.5 363.5,-30.5 363.5,-0.5 251.5,-0.5"/>
<text text-anchor="start" x="259.5" y="-18.5" font-family="Helvetica,sans-Serif" font-size="10.00">include/york/Renderer</text>
<text text-anchor="middle" x="307.5" y="-7.5" font-family="Helvetica,sans-Serif" font-size="10.00">/Renderer.hpp</text>
</a>
</g>
</g>
<!-- Node2&#45;&gt;Node4 -->
<g id="edge4" class="edge">
<title>Node2&#45;&gt;Node4</title>
<path fill="none" stroke="midnightblue" d="M91.52,-129.63C142.67,-102.84 235.2,-54.37 280.73,-30.52"/>
<polygon fill="midnightblue" stroke="midnightblue" points="89.7,-126.63 82.47,-134.37 92.95,-132.83 89.7,-126.63"/>
</g>
<!-- Node3&#45;&gt;Node4 -->
<g id="edge3" class="edge">
<title>Node3&#45;&gt;Node4</title>
<path fill="none" stroke="midnightblue" d="M307.5,-57.11C307.5,-48.15 307.5,-38.32 307.5,-30.58"/>
<polygon fill="midnightblue" stroke="midnightblue" points="304,-57.4 307.5,-67.4 311,-57.4 304,-57.4"/>
</g>
<!-- Node5&#45;&gt;Node3 -->
<g id="edge6" class="edge">
<title>Node5&#45;&gt;Node3</title>
<path fill="none" stroke="midnightblue" d="M135.58,-258.05C131.87,-225.86 130.54,-169.24 159.5,-134 182,-106.63 220.02,-94.04 251.89,-88.28"/>
<polygon fill="midnightblue" stroke="midnightblue" points="132.16,-258.89 136.95,-268.34 139.1,-257.97 132.16,-258.89"/>
</g>
<!-- Node7 -->
<g id="node7" class="node">
<title>Node7</title>
<g id="a_node7"><a xlink:href="_framebuffer_8hpp.html" target="_top" xlink:title=" ">
<polygon fill="none" stroke="black" points="336,-134.5 336,-164.5 447,-164.5 447,-134.5 336,-134.5"/>
<text text-anchor="start" x="344" y="-152.5" font-family="Helvetica,sans-Serif" font-size="10.00">include/york/Graphics</text>
<text text-anchor="middle" x="391.5" y="-141.5" font-family="Helvetica,sans-Serif" font-size="10.00">/Framebuffer.hpp</text>
</a>
</g>
</g>
<!-- Node6&#45;&gt;Node7 -->
<g id="edge8" class="edge">
<title>Node6&#45;&gt;Node7</title>
<path fill="none" stroke="midnightblue" d="M305.41,-325C303.91,-294.03 305.23,-240.04 327.5,-201 336.26,-185.63 351.73,-173.23 365.26,-164.56"/>
<polygon fill="midnightblue" stroke="midnightblue" points="301.93,-325.54 306.05,-335.3 308.92,-325.1 301.93,-325.54"/>
</g>
<!-- Node6&#45;&gt;Node8 -->
<g id="edge11" class="edge">
<title>Node6&#45;&gt;Node8</title>
<path fill="none" stroke="midnightblue" d="M333.78,-329.17C346.62,-319.23 361.76,-307.51 373.31,-298.58"/>
<polygon fill="midnightblue" stroke="midnightblue" points="331.49,-326.51 325.73,-335.4 335.78,-332.04 331.49,-326.51"/>
</g>
<!-- Node7&#45;&gt;Node3 -->
<g id="edge9" class="edge">
<title>Node7&#45;&gt;Node3</title>
<path fill="none" stroke="midnightblue" d="M365.22,-128.17C352.38,-118.23 337.24,-106.51 325.69,-97.58"/>
<polygon fill="midnightblue" stroke="midnightblue" points="363.22,-131.04 373.27,-134.4 367.51,-125.51 363.22,-131.04"/>
</g>
<!-- Node7&#45;&gt;Node4 -->
<g id="edge10" class="edge">
<title>Node7&#45;&gt;Node4</title>
<path fill="none" stroke="midnightblue" d="M390.1,-124.11C388.14,-106.99 383.49,-84.16 372.5,-67 362.79,-51.84 346.89,-39.37 333.25,-30.61"/>
<polygon fill="midnightblue" stroke="midnightblue" points="386.65,-124.79 391.04,-134.43 393.62,-124.16 386.65,-124.79"/>
</g>
<!-- Node8&#45;&gt;Node3 -->
<g id="edge12" class="edge">
<title>Node8&#45;&gt;Node3</title>
<path fill="none" stroke="midnightblue" d="M356.85,-262.7C345.72,-254.61 334.48,-244.25 327.5,-232 302.5,-188.16 303.9,-125.49 306.05,-97.7"/>
<polygon fill="midnightblue" stroke="midnightblue" points="355.03,-265.69 365.26,-268.44 358.97,-259.91 355.03,-265.69"/>
</g>
<!-- Node9 -->
<g id="node9" class="node">
<title>Node9</title>
<g id="a_node9"><a xlink:href="_pipeline_8hpp.html" target="_top" xlink:title=" ">
<polygon fill="none" stroke="black" points="465,-134.5 465,-164.5 576,-164.5 576,-134.5 465,-134.5"/>
<text text-anchor="start" x="473" y="-152.5" font-family="Helvetica,sans-Serif" font-size="10.00">include/york/Graphics</text>
<text text-anchor="middle" x="520.5" y="-141.5" font-family="Helvetica,sans-Serif" font-size="10.00">/Pipeline.hpp</text>
</a>
</g>
</g>
<!-- Node8&#45;&gt;Node9 -->
<g id="edge13" class="edge">
<title>Node8&#45;&gt;Node9</title>
<path fill="none" stroke="midnightblue" d="M420.38,-262.45C432.12,-253.7 445.49,-242.95 456.5,-232 478.18,-210.43 499.29,-181.57 511.03,-164.61"/>
<polygon fill="midnightblue" stroke="midnightblue" points="418.18,-259.72 412.17,-268.44 422.31,-265.37 418.18,-259.72"/>
</g>
<!-- Node10 -->
<g id="node10" class="node">
<title>Node10</title>
<g id="a_node10"><a xlink:href="_render_pass_8hpp.html" target="_top" xlink:title=" ">
<polygon fill="none" stroke="black" points="336,-201.5 336,-231.5 447,-231.5 447,-201.5 336,-201.5"/>
<text text-anchor="start" x="344" y="-219.5" font-family="Helvetica,sans-Serif" font-size="10.00">include/york/Graphics</text>
<text text-anchor="middle" x="391.5" y="-208.5" font-family="Helvetica,sans-Serif" font-size="10.00">/RenderPass.hpp</text>
</a>
</g>
</g>
<!-- Node8&#45;&gt;Node10 -->
<g id="edge15" class="edge">
<title>Node8&#45;&gt;Node10</title>
<path fill="none" stroke="midnightblue" d="M391.5,-258.11C391.5,-249.15 391.5,-239.32 391.5,-231.58"/>
<polygon fill="midnightblue" stroke="midnightblue" points="388,-258.4 391.5,-268.4 395,-258.4 388,-258.4"/>
</g>
<!-- Node9&#45;&gt;Node4 -->
<g id="edge14" class="edge">
<title>Node9&#45;&gt;Node4</title>
<path fill="none" stroke="midnightblue" d="M490.29,-128.9C464.46,-112.22 426.22,-87.75 392.5,-67 372.18,-54.5 348.87,-40.68 331.8,-30.67"/>
<polygon fill="midnightblue" stroke="midnightblue" points="488.59,-131.96 498.89,-134.45 492.39,-126.08 488.59,-131.96"/>
</g>
<!-- Node10&#45;&gt;Node7 -->
<g id="edge16" class="edge">
<title>Node10&#45;&gt;Node7</title>
<path fill="none" stroke="midnightblue" d="M391.5,-191.11C391.5,-182.15 391.5,-172.32 391.5,-164.58"/>
<polygon fill="midnightblue" stroke="midnightblue" points="388,-191.4 391.5,-201.4 395,-191.4 388,-191.4"/>
</g>
<!-- Node10&#45;&gt;Node9 -->
<g id="edge17" class="edge">
<title>Node10&#45;&gt;Node9</title>
<path fill="none" stroke="midnightblue" d="M428.51,-196.85C448.9,-186.58 473.81,-174.03 492.56,-164.58"/>
<polygon fill="midnightblue" stroke="midnightblue" points="426.85,-193.77 419.49,-201.4 430,-200.02 426.85,-193.77"/>
</g>
<!-- Node11&#45;&gt;Node9 -->
<g id="edge19" class="edge">
<title>Node11&#45;&gt;Node9</title>
<path fill="none" stroke="midnightblue" d="M545.75,-192.58C540.14,-183.24 533.85,-172.75 528.95,-164.58"/>
<polygon fill="midnightblue" stroke="midnightblue" points="542.89,-194.62 551.04,-201.4 548.89,-191.02 542.89,-194.62"/>
</g>
<!-- Node12&#45;&gt;Node3 -->
<g id="edge21" class="edge">
<title>Node12&#45;&gt;Node3</title>
<path fill="none" stroke="midnightblue" d="M249.78,-128.17C262.62,-118.23 277.76,-106.51 289.31,-97.58"/>
<polygon fill="midnightblue" stroke="midnightblue" points="247.49,-125.51 241.73,-134.4 251.78,-131.04 247.49,-125.51"/>
</g>
<!-- Node12&#45;&gt;Node4 -->
<g id="edge22" class="edge">
<title>Node12&#45;&gt;Node4</title>
<path fill="none" stroke="midnightblue" d="M225.29,-124.13C227.5,-107.01 232.44,-84.19 243.5,-67 253.23,-51.88 269.05,-39.34 282.53,-30.53"/>
<polygon fill="midnightblue" stroke="midnightblue" points="221.77,-124.13 224.19,-134.44 228.73,-124.87 221.77,-124.13"/>
</g>
<!-- Node13&#45;&gt;Node9 -->
<g id="edge24" class="edge">
<title>Node13&#45;&gt;Node9</title>
<path fill="none" stroke="midnightblue" d="M630.25,-325.49C638.78,-294.24 648.37,-239.12 624.5,-201 613.58,-183.56 594.74,-171.99 576.06,-164.39"/>
<polygon fill="midnightblue" stroke="midnightblue" points="626.77,-324.9 627.33,-335.48 633.49,-326.86 626.77,-324.9"/>
</g>
</g>
</svg>
