<?xml version="1.0" encoding="UTF-8" standalone="no"?>
<!DOCTYPE svg PUBLIC "-//W3C//DTD SVG 1.1//EN"
 "http://www.w3.org/Graphics/SVG/1.1/DTD/svg11.dtd">
<!-- Generated by graphviz version 2.50.0 (20211204.2007)
 -->
<!-- Title: include/york/Graphics/Device.hpp Pages: 1 -->
<svg width="523pt" height="431pt"
 viewBox="0.00 0.00 522.53 431.00" xmlns="http://www.w3.org/2000/svg" xmlns:xlink="http://www.w3.org/1999/xlink">
<g id="graph0" class="graph" transform="scale(1 1) rotate(0) translate(4 427)">
<title>include/york/Graphics/Device.hpp</title>
<!-- Node1 -->
<g id="node1" class="node">
<title>Node1</title>
<g id="a_node1"><a xlink:title=" ">
<polygon fill="#bfbfbf" stroke="black" points="237.5,-392.5 237.5,-422.5 348.5,-422.5 348.5,-392.5 237.5,-392.5"/>
<text text-anchor="start" x="245.5" y="-410.5" font-family="Helvetica,sans-Serif" font-size="10.00">include/york/Graphics</text>
<text text-anchor="middle" x="293" y="-399.5" font-family="Helvetica,sans-Serif" font-size="10.00">/Device.hpp</text>
</a>
</g>
</g>
<!-- Node2 -->
<g id="node2" class="node">
<title>Node2</title>
<g id="a_node2"><a xlink:title=" ">
<polygon fill="none" stroke="#bfbfbf" points="73,-336.5 73,-355.5 113,-355.5 113,-336.5 73,-336.5"/>
<text text-anchor="middle" x="93" y="-343.5" font-family="Helvetica,sans-Serif" font-size="10.00">utility</text>
</a>
</g>
</g>
<!-- Node1&#45;&gt;Node2 -->
<g id="edge1" class="edge">
<title>Node1&#45;&gt;Node2</title>
<path fill="none" stroke="midnightblue" d="M245.86,-392.47C207.82,-381.16 155.47,-365.58 122.96,-355.91"/>
<polygon fill="midnightblue" stroke="midnightblue" points="123.72,-352.49 113.14,-352.99 121.73,-359.2 123.72,-352.49"/>
</g>
<!-- Node3 -->
<g id="node3" class="node">
<title>Node3</title>
<g id="a_node3"><a xlink:title=" ">
<polygon fill="none" stroke="#bfbfbf" points="390.5,-168.5 390.5,-187.5 485.5,-187.5 485.5,-168.5 390.5,-168.5"/>
<text text-anchor="middle" x="438" y="-175.5" font-family="Helvetica,sans-Serif" font-size="10.00">vulkan/vulkan.hpp</text>
</a>
</g>
</g>
<!-- Node1&#45;&gt;Node3 -->
<g id="edge2" class="edge">
<title>Node1&#45;&gt;Node3</title>
<path fill="none" stroke="midnightblue" d="M348.78,-400.37C378.53,-394.11 413.21,-381.49 434,-356 471.52,-310.01 454.71,-232.69 444.19,-197.48"/>
<polygon fill="midnightblue" stroke="midnightblue" points="447.42,-196.09 441.07,-187.61 440.75,-198.2 447.42,-196.09"/>
</g>
<!-- Node4 -->
<g id="node4" class="node">
<title>Node4</title>
<g id="a_node4"><a xlink:href="_handle_8hpp.html" target="_top" xlink:title="Contains the declarations for the Handle classes which form the basis of our Vulkan implementation.">
<polygon fill="none" stroke="black" points="317,-112.5 317,-131.5 383,-131.5 383,-112.5 317,-112.5"/>
<text text-anchor="middle" x="350" y="-119.5" font-family="Helvetica,sans-Serif" font-size="10.00">Handle.hpp</text>
</a>
</g>
</g>
<!-- Node1&#45;&gt;Node4 -->
<g id="edge3" class="edge">
<title>Node1&#45;&gt;Node4</title>
<path fill="none" stroke="midnightblue" d="M348.77,-401.41C414.24,-392 514,-365.46 514,-291 514,-291 514,-291 514,-233 514,-202.9 516.11,-189.46 495,-168 468.23,-140.79 425.34,-129.96 393.14,-125.69"/>
<polygon fill="midnightblue" stroke="midnightblue" points="393.43,-122.2 383.1,-124.52 392.62,-129.15 393.43,-122.2"/>
</g>
<!-- Node9 -->
<g id="node9" class="node">
<title>Node9</title>
<g id="a_node9"><a xlink:href="_instance_8hpp.html" target="_top" xlink:title=" ">
<polygon fill="none" stroke="black" points="207.5,-224.5 207.5,-243.5 280.5,-243.5 280.5,-224.5 207.5,-224.5"/>
<text text-anchor="middle" x="244" y="-231.5" font-family="Helvetica,sans-Serif" font-size="10.00">Instance.hpp</text>
</a>
</g>
</g>
<!-- Node1&#45;&gt;Node9 -->
<g id="edge8" class="edge">
<title>Node1&#45;&gt;Node9</title>
<path fill="none" stroke="midnightblue" d="M288.99,-392.47C280.16,-361.57 259.05,-287.69 249.21,-253.25"/>
<polygon fill="midnightblue" stroke="midnightblue" points="252.56,-252.21 246.45,-243.56 245.83,-254.14 252.56,-252.21"/>
</g>
<!-- Node11 -->
<g id="node11" class="node">
<title>Node11</title>
<g id="a_node11"><a xlink:href="_requestable_item_8hpp.html" target="_top" xlink:title=" ">
<polygon fill="none" stroke="black" points="0,-168.5 0,-187.5 110,-187.5 110,-168.5 0,-168.5"/>
<text text-anchor="middle" x="55" y="-175.5" font-family="Helvetica,sans-Serif" font-size="10.00">RequestableItem.hpp</text>
</a>
</g>
</g>
<!-- Node1&#45;&gt;Node11 -->
<g id="edge28" class="edge">
<title>Node1&#45;&gt;Node11</title>
<path fill="none" stroke="midnightblue" d="M278.11,-392.27C235.96,-351.98 115.98,-237.29 71.69,-194.96"/>
<polygon fill="midnightblue" stroke="midnightblue" points="73.99,-192.31 64.34,-187.93 69.15,-197.37 73.99,-192.31"/>
</g>
<!-- Node14 -->
<g id="node14" class="node">
<title>Node14</title>
<g id="a_node14"><a xlink:href="_physical_device_8hpp.html" target="_top" xlink:title=" ">
<polygon fill="none" stroke="black" points="321,-336.5 321,-355.5 425,-355.5 425,-336.5 321,-336.5"/>
<text text-anchor="middle" x="373" y="-343.5" font-family="Helvetica,sans-Serif" font-size="10.00">PhysicalDevice.hpp</text>
</a>
</g>
</g>
<!-- Node1&#45;&gt;Node14 -->
<g id="edge19" class="edge">
<title>Node1&#45;&gt;Node14</title>
<path fill="none" stroke="midnightblue" d="M311.96,-392.4C324.42,-383.13 340.7,-371.03 353.31,-361.65"/>
<polygon fill="midnightblue" stroke="midnightblue" points="355.42,-364.43 361.36,-355.66 351.25,-358.82 355.42,-364.43"/>
</g>
<!-- Node16 -->
<g id="node16" class="node">
<title>Node16</title>
<g id="a_node16"><a xlink:href="_surface_8hpp.html" target="_top" xlink:title=" ">
<polygon fill="none" stroke="black" points="272.5,-280.5 272.5,-299.5 341.5,-299.5 341.5,-280.5 272.5,-280.5"/>
<text text-anchor="middle" x="307" y="-287.5" font-family="Helvetica,sans-Serif" font-size="10.00">Surface.hpp</text>
</a>
</g>
</g>
<!-- Node1&#45;&gt;Node16 -->
<g id="edge29" class="edge">
<title>Node1&#45;&gt;Node16</title>
<path fill="none" stroke="midnightblue" d="M294.72,-392.34C297.23,-371.62 301.91,-333.02 304.71,-309.9"/>
<polygon fill="midnightblue" stroke="midnightblue" points="308.22,-310.02 305.95,-299.67 301.27,-309.18 308.22,-310.02"/>
</g>
<!-- Node5 -->
<g id="node5" class="node">
<title>Node5</title>
<g id="a_node5"><a xlink:title=" ">
<polygon fill="none" stroke="#bfbfbf" points="176,-56.5 176,-75.5 220,-75.5 220,-56.5 176,-56.5"/>
<text text-anchor="middle" x="198" y="-63.5" font-family="Helvetica,sans-Serif" font-size="10.00">vector</text>
</a>
</g>
</g>
<!-- Node4&#45;&gt;Node5 -->
<g id="edge4" class="edge">
<title>Node4&#45;&gt;Node5</title>
<path fill="none" stroke="midnightblue" d="M325.92,-112.44C300.01,-103.24 258.68,-88.56 230.04,-78.38"/>
<polygon fill="midnightblue" stroke="midnightblue" points="231.08,-75.04 220.49,-74.99 228.74,-81.63 231.08,-75.04"/>
</g>
<!-- Node6 -->
<g id="node6" class="node">
<title>Node6</title>
<g id="a_node6"><a xlink:title=" ">
<polygon fill="none" stroke="#bfbfbf" points="370.5,-56.5 370.5,-75.5 429.5,-75.5 429.5,-56.5 370.5,-56.5"/>
<text text-anchor="middle" x="400" y="-63.5" font-family="Helvetica,sans-Serif" font-size="10.00">functional</text>
</a>
</g>
</g>
<!-- Node4&#45;&gt;Node6 -->
<g id="edge5" class="edge">
<title>Node4&#45;&gt;Node6</title>
<path fill="none" stroke="midnightblue" d="M358.26,-112.08C365.46,-104.3 376.11,-92.8 384.85,-83.37"/>
<polygon fill="midnightblue" stroke="midnightblue" points="387.67,-85.47 391.9,-75.75 382.53,-80.71 387.67,-85.47"/>
</g>
<!-- Node7 -->
<g id="node7" class="node">
<title>Node7</title>
<g id="a_node7"><a xlink:href="_identifiable_8hpp.html" target="_top" xlink:title=" ">
<polygon fill="none" stroke="black" points="248,-56.5 248,-75.5 352,-75.5 352,-56.5 248,-56.5"/>
<text text-anchor="middle" x="300" y="-63.5" font-family="Helvetica,sans-Serif" font-size="10.00">york/Identifiable.hpp</text>
</a>
</g>
</g>
<!-- Node4&#45;&gt;Node7 -->
<g id="edge6" class="edge">
<title>Node4&#45;&gt;Node7</title>
<path fill="none" stroke="midnightblue" d="M341.74,-112.08C334.54,-104.3 323.89,-92.8 315.15,-83.37"/>
<polygon fill="midnightblue" stroke="midnightblue" points="317.47,-80.71 308.1,-75.75 312.33,-85.47 317.47,-80.71"/>
</g>
<!-- Node8 -->
<g id="node8" class="node">
<title>Node8</title>
<g id="a_node8"><a xlink:title=" ">
<polygon fill="none" stroke="#bfbfbf" points="249.5,-0.5 249.5,-19.5 350.5,-19.5 350.5,-0.5 249.5,-0.5"/>
<text text-anchor="middle" x="300" y="-7.5" font-family="Helvetica,sans-Serif" font-size="10.00">boost/uuid/uuid.hpp</text>
</a>
</g>
</g>
<!-- Node7&#45;&gt;Node8 -->
<g id="edge7" class="edge">
<title>Node7&#45;&gt;Node8</title>
<path fill="none" stroke="midnightblue" d="M300,-56.08C300,-49.01 300,-38.86 300,-29.99"/>
<polygon fill="midnightblue" stroke="midnightblue" points="303.5,-29.75 300,-19.75 296.5,-29.75 303.5,-29.75"/>
</g>
<!-- Node9&#45;&gt;Node3 -->
<g id="edge11" class="edge">
<title>Node9&#45;&gt;Node3</title>
<path fill="none" stroke="midnightblue" d="M274.74,-224.44C307.94,-215.2 360.99,-200.44 397.56,-190.26"/>
<polygon fill="midnightblue" stroke="midnightblue" points="398.71,-193.57 407.4,-187.52 396.83,-186.83 398.71,-193.57"/>
</g>
<!-- Node9&#45;&gt;Node4 -->
<g id="edge12" class="edge">
<title>Node9&#45;&gt;Node4</title>
<path fill="none" stroke="midnightblue" d="M258.36,-224.35C271.43,-216.05 290.79,-202.64 305,-188 319,-173.57 331.71,-154.38 340.02,-140.6"/>
<polygon fill="midnightblue" stroke="midnightblue" points="343.22,-142.06 345.25,-131.66 337.18,-138.52 343.22,-142.06"/>
</g>
<!-- Node9&#45;&gt;Node5 -->
<g id="edge10" class="edge">
<title>Node9&#45;&gt;Node5</title>
<path fill="none" stroke="midnightblue" d="M229.14,-224.38C216.19,-216.29 197.57,-203.18 185,-188 167.26,-166.56 163.39,-159.08 157,-132 154.96,-123.35 153.79,-120.29 157,-112 161.45,-100.5 170.37,-90.13 178.75,-82.25"/>
<polygon fill="midnightblue" stroke="midnightblue" points="181.24,-84.73 186.46,-75.51 176.63,-79.46 181.24,-84.73"/>
</g>
<!-- Node10 -->
<g id="node10" class="node">
<title>Node10</title>
<g id="a_node10"><a xlink:title=" ">
<polygon fill="none" stroke="#bfbfbf" points="166.5,-112.5 166.5,-131.5 207.5,-131.5 207.5,-112.5 166.5,-112.5"/>
<text text-anchor="middle" x="187" y="-119.5" font-family="Helvetica,sans-Serif" font-size="10.00">string</text>
</a>
</g>
</g>
<!-- Node9&#45;&gt;Node10 -->
<g id="edge9" class="edge">
<title>Node9&#45;&gt;Node10</title>
<path fill="none" stroke="midnightblue" d="M230.29,-224.48C218.8,-216.55 203.03,-203.61 195,-188 187.6,-173.62 185.96,-155.17 185.95,-141.59"/>
<polygon fill="midnightblue" stroke="midnightblue" points="189.45,-141.64 186.25,-131.54 182.46,-141.43 189.45,-141.64"/>
</g>
<!-- Node9&#45;&gt;Node11 -->
<g id="edge13" class="edge">
<title>Node9&#45;&gt;Node11</title>
<path fill="none" stroke="midnightblue" d="M214.05,-224.44C181.84,-215.24 130.47,-200.56 94.86,-190.39"/>
<polygon fill="midnightblue" stroke="midnightblue" points="95.38,-186.9 84.81,-187.52 93.46,-193.63 95.38,-186.9"/>
</g>
<!-- Node12 -->
<g id="node12" class="node">
<title>Node12</title>
<g id="a_node12"><a xlink:href="_window_8hpp.html" target="_top" xlink:title=" ">
<polygon fill="none" stroke="black" points="204.5,-168.5 204.5,-187.5 295.5,-187.5 295.5,-168.5 204.5,-168.5"/>
<text text-anchor="middle" x="250" y="-175.5" font-family="Helvetica,sans-Serif" font-size="10.00">york/Window.hpp</text>
</a>
</g>
</g>
<!-- Node9&#45;&gt;Node12 -->
<g id="edge15" class="edge">
<title>Node9&#45;&gt;Node12</title>
<path fill="none" stroke="midnightblue" d="M244.99,-224.08C245.79,-216.93 246.93,-206.64 247.92,-197.69"/>
<polygon fill="midnightblue" stroke="midnightblue" points="251.4,-198.08 249.03,-187.75 244.44,-197.3 251.4,-198.08"/>
</g>
<!-- Node11&#45;&gt;Node10 -->
<g id="edge14" class="edge">
<title>Node11&#45;&gt;Node10</title>
<path fill="none" stroke="midnightblue" d="M75.92,-168.44C97.74,-159.52 132.15,-145.44 156.89,-135.32"/>
<polygon fill="midnightblue" stroke="midnightblue" points="158.25,-138.54 166.18,-131.52 155.6,-132.06 158.25,-138.54"/>
</g>
<!-- Node12&#45;&gt;Node4 -->
<g id="edge18" class="edge">
<title>Node12&#45;&gt;Node4</title>
<path fill="none" stroke="midnightblue" d="M266.07,-168.32C281.96,-159.74 306.51,-146.49 324.96,-136.52"/>
<polygon fill="midnightblue" stroke="midnightblue" points="326.84,-139.49 333.97,-131.65 323.51,-133.33 326.84,-139.49"/>
</g>
<!-- Node12&#45;&gt;Node10 -->
<g id="edge16" class="edge">
<title>Node12&#45;&gt;Node10</title>
<path fill="none" stroke="midnightblue" d="M239.88,-168.32C230.47,-160.26 216.26,-148.08 204.93,-138.37"/>
<polygon fill="midnightblue" stroke="midnightblue" points="207.18,-135.68 197.31,-131.83 202.62,-141 207.18,-135.68"/>
</g>
<!-- Node13 -->
<g id="node13" class="node">
<title>Node13</title>
<g id="a_node13"><a xlink:title=" ">
<polygon fill="none" stroke="#bfbfbf" points="225.5,-112.5 225.5,-131.5 298.5,-131.5 298.5,-112.5 225.5,-112.5"/>
<text text-anchor="middle" x="262" y="-119.5" font-family="Helvetica,sans-Serif" font-size="10.00">SDL_video.h</text>
</a>
</g>
</g>
<!-- Node12&#45;&gt;Node13 -->
<g id="edge17" class="edge">
<title>Node12&#45;&gt;Node13</title>
<path fill="none" stroke="midnightblue" d="M251.98,-168.08C253.57,-160.93 255.86,-150.64 257.85,-141.69"/>
<polygon fill="midnightblue" stroke="midnightblue" points="261.3,-142.27 260.06,-131.75 254.47,-140.75 261.3,-142.27"/>
</g>
<!-- Node14&#45;&gt;Node3 -->
<g id="edge21" class="edge">
<title>Node14&#45;&gt;Node3</title>
<path fill="none" stroke="midnightblue" d="M385.75,-336.23C396.46,-328.13 411.22,-315.09 419,-300 435.99,-267.04 438.65,-222.84 438.62,-198"/>
<polygon fill="midnightblue" stroke="midnightblue" points="442.12,-197.72 438.45,-187.78 435.12,-197.84 442.12,-197.72"/>
</g>
<!-- Node14&#45;&gt;Node11 -->
<g id="edge27" class="edge">
<title>Node14&#45;&gt;Node11</title>
<path fill="none" stroke="midnightblue" d="M348.05,-336.46C325.49,-328.33 291.67,-315.12 264,-300 212.18,-271.68 206.37,-253.13 155,-224 132.8,-211.41 106.43,-199.67 86.34,-191.33"/>
<polygon fill="midnightblue" stroke="midnightblue" points="87.61,-188.07 77.03,-187.53 84.96,-194.55 87.61,-188.07"/>
</g>
<!-- Node15 -->
<g id="node15" class="node">
<title>Node15</title>
<g id="a_node15"><a xlink:title=" ">
<polygon fill="none" stroke="#bfbfbf" points="360,-280.5 360,-299.5 410,-299.5 410,-280.5 360,-280.5"/>
<text text-anchor="middle" x="385" y="-287.5" font-family="Helvetica,sans-Serif" font-size="10.00">optional</text>
</a>
</g>
</g>
<!-- Node14&#45;&gt;Node15 -->
<g id="edge20" class="edge">
<title>Node14&#45;&gt;Node15</title>
<path fill="none" stroke="midnightblue" d="M374.98,-336.08C376.57,-328.93 378.86,-318.64 380.85,-309.69"/>
<polygon fill="midnightblue" stroke="midnightblue" points="384.3,-310.27 383.06,-299.75 377.47,-308.75 384.3,-310.27"/>
</g>
<!-- Node14&#45;&gt;Node16 -->
<g id="edge22" class="edge">
<title>Node14&#45;&gt;Node16</title>
<path fill="none" stroke="midnightblue" d="M362.4,-336.32C352.54,-328.26 337.65,-316.08 325.78,-306.37"/>
<polygon fill="midnightblue" stroke="midnightblue" points="327.75,-303.46 317.8,-299.83 323.32,-308.88 327.75,-303.46"/>
</g>
<!-- Node16&#45;&gt;Node3 -->
<g id="edge23" class="edge">
<title>Node16&#45;&gt;Node3</title>
<path fill="none" stroke="midnightblue" d="M322.23,-280.45C336.69,-272.03 358.73,-258.35 376,-244 394.08,-228.98 412.36,-209.11 424.34,-195.32"/>
<polygon fill="midnightblue" stroke="midnightblue" points="427.09,-197.48 430.92,-187.61 421.77,-192.94 427.09,-197.48"/>
</g>
<!-- Node16&#45;&gt;Node4 -->
<g id="edge25" class="edge">
<title>Node16&#45;&gt;Node4</title>
<path fill="none" stroke="midnightblue" d="M309.31,-280.08C316.08,-253.95 335.96,-177.21 345.19,-141.58"/>
<polygon fill="midnightblue" stroke="midnightblue" points="348.66,-142.13 347.78,-131.57 341.88,-140.37 348.66,-142.13"/>
</g>
<!-- Node16&#45;&gt;Node9 -->
<g id="edge26" class="edge">
<title>Node16&#45;&gt;Node9</title>
<path fill="none" stroke="midnightblue" d="M296.88,-280.32C287.47,-272.26 273.26,-260.08 261.93,-250.37"/>
<polygon fill="midnightblue" stroke="midnightblue" points="264.18,-247.68 254.31,-243.83 259.62,-253 264.18,-247.68"/>
</g>
<!-- Node16&#45;&gt;Node12 -->
<g id="edge24" class="edge">
<title>Node16&#45;&gt;Node12</title>
<path fill="none" stroke="midnightblue" d="M306.01,-280.11C304.28,-267.13 299.9,-242.51 290,-224 284.23,-213.22 275.38,-202.89 267.47,-194.86"/>
<polygon fill="midnightblue" stroke="midnightblue" points="269.64,-192.09 260.02,-187.65 264.78,-197.12 269.64,-192.09"/>
</g>
</g>
</svg>
