<?xml version="1.0" encoding="UTF-8" standalone="no"?>
<!DOCTYPE svg PUBLIC "-//W3C//DTD SVG 1.1//EN"
 "http://www.w3.org/Graphics/SVG/1.1/DTD/svg11.dtd">
<!-- Generated by graphviz version 2.50.0 (20211204.2007)
 -->
<!-- Title: include/york/Graphics/Device.hpp Pages: 1 -->
<svg width="522pt" height="431pt"
 viewBox="0.00 0.00 522.39 431.00" xmlns="http://www.w3.org/2000/svg" xmlns:xlink="http://www.w3.org/1999/xlink">
<g id="graph0" class="graph" transform="scale(1 1) rotate(0) translate(4 427)">
<title>include/york/Graphics/Device.hpp</title>
<!-- Node1 -->
<g id="node1" class="node">
<title>Node1</title>
<g id="a_node1"><a xlink:title=" ">
<polygon fill="#bfbfbf" stroke="black" points="237.5,-392.5 237.5,-422.5 348.5,-422.5 348.5,-392.5 237.5,-392.5"/>
<text text-anchor="start" x="245.5" y="-410.5" font-family="Helvetica,sans-Serif" font-size="10.00">include/york/Graphics</text>
<text text-anchor="middle" x="293" y="-399.5" font-family="Helvetica,sans-Serif" font-size="10.00">/Device.hpp</text>
</a>
</g>
</g>
<!-- Node2 -->
<g id="node2" class="node">
<title>Node2</title>
<g id="a_node2"><a xlink:title=" ">
<polygon fill="none" stroke="#bfbfbf" points="73,-336.5 73,-355.5 113,-355.5 113,-336.5 73,-336.5"/>
<text text-anchor="middle" x="93" y="-343.5" font-family="Helvetica,sans-Serif" font-size="10.00">utility</text>
</a>
</g>
</g>
<!-- Node1&#45;&gt;Node2 -->
<g id="edge1" class="edge">
<title>Node1&#45;&gt;Node2</title>
<path fill="none" stroke="midnightblue" d="M245.86,-392.47C207.82,-381.16 155.47,-365.58 122.96,-355.91"/>
<polygon fill="midnightblue" stroke="midnightblue" points="123.72,-352.49 113.14,-352.99 121.73,-359.2 123.72,-352.49"/>
</g>
<!-- Node3 -->
<g id="node3" class="node">
<title>Node3</title>
<g id="a_node3"><a xlink:title=" ">
<polygon fill="none" stroke="#bfbfbf" points="390.5,-168.5 390.5,-187.5 485.5,-187.5 485.5,-168.5 390.5,-168.5"/>
<text text-anchor="middle" x="438" y="-175.5" font-family="Helvetica,sans-Serif" font-size="10.00">vulkan/vulkan.hpp</text>
</a>
</g>
</g>
<!-- Node1&#45;&gt;Node3 -->
<g id="edge2" class="edge">
<title>Node1&#45;&gt;Node3</title>
<path fill="none" stroke="midnightblue" d="M348.78,-400.37C378.53,-394.11 413.21,-381.49 434,-356 471.52,-310.01 454.71,-232.69 444.19,-197.48"/>
<polygon fill="midnightblue" stroke="midnightblue" points="447.42,-196.09 441.07,-187.61 440.75,-198.2 447.42,-196.09"/>
</g>
<!-- Node4 -->
<g id="node4" class="node">
<title>Node4</title>
<g id="a_node4"><a xlink:href="_handle_8hpp.html" target="_top" xlink:title="Contains the declarations for the Handle classes which form the basis of our Vulkan implementation.">
<polygon fill="none" stroke="black" points="339,-112.5 339,-131.5 405,-131.5 405,-112.5 339,-112.5"/>
<text text-anchor="middle" x="372" y="-119.5" font-family="Helvetica,sans-Serif" font-size="10.00">Handle.hpp</text>
</a>
</g>
</g>
<!-- Node1&#45;&gt;Node4 -->
<g id="edge3" class="edge">
<title>Node1&#45;&gt;Node4</title>
<path fill="none" stroke="midnightblue" d="M348.77,-401.41C414.24,-392 514,-365.46 514,-291 514,-291 514,-291 514,-233 514,-202.9 515.56,-189.98 495,-168 474.29,-145.87 441.8,-134.58 415.41,-128.85"/>
<polygon fill="midnightblue" stroke="midnightblue" points="415.75,-125.35 405.26,-126.85 414.4,-132.22 415.75,-125.35"/>
</g>
<!-- Node9 -->
<g id="node9" class="node">
<title>Node9</title>
<g id="a_node9"><a xlink:href="_instance_8hpp.html" target="_top" xlink:title=" ">
<polygon fill="none" stroke="black" points="207.5,-224.5 207.5,-243.5 280.5,-243.5 280.5,-224.5 207.5,-224.5"/>
<text text-anchor="middle" x="244" y="-231.5" font-family="Helvetica,sans-Serif" font-size="10.00">Instance.hpp</text>
</a>
</g>
</g>
<!-- Node1&#45;&gt;Node9 -->
<g id="edge8" class="edge">
<title>Node1&#45;&gt;Node9</title>
<path fill="none" stroke="midnightblue" d="M288.99,-392.47C280.16,-361.57 259.05,-287.69 249.21,-253.25"/>
<polygon fill="midnightblue" stroke="midnightblue" points="252.56,-252.21 246.45,-243.56 245.83,-254.14 252.56,-252.21"/>
</g>
<!-- Node11 -->
<g id="node11" class="node">
<title>Node11</title>
<g id="a_node11"><a xlink:href="_requestable_item_8hpp.html" target="_top" xlink:title=" ">
<polygon fill="none" stroke="black" points="0,-168.5 0,-187.5 110,-187.5 110,-168.5 0,-168.5"/>
<text text-anchor="middle" x="55" y="-175.5" font-family="Helvetica,sans-Serif" font-size="10.00">RequestableItem.hpp</text>
</a>
</g>
</g>
<!-- Node1&#45;&gt;Node11 -->
<g id="edge28" class="edge">
<title>Node1&#45;&gt;Node11</title>
<path fill="none" stroke="midnightblue" d="M278.11,-392.27C235.96,-351.98 115.98,-237.29 71.69,-194.96"/>
<polygon fill="midnightblue" stroke="midnightblue" points="73.99,-192.31 64.34,-187.93 69.15,-197.37 73.99,-192.31"/>
</g>
<!-- Node14 -->
<g id="node14" class="node">
<title>Node14</title>
<g id="a_node14"><a xlink:href="_physical_device_8hpp.html" target="_top" xlink:title=" ">
<polygon fill="none" stroke="black" points="321,-336.5 321,-355.5 425,-355.5 425,-336.5 321,-336.5"/>
<text text-anchor="middle" x="373" y="-343.5" font-family="Helvetica,sans-Serif" font-size="10.00">PhysicalDevice.hpp</text>
</a>
</g>
</g>
<!-- Node1&#45;&gt;Node14 -->
<g id="edge19" class="edge">
<title>Node1&#45;&gt;Node14</title>
<path fill="none" stroke="midnightblue" d="M311.96,-392.4C324.42,-383.13 340.7,-371.03 353.31,-361.65"/>
<polygon fill="midnightblue" stroke="midnightblue" points="355.42,-364.43 361.36,-355.66 351.25,-358.82 355.42,-364.43"/>
</g>
<!-- Node16 -->
<g id="node16" class="node">
<title>Node16</title>
<g id="a_node16"><a xlink:href="_surface_8hpp.html" target="_top" xlink:title=" ">
<polygon fill="none" stroke="black" points="272.5,-280.5 272.5,-299.5 341.5,-299.5 341.5,-280.5 272.5,-280.5"/>
<text text-anchor="middle" x="307" y="-287.5" font-family="Helvetica,sans-Serif" font-size="10.00">Surface.hpp</text>
</a>
</g>
</g>
<!-- Node1&#45;&gt;Node16 -->
<g id="edge29" class="edge">
<title>Node1&#45;&gt;Node16</title>
<path fill="none" stroke="midnightblue" d="M294.72,-392.34C297.23,-371.62 301.91,-333.02 304.71,-309.9"/>
<polygon fill="midnightblue" stroke="midnightblue" points="308.22,-310.02 305.95,-299.67 301.27,-309.18 308.22,-310.02"/>
</g>
<!-- Node5 -->
<g id="node5" class="node">
<title>Node5</title>
<g id="a_node5"><a xlink:title=" ">
<polygon fill="none" stroke="#bfbfbf" points="184,-56.5 184,-75.5 228,-75.5 228,-56.5 184,-56.5"/>
<text text-anchor="middle" x="206" y="-63.5" font-family="Helvetica,sans-Serif" font-size="10.00">vector</text>
</a>
</g>
</g>
<!-- Node4&#45;&gt;Node5 -->
<g id="edge4" class="edge">
<title>Node4&#45;&gt;Node5</title>
<path fill="none" stroke="midnightblue" d="M345.7,-112.44C316.41,-102.92 269.09,-87.52 237.76,-77.33"/>
<polygon fill="midnightblue" stroke="midnightblue" points="238.79,-73.99 228.2,-74.22 236.62,-80.64 238.79,-73.99"/>
</g>
<!-- Node6 -->
<g id="node6" class="node">
<title>Node6</title>
<g id="a_node6"><a xlink:title=" ">
<polygon fill="none" stroke="#bfbfbf" points="392.5,-56.5 392.5,-75.5 451.5,-75.5 451.5,-56.5 392.5,-56.5"/>
<text text-anchor="middle" x="422" y="-63.5" font-family="Helvetica,sans-Serif" font-size="10.00">functional</text>
</a>
</g>
</g>
<!-- Node4&#45;&gt;Node6 -->
<g id="edge5" class="edge">
<title>Node4&#45;&gt;Node6</title>
<path fill="none" stroke="midnightblue" d="M380.26,-112.08C387.46,-104.3 398.11,-92.8 406.85,-83.37"/>
<polygon fill="midnightblue" stroke="midnightblue" points="409.67,-85.47 413.9,-75.75 404.53,-80.71 409.67,-85.47"/>
</g>
<!-- Node7 -->
<g id="node7" class="node">
<title>Node7</title>
<g id="a_node7"><a xlink:href="_identifiable_8hpp.html" target="_top" xlink:title=" ">
<polygon fill="none" stroke="black" points="270,-56.5 270,-75.5 374,-75.5 374,-56.5 270,-56.5"/>
<text text-anchor="middle" x="322" y="-63.5" font-family="Helvetica,sans-Serif" font-size="10.00">york/Identifiable.hpp</text>
</a>
</g>
</g>
<!-- Node4&#45;&gt;Node7 -->
<g id="edge6" class="edge">
<title>Node4&#45;&gt;Node7</title>
<path fill="none" stroke="midnightblue" d="M363.74,-112.08C356.54,-104.3 345.89,-92.8 337.15,-83.37"/>
<polygon fill="midnightblue" stroke="midnightblue" points="339.47,-80.71 330.1,-75.75 334.33,-85.47 339.47,-80.71"/>
</g>
<!-- Node8 -->
<g id="node8" class="node">
<title>Node8</title>
<g id="a_node8"><a xlink:title=" ">
<polygon fill="none" stroke="#bfbfbf" points="299,-0.5 299,-19.5 345,-19.5 345,-0.5 299,-0.5"/>
<text text-anchor="middle" x="322" y="-7.5" font-family="Helvetica,sans-Serif" font-size="10.00">cstdint</text>
</a>
</g>
</g>
<!-- Node7&#45;&gt;Node8 -->
<g id="edge7" class="edge">
<title>Node7&#45;&gt;Node8</title>
<path fill="none" stroke="midnightblue" d="M322,-56.08C322,-49.01 322,-38.86 322,-29.99"/>
<polygon fill="midnightblue" stroke="midnightblue" points="325.5,-29.75 322,-19.75 318.5,-29.75 325.5,-29.75"/>
</g>
<!-- Node9&#45;&gt;Node3 -->
<g id="edge11" class="edge">
<title>Node9&#45;&gt;Node3</title>
<path fill="none" stroke="midnightblue" d="M274.74,-224.44C307.94,-215.2 360.99,-200.44 397.56,-190.26"/>
<polygon fill="midnightblue" stroke="midnightblue" points="398.71,-193.57 407.4,-187.52 396.83,-186.83 398.71,-193.57"/>
</g>
<!-- Node9&#45;&gt;Node4 -->
<g id="edge12" class="edge">
<title>Node9&#45;&gt;Node4</title>
<path fill="none" stroke="midnightblue" d="M257,-224.17C269.62,-215.43 289.14,-201.44 305,-188 323.61,-172.24 343.49,-152.55 356.72,-138.99"/>
<polygon fill="midnightblue" stroke="midnightblue" points="359.24,-141.42 363.68,-131.8 354.21,-136.55 359.24,-141.42"/>
</g>
<!-- Node9&#45;&gt;Node5 -->
<g id="edge10" class="edge">
<title>Node9&#45;&gt;Node5</title>
<path fill="none" stroke="midnightblue" d="M229.38,-224.38C216.37,-216.19 197.37,-202.94 184,-188 164.74,-166.47 158.6,-159.87 151,-132 148.66,-123.42 147.19,-120.03 151,-112 157.13,-99.07 168.99,-88.62 180.14,-81.05"/>
<polygon fill="midnightblue" stroke="midnightblue" points="182.19,-83.9 188.8,-75.61 178.47,-77.97 182.19,-83.9"/>
</g>
<!-- Node10 -->
<g id="node10" class="node">
<title>Node10</title>
<g id="a_node10"><a xlink:title=" ">
<polygon fill="none" stroke="#bfbfbf" points="160.5,-112.5 160.5,-131.5 201.5,-131.5 201.5,-112.5 160.5,-112.5"/>
<text text-anchor="middle" x="181" y="-119.5" font-family="Helvetica,sans-Serif" font-size="10.00">string</text>
</a>
</g>
</g>
<!-- Node9&#45;&gt;Node10 -->
<g id="edge9" class="edge">
<title>Node9&#45;&gt;Node10</title>
<path fill="none" stroke="midnightblue" d="M230.63,-224.3C219.36,-216.24 203.72,-203.24 195,-188 186.84,-173.76 183.43,-155.28 182,-141.67"/>
<polygon fill="midnightblue" stroke="midnightblue" points="185.48,-141.28 181.22,-131.58 178.51,-141.83 185.48,-141.28"/>
</g>
<!-- Node9&#45;&gt;Node11 -->
<g id="edge13" class="edge">
<title>Node9&#45;&gt;Node11</title>
<path fill="none" stroke="midnightblue" d="M214.05,-224.44C181.84,-215.24 130.47,-200.56 94.86,-190.39"/>
<polygon fill="midnightblue" stroke="midnightblue" points="95.38,-186.9 84.81,-187.52 93.46,-193.63 95.38,-186.9"/>
</g>
<!-- Node12 -->
<g id="node12" class="node">
<title>Node12</title>
<g id="a_node12"><a xlink:href="_window_8hpp.html" target="_top" xlink:title=" ">
<polygon fill="none" stroke="black" points="204.5,-168.5 204.5,-187.5 295.5,-187.5 295.5,-168.5 204.5,-168.5"/>
<text text-anchor="middle" x="250" y="-175.5" font-family="Helvetica,sans-Serif" font-size="10.00">york/Window.hpp</text>
</a>
</g>
</g>
<!-- Node9&#45;&gt;Node12 -->
<g id="edge15" class="edge">
<title>Node9&#45;&gt;Node12</title>
<path fill="none" stroke="midnightblue" d="M244.99,-224.08C245.79,-216.93 246.93,-206.64 247.92,-197.69"/>
<polygon fill="midnightblue" stroke="midnightblue" points="251.4,-198.08 249.03,-187.75 244.44,-197.3 251.4,-198.08"/>
</g>
<!-- Node11&#45;&gt;Node10 -->
<g id="edge14" class="edge">
<title>Node11&#45;&gt;Node10</title>
<path fill="none" stroke="midnightblue" d="M74.97,-168.44C95.61,-159.6 128.06,-145.69 151.63,-135.59"/>
<polygon fill="midnightblue" stroke="midnightblue" points="153.32,-138.67 161.13,-131.52 150.56,-132.24 153.32,-138.67"/>
</g>
<!-- Node12&#45;&gt;Node4 -->
<g id="edge18" class="edge">
<title>Node12&#45;&gt;Node4</title>
<path fill="none" stroke="midnightblue" d="M269.33,-168.44C289.32,-159.6 320.74,-145.69 343.56,-135.59"/>
<polygon fill="midnightblue" stroke="midnightblue" points="345.03,-138.76 352.76,-131.52 342.2,-132.36 345.03,-138.76"/>
</g>
<!-- Node12&#45;&gt;Node10 -->
<g id="edge16" class="edge">
<title>Node12&#45;&gt;Node10</title>
<path fill="none" stroke="midnightblue" d="M238.91,-168.32C228.51,-160.18 212.74,-147.84 200.28,-138.09"/>
<polygon fill="midnightblue" stroke="midnightblue" points="202.32,-135.24 192.29,-131.83 198.01,-140.75 202.32,-135.24"/>
</g>
<!-- Node13 -->
<g id="node13" class="node">
<title>Node13</title>
<g id="a_node13"><a xlink:title=" ">
<polygon fill="none" stroke="#bfbfbf" points="219.5,-112.5 219.5,-131.5 320.5,-131.5 320.5,-112.5 219.5,-112.5"/>
<text text-anchor="middle" x="270" y="-119.5" font-family="Helvetica,sans-Serif" font-size="10.00">SDL2/SDL_video.h</text>
</a>
</g>
</g>
<!-- Node12&#45;&gt;Node13 -->
<g id="edge17" class="edge">
<title>Node12&#45;&gt;Node13</title>
<path fill="none" stroke="midnightblue" d="M253.3,-168.08C255.98,-160.85 259.85,-150.41 263.19,-141.4"/>
<polygon fill="midnightblue" stroke="midnightblue" points="266.57,-142.34 266.76,-131.75 260,-139.91 266.57,-142.34"/>
</g>
<!-- Node14&#45;&gt;Node3 -->
<g id="edge21" class="edge">
<title>Node14&#45;&gt;Node3</title>
<path fill="none" stroke="midnightblue" d="M385.75,-336.23C396.46,-328.13 411.22,-315.09 419,-300 435.99,-267.04 438.65,-222.84 438.62,-198"/>
<polygon fill="midnightblue" stroke="midnightblue" points="442.12,-197.72 438.45,-187.78 435.12,-197.84 442.12,-197.72"/>
</g>
<!-- Node14&#45;&gt;Node11 -->
<g id="edge27" class="edge">
<title>Node14&#45;&gt;Node11</title>
<path fill="none" stroke="midnightblue" d="M348.05,-336.46C325.49,-328.33 291.67,-315.12 264,-300 212.18,-271.68 206.37,-253.13 155,-224 132.8,-211.41 106.43,-199.67 86.34,-191.33"/>
<polygon fill="midnightblue" stroke="midnightblue" points="87.61,-188.07 77.03,-187.53 84.96,-194.55 87.61,-188.07"/>
</g>
<!-- Node15 -->
<g id="node15" class="node">
<title>Node15</title>
<g id="a_node15"><a xlink:title=" ">
<polygon fill="none" stroke="#bfbfbf" points="360,-280.5 360,-299.5 410,-299.5 410,-280.5 360,-280.5"/>
<text text-anchor="middle" x="385" y="-287.5" font-family="Helvetica,sans-Serif" font-size="10.00">optional</text>
</a>
</g>
</g>
<!-- Node14&#45;&gt;Node15 -->
<g id="edge20" class="edge">
<title>Node14&#45;&gt;Node15</title>
<path fill="none" stroke="midnightblue" d="M374.98,-336.08C376.57,-328.93 378.86,-318.64 380.85,-309.69"/>
<polygon fill="midnightblue" stroke="midnightblue" points="384.3,-310.27 383.06,-299.75 377.47,-308.75 384.3,-310.27"/>
</g>
<!-- Node14&#45;&gt;Node16 -->
<g id="edge22" class="edge">
<title>Node14&#45;&gt;Node16</title>
<path fill="none" stroke="midnightblue" d="M362.4,-336.32C352.54,-328.26 337.65,-316.08 325.78,-306.37"/>
<polygon fill="midnightblue" stroke="midnightblue" points="327.75,-303.46 317.8,-299.83 323.32,-308.88 327.75,-303.46"/>
</g>
<!-- Node16&#45;&gt;Node3 -->
<g id="edge23" class="edge">
<title>Node16&#45;&gt;Node3</title>
<path fill="none" stroke="midnightblue" d="M322.23,-280.45C336.69,-272.03 358.73,-258.35 376,-244 394.08,-228.98 412.36,-209.11 424.34,-195.32"/>
<polygon fill="midnightblue" stroke="midnightblue" points="427.09,-197.48 430.92,-187.61 421.77,-192.94 427.09,-197.48"/>
</g>
<!-- Node16&#45;&gt;Node4 -->
<g id="edge25" class="edge">
<title>Node16&#45;&gt;Node4</title>
<path fill="none" stroke="midnightblue" d="M310.49,-280.08C320.77,-253.83 351.03,-176.55 364.91,-141.12"/>
<polygon fill="midnightblue" stroke="midnightblue" points="368.26,-142.16 368.65,-131.57 361.74,-139.6 368.26,-142.16"/>
</g>
<!-- Node16&#45;&gt;Node9 -->
<g id="edge26" class="edge">
<title>Node16&#45;&gt;Node9</title>
<path fill="none" stroke="midnightblue" d="M296.88,-280.32C287.47,-272.26 273.26,-260.08 261.93,-250.37"/>
<polygon fill="midnightblue" stroke="midnightblue" points="264.18,-247.68 254.31,-243.83 259.62,-253 264.18,-247.68"/>
</g>
<!-- Node16&#45;&gt;Node12 -->
<g id="edge24" class="edge">
<title>Node16&#45;&gt;Node12</title>
<path fill="none" stroke="midnightblue" d="M306.01,-280.11C304.28,-267.13 299.9,-242.51 290,-224 284.23,-213.22 275.38,-202.89 267.47,-194.86"/>
<polygon fill="midnightblue" stroke="midnightblue" points="269.64,-192.09 260.02,-187.65 264.78,-197.12 269.64,-192.09"/>
</g>
</g>
</svg>
