<?xml version="1.0" encoding="UTF-8" standalone="no"?>
<!DOCTYPE svg PUBLIC "-//W3C//DTD SVG 1.1//EN"
 "http://www.w3.org/Graphics/SVG/1.1/DTD/svg11.dtd">
<!-- Generated by graphviz version 2.50.0 (20211204.2007)
 -->
<!-- Title: include/york/Event.hpp Pages: 1 -->
<svg width="434pt" height="140pt"
 viewBox="0.00 0.00 433.50 140.00" xmlns="http://www.w3.org/2000/svg" xmlns:xlink="http://www.w3.org/1999/xlink">
<g id="graph0" class="graph" transform="scale(1 1) rotate(0) translate(4 136)">
<title>include/york/Event.hpp</title>
<!-- Node1 -->
<g id="node1" class="node">
<title>Node1</title>
<g id="a_node1"><a xlink:title=" ">
<polygon fill="#bfbfbf" stroke="black" points="138,-112.5 138,-131.5 254,-131.5 254,-112.5 138,-112.5"/>
<text text-anchor="middle" x="196" y="-119.5" font-family="Helvetica,sans-Serif" font-size="10.00">include/york/Event.hpp</text>
</a>
</g>
</g>
<!-- Node2 -->
<g id="node2" class="node">
<title>Node2</title>
<g id="a_node2"><a xlink:title=" ">
<polygon fill="none" stroke="#bfbfbf" points="0,-0.5 0,-19.5 44,-19.5 44,-0.5 0,-0.5"/>
<text text-anchor="middle" x="22" y="-7.5" font-family="Helvetica,sans-Serif" font-size="10.00">vector</text>
</a>
</g>
</g>
<!-- Node1&#45;&gt;Node2 -->
<g id="edge1" class="edge">
<title>Node1&#45;&gt;Node2</title>
<path fill="none" stroke="midnightblue" d="M137.7,-114.82C88.93,-108.3 24.86,-96.13 9,-76 -1.65,-62.49 4.57,-42.59 11.59,-28.37"/>
<polygon fill="midnightblue" stroke="midnightblue" points="14.67,-30.04 16.38,-19.59 8.52,-26.69 14.67,-30.04"/>
</g>
<!-- Node3 -->
<g id="node3" class="node">
<title>Node3</title>
<g id="a_node3"><a xlink:title=" ">
<polygon fill="none" stroke="#bfbfbf" points="173.5,-0.5 173.5,-19.5 232.5,-19.5 232.5,-0.5 173.5,-0.5"/>
<text text-anchor="middle" x="203" y="-7.5" font-family="Helvetica,sans-Serif" font-size="10.00">functional</text>
</a>
</g>
</g>
<!-- Node1&#45;&gt;Node3 -->
<g id="edge2" class="edge">
<title>Node1&#45;&gt;Node3</title>
<path fill="none" stroke="midnightblue" d="M239.07,-112.49C259.4,-106.07 281.82,-94.99 294,-76 310.19,-50.75 273.69,-32.3 242.2,-21.64"/>
<polygon fill="midnightblue" stroke="midnightblue" points="243.24,-18.3 232.65,-18.58 241.11,-24.97 243.24,-18.3"/>
</g>
<!-- Node4 -->
<g id="node4" class="node">
<title>Node4</title>
<g id="a_node4"><a xlink:title=" ">
<polygon fill="none" stroke="#bfbfbf" points="107.5,-56.5 107.5,-75.5 186.5,-75.5 186.5,-56.5 107.5,-56.5"/>
<text text-anchor="middle" x="147" y="-63.5" font-family="Helvetica,sans-Serif" font-size="10.00">SDL_events.h</text>
</a>
</g>
</g>
<!-- Node1&#45;&gt;Node4 -->
<g id="edge3" class="edge">
<title>Node1&#45;&gt;Node4</title>
<path fill="none" stroke="midnightblue" d="M187.91,-112.08C180.84,-104.3 170.41,-92.8 161.85,-83.37"/>
<polygon fill="midnightblue" stroke="midnightblue" points="164.25,-80.8 154.94,-75.75 159.07,-85.51 164.25,-80.8"/>
</g>
<!-- Node5 -->
<g id="node5" class="node">
<title>Node5</title>
<g id="a_node5"><a xlink:href="_key_codes_8hpp.html" target="_top" xlink:title=" ">
<polygon fill="none" stroke="black" points="204.5,-56.5 204.5,-75.5 285.5,-75.5 285.5,-56.5 204.5,-56.5"/>
<text text-anchor="middle" x="245" y="-63.5" font-family="Helvetica,sans-Serif" font-size="10.00">KeyCodes.hpp</text>
</a>
</g>
</g>
<!-- Node1&#45;&gt;Node5 -->
<g id="edge4" class="edge">
<title>Node1&#45;&gt;Node5</title>
<path fill="none" stroke="midnightblue" d="M204.09,-112.08C211.16,-104.3 221.59,-92.8 230.15,-83.37"/>
<polygon fill="midnightblue" stroke="midnightblue" points="232.93,-85.51 237.06,-75.75 227.75,-80.8 232.93,-85.51"/>
</g>
<!-- Node6 -->
<g id="node6" class="node">
<title>Node6</title>
<g id="a_node6"><a xlink:href="_identifiable_8hpp.html" target="_top" xlink:title=" ">
<polygon fill="none" stroke="black" points="342.5,-56.5 342.5,-75.5 425.5,-75.5 425.5,-56.5 342.5,-56.5"/>
<text text-anchor="middle" x="384" y="-63.5" font-family="Helvetica,sans-Serif" font-size="10.00">Identifiable.hpp</text>
</a>
</g>
</g>
<!-- Node1&#45;&gt;Node6 -->
<g id="edge5" class="edge">
<title>Node1&#45;&gt;Node6</title>
<path fill="none" stroke="midnightblue" d="M225.79,-112.44C257.83,-103.24 308.93,-88.56 344.35,-78.39"/>
<polygon fill="midnightblue" stroke="midnightblue" points="345.71,-81.64 354.35,-75.52 343.77,-74.91 345.71,-81.64"/>
</g>
<!-- Node8 -->
<g id="node8" class="node">
<title>Node8</title>
<g id="a_node8"><a xlink:href="_registry_8hpp.html" target="_top" xlink:title=" ">
<polygon fill="none" stroke="black" points="18.5,-56.5 18.5,-75.5 89.5,-75.5 89.5,-56.5 18.5,-56.5"/>
<text text-anchor="middle" x="54" y="-63.5" font-family="Helvetica,sans-Serif" font-size="10.00">Registry.hpp</text>
</a>
</g>
</g>
<!-- Node1&#45;&gt;Node8 -->
<g id="edge7" class="edge">
<title>Node1&#45;&gt;Node8</title>
<path fill="none" stroke="midnightblue" d="M173.5,-112.44C149.92,-103.48 112.68,-89.31 86.04,-79.18"/>
<polygon fill="midnightblue" stroke="midnightblue" points="86.99,-75.8 76.4,-75.52 84.5,-82.34 86.99,-75.8"/>
</g>
<!-- Node7 -->
<g id="node7" class="node">
<title>Node7</title>
<g id="a_node7"><a xlink:title=" ">
<polygon fill="none" stroke="#bfbfbf" points="361,-0.5 361,-19.5 407,-19.5 407,-0.5 361,-0.5"/>
<text text-anchor="middle" x="384" y="-7.5" font-family="Helvetica,sans-Serif" font-size="10.00">cstdint</text>
</a>
</g>
</g>
<!-- Node6&#45;&gt;Node7 -->
<g id="edge6" class="edge">
<title>Node6&#45;&gt;Node7</title>
<path fill="none" stroke="midnightblue" d="M384,-56.08C384,-49.01 384,-38.86 384,-29.99"/>
<polygon fill="midnightblue" stroke="midnightblue" points="387.5,-29.75 384,-19.75 380.5,-29.75 387.5,-29.75"/>
</g>
<!-- Node8&#45;&gt;Node2 -->
<g id="edge8" class="edge">
<title>Node8&#45;&gt;Node2</title>
<path fill="none" stroke="midnightblue" d="M48.72,-56.08C44.29,-48.61 37.84,-37.72 32.38,-28.52"/>
<polygon fill="midnightblue" stroke="midnightblue" points="35.29,-26.57 27.19,-19.75 29.27,-30.14 35.29,-26.57"/>
</g>
<!-- Node8&#45;&gt;Node3 -->
<g id="edge9" class="edge">
<title>Node8&#45;&gt;Node3</title>
<path fill="none" stroke="midnightblue" d="M77.61,-56.44C102.46,-47.44 141.77,-33.19 169.75,-23.05"/>
<polygon fill="midnightblue" stroke="midnightblue" points="171.29,-26.21 179.5,-19.52 168.91,-19.63 171.29,-26.21"/>
</g>
</g>
</svg>
