<?xml version="1.0" encoding="UTF-8" standalone="no"?>
<!DOCTYPE svg PUBLIC "-//W3C//DTD SVG 1.1//EN"
 "http://www.w3.org/Graphics/SVG/1.1/DTD/svg11.dtd">
<!-- Generated by graphviz version 2.50.0 (20211204.2007)
 -->
<!-- Title: include/york/Graphics/Fence.hpp Pages: 1 -->
<svg width="628pt" height="431pt"
 viewBox="0.00 0.00 627.50 431.00" xmlns="http://www.w3.org/2000/svg" xmlns:xlink="http://www.w3.org/1999/xlink">
<g id="graph0" class="graph" transform="scale(1 1) rotate(0) translate(4 427)">
<title>include/york/Graphics/Fence.hpp</title>
<!-- Node1 -->
<g id="node1" class="node">
<title>Node1</title>
<g id="a_node1"><a xlink:title=" ">
<polygon fill="#bfbfbf" stroke="black" points="280,-392.5 280,-422.5 391,-422.5 391,-392.5 280,-392.5"/>
<text text-anchor="start" x="288" y="-410.5" font-family="Helvetica,sans-Serif" font-size="10.00">include/york/Graphics</text>
<text text-anchor="middle" x="335.5" y="-399.5" font-family="Helvetica,sans-Serif" font-size="10.00">/Fence.hpp</text>
</a>
</g>
</g>
<!-- Node2 -->
<g id="node2" class="node">
<title>Node2</title>
<g id="a_node2"><a xlink:title=" ">
<polygon fill="none" stroke="#bfbfbf" points="0,-168.5 0,-187.5 95,-187.5 95,-168.5 0,-168.5"/>
<text text-anchor="middle" x="47.5" y="-175.5" font-family="Helvetica,sans-Serif" font-size="10.00">vulkan/vulkan.hpp</text>
</a>
</g>
</g>
<!-- Node1&#45;&gt;Node2 -->
<g id="edge1" class="edge">
<title>Node1&#45;&gt;Node2</title>
<path fill="none" stroke="midnightblue" d="M304.68,-392.47C254.21,-368.24 153.08,-314.32 88.5,-244 75.28,-229.61 63.77,-210.41 56.34,-196.61"/>
<polygon fill="midnightblue" stroke="midnightblue" points="59.4,-194.92 51.68,-187.67 53.19,-198.16 59.4,-194.92"/>
</g>
<!-- Node3 -->
<g id="node3" class="node">
<title>Node3</title>
<g id="a_node3"><a xlink:href="_handle_8hpp.html" target="_top" xlink:title="Contains the declarations for the Handle classes which form the basis of our Vulkan implementation.">
<polygon fill="none" stroke="black" points="448.5,-112.5 448.5,-131.5 514.5,-131.5 514.5,-112.5 448.5,-112.5"/>
<text text-anchor="middle" x="481.5" y="-119.5" font-family="Helvetica,sans-Serif" font-size="10.00">Handle.hpp</text>
</a>
</g>
</g>
<!-- Node1&#45;&gt;Node3 -->
<g id="edge2" class="edge">
<title>Node1&#45;&gt;Node3</title>
<path fill="none" stroke="midnightblue" d="M391.27,-395.63C473.98,-377.9 619.5,-339.77 619.5,-291 619.5,-291 619.5,-291 619.5,-233 619.5,-181.66 560.37,-150.4 519.53,-134.93"/>
<polygon fill="midnightblue" stroke="midnightblue" points="520.69,-131.63 510.09,-131.51 518.3,-138.21 520.69,-131.63"/>
</g>
<!-- Node8 -->
<g id="node8" class="node">
<title>Node8</title>
<g id="a_node8"><a xlink:href="_device_8hpp.html" target="_top" xlink:title=" ">
<polygon fill="none" stroke="black" points="302.5,-336.5 302.5,-355.5 368.5,-355.5 368.5,-336.5 302.5,-336.5"/>
<text text-anchor="middle" x="335.5" y="-343.5" font-family="Helvetica,sans-Serif" font-size="10.00">Device.hpp</text>
</a>
</g>
</g>
<!-- Node1&#45;&gt;Node8 -->
<g id="edge7" class="edge">
<title>Node1&#45;&gt;Node8</title>
<path fill="none" stroke="midnightblue" d="M335.5,-392.4C335.5,-384.47 335.5,-374.46 335.5,-365.86"/>
<polygon fill="midnightblue" stroke="midnightblue" points="339,-365.66 335.5,-355.66 332,-365.66 339,-365.66"/>
</g>
<!-- Node4 -->
<g id="node4" class="node">
<title>Node4</title>
<g id="a_node4"><a xlink:title=" ">
<polygon fill="none" stroke="#bfbfbf" points="313.5,-56.5 313.5,-75.5 357.5,-75.5 357.5,-56.5 313.5,-56.5"/>
<text text-anchor="middle" x="335.5" y="-63.5" font-family="Helvetica,sans-Serif" font-size="10.00">vector</text>
</a>
</g>
</g>
<!-- Node3&#45;&gt;Node4 -->
<g id="edge3" class="edge">
<title>Node3&#45;&gt;Node4</title>
<path fill="none" stroke="midnightblue" d="M458.37,-112.44C433.73,-103.33 394.58,-88.85 367.11,-78.69"/>
<polygon fill="midnightblue" stroke="midnightblue" points="368.16,-75.35 357.57,-75.16 365.74,-81.91 368.16,-75.35"/>
</g>
<!-- Node5 -->
<g id="node5" class="node">
<title>Node5</title>
<g id="a_node5"><a xlink:title=" ">
<polygon fill="none" stroke="#bfbfbf" points="402,-56.5 402,-75.5 461,-75.5 461,-56.5 402,-56.5"/>
<text text-anchor="middle" x="431.5" y="-63.5" font-family="Helvetica,sans-Serif" font-size="10.00">functional</text>
</a>
</g>
</g>
<!-- Node3&#45;&gt;Node5 -->
<g id="edge4" class="edge">
<title>Node3&#45;&gt;Node5</title>
<path fill="none" stroke="midnightblue" d="M473.24,-112.08C466.04,-104.3 455.39,-92.8 446.65,-83.37"/>
<polygon fill="midnightblue" stroke="midnightblue" points="448.97,-80.71 439.6,-75.75 443.83,-85.47 448.97,-80.71"/>
</g>
<!-- Node6 -->
<g id="node6" class="node">
<title>Node6</title>
<g id="a_node6"><a xlink:href="_identifiable_8hpp.html" target="_top" xlink:title=" ">
<polygon fill="none" stroke="black" points="479.5,-56.5 479.5,-75.5 583.5,-75.5 583.5,-56.5 479.5,-56.5"/>
<text text-anchor="middle" x="531.5" y="-63.5" font-family="Helvetica,sans-Serif" font-size="10.00">york/Identifiable.hpp</text>
</a>
</g>
</g>
<!-- Node3&#45;&gt;Node6 -->
<g id="edge5" class="edge">
<title>Node3&#45;&gt;Node6</title>
<path fill="none" stroke="midnightblue" d="M489.76,-112.08C496.96,-104.3 507.61,-92.8 516.35,-83.37"/>
<polygon fill="midnightblue" stroke="midnightblue" points="519.17,-85.47 523.4,-75.75 514.03,-80.71 519.17,-85.47"/>
</g>
<!-- Node7 -->
<g id="node7" class="node">
<title>Node7</title>
<g id="a_node7"><a xlink:title=" ">
<polygon fill="none" stroke="#bfbfbf" points="508.5,-0.5 508.5,-19.5 554.5,-19.5 554.5,-0.5 508.5,-0.5"/>
<text text-anchor="middle" x="531.5" y="-7.5" font-family="Helvetica,sans-Serif" font-size="10.00">cstdint</text>
</a>
</g>
</g>
<!-- Node6&#45;&gt;Node7 -->
<g id="edge6" class="edge">
<title>Node6&#45;&gt;Node7</title>
<path fill="none" stroke="midnightblue" d="M531.5,-56.08C531.5,-49.01 531.5,-38.86 531.5,-29.99"/>
<polygon fill="midnightblue" stroke="midnightblue" points="535,-29.75 531.5,-19.75 528,-29.75 535,-29.75"/>
</g>
<!-- Node8&#45;&gt;Node2 -->
<g id="edge9" class="edge">
<title>Node8&#45;&gt;Node2</title>
<path fill="none" stroke="midnightblue" d="M303.75,-336.44C276.49,-328.57 236.5,-315.74 203.5,-300 161.32,-279.88 151.25,-272.87 114.5,-244 95.29,-228.91 75.48,-209.06 62.43,-195.28"/>
<polygon fill="midnightblue" stroke="midnightblue" points="64.63,-192.51 55.24,-187.59 59.51,-197.28 64.63,-192.51"/>
</g>
<!-- Node8&#45;&gt;Node3 -->
<g id="edge10" class="edge">
<title>Node8&#45;&gt;Node3</title>
<path fill="none" stroke="midnightblue" d="M357.46,-336.4C402.18,-317.5 502.76,-267.6 540.5,-188 550.3,-167.34 528.35,-148.57 508.5,-136.57"/>
<polygon fill="midnightblue" stroke="midnightblue" points="510.07,-133.44 499.65,-131.55 506.62,-139.53 510.07,-133.44"/>
</g>
<!-- Node9 -->
<g id="node9" class="node">
<title>Node9</title>
<g id="a_node9"><a xlink:title=" ">
<polygon fill="none" stroke="#bfbfbf" points="315.5,-280.5 315.5,-299.5 355.5,-299.5 355.5,-280.5 315.5,-280.5"/>
<text text-anchor="middle" x="335.5" y="-287.5" font-family="Helvetica,sans-Serif" font-size="10.00">utility</text>
</a>
</g>
</g>
<!-- Node8&#45;&gt;Node9 -->
<g id="edge8" class="edge">
<title>Node8&#45;&gt;Node9</title>
<path fill="none" stroke="midnightblue" d="M335.5,-336.08C335.5,-329.01 335.5,-318.86 335.5,-309.99"/>
<polygon fill="midnightblue" stroke="midnightblue" points="339,-309.75 335.5,-299.75 332,-309.75 339,-309.75"/>
</g>
<!-- Node10 -->
<g id="node10" class="node">
<title>Node10</title>
<g id="a_node10"><a xlink:href="_instance_8hpp.html" target="_top" xlink:title=" ">
<polygon fill="none" stroke="black" points="163,-224.5 163,-243.5 236,-243.5 236,-224.5 163,-224.5"/>
<text text-anchor="middle" x="199.5" y="-231.5" font-family="Helvetica,sans-Serif" font-size="10.00">Instance.hpp</text>
</a>
</g>
</g>
<!-- Node8&#45;&gt;Node10 -->
<g id="edge11" class="edge">
<title>Node8&#45;&gt;Node10</title>
<path fill="none" stroke="midnightblue" d="M302.25,-340.38C276.01,-335.04 240.31,-323.7 218.5,-300 206.94,-287.44 202.38,-268.22 200.6,-253.93"/>
<polygon fill="midnightblue" stroke="midnightblue" points="204.07,-253.4 199.69,-243.76 197.09,-254.03 204.07,-253.4"/>
</g>
<!-- Node12 -->
<g id="node12" class="node">
<title>Node12</title>
<g id="a_node12"><a xlink:href="_requestable_item_8hpp.html" target="_top" xlink:title=" ">
<polygon fill="none" stroke="black" points="405.5,-168.5 405.5,-187.5 515.5,-187.5 515.5,-168.5 405.5,-168.5"/>
<text text-anchor="middle" x="460.5" y="-175.5" font-family="Helvetica,sans-Serif" font-size="10.00">RequestableItem.hpp</text>
</a>
</g>
</g>
<!-- Node8&#45;&gt;Node12 -->
<g id="edge27" class="edge">
<title>Node8&#45;&gt;Node12</title>
<path fill="none" stroke="midnightblue" d="M344.82,-336.37C354.18,-327.54 368.84,-313.29 380.5,-300 401.19,-276.41 406.14,-270.14 423.5,-244 433.8,-228.48 444.18,-209.95 451.31,-196.65"/>
<polygon fill="midnightblue" stroke="midnightblue" points="454.49,-198.11 456.07,-187.64 448.3,-194.84 454.49,-198.11"/>
</g>
<!-- Node15 -->
<g id="node15" class="node">
<title>Node15</title>
<g id="a_node15"><a xlink:href="_physical_device_8hpp.html" target="_top" xlink:title=" ">
<polygon fill="none" stroke="black" points="310.5,-224.5 310.5,-243.5 414.5,-243.5 414.5,-224.5 310.5,-224.5"/>
<text text-anchor="middle" x="362.5" y="-231.5" font-family="Helvetica,sans-Serif" font-size="10.00">PhysicalDevice.hpp</text>
</a>
</g>
</g>
<!-- Node8&#45;&gt;Node15 -->
<g id="edge22" class="edge">
<title>Node8&#45;&gt;Node15</title>
<path fill="none" stroke="midnightblue" d="M343.17,-336.46C350.28,-327.93 360.35,-314.09 364.5,-300 368.94,-284.92 367.96,-267.02 366.14,-253.82"/>
<polygon fill="midnightblue" stroke="midnightblue" points="369.54,-252.92 364.44,-243.63 362.63,-254.07 369.54,-252.92"/>
</g>
<!-- Node17 -->
<g id="node17" class="node">
<title>Node17</title>
<g id="a_node17"><a xlink:href="_surface_8hpp.html" target="_top" xlink:title=" ">
<polygon fill="none" stroke="black" points="228,-280.5 228,-299.5 297,-299.5 297,-280.5 228,-280.5"/>
<text text-anchor="middle" x="262.5" y="-287.5" font-family="Helvetica,sans-Serif" font-size="10.00">Surface.hpp</text>
</a>
</g>
</g>
<!-- Node8&#45;&gt;Node17 -->
<g id="edge28" class="edge">
<title>Node8&#45;&gt;Node17</title>
<path fill="none" stroke="midnightblue" d="M323.77,-336.32C312.66,-328.11 295.76,-315.6 282.52,-305.81"/>
<polygon fill="midnightblue" stroke="midnightblue" points="284.56,-302.97 274.44,-299.83 280.4,-308.59 284.56,-302.97"/>
</g>
<!-- Node10&#45;&gt;Node2 -->
<g id="edge14" class="edge">
<title>Node10&#45;&gt;Node2</title>
<path fill="none" stroke="midnightblue" d="M175.42,-224.44C149.96,-215.4 109.61,-201.06 81.04,-190.92"/>
<polygon fill="midnightblue" stroke="midnightblue" points="82.07,-187.57 71.47,-187.52 79.72,-194.16 82.07,-187.57"/>
</g>
<!-- Node10&#45;&gt;Node3 -->
<g id="edge15" class="edge">
<title>Node10&#45;&gt;Node3</title>
<path fill="none" stroke="midnightblue" d="M199.32,-224.34C199.54,-210.27 202.17,-182.55 218.5,-168 250.26,-139.7 371.83,-128.84 437.99,-124.97"/>
<polygon fill="midnightblue" stroke="midnightblue" points="438.32,-128.46 448.11,-124.4 437.93,-121.47 438.32,-128.46"/>
</g>
<!-- Node10&#45;&gt;Node4 -->
<g id="edge13" class="edge">
<title>Node10&#45;&gt;Node4</title>
<path fill="none" stroke="midnightblue" d="M193.4,-224.19C187.75,-215.46 179.74,-201.48 176.5,-188 168.48,-154.68 166.14,-137.07 189.5,-112 218.95,-80.39 270.02,-70.79 303.28,-67.98"/>
<polygon fill="midnightblue" stroke="midnightblue" points="303.67,-71.47 313.41,-67.29 303.19,-64.48 303.67,-71.47"/>
</g>
<!-- Node11 -->
<g id="node11" class="node">
<title>Node11</title>
<g id="a_node11"><a xlink:title=" ">
<polygon fill="none" stroke="#bfbfbf" points="290,-112.5 290,-131.5 331,-131.5 331,-112.5 290,-112.5"/>
<text text-anchor="middle" x="310.5" y="-119.5" font-family="Helvetica,sans-Serif" font-size="10.00">string</text>
</a>
</g>
</g>
<!-- Node10&#45;&gt;Node11 -->
<g id="edge12" class="edge">
<title>Node10&#45;&gt;Node11</title>
<path fill="none" stroke="midnightblue" d="M193.64,-224.15C185.59,-210.79 173.42,-185.19 185.5,-168 188.36,-163.93 244.29,-144.86 280.35,-132.89"/>
<polygon fill="midnightblue" stroke="midnightblue" points="281.54,-136.18 289.94,-129.72 279.35,-129.53 281.54,-136.18"/>
</g>
<!-- Node10&#45;&gt;Node12 -->
<g id="edge16" class="edge">
<title>Node10&#45;&gt;Node12</title>
<path fill="none" stroke="midnightblue" d="M236.07,-225.43C281.18,-216.1 358.15,-200.18 409.17,-189.62"/>
<polygon fill="midnightblue" stroke="midnightblue" points="409.93,-193.04 419.01,-187.58 408.51,-186.18 409.93,-193.04"/>
</g>
<!-- Node13 -->
<g id="node13" class="node">
<title>Node13</title>
<g id="a_node13"><a xlink:href="_window_8hpp.html" target="_top" xlink:title=" ">
<polygon fill="none" stroke="black" points="228,-168.5 228,-187.5 319,-187.5 319,-168.5 228,-168.5"/>
<text text-anchor="middle" x="273.5" y="-175.5" font-family="Helvetica,sans-Serif" font-size="10.00">york/Window.hpp</text>
</a>
</g>
</g>
<!-- Node10&#45;&gt;Node13 -->
<g id="edge18" class="edge">
<title>Node10&#45;&gt;Node13</title>
<path fill="none" stroke="midnightblue" d="M211.39,-224.32C222.65,-216.11 239.79,-203.6 253.21,-193.81"/>
<polygon fill="midnightblue" stroke="midnightblue" points="255.38,-196.56 261.39,-187.83 251.25,-190.9 255.38,-196.56"/>
</g>
<!-- Node12&#45;&gt;Node11 -->
<g id="edge17" class="edge">
<title>Node12&#45;&gt;Node11</title>
<path fill="none" stroke="midnightblue" d="M436.73,-168.44C410.83,-159.12 369.32,-144.18 341.03,-133.99"/>
<polygon fill="midnightblue" stroke="midnightblue" points="341.85,-130.57 331.26,-130.47 339.48,-137.15 341.85,-130.57"/>
</g>
<!-- Node13&#45;&gt;Node3 -->
<g id="edge21" class="edge">
<title>Node13&#45;&gt;Node3</title>
<path fill="none" stroke="midnightblue" d="M306.46,-168.44C342.29,-159.14 399.66,-144.25 438.89,-134.06"/>
<polygon fill="midnightblue" stroke="midnightblue" points="439.9,-137.42 448.7,-131.52 438.14,-130.64 439.9,-137.42"/>
</g>
<!-- Node13&#45;&gt;Node11 -->
<g id="edge19" class="edge">
<title>Node13&#45;&gt;Node11</title>
<path fill="none" stroke="midnightblue" d="M279.61,-168.08C284.78,-160.53 292.35,-149.49 298.69,-140.23"/>
<polygon fill="midnightblue" stroke="midnightblue" points="301.74,-141.98 304.5,-131.75 295.96,-138.02 301.74,-141.98"/>
</g>
<!-- Node14 -->
<g id="node14" class="node">
<title>Node14</title>
<g id="a_node14"><a xlink:title=" ">
<polygon fill="none" stroke="#bfbfbf" points="199,-112.5 199,-131.5 272,-131.5 272,-112.5 199,-112.5"/>
<text text-anchor="middle" x="235.5" y="-119.5" font-family="Helvetica,sans-Serif" font-size="10.00">SDL_video.h</text>
</a>
</g>
</g>
<!-- Node13&#45;&gt;Node14 -->
<g id="edge20" class="edge">
<title>Node13&#45;&gt;Node14</title>
<path fill="none" stroke="midnightblue" d="M267.23,-168.08C261.86,-160.46 253.98,-149.26 247.42,-139.94"/>
<polygon fill="midnightblue" stroke="midnightblue" points="250.28,-137.91 241.66,-131.75 244.55,-141.94 250.28,-137.91"/>
</g>
<!-- Node15&#45;&gt;Node2 -->
<g id="edge24" class="edge">
<title>Node15&#45;&gt;Node2</title>
<path fill="none" stroke="midnightblue" d="M312.59,-224.44C256.17,-214.77 164.49,-199.05 105.09,-188.87"/>
<polygon fill="midnightblue" stroke="midnightblue" points="105.56,-185.4 95.12,-187.16 104.38,-192.3 105.56,-185.4"/>
</g>
<!-- Node15&#45;&gt;Node12 -->
<g id="edge25" class="edge">
<title>Node15&#45;&gt;Node12</title>
<path fill="none" stroke="midnightblue" d="M378.25,-224.32C393.82,-215.74 417.88,-202.49 435.96,-192.52"/>
<polygon fill="midnightblue" stroke="midnightblue" points="437.72,-195.55 444.79,-187.65 434.35,-189.42 437.72,-195.55"/>
</g>
<!-- Node15&#45;&gt;Node13 -->
<g id="edge26" class="edge">
<title>Node15&#45;&gt;Node13</title>
<path fill="none" stroke="midnightblue" d="M348.2,-224.32C334.32,-215.9 313.01,-202.97 296.7,-193.07"/>
<polygon fill="midnightblue" stroke="midnightblue" points="298.13,-189.85 287.76,-187.65 294.5,-195.83 298.13,-189.85"/>
</g>
<!-- Node16 -->
<g id="node16" class="node">
<title>Node16</title>
<g id="a_node16"><a xlink:title=" ">
<polygon fill="none" stroke="#bfbfbf" points="337.5,-168.5 337.5,-187.5 387.5,-187.5 387.5,-168.5 337.5,-168.5"/>
<text text-anchor="middle" x="362.5" y="-175.5" font-family="Helvetica,sans-Serif" font-size="10.00">optional</text>
</a>
</g>
</g>
<!-- Node15&#45;&gt;Node16 -->
<g id="edge23" class="edge">
<title>Node15&#45;&gt;Node16</title>
<path fill="none" stroke="midnightblue" d="M362.5,-224.08C362.5,-217.01 362.5,-206.86 362.5,-197.99"/>
<polygon fill="midnightblue" stroke="midnightblue" points="366,-197.75 362.5,-187.75 359,-197.75 366,-197.75"/>
</g>
<!-- Node17&#45;&gt;Node2 -->
<g id="edge29" class="edge">
<title>Node17&#45;&gt;Node2</title>
<path fill="none" stroke="midnightblue" d="M238.63,-280.4C216.21,-272.03 181.96,-258.49 153.5,-244 123,-228.48 89.62,-207.25 68.63,-193.34"/>
<polygon fill="midnightblue" stroke="midnightblue" points="70.43,-190.33 60.17,-187.69 66.54,-196.15 70.43,-190.33"/>
</g>
<!-- Node17&#45;&gt;Node3 -->
<g id="edge30" class="edge">
<title>Node17&#45;&gt;Node3</title>
<path fill="none" stroke="midnightblue" d="M297.19,-281.21C362.77,-265.64 500.53,-228.69 524.5,-188 534.81,-170.49 518.23,-151.15 502.75,-138.16"/>
<polygon fill="midnightblue" stroke="midnightblue" points="504.48,-135.06 494.45,-131.65 500.16,-140.57 504.48,-135.06"/>
</g>
<!-- Node17&#45;&gt;Node10 -->
<g id="edge31" class="edge">
<title>Node17&#45;&gt;Node10</title>
<path fill="none" stroke="midnightblue" d="M252.38,-280.32C242.97,-272.26 228.76,-260.08 217.43,-250.37"/>
<polygon fill="midnightblue" stroke="midnightblue" points="219.68,-247.68 209.81,-243.83 215.12,-253 219.68,-247.68"/>
</g>
<!-- Node17&#45;&gt;Node13 -->
<g id="edge32" class="edge">
<title>Node17&#45;&gt;Node13</title>
<path fill="none" stroke="midnightblue" d="M263.36,-280.37C265.14,-262.62 269.23,-221.67 271.64,-197.6"/>
<polygon fill="midnightblue" stroke="midnightblue" points="275.13,-197.89 272.64,-187.59 268.16,-197.19 275.13,-197.89"/>
</g>
</g>
</svg>
