<?xml version="1.0" encoding="UTF-8" standalone="no"?>
<!DOCTYPE svg PUBLIC "-//W3C//DTD SVG 1.1//EN"
 "http://www.w3.org/Graphics/SVG/1.1/DTD/svg11.dtd">
<!-- Generated by graphviz version 2.50.0 (20211204.2007)
 -->
<!-- Title: include/york/Graphics/Framebuffer.hpp Pages: 1 -->
<svg width="766pt" height="599pt"
 viewBox="0.00 0.00 766.00 599.00" xmlns="http://www.w3.org/2000/svg" xmlns:xlink="http://www.w3.org/1999/xlink">
<g id="graph0" class="graph" transform="scale(1 1) rotate(0) translate(4 595)">
<title>include/york/Graphics/Framebuffer.hpp</title>
<!-- Node1 -->
<g id="node1" class="node">
<title>Node1</title>
<g id="a_node1"><a xlink:title=" ">
<polygon fill="#bfbfbf" stroke="black" points="350.5,-560.5 350.5,-590.5 461.5,-590.5 461.5,-560.5 350.5,-560.5"/>
<text text-anchor="start" x="358.5" y="-578.5" font-family="Helvetica,sans-Serif" font-size="10.00">include/york/Graphics</text>
<text text-anchor="middle" x="406" y="-567.5" font-family="Helvetica,sans-Serif" font-size="10.00">/Framebuffer.hpp</text>
</a>
</g>
</g>
<!-- Node2 -->
<g id="node2" class="node">
<title>Node2</title>
<g id="a_node2"><a xlink:href="_handle_8hpp.html" target="_top" xlink:title="Contains the declarations for the Handle classes which form the basis of our Vulkan implementation.">
<polygon fill="none" stroke="black" points="119,-112.5 119,-131.5 185,-131.5 185,-112.5 119,-112.5"/>
<text text-anchor="middle" x="152" y="-119.5" font-family="Helvetica,sans-Serif" font-size="10.00">Handle.hpp</text>
</a>
</g>
</g>
<!-- Node1&#45;&gt;Node2 -->
<g id="edge1" class="edge">
<title>Node1&#45;&gt;Node2</title>
<path fill="none" stroke="midnightblue" d="M350.4,-570.35C239.21,-560.52 0,-531 0,-459 0,-459 0,-459 0,-233 0,-178.94 63.87,-148.75 108.81,-134.19"/>
<polygon fill="midnightblue" stroke="midnightblue" points="110.12,-137.45 118.64,-131.15 108.06,-130.76 110.12,-137.45"/>
</g>
<!-- Node7 -->
<g id="node7" class="node">
<title>Node7</title>
<g id="a_node7"><a xlink:href="_render_pass_8hpp.html" target="_top" xlink:title=" ">
<polygon fill="none" stroke="black" points="325.5,-504.5 325.5,-523.5 414.5,-523.5 414.5,-504.5 325.5,-504.5"/>
<text text-anchor="middle" x="370" y="-511.5" font-family="Helvetica,sans-Serif" font-size="10.00">RenderPass.hpp</text>
</a>
</g>
</g>
<!-- Node1&#45;&gt;Node7 -->
<g id="edge6" class="edge">
<title>Node1&#45;&gt;Node7</title>
<path fill="none" stroke="midnightblue" d="M397.47,-560.4C392.4,-552.02 385.93,-541.33 380.54,-532.42"/>
<polygon fill="midnightblue" stroke="midnightblue" points="383.41,-530.4 375.24,-523.66 377.42,-534.03 383.41,-530.4"/>
</g>
<!-- Node8 -->
<g id="node8" class="node">
<title>Node8</title>
<g id="a_node8"><a xlink:title=" ">
<polygon fill="none" stroke="#bfbfbf" points="638.5,-168.5 638.5,-187.5 733.5,-187.5 733.5,-168.5 638.5,-168.5"/>
<text text-anchor="middle" x="686" y="-175.5" font-family="Helvetica,sans-Serif" font-size="10.00">vulkan/vulkan.hpp</text>
</a>
</g>
</g>
<!-- Node1&#45;&gt;Node8 -->
<g id="edge43" class="edge">
<title>Node1&#45;&gt;Node8</title>
<path fill="none" stroke="midnightblue" d="M461.78,-567.93C561.03,-554.66 758,-520.58 758,-459 758,-459 758,-459 758,-289 758,-249.94 725.82,-213.94 704.49,-194.37"/>
<polygon fill="midnightblue" stroke="midnightblue" points="706.75,-191.7 696.94,-187.7 702.12,-196.94 706.75,-191.7"/>
</g>
<!-- Node20 -->
<g id="node20" class="node">
<title>Node20</title>
<g id="a_node20"><a xlink:href="_image_view_8hpp.html" target="_top" xlink:title=" ">
<polygon fill="none" stroke="black" points="399.5,-392.5 399.5,-411.5 482.5,-411.5 482.5,-392.5 399.5,-392.5"/>
<text text-anchor="middle" x="441" y="-399.5" font-family="Helvetica,sans-Serif" font-size="10.00">ImageView.hpp</text>
</a>
</g>
</g>
<!-- Node1&#45;&gt;Node20 -->
<g id="edge42" class="edge">
<title>Node1&#45;&gt;Node20</title>
<path fill="none" stroke="midnightblue" d="M411.99,-560.15C415.94,-550.17 420.93,-536.47 424,-524 432.75,-488.42 437.43,-445.76 439.55,-421.78"/>
<polygon fill="midnightblue" stroke="midnightblue" points="443.05,-421.88 440.39,-411.62 436.08,-421.3 443.05,-421.88"/>
</g>
<!-- Node3 -->
<g id="node3" class="node">
<title>Node3</title>
<g id="a_node3"><a xlink:title=" ">
<polygon fill="none" stroke="#bfbfbf" points="233,-56.5 233,-75.5 277,-75.5 277,-56.5 233,-56.5"/>
<text text-anchor="middle" x="255" y="-63.5" font-family="Helvetica,sans-Serif" font-size="10.00">vector</text>
</a>
</g>
</g>
<!-- Node2&#45;&gt;Node3 -->
<g id="edge2" class="edge">
<title>Node2&#45;&gt;Node3</title>
<path fill="none" stroke="midnightblue" d="M168.55,-112.32C184.99,-103.7 210.43,-90.36 229.47,-80.39"/>
<polygon fill="midnightblue" stroke="midnightblue" points="231.26,-83.4 238.49,-75.65 228.01,-77.2 231.26,-83.4"/>
</g>
<!-- Node4 -->
<g id="node4" class="node">
<title>Node4</title>
<g id="a_node4"><a xlink:title=" ">
<polygon fill="none" stroke="#bfbfbf" points="133.5,-56.5 133.5,-75.5 192.5,-75.5 192.5,-56.5 133.5,-56.5"/>
<text text-anchor="middle" x="163" y="-63.5" font-family="Helvetica,sans-Serif" font-size="10.00">functional</text>
</a>
</g>
</g>
<!-- Node2&#45;&gt;Node4 -->
<g id="edge3" class="edge">
<title>Node2&#45;&gt;Node4</title>
<path fill="none" stroke="midnightblue" d="M153.82,-112.08C155.27,-104.93 157.37,-94.64 159.19,-85.69"/>
<polygon fill="midnightblue" stroke="midnightblue" points="162.65,-86.25 161.22,-75.75 155.79,-84.85 162.65,-86.25"/>
</g>
<!-- Node5 -->
<g id="node5" class="node">
<title>Node5</title>
<g id="a_node5"><a xlink:href="_identifiable_8hpp.html" target="_top" xlink:title=" ">
<polygon fill="none" stroke="black" points="11,-56.5 11,-75.5 115,-75.5 115,-56.5 11,-56.5"/>
<text text-anchor="middle" x="63" y="-63.5" font-family="Helvetica,sans-Serif" font-size="10.00">york/Identifiable.hpp</text>
</a>
</g>
</g>
<!-- Node2&#45;&gt;Node5 -->
<g id="edge4" class="edge">
<title>Node2&#45;&gt;Node5</title>
<path fill="none" stroke="midnightblue" d="M137.7,-112.32C123.82,-103.9 102.51,-90.97 86.2,-81.07"/>
<polygon fill="midnightblue" stroke="midnightblue" points="87.63,-77.85 77.26,-75.65 84,-83.83 87.63,-77.85"/>
</g>
<!-- Node6 -->
<g id="node6" class="node">
<title>Node6</title>
<g id="a_node6"><a xlink:title=" ">
<polygon fill="none" stroke="#bfbfbf" points="40,-0.5 40,-19.5 86,-19.5 86,-0.5 40,-0.5"/>
<text text-anchor="middle" x="63" y="-7.5" font-family="Helvetica,sans-Serif" font-size="10.00">cstdint</text>
</a>
</g>
</g>
<!-- Node5&#45;&gt;Node6 -->
<g id="edge5" class="edge">
<title>Node5&#45;&gt;Node6</title>
<path fill="none" stroke="midnightblue" d="M63,-56.08C63,-49.01 63,-38.86 63,-29.99"/>
<polygon fill="midnightblue" stroke="midnightblue" points="66.5,-29.75 63,-19.75 59.5,-29.75 66.5,-29.75"/>
</g>
<!-- Node7&#45;&gt;Node2 -->
<g id="edge8" class="edge">
<title>Node7&#45;&gt;Node2</title>
<path fill="none" stroke="midnightblue" d="M325.23,-507.7C234.6,-495.71 38,-462.81 38,-403 38,-403 38,-403 38,-233 38,-186.11 88.55,-152.89 122.33,-135.93"/>
<polygon fill="midnightblue" stroke="midnightblue" points="123.87,-139.07 131.36,-131.58 120.83,-132.77 123.87,-139.07"/>
</g>
<!-- Node7&#45;&gt;Node8 -->
<g id="edge7" class="edge">
<title>Node7&#45;&gt;Node8</title>
<path fill="none" stroke="midnightblue" d="M414.68,-508.45C509.04,-497.61 720,-466.3 720,-403 720,-403 720,-403 720,-289 720,-255.16 705.13,-217.97 695.06,-196.66"/>
<polygon fill="midnightblue" stroke="midnightblue" points="698.14,-194.99 690.59,-187.56 691.86,-198.08 698.14,-194.99"/>
</g>
<!-- Node9 -->
<g id="node9" class="node">
<title>Node9</title>
<g id="a_node9"><a xlink:href="_swap_chain_8hpp.html" target="_top" xlink:title=" ">
<polygon fill="none" stroke="black" points="328,-448.5 328,-467.5 414,-467.5 414,-448.5 328,-448.5"/>
<text text-anchor="middle" x="371" y="-455.5" font-family="Helvetica,sans-Serif" font-size="10.00">SwapChain.hpp</text>
</a>
</g>
</g>
<!-- Node7&#45;&gt;Node9 -->
<g id="edge9" class="edge">
<title>Node7&#45;&gt;Node9</title>
<path fill="none" stroke="midnightblue" d="M370.17,-504.08C370.3,-497.01 370.48,-486.86 370.65,-477.99"/>
<polygon fill="midnightblue" stroke="midnightblue" points="374.15,-477.81 370.84,-467.75 367.15,-477.68 374.15,-477.81"/>
</g>
<!-- Node9&#45;&gt;Node2 -->
<g id="edge37" class="edge">
<title>Node9&#45;&gt;Node2</title>
<path fill="none" stroke="midnightblue" d="M327.79,-450.15C245.85,-435.94 76,-400.09 76,-347 76,-347 76,-347 76,-233 76,-193.28 109.96,-157.5 132.48,-138.15"/>
<polygon fill="midnightblue" stroke="midnightblue" points="134.98,-140.63 140.46,-131.57 130.52,-135.24 134.98,-140.63"/>
</g>
<!-- Node9&#45;&gt;Node8 -->
<g id="edge10" class="edge">
<title>Node9&#45;&gt;Node8</title>
<path fill="none" stroke="midnightblue" d="M414.24,-450.95C499.7,-437.79 682,-403.13 682,-347 682,-347 682,-347 682,-289 682,-256.93 683.72,-219.63 684.9,-197.74"/>
<polygon fill="midnightblue" stroke="midnightblue" points="688.41,-197.73 685.48,-187.55 681.42,-197.34 688.41,-197.73"/>
</g>
<!-- Node10 -->
<g id="node10" class="node">
<title>Node10</title>
<g id="a_node10"><a xlink:href="_device_8hpp.html" target="_top" xlink:title=" ">
<polygon fill="none" stroke="black" points="373,-336.5 373,-355.5 439,-355.5 439,-336.5 373,-336.5"/>
<text text-anchor="middle" x="406" y="-343.5" font-family="Helvetica,sans-Serif" font-size="10.00">Device.hpp</text>
</a>
</g>
</g>
<!-- Node9&#45;&gt;Node10 -->
<g id="edge11" class="edge">
<title>Node9&#45;&gt;Node10</title>
<path fill="none" stroke="midnightblue" d="M373.65,-448.15C377.42,-435.62 384.59,-412.01 391,-392 393.83,-383.17 397.07,-373.39 399.82,-365.22"/>
<polygon fill="midnightblue" stroke="midnightblue" points="403.18,-366.2 403.06,-355.61 396.55,-363.96 403.18,-366.2"/>
</g>
<!-- Node9&#45;&gt;Node20 -->
<g id="edge38" class="edge">
<title>Node9&#45;&gt;Node20</title>
<path fill="none" stroke="midnightblue" d="M382.25,-448.32C392.8,-440.18 408.8,-427.84 421.44,-418.09"/>
<polygon fill="midnightblue" stroke="midnightblue" points="423.77,-420.71 429.55,-411.83 419.49,-415.17 423.77,-420.71"/>
</g>
<!-- Node10&#45;&gt;Node2 -->
<g id="edge14" class="edge">
<title>Node10&#45;&gt;Node2</title>
<path fill="none" stroke="midnightblue" d="M372.86,-341.46C337.93,-336.53 282.34,-325.16 241,-300 183.23,-264.84 162.57,-251.01 138,-188 132.04,-172.72 137.01,-154.39 142.61,-141.1"/>
<polygon fill="midnightblue" stroke="midnightblue" points="145.95,-142.21 147.04,-131.67 139.61,-139.23 145.95,-142.21"/>
</g>
<!-- Node10&#45;&gt;Node8 -->
<g id="edge13" class="edge">
<title>Node10&#45;&gt;Node8</title>
<path fill="none" stroke="midnightblue" d="M420.66,-336.31C466.4,-309.19 606.76,-225.98 662.66,-192.83"/>
<polygon fill="midnightblue" stroke="midnightblue" points="664.67,-195.72 671.49,-187.61 661.1,-189.69 664.67,-195.72"/>
</g>
<!-- Node11 -->
<g id="node11" class="node">
<title>Node11</title>
<g id="a_node11"><a xlink:title=" ">
<polygon fill="none" stroke="#bfbfbf" points="250,-280.5 250,-299.5 290,-299.5 290,-280.5 250,-280.5"/>
<text text-anchor="middle" x="270" y="-287.5" font-family="Helvetica,sans-Serif" font-size="10.00">utility</text>
</a>
</g>
</g>
<!-- Node10&#45;&gt;Node11 -->
<g id="edge12" class="edge">
<title>Node10&#45;&gt;Node11</title>
<path fill="none" stroke="midnightblue" d="M384.45,-336.44C361.57,-327.36 325.26,-312.94 299.68,-302.78"/>
<polygon fill="midnightblue" stroke="midnightblue" points="300.7,-299.43 290.12,-298.99 298.12,-305.93 300.7,-299.43"/>
</g>
<!-- Node12 -->
<g id="node12" class="node">
<title>Node12</title>
<g id="a_node12"><a xlink:href="_instance_8hpp.html" target="_top" xlink:title=" ">
<polygon fill="none" stroke="black" points="306.5,-224.5 306.5,-243.5 379.5,-243.5 379.5,-224.5 306.5,-224.5"/>
<text text-anchor="middle" x="343" y="-231.5" font-family="Helvetica,sans-Serif" font-size="10.00">Instance.hpp</text>
</a>
</g>
</g>
<!-- Node10&#45;&gt;Node12 -->
<g id="edge15" class="edge">
<title>Node10&#45;&gt;Node12</title>
<path fill="none" stroke="midnightblue" d="M404.86,-336.48C402.85,-323.53 397.8,-298.47 387,-280 380.5,-268.88 370.65,-258.46 361.92,-250.45"/>
<polygon fill="midnightblue" stroke="midnightblue" points="364.17,-247.77 354.34,-243.82 359.57,-253.04 364.17,-247.77"/>
</g>
<!-- Node14 -->
<g id="node14" class="node">
<title>Node14</title>
<g id="a_node14"><a xlink:href="_requestable_item_8hpp.html" target="_top" xlink:title=" ">
<polygon fill="none" stroke="black" points="510,-168.5 510,-187.5 620,-187.5 620,-168.5 510,-168.5"/>
<text text-anchor="middle" x="565" y="-175.5" font-family="Helvetica,sans-Serif" font-size="10.00">RequestableItem.hpp</text>
</a>
</g>
</g>
<!-- Node10&#45;&gt;Node14 -->
<g id="edge31" class="edge">
<title>Node10&#45;&gt;Node14</title>
<path fill="none" stroke="midnightblue" d="M415.61,-336.42C434.52,-319.41 477.59,-279.94 511,-244 525.75,-228.14 541.45,-208.95 552.1,-195.55"/>
<polygon fill="midnightblue" stroke="midnightblue" points="554.86,-197.69 558.3,-187.67 549.36,-193.36 554.86,-197.69"/>
</g>
<!-- Node17 -->
<g id="node17" class="node">
<title>Node17</title>
<g id="a_node17"><a xlink:href="_physical_device_8hpp.html" target="_top" xlink:title=" ">
<polygon fill="none" stroke="black" points="398,-224.5 398,-243.5 502,-243.5 502,-224.5 398,-224.5"/>
<text text-anchor="middle" x="450" y="-231.5" font-family="Helvetica,sans-Serif" font-size="10.00">PhysicalDevice.hpp</text>
</a>
</g>
</g>
<!-- Node10&#45;&gt;Node17 -->
<g id="edge26" class="edge">
<title>Node10&#45;&gt;Node17</title>
<path fill="none" stroke="midnightblue" d="M409.45,-336.37C416.62,-318.46 433.23,-276.92 442.82,-252.95"/>
<polygon fill="midnightblue" stroke="midnightblue" points="446.1,-254.18 446.56,-243.59 439.6,-251.58 446.1,-254.18"/>
</g>
<!-- Node19 -->
<g id="node19" class="node">
<title>Node19</title>
<g id="a_node19"><a xlink:href="_surface_8hpp.html" target="_top" xlink:title=" ">
<polygon fill="none" stroke="black" points="308.5,-280.5 308.5,-299.5 377.5,-299.5 377.5,-280.5 308.5,-280.5"/>
<text text-anchor="middle" x="343" y="-287.5" font-family="Helvetica,sans-Serif" font-size="10.00">Surface.hpp</text>
</a>
</g>
</g>
<!-- Node10&#45;&gt;Node19 -->
<g id="edge32" class="edge">
<title>Node10&#45;&gt;Node19</title>
<path fill="none" stroke="midnightblue" d="M395.88,-336.32C386.47,-328.26 372.26,-316.08 360.93,-306.37"/>
<polygon fill="midnightblue" stroke="midnightblue" points="363.18,-303.68 353.31,-299.83 358.62,-309 363.18,-303.68"/>
</g>
<!-- Node12&#45;&gt;Node2 -->
<g id="edge19" class="edge">
<title>Node12&#45;&gt;Node2</title>
<path fill="none" stroke="midnightblue" d="M324.19,-224.49C305.56,-215.87 276.35,-201.87 252,-188 223.76,-171.91 192.56,-151.12 172.64,-137.43"/>
<polygon fill="midnightblue" stroke="midnightblue" points="174.55,-134.5 164.33,-131.69 170.57,-140.26 174.55,-134.5"/>
</g>
<!-- Node12&#45;&gt;Node3 -->
<g id="edge17" class="edge">
<title>Node12&#45;&gt;Node3</title>
<path fill="none" stroke="midnightblue" d="M327.08,-224.4C314.11,-216.58 296.31,-203.85 286,-188 265.19,-156 258.34,-110.79 256.09,-85.67"/>
<polygon fill="midnightblue" stroke="midnightblue" points="259.58,-85.38 255.35,-75.67 252.6,-85.9 259.58,-85.38"/>
</g>
<!-- Node12&#45;&gt;Node8 -->
<g id="edge18" class="edge">
<title>Node12&#45;&gt;Node8</title>
<path fill="none" stroke="midnightblue" d="M379.63,-225.68C382.8,-225.09 385.95,-224.53 389,-224 492.17,-206.18 520.74,-204.5 628.45,-188.07"/>
<polygon fill="midnightblue" stroke="midnightblue" points="629.06,-191.52 638.42,-186.54 628,-184.6 629.06,-191.52"/>
</g>
<!-- Node13 -->
<g id="node13" class="node">
<title>Node13</title>
<g id="a_node13"><a xlink:title=" ">
<polygon fill="none" stroke="#bfbfbf" points="393.5,-112.5 393.5,-131.5 434.5,-131.5 434.5,-112.5 393.5,-112.5"/>
<text text-anchor="middle" x="414" y="-119.5" font-family="Helvetica,sans-Serif" font-size="10.00">string</text>
</a>
</g>
</g>
<!-- Node12&#45;&gt;Node13 -->
<g id="edge16" class="edge">
<title>Node12&#45;&gt;Node13</title>
<path fill="none" stroke="midnightblue" d="M356.92,-224.31C368.7,-216.27 385.19,-203.27 395,-188 404.03,-173.93 408.89,-155.44 411.43,-141.78"/>
<polygon fill="midnightblue" stroke="midnightblue" points="414.93,-142.07 413.05,-131.64 408.02,-140.96 414.93,-142.07"/>
</g>
<!-- Node12&#45;&gt;Node14 -->
<g id="edge20" class="edge">
<title>Node12&#45;&gt;Node14</title>
<path fill="none" stroke="midnightblue" d="M378.18,-224.44C416.58,-215.1 478.18,-200.12 520.06,-189.93"/>
<polygon fill="midnightblue" stroke="midnightblue" points="521.1,-193.28 529.99,-187.52 519.44,-186.48 521.1,-193.28"/>
</g>
<!-- Node15 -->
<g id="node15" class="node">
<title>Node15</title>
<g id="a_node15"><a xlink:href="_window_8hpp.html" target="_top" xlink:title=" ">
<polygon fill="none" stroke="black" points="294.5,-168.5 294.5,-187.5 385.5,-187.5 385.5,-168.5 294.5,-168.5"/>
<text text-anchor="middle" x="340" y="-175.5" font-family="Helvetica,sans-Serif" font-size="10.00">york/Window.hpp</text>
</a>
</g>
</g>
<!-- Node12&#45;&gt;Node15 -->
<g id="edge22" class="edge">
<title>Node12&#45;&gt;Node15</title>
<path fill="none" stroke="midnightblue" d="M342.5,-224.08C342.11,-217.01 341.55,-206.86 341.05,-197.99"/>
<polygon fill="midnightblue" stroke="midnightblue" points="344.54,-197.54 340.49,-187.75 337.55,-197.93 344.54,-197.54"/>
</g>
<!-- Node14&#45;&gt;Node13 -->
<g id="edge21" class="edge">
<title>Node14&#45;&gt;Node13</title>
<path fill="none" stroke="midnightblue" d="M541.07,-168.44C514.89,-159.08 472.85,-144.05 444.36,-133.86"/>
<polygon fill="midnightblue" stroke="midnightblue" points="445.49,-130.54 434.9,-130.47 443.13,-137.14 445.49,-130.54"/>
</g>
<!-- Node15&#45;&gt;Node2 -->
<g id="edge25" class="edge">
<title>Node15&#45;&gt;Node2</title>
<path fill="none" stroke="midnightblue" d="M310.21,-168.44C278.17,-159.24 227.07,-144.56 191.65,-134.39"/>
<polygon fill="midnightblue" stroke="midnightblue" points="192.23,-130.91 181.65,-131.52 190.29,-137.64 192.23,-130.91"/>
</g>
<!-- Node15&#45;&gt;Node13 -->
<g id="edge23" class="edge">
<title>Node15&#45;&gt;Node13</title>
<path fill="none" stroke="midnightblue" d="M351.89,-168.32C363.15,-160.11 380.29,-147.6 393.71,-137.81"/>
<polygon fill="midnightblue" stroke="midnightblue" points="395.88,-140.56 401.89,-131.83 391.75,-134.9 395.88,-140.56"/>
</g>
<!-- Node16 -->
<g id="node16" class="node">
<title>Node16</title>
<g id="a_node16"><a xlink:title=" ">
<polygon fill="none" stroke="#bfbfbf" points="302.5,-112.5 302.5,-131.5 375.5,-131.5 375.5,-112.5 302.5,-112.5"/>
<text text-anchor="middle" x="339" y="-119.5" font-family="Helvetica,sans-Serif" font-size="10.00">SDL_video.h</text>
</a>
</g>
</g>
<!-- Node15&#45;&gt;Node16 -->
<g id="edge24" class="edge">
<title>Node15&#45;&gt;Node16</title>
<path fill="none" stroke="midnightblue" d="M339.83,-168.08C339.7,-161.01 339.52,-150.86 339.35,-141.99"/>
<polygon fill="midnightblue" stroke="midnightblue" points="342.85,-141.68 339.16,-131.75 335.85,-141.81 342.85,-141.68"/>
</g>
<!-- Node17&#45;&gt;Node8 -->
<g id="edge28" class="edge">
<title>Node17&#45;&gt;Node8</title>
<path fill="none" stroke="midnightblue" d="M487.39,-224.44C528.39,-215.06 594.25,-199.99 638.78,-189.8"/>
<polygon fill="midnightblue" stroke="midnightblue" points="639.81,-193.16 648.78,-187.52 638.25,-186.34 639.81,-193.16"/>
</g>
<!-- Node17&#45;&gt;Node14 -->
<g id="edge29" class="edge">
<title>Node17&#45;&gt;Node14</title>
<path fill="none" stroke="midnightblue" d="M468.22,-224.44C486.9,-215.68 516.16,-201.94 537.62,-191.86"/>
<polygon fill="midnightblue" stroke="midnightblue" points="539.3,-194.93 546.86,-187.52 536.32,-188.6 539.3,-194.93"/>
</g>
<!-- Node17&#45;&gt;Node15 -->
<g id="edge30" class="edge">
<title>Node17&#45;&gt;Node15</title>
<path fill="none" stroke="midnightblue" d="M432.33,-224.32C414.61,-215.62 387.1,-202.12 366.71,-192.11"/>
<polygon fill="midnightblue" stroke="midnightblue" points="368.15,-188.92 357.63,-187.65 365.06,-195.2 368.15,-188.92"/>
</g>
<!-- Node18 -->
<g id="node18" class="node">
<title>Node18</title>
<g id="a_node18"><a xlink:title=" ">
<polygon fill="none" stroke="#bfbfbf" points="442,-168.5 442,-187.5 492,-187.5 492,-168.5 442,-168.5"/>
<text text-anchor="middle" x="467" y="-175.5" font-family="Helvetica,sans-Serif" font-size="10.00">optional</text>
</a>
</g>
</g>
<!-- Node17&#45;&gt;Node18 -->
<g id="edge27" class="edge">
<title>Node17&#45;&gt;Node18</title>
<path fill="none" stroke="midnightblue" d="M452.81,-224.08C455.08,-216.85 458.37,-206.41 461.21,-197.4"/>
<polygon fill="midnightblue" stroke="midnightblue" points="464.58,-198.34 464.25,-187.75 457.9,-196.24 464.58,-198.34"/>
</g>
<!-- Node19&#45;&gt;Node2 -->
<g id="edge34" class="edge">
<title>Node19&#45;&gt;Node2</title>
<path fill="none" stroke="midnightblue" d="M331.54,-280.48C308.98,-263.58 257.51,-224.29 217,-188 199.28,-172.13 180.16,-152.7 167.28,-139.24"/>
<polygon fill="midnightblue" stroke="midnightblue" points="169.55,-136.56 160.13,-131.72 164.48,-141.38 169.55,-136.56"/>
</g>
<!-- Node19&#45;&gt;Node8 -->
<g id="edge33" class="edge">
<title>Node19&#45;&gt;Node8</title>
<path fill="none" stroke="midnightblue" d="M377.7,-280.72C411.87,-272.32 465.4,-258.54 511,-244 562.29,-227.65 620.7,-205.15 655.39,-191.37"/>
<polygon fill="midnightblue" stroke="midnightblue" points="656.95,-194.51 664.94,-187.55 654.36,-188.01 656.95,-194.51"/>
</g>
<!-- Node19&#45;&gt;Node12 -->
<g id="edge35" class="edge">
<title>Node19&#45;&gt;Node12</title>
<path fill="none" stroke="midnightblue" d="M343,-280.08C343,-273.01 343,-262.86 343,-253.99"/>
<polygon fill="midnightblue" stroke="midnightblue" points="346.5,-253.75 343,-243.75 339.5,-253.75 346.5,-253.75"/>
</g>
<!-- Node19&#45;&gt;Node15 -->
<g id="edge36" class="edge">
<title>Node19&#45;&gt;Node15</title>
<path fill="none" stroke="midnightblue" d="M329.94,-280.44C319.09,-272.47 304.43,-259.52 298,-244 290.44,-225.74 305.44,-207 319.57,-194.36"/>
<polygon fill="midnightblue" stroke="midnightblue" points="322.16,-196.76 327.61,-187.68 317.68,-191.38 322.16,-196.76"/>
</g>
<!-- Node20&#45;&gt;Node2 -->
<g id="edge39" class="edge">
<title>Node20&#45;&gt;Node2</title>
<path fill="none" stroke="midnightblue" d="M399.29,-394.1C319.25,-379.67 152,-343.28 152,-291 152,-291 152,-291 152,-233 152,-200.95 152,-163.64 152,-141.75"/>
<polygon fill="midnightblue" stroke="midnightblue" points="155.5,-141.56 152,-131.56 148.5,-141.56 155.5,-141.56"/>
</g>
<!-- Node20&#45;&gt;Node8 -->
<g id="edge41" class="edge">
<title>Node20&#45;&gt;Node8</title>
<path fill="none" stroke="midnightblue" d="M450.6,-392.3C487.58,-358.8 621.02,-237.88 668.82,-194.57"/>
<polygon fill="midnightblue" stroke="midnightblue" points="671.4,-196.95 676.46,-187.64 666.7,-191.76 671.4,-196.95"/>
</g>
<!-- Node20&#45;&gt;Node10 -->
<g id="edge40" class="edge">
<title>Node20&#45;&gt;Node10</title>
<path fill="none" stroke="midnightblue" d="M435.22,-392.08C430.33,-384.53 423.17,-373.49 417.17,-364.23"/>
<polygon fill="midnightblue" stroke="midnightblue" points="420.05,-362.24 411.67,-355.75 414.17,-366.05 420.05,-362.24"/>
</g>
</g>
</svg>
