<?xml version="1.0" encoding="UTF-8" standalone="no"?>
<!DOCTYPE svg PUBLIC "-//W3C//DTD SVG 1.1//EN"
 "http://www.w3.org/Graphics/SVG/1.1/DTD/svg11.dtd">
<!-- Generated by graphviz version 2.50.0 (20211204.2007)
 -->
<!-- Title: include/york/Graphics/Framebuffer.hpp Pages: 1 -->
<svg width="722pt" height="655pt"
 viewBox="0.00 0.00 722.00 655.00" xmlns="http://www.w3.org/2000/svg" xmlns:xlink="http://www.w3.org/1999/xlink">
<g id="graph0" class="graph" transform="scale(1 1) rotate(0) translate(4 651)">
<title>include/york/Graphics/Framebuffer.hpp</title>
<!-- Node1 -->
<g id="node1" class="node">
<title>Node1</title>
<g id="a_node1"><a xlink:title=" ">
<polygon fill="#bfbfbf" stroke="black" points="297.5,-616.5 297.5,-646.5 408.5,-646.5 408.5,-616.5 297.5,-616.5"/>
<text text-anchor="start" x="305.5" y="-634.5" font-family="Helvetica,sans-Serif" font-size="10.00">include/york/Graphics</text>
<text text-anchor="middle" x="353" y="-623.5" font-family="Helvetica,sans-Serif" font-size="10.00">/Framebuffer.hpp</text>
</a>
</g>
</g>
<!-- Node2 -->
<g id="node2" class="node">
<title>Node2</title>
<g id="a_node2"><a xlink:href="_handle_8hpp.html" target="_top" xlink:title="Contains the declarations for the Handle classes which form the basis of our Vulkan implementation.">
<polygon fill="none" stroke="black" points="119,-112.5 119,-131.5 185,-131.5 185,-112.5 119,-112.5"/>
<text text-anchor="middle" x="152" y="-119.5" font-family="Helvetica,sans-Serif" font-size="10.00">Handle.hpp</text>
</a>
</g>
</g>
<!-- Node1&#45;&gt;Node2 -->
<g id="edge1" class="edge">
<title>Node1&#45;&gt;Node2</title>
<path fill="none" stroke="midnightblue" d="M297.46,-624.01C198.05,-610.83 0,-576.82 0,-515 0,-515 0,-515 0,-233 0,-178.94 63.87,-148.75 108.81,-134.19"/>
<polygon fill="midnightblue" stroke="midnightblue" points="110.12,-137.45 118.64,-131.15 108.06,-130.76 110.12,-137.45"/>
</g>
<!-- Node7 -->
<g id="node7" class="node">
<title>Node7</title>
<g id="a_node7"><a xlink:href="_render_pass_8hpp.html" target="_top" xlink:title=" ">
<polygon fill="none" stroke="black" points="345.5,-560.5 345.5,-579.5 434.5,-579.5 434.5,-560.5 345.5,-560.5"/>
<text text-anchor="middle" x="390" y="-567.5" font-family="Helvetica,sans-Serif" font-size="10.00">RenderPass.hpp</text>
</a>
</g>
</g>
<!-- Node1&#45;&gt;Node7 -->
<g id="edge6" class="edge">
<title>Node1&#45;&gt;Node7</title>
<path fill="none" stroke="midnightblue" d="M361.77,-616.4C366.98,-608.02 373.63,-597.33 379.17,-588.42"/>
<polygon fill="midnightblue" stroke="midnightblue" points="382.31,-590 384.62,-579.66 376.36,-586.3 382.31,-590"/>
</g>
<!-- Node8 -->
<g id="node8" class="node">
<title>Node8</title>
<g id="a_node8"><a xlink:title=" ">
<polygon fill="none" stroke="#bfbfbf" points="569.5,-168.5 569.5,-187.5 664.5,-187.5 664.5,-168.5 569.5,-168.5"/>
<text text-anchor="middle" x="617" y="-175.5" font-family="Helvetica,sans-Serif" font-size="10.00">vulkan/vulkan.hpp</text>
</a>
</g>
</g>
<!-- Node1&#45;&gt;Node8 -->
<g id="edge43" class="edge">
<title>Node1&#45;&gt;Node8</title>
<path fill="none" stroke="midnightblue" d="M408.62,-624.4C509.88,-611.73 714,-578.34 714,-515 714,-515 714,-515 714,-289 714,-245.35 670.49,-210.83 641.76,-192.79"/>
<polygon fill="midnightblue" stroke="midnightblue" points="643.39,-189.68 633.02,-187.52 639.77,-195.68 643.39,-189.68"/>
</g>
<!-- Node20 -->
<g id="node20" class="node">
<title>Node20</title>
<g id="a_node20"><a xlink:href="_image_view_8hpp.html" target="_top" xlink:title=" ">
<polygon fill="none" stroke="black" points="277.5,-448.5 277.5,-467.5 360.5,-467.5 360.5,-448.5 277.5,-448.5"/>
<text text-anchor="middle" x="319" y="-455.5" font-family="Helvetica,sans-Serif" font-size="10.00">ImageView.hpp</text>
</a>
</g>
</g>
<!-- Node1&#45;&gt;Node20 -->
<g id="edge42" class="edge">
<title>Node1&#45;&gt;Node20</title>
<path fill="none" stroke="midnightblue" d="M347.76,-616.08C344.29,-606.07 339.86,-592.37 337,-580 328.73,-544.26 323.43,-501.66 320.85,-477.73"/>
<polygon fill="midnightblue" stroke="midnightblue" points="324.31,-477.18 319.8,-467.6 317.35,-477.9 324.31,-477.18"/>
</g>
<!-- Node3 -->
<g id="node3" class="node">
<title>Node3</title>
<g id="a_node3"><a xlink:title=" ">
<polygon fill="none" stroke="#bfbfbf" points="311,-56.5 311,-75.5 355,-75.5 355,-56.5 311,-56.5"/>
<text text-anchor="middle" x="333" y="-63.5" font-family="Helvetica,sans-Serif" font-size="10.00">vector</text>
</a>
</g>
</g>
<!-- Node2&#45;&gt;Node3 -->
<g id="edge2" class="edge">
<title>Node2&#45;&gt;Node3</title>
<path fill="none" stroke="midnightblue" d="M180.68,-112.44C213.38,-102.69 266.71,-86.78 300.81,-76.6"/>
<polygon fill="midnightblue" stroke="midnightblue" points="302.15,-79.86 310.73,-73.64 300.15,-73.15 302.15,-79.86"/>
</g>
<!-- Node4 -->
<g id="node4" class="node">
<title>Node4</title>
<g id="a_node4"><a xlink:title=" ">
<polygon fill="none" stroke="#bfbfbf" points="172.5,-56.5 172.5,-75.5 231.5,-75.5 231.5,-56.5 172.5,-56.5"/>
<text text-anchor="middle" x="202" y="-63.5" font-family="Helvetica,sans-Serif" font-size="10.00">functional</text>
</a>
</g>
</g>
<!-- Node2&#45;&gt;Node4 -->
<g id="edge3" class="edge">
<title>Node2&#45;&gt;Node4</title>
<path fill="none" stroke="midnightblue" d="M160.26,-112.08C167.46,-104.3 178.11,-92.8 186.85,-83.37"/>
<polygon fill="midnightblue" stroke="midnightblue" points="189.67,-85.47 193.9,-75.75 184.53,-80.71 189.67,-85.47"/>
</g>
<!-- Node5 -->
<g id="node5" class="node">
<title>Node5</title>
<g id="a_node5"><a xlink:href="_identifiable_8hpp.html" target="_top" xlink:title=" ">
<polygon fill="none" stroke="black" points="50,-56.5 50,-75.5 154,-75.5 154,-56.5 50,-56.5"/>
<text text-anchor="middle" x="102" y="-63.5" font-family="Helvetica,sans-Serif" font-size="10.00">york/Identifiable.hpp</text>
</a>
</g>
</g>
<!-- Node2&#45;&gt;Node5 -->
<g id="edge4" class="edge">
<title>Node2&#45;&gt;Node5</title>
<path fill="none" stroke="midnightblue" d="M143.74,-112.08C136.54,-104.3 125.89,-92.8 117.15,-83.37"/>
<polygon fill="midnightblue" stroke="midnightblue" points="119.47,-80.71 110.1,-75.75 114.33,-85.47 119.47,-80.71"/>
</g>
<!-- Node6 -->
<g id="node6" class="node">
<title>Node6</title>
<g id="a_node6"><a xlink:title=" ">
<polygon fill="none" stroke="#bfbfbf" points="79,-0.5 79,-19.5 125,-19.5 125,-0.5 79,-0.5"/>
<text text-anchor="middle" x="102" y="-7.5" font-family="Helvetica,sans-Serif" font-size="10.00">cstdint</text>
</a>
</g>
</g>
<!-- Node5&#45;&gt;Node6 -->
<g id="edge5" class="edge">
<title>Node5&#45;&gt;Node6</title>
<path fill="none" stroke="midnightblue" d="M102,-56.08C102,-49.01 102,-38.86 102,-29.99"/>
<polygon fill="midnightblue" stroke="midnightblue" points="105.5,-29.75 102,-19.75 98.5,-29.75 105.5,-29.75"/>
</g>
<!-- Node7&#45;&gt;Node2 -->
<g id="edge8" class="edge">
<title>Node7&#45;&gt;Node2</title>
<path fill="none" stroke="midnightblue" d="M345.42,-564.54C250.7,-553.84 38,-522.71 38,-459 38,-459 38,-459 38,-233 38,-186.11 88.55,-152.89 122.33,-135.93"/>
<polygon fill="midnightblue" stroke="midnightblue" points="123.87,-139.07 131.36,-131.58 120.83,-132.77 123.87,-139.07"/>
</g>
<!-- Node7&#45;&gt;Node8 -->
<g id="edge7" class="edge">
<title>Node7&#45;&gt;Node8</title>
<path fill="none" stroke="midnightblue" d="M434.69,-561.39C515.12,-546.41 676,-510.07 676,-459 676,-459 676,-459 676,-289 676,-252.02 649.79,-215.47 632.31,-195.21"/>
<polygon fill="midnightblue" stroke="midnightblue" points="634.74,-192.67 625.45,-187.56 629.53,-197.34 634.74,-192.67"/>
</g>
<!-- Node9 -->
<g id="node9" class="node">
<title>Node9</title>
<g id="a_node9"><a xlink:href="_swap_chain_8hpp.html" target="_top" xlink:title=" ">
<polygon fill="none" stroke="black" points="346,-504.5 346,-523.5 432,-523.5 432,-504.5 346,-504.5"/>
<text text-anchor="middle" x="389" y="-511.5" font-family="Helvetica,sans-Serif" font-size="10.00">SwapChain.hpp</text>
</a>
</g>
</g>
<!-- Node7&#45;&gt;Node9 -->
<g id="edge9" class="edge">
<title>Node7&#45;&gt;Node9</title>
<path fill="none" stroke="midnightblue" d="M389.83,-560.08C389.7,-553.01 389.52,-542.86 389.35,-533.99"/>
<polygon fill="midnightblue" stroke="midnightblue" points="392.85,-533.68 389.16,-523.75 385.85,-533.81 392.85,-533.68"/>
</g>
<!-- Node9&#45;&gt;Node2 -->
<g id="edge37" class="edge">
<title>Node9&#45;&gt;Node2</title>
<path fill="none" stroke="midnightblue" d="M345.81,-507.06C259.94,-494.03 76,-459.52 76,-403 76,-403 76,-403 76,-233 76,-193.28 109.96,-157.5 132.48,-138.15"/>
<polygon fill="midnightblue" stroke="midnightblue" points="134.98,-140.63 140.46,-131.57 130.52,-135.24 134.98,-140.63"/>
</g>
<!-- Node9&#45;&gt;Node8 -->
<g id="edge10" class="edge">
<title>Node9&#45;&gt;Node8</title>
<path fill="none" stroke="midnightblue" d="M432.09,-512.66C503.36,-509.57 638,-491.97 638,-403 638,-403 638,-403 638,-289 638,-256.38 628.98,-219.28 622.77,-197.57"/>
<polygon fill="midnightblue" stroke="midnightblue" points="626.04,-196.32 619.83,-187.73 619.33,-198.32 626.04,-196.32"/>
</g>
<!-- Node10 -->
<g id="node10" class="node">
<title>Node10</title>
<g id="a_node10"><a xlink:href="_device_8hpp.html" target="_top" xlink:title=" ">
<polygon fill="none" stroke="black" points="321,-392.5 321,-411.5 387,-411.5 387,-392.5 321,-392.5"/>
<text text-anchor="middle" x="354" y="-399.5" font-family="Helvetica,sans-Serif" font-size="10.00">Device.hpp</text>
</a>
</g>
</g>
<!-- Node9&#45;&gt;Node10 -->
<g id="edge11" class="edge">
<title>Node9&#45;&gt;Node10</title>
<path fill="none" stroke="midnightblue" d="M386.58,-504.12C383.11,-491.56 376.44,-467.91 370,-448 367.12,-439.11 363.68,-429.34 360.73,-421.17"/>
<polygon fill="midnightblue" stroke="midnightblue" points="363.94,-419.76 357.21,-411.58 357.37,-422.17 363.94,-419.76"/>
</g>
<!-- Node9&#45;&gt;Node20 -->
<g id="edge38" class="edge">
<title>Node9&#45;&gt;Node20</title>
<path fill="none" stroke="midnightblue" d="M377.75,-504.32C367.2,-496.18 351.2,-483.84 338.56,-474.09"/>
<polygon fill="midnightblue" stroke="midnightblue" points="340.51,-471.17 330.45,-467.83 336.23,-476.71 340.51,-471.17"/>
</g>
<!-- Node10&#45;&gt;Node2 -->
<g id="edge14" class="edge">
<title>Node10&#45;&gt;Node2</title>
<path fill="none" stroke="midnightblue" d="M320.64,-397.96C263.27,-390.71 152,-366.87 152,-291 152,-291 152,-291 152,-233 152,-200.95 152,-163.64 152,-141.75"/>
<polygon fill="midnightblue" stroke="midnightblue" points="155.5,-141.56 152,-131.56 148.5,-141.56 155.5,-141.56"/>
</g>
<!-- Node10&#45;&gt;Node8 -->
<g id="edge13" class="edge">
<title>Node10&#45;&gt;Node8</title>
<path fill="none" stroke="midnightblue" d="M387.13,-399.96C423.71,-397.18 482.5,-387.66 521,-356 571.51,-314.46 552.92,-280.41 586,-224 591.64,-214.38 598.63,-204.12 604.55,-195.82"/>
<polygon fill="midnightblue" stroke="midnightblue" points="607.39,-197.86 610.43,-187.71 601.72,-193.75 607.39,-197.86"/>
</g>
<!-- Node11 -->
<g id="node11" class="node">
<title>Node11</title>
<g id="a_node11"><a xlink:title=" ">
<polygon fill="none" stroke="#bfbfbf" points="334,-336.5 334,-355.5 374,-355.5 374,-336.5 334,-336.5"/>
<text text-anchor="middle" x="354" y="-343.5" font-family="Helvetica,sans-Serif" font-size="10.00">utility</text>
</a>
</g>
</g>
<!-- Node10&#45;&gt;Node11 -->
<g id="edge12" class="edge">
<title>Node10&#45;&gt;Node11</title>
<path fill="none" stroke="midnightblue" d="M354,-392.08C354,-385.01 354,-374.86 354,-365.99"/>
<polygon fill="midnightblue" stroke="midnightblue" points="357.5,-365.75 354,-355.75 350.5,-365.75 357.5,-365.75"/>
</g>
<!-- Node12 -->
<g id="node12" class="node">
<title>Node12</title>
<g id="a_node12"><a xlink:href="_instance_8hpp.html" target="_top" xlink:title=" ">
<polygon fill="none" stroke="black" points="346.5,-224.5 346.5,-243.5 419.5,-243.5 419.5,-224.5 346.5,-224.5"/>
<text text-anchor="middle" x="383" y="-231.5" font-family="Helvetica,sans-Serif" font-size="10.00">Instance.hpp</text>
</a>
</g>
</g>
<!-- Node10&#45;&gt;Node12 -->
<g id="edge15" class="edge">
<title>Node10&#45;&gt;Node12</title>
<path fill="none" stroke="midnightblue" d="M346.33,-392.46C339.22,-383.93 329.15,-370.09 325,-356 322.49,-347.47 324.14,-344.85 325,-336 327.46,-310.75 323.83,-302.25 336,-280 342.37,-268.35 352.81,-257.91 362.22,-250.02"/>
<polygon fill="midnightblue" stroke="midnightblue" points="364.44,-252.73 370.11,-243.79 360.1,-247.24 364.44,-252.73"/>
</g>
<!-- Node14 -->
<g id="node14" class="node">
<title>Node14</title>
<g id="a_node14"><a xlink:href="_requestable_item_8hpp.html" target="_top" xlink:title=" ">
<polygon fill="none" stroke="black" points="180,-168.5 180,-187.5 290,-187.5 290,-168.5 180,-168.5"/>
<text text-anchor="middle" x="235" y="-175.5" font-family="Helvetica,sans-Serif" font-size="10.00">RequestableItem.hpp</text>
</a>
</g>
</g>
<!-- Node10&#45;&gt;Node14 -->
<g id="edge35" class="edge">
<title>Node10&#45;&gt;Node14</title>
<path fill="none" stroke="midnightblue" d="M346.53,-392.39C339.08,-383.58 327.54,-369.34 319,-356 288.78,-308.79 284.33,-294.97 261,-244 253.89,-228.46 246.74,-210.38 241.75,-197.24"/>
<polygon fill="midnightblue" stroke="midnightblue" points="244.9,-195.66 238.11,-187.52 238.34,-198.12 244.9,-195.66"/>
</g>
<!-- Node17 -->
<g id="node17" class="node">
<title>Node17</title>
<g id="a_node17"><a xlink:href="_physical_device_8hpp.html" target="_top" xlink:title=" ">
<polygon fill="none" stroke="black" points="392,-336.5 392,-355.5 496,-355.5 496,-336.5 392,-336.5"/>
<text text-anchor="middle" x="444" y="-343.5" font-family="Helvetica,sans-Serif" font-size="10.00">PhysicalDevice.hpp</text>
</a>
</g>
</g>
<!-- Node10&#45;&gt;Node17 -->
<g id="edge26" class="edge">
<title>Node10&#45;&gt;Node17</title>
<path fill="none" stroke="midnightblue" d="M368.46,-392.32C382.5,-383.9 404.05,-370.97 420.54,-361.07"/>
<polygon fill="midnightblue" stroke="midnightblue" points="422.8,-363.8 429.58,-355.65 419.2,-357.8 422.8,-363.8"/>
</g>
<!-- Node19 -->
<g id="node19" class="node">
<title>Node19</title>
<g id="a_node19"><a xlink:href="_surface_8hpp.html" target="_top" xlink:title=" ">
<polygon fill="none" stroke="black" points="413.5,-280.5 413.5,-299.5 482.5,-299.5 482.5,-280.5 413.5,-280.5"/>
<text text-anchor="middle" x="448" y="-287.5" font-family="Helvetica,sans-Serif" font-size="10.00">Surface.hpp</text>
</a>
</g>
</g>
<!-- Node10&#45;&gt;Node19 -->
<g id="edge36" class="edge">
<title>Node10&#45;&gt;Node19</title>
<path fill="none" stroke="midnightblue" d="M387.13,-401.71C422.76,-400.47 477.94,-392.3 505,-356 518.89,-337.36 495.11,-317.49 474.16,-304.69"/>
<polygon fill="midnightblue" stroke="midnightblue" points="475.88,-301.64 465.47,-299.66 472.37,-307.7 475.88,-301.64"/>
</g>
<!-- Node12&#45;&gt;Node2 -->
<g id="edge19" class="edge">
<title>Node12&#45;&gt;Node2</title>
<path fill="none" stroke="midnightblue" d="M378.67,-224.33C371.16,-210.25 354.39,-182.51 332,-168 290.5,-141.09 234.02,-130.27 195.46,-125.92"/>
<polygon fill="midnightblue" stroke="midnightblue" points="195.39,-122.4 185.09,-124.86 194.68,-129.36 195.39,-122.4"/>
</g>
<!-- Node12&#45;&gt;Node3 -->
<g id="edge17" class="edge">
<title>Node12&#45;&gt;Node3</title>
<path fill="none" stroke="midnightblue" d="M380.31,-224.08C372.44,-197.95 349.33,-121.21 338.6,-85.58"/>
<polygon fill="midnightblue" stroke="midnightblue" points="341.82,-84.13 335.58,-75.57 335.11,-86.15 341.82,-84.13"/>
</g>
<!-- Node12&#45;&gt;Node8 -->
<g id="edge18" class="edge">
<title>Node12&#45;&gt;Node8</title>
<path fill="none" stroke="midnightblue" d="M419.56,-224.56C460.11,-215.21 525.63,-200.08 569.97,-189.85"/>
<polygon fill="midnightblue" stroke="midnightblue" points="570.97,-193.22 579.92,-187.56 569.39,-186.39 570.97,-193.22"/>
</g>
<!-- Node13 -->
<g id="node13" class="node">
<title>Node13</title>
<g id="a_node13"><a xlink:title=" ">
<polygon fill="none" stroke="#bfbfbf" points="422.5,-112.5 422.5,-131.5 463.5,-131.5 463.5,-112.5 422.5,-112.5"/>
<text text-anchor="middle" x="443" y="-119.5" font-family="Helvetica,sans-Serif" font-size="10.00">string</text>
</a>
</g>
</g>
<!-- Node12&#45;&gt;Node13 -->
<g id="edge16" class="edge">
<title>Node12&#45;&gt;Node13</title>
<path fill="none" stroke="midnightblue" d="M387.83,-224.39C392.89,-215.35 401.05,-200.7 408,-188 416.72,-172.05 426.53,-153.82 433.53,-140.73"/>
<polygon fill="midnightblue" stroke="midnightblue" points="436.65,-142.32 438.28,-131.85 430.48,-139.02 436.65,-142.32"/>
</g>
<!-- Node12&#45;&gt;Node14 -->
<g id="edge20" class="edge">
<title>Node12&#45;&gt;Node14</title>
<path fill="none" stroke="midnightblue" d="M359.55,-224.44C334.87,-215.44 295.81,-201.19 268.02,-191.05"/>
<polygon fill="midnightblue" stroke="midnightblue" points="268.94,-187.66 258.34,-187.52 266.54,-194.23 268.94,-187.66"/>
</g>
<!-- Node15 -->
<g id="node15" class="node">
<title>Node15</title>
<g id="a_node15"><a xlink:href="_window_8hpp.html" target="_top" xlink:title=" ">
<polygon fill="none" stroke="black" points="460.5,-168.5 460.5,-187.5 551.5,-187.5 551.5,-168.5 460.5,-168.5"/>
<text text-anchor="middle" x="506" y="-175.5" font-family="Helvetica,sans-Serif" font-size="10.00">york/Window.hpp</text>
</a>
</g>
</g>
<!-- Node12&#45;&gt;Node15 -->
<g id="edge22" class="edge">
<title>Node12&#45;&gt;Node15</title>
<path fill="none" stroke="midnightblue" d="M402.49,-224.44C422.64,-215.6 454.32,-201.69 477.33,-191.59"/>
<polygon fill="midnightblue" stroke="midnightblue" points="478.85,-194.74 486.6,-187.52 476.04,-188.33 478.85,-194.74"/>
</g>
<!-- Node14&#45;&gt;Node13 -->
<g id="edge21" class="edge">
<title>Node14&#45;&gt;Node13</title>
<path fill="none" stroke="midnightblue" d="M267.96,-168.44C307.64,-158.14 373.76,-140.98 412.37,-130.95"/>
<polygon fill="midnightblue" stroke="midnightblue" points="413.69,-134.23 422.49,-128.32 411.93,-127.45 413.69,-134.23"/>
</g>
<!-- Node15&#45;&gt;Node2 -->
<g id="edge25" class="edge">
<title>Node15&#45;&gt;Node2</title>
<path fill="none" stroke="midnightblue" d="M460.45,-170.05C391.85,-159.59 262.91,-139.92 195.52,-129.64"/>
<polygon fill="midnightblue" stroke="midnightblue" points="195.67,-126.12 185.25,-128.07 194.61,-133.04 195.67,-126.12"/>
</g>
<!-- Node15&#45;&gt;Node13 -->
<g id="edge23" class="edge">
<title>Node15&#45;&gt;Node13</title>
<path fill="none" stroke="midnightblue" d="M495.88,-168.32C486.47,-160.26 472.26,-148.08 460.93,-138.37"/>
<polygon fill="midnightblue" stroke="midnightblue" points="463.18,-135.68 453.31,-131.83 458.62,-141 463.18,-135.68"/>
</g>
<!-- Node16 -->
<g id="node16" class="node">
<title>Node16</title>
<g id="a_node16"><a xlink:title=" ">
<polygon fill="none" stroke="#bfbfbf" points="481.5,-112.5 481.5,-131.5 554.5,-131.5 554.5,-112.5 481.5,-112.5"/>
<text text-anchor="middle" x="518" y="-119.5" font-family="Helvetica,sans-Serif" font-size="10.00">SDL_video.h</text>
</a>
</g>
</g>
<!-- Node15&#45;&gt;Node16 -->
<g id="edge24" class="edge">
<title>Node15&#45;&gt;Node16</title>
<path fill="none" stroke="midnightblue" d="M507.98,-168.08C509.57,-160.93 511.86,-150.64 513.85,-141.69"/>
<polygon fill="midnightblue" stroke="midnightblue" points="517.3,-142.27 516.06,-131.75 510.47,-140.75 517.3,-142.27"/>
</g>
<!-- Node17&#45;&gt;Node8 -->
<g id="edge28" class="edge">
<title>Node17&#45;&gt;Node8</title>
<path fill="none" stroke="midnightblue" d="M454.45,-336.2C464.54,-327.47 480.01,-313.49 492,-300 519.87,-268.63 517.5,-252.81 548,-224 561.01,-211.71 577.79,-200.69 591.54,-192.62"/>
<polygon fill="midnightblue" stroke="midnightblue" points="593.53,-195.52 600.49,-187.54 590.07,-189.43 593.53,-195.52"/>
</g>
<!-- Node17&#45;&gt;Node14 -->
<g id="edge34" class="edge">
<title>Node17&#45;&gt;Node14</title>
<path fill="none" stroke="midnightblue" d="M412.64,-336.36C389.91,-329.08 359.22,-317.11 336,-300 295.96,-270.49 261.86,-221.88 245.45,-196.18"/>
<polygon fill="midnightblue" stroke="midnightblue" points="248.32,-194.16 240.05,-187.53 242.38,-197.87 248.32,-194.16"/>
</g>
<!-- Node18 -->
<g id="node18" class="node">
<title>Node18</title>
<g id="a_node18"><a xlink:title=" ">
<polygon fill="none" stroke="#bfbfbf" points="345,-280.5 345,-299.5 395,-299.5 395,-280.5 345,-280.5"/>
<text text-anchor="middle" x="370" y="-287.5" font-family="Helvetica,sans-Serif" font-size="10.00">optional</text>
</a>
</g>
</g>
<!-- Node17&#45;&gt;Node18 -->
<g id="edge27" class="edge">
<title>Node17&#45;&gt;Node18</title>
<path fill="none" stroke="midnightblue" d="M432.11,-336.32C420.85,-328.11 403.71,-315.6 390.29,-305.81"/>
<polygon fill="midnightblue" stroke="midnightblue" points="392.25,-302.9 382.11,-299.83 388.12,-308.56 392.25,-302.9"/>
</g>
<!-- Node17&#45;&gt;Node19 -->
<g id="edge29" class="edge">
<title>Node17&#45;&gt;Node19</title>
<path fill="none" stroke="midnightblue" d="M444.66,-336.08C445.18,-329.01 445.94,-318.86 446.59,-309.99"/>
<polygon fill="midnightblue" stroke="midnightblue" points="450.1,-309.98 447.35,-299.75 443.12,-309.47 450.1,-309.98"/>
</g>
<!-- Node19&#45;&gt;Node2 -->
<g id="edge32" class="edge">
<title>Node19&#45;&gt;Node2</title>
<path fill="none" stroke="midnightblue" d="M413.31,-281.54C389.74,-274.99 359.13,-263.39 338,-244 310.03,-218.33 328.11,-192.37 299,-168 269.64,-143.42 227.01,-132.26 195.22,-127.19"/>
<polygon fill="midnightblue" stroke="midnightblue" points="195.7,-123.73 185.3,-125.75 194.7,-130.66 195.7,-123.73"/>
</g>
<!-- Node19&#45;&gt;Node8 -->
<g id="edge30" class="edge">
<title>Node19&#45;&gt;Node8</title>
<path fill="none" stroke="midnightblue" d="M454.35,-280.33C464.68,-266.74 486.37,-240.29 510,-224 530.91,-209.58 557.17,-198.45 578.44,-190.87"/>
<polygon fill="midnightblue" stroke="midnightblue" points="579.81,-194.1 588.13,-187.54 577.53,-187.48 579.81,-194.1"/>
</g>
<!-- Node19&#45;&gt;Node12 -->
<g id="edge33" class="edge">
<title>Node19&#45;&gt;Node12</title>
<path fill="none" stroke="midnightblue" d="M437.56,-280.32C427.85,-272.26 413.18,-260.08 401.5,-250.37"/>
<polygon fill="midnightblue" stroke="midnightblue" points="403.56,-247.53 393.63,-243.83 399.09,-252.92 403.56,-247.53"/>
</g>
<!-- Node19&#45;&gt;Node15 -->
<g id="edge31" class="edge">
<title>Node19&#45;&gt;Node15</title>
<path fill="none" stroke="midnightblue" d="M450.34,-280.24C453.97,-267.42 461.61,-243 472,-224 477.51,-213.93 485.1,-203.64 491.72,-195.45"/>
<polygon fill="midnightblue" stroke="midnightblue" points="494.41,-197.69 498.13,-187.77 489.04,-193.2 494.41,-197.69"/>
</g>
<!-- Node20&#45;&gt;Node2 -->
<g id="edge39" class="edge">
<title>Node20&#45;&gt;Node2</title>
<path fill="none" stroke="midnightblue" d="M277.02,-453.1C217.05,-444.96 114,-420.31 114,-347 114,-347 114,-347 114,-233 114,-198.81 130.6,-161.76 141.86,-140.57"/>
<polygon fill="midnightblue" stroke="midnightblue" points="144.95,-142.22 146.72,-131.77 138.82,-138.83 144.95,-142.22"/>
</g>
<!-- Node20&#45;&gt;Node8 -->
<g id="edge41" class="edge">
<title>Node20&#45;&gt;Node8</title>
<path fill="none" stroke="midnightblue" d="M360.77,-449.65C439.04,-434.69 600,-397.75 600,-347 600,-347 600,-347 600,-289 600,-256.58 607.3,-219.42 612.33,-197.64"/>
<polygon fill="midnightblue" stroke="midnightblue" points="615.77,-198.31 614.71,-187.77 608.97,-196.67 615.77,-198.31"/>
</g>
<!-- Node20&#45;&gt;Node10 -->
<g id="edge40" class="edge">
<title>Node20&#45;&gt;Node10</title>
<path fill="none" stroke="midnightblue" d="M324.78,-448.08C329.67,-440.53 336.83,-429.49 342.83,-420.23"/>
<polygon fill="midnightblue" stroke="midnightblue" points="345.83,-422.05 348.33,-411.75 339.95,-418.24 345.83,-422.05"/>
</g>
</g>
</svg>
