<?xml version="1.0" encoding="UTF-8" standalone="no"?>
<!DOCTYPE svg PUBLIC "-//W3C//DTD SVG 1.1//EN"
 "http://www.w3.org/Graphics/SVG/1.1/DTD/svg11.dtd">
<!-- Generated by graphviz version 2.50.0 (20211204.2007)
 -->
<!-- Title: include/york/Graphics/FrameData.hpp Pages: 1 -->
<svg width="906pt" height="711pt"
 viewBox="0.00 0.00 906.03 711.00" xmlns="http://www.w3.org/2000/svg" xmlns:xlink="http://www.w3.org/1999/xlink">
<g id="graph0" class="graph" transform="scale(1 1) rotate(0) translate(4 707)">
<title>include/york/Graphics/FrameData.hpp</title>
<!-- Node1 -->
<g id="node1" class="node">
<title>Node1</title>
<g id="a_node1"><a xlink:title=" ">
<polygon fill="#bfbfbf" stroke="black" points="467.53,-672.5 467.53,-702.5 578.53,-702.5 578.53,-672.5 467.53,-672.5"/>
<text text-anchor="start" x="475.53" y="-690.5" font-family="Helvetica,sans-Serif" font-size="10.00">include/york/Graphics</text>
<text text-anchor="middle" x="523.03" y="-679.5" font-family="Helvetica,sans-Serif" font-size="10.00">/FrameData.hpp</text>
</a>
</g>
</g>
<!-- Node2 -->
<g id="node2" class="node">
<title>Node2</title>
<g id="a_node2"><a xlink:href="_semaphore_8hpp.html" target="_top" xlink:title=" ">
<polygon fill="none" stroke="black" points="480.53,-448.5 480.53,-467.5 565.53,-467.5 565.53,-448.5 480.53,-448.5"/>
<text text-anchor="middle" x="523.03" y="-455.5" font-family="Helvetica,sans-Serif" font-size="10.00">Semaphore.hpp</text>
</a>
</g>
</g>
<!-- Node1&#45;&gt;Node2 -->
<g id="edge1" class="edge">
<title>Node1&#45;&gt;Node2</title>
<path fill="none" stroke="midnightblue" d="M523.03,-672.27C523.03,-632.89 523.03,-522.49 523.03,-477.97"/>
<polygon fill="midnightblue" stroke="midnightblue" points="526.53,-477.93 523.03,-467.93 519.53,-477.93 526.53,-477.93"/>
</g>
<!-- Node19 -->
<g id="node19" class="node">
<title>Node19</title>
<g id="a_node19"><a xlink:href="_command_pool_8hpp.html" target="_top" xlink:title=" ">
<polygon fill="none" stroke="black" points="29.03,-448.5 29.03,-467.5 129.03,-467.5 129.03,-448.5 29.03,-448.5"/>
<text text-anchor="middle" x="79.03" y="-455.5" font-family="Helvetica,sans-Serif" font-size="10.00">CommandPool.hpp</text>
</a>
</g>
</g>
<!-- Node1&#45;&gt;Node19 -->
<g id="edge34" class="edge">
<title>Node1&#45;&gt;Node19</title>
<path fill="none" stroke="midnightblue" d="M495.59,-672.44C415.63,-631.47 183.55,-512.56 105.21,-472.42"/>
<polygon fill="midnightblue" stroke="midnightblue" points="106.52,-469.16 96.03,-467.71 103.33,-475.39 106.52,-469.16"/>
</g>
<!-- Node20 -->
<g id="node20" class="node">
<title>Node20</title>
<g id="a_node20"><a xlink:href="_fence_8hpp.html" target="_top" xlink:title=" ">
<polygon fill="none" stroke="black" points="767.03,-448.5 767.03,-467.5 829.03,-467.5 829.03,-448.5 767.03,-448.5"/>
<text text-anchor="middle" x="798.03" y="-455.5" font-family="Helvetica,sans-Serif" font-size="10.00">Fence.hpp</text>
</a>
</g>
</g>
<!-- Node1&#45;&gt;Node20 -->
<g id="edge38" class="edge">
<title>Node1&#45;&gt;Node20</title>
<path fill="none" stroke="midnightblue" d="M578.62,-683.19C621.24,-678.24 679.75,-666.04 722.03,-636 775.39,-598.09 791.58,-514.66 796.25,-477.5"/>
<polygon fill="midnightblue" stroke="midnightblue" points="799.73,-477.87 797.35,-467.55 792.77,-477.1 799.73,-477.87"/>
</g>
<!-- Node21 -->
<g id="node21" class="node">
<title>Node21</title>
<g id="a_node21"><a xlink:href="_framebuffer_8hpp.html" target="_top" xlink:title=" ">
<polygon fill="none" stroke="black" points="625.53,-616.5 625.53,-635.5 712.53,-635.5 712.53,-616.5 625.53,-616.5"/>
<text text-anchor="middle" x="669.03" y="-623.5" font-family="Helvetica,sans-Serif" font-size="10.00">Framebuffer.hpp</text>
</a>
</g>
</g>
<!-- Node1&#45;&gt;Node21 -->
<g id="edge42" class="edge">
<title>Node1&#45;&gt;Node21</title>
<path fill="none" stroke="midnightblue" d="M557.63,-672.4C582.12,-662.42 614.68,-649.15 638.27,-639.53"/>
<polygon fill="midnightblue" stroke="midnightblue" points="639.84,-642.67 647.78,-635.66 637.2,-636.19 639.84,-642.67"/>
</g>
<!-- Node23 -->
<g id="node23" class="node">
<title>Node23</title>
<g id="a_node23"><a xlink:href="_swap_chain_8hpp.html" target="_top" xlink:title=" ">
<polygon fill="none" stroke="black" points="404.03,-504.5 404.03,-523.5 490.03,-523.5 490.03,-504.5 404.03,-504.5"/>
<text text-anchor="middle" x="447.03" y="-511.5" font-family="Helvetica,sans-Serif" font-size="10.00">SwapChain.hpp</text>
</a>
</g>
</g>
<!-- Node1&#45;&gt;Node23 -->
<g id="edge57" class="edge">
<title>Node1&#45;&gt;Node23</title>
<path fill="none" stroke="midnightblue" d="M516.81,-672.47C503.06,-641.44 470.09,-567.05 454.92,-532.81"/>
<polygon fill="midnightblue" stroke="midnightblue" points="458.07,-531.28 450.82,-523.56 451.67,-534.12 458.07,-531.28"/>
</g>
<!-- Node3 -->
<g id="node3" class="node">
<title>Node3</title>
<g id="a_node3"><a xlink:href="_handle_8hpp.html" target="_top" xlink:title="Contains the declarations for the Handle classes which form the basis of our Vulkan implementation.">
<polygon fill="none" stroke="black" points="396.03,-112.5 396.03,-131.5 462.03,-131.5 462.03,-112.5 396.03,-112.5"/>
<text text-anchor="middle" x="429.03" y="-119.5" font-family="Helvetica,sans-Serif" font-size="10.00">Handle.hpp</text>
</a>
</g>
</g>
<!-- Node2&#45;&gt;Node3 -->
<g id="edge2" class="edge">
<title>Node2&#45;&gt;Node3</title>
<path fill="none" stroke="midnightblue" d="M527.89,-448.43C548.76,-410.47 626.39,-255.38 555.03,-168 534.81,-143.24 499.92,-132.1 471.98,-127.09"/>
<polygon fill="midnightblue" stroke="midnightblue" points="472.46,-123.62 462.04,-125.5 471.36,-130.53 472.46,-123.62"/>
</g>
<!-- Node8 -->
<g id="node8" class="node">
<title>Node8</title>
<g id="a_node8"><a xlink:href="_device_8hpp.html" target="_top" xlink:title=" ">
<polygon fill="none" stroke="black" points="409.03,-392.5 409.03,-411.5 475.03,-411.5 475.03,-392.5 409.03,-392.5"/>
<text text-anchor="middle" x="442.03" y="-399.5" font-family="Helvetica,sans-Serif" font-size="10.00">Device.hpp</text>
</a>
</g>
</g>
<!-- Node2&#45;&gt;Node8 -->
<g id="edge7" class="edge">
<title>Node2&#45;&gt;Node8</title>
<path fill="none" stroke="midnightblue" d="M510.01,-448.32C497.49,-439.98 478.34,-427.21 463.55,-417.35"/>
<polygon fill="midnightblue" stroke="midnightblue" points="465.27,-414.29 455.01,-411.65 461.39,-420.11 465.27,-414.29"/>
</g>
<!-- Node10 -->
<g id="node10" class="node">
<title>Node10</title>
<g id="a_node10"><a xlink:title=" ">
<polygon fill="none" stroke="#bfbfbf" points="432.53,-168.5 432.53,-187.5 527.53,-187.5 527.53,-168.5 432.53,-168.5"/>
<text text-anchor="middle" x="480.03" y="-175.5" font-family="Helvetica,sans-Serif" font-size="10.00">vulkan/vulkan.hpp</text>
</a>
</g>
</g>
<!-- Node2&#45;&gt;Node10 -->
<g id="edge33" class="edge">
<title>Node2&#45;&gt;Node10</title>
<path fill="none" stroke="midnightblue" d="M522.29,-448.47C519.57,-417.88 509.31,-310.85 492.03,-224 490.27,-215.17 487.77,-205.5 485.51,-197.4"/>
<polygon fill="midnightblue" stroke="midnightblue" points="488.8,-196.18 482.66,-187.55 482.07,-198.13 488.8,-196.18"/>
</g>
<!-- Node4 -->
<g id="node4" class="node">
<title>Node4</title>
<g id="a_node4"><a xlink:title=" ">
<polygon fill="none" stroke="#bfbfbf" points="230.03,-56.5 230.03,-75.5 274.03,-75.5 274.03,-56.5 230.03,-56.5"/>
<text text-anchor="middle" x="252.03" y="-63.5" font-family="Helvetica,sans-Serif" font-size="10.00">vector</text>
</a>
</g>
</g>
<!-- Node3&#45;&gt;Node4 -->
<g id="edge3" class="edge">
<title>Node3&#45;&gt;Node4</title>
<path fill="none" stroke="midnightblue" d="M400.98,-112.44C369.09,-102.71 317.14,-86.86 283.78,-76.69"/>
<polygon fill="midnightblue" stroke="midnightblue" points="284.66,-73.3 274.07,-73.73 282.61,-79.99 284.66,-73.3"/>
</g>
<!-- Node5 -->
<g id="node5" class="node">
<title>Node5</title>
<g id="a_node5"><a xlink:title=" ">
<polygon fill="none" stroke="#bfbfbf" points="437.53,-56.5 437.53,-75.5 496.53,-75.5 496.53,-56.5 437.53,-56.5"/>
<text text-anchor="middle" x="467.03" y="-63.5" font-family="Helvetica,sans-Serif" font-size="10.00">functional</text>
</a>
</g>
</g>
<!-- Node3&#45;&gt;Node5 -->
<g id="edge4" class="edge">
<title>Node3&#45;&gt;Node5</title>
<path fill="none" stroke="midnightblue" d="M435.3,-112.08C440.67,-104.46 448.54,-93.26 455.1,-83.94"/>
<polygon fill="midnightblue" stroke="midnightblue" points="457.97,-85.94 460.87,-75.75 452.25,-81.91 457.97,-85.94"/>
</g>
<!-- Node6 -->
<g id="node6" class="node">
<title>Node6</title>
<g id="a_node6"><a xlink:href="_identifiable_8hpp.html" target="_top" xlink:title=" ">
<polygon fill="none" stroke="black" points="315.03,-56.5 315.03,-75.5 419.03,-75.5 419.03,-56.5 315.03,-56.5"/>
<text text-anchor="middle" x="367.03" y="-63.5" font-family="Helvetica,sans-Serif" font-size="10.00">york/Identifiable.hpp</text>
</a>
</g>
</g>
<!-- Node3&#45;&gt;Node6 -->
<g id="edge5" class="edge">
<title>Node3&#45;&gt;Node6</title>
<path fill="none" stroke="midnightblue" d="M419.06,-112.32C409.9,-104.34 396.09,-92.31 385,-82.65"/>
<polygon fill="midnightblue" stroke="midnightblue" points="387.01,-79.76 377.17,-75.83 382.41,-85.04 387.01,-79.76"/>
</g>
<!-- Node7 -->
<g id="node7" class="node">
<title>Node7</title>
<g id="a_node7"><a xlink:title=" ">
<polygon fill="none" stroke="#bfbfbf" points="344.03,-0.5 344.03,-19.5 390.03,-19.5 390.03,-0.5 344.03,-0.5"/>
<text text-anchor="middle" x="367.03" y="-7.5" font-family="Helvetica,sans-Serif" font-size="10.00">cstdint</text>
</a>
</g>
</g>
<!-- Node6&#45;&gt;Node7 -->
<g id="edge6" class="edge">
<title>Node6&#45;&gt;Node7</title>
<path fill="none" stroke="midnightblue" d="M367.03,-56.08C367.03,-49.01 367.03,-38.86 367.03,-29.99"/>
<polygon fill="midnightblue" stroke="midnightblue" points="370.53,-29.75 367.03,-19.75 363.53,-29.75 370.53,-29.75"/>
</g>
<!-- Node8&#45;&gt;Node3 -->
<g id="edge10" class="edge">
<title>Node8&#45;&gt;Node3</title>
<path fill="none" stroke="midnightblue" d="M451.18,-392.36C483.82,-360.49 589.85,-247.24 537.03,-168 522.53,-146.26 495.34,-135.01 471.87,-129.19"/>
<polygon fill="midnightblue" stroke="midnightblue" points="472.6,-125.77 462.08,-127.01 471.08,-132.6 472.6,-125.77"/>
</g>
<!-- Node9 -->
<g id="node9" class="node">
<title>Node9</title>
<g id="a_node9"><a xlink:title=" ">
<polygon fill="none" stroke="#bfbfbf" points="412.03,-336.5 412.03,-355.5 452.03,-355.5 452.03,-336.5 412.03,-336.5"/>
<text text-anchor="middle" x="432.03" y="-343.5" font-family="Helvetica,sans-Serif" font-size="10.00">utility</text>
</a>
</g>
</g>
<!-- Node8&#45;&gt;Node9 -->
<g id="edge8" class="edge">
<title>Node8&#45;&gt;Node9</title>
<path fill="none" stroke="midnightblue" d="M440.37,-392.08C439.05,-384.93 437.14,-374.64 435.49,-365.69"/>
<polygon fill="midnightblue" stroke="midnightblue" points="438.91,-364.95 433.65,-355.75 432.03,-366.22 438.91,-364.95"/>
</g>
<!-- Node8&#45;&gt;Node10 -->
<g id="edge9" class="edge">
<title>Node8&#45;&gt;Node10</title>
<path fill="none" stroke="midnightblue" d="M446.6,-392.3C451.05,-383.43 457.63,-369.14 461.03,-356 475.58,-299.77 479,-230.72 479.8,-197.97"/>
<polygon fill="midnightblue" stroke="midnightblue" points="483.3,-197.69 479.99,-187.63 476.3,-197.57 483.3,-197.69"/>
</g>
<!-- Node11 -->
<g id="node11" class="node">
<title>Node11</title>
<g id="a_node11"><a xlink:href="_instance_8hpp.html" target="_top" xlink:title=" ">
<polygon fill="none" stroke="black" points="150.53,-224.5 150.53,-243.5 223.53,-243.5 223.53,-224.5 150.53,-224.5"/>
<text text-anchor="middle" x="187.03" y="-231.5" font-family="Helvetica,sans-Serif" font-size="10.00">Instance.hpp</text>
</a>
</g>
</g>
<!-- Node8&#45;&gt;Node11 -->
<g id="edge11" class="edge">
<title>Node8&#45;&gt;Node11</title>
<path fill="none" stroke="midnightblue" d="M408.75,-399.49C371.16,-396.29 309.69,-386.4 267.03,-356 229.73,-329.42 205.05,-279.54 193.88,-252.88"/>
<polygon fill="midnightblue" stroke="midnightblue" points="197.13,-251.57 190.15,-243.6 190.64,-254.18 197.13,-251.57"/>
</g>
<!-- Node13 -->
<g id="node13" class="node">
<title>Node13</title>
<g id="a_node13"><a xlink:href="_requestable_item_8hpp.html" target="_top" xlink:title=" ">
<polygon fill="none" stroke="black" points="67.03,-168.5 67.03,-187.5 177.03,-187.5 177.03,-168.5 67.03,-168.5"/>
<text text-anchor="middle" x="122.03" y="-175.5" font-family="Helvetica,sans-Serif" font-size="10.00">RequestableItem.hpp</text>
</a>
</g>
</g>
<!-- Node8&#45;&gt;Node13 -->
<g id="edge31" class="edge">
<title>Node8&#45;&gt;Node13</title>
<path fill="none" stroke="midnightblue" d="M408.94,-399.07C367.63,-395.46 295.84,-385.17 242.03,-356 179.3,-322 157.27,-308.62 127.03,-244 120.28,-229.58 119.44,-211.39 120.05,-197.92"/>
<polygon fill="midnightblue" stroke="midnightblue" points="123.54,-198.14 120.8,-187.91 116.56,-197.61 123.54,-198.14"/>
</g>
<!-- Node16 -->
<g id="node16" class="node">
<title>Node16</title>
<g id="a_node16"><a xlink:href="_physical_device_8hpp.html" target="_top" xlink:title=" ">
<polygon fill="none" stroke="black" points="290.03,-336.5 290.03,-355.5 394.03,-355.5 394.03,-336.5 290.03,-336.5"/>
<text text-anchor="middle" x="342.03" y="-343.5" font-family="Helvetica,sans-Serif" font-size="10.00">PhysicalDevice.hpp</text>
</a>
</g>
</g>
<!-- Node8&#45;&gt;Node16 -->
<g id="edge22" class="edge">
<title>Node8&#45;&gt;Node16</title>
<path fill="none" stroke="midnightblue" d="M425.96,-392.32C410.07,-383.74 385.52,-370.49 367.07,-360.52"/>
<polygon fill="midnightblue" stroke="midnightblue" points="368.51,-357.33 358.05,-355.65 365.19,-363.49 368.51,-357.33"/>
</g>
<!-- Node18 -->
<g id="node18" class="node">
<title>Node18</title>
<g id="a_node18"><a xlink:href="_surface_8hpp.html" target="_top" xlink:title=" ">
<polygon fill="none" stroke="black" points="238.53,-280.5 238.53,-299.5 307.53,-299.5 307.53,-280.5 238.53,-280.5"/>
<text text-anchor="middle" x="273.03" y="-287.5" font-family="Helvetica,sans-Serif" font-size="10.00">Surface.hpp</text>
</a>
</g>
</g>
<!-- Node8&#45;&gt;Node18 -->
<g id="edge32" class="edge">
<title>Node8&#45;&gt;Node18</title>
<path fill="none" stroke="midnightblue" d="M408.97,-401.8C371.87,-400.75 312.73,-392.85 281.03,-356 270.26,-343.49 269.13,-324.26 270.17,-309.96"/>
<polygon fill="midnightblue" stroke="midnightblue" points="273.68,-310.1 271.33,-299.77 266.73,-309.31 273.68,-310.1"/>
</g>
<!-- Node11&#45;&gt;Node3 -->
<g id="edge15" class="edge">
<title>Node11&#45;&gt;Node3</title>
<path fill="none" stroke="midnightblue" d="M223.82,-225.03C254.27,-217.66 298.19,-205.25 334.03,-188 362.65,-174.22 392.36,-152.49 410.77,-137.99"/>
<polygon fill="midnightblue" stroke="midnightblue" points="413.23,-140.51 418.84,-131.53 408.85,-135.05 413.23,-140.51"/>
</g>
<!-- Node11&#45;&gt;Node4 -->
<g id="edge13" class="edge">
<title>Node11&#45;&gt;Node4</title>
<path fill="none" stroke="midnightblue" d="M189.02,-224.23C193.8,-203.94 206.88,-152.37 225.03,-112 229.32,-102.44 235.21,-92.39 240.38,-84.22"/>
<polygon fill="midnightblue" stroke="midnightblue" points="243.46,-85.91 246,-75.63 237.6,-82.08 243.46,-85.91"/>
</g>
<!-- Node11&#45;&gt;Node10 -->
<g id="edge14" class="edge">
<title>Node11&#45;&gt;Node10</title>
<path fill="none" stroke="midnightblue" d="M223.54,-226.27C273.86,-217 364.98,-200.2 423.97,-189.33"/>
<polygon fill="midnightblue" stroke="midnightblue" points="424.67,-192.76 433.87,-187.51 423.4,-185.88 424.67,-192.76"/>
</g>
<!-- Node12 -->
<g id="node12" class="node">
<title>Node12</title>
<g id="a_node12"><a xlink:title=" ">
<polygon fill="none" stroke="#bfbfbf" points="101.53,-112.5 101.53,-131.5 142.53,-131.5 142.53,-112.5 101.53,-112.5"/>
<text text-anchor="middle" x="122.03" y="-119.5" font-family="Helvetica,sans-Serif" font-size="10.00">string</text>
</a>
</g>
</g>
<!-- Node11&#45;&gt;Node12 -->
<g id="edge12" class="edge">
<title>Node11&#45;&gt;Node12</title>
<path fill="none" stroke="midnightblue" d="M150.49,-231.27C120.19,-227.68 78.83,-217.3 58.03,-188 43.92,-168.14 69.87,-148.68 92.83,-136.31"/>
<polygon fill="midnightblue" stroke="midnightblue" points="94.72,-139.28 102.04,-131.62 91.54,-133.04 94.72,-139.28"/>
</g>
<!-- Node11&#45;&gt;Node13 -->
<g id="edge16" class="edge">
<title>Node11&#45;&gt;Node13</title>
<path fill="none" stroke="midnightblue" d="M176.58,-224.32C166.88,-216.26 152.21,-204.08 140.53,-194.37"/>
<polygon fill="midnightblue" stroke="midnightblue" points="142.59,-191.53 132.66,-187.83 138.11,-196.92 142.59,-191.53"/>
</g>
<!-- Node14 -->
<g id="node14" class="node">
<title>Node14</title>
<g id="a_node14"><a xlink:href="_window_8hpp.html" target="_top" xlink:title=" ">
<polygon fill="none" stroke="black" points="233.53,-168.5 233.53,-187.5 324.53,-187.5 324.53,-168.5 233.53,-168.5"/>
<text text-anchor="middle" x="279.03" y="-175.5" font-family="Helvetica,sans-Serif" font-size="10.00">york/Window.hpp</text>
</a>
</g>
</g>
<!-- Node11&#45;&gt;Node14 -->
<g id="edge18" class="edge">
<title>Node11&#45;&gt;Node14</title>
<path fill="none" stroke="midnightblue" d="M201.81,-224.32C216.29,-215.82 238.6,-202.73 255.52,-192.8"/>
<polygon fill="midnightblue" stroke="midnightblue" points="257.43,-195.74 264.28,-187.65 253.89,-189.7 257.43,-195.74"/>
</g>
<!-- Node13&#45;&gt;Node12 -->
<g id="edge17" class="edge">
<title>Node13&#45;&gt;Node12</title>
<path fill="none" stroke="midnightblue" d="M122.03,-168.08C122.03,-161.01 122.03,-150.86 122.03,-141.99"/>
<polygon fill="midnightblue" stroke="midnightblue" points="125.53,-141.75 122.03,-131.75 118.53,-141.75 125.53,-141.75"/>
</g>
<!-- Node14&#45;&gt;Node3 -->
<g id="edge21" class="edge">
<title>Node14&#45;&gt;Node3</title>
<path fill="none" stroke="midnightblue" d="M302.79,-168.44C327.92,-159.4 367.74,-145.06 395.93,-134.92"/>
<polygon fill="midnightblue" stroke="midnightblue" points="397.15,-138.2 405.37,-131.52 394.77,-131.61 397.15,-138.2"/>
</g>
<!-- Node14&#45;&gt;Node12 -->
<g id="edge19" class="edge">
<title>Node14&#45;&gt;Node12</title>
<path fill="none" stroke="midnightblue" d="M254.15,-168.44C226.61,-158.97 182.22,-143.7 152.59,-133.51"/>
<polygon fill="midnightblue" stroke="midnightblue" points="153.37,-130.08 142.78,-130.14 151.09,-136.7 153.37,-130.08"/>
</g>
<!-- Node15 -->
<g id="node15" class="node">
<title>Node15</title>
<g id="a_node15"><a xlink:title=" ">
<polygon fill="none" stroke="#bfbfbf" points="233.53,-112.5 233.53,-131.5 334.53,-131.5 334.53,-112.5 233.53,-112.5"/>
<text text-anchor="middle" x="284.03" y="-119.5" font-family="Helvetica,sans-Serif" font-size="10.00">SDL2/SDL_video.h</text>
</a>
</g>
</g>
<!-- Node14&#45;&gt;Node15 -->
<g id="edge20" class="edge">
<title>Node14&#45;&gt;Node15</title>
<path fill="none" stroke="midnightblue" d="M279.85,-168.08C280.51,-161.01 281.45,-150.86 282.27,-141.99"/>
<polygon fill="midnightblue" stroke="midnightblue" points="285.78,-142.03 283.22,-131.75 278.81,-141.39 285.78,-142.03"/>
</g>
<!-- Node16&#45;&gt;Node10 -->
<g id="edge24" class="edge">
<title>Node16&#45;&gt;Node10</title>
<path fill="none" stroke="midnightblue" d="M348.51,-336.49C358.08,-323.98 376.63,-299.94 393.03,-280 418.11,-249.5 448.4,-214.79 465.82,-195.03"/>
<polygon fill="midnightblue" stroke="midnightblue" points="468.44,-197.34 472.44,-187.53 463.2,-192.71 468.44,-197.34"/>
</g>
<!-- Node16&#45;&gt;Node13 -->
<g id="edge30" class="edge">
<title>Node16&#45;&gt;Node13</title>
<path fill="none" stroke="midnightblue" d="M302.76,-336.4C256.54,-324.14 181.03,-296.98 141.03,-244 130.85,-230.53 126.11,-211.71 123.91,-197.79"/>
<polygon fill="midnightblue" stroke="midnightblue" points="127.38,-197.35 122.64,-187.87 120.44,-198.24 127.38,-197.35"/>
</g>
<!-- Node17 -->
<g id="node17" class="node">
<title>Node17</title>
<g id="a_node17"><a xlink:title=" ">
<polygon fill="none" stroke="#bfbfbf" points="402.03,-280.5 402.03,-299.5 452.03,-299.5 452.03,-280.5 402.03,-280.5"/>
<text text-anchor="middle" x="427.03" y="-287.5" font-family="Helvetica,sans-Serif" font-size="10.00">optional</text>
</a>
</g>
</g>
<!-- Node16&#45;&gt;Node17 -->
<g id="edge23" class="edge">
<title>Node16&#45;&gt;Node17</title>
<path fill="none" stroke="midnightblue" d="M355.68,-336.32C368.94,-327.9 389.29,-314.97 404.87,-305.07"/>
<polygon fill="midnightblue" stroke="midnightblue" points="406.84,-307.97 413.4,-299.65 403.09,-302.06 406.84,-307.97"/>
</g>
<!-- Node16&#45;&gt;Node18 -->
<g id="edge25" class="edge">
<title>Node16&#45;&gt;Node18</title>
<path fill="none" stroke="midnightblue" d="M330.94,-336.32C320.54,-328.18 304.77,-315.84 292.3,-306.09"/>
<polygon fill="midnightblue" stroke="midnightblue" points="294.35,-303.24 284.31,-299.83 290.03,-308.75 294.35,-303.24"/>
</g>
<!-- Node18&#45;&gt;Node3 -->
<g id="edge28" class="edge">
<title>Node18&#45;&gt;Node3</title>
<path fill="none" stroke="midnightblue" d="M281.41,-280.08C306.61,-253.27 381.86,-173.19 414.1,-138.89"/>
<polygon fill="midnightblue" stroke="midnightblue" points="416.68,-141.25 420.97,-131.57 411.58,-136.46 416.68,-141.25"/>
</g>
<!-- Node18&#45;&gt;Node10 -->
<g id="edge26" class="edge">
<title>Node18&#45;&gt;Node10</title>
<path fill="none" stroke="midnightblue" d="M288.06,-280.37C310.22,-267.72 353.03,-243.51 390.03,-224 411.02,-212.93 435.07,-200.94 453.03,-192.12"/>
<polygon fill="midnightblue" stroke="midnightblue" points="454.88,-195.11 462.32,-187.57 451.8,-188.82 454.88,-195.11"/>
</g>
<!-- Node18&#45;&gt;Node11 -->
<g id="edge29" class="edge">
<title>Node18&#45;&gt;Node11</title>
<path fill="none" stroke="midnightblue" d="M259.21,-280.32C245.79,-271.9 225.2,-258.97 209.44,-249.07"/>
<polygon fill="midnightblue" stroke="midnightblue" points="211.14,-246.01 200.81,-243.65 207.42,-251.94 211.14,-246.01"/>
</g>
<!-- Node18&#45;&gt;Node14 -->
<g id="edge27" class="edge">
<title>Node18&#45;&gt;Node14</title>
<path fill="none" stroke="midnightblue" d="M273.38,-280.17C273.89,-267.66 274.89,-244.08 276.03,-224 276.51,-215.39 277.13,-205.86 277.69,-197.8"/>
<polygon fill="midnightblue" stroke="midnightblue" points="281.19,-197.84 278.4,-187.62 274.21,-197.35 281.19,-197.84"/>
</g>
<!-- Node19&#45;&gt;Node3 -->
<g id="edge36" class="edge">
<title>Node19&#45;&gt;Node3</title>
<path fill="none" stroke="midnightblue" d="M73.46,-448.27C62.47,-430.15 39.03,-386.83 39.03,-347 39.03,-347 39.03,-347 39.03,-233 39.03,-202.9 35.07,-187.47 58.03,-168 64.24,-162.73 289.25,-138.01 385.77,-127.62"/>
<polygon fill="midnightblue" stroke="midnightblue" points="386.22,-131.09 395.79,-126.54 385.47,-124.13 386.22,-131.09"/>
</g>
<!-- Node19&#45;&gt;Node8 -->
<g id="edge37" class="edge">
<title>Node19&#45;&gt;Node8</title>
<path fill="none" stroke="midnightblue" d="M129.12,-449.55C200.71,-438.9 331.1,-419.5 398.74,-409.44"/>
<polygon fill="midnightblue" stroke="midnightblue" points="399.26,-412.9 408.64,-407.97 398.23,-405.98 399.26,-412.9"/>
</g>
<!-- Node19&#45;&gt;Node10 -->
<g id="edge35" class="edge">
<title>Node19&#45;&gt;Node10</title>
<path fill="none" stroke="midnightblue" d="M81.01,-448.37C86.28,-427.03 102.47,-370.93 134.03,-336 212.53,-249.1 348.54,-207.22 424.55,-189.72"/>
<polygon fill="midnightblue" stroke="midnightblue" points="425.43,-193.11 434.42,-187.5 423.9,-186.28 425.43,-193.11"/>
</g>
<!-- Node20&#45;&gt;Node3 -->
<g id="edge40" class="edge">
<title>Node20&#45;&gt;Node3</title>
<path fill="none" stroke="midnightblue" d="M801.26,-448.3C807.81,-429.89 822.03,-385.51 822.03,-347 822.03,-347 822.03,-347 822.03,-233 822.03,-160.99 574.25,-133.98 472.18,-125.91"/>
<polygon fill="midnightblue" stroke="midnightblue" points="472.43,-122.42 462.19,-125.15 471.9,-129.4 472.43,-122.42"/>
</g>
<!-- Node20&#45;&gt;Node8 -->
<g id="edge41" class="edge">
<title>Node20&#45;&gt;Node8</title>
<path fill="none" stroke="midnightblue" d="M766.75,-452.26C703.03,-442.59 558.09,-420.61 485.36,-409.57"/>
<polygon fill="midnightblue" stroke="midnightblue" points="485.58,-406.07 475.17,-408.03 484.53,-412.99 485.58,-406.07"/>
</g>
<!-- Node20&#45;&gt;Node10 -->
<g id="edge39" class="edge">
<title>Node20&#45;&gt;Node10</title>
<path fill="none" stroke="midnightblue" d="M796.52,-448.11C790.12,-413.3 761.9,-285.25 684.03,-224 661.64,-206.4 589.96,-193.46 537.88,-186.08"/>
<polygon fill="midnightblue" stroke="midnightblue" points="538.13,-182.59 527.75,-184.68 537.18,-189.52 538.13,-182.59"/>
</g>
<!-- Node21&#45;&gt;Node3 -->
<g id="edge43" class="edge">
<title>Node21&#45;&gt;Node3</title>
<path fill="none" stroke="midnightblue" d="M712.64,-623.09C779.08,-617.59 898.03,-596.38 898.03,-515 898.03,-515 898.03,-515 898.03,-233 898.03,-146.12 589.11,-127.81 472.7,-123.99"/>
<polygon fill="midnightblue" stroke="midnightblue" points="472.48,-120.48 462.38,-123.67 472.27,-127.48 472.48,-120.48"/>
</g>
<!-- Node21&#45;&gt;Node10 -->
<g id="edge56" class="edge">
<title>Node21&#45;&gt;Node10</title>
<path fill="none" stroke="midnightblue" d="M674.9,-616.23C691.36,-590.57 735.76,-513.29 720.03,-448 693.2,-336.74 683.51,-294.07 593.03,-224 573.12,-208.58 547.24,-197.77 525.27,-190.61"/>
<polygon fill="midnightblue" stroke="midnightblue" points="526.08,-187.19 515.49,-187.57 524,-193.88 526.08,-187.19"/>
</g>
<!-- Node22 -->
<g id="node22" class="node">
<title>Node22</title>
<g id="a_node22"><a xlink:href="_render_pass_8hpp.html" target="_top" xlink:title=" ">
<polygon fill="none" stroke="black" points="551.53,-560.5 551.53,-579.5 640.53,-579.5 640.53,-560.5 551.53,-560.5"/>
<text text-anchor="middle" x="596.03" y="-567.5" font-family="Helvetica,sans-Serif" font-size="10.00">RenderPass.hpp</text>
</a>
</g>
</g>
<!-- Node21&#45;&gt;Node22 -->
<g id="edge44" class="edge">
<title>Node21&#45;&gt;Node22</title>
<path fill="none" stroke="midnightblue" d="M657.3,-616.32C646.19,-608.11 629.28,-595.6 616.04,-585.81"/>
<polygon fill="midnightblue" stroke="midnightblue" points="618.09,-582.97 607.97,-579.83 613.93,-588.59 618.09,-582.97"/>
</g>
<!-- Node24 -->
<g id="node24" class="node">
<title>Node24</title>
<g id="a_node24"><a xlink:href="_image_view_8hpp.html" target="_top" xlink:title=" ">
<polygon fill="none" stroke="black" points="627.53,-448.5 627.53,-467.5 710.53,-467.5 710.53,-448.5 627.53,-448.5"/>
<text text-anchor="middle" x="669.03" y="-455.5" font-family="Helvetica,sans-Serif" font-size="10.00">ImageView.hpp</text>
</a>
</g>
</g>
<!-- Node21&#45;&gt;Node24 -->
<g id="edge55" class="edge">
<title>Node21&#45;&gt;Node24</title>
<path fill="none" stroke="midnightblue" d="M669.03,-616.08C669.03,-589.95 669.03,-513.21 669.03,-477.58"/>
<polygon fill="midnightblue" stroke="midnightblue" points="672.53,-477.57 669.03,-467.57 665.53,-477.57 672.53,-477.57"/>
</g>
<!-- Node22&#45;&gt;Node3 -->
<g id="edge46" class="edge">
<title>Node22&#45;&gt;Node3</title>
<path fill="none" stroke="midnightblue" d="M640.75,-563.3C696.03,-553.77 788.79,-529.18 838.03,-468 872.29,-425.42 860.03,-401.66 860.03,-347 860.03,-347 860.03,-347 860.03,-233 860.03,-153.51 581.32,-130.73 472.15,-124.86"/>
<polygon fill="midnightblue" stroke="midnightblue" points="472.3,-121.36 462.13,-124.34 471.94,-128.35 472.3,-121.36"/>
</g>
<!-- Node22&#45;&gt;Node10 -->
<g id="edge45" class="edge">
<title>Node22&#45;&gt;Node10</title>
<path fill="none" stroke="midnightblue" d="M594.91,-560.42C592.23,-540.51 584.93,-489.69 575.03,-448 550.97,-346.78 549.22,-319.1 507.03,-224 502.78,-214.42 496.9,-204.37 491.71,-196.2"/>
<polygon fill="midnightblue" stroke="midnightblue" points="494.49,-194.06 486.07,-187.62 488.64,-197.9 494.49,-194.06"/>
</g>
<!-- Node22&#45;&gt;Node23 -->
<g id="edge47" class="edge">
<title>Node22&#45;&gt;Node23</title>
<path fill="none" stroke="midnightblue" d="M572.42,-560.44C547.57,-551.44 508.25,-537.19 480.27,-527.05"/>
<polygon fill="midnightblue" stroke="midnightblue" points="481.12,-523.63 470.52,-523.52 478.73,-530.21 481.12,-523.63"/>
</g>
<!-- Node23&#45;&gt;Node3 -->
<g id="edge50" class="edge">
<title>Node23&#45;&gt;Node3</title>
<path fill="none" stroke="midnightblue" d="M403.81,-511.15C301.17,-506.37 49.1,-492.28 20.03,-468 -3.08,-448.71 1.03,-433.1 1.03,-403 1.03,-403 1.03,-403 1.03,-233 1.03,-199.54 11,-186.29 39.03,-168 42.64,-165.64 284.75,-138.84 385.64,-127.75"/>
<polygon fill="midnightblue" stroke="midnightblue" points="386.25,-131.21 395.8,-126.64 385.48,-124.25 386.25,-131.21"/>
</g>
<!-- Node23&#45;&gt;Node8 -->
<g id="edge49" class="edge">
<title>Node23&#45;&gt;Node8</title>
<path fill="none" stroke="midnightblue" d="M446.63,-504.37C445.83,-486.62 443.97,-445.67 442.87,-421.6"/>
<polygon fill="midnightblue" stroke="midnightblue" points="446.37,-421.42 442.42,-411.59 439.37,-421.74 446.37,-421.42"/>
</g>
<!-- Node23&#45;&gt;Node10 -->
<g id="edge48" class="edge">
<title>Node23&#45;&gt;Node10</title>
<path fill="none" stroke="midnightblue" d="M426.23,-504.35C373.94,-481.22 243.71,-414.35 281.03,-336 290.67,-315.76 411.09,-228.23 459.79,-193.39"/>
<polygon fill="midnightblue" stroke="midnightblue" points="461.9,-196.18 468.01,-187.52 457.83,-190.49 461.9,-196.18"/>
</g>
<!-- Node23&#45;&gt;Node24 -->
<g id="edge51" class="edge">
<title>Node23&#45;&gt;Node24</title>
<path fill="none" stroke="midnightblue" d="M482.2,-504.44C520.6,-495.1 582.2,-480.12 624.08,-469.93"/>
<polygon fill="midnightblue" stroke="midnightblue" points="625.12,-473.28 634.01,-467.52 623.47,-466.48 625.12,-473.28"/>
</g>
<!-- Node24&#45;&gt;Node3 -->
<g id="edge52" class="edge">
<title>Node24&#45;&gt;Node3</title>
<path fill="none" stroke="midnightblue" d="M670.64,-448.13C672.69,-435.58 675.65,-411.95 673.03,-392 658.85,-284.26 657.76,-238.46 575.03,-168 546.18,-143.43 504.07,-132.27 472.47,-127.2"/>
<polygon fill="midnightblue" stroke="midnightblue" points="472.6,-123.69 462.2,-125.71 471.59,-130.61 472.6,-123.69"/>
</g>
<!-- Node24&#45;&gt;Node8 -->
<g id="edge53" class="edge">
<title>Node24&#45;&gt;Node8</title>
<path fill="none" stroke="midnightblue" d="M633.06,-448.44C592.9,-438.89 527.93,-423.43 485.09,-413.24"/>
<polygon fill="midnightblue" stroke="midnightblue" points="485.78,-409.81 475.24,-410.9 484.16,-416.62 485.78,-409.81"/>
</g>
<!-- Node24&#45;&gt;Node10 -->
<g id="edge54" class="edge">
<title>Node24&#45;&gt;Node10</title>
<path fill="none" stroke="midnightblue" d="M668.02,-448.25C663.6,-413.99 642.78,-287.69 570.03,-224 553.95,-209.92 532.68,-199.02 514.86,-191.48"/>
<polygon fill="midnightblue" stroke="midnightblue" points="515.95,-188.14 505.36,-187.63 513.32,-194.63 515.95,-188.14"/>
</g>
</g>
</svg>
