<?xml version="1.0" encoding="UTF-8" standalone="no"?>
<!DOCTYPE svg PUBLIC "-//W3C//DTD SVG 1.1//EN"
 "http://www.w3.org/Graphics/SVG/1.1/DTD/svg11.dtd">
<!-- Generated by graphviz version 2.50.0 (20211204.2007)
 -->
<!-- Title: include/york/Graphics/Handle.hpp Pages: 1 -->
<svg width="962pt" height="698pt"
 viewBox="0.00 0.00 961.50 698.00" xmlns="http://www.w3.org/2000/svg" xmlns:xlink="http://www.w3.org/1999/xlink">
<g id="graph0" class="graph" transform="scale(1 1) rotate(0) translate(4 694)">
<title>include/york/Graphics/Handle.hpp</title>
<!-- Node1 -->
<g id="node1" class="node">
<title>Node1</title>
<g id="a_node1"><a xlink:title="Contains the declarations for the Handle classes which form the basis of our Vulkan implementation.">
<polygon fill="#bfbfbf" stroke="black" points="323,-659.5 323,-689.5 434,-689.5 434,-659.5 323,-659.5"/>
<text text-anchor="start" x="331" y="-677.5" font-family="Helvetica,sans-Serif" font-size="10.00">include/york/Graphics</text>
<text text-anchor="middle" x="378.5" y="-666.5" font-family="Helvetica,sans-Serif" font-size="10.00">/Handle.hpp</text>
</a>
</g>
</g>
<!-- Node2 -->
<g id="node2" class="node">
<title>Node2</title>
<g id="a_node2"><a xlink:href="_command_pool_8hpp.html" target="_top" xlink:title=" ">
<polygon fill="none" stroke="black" points="122,-201.5 122,-231.5 233,-231.5 233,-201.5 122,-201.5"/>
<text text-anchor="start" x="130" y="-219.5" font-family="Helvetica,sans-Serif" font-size="10.00">include/york/Graphics</text>
<text text-anchor="middle" x="177.5" y="-208.5" font-family="Helvetica,sans-Serif" font-size="10.00">/CommandPool.hpp</text>
</a>
</g>
</g>
<!-- Node1&#45;&gt;Node2 -->
<g id="edge1" class="edge">
<title>Node1&#45;&gt;Node2</title>
<path fill="none" stroke="midnightblue" d="M312.87,-673.18C228.72,-668.9 93.5,-647.29 93.5,-552.5 93.5,-552.5 93.5,-552.5 93.5,-416.5 93.5,-341.87 144.26,-263.02 166.86,-231.6"/>
<polygon fill="midnightblue" stroke="midnightblue" points="312.73,-676.67 322.87,-673.62 313.04,-669.68 312.73,-676.67"/>
</g>
<!-- Node5 -->
<g id="node5" class="node">
<title>Node5</title>
<g id="a_node5"><a xlink:href="_device_8hpp.html" target="_top" xlink:title=" ">
<polygon fill="none" stroke="black" points="312,-402.5 312,-432.5 423,-432.5 423,-402.5 312,-402.5"/>
<text text-anchor="start" x="320" y="-420.5" font-family="Helvetica,sans-Serif" font-size="10.00">include/york/Graphics</text>
<text text-anchor="middle" x="367.5" y="-409.5" font-family="Helvetica,sans-Serif" font-size="10.00">/Device.hpp</text>
</a>
</g>
</g>
<!-- Node1&#45;&gt;Node5 -->
<g id="edge5" class="edge">
<title>Node1&#45;&gt;Node5</title>
<path fill="none" stroke="midnightblue" d="M346.01,-653.86C318.77,-635.31 281.79,-604.74 265.5,-567 247.45,-525.18 266.5,-504.13 295.5,-469 307.84,-454.05 325.66,-441.5 340.48,-432.65"/>
<polygon fill="midnightblue" stroke="midnightblue" points="344.2,-656.86 354.47,-659.45 348.06,-651.02 344.2,-656.86"/>
</g>
<!-- Node6 -->
<g id="node6" class="node">
<title>Node6</title>
<g id="a_node6"><a xlink:href="_fence_8hpp.html" target="_top" xlink:title=" ">
<polygon fill="none" stroke="black" points="160,-335.5 160,-365.5 271,-365.5 271,-335.5 160,-335.5"/>
<text text-anchor="start" x="168" y="-353.5" font-family="Helvetica,sans-Serif" font-size="10.00">include/york/Graphics</text>
<text text-anchor="middle" x="215.5" y="-342.5" font-family="Helvetica,sans-Serif" font-size="10.00">/Fence.hpp</text>
</a>
</g>
</g>
<!-- Node1&#45;&gt;Node6 -->
<g id="edge28" class="edge">
<title>Node1&#45;&gt;Node6</title>
<path fill="none" stroke="midnightblue" d="M312.9,-665.79C255.71,-657.83 178.43,-643.63 155.5,-623 130.89,-600.86 131.5,-585.6 131.5,-552.5 131.5,-552.5 131.5,-552.5 131.5,-483.5 131.5,-445.74 134.85,-433.61 155.5,-402 165.11,-387.3 180.27,-374.59 192.94,-365.6"/>
<polygon fill="midnightblue" stroke="midnightblue" points="312.58,-669.28 322.96,-667.16 313.53,-662.35 312.58,-669.28"/>
</g>
<!-- Node7 -->
<g id="node7" class="node">
<title>Node7</title>
<g id="a_node7"><a xlink:href="_image_view_8hpp.html" target="_top" xlink:title=" ">
<polygon fill="none" stroke="black" points="366,-335.5 366,-365.5 477,-365.5 477,-335.5 366,-335.5"/>
<text text-anchor="start" x="374" y="-353.5" font-family="Helvetica,sans-Serif" font-size="10.00">include/york/Graphics</text>
<text text-anchor="middle" x="421.5" y="-342.5" font-family="Helvetica,sans-Serif" font-size="10.00">/ImageView.hpp</text>
</a>
</g>
</g>
<!-- Node1&#45;&gt;Node7 -->
<g id="edge30" class="edge">
<title>Node1&#45;&gt;Node7</title>
<path fill="none" stroke="midnightblue" d="M313.91,-656.18C265.48,-638.82 207.5,-606.71 207.5,-552.5 207.5,-552.5 207.5,-552.5 207.5,-483.5 207.5,-409.07 302.43,-375.23 365.83,-360.93"/>
<polygon fill="midnightblue" stroke="midnightblue" points="312.86,-659.52 323.45,-659.45 315.13,-652.9 312.86,-659.52"/>
</g>
<!-- Node8 -->
<g id="node8" class="node">
<title>Node8</title>
<g id="a_node8"><a xlink:href="_framebuffer_8hpp.html" target="_top" xlink:title=" ">
<polygon fill="none" stroke="black" points="290,-134.5 290,-164.5 401,-164.5 401,-134.5 290,-134.5"/>
<text text-anchor="start" x="298" y="-152.5" font-family="Helvetica,sans-Serif" font-size="10.00">include/york/Graphics</text>
<text text-anchor="middle" x="345.5" y="-141.5" font-family="Helvetica,sans-Serif" font-size="10.00">/Framebuffer.hpp</text>
</a>
</g>
</g>
<!-- Node1&#45;&gt;Node8 -->
<g id="edge29" class="edge">
<title>Node1&#45;&gt;Node8</title>
<path fill="none" stroke="midnightblue" d="M312.74,-663.6C251.47,-650.2 169.5,-619.72 169.5,-552.5 169.5,-552.5 169.5,-552.5 169.5,-483.5 169.5,-440.53 190.81,-432.08 221.5,-402 243.44,-380.5 261.72,-390.31 280.5,-366 329.73,-302.3 341.82,-201.58 344.66,-164.66"/>
<polygon fill="midnightblue" stroke="midnightblue" points="312.26,-667.07 322.77,-665.68 313.69,-660.22 312.26,-667.07"/>
</g>
<!-- Node9 -->
<g id="node9" class="node">
<title>Node9</title>
<g id="a_node9"><a xlink:href="_swap_chain_8hpp.html" target="_top" xlink:title=" ">
<polygon fill="none" stroke="black" points="457,-268.5 457,-298.5 568,-298.5 568,-268.5 457,-268.5"/>
<text text-anchor="start" x="465" y="-286.5" font-family="Helvetica,sans-Serif" font-size="10.00">include/york/Graphics</text>
<text text-anchor="middle" x="512.5" y="-275.5" font-family="Helvetica,sans-Serif" font-size="10.00">/SwapChain.hpp</text>
</a>
</g>
</g>
<!-- Node1&#45;&gt;Node9 -->
<g id="edge41" class="edge">
<title>Node1&#45;&gt;Node9</title>
<path fill="none" stroke="midnightblue" d="M444.37,-671.12C483.33,-666.27 530.89,-653.79 561.5,-623 584.38,-599.98 580.5,-584.95 580.5,-552.5 580.5,-552.5 580.5,-552.5 580.5,-416.5 580.5,-369.07 545.37,-321.63 525.61,-298.69"/>
<polygon fill="midnightblue" stroke="midnightblue" points="443.7,-667.67 434.14,-672.25 444.47,-674.63 443.7,-667.67"/>
</g>
<!-- Node10 -->
<g id="node10" class="node">
<title>Node10</title>
<g id="a_node10"><a xlink:href="_pipeline_8hpp.html" target="_top" xlink:title=" ">
<polygon fill="none" stroke="black" points="643,-134.5 643,-164.5 754,-164.5 754,-134.5 643,-134.5"/>
<text text-anchor="start" x="651" y="-152.5" font-family="Helvetica,sans-Serif" font-size="10.00">include/york/Graphics</text>
<text text-anchor="middle" x="698.5" y="-141.5" font-family="Helvetica,sans-Serif" font-size="10.00">/Pipeline.hpp</text>
</a>
</g>
</g>
<!-- Node1&#45;&gt;Node10 -->
<g id="edge35" class="edge">
<title>Node1&#45;&gt;Node10</title>
<path fill="none" stroke="midnightblue" d="M444.22,-673.38C595.12,-671.32 953.5,-655.59 953.5,-552.5 953.5,-552.5 953.5,-552.5 953.5,-282.5 953.5,-193.39 829.18,-164.37 754.15,-154.96"/>
<polygon fill="midnightblue" stroke="midnightblue" points="444.11,-669.88 434.16,-673.5 444.2,-676.88 444.11,-669.88"/>
</g>
<!-- Node11 -->
<g id="node11" class="node">
<title>Node11</title>
<g id="a_node11"><a xlink:href="_render_pass_8hpp.html" target="_top" xlink:title=" ">
<polygon fill="none" stroke="black" points="601,-201.5 601,-231.5 712,-231.5 712,-201.5 601,-201.5"/>
<text text-anchor="start" x="609" y="-219.5" font-family="Helvetica,sans-Serif" font-size="10.00">include/york/Graphics</text>
<text text-anchor="middle" x="656.5" y="-208.5" font-family="Helvetica,sans-Serif" font-size="10.00">/RenderPass.hpp</text>
</a>
</g>
</g>
<!-- Node1&#45;&gt;Node11 -->
<g id="edge37" class="edge">
<title>Node1&#45;&gt;Node11</title>
<path fill="none" stroke="midnightblue" d="M444.11,-672.51C526.3,-667.39 656.5,-644.72 656.5,-552.5 656.5,-552.5 656.5,-552.5 656.5,-349.5 656.5,-306.65 656.5,-255.97 656.5,-231.76"/>
<polygon fill="midnightblue" stroke="midnightblue" points="443.88,-669.01 434.09,-673.06 444.27,-676 443.88,-669.01"/>
</g>
<!-- Node12 -->
<g id="node12" class="node">
<title>Node12</title>
<g id="a_node12"><a xlink:href="_pipeline_layout_8hpp.html" target="_top" xlink:title=" ">
<polygon fill="none" stroke="black" points="685,-335.5 685,-365.5 796,-365.5 796,-335.5 685,-335.5"/>
<text text-anchor="start" x="693" y="-353.5" font-family="Helvetica,sans-Serif" font-size="10.00">include/york/Graphics</text>
<text text-anchor="middle" x="740.5" y="-342.5" font-family="Helvetica,sans-Serif" font-size="10.00">/PipelineLayout.hpp</text>
</a>
</g>
</g>
<!-- Node1&#45;&gt;Node12 -->
<g id="edge36" class="edge">
<title>Node1&#45;&gt;Node12</title>
<path fill="none" stroke="midnightblue" d="M444.38,-668.16C518.74,-661.1 634.11,-646.69 670.5,-623 702.06,-602.46 717.5,-590.16 717.5,-552.5 717.5,-552.5 717.5,-552.5 717.5,-483.5 717.5,-440 729.77,-389.62 736.39,-365.62"/>
<polygon fill="midnightblue" stroke="midnightblue" points="443.8,-664.7 434.17,-669.11 444.45,-671.67 443.8,-664.7"/>
</g>
<!-- Node13 -->
<g id="node13" class="node">
<title>Node13</title>
<g id="a_node13"><a xlink:href="_semaphore_8hpp.html" target="_top" xlink:title=" ">
<polygon fill="none" stroke="black" points="0,-268.5 0,-298.5 111,-298.5 111,-268.5 0,-268.5"/>
<text text-anchor="start" x="8" y="-286.5" font-family="Helvetica,sans-Serif" font-size="10.00">include/york/Graphics</text>
<text text-anchor="middle" x="55.5" y="-275.5" font-family="Helvetica,sans-Serif" font-size="10.00">/Semaphore.hpp</text>
</a>
</g>
</g>
<!-- Node1&#45;&gt;Node13 -->
<g id="edge38" class="edge">
<title>Node1&#45;&gt;Node13</title>
<path fill="none" stroke="midnightblue" d="M312.61,-670.13C235.43,-664.88 113.75,-652.14 79.5,-623 54.29,-601.55 55.5,-585.6 55.5,-552.5 55.5,-552.5 55.5,-552.5 55.5,-416.5 55.5,-373.65 55.5,-322.97 55.5,-298.76"/>
<polygon fill="midnightblue" stroke="midnightblue" points="312.51,-673.63 322.72,-670.79 312.97,-666.64 312.51,-673.63"/>
</g>
<!-- Node14 -->
<g id="node14" class="node">
<title>Node14</title>
<g id="a_node14"><a xlink:href="_shader_8hpp.html" target="_top" xlink:title=" ">
<polygon fill="none" stroke="black" points="814,-335.5 814,-365.5 925,-365.5 925,-335.5 814,-335.5"/>
<text text-anchor="start" x="822" y="-353.5" font-family="Helvetica,sans-Serif" font-size="10.00">include/york/Graphics</text>
<text text-anchor="middle" x="869.5" y="-342.5" font-family="Helvetica,sans-Serif" font-size="10.00">/Shader.hpp</text>
</a>
</g>
</g>
<!-- Node1&#45;&gt;Node14 -->
<g id="edge39" class="edge">
<title>Node1&#45;&gt;Node14</title>
<path fill="none" stroke="midnightblue" d="M444.64,-668.82C566.14,-658.39 812.5,-627.94 812.5,-552.5 812.5,-552.5 812.5,-552.5 812.5,-483.5 812.5,-437.32 842.27,-388.95 858.78,-365.67"/>
<polygon fill="midnightblue" stroke="midnightblue" points="444.02,-665.36 434.35,-669.68 444.61,-672.33 444.02,-665.36"/>
</g>
<!-- Node15 -->
<g id="node15" class="node">
<title>Node15</title>
<g id="a_node15"><a xlink:href="_instance_8hpp.html" target="_top" xlink:title=" ">
<polygon fill="none" stroke="black" points="274,-536.5 274,-566.5 385,-566.5 385,-536.5 274,-536.5"/>
<text text-anchor="start" x="282" y="-554.5" font-family="Helvetica,sans-Serif" font-size="10.00">include/york/Graphics</text>
<text text-anchor="middle" x="329.5" y="-543.5" font-family="Helvetica,sans-Serif" font-size="10.00">/Instance.hpp</text>
</a>
</g>
</g>
<!-- Node1&#45;&gt;Node15 -->
<g id="edge31" class="edge">
<title>Node1&#45;&gt;Node15</title>
<path fill="none" stroke="midnightblue" d="M368.89,-649.78C358.9,-625.11 343.59,-587.29 335.31,-566.84"/>
<polygon fill="midnightblue" stroke="midnightblue" points="365.69,-651.19 372.69,-659.14 372.18,-648.56 365.69,-651.19"/>
</g>
<!-- Node16 -->
<g id="node16" class="node">
<title>Node16</title>
<g id="a_node16"><a xlink:href="_surface_8hpp.html" target="_top" xlink:title=" ">
<polygon fill="none" stroke="black" points="312,-469.5 312,-499.5 423,-499.5 423,-469.5 312,-469.5"/>
<text text-anchor="start" x="320" y="-487.5" font-family="Helvetica,sans-Serif" font-size="10.00">include/york/Graphics</text>
<text text-anchor="middle" x="367.5" y="-476.5" font-family="Helvetica,sans-Serif" font-size="10.00">/Surface.hpp</text>
</a>
</g>
</g>
<!-- Node1&#45;&gt;Node16 -->
<g id="edge40" class="edge">
<title>Node1&#45;&gt;Node16</title>
<path fill="none" stroke="midnightblue" d="M386.41,-649.61C394.4,-621.91 404.29,-575.07 394.5,-536 391.21,-522.88 383.8,-509.45 377.57,-499.74"/>
<polygon fill="midnightblue" stroke="midnightblue" points="383.04,-648.64 383.48,-659.23 389.74,-650.68 383.04,-648.64"/>
</g>
<!-- Node17 -->
<g id="node17" class="node">
<title>Node17</title>
<g id="a_node17"><a xlink:href="_window_8hpp.html" target="_top" xlink:title=" ">
<polygon fill="none" stroke="black" points="427,-603.5 427,-622.5 552,-622.5 552,-603.5 427,-603.5"/>
<text text-anchor="middle" x="489.5" y="-610.5" font-family="Helvetica,sans-Serif" font-size="10.00">include/york/Window.hpp</text>
</a>
</g>
</g>
<!-- Node1&#45;&gt;Node17 -->
<g id="edge42" class="edge">
<title>Node1&#45;&gt;Node17</title>
<path fill="none" stroke="midnightblue" d="M413.66,-654.65C433.67,-643.93 457.77,-631.01 473.35,-622.66"/>
<polygon fill="midnightblue" stroke="midnightblue" points="411.97,-651.59 404.81,-659.4 415.27,-657.76 411.97,-651.59"/>
</g>
<!-- Node3 -->
<g id="node3" class="node">
<title>Node3</title>
<g id="a_node3"><a xlink:href="_frame_data_8hpp.html" target="_top" xlink:title=" ">
<polygon fill="none" stroke="black" points="206,-67.5 206,-97.5 317,-97.5 317,-67.5 206,-67.5"/>
<text text-anchor="start" x="214" y="-85.5" font-family="Helvetica,sans-Serif" font-size="10.00">include/york/Graphics</text>
<text text-anchor="middle" x="261.5" y="-74.5" font-family="Helvetica,sans-Serif" font-size="10.00">/FrameData.hpp</text>
</a>
</g>
</g>
<!-- Node2&#45;&gt;Node3 -->
<g id="edge2" class="edge">
<title>Node2&#45;&gt;Node3</title>
<path fill="none" stroke="midnightblue" d="M191.92,-192.83C209.34,-165.47 238.09,-120.28 252.58,-97.52"/>
<polygon fill="midnightblue" stroke="midnightblue" points="188.91,-191.06 186.49,-201.37 194.81,-194.82 188.91,-191.06"/>
</g>
<!-- Node4 -->
<g id="node4" class="node">
<title>Node4</title>
<g id="a_node4"><a xlink:href="_renderer_8hpp.html" target="_top" xlink:title=" ">
<polygon fill="none" stroke="black" points="247.5,-0.5 247.5,-30.5 359.5,-30.5 359.5,-0.5 247.5,-0.5"/>
<text text-anchor="start" x="255.5" y="-18.5" font-family="Helvetica,sans-Serif" font-size="10.00">include/york/Renderer</text>
<text text-anchor="middle" x="303.5" y="-7.5" font-family="Helvetica,sans-Serif" font-size="10.00">/Renderer.hpp</text>
</a>
</g>
</g>
<!-- Node2&#45;&gt;Node4 -->
<g id="edge4" class="edge">
<title>Node2&#45;&gt;Node4</title>
<path fill="none" stroke="midnightblue" d="M173.94,-191.05C170.69,-159.32 169.84,-103.67 196.5,-67 209,-49.8 228.88,-38.26 248.13,-30.6"/>
<polygon fill="midnightblue" stroke="midnightblue" points="170.49,-191.69 175.15,-201.21 177.44,-190.86 170.49,-191.69"/>
</g>
<!-- Node3&#45;&gt;Node4 -->
<g id="edge3" class="edge">
<title>Node3&#45;&gt;Node4</title>
<path fill="none" stroke="midnightblue" d="M276.12,-58.87C282.2,-49.46 289.07,-38.83 294.4,-30.58"/>
<polygon fill="midnightblue" stroke="midnightblue" points="273.1,-57.1 270.61,-67.4 278.98,-60.9 273.1,-57.1"/>
</g>
<!-- Node5&#45;&gt;Node2 -->
<g id="edge6" class="edge">
<title>Node5&#45;&gt;Node2</title>
<path fill="none" stroke="midnightblue" d="M346.86,-394.88C307.75,-353.92 223.85,-266.04 191.04,-231.68"/>
<polygon fill="midnightblue" stroke="midnightblue" points="344.4,-397.37 353.84,-402.19 349.46,-392.54 344.4,-397.37"/>
</g>
<!-- Node5&#45;&gt;Node6 -->
<g id="edge7" class="edge">
<title>Node5&#45;&gt;Node6</title>
<path fill="none" stroke="midnightblue" d="M325.19,-398.41C300.92,-388.03 270.91,-375.2 248.42,-365.58"/>
<polygon fill="midnightblue" stroke="midnightblue" points="323.95,-401.68 334.52,-402.4 326.7,-395.25 323.95,-401.68"/>
</g>
<!-- Node5&#45;&gt;Node7 -->
<g id="edge9" class="edge">
<title>Node5&#45;&gt;Node7</title>
<path fill="none" stroke="midnightblue" d="M385.82,-394.45C393.75,-384.9 402.8,-374 409.81,-365.58"/>
<polygon fill="midnightblue" stroke="midnightblue" points="382.92,-392.47 379.22,-402.4 388.3,-396.94 382.92,-392.47"/>
</g>
<!-- Node5&#45;&gt;Node9 -->
<g id="edge27" class="edge">
<title>Node5&#45;&gt;Node9</title>
<path fill="none" stroke="midnightblue" d="M432.75,-400.29C452.24,-392.67 472.21,-381.68 486.5,-366 503.81,-347.01 509.6,-316.47 511.53,-298.66"/>
<polygon fill="midnightblue" stroke="midnightblue" points="431.43,-397.04 423.24,-403.76 433.83,-403.61 431.43,-397.04"/>
</g>
<!-- Node5&#45;&gt;Node12 -->
<g id="edge20" class="edge">
<title>Node5&#45;&gt;Node12</title>
<path fill="none" stroke="midnightblue" d="M433.58,-404.98C505.06,-392.53 617.77,-372.89 684.89,-361.19"/>
<polygon fill="midnightblue" stroke="midnightblue" points="432.59,-401.6 423.34,-406.77 433.79,-408.5 432.59,-401.6"/>
</g>
<!-- Node5&#45;&gt;Node13 -->
<g id="edge22" class="edge">
<title>Node5&#45;&gt;Node13</title>
<path fill="none" stroke="midnightblue" d="M301.82,-409.54C257.26,-402.87 198.04,-390.08 150.5,-366 116.58,-348.82 84.64,-317.04 67.82,-298.65"/>
<polygon fill="midnightblue" stroke="midnightblue" points="301.55,-413.04 311.95,-410.99 302.55,-406.11 301.55,-413.04"/>
</g>
<!-- Node5&#45;&gt;Node14 -->
<g id="edge25" class="edge">
<title>Node5&#45;&gt;Node14</title>
<path fill="none" stroke="midnightblue" d="M433.22,-411.15C519.17,-403.65 674.26,-388.37 805.5,-366 808.2,-365.54 810.95,-365.04 813.72,-364.51"/>
<polygon fill="midnightblue" stroke="midnightblue" points="432.75,-407.68 423.09,-412.03 433.35,-414.65 432.75,-407.68"/>
</g>
<!-- Node6&#45;&gt;Node3 -->
<g id="edge8" class="edge">
<title>Node6&#45;&gt;Node3</title>
<path fill="none" stroke="midnightblue" d="M221.71,-325.65C227.69,-302.01 236.67,-264.7 242.5,-232 251.22,-183.13 257.5,-124.52 260.13,-97.91"/>
<polygon fill="midnightblue" stroke="midnightblue" points="218.28,-324.93 219.19,-335.48 225.06,-326.66 218.28,-324.93"/>
</g>
<!-- Node7&#45;&gt;Node8 -->
<g id="edge10" class="edge">
<title>Node7&#45;&gt;Node8</title>
<path fill="none" stroke="midnightblue" d="M412.45,-325.8C396.49,-284.01 363.82,-198.47 350.92,-164.68"/>
<polygon fill="midnightblue" stroke="midnightblue" points="409.2,-327.1 416.03,-335.19 415.74,-324.6 409.2,-327.1"/>
</g>
<!-- Node7&#45;&gt;Node9 -->
<g id="edge13" class="edge">
<title>Node7&#45;&gt;Node9</title>
<path fill="none" stroke="midnightblue" d="M449.57,-329.45C463.57,-319.45 480.16,-307.6 492.79,-298.58"/>
<polygon fill="midnightblue" stroke="midnightblue" points="447.35,-326.74 441.25,-335.4 451.42,-332.43 447.35,-326.74"/>
</g>
<!-- Node8&#45;&gt;Node3 -->
<g id="edge11" class="edge">
<title>Node8&#45;&gt;Node3</title>
<path fill="none" stroke="midnightblue" d="M319.22,-128.17C306.38,-118.23 291.24,-106.51 279.69,-97.58"/>
<polygon fill="midnightblue" stroke="midnightblue" points="317.22,-131.04 327.27,-134.4 321.51,-125.51 317.22,-131.04"/>
</g>
<!-- Node8&#45;&gt;Node4 -->
<g id="edge12" class="edge">
<title>Node8&#45;&gt;Node4</title>
<path fill="none" stroke="midnightblue" d="M341.22,-124.55C337.97,-108.12 332.95,-85.95 326.5,-67 322.21,-54.41 315.87,-40.72 310.92,-30.78"/>
<polygon fill="midnightblue" stroke="midnightblue" points="337.79,-125.25 343.1,-134.42 344.66,-123.94 337.79,-125.25"/>
</g>
<!-- Node9&#45;&gt;Node3 -->
<g id="edge14" class="edge">
<title>Node9&#45;&gt;Node3</title>
<path fill="none" stroke="midnightblue" d="M502.36,-259.19C487.06,-226.62 455.03,-167.7 410.5,-134 383.28,-113.4 347.11,-100.87 317.23,-93.45"/>
<polygon fill="midnightblue" stroke="midnightblue" points="499.23,-260.76 506.57,-268.4 505.6,-257.85 499.23,-260.76"/>
</g>
<!-- Node9&#45;&gt;Node10 -->
<g id="edge15" class="edge">
<title>Node9&#45;&gt;Node10</title>
<path fill="none" stroke="midnightblue" d="M530.5,-260.25C545.66,-242.56 568.64,-218.02 592.5,-201 613.58,-185.97 639.83,-173.42 660.93,-164.59"/>
<polygon fill="midnightblue" stroke="midnightblue" points="527.47,-258.42 523.72,-268.33 532.83,-262.92 527.47,-258.42"/>
</g>
<!-- Node9&#45;&gt;Node11 -->
<g id="edge17" class="edge">
<title>Node9&#45;&gt;Node11</title>
<path fill="none" stroke="midnightblue" d="M552.89,-264.27C575.82,-253.92 604.1,-241.15 625.32,-231.58"/>
<polygon fill="midnightblue" stroke="midnightblue" points="551.42,-261.09 543.75,-268.4 554.3,-267.47 551.42,-261.09"/>
</g>
<!-- Node10&#45;&gt;Node4 -->
<g id="edge16" class="edge">
<title>Node10&#45;&gt;Node4</title>
<path fill="none" stroke="midnightblue" d="M668.54,-128.77C639.13,-110.25 592.39,-83.05 548.5,-67 485.89,-44.11 410.28,-30.51 359.77,-23.3"/>
<polygon fill="midnightblue" stroke="midnightblue" points="666.78,-131.8 677.1,-134.22 670.54,-125.9 666.78,-131.8"/>
</g>
<!-- Node11&#45;&gt;Node8 -->
<g id="edge18" class="edge">
<title>Node11&#45;&gt;Node8</title>
<path fill="none" stroke="midnightblue" d="M591.03,-201.82C534.72,-190.05 454.39,-173.26 401.14,-162.13"/>
<polygon fill="midnightblue" stroke="midnightblue" points="590.39,-205.26 600.9,-203.88 591.83,-198.41 590.39,-205.26"/>
</g>
<!-- Node11&#45;&gt;Node10 -->
<g id="edge19" class="edge">
<title>Node11&#45;&gt;Node10</title>
<path fill="none" stroke="midnightblue" d="M671.12,-192.87C677.2,-183.46 684.07,-172.83 689.4,-164.58"/>
<polygon fill="midnightblue" stroke="midnightblue" points="668.1,-191.1 665.61,-201.4 673.98,-194.9 668.1,-191.1"/>
</g>
<!-- Node12&#45;&gt;Node10 -->
<g id="edge21" class="edge">
<title>Node12&#45;&gt;Node10</title>
<path fill="none" stroke="midnightblue" d="M739.61,-325C738.02,-295.19 733.61,-243.56 721.5,-201 717.86,-188.21 711.46,-174.54 706.34,-164.65"/>
<polygon fill="midnightblue" stroke="midnightblue" points="736.13,-325.47 740.09,-335.3 743.12,-325.14 736.13,-325.47"/>
</g>
<!-- Node13&#45;&gt;Node3 -->
<g id="edge23" class="edge">
<title>Node13&#45;&gt;Node3</title>
<path fill="none" stroke="midnightblue" d="M69.01,-259.53C79.65,-242.42 95.5,-219.01 112.5,-201 152.87,-158.24 209.38,-117.99 239.9,-97.53"/>
<polygon fill="midnightblue" stroke="midnightblue" points="65.87,-257.95 63.65,-268.31 71.85,-261.6 65.87,-257.95"/>
</g>
<!-- Node13&#45;&gt;Node4 -->
<g id="edge24" class="edge">
<title>Node13&#45;&gt;Node4</title>
<path fill="none" stroke="midnightblue" d="M62.33,-258.86C76.38,-214.49 112.75,-118.58 177.5,-67 198.42,-50.33 225.56,-38.52 249.29,-30.53"/>
<polygon fill="midnightblue" stroke="midnightblue" points="58.97,-257.9 59.38,-268.49 65.66,-259.95 58.97,-257.9"/>
</g>
<!-- Node14&#45;&gt;Node10 -->
<g id="edge26" class="edge">
<title>Node14&#45;&gt;Node10</title>
<path fill="none" stroke="midnightblue" d="M850.48,-327.37C815.1,-286.19 740.09,-198.9 710.69,-164.68"/>
<polygon fill="midnightblue" stroke="midnightblue" points="848.03,-329.88 857.2,-335.19 853.34,-325.32 848.03,-329.88"/>
</g>
<!-- Node15&#45;&gt;Node5 -->
<g id="edge32" class="edge">
<title>Node15&#45;&gt;Node5</title>
<path fill="none" stroke="midnightblue" d="M313.27,-527.91C303.38,-511.17 294.26,-488.06 303.5,-469 311.09,-453.33 326.16,-441.06 339.78,-432.54"/>
<polygon fill="midnightblue" stroke="midnightblue" points="310.41,-529.93 318.74,-536.49 316.32,-526.17 310.41,-529.93"/>
</g>
<!-- Node15&#45;&gt;Node16 -->
<g id="edge33" class="edge">
<title>Node15&#45;&gt;Node16</title>
<path fill="none" stroke="midnightblue" d="M342.9,-527.58C348.36,-518.24 354.49,-507.75 359.27,-499.58"/>
<polygon fill="midnightblue" stroke="midnightblue" points="339.77,-526 337.75,-536.4 345.81,-529.53 339.77,-526"/>
</g>
<!-- Node16&#45;&gt;Node5 -->
<g id="edge34" class="edge">
<title>Node16&#45;&gt;Node5</title>
<path fill="none" stroke="midnightblue" d="M367.5,-459.11C367.5,-450.15 367.5,-440.32 367.5,-432.58"/>
<polygon fill="midnightblue" stroke="midnightblue" points="364,-459.4 367.5,-469.4 371,-459.4 364,-459.4"/>
</g>
<!-- Node17&#45;&gt;Node4 -->
<g id="edge47" class="edge">
<title>Node17&#45;&gt;Node4</title>
<path fill="none" stroke="midnightblue" d="M519.07,-599.01C557.15,-580.03 618.5,-540.88 618.5,-485.5 618.5,-485.5 618.5,-485.5 618.5,-416.5 618.5,-267.86 549.1,-234.4 439.5,-134 397.63,-95.64 346.55,-52.43 320.52,-30.66"/>
<polygon fill="midnightblue" stroke="midnightblue" points="517.44,-595.91 509.94,-603.4 520.47,-602.22 517.44,-595.91"/>
</g>
<!-- Node17&#45;&gt;Node15 -->
<g id="edge43" class="edge">
<title>Node17&#45;&gt;Node15</title>
<path fill="none" stroke="midnightblue" d="M457.17,-599.98C431.15,-590.3 394.55,-576.69 367.21,-566.52"/>
<polygon fill="midnightblue" stroke="midnightblue" points="455.98,-603.27 466.58,-603.48 458.42,-596.71 455.98,-603.27"/>
</g>
<!-- Node17&#45;&gt;Node16 -->
<g id="edge46" class="edge">
<title>Node17&#45;&gt;Node16</title>
<path fill="none" stroke="midnightblue" d="M476.92,-594.78C464.96,-578.85 446.08,-554.86 427.5,-536 414.51,-522.81 398.39,-509.38 386.13,-499.69"/>
<polygon fill="midnightblue" stroke="midnightblue" points="474.34,-597.17 483.11,-603.12 479.97,-593.01 474.34,-597.17"/>
</g>
<!-- Node18 -->
<g id="node18" class="node">
<title>Node18</title>
<g id="a_node18"><a xlink:href="_physical_device_8hpp.html" target="_top" xlink:title=" ">
<polygon fill="none" stroke="black" points="441,-469.5 441,-499.5 552,-499.5 552,-469.5 441,-469.5"/>
<text text-anchor="start" x="449" y="-487.5" font-family="Helvetica,sans-Serif" font-size="10.00">include/york/Graphics</text>
<text text-anchor="middle" x="496.5" y="-476.5" font-family="Helvetica,sans-Serif" font-size="10.00">/PhysicalDevice.hpp</text>
</a>
</g>
</g>
<!-- Node17&#45;&gt;Node18 -->
<g id="edge44" class="edge">
<title>Node17&#45;&gt;Node18</title>
<path fill="none" stroke="midnightblue" d="M490.55,-593.11C491.96,-567.63 494.44,-522.81 495.7,-499.89"/>
<polygon fill="midnightblue" stroke="midnightblue" points="487.04,-593.13 489.98,-603.31 494.03,-593.51 487.04,-593.13"/>
</g>
<!-- Node18&#45;&gt;Node5 -->
<g id="edge45" class="edge">
<title>Node18&#45;&gt;Node5</title>
<path fill="none" stroke="midnightblue" d="M459.49,-464.85C439.1,-454.58 414.19,-442.03 395.44,-432.58"/>
<polygon fill="midnightblue" stroke="midnightblue" points="458,-468.02 468.51,-469.4 461.15,-461.77 458,-468.02"/>
</g>
</g>
</svg>
