<?xml version="1.0" encoding="UTF-8" standalone="no"?>
<!DOCTYPE svg PUBLIC "-//W3C//DTD SVG 1.1//EN"
 "http://www.w3.org/Graphics/SVG/1.1/DTD/svg11.dtd">
<!-- Generated by graphviz version 2.50.0 (20211204.2007)
 -->
<!-- Title: include/york/Identifiable.hpp Pages: 1 -->
<svg width="1166pt" height="754pt"
 viewBox="0.00 0.00 1166.00 754.00" xmlns="http://www.w3.org/2000/svg" xmlns:xlink="http://www.w3.org/1999/xlink">
<g id="graph0" class="graph" transform="scale(1 1) rotate(0) translate(4 750)">
<title>include/york/Identifiable.hpp</title>
<!-- Node1 -->
<g id="node1" class="node">
<title>Node1</title>
<g id="a_node1"><a xlink:title=" ">
<polygon fill="#bfbfbf" stroke="black" points="168,-726.5 168,-745.5 306,-745.5 306,-726.5 168,-726.5"/>
<text text-anchor="middle" x="237" y="-733.5" font-family="Helvetica,sans-Serif" font-size="10.00">include/york/Identifiable.hpp</text>
</a>
</g>
</g>
<!-- Node2 -->
<g id="node2" class="node">
<title>Node2</title>
<g id="a_node2"><a xlink:href="_event_8hpp.html" target="_top" xlink:title=" ">
<polygon fill="none" stroke="black" points="179,-665 179,-684 295,-684 295,-665 179,-665"/>
<text text-anchor="middle" x="237" y="-672" font-family="Helvetica,sans-Serif" font-size="10.00">include/york/Event.hpp</text>
</a>
</g>
</g>
<!-- Node1&#45;&gt;Node2 -->
<g id="edge1" class="edge">
<title>Node1&#45;&gt;Node2</title>
<path fill="none" stroke="midnightblue" d="M237,-716.32C237,-705.5 237,-692.4 237,-684.01"/>
<polygon fill="midnightblue" stroke="midnightblue" points="233.5,-716.48 237,-726.48 240.5,-716.48 233.5,-716.48"/>
</g>
<!-- Node3 -->
<g id="node3" class="node">
<title>Node3</title>
<g id="a_node3"><a xlink:href="_layer_8hpp.html" target="_top" xlink:title=" ">
<polygon fill="none" stroke="black" points="94,-603.5 94,-622.5 208,-622.5 208,-603.5 94,-603.5"/>
<text text-anchor="middle" x="151" y="-610.5" font-family="Helvetica,sans-Serif" font-size="10.00">include/york/Layer.hpp</text>
</a>
</g>
</g>
<!-- Node1&#45;&gt;Node3 -->
<g id="edge54" class="edge">
<title>Node1&#45;&gt;Node3</title>
<path fill="none" stroke="midnightblue" d="M208.08,-721.78C194.64,-714.26 179.55,-703.6 170,-690 155.31,-669.07 151.95,-637.9 151.2,-622.81"/>
<polygon fill="midnightblue" stroke="midnightblue" points="206.55,-724.94 217.03,-726.49 209.81,-718.74 206.55,-724.94"/>
</g>
<!-- Node6 -->
<g id="node6" class="node">
<title>Node6</title>
<g id="a_node6"><a xlink:href="_handle_8hpp.html" target="_top" xlink:title="Contains the declarations for the Handle classes which form the basis of our Vulkan implementation.">
<polygon fill="none" stroke="black" points="577.5,-659.5 577.5,-689.5 688.5,-689.5 688.5,-659.5 577.5,-659.5"/>
<text text-anchor="start" x="585.5" y="-677.5" font-family="Helvetica,sans-Serif" font-size="10.00">include/york/Graphics</text>
<text text-anchor="middle" x="633" y="-666.5" font-family="Helvetica,sans-Serif" font-size="10.00">/Handle.hpp</text>
</a>
</g>
</g>
<!-- Node1&#45;&gt;Node6 -->
<g id="edge6" class="edge">
<title>Node1&#45;&gt;Node6</title>
<path fill="none" stroke="midnightblue" d="M303.79,-724.96C380.65,-713.42 505.49,-694.66 577.33,-683.87"/>
<polygon fill="midnightblue" stroke="midnightblue" points="303.11,-721.53 293.74,-726.48 304.15,-728.45 303.11,-721.53"/>
</g>
<!-- Node2&#45;&gt;Node3 -->
<g id="edge2" class="edge">
<title>Node2&#45;&gt;Node3</title>
<path fill="none" stroke="midnightblue" d="M216.2,-659.11C199.66,-647.67 177.08,-632.05 163.3,-622.51"/>
<polygon fill="midnightblue" stroke="midnightblue" points="214.46,-662.16 224.68,-664.98 218.45,-656.41 214.46,-662.16"/>
</g>
<!-- Node5 -->
<g id="node5" class="node">
<title>Node5</title>
<g id="a_node5"><a xlink:href="_york_8hpp.html" target="_top" xlink:title=" ">
<polygon fill="none" stroke="black" points="158,-542 158,-561 268,-561 268,-542 158,-542"/>
<text text-anchor="middle" x="213" y="-549" font-family="Helvetica,sans-Serif" font-size="10.00">include/york/York.hpp</text>
</a>
</g>
</g>
<!-- Node2&#45;&gt;Node5 -->
<g id="edge5" class="edge">
<title>Node2&#45;&gt;Node5</title>
<path fill="none" stroke="midnightblue" d="M233.3,-654.85C228.03,-628.27 218.57,-580.58 214.71,-561.12"/>
<polygon fill="midnightblue" stroke="midnightblue" points="229.9,-655.67 235.27,-664.8 236.76,-654.31 229.9,-655.67"/>
</g>
<!-- Node4 -->
<g id="node4" class="node">
<title>Node4</title>
<g id="a_node4"><a xlink:href="_layer_stack_8hpp.html" target="_top" xlink:title=" ">
<polygon fill="none" stroke="black" points="0,-542 0,-561 140,-561 140,-542 0,-542"/>
<text text-anchor="middle" x="70" y="-549" font-family="Helvetica,sans-Serif" font-size="10.00">include/york/LayerStack.hpp</text>
</a>
</g>
</g>
<!-- Node3&#45;&gt;Node4 -->
<g id="edge3" class="edge">
<title>Node3&#45;&gt;Node4</title>
<path fill="none" stroke="midnightblue" d="M130.98,-597.29C115.44,-585.88 94.45,-570.46 81.58,-561.01"/>
<polygon fill="midnightblue" stroke="midnightblue" points="129.26,-600.38 139.39,-603.48 133.41,-594.73 129.26,-600.38"/>
</g>
<!-- Node3&#45;&gt;Node5 -->
<g id="edge4" class="edge">
<title>Node3&#45;&gt;Node5</title>
<path fill="none" stroke="midnightblue" d="M167.33,-596.32C179.11,-585.02 194.56,-570.19 204.13,-561.01"/>
<polygon fill="midnightblue" stroke="midnightblue" points="164.67,-594.03 159.88,-603.48 169.52,-599.08 164.67,-594.03"/>
</g>
<!-- Node7 -->
<g id="node7" class="node">
<title>Node7</title>
<g id="a_node7"><a xlink:href="_command_pool_8hpp.html" target="_top" xlink:title=" ">
<polygon fill="none" stroke="black" points="1011.5,-201.5 1011.5,-231.5 1122.5,-231.5 1122.5,-201.5 1011.5,-201.5"/>
<text text-anchor="start" x="1019.5" y="-219.5" font-family="Helvetica,sans-Serif" font-size="10.00">include/york/Graphics</text>
<text text-anchor="middle" x="1067" y="-208.5" font-family="Helvetica,sans-Serif" font-size="10.00">/CommandPool.hpp</text>
</a>
</g>
</g>
<!-- Node6&#45;&gt;Node7 -->
<g id="edge7" class="edge">
<title>Node6&#45;&gt;Node7</title>
<path fill="none" stroke="midnightblue" d="M698.85,-670.19C798.52,-664.37 982.38,-650.26 1042,-623 1084.5,-603.57 1120,-599.23 1120,-552.5 1120,-552.5 1120,-552.5 1120,-349.5 1120,-303.81 1092.32,-255.22 1076.97,-231.79"/>
<polygon fill="midnightblue" stroke="midnightblue" points="698.38,-666.71 688.59,-670.78 698.78,-673.7 698.38,-666.71"/>
</g>
<!-- Node10 -->
<g id="node10" class="node">
<title>Node10</title>
<g id="a_node10"><a xlink:href="_device_8hpp.html" target="_top" xlink:title=" ">
<polygon fill="none" stroke="black" points="737.5,-402.5 737.5,-432.5 848.5,-432.5 848.5,-402.5 737.5,-402.5"/>
<text text-anchor="start" x="745.5" y="-420.5" font-family="Helvetica,sans-Serif" font-size="10.00">include/york/Graphics</text>
<text text-anchor="middle" x="793" y="-409.5" font-family="Helvetica,sans-Serif" font-size="10.00">/Device.hpp</text>
</a>
</g>
</g>
<!-- Node6&#45;&gt;Node10 -->
<g id="edge11" class="edge">
<title>Node6&#45;&gt;Node10</title>
<path fill="none" stroke="midnightblue" d="M641.23,-649.96C658.07,-602.68 696.87,-498.23 721,-469 733.34,-454.05 751.16,-441.5 765.98,-432.65"/>
<polygon fill="midnightblue" stroke="midnightblue" points="637.93,-648.79 637.9,-659.39 644.53,-651.13 637.93,-648.79"/>
</g>
<!-- Node11 -->
<g id="node11" class="node">
<title>Node11</title>
<g id="a_node11"><a xlink:href="_fence_8hpp.html" target="_top" xlink:title=" ">
<polygon fill="none" stroke="black" points="362.5,-335.5 362.5,-365.5 473.5,-365.5 473.5,-335.5 362.5,-335.5"/>
<text text-anchor="start" x="370.5" y="-353.5" font-family="Helvetica,sans-Serif" font-size="10.00">include/york/Graphics</text>
<text text-anchor="middle" x="418" y="-342.5" font-family="Helvetica,sans-Serif" font-size="10.00">/Fence.hpp</text>
</a>
</g>
</g>
<!-- Node6&#45;&gt;Node11 -->
<g id="edge34" class="edge">
<title>Node6&#45;&gt;Node11</title>
<path fill="none" stroke="midnightblue" d="M567.63,-660.57C511.98,-645.31 441,-613.83 441,-552.5 441,-552.5 441,-552.5 441,-483.5 441,-440 428.73,-389.62 422.11,-365.62"/>
<polygon fill="midnightblue" stroke="midnightblue" points="566.91,-664 577.47,-663.15 568.68,-657.23 566.91,-664"/>
</g>
<!-- Node12 -->
<g id="node12" class="node">
<title>Node12</title>
<g id="a_node12"><a xlink:href="_image_view_8hpp.html" target="_top" xlink:title=" ">
<polygon fill="none" stroke="black" points="530.5,-335.5 530.5,-365.5 641.5,-365.5 641.5,-335.5 530.5,-335.5"/>
<text text-anchor="start" x="538.5" y="-353.5" font-family="Helvetica,sans-Serif" font-size="10.00">include/york/Graphics</text>
<text text-anchor="middle" x="586" y="-342.5" font-family="Helvetica,sans-Serif" font-size="10.00">/ImageView.hpp</text>
</a>
</g>
</g>
<!-- Node6&#45;&gt;Node12 -->
<g id="edge36" class="edge">
<title>Node6&#45;&gt;Node12</title>
<path fill="none" stroke="midnightblue" d="M606.94,-652.72C597.72,-644.29 587.94,-633.97 581,-623 563.3,-595.03 557,-585.6 557,-552.5 557,-552.5 557,-552.5 557,-483.5 557,-439.62 572.47,-389.41 580.82,-365.54"/>
<polygon fill="midnightblue" stroke="midnightblue" points="604.64,-655.36 614.47,-659.31 609.26,-650.09 604.64,-655.36"/>
</g>
<!-- Node13 -->
<g id="node13" class="node">
<title>Node13</title>
<g id="a_node13"><a xlink:href="_framebuffer_8hpp.html" target="_top" xlink:title=" ">
<polygon fill="none" stroke="black" points="293.5,-134.5 293.5,-164.5 404.5,-164.5 404.5,-134.5 293.5,-134.5"/>
<text text-anchor="start" x="301.5" y="-152.5" font-family="Helvetica,sans-Serif" font-size="10.00">include/york/Graphics</text>
<text text-anchor="middle" x="349" y="-141.5" font-family="Helvetica,sans-Serif" font-size="10.00">/Framebuffer.hpp</text>
</a>
</g>
</g>
<!-- Node6&#45;&gt;Node13 -->
<g id="edge35" class="edge">
<title>Node6&#45;&gt;Node13</title>
<path fill="none" stroke="midnightblue" d="M567.25,-669.21C514.69,-663.73 440.28,-651.28 381,-623 336.7,-601.87 296,-601.58 296,-552.5 296,-552.5 296,-552.5 296,-282.5 296,-236.81 323.68,-188.22 339.03,-164.79"/>
<polygon fill="midnightblue" stroke="midnightblue" points="567.16,-672.72 577.46,-670.22 567.85,-665.75 567.16,-672.72"/>
</g>
<!-- Node14 -->
<g id="node14" class="node">
<title>Node14</title>
<g id="a_node14"><a xlink:href="_swap_chain_8hpp.html" target="_top" xlink:title=" ">
<polygon fill="none" stroke="black" points="530.5,-268.5 530.5,-298.5 641.5,-298.5 641.5,-268.5 530.5,-268.5"/>
<text text-anchor="start" x="538.5" y="-286.5" font-family="Helvetica,sans-Serif" font-size="10.00">include/york/Graphics</text>
<text text-anchor="middle" x="586" y="-275.5" font-family="Helvetica,sans-Serif" font-size="10.00">/SwapChain.hpp</text>
</a>
</g>
</g>
<!-- Node6&#45;&gt;Node14 -->
<g id="edge47" class="edge">
<title>Node6&#45;&gt;Node14</title>
<path fill="none" stroke="midnightblue" d="M588.84,-654.74C550.81,-635.28 502,-600.88 502,-552.5 502,-552.5 502,-552.5 502,-416.5 502,-379.31 500.94,-366.32 521,-335 530.71,-319.84 546.61,-307.37 560.25,-298.61"/>
<polygon fill="midnightblue" stroke="midnightblue" points="587.72,-658.09 598.24,-659.37 590.81,-651.81 587.72,-658.09"/>
</g>
<!-- Node15 -->
<g id="node15" class="node">
<title>Node15</title>
<g id="a_node15"><a xlink:href="_pipeline_8hpp.html" target="_top" xlink:title=" ">
<polygon fill="none" stroke="black" points="630.5,-134.5 630.5,-164.5 741.5,-164.5 741.5,-134.5 630.5,-134.5"/>
<text text-anchor="start" x="638.5" y="-152.5" font-family="Helvetica,sans-Serif" font-size="10.00">include/york/Graphics</text>
<text text-anchor="middle" x="686" y="-141.5" font-family="Helvetica,sans-Serif" font-size="10.00">/Pipeline.hpp</text>
</a>
</g>
</g>
<!-- Node6&#45;&gt;Node15 -->
<g id="edge41" class="edge">
<title>Node6&#45;&gt;Node15</title>
<path fill="none" stroke="midnightblue" d="M621,-650.13C609.87,-626.25 595,-587.76 595,-552.5 595,-552.5 595,-552.5 595,-483.5 595,-425.65 633.75,-421.22 651,-366 674.01,-292.38 682.55,-199.63 685.09,-164.68"/>
<polygon fill="midnightblue" stroke="midnightblue" points="617.99,-651.94 625.49,-659.42 624.29,-648.9 617.99,-651.94"/>
</g>
<!-- Node16 -->
<g id="node16" class="node">
<title>Node16</title>
<g id="a_node16"><a xlink:href="_render_pass_8hpp.html" target="_top" xlink:title=" ">
<polygon fill="none" stroke="black" points="453.5,-201.5 453.5,-231.5 564.5,-231.5 564.5,-201.5 453.5,-201.5"/>
<text text-anchor="start" x="461.5" y="-219.5" font-family="Helvetica,sans-Serif" font-size="10.00">include/york/Graphics</text>
<text text-anchor="middle" x="509" y="-208.5" font-family="Helvetica,sans-Serif" font-size="10.00">/RenderPass.hpp</text>
</a>
</g>
</g>
<!-- Node6&#45;&gt;Node16 -->
<g id="edge43" class="edge">
<title>Node6&#45;&gt;Node16</title>
<path fill="none" stroke="midnightblue" d="M567.56,-660.72C479.56,-641.64 334,-602.51 334,-552.5 334,-552.5 334,-552.5 334,-416.5 334,-379.31 332.71,-366.17 353,-335 384.73,-286.27 443.96,-250.1 479.6,-231.53"/>
<polygon fill="midnightblue" stroke="midnightblue" points="566.95,-664.17 577.46,-662.84 568.41,-657.33 566.95,-664.17"/>
</g>
<!-- Node17 -->
<g id="node17" class="node">
<title>Node17</title>
<g id="a_node17"><a xlink:href="_pipeline_layout_8hpp.html" target="_top" xlink:title=" ">
<polygon fill="none" stroke="black" points="942.5,-335.5 942.5,-365.5 1053.5,-365.5 1053.5,-335.5 942.5,-335.5"/>
<text text-anchor="start" x="950.5" y="-353.5" font-family="Helvetica,sans-Serif" font-size="10.00">include/york/Graphics</text>
<text text-anchor="middle" x="998" y="-342.5" font-family="Helvetica,sans-Serif" font-size="10.00">/PipelineLayout.hpp</text>
</a>
</g>
</g>
<!-- Node6&#45;&gt;Node17 -->
<g id="edge42" class="edge">
<title>Node6&#45;&gt;Node17</title>
<path fill="none" stroke="midnightblue" d="M698.88,-673.08C796.24,-671.14 972.22,-662.13 1020,-623 1045.61,-602.03 1044,-585.6 1044,-552.5 1044,-552.5 1044,-552.5 1044,-483.5 1044,-438.36 1019.72,-389.13 1006.44,-365.59"/>
<polygon fill="midnightblue" stroke="midnightblue" points="698.78,-669.58 688.85,-673.26 698.91,-676.58 698.78,-669.58"/>
</g>
<!-- Node18 -->
<g id="node18" class="node">
<title>Node18</title>
<g id="a_node18"><a xlink:href="_semaphore_8hpp.html" target="_top" xlink:title=" ">
<polygon fill="none" stroke="black" points="812.5,-268.5 812.5,-298.5 923.5,-298.5 923.5,-268.5 812.5,-268.5"/>
<text text-anchor="start" x="820.5" y="-286.5" font-family="Helvetica,sans-Serif" font-size="10.00">include/york/Graphics</text>
<text text-anchor="middle" x="868" y="-275.5" font-family="Helvetica,sans-Serif" font-size="10.00">/Semaphore.hpp</text>
</a>
</g>
</g>
<!-- Node6&#45;&gt;Node18 -->
<g id="edge44" class="edge">
<title>Node6&#45;&gt;Node18</title>
<path fill="none" stroke="midnightblue" d="M698.53,-669.5C775,-663.63 895.52,-650.29 931,-623 988.73,-578.59 1007.58,-538.86 987,-469 975.91,-431.34 905.61,-334.82 878.58,-298.56"/>
<polygon fill="midnightblue" stroke="midnightblue" points="698.22,-666.01 688.51,-670.25 698.74,-672.99 698.22,-666.01"/>
</g>
<!-- Node19 -->
<g id="node19" class="node">
<title>Node19</title>
<g id="a_node19"><a xlink:href="_shader_8hpp.html" target="_top" xlink:title=" ">
<polygon fill="none" stroke="black" points="698.5,-335.5 698.5,-365.5 809.5,-365.5 809.5,-335.5 698.5,-335.5"/>
<text text-anchor="start" x="706.5" y="-353.5" font-family="Helvetica,sans-Serif" font-size="10.00">include/york/Graphics</text>
<text text-anchor="middle" x="754" y="-342.5" font-family="Helvetica,sans-Serif" font-size="10.00">/Shader.hpp</text>
</a>
</g>
</g>
<!-- Node6&#45;&gt;Node19 -->
<g id="edge45" class="edge">
<title>Node6&#45;&gt;Node19</title>
<path fill="none" stroke="midnightblue" d="M633,-649.19C633,-624.76 633,-586.02 633,-552.5 633,-552.5 633,-552.5 633,-483.5 633,-428.32 691.17,-386.2 726.85,-365.56"/>
<polygon fill="midnightblue" stroke="midnightblue" points="629.5,-649.34 633,-659.34 636.5,-649.34 629.5,-649.34"/>
</g>
<!-- Node20 -->
<g id="node20" class="node">
<title>Node20</title>
<g id="a_node20"><a xlink:href="_instance_8hpp.html" target="_top" xlink:title=" ">
<polygon fill="none" stroke="black" points="699.5,-536.5 699.5,-566.5 810.5,-566.5 810.5,-536.5 699.5,-536.5"/>
<text text-anchor="start" x="707.5" y="-554.5" font-family="Helvetica,sans-Serif" font-size="10.00">include/york/Graphics</text>
<text text-anchor="middle" x="755" y="-543.5" font-family="Helvetica,sans-Serif" font-size="10.00">/Instance.hpp</text>
</a>
</g>
</g>
<!-- Node6&#45;&gt;Node20 -->
<g id="edge37" class="edge">
<title>Node6&#45;&gt;Node20</title>
<path fill="none" stroke="midnightblue" d="M655,-652.3C664.3,-643.31 675.21,-632.68 685,-623 704.62,-603.59 727.06,-580.91 741.13,-566.62"/>
<polygon fill="midnightblue" stroke="midnightblue" points="652.4,-649.96 647.64,-659.42 657.26,-654.99 652.4,-649.96"/>
</g>
<!-- Node21 -->
<g id="node21" class="node">
<title>Node21</title>
<g id="a_node21"><a xlink:href="_surface_8hpp.html" target="_top" xlink:title=" ">
<polygon fill="none" stroke="black" points="866.5,-469.5 866.5,-499.5 977.5,-499.5 977.5,-469.5 866.5,-469.5"/>
<text text-anchor="start" x="874.5" y="-487.5" font-family="Helvetica,sans-Serif" font-size="10.00">include/york/Graphics</text>
<text text-anchor="middle" x="922" y="-476.5" font-family="Helvetica,sans-Serif" font-size="10.00">/Surface.hpp</text>
</a>
</g>
</g>
<!-- Node6&#45;&gt;Node21 -->
<g id="edge46" class="edge">
<title>Node6&#45;&gt;Node21</title>
<path fill="none" stroke="midnightblue" d="M698.73,-670.56C771.83,-665.8 883.3,-653.61 911,-623 942.17,-588.55 932.42,-527.35 925.86,-499.73"/>
<polygon fill="midnightblue" stroke="midnightblue" points="698.45,-667.07 688.68,-671.18 698.88,-674.06 698.45,-667.07"/>
</g>
<!-- Node22 -->
<g id="node22" class="node">
<title>Node22</title>
<g id="a_node22"><a xlink:href="_window_8hpp.html" target="_top" xlink:title=" ">
<polygon fill="none" stroke="black" points="776.5,-603.5 776.5,-622.5 901.5,-622.5 901.5,-603.5 776.5,-603.5"/>
<text text-anchor="middle" x="839" y="-610.5" font-family="Helvetica,sans-Serif" font-size="10.00">include/york/Window.hpp</text>
</a>
</g>
</g>
<!-- Node6&#45;&gt;Node22 -->
<g id="edge48" class="edge">
<title>Node6&#45;&gt;Node22</title>
<path fill="none" stroke="midnightblue" d="M691.62,-656.57C730.15,-645.44 778.92,-631.35 809.55,-622.51"/>
<polygon fill="midnightblue" stroke="midnightblue" points="690.19,-653.34 681.56,-659.47 692.14,-660.06 690.19,-653.34"/>
</g>
<!-- Node8 -->
<g id="node8" class="node">
<title>Node8</title>
<g id="a_node8"><a xlink:href="_frame_data_8hpp.html" target="_top" xlink:title=" ">
<polygon fill="none" stroke="black" points="559.5,-67.5 559.5,-97.5 670.5,-97.5 670.5,-67.5 559.5,-67.5"/>
<text text-anchor="start" x="567.5" y="-85.5" font-family="Helvetica,sans-Serif" font-size="10.00">include/york/Graphics</text>
<text text-anchor="middle" x="615" y="-74.5" font-family="Helvetica,sans-Serif" font-size="10.00">/FrameData.hpp</text>
</a>
</g>
</g>
<!-- Node7&#45;&gt;Node8 -->
<g id="edge8" class="edge">
<title>Node7&#45;&gt;Node8</title>
<path fill="none" stroke="midnightblue" d="M1015.31,-198.21C963.58,-181.12 881.63,-154.62 810,-134 763.29,-120.55 709.81,-106.82 670.69,-97.08"/>
<polygon fill="midnightblue" stroke="midnightblue" points="1014.32,-201.57 1024.92,-201.39 1016.52,-194.92 1014.32,-201.57"/>
</g>
<!-- Node9 -->
<g id="node9" class="node">
<title>Node9</title>
<g id="a_node9"><a xlink:href="_renderer_8hpp.html" target="_top" xlink:title=" ">
<polygon fill="none" stroke="black" points="730,-0.5 730,-30.5 842,-30.5 842,-0.5 730,-0.5"/>
<text text-anchor="start" x="738" y="-18.5" font-family="Helvetica,sans-Serif" font-size="10.00">include/york/Renderer</text>
<text text-anchor="middle" x="786" y="-7.5" font-family="Helvetica,sans-Serif" font-size="10.00">/Renderer.hpp</text>
</a>
</g>
</g>
<!-- Node7&#45;&gt;Node9 -->
<g id="edge10" class="edge">
<title>Node7&#45;&gt;Node9</title>
<path fill="none" stroke="midnightblue" d="M1039.17,-195.43C999.36,-166.77 923.8,-112.54 859,-67 841.35,-54.59 821.17,-40.65 806.51,-30.57"/>
<polygon fill="midnightblue" stroke="midnightblue" points="1037.41,-198.48 1047.57,-201.48 1041.5,-192.8 1037.41,-198.48"/>
</g>
<!-- Node8&#45;&gt;Node9 -->
<g id="edge9" class="edge">
<title>Node8&#45;&gt;Node9</title>
<path fill="none" stroke="midnightblue" d="M661.52,-63.82C689,-53.37 723.33,-40.32 748.97,-30.58"/>
<polygon fill="midnightblue" stroke="midnightblue" points="660.21,-60.57 652.1,-67.4 662.7,-67.11 660.21,-60.57"/>
</g>
<!-- Node10&#45;&gt;Node7 -->
<g id="edge12" class="edge">
<title>Node10&#45;&gt;Node7</title>
<path fill="none" stroke="midnightblue" d="M858.79,-413.42C930.08,-408.56 1037.15,-396.3 1063,-366 1095.81,-327.55 1080.73,-260.93 1071.85,-231.81"/>
<polygon fill="midnightblue" stroke="midnightblue" points="858.3,-409.94 848.55,-414.08 858.75,-416.93 858.3,-409.94"/>
</g>
<!-- Node10&#45;&gt;Node11 -->
<g id="edge13" class="edge">
<title>Node10&#45;&gt;Node11</title>
<path fill="none" stroke="midnightblue" d="M727.41,-405.13C655.53,-392.67 541.45,-372.9 473.74,-361.16"/>
<polygon fill="midnightblue" stroke="midnightblue" points="726.81,-408.58 737.26,-406.84 728.01,-401.68 726.81,-408.58"/>
</g>
<!-- Node10&#45;&gt;Node12 -->
<g id="edge15" class="edge">
<title>Node10&#45;&gt;Node12</title>
<path fill="none" stroke="midnightblue" d="M738.68,-399.44C705.13,-388.91 662.59,-375.55 630.94,-365.61"/>
<polygon fill="midnightblue" stroke="midnightblue" points="737.75,-402.82 748.34,-402.48 739.85,-396.14 737.75,-402.82"/>
</g>
<!-- Node10&#45;&gt;Node14 -->
<g id="edge33" class="edge">
<title>Node10&#45;&gt;Node14</title>
<path fill="none" stroke="midnightblue" d="M810.71,-393.81C822.17,-376.17 832.66,-351.93 819,-335 797.14,-307.9 703.37,-294.61 641.66,-288.68"/>
<polygon fill="midnightblue" stroke="midnightblue" points="807.59,-392.15 804.74,-402.36 813.33,-396.16 807.59,-392.15"/>
</g>
<!-- Node10&#45;&gt;Node17 -->
<g id="edge26" class="edge">
<title>Node10&#45;&gt;Node17</title>
<path fill="none" stroke="midnightblue" d="M846.79,-399.44C880.02,-388.91 922.15,-375.55 953.5,-365.61"/>
<polygon fill="midnightblue" stroke="midnightblue" points="845.7,-396.12 837.23,-402.48 847.82,-402.79 845.7,-396.12"/>
</g>
<!-- Node10&#45;&gt;Node18 -->
<g id="edge28" class="edge">
<title>Node10&#45;&gt;Node18</title>
<path fill="none" stroke="midnightblue" d="M824.15,-396.31C834.5,-388.1 845.14,-377.76 852,-366 864.36,-344.83 867.36,-315.84 867.98,-298.75"/>
<polygon fill="midnightblue" stroke="midnightblue" points="821.88,-393.63 815.97,-402.43 826.08,-399.24 821.88,-393.63"/>
</g>
<!-- Node10&#45;&gt;Node19 -->
<g id="edge31" class="edge">
<title>Node10&#45;&gt;Node19</title>
<path fill="none" stroke="midnightblue" d="M779.25,-393.58C773.64,-384.24 767.35,-373.75 762.45,-365.58"/>
<polygon fill="midnightblue" stroke="midnightblue" points="776.39,-395.62 784.54,-402.4 782.39,-392.02 776.39,-395.62"/>
</g>
<!-- Node11&#45;&gt;Node8 -->
<g id="edge14" class="edge">
<title>Node11&#45;&gt;Node8</title>
<path fill="none" stroke="midnightblue" d="M416.71,-325.1C416.24,-293.86 419.45,-239.21 444,-201 476.71,-150.09 540.13,-115.39 579.87,-97.56"/>
<polygon fill="midnightblue" stroke="midnightblue" points="413.22,-325.21 417.01,-335.11 420.21,-325.01 413.22,-325.21"/>
</g>
<!-- Node12&#45;&gt;Node13 -->
<g id="edge16" class="edge">
<title>Node12&#45;&gt;Node13</title>
<path fill="none" stroke="midnightblue" d="M559.14,-329.13C547.33,-320.05 533.36,-309.13 521,-299 462.41,-251 394.95,-191.47 364.89,-164.7"/>
<polygon fill="midnightblue" stroke="midnightblue" points="557.24,-332.08 567.31,-335.38 561.5,-326.53 557.24,-332.08"/>
</g>
<!-- Node12&#45;&gt;Node14 -->
<g id="edge19" class="edge">
<title>Node12&#45;&gt;Node14</title>
<path fill="none" stroke="midnightblue" d="M586,-325.11C586,-316.15 586,-306.32 586,-298.58"/>
<polygon fill="midnightblue" stroke="midnightblue" points="582.5,-325.4 586,-335.4 589.5,-325.4 582.5,-325.4"/>
</g>
<!-- Node13&#45;&gt;Node8 -->
<g id="edge17" class="edge">
<title>Node13&#45;&gt;Node8</title>
<path fill="none" stroke="midnightblue" d="M414.6,-132.47C459.04,-121.61 517.12,-107.42 559.31,-97.11"/>
<polygon fill="midnightblue" stroke="midnightblue" points="413.65,-129.1 404.76,-134.87 415.31,-135.9 413.65,-129.1"/>
</g>
<!-- Node13&#45;&gt;Node9 -->
<g id="edge18" class="edge">
<title>Node13&#45;&gt;Node9</title>
<path fill="none" stroke="midnightblue" d="M388.18,-130.23C428.16,-112.16 492.35,-84.71 550,-67 610.48,-48.42 681.72,-34.19 729.99,-25.64"/>
<polygon fill="midnightblue" stroke="midnightblue" points="386.7,-127.06 379.05,-134.39 389.6,-133.43 386.7,-127.06"/>
</g>
<!-- Node14&#45;&gt;Node8 -->
<g id="edge20" class="edge">
<title>Node14&#45;&gt;Node8</title>
<path fill="none" stroke="midnightblue" d="M589.53,-258.27C595.65,-216.29 608.03,-131.33 612.93,-97.68"/>
<polygon fill="midnightblue" stroke="midnightblue" points="586.06,-257.79 588.09,-268.19 592.99,-258.8 586.06,-257.79"/>
</g>
<!-- Node14&#45;&gt;Node15 -->
<g id="edge21" class="edge">
<title>Node14&#45;&gt;Node15</title>
<path fill="none" stroke="midnightblue" d="M602.9,-260.19C623.61,-232.86 658.06,-187.38 675.38,-164.52"/>
<polygon fill="midnightblue" stroke="midnightblue" points="599.95,-258.29 596.7,-268.37 605.53,-262.52 599.95,-258.29"/>
</g>
<!-- Node14&#45;&gt;Node16 -->
<g id="edge23" class="edge">
<title>Node14&#45;&gt;Node16</title>
<path fill="none" stroke="midnightblue" d="M561.58,-261.88C549.88,-252.01 536.16,-240.43 525.68,-231.58"/>
<polygon fill="midnightblue" stroke="midnightblue" points="559.39,-264.62 569.29,-268.4 563.91,-259.27 559.39,-264.62"/>
</g>
<!-- Node15&#45;&gt;Node9 -->
<g id="edge22" class="edge">
<title>Node15&#45;&gt;Node9</title>
<path fill="none" stroke="midnightblue" d="M702.9,-126.19C723.61,-98.86 758.06,-53.38 775.38,-30.52"/>
<polygon fill="midnightblue" stroke="midnightblue" points="699.95,-124.29 696.7,-134.37 705.53,-128.52 699.95,-124.29"/>
</g>
<!-- Node16&#45;&gt;Node13 -->
<g id="edge24" class="edge">
<title>Node16&#45;&gt;Node13</title>
<path fill="none" stroke="midnightblue" d="M464.8,-197.54C439.2,-187.14 407.43,-174.24 383.65,-164.58"/>
<polygon fill="midnightblue" stroke="midnightblue" points="463.7,-200.87 474.28,-201.4 466.34,-194.39 463.7,-200.87"/>
</g>
<!-- Node16&#45;&gt;Node15 -->
<g id="edge25" class="edge">
<title>Node16&#45;&gt;Node15</title>
<path fill="none" stroke="midnightblue" d="M557.15,-197.82C585.6,-187.37 621.13,-174.32 647.67,-164.58"/>
<polygon fill="midnightblue" stroke="midnightblue" points="555.59,-194.66 547.41,-201.4 558,-201.23 555.59,-194.66"/>
</g>
<!-- Node17&#45;&gt;Node15 -->
<g id="edge27" class="edge">
<title>Node17&#45;&gt;Node15</title>
<path fill="none" stroke="midnightblue" d="M984.09,-326.87C972.26,-309.06 953.89,-284.57 933,-268 869.95,-217.97 782.11,-182.68 729.95,-164.54"/>
<polygon fill="midnightblue" stroke="midnightblue" points="981.3,-328.99 989.67,-335.49 987.18,-325.19 981.3,-328.99"/>
</g>
<!-- Node18&#45;&gt;Node8 -->
<g id="edge29" class="edge">
<title>Node18&#45;&gt;Node8</title>
<path fill="none" stroke="midnightblue" d="M851.46,-260.17C822.31,-221.01 763.64,-143.21 751,-134 727.18,-116.65 696.73,-104.61 670.68,-96.65"/>
<polygon fill="midnightblue" stroke="midnightblue" points="848.76,-262.41 857.54,-268.35 854.38,-258.23 848.76,-262.41"/>
</g>
<!-- Node18&#45;&gt;Node9 -->
<g id="edge30" class="edge">
<title>Node18&#45;&gt;Node9</title>
<path fill="none" stroke="midnightblue" d="M860.57,-258.41C843.84,-204.12 803.61,-73.61 790.33,-30.55"/>
<polygon fill="midnightblue" stroke="midnightblue" points="857.3,-259.67 863.59,-268.2 863.99,-257.61 857.3,-259.67"/>
</g>
<!-- Node19&#45;&gt;Node15 -->
<g id="edge32" class="edge">
<title>Node19&#45;&gt;Node15</title>
<path fill="none" stroke="midnightblue" d="M745.81,-325.53C731.5,-283.65 702.37,-198.4 690.85,-164.68"/>
<polygon fill="midnightblue" stroke="midnightblue" points="742.56,-326.86 749.11,-335.19 749.19,-324.59 742.56,-326.86"/>
</g>
<!-- Node20&#45;&gt;Node10 -->
<g id="edge38" class="edge">
<title>Node20&#45;&gt;Node10</title>
<path fill="none" stroke="midnightblue" d="M738.77,-527.91C728.88,-511.17 719.76,-488.06 729,-469 736.59,-453.33 751.66,-441.06 765.28,-432.54"/>
<polygon fill="midnightblue" stroke="midnightblue" points="735.91,-529.93 744.24,-536.49 741.82,-526.17 735.91,-529.93"/>
</g>
<!-- Node20&#45;&gt;Node21 -->
<g id="edge39" class="edge">
<title>Node20&#45;&gt;Node21</title>
<path fill="none" stroke="midnightblue" d="M800.78,-532.68C827.56,-522.26 860.9,-509.28 885.83,-499.58"/>
<polygon fill="midnightblue" stroke="midnightblue" points="799.29,-529.51 791.24,-536.4 801.83,-536.03 799.29,-529.51"/>
</g>
<!-- Node21&#45;&gt;Node10 -->
<g id="edge40" class="edge">
<title>Node21&#45;&gt;Node10</title>
<path fill="none" stroke="midnightblue" d="M884.99,-464.85C864.6,-454.58 839.69,-442.03 820.94,-432.58"/>
<polygon fill="midnightblue" stroke="midnightblue" points="883.5,-468.02 894.01,-469.4 886.65,-461.77 883.5,-468.02"/>
</g>
<!-- Node22&#45;&gt;Node9 -->
<g id="edge53" class="edge">
<title>Node22&#45;&gt;Node9</title>
<path fill="none" stroke="midnightblue" d="M868.87,-598.99C948.18,-562.2 1158,-449.29 1158,-284.5 1158,-284.5 1158,-284.5 1158,-148.5 1158,-82.28 946.02,-40.82 842.09,-24.47"/>
<polygon fill="midnightblue" stroke="midnightblue" points="867.09,-595.96 859.44,-603.29 869.99,-602.32 867.09,-595.96"/>
</g>
<!-- Node22&#45;&gt;Node20 -->
<g id="edge49" class="edge">
<title>Node22&#45;&gt;Node20</title>
<path fill="none" stroke="midnightblue" d="M818.48,-597.47C805.18,-588.05 787.95,-575.84 774.8,-566.52"/>
<polygon fill="midnightblue" stroke="midnightblue" points="816.78,-600.55 826.96,-603.48 820.83,-594.84 816.78,-600.55"/>
</g>
<!-- Node22&#45;&gt;Node21 -->
<g id="edge52" class="edge">
<title>Node22&#45;&gt;Node21</title>
<path fill="none" stroke="midnightblue" d="M850.29,-594.8C866.78,-569.66 897.18,-523.33 912.56,-499.89"/>
<polygon fill="midnightblue" stroke="midnightblue" points="847.26,-593.02 844.7,-603.31 853.12,-596.86 847.26,-593.02"/>
</g>
<!-- Node23 -->
<g id="node23" class="node">
<title>Node23</title>
<g id="a_node23"><a xlink:href="_physical_device_8hpp.html" target="_top" xlink:title=" ">
<polygon fill="none" stroke="black" points="737.5,-469.5 737.5,-499.5 848.5,-499.5 848.5,-469.5 737.5,-469.5"/>
<text text-anchor="start" x="745.5" y="-487.5" font-family="Helvetica,sans-Serif" font-size="10.00">include/york/Graphics</text>
<text text-anchor="middle" x="793" y="-476.5" font-family="Helvetica,sans-Serif" font-size="10.00">/PhysicalDevice.hpp</text>
</a>
</g>
</g>
<!-- Node22&#45;&gt;Node23 -->
<g id="edge50" class="edge">
<title>Node22&#45;&gt;Node23</title>
<path fill="none" stroke="midnightblue" d="M835.68,-593.39C832.58,-577.76 827.32,-554.99 820,-536 815.06,-523.2 807.6,-509.52 801.78,-499.64"/>
<polygon fill="midnightblue" stroke="midnightblue" points="832.27,-594.18 837.56,-603.35 839.15,-592.88 832.27,-594.18"/>
</g>
<!-- Node23&#45;&gt;Node10 -->
<g id="edge51" class="edge">
<title>Node23&#45;&gt;Node10</title>
<path fill="none" stroke="midnightblue" d="M793,-459.11C793,-450.15 793,-440.32 793,-432.58"/>
<polygon fill="midnightblue" stroke="midnightblue" points="789.5,-459.4 793,-469.4 796.5,-459.4 789.5,-459.4"/>
</g>
</g>
</svg>
