<?xml version="1.0" encoding="UTF-8" standalone="no"?>
<!DOCTYPE svg PUBLIC "-//W3C//DTD SVG 1.1//EN"
 "http://www.w3.org/Graphics/SVG/1.1/DTD/svg11.dtd">
<!-- Generated by graphviz version 2.50.0 (20211204.2007)
 -->
<!-- Title: include/york/Identifiable.hpp Pages: 1 -->
<svg width="1257pt" height="821pt"
 viewBox="0.00 0.00 1257.00 821.00" xmlns="http://www.w3.org/2000/svg" xmlns:xlink="http://www.w3.org/1999/xlink">
<g id="graph0" class="graph" transform="scale(1 1) rotate(0) translate(4 817)">
<title>include/york/Identifiable.hpp</title>
<!-- Node1 -->
<g id="node1" class="node">
<title>Node1</title>
<g id="a_node1"><a xlink:title=" ">
<polygon fill="#bfbfbf" stroke="black" points="190,-793.5 190,-812.5 328,-812.5 328,-793.5 190,-793.5"/>
<text text-anchor="middle" x="259" y="-800.5" font-family="Helvetica,sans-Serif" font-size="10.00">include/york/Identifiable.hpp</text>
</a>
</g>
</g>
<!-- Node2 -->
<g id="node2" class="node">
<title>Node2</title>
<g id="a_node2"><a xlink:href="_event_8hpp.html" target="_top" xlink:title=" ">
<polygon fill="none" stroke="black" points="201,-732 201,-751 317,-751 317,-732 201,-732"/>
<text text-anchor="middle" x="259" y="-739" font-family="Helvetica,sans-Serif" font-size="10.00">include/york/Event.hpp</text>
</a>
</g>
</g>
<!-- Node1&#45;&gt;Node2 -->
<g id="edge1" class="edge">
<title>Node1&#45;&gt;Node2</title>
<path fill="none" stroke="midnightblue" d="M259,-783.32C259,-772.5 259,-759.4 259,-751.01"/>
<polygon fill="midnightblue" stroke="midnightblue" points="255.5,-783.48 259,-793.48 262.5,-783.48 255.5,-783.48"/>
</g>
<!-- Node3 -->
<g id="node3" class="node">
<title>Node3</title>
<g id="a_node3"><a xlink:href="_layer_8hpp.html" target="_top" xlink:title=" ">
<polygon fill="none" stroke="black" points="116,-670.5 116,-689.5 230,-689.5 230,-670.5 116,-670.5"/>
<text text-anchor="middle" x="173" y="-677.5" font-family="Helvetica,sans-Serif" font-size="10.00">include/york/Layer.hpp</text>
</a>
</g>
</g>
<!-- Node1&#45;&gt;Node3 -->
<g id="edge55" class="edge">
<title>Node1&#45;&gt;Node3</title>
<path fill="none" stroke="midnightblue" d="M230.08,-788.78C216.64,-781.26 201.55,-770.6 192,-757 177.31,-736.07 173.95,-704.9 173.2,-689.81"/>
<polygon fill="midnightblue" stroke="midnightblue" points="228.55,-791.94 239.03,-793.49 231.81,-785.74 228.55,-791.94"/>
</g>
<!-- Node7 -->
<g id="node7" class="node">
<title>Node7</title>
<g id="a_node7"><a xlink:href="_handle_8hpp.html" target="_top" xlink:title="Contains the declarations for the Handle classes which form the basis of our Vulkan implementation.">
<polygon fill="none" stroke="black" points="653.5,-726.5 653.5,-756.5 764.5,-756.5 764.5,-726.5 653.5,-726.5"/>
<text text-anchor="start" x="661.5" y="-744.5" font-family="Helvetica,sans-Serif" font-size="10.00">include/york/Graphics</text>
<text text-anchor="middle" x="709" y="-733.5" font-family="Helvetica,sans-Serif" font-size="10.00">/Handle.hpp</text>
</a>
</g>
</g>
<!-- Node1&#45;&gt;Node7 -->
<g id="edge7" class="edge">
<title>Node1&#45;&gt;Node7</title>
<path fill="none" stroke="midnightblue" d="M333.6,-792.14C423.53,-780.25 572.58,-760.54 653.16,-749.88"/>
<polygon fill="midnightblue" stroke="midnightblue" points="332.93,-788.69 323.47,-793.48 333.85,-795.63 332.93,-788.69"/>
</g>
<!-- Node2&#45;&gt;Node3 -->
<g id="edge2" class="edge">
<title>Node2&#45;&gt;Node3</title>
<path fill="none" stroke="midnightblue" d="M238.2,-726.11C221.66,-714.67 199.08,-699.05 185.3,-689.51"/>
<polygon fill="midnightblue" stroke="midnightblue" points="236.46,-729.16 246.68,-731.98 240.45,-723.41 236.46,-729.16"/>
</g>
<!-- Node5 -->
<g id="node5" class="node">
<title>Node5</title>
<g id="a_node5"><a xlink:href="_york_8hpp.html" target="_top" xlink:title=" ">
<polygon fill="none" stroke="black" points="158,-609 158,-628 268,-628 268,-609 158,-609"/>
<text text-anchor="middle" x="213" y="-616" font-family="Helvetica,sans-Serif" font-size="10.00">include/york/York.hpp</text>
</a>
</g>
</g>
<!-- Node2&#45;&gt;Node5 -->
<g id="edge6" class="edge">
<title>Node2&#45;&gt;Node5</title>
<path fill="none" stroke="midnightblue" d="M254.7,-721.49C251.18,-707.11 245.71,-686.99 239,-670 232.99,-654.77 223.84,-638.06 218.15,-628.19"/>
<polygon fill="midnightblue" stroke="midnightblue" points="251.39,-722.7 257.08,-731.63 258.2,-721.1 251.39,-722.7"/>
</g>
<!-- Node6 -->
<g id="node6" class="node">
<title>Node6</title>
<g id="a_node6"><a xlink:href="_renderer_8hpp.html" target="_top" xlink:title=" ">
<polygon fill="none" stroke="black" points="839,-0.5 839,-30.5 951,-30.5 951,-0.5 839,-0.5"/>
<text text-anchor="start" x="847" y="-18.5" font-family="Helvetica,sans-Serif" font-size="10.00">include/york/Renderer</text>
<text text-anchor="middle" x="895" y="-7.5" font-family="Helvetica,sans-Serif" font-size="10.00">/Renderer.hpp</text>
</a>
</g>
</g>
<!-- Node2&#45;&gt;Node6 -->
<g id="edge5" class="edge">
<title>Node2&#45;&gt;Node6</title>
<path fill="none" stroke="midnightblue" d="M268.06,-722.75C279.02,-699.61 296,-657.6 296,-619.5 296,-619.5 296,-619.5 296,-148.5 296,-37.95 690.01,-19.89 838.92,-17.02"/>
<polygon fill="midnightblue" stroke="midnightblue" points="264.8,-721.45 263.54,-731.97 271.09,-724.54 264.8,-721.45"/>
</g>
<!-- Node4 -->
<g id="node4" class="node">
<title>Node4</title>
<g id="a_node4"><a xlink:href="_layer_stack_8hpp.html" target="_top" xlink:title=" ">
<polygon fill="none" stroke="black" points="0,-609 0,-628 140,-628 140,-609 0,-609"/>
<text text-anchor="middle" x="70" y="-616" font-family="Helvetica,sans-Serif" font-size="10.00">include/york/LayerStack.hpp</text>
</a>
</g>
</g>
<!-- Node3&#45;&gt;Node4 -->
<g id="edge3" class="edge">
<title>Node3&#45;&gt;Node4</title>
<path fill="none" stroke="midnightblue" d="M149.46,-665.4C129.54,-653.9 101.62,-637.77 84.73,-628.01"/>
<polygon fill="midnightblue" stroke="midnightblue" points="147.83,-668.5 158.24,-670.48 151.33,-662.44 147.83,-668.5"/>
</g>
<!-- Node3&#45;&gt;Node5 -->
<g id="edge4" class="edge">
<title>Node3&#45;&gt;Node5</title>
<path fill="none" stroke="midnightblue" d="M184.43,-662.01C191.9,-650.89 201.34,-636.84 207.28,-628.01"/>
<polygon fill="midnightblue" stroke="midnightblue" points="181.41,-660.22 178.73,-670.48 187.21,-664.13 181.41,-660.22"/>
</g>
<!-- Node8 -->
<g id="node8" class="node">
<title>Node8</title>
<g id="a_node8"><a xlink:href="_command_pool_8hpp.html" target="_top" xlink:title=" ">
<polygon fill="none" stroke="black" points="985.5,-201.5 985.5,-231.5 1096.5,-231.5 1096.5,-201.5 985.5,-201.5"/>
<text text-anchor="start" x="993.5" y="-219.5" font-family="Helvetica,sans-Serif" font-size="10.00">include/york/Graphics</text>
<text text-anchor="middle" x="1041" y="-208.5" font-family="Helvetica,sans-Serif" font-size="10.00">/CommandPool.hpp</text>
</a>
</g>
</g>
<!-- Node7&#45;&gt;Node8 -->
<g id="edge8" class="edge">
<title>Node7&#45;&gt;Node8</title>
<path fill="none" stroke="midnightblue" d="M775,-735.72C850.14,-729.15 967.13,-715.2 1003,-690 1032.48,-669.29 1043,-655.53 1043,-619.5 1043,-619.5 1043,-619.5 1043,-349.5 1043,-306.64 1041.93,-255.96 1041.36,-231.76"/>
<polygon fill="midnightblue" stroke="midnightblue" points="774.35,-732.26 764.68,-736.59 774.94,-739.23 774.35,-732.26"/>
</g>
<!-- Node10 -->
<g id="node10" class="node">
<title>Node10</title>
<g id="a_node10"><a xlink:href="_device_8hpp.html" target="_top" xlink:title=" ">
<polygon fill="none" stroke="black" points="705.5,-402.5 705.5,-432.5 816.5,-432.5 816.5,-402.5 705.5,-402.5"/>
<text text-anchor="start" x="713.5" y="-420.5" font-family="Helvetica,sans-Serif" font-size="10.00">include/york/Graphics</text>
<text text-anchor="middle" x="761" y="-409.5" font-family="Helvetica,sans-Serif" font-size="10.00">/Device.hpp</text>
</a>
</g>
</g>
<!-- Node7&#45;&gt;Node10 -->
<g id="edge12" class="edge">
<title>Node7&#45;&gt;Node10</title>
<path fill="none" stroke="midnightblue" d="M697,-717.13C685.87,-693.25 671,-654.76 671,-619.5 671,-619.5 671,-619.5 671,-550.5 671,-500.02 716.49,-454.6 742.79,-432.56"/>
<polygon fill="midnightblue" stroke="midnightblue" points="693.99,-718.94 701.49,-726.42 700.29,-715.9 693.99,-718.94"/>
</g>
<!-- Node11 -->
<g id="node11" class="node">
<title>Node11</title>
<g id="a_node11"><a xlink:href="_fence_8hpp.html" target="_top" xlink:title=" ">
<polygon fill="none" stroke="black" points="1071.5,-335.5 1071.5,-365.5 1182.5,-365.5 1182.5,-335.5 1071.5,-335.5"/>
<text text-anchor="start" x="1079.5" y="-353.5" font-family="Helvetica,sans-Serif" font-size="10.00">include/york/Graphics</text>
<text text-anchor="middle" x="1127" y="-342.5" font-family="Helvetica,sans-Serif" font-size="10.00">/Fence.hpp</text>
</a>
</g>
</g>
<!-- Node7&#45;&gt;Node11 -->
<g id="edge35" class="edge">
<title>Node7&#45;&gt;Node11</title>
<path fill="none" stroke="midnightblue" d="M774.53,-739.47C918.36,-735.45 1249,-715.73 1249,-619.5 1249,-619.5 1249,-619.5 1249,-483.5 1249,-428.27 1190.68,-386.31 1154.68,-365.67"/>
<polygon fill="midnightblue" stroke="midnightblue" points="774.41,-735.98 764.5,-739.74 774.59,-742.97 774.41,-735.98"/>
</g>
<!-- Node12 -->
<g id="node12" class="node">
<title>Node12</title>
<g id="a_node12"><a xlink:href="_image_view_8hpp.html" target="_top" xlink:title=" ">
<polygon fill="none" stroke="black" points="743.5,-335.5 743.5,-365.5 854.5,-365.5 854.5,-335.5 743.5,-335.5"/>
<text text-anchor="start" x="751.5" y="-353.5" font-family="Helvetica,sans-Serif" font-size="10.00">include/york/Graphics</text>
<text text-anchor="middle" x="799" y="-342.5" font-family="Helvetica,sans-Serif" font-size="10.00">/ImageView.hpp</text>
</a>
</g>
</g>
<!-- Node7&#45;&gt;Node12 -->
<g id="edge37" class="edge">
<title>Node7&#45;&gt;Node12</title>
<path fill="none" stroke="midnightblue" d="M774.96,-734.66C812.01,-728.51 857.25,-715.89 890,-690 918.09,-667.8 929,-655.31 929,-619.5 929,-619.5 929,-619.5 929,-483.5 929,-426.89 867.55,-385.73 829.15,-365.53"/>
<polygon fill="midnightblue" stroke="midnightblue" points="774.09,-731.26 764.74,-736.23 775.15,-738.17 774.09,-731.26"/>
</g>
<!-- Node13 -->
<g id="node13" class="node">
<title>Node13</title>
<g id="a_node13"><a xlink:href="_framebuffer_8hpp.html" target="_top" xlink:title=" ">
<polygon fill="none" stroke="black" points="739.5,-134.5 739.5,-164.5 850.5,-164.5 850.5,-134.5 739.5,-134.5"/>
<text text-anchor="start" x="747.5" y="-152.5" font-family="Helvetica,sans-Serif" font-size="10.00">include/york/Graphics</text>
<text text-anchor="middle" x="795" y="-141.5" font-family="Helvetica,sans-Serif" font-size="10.00">/Framebuffer.hpp</text>
</a>
</g>
</g>
<!-- Node7&#45;&gt;Node13 -->
<g id="edge36" class="edge">
<title>Node7&#45;&gt;Node13</title>
<path fill="none" stroke="midnightblue" d="M774.71,-737.39C851.15,-729.83 967,-704.37 967,-619.5 967,-619.5 967,-619.5 967,-483.5 967,-388.03 899.94,-384.26 857,-299 832.87,-251.09 810.06,-191.51 800.16,-164.72"/>
<polygon fill="midnightblue" stroke="midnightblue" points="774.31,-733.91 764.66,-738.31 774.94,-740.89 774.31,-733.91"/>
</g>
<!-- Node14 -->
<g id="node14" class="node">
<title>Node14</title>
<g id="a_node14"><a xlink:href="_swap_chain_8hpp.html" target="_top" xlink:title=" ">
<polygon fill="none" stroke="black" points="659.5,-268.5 659.5,-298.5 770.5,-298.5 770.5,-268.5 659.5,-268.5"/>
<text text-anchor="start" x="667.5" y="-286.5" font-family="Helvetica,sans-Serif" font-size="10.00">include/york/Graphics</text>
<text text-anchor="middle" x="715" y="-275.5" font-family="Helvetica,sans-Serif" font-size="10.00">/SwapChain.hpp</text>
</a>
</g>
</g>
<!-- Node7&#45;&gt;Node14 -->
<g id="edge50" class="edge">
<title>Node7&#45;&gt;Node14</title>
<path fill="none" stroke="midnightblue" d="M685.29,-719.3C662.99,-696.92 633,-659.39 633,-619.5 633,-619.5 633,-619.5 633,-550.5 633,-450.23 686.87,-337.75 707.29,-298.73"/>
<polygon fill="midnightblue" stroke="midnightblue" points="682.89,-721.85 692.51,-726.3 687.77,-716.82 682.89,-721.85"/>
</g>
<!-- Node15 -->
<g id="node15" class="node">
<title>Node15</title>
<g id="a_node15"><a xlink:href="_pipeline_8hpp.html" target="_top" xlink:title=" ">
<polygon fill="none" stroke="black" points="533.5,-134.5 533.5,-164.5 644.5,-164.5 644.5,-134.5 533.5,-134.5"/>
<text text-anchor="start" x="541.5" y="-152.5" font-family="Helvetica,sans-Serif" font-size="10.00">include/york/Graphics</text>
<text text-anchor="middle" x="589" y="-141.5" font-family="Helvetica,sans-Serif" font-size="10.00">/Pipeline.hpp</text>
</a>
</g>
</g>
<!-- Node7&#45;&gt;Node15 -->
<g id="edge44" class="edge">
<title>Node7&#45;&gt;Node15</title>
<path fill="none" stroke="midnightblue" d="M643.16,-732.97C535.58,-718.8 334,-683.7 334,-619.5 334,-619.5 334,-619.5 334,-282.5 334,-193.39 458.32,-164.37 533.35,-154.96"/>
<polygon fill="midnightblue" stroke="midnightblue" points="642.9,-736.46 653.26,-734.27 643.79,-729.52 642.9,-736.46"/>
</g>
<!-- Node16 -->
<g id="node16" class="node">
<title>Node16</title>
<g id="a_node16"><a xlink:href="_render_pass_8hpp.html" target="_top" xlink:title=" ">
<polygon fill="none" stroke="black" points="575.5,-201.5 575.5,-231.5 686.5,-231.5 686.5,-201.5 575.5,-201.5"/>
<text text-anchor="start" x="583.5" y="-219.5" font-family="Helvetica,sans-Serif" font-size="10.00">include/york/Graphics</text>
<text text-anchor="middle" x="631" y="-208.5" font-family="Helvetica,sans-Serif" font-size="10.00">/RenderPass.hpp</text>
</a>
</g>
</g>
<!-- Node7&#45;&gt;Node16 -->
<g id="edge46" class="edge">
<title>Node7&#45;&gt;Node16</title>
<path fill="none" stroke="midnightblue" d="M672.18,-721.24C638.87,-700.87 595,-665.33 595,-619.5 595,-619.5 595,-619.5 595,-550.5 595,-518.23 622.07,-291.51 629.26,-231.85"/>
<polygon fill="midnightblue" stroke="midnightblue" points="670.43,-724.27 680.82,-726.34 673.99,-718.24 670.43,-724.27"/>
</g>
<!-- Node17 -->
<g id="node17" class="node">
<title>Node17</title>
<g id="a_node17"><a xlink:href="_pipeline_layout_8hpp.html" target="_top" xlink:title=" ">
<polygon fill="none" stroke="black" points="362.5,-335.5 362.5,-365.5 473.5,-365.5 473.5,-335.5 362.5,-335.5"/>
<text text-anchor="start" x="370.5" y="-353.5" font-family="Helvetica,sans-Serif" font-size="10.00">include/york/Graphics</text>
<text text-anchor="middle" x="418" y="-342.5" font-family="Helvetica,sans-Serif" font-size="10.00">/PipelineLayout.hpp</text>
</a>
</g>
</g>
<!-- Node7&#45;&gt;Node17 -->
<g id="edge45" class="edge">
<title>Node7&#45;&gt;Node17</title>
<path fill="none" stroke="midnightblue" d="M643.1,-735.18C572.05,-725.42 469,-697.78 469,-619.5 469,-619.5 469,-619.5 469,-483.5 469,-438.05 442.37,-389.35 427.59,-365.84"/>
<polygon fill="midnightblue" stroke="midnightblue" points="642.97,-738.69 653.34,-736.5 643.86,-731.75 642.97,-738.69"/>
</g>
<!-- Node18 -->
<g id="node18" class="node">
<title>Node18</title>
<g id="a_node18"><a xlink:href="_semaphore_8hpp.html" target="_top" xlink:title=" ">
<polygon fill="none" stroke="black" points="865.5,-268.5 865.5,-298.5 976.5,-298.5 976.5,-268.5 865.5,-268.5"/>
<text text-anchor="start" x="873.5" y="-286.5" font-family="Helvetica,sans-Serif" font-size="10.00">include/york/Graphics</text>
<text text-anchor="middle" x="921" y="-275.5" font-family="Helvetica,sans-Serif" font-size="10.00">/Semaphore.hpp</text>
</a>
</g>
</g>
<!-- Node7&#45;&gt;Node18 -->
<g id="edge47" class="edge">
<title>Node7&#45;&gt;Node18</title>
<path fill="none" stroke="midnightblue" d="M774.63,-735.87C845.03,-729.62 950.79,-716.13 981,-690 1006.03,-668.35 1005,-652.6 1005,-619.5 1005,-619.5 1005,-619.5 1005,-416.5 1005,-367.06 962.54,-321.2 938,-298.82"/>
<polygon fill="midnightblue" stroke="midnightblue" points="774.18,-732.4 764.51,-736.74 774.78,-739.37 774.18,-732.4"/>
</g>
<!-- Node19 -->
<g id="node19" class="node">
<title>Node19</title>
<g id="a_node19"><a xlink:href="_shader_8hpp.html" target="_top" xlink:title=" ">
<polygon fill="none" stroke="black" points="491.5,-335.5 491.5,-365.5 602.5,-365.5 602.5,-335.5 491.5,-335.5"/>
<text text-anchor="start" x="499.5" y="-353.5" font-family="Helvetica,sans-Serif" font-size="10.00">include/york/Graphics</text>
<text text-anchor="middle" x="547" y="-342.5" font-family="Helvetica,sans-Serif" font-size="10.00">/Shader.hpp</text>
</a>
</g>
</g>
<!-- Node7&#45;&gt;Node19 -->
<g id="edge48" class="edge">
<title>Node7&#45;&gt;Node19</title>
<path fill="none" stroke="midnightblue" d="M643.69,-725.92C621.55,-718.28 598.12,-706.87 581,-690 556.87,-666.22 552,-653.38 552,-619.5 552,-619.5 552,-619.5 552,-483.5 552,-440.62 549.33,-389.95 547.89,-365.75"/>
<polygon fill="midnightblue" stroke="midnightblue" points="642.82,-729.31 653.41,-729.07 644.98,-722.66 642.82,-729.31"/>
</g>
<!-- Node20 -->
<g id="node20" class="node">
<title>Node20</title>
<g id="a_node20"><a xlink:href="_instance_8hpp.html" target="_top" xlink:title=" ">
<polygon fill="none" stroke="black" points="699.5,-603.5 699.5,-633.5 810.5,-633.5 810.5,-603.5 699.5,-603.5"/>
<text text-anchor="start" x="707.5" y="-621.5" font-family="Helvetica,sans-Serif" font-size="10.00">include/york/Graphics</text>
<text text-anchor="middle" x="755" y="-610.5" font-family="Helvetica,sans-Serif" font-size="10.00">/Instance.hpp</text>
</a>
</g>
</g>
<!-- Node7&#45;&gt;Node20 -->
<g id="edge38" class="edge">
<title>Node7&#45;&gt;Node20</title>
<path fill="none" stroke="midnightblue" d="M714.49,-716.71C718,-702.85 723.01,-685.18 729,-670 734,-657.34 741.16,-643.66 746.7,-633.73"/>
<polygon fill="midnightblue" stroke="midnightblue" points="711.08,-715.91 712.11,-726.45 717.88,-717.57 711.08,-715.91"/>
</g>
<!-- Node21 -->
<g id="node21" class="node">
<title>Node21</title>
<g id="a_node21"><a xlink:href="_surface_8hpp.html" target="_top" xlink:title=" ">
<polygon fill="none" stroke="black" points="783.5,-536.5 783.5,-566.5 894.5,-566.5 894.5,-536.5 783.5,-536.5"/>
<text text-anchor="start" x="791.5" y="-554.5" font-family="Helvetica,sans-Serif" font-size="10.00">include/york/Graphics</text>
<text text-anchor="middle" x="839" y="-543.5" font-family="Helvetica,sans-Serif" font-size="10.00">/Surface.hpp</text>
</a>
</g>
</g>
<!-- Node7&#45;&gt;Node21 -->
<g id="edge49" class="edge">
<title>Node7&#45;&gt;Node21</title>
<path fill="none" stroke="midnightblue" d="M774.85,-737.97C809.7,-732.85 849.76,-720.17 872,-690 899.97,-652.06 867.42,-593.69 849.4,-566.87"/>
<polygon fill="midnightblue" stroke="midnightblue" points="774.18,-734.52 764.71,-739.27 775.07,-741.47 774.18,-734.52"/>
</g>
<!-- Node23 -->
<g id="node23" class="node">
<title>Node23</title>
<g id="a_node23"><a xlink:href="_window_8hpp.html" target="_top" xlink:title=" ">
<polygon fill="none" stroke="black" points="737.5,-670.5 737.5,-689.5 862.5,-689.5 862.5,-670.5 737.5,-670.5"/>
<text text-anchor="middle" x="800" y="-677.5" font-family="Helvetica,sans-Serif" font-size="10.00">include/york/Window.hpp</text>
</a>
</g>
</g>
<!-- Node7&#45;&gt;Node23 -->
<g id="edge51" class="edge">
<title>Node7&#45;&gt;Node23</title>
<path fill="none" stroke="midnightblue" d="M739.17,-720.78C755.29,-710.23 774.33,-697.78 786.76,-689.66"/>
<polygon fill="midnightblue" stroke="midnightblue" points="737.02,-718 730.57,-726.4 740.85,-723.86 737.02,-718"/>
</g>
<!-- Node8&#45;&gt;Node6 -->
<g id="edge11" class="edge">
<title>Node8&#45;&gt;Node6</title>
<path fill="none" stroke="midnightblue" d="M1049.58,-191.43C1059.21,-159.73 1070.32,-103.72 1044,-67 1022.99,-37.7 984.03,-25.19 951.22,-19.94"/>
<polygon fill="midnightblue" stroke="midnightblue" points="1046.17,-190.59 1046.42,-201.18 1052.83,-192.75 1046.17,-190.59"/>
</g>
<!-- Node9 -->
<g id="node9" class="node">
<title>Node9</title>
<g id="a_node9"><a xlink:href="_frame_data_8hpp.html" target="_top" xlink:title=" ">
<polygon fill="none" stroke="black" points="923.5,-67.5 923.5,-97.5 1034.5,-97.5 1034.5,-67.5 923.5,-67.5"/>
<text text-anchor="start" x="931.5" y="-85.5" font-family="Helvetica,sans-Serif" font-size="10.00">include/york/Graphics</text>
<text text-anchor="middle" x="979" y="-74.5" font-family="Helvetica,sans-Serif" font-size="10.00">/FrameData.hpp</text>
</a>
</g>
</g>
<!-- Node8&#45;&gt;Node9 -->
<g id="edge9" class="edge">
<title>Node8&#45;&gt;Node9</title>
<path fill="none" stroke="midnightblue" d="M1030.02,-192.12C1017.13,-164.68 996.18,-120.09 985.59,-97.52"/>
<polygon fill="midnightblue" stroke="midnightblue" points="1026.95,-193.81 1034.36,-201.37 1033.28,-190.83 1026.95,-193.81"/>
</g>
<!-- Node9&#45;&gt;Node6 -->
<g id="edge10" class="edge">
<title>Node9&#45;&gt;Node6</title>
<path fill="none" stroke="midnightblue" d="M952.72,-61.17C939.88,-51.23 924.74,-39.51 913.19,-30.58"/>
<polygon fill="midnightblue" stroke="midnightblue" points="950.72,-64.04 960.77,-67.4 955.01,-58.51 950.72,-64.04"/>
</g>
<!-- Node10&#45;&gt;Node8 -->
<g id="edge13" class="edge">
<title>Node10&#45;&gt;Node8</title>
<path fill="none" stroke="midnightblue" d="M815.96,-398.9C865.65,-380.64 938.15,-347.84 986,-299 1006.43,-278.15 1024.1,-248.79 1033.59,-231.59"/>
<polygon fill="midnightblue" stroke="midnightblue" points="814.57,-395.69 806.34,-402.36 816.94,-402.27 814.57,-395.69"/>
</g>
<!-- Node10&#45;&gt;Node11 -->
<g id="edge14" class="edge">
<title>Node10&#45;&gt;Node11</title>
<path fill="none" stroke="midnightblue" d="M826.6,-404.85C896.44,-392.45 1005.77,-373.03 1071.49,-361.36"/>
<polygon fill="midnightblue" stroke="midnightblue" points="825.82,-401.43 816.59,-406.63 827.05,-408.33 825.82,-401.43"/>
</g>
<!-- Node10&#45;&gt;Node12 -->
<g id="edge16" class="edge">
<title>Node10&#45;&gt;Node12</title>
<path fill="none" stroke="midnightblue" d="M774.4,-393.58C779.86,-384.24 785.99,-373.75 790.77,-365.58"/>
<polygon fill="midnightblue" stroke="midnightblue" points="771.27,-392 769.25,-402.4 777.31,-395.53 771.27,-392"/>
</g>
<!-- Node10&#45;&gt;Node14 -->
<g id="edge34" class="edge">
<title>Node10&#45;&gt;Node14</title>
<path fill="none" stroke="midnightblue" d="M747.69,-393.45C743.2,-385.01 738.47,-375.26 735,-366 726.42,-343.08 720.49,-315.14 717.42,-298.64"/>
<polygon fill="midnightblue" stroke="midnightblue" points="744.68,-395.25 752.56,-402.33 750.82,-391.88 744.68,-395.25"/>
</g>
<!-- Node10&#45;&gt;Node17 -->
<g id="edge27" class="edge">
<title>Node10&#45;&gt;Node17</title>
<path fill="none" stroke="midnightblue" d="M695.38,-405.46C638.75,-395.73 554.8,-380.83 482,-366 479.32,-365.45 476.58,-364.88 473.82,-364.3"/>
<polygon fill="midnightblue" stroke="midnightblue" points="694.83,-408.91 705.28,-407.15 696.02,-402.01 694.83,-408.91"/>
</g>
<!-- Node10&#45;&gt;Node18 -->
<g id="edge29" class="edge">
<title>Node10&#45;&gt;Node18</title>
<path fill="none" stroke="midnightblue" d="M810.23,-398.45C828.36,-390.31 848.28,-379.46 864,-366 886.69,-346.57 904.74,-316.18 914.07,-298.52"/>
<polygon fill="midnightblue" stroke="midnightblue" points="808.74,-395.29 800.95,-402.47 811.52,-401.71 808.74,-395.29"/>
</g>
<!-- Node10&#45;&gt;Node19 -->
<g id="edge32" class="edge">
<title>Node10&#45;&gt;Node19</title>
<path fill="none" stroke="midnightblue" d="M704.85,-399.44C670.16,-388.91 626.18,-375.55 593.46,-365.61"/>
<polygon fill="midnightblue" stroke="midnightblue" points="704.24,-402.92 714.83,-402.48 706.28,-396.22 704.24,-402.92"/>
</g>
<!-- Node11&#45;&gt;Node9 -->
<g id="edge15" class="edge">
<title>Node11&#45;&gt;Node9</title>
<path fill="none" stroke="midnightblue" d="M1128.4,-325.26C1129.13,-294.56 1126.87,-240.86 1106,-201 1081.69,-154.56 1031.51,-116.84 1002.03,-97.53"/>
<polygon fill="midnightblue" stroke="midnightblue" points="1124.9,-325.34 1128.02,-335.46 1131.89,-325.6 1124.9,-325.34"/>
</g>
<!-- Node12&#45;&gt;Node13 -->
<g id="edge17" class="edge">
<title>Node12&#45;&gt;Node13</title>
<path fill="none" stroke="midnightblue" d="M798.51,-325C797.66,-282.93 795.96,-198.26 795.29,-164.68"/>
<polygon fill="midnightblue" stroke="midnightblue" points="795.01,-325.26 798.71,-335.19 802.01,-325.12 795.01,-325.26"/>
</g>
<!-- Node12&#45;&gt;Node14 -->
<g id="edge20" class="edge">
<title>Node12&#45;&gt;Node14</title>
<path fill="none" stroke="midnightblue" d="M772.72,-329.17C759.88,-319.23 744.74,-307.51 733.19,-298.58"/>
<polygon fill="midnightblue" stroke="midnightblue" points="770.72,-332.04 780.77,-335.4 775.01,-326.51 770.72,-332.04"/>
</g>
<!-- Node13&#45;&gt;Node6 -->
<g id="edge19" class="edge">
<title>Node13&#45;&gt;Node6</title>
<path fill="none" stroke="midnightblue" d="M811.9,-126.19C832.61,-98.86 867.06,-53.38 884.38,-30.52"/>
<polygon fill="midnightblue" stroke="midnightblue" points="808.95,-124.29 805.7,-134.37 814.53,-128.52 808.95,-124.29"/>
</g>
<!-- Node13&#45;&gt;Node9 -->
<g id="edge18" class="edge">
<title>Node13&#45;&gt;Node9</title>
<path fill="none" stroke="midnightblue" d="M844.67,-130.96C874.3,-120.48 911.44,-107.37 939.15,-97.58"/>
<polygon fill="midnightblue" stroke="midnightblue" points="843.19,-127.76 834.93,-134.4 845.52,-134.37 843.19,-127.76"/>
</g>
<!-- Node14&#45;&gt;Node9 -->
<g id="edge21" class="edge">
<title>Node14&#45;&gt;Node9</title>
<path fill="none" stroke="midnightblue" d="M742.01,-262.14C795.59,-221.75 914.13,-132.4 960.19,-97.68"/>
<polygon fill="midnightblue" stroke="midnightblue" points="739.86,-259.37 733.99,-268.19 744.08,-264.96 739.86,-259.37"/>
</g>
<!-- Node14&#45;&gt;Node15 -->
<g id="edge22" class="edge">
<title>Node14&#45;&gt;Node15</title>
<path fill="none" stroke="midnightblue" d="M714.78,-258.12C713.42,-240.51 709,-217.1 696,-201 682.19,-183.9 661.23,-172.27 641.51,-164.53"/>
<polygon fill="midnightblue" stroke="midnightblue" points="711.29,-258.4 715.28,-268.21 718.28,-258.05 711.29,-258.4"/>
</g>
<!-- Node14&#45;&gt;Node16 -->
<g id="edge24" class="edge">
<title>Node14&#45;&gt;Node16</title>
<path fill="none" stroke="midnightblue" d="M688.72,-262.17C675.88,-252.23 660.74,-240.51 649.19,-231.58"/>
<polygon fill="midnightblue" stroke="midnightblue" points="686.72,-265.04 696.77,-268.4 691.01,-259.51 686.72,-265.04"/>
</g>
<!-- Node15&#45;&gt;Node6 -->
<g id="edge23" class="edge">
<title>Node15&#45;&gt;Node6</title>
<path fill="none" stroke="midnightblue" d="M630.89,-130.43C692.58,-103.82 806.55,-54.65 862.41,-30.56"/>
<polygon fill="midnightblue" stroke="midnightblue" points="629.25,-127.32 621.46,-134.5 632.03,-133.75 629.25,-127.32"/>
</g>
<!-- Node16&#45;&gt;Node13 -->
<g id="edge25" class="edge">
<title>Node16&#45;&gt;Node13</title>
<path fill="none" stroke="midnightblue" d="M675.96,-197.68C702.26,-187.26 735,-174.28 759.48,-164.58"/>
<polygon fill="midnightblue" stroke="midnightblue" points="674.59,-194.46 666.59,-201.4 677.17,-200.97 674.59,-194.46"/>
</g>
<!-- Node16&#45;&gt;Node15 -->
<g id="edge26" class="edge">
<title>Node16&#45;&gt;Node15</title>
<path fill="none" stroke="midnightblue" d="M616.38,-192.87C610.3,-183.46 603.43,-172.83 598.1,-164.58"/>
<polygon fill="midnightblue" stroke="midnightblue" points="613.52,-194.9 621.89,-201.4 619.4,-191.1 613.52,-194.9"/>
</g>
<!-- Node17&#45;&gt;Node15 -->
<g id="edge28" class="edge">
<title>Node17&#45;&gt;Node15</title>
<path fill="none" stroke="midnightblue" d="M437.02,-327.37C472.4,-286.19 547.41,-198.9 576.81,-164.68"/>
<polygon fill="midnightblue" stroke="midnightblue" points="434.16,-325.32 430.3,-335.19 439.47,-329.88 434.16,-325.32"/>
</g>
<!-- Node18&#45;&gt;Node6 -->
<g id="edge31" class="edge">
<title>Node18&#45;&gt;Node6</title>
<path fill="none" stroke="midnightblue" d="M918.61,-258.07C913.29,-203.57 900.57,-73.52 896.37,-30.55"/>
<polygon fill="midnightblue" stroke="midnightblue" points="915.15,-258.59 919.6,-268.2 922.11,-257.91 915.15,-258.59"/>
</g>
<!-- Node18&#45;&gt;Node9 -->
<g id="edge30" class="edge">
<title>Node18&#45;&gt;Node9</title>
<path fill="none" stroke="midnightblue" d="M927.99,-258.53C940.19,-216.65 965.04,-131.4 974.87,-97.68"/>
<polygon fill="midnightblue" stroke="midnightblue" points="924.61,-257.61 925.17,-268.19 931.33,-259.57 924.61,-257.61"/>
</g>
<!-- Node19&#45;&gt;Node15 -->
<g id="edge33" class="edge">
<title>Node19&#45;&gt;Node15</title>
<path fill="none" stroke="midnightblue" d="M548.22,-325.04C550.17,-295.25 555.09,-243.66 567,-201 570.55,-188.29 576.67,-174.61 581.55,-164.7"/>
<polygon fill="midnightblue" stroke="midnightblue" points="544.71,-325.13 547.61,-335.32 551.69,-325.54 544.71,-325.13"/>
</g>
<!-- Node20&#45;&gt;Node10 -->
<g id="edge39" class="edge">
<title>Node20&#45;&gt;Node10</title>
<path fill="none" stroke="midnightblue" d="M755.74,-593C757.01,-550.93 759.56,-466.26 760.57,-432.68"/>
<polygon fill="midnightblue" stroke="midnightblue" points="752.23,-593.09 755.43,-603.19 759.23,-593.3 752.23,-593.09"/>
</g>
<!-- Node20&#45;&gt;Node21 -->
<g id="edge40" class="edge">
<title>Node20&#45;&gt;Node21</title>
<path fill="none" stroke="midnightblue" d="M781.28,-597.17C794.12,-587.23 809.26,-575.51 820.81,-566.58"/>
<polygon fill="midnightblue" stroke="midnightblue" points="778.99,-594.51 773.23,-603.4 783.28,-600.04 778.99,-594.51"/>
</g>
<!-- Node21&#45;&gt;Node10 -->
<g id="edge41" class="edge">
<title>Node21&#45;&gt;Node10</title>
<path fill="none" stroke="midnightblue" d="M808.92,-530.23C798.69,-521.96 788.07,-511.6 781,-500 768.11,-478.85 763.52,-449.85 761.89,-432.75"/>
<polygon fill="midnightblue" stroke="midnightblue" points="806.9,-533.09 816.96,-536.4 811.16,-527.54 806.9,-533.09"/>
</g>
<!-- Node22 -->
<g id="node22" class="node">
<title>Node22</title>
<g id="a_node22"><a xlink:href="_physical_device_8hpp.html" target="_top" xlink:title=" ">
<polygon fill="none" stroke="black" points="789.5,-469.5 789.5,-499.5 900.5,-499.5 900.5,-469.5 789.5,-469.5"/>
<text text-anchor="start" x="797.5" y="-487.5" font-family="Helvetica,sans-Serif" font-size="10.00">include/york/Graphics</text>
<text text-anchor="middle" x="845" y="-476.5" font-family="Helvetica,sans-Serif" font-size="10.00">/PhysicalDevice.hpp</text>
</a>
</g>
</g>
<!-- Node21&#45;&gt;Node22 -->
<g id="edge42" class="edge">
<title>Node21&#45;&gt;Node22</title>
<path fill="none" stroke="midnightblue" d="M841.22,-526.4C842.06,-517.37 842.98,-507.41 843.7,-499.58"/>
<polygon fill="midnightblue" stroke="midnightblue" points="837.74,-526.12 840.3,-536.4 844.71,-526.76 837.74,-526.12"/>
</g>
<!-- Node22&#45;&gt;Node10 -->
<g id="edge43" class="edge">
<title>Node22&#45;&gt;Node10</title>
<path fill="none" stroke="midnightblue" d="M818.72,-463.17C805.88,-453.23 790.74,-441.51 779.19,-432.58"/>
<polygon fill="midnightblue" stroke="midnightblue" points="816.72,-466.04 826.77,-469.4 821.01,-460.51 816.72,-466.04"/>
</g>
<!-- Node23&#45;&gt;Node6 -->
<g id="edge54" class="edge">
<title>Node23&#45;&gt;Node6</title>
<path fill="none" stroke="midnightblue" d="M872.93,-671.66C991.01,-657.74 1211,-622.41 1211,-552.5 1211,-552.5 1211,-552.5 1211,-148.5 1211,-37.17 1041.94,-18.08 951.13,-15.86"/>
<polygon fill="midnightblue" stroke="midnightblue" points="872.4,-668.2 862.87,-672.83 873.21,-675.15 872.4,-668.2"/>
</g>
<!-- Node23&#45;&gt;Node20 -->
<g id="edge52" class="edge">
<title>Node23&#45;&gt;Node20</title>
<path fill="none" stroke="midnightblue" d="M787.33,-662.25C780.48,-653.19 772.11,-642.12 765.61,-633.52"/>
<polygon fill="midnightblue" stroke="midnightblue" points="784.73,-664.61 793.55,-670.48 790.31,-660.39 784.73,-664.61"/>
</g>
<!-- Node23&#45;&gt;Node21 -->
<g id="edge53" class="edge">
<title>Node23&#45;&gt;Node21</title>
<path fill="none" stroke="midnightblue" d="M808.92,-661.03C812.71,-652.91 816.94,-643.12 820,-634 827.76,-610.86 833.52,-582.99 836.56,-566.57"/>
<polygon fill="midnightblue" stroke="midnightblue" points="805.68,-659.7 804.49,-670.23 811.98,-662.74 805.68,-659.7"/>
</g>
</g>
</svg>
