<?xml version="1.0" encoding="UTF-8" standalone="no"?>
<!DOCTYPE svg PUBLIC "-//W3C//DTD SVG 1.1//EN"
 "http://www.w3.org/Graphics/SVG/1.1/DTD/svg11.dtd">
<!-- Generated by graphviz version 2.50.0 (20211204.2007)
 -->
<!-- Title: include/york/Identifiable.hpp Pages: 1 -->
<svg width="1113pt" height="821pt"
 viewBox="0.00 0.00 1113.00 821.00" xmlns="http://www.w3.org/2000/svg" xmlns:xlink="http://www.w3.org/1999/xlink">
<g id="graph0" class="graph" transform="scale(1 1) rotate(0) translate(4 817)">
<title>include/york/Identifiable.hpp</title>
<!-- Node1 -->
<g id="node1" class="node">
<title>Node1</title>
<g id="a_node1"><a xlink:title=" ">
<polygon fill="#bfbfbf" stroke="black" points="75,-793.5 75,-812.5 213,-812.5 213,-793.5 75,-793.5"/>
<text text-anchor="middle" x="144" y="-800.5" font-family="Helvetica,sans-Serif" font-size="10.00">include/york/Identifiable.hpp</text>
</a>
</g>
</g>
<!-- Node2 -->
<g id="node2" class="node">
<title>Node2</title>
<g id="a_node2"><a xlink:href="_event_8hpp.html" target="_top" xlink:title=" ">
<polygon fill="none" stroke="black" points="0,-732 0,-751 116,-751 116,-732 0,-732"/>
<text text-anchor="middle" x="58" y="-739" font-family="Helvetica,sans-Serif" font-size="10.00">include/york/Event.hpp</text>
</a>
</g>
</g>
<!-- Node1&#45;&gt;Node2 -->
<g id="edge1" class="edge">
<title>Node1&#45;&gt;Node2</title>
<path fill="none" stroke="midnightblue" d="M123.2,-787.61C106.66,-776.17 84.08,-760.55 70.3,-751.01"/>
<polygon fill="midnightblue" stroke="midnightblue" points="121.46,-790.66 131.68,-793.48 125.45,-784.91 121.46,-790.66"/>
</g>
<!-- Node3 -->
<g id="node3" class="node">
<title>Node3</title>
<g id="a_node3"><a xlink:href="_layer_8hpp.html" target="_top" xlink:title=" ">
<polygon fill="none" stroke="black" points="86,-670.5 86,-689.5 200,-689.5 200,-670.5 86,-670.5"/>
<text text-anchor="middle" x="143" y="-677.5" font-family="Helvetica,sans-Serif" font-size="10.00">include/york/Layer.hpp</text>
</a>
</g>
</g>
<!-- Node1&#45;&gt;Node3 -->
<g id="edge54" class="edge">
<title>Node1&#45;&gt;Node3</title>
<path fill="none" stroke="midnightblue" d="M143.84,-782.99C143.62,-756.35 143.23,-709 143.07,-689.62"/>
<polygon fill="midnightblue" stroke="midnightblue" points="140.35,-783.33 143.93,-793.3 147.35,-783.27 140.35,-783.33"/>
</g>
<!-- Node6 -->
<g id="node6" class="node">
<title>Node6</title>
<g id="a_node6"><a xlink:href="_handle_8hpp.html" target="_top" xlink:title="Contains the declarations for the Handle classes which form the basis of our Vulkan implementation.">
<polygon fill="none" stroke="black" points="523.5,-726.5 523.5,-756.5 634.5,-756.5 634.5,-726.5 523.5,-726.5"/>
<text text-anchor="start" x="531.5" y="-744.5" font-family="Helvetica,sans-Serif" font-size="10.00">include/york/Graphics</text>
<text text-anchor="middle" x="579" y="-733.5" font-family="Helvetica,sans-Serif" font-size="10.00">/Handle.hpp</text>
</a>
</g>
</g>
<!-- Node1&#45;&gt;Node6 -->
<g id="edge6" class="edge">
<title>Node1&#45;&gt;Node6</title>
<path fill="none" stroke="midnightblue" d="M216.31,-792.11C302.63,-780.3 445.13,-760.81 523.34,-750.11"/>
<polygon fill="midnightblue" stroke="midnightblue" points="215.76,-788.65 206.32,-793.48 216.71,-795.59 215.76,-788.65"/>
</g>
<!-- Node2&#45;&gt;Node3 -->
<g id="edge2" class="edge">
<title>Node2&#45;&gt;Node3</title>
<path fill="none" stroke="midnightblue" d="M78.55,-726.11C94.9,-714.67 117.22,-699.05 130.84,-689.51"/>
<polygon fill="midnightblue" stroke="midnightblue" points="76.36,-723.37 70.18,-731.98 80.38,-729.11 76.36,-723.37"/>
</g>
<!-- Node4 -->
<g id="node4" class="node">
<title>Node4</title>
<g id="a_node4"><a xlink:href="_york_8hpp.html" target="_top" xlink:title=" ">
<polygon fill="none" stroke="black" points="68,-609 68,-628 178,-628 178,-609 68,-609"/>
<text text-anchor="middle" x="123" y="-616" font-family="Helvetica,sans-Serif" font-size="10.00">include/york/York.hpp</text>
</a>
</g>
</g>
<!-- Node2&#45;&gt;Node4 -->
<g id="edge5" class="edge">
<title>Node2&#45;&gt;Node4</title>
<path fill="none" stroke="midnightblue" d="M60.55,-721.82C63.14,-707.06 68.07,-686.3 77,-670 86.23,-653.15 102.2,-637.4 112.68,-628.11"/>
<polygon fill="midnightblue" stroke="midnightblue" points="57.08,-721.34 59,-731.76 64,-722.42 57.08,-721.34"/>
</g>
<!-- Node5 -->
<g id="node5" class="node">
<title>Node5</title>
<g id="a_node5"><a xlink:href="_renderer_8hpp.html" target="_top" xlink:title=" ">
<polygon fill="none" stroke="black" points="378,-0.5 378,-30.5 490,-30.5 490,-0.5 378,-0.5"/>
<text text-anchor="start" x="386" y="-18.5" font-family="Helvetica,sans-Serif" font-size="10.00">include/york/Renderer</text>
<text text-anchor="middle" x="434" y="-7.5" font-family="Helvetica,sans-Serif" font-size="10.00">/Renderer.hpp</text>
</a>
</g>
</g>
<!-- Node2&#45;&gt;Node5 -->
<g id="edge4" class="edge">
<title>Node2&#45;&gt;Node5</title>
<path fill="none" stroke="midnightblue" d="M48.69,-722.78C37.44,-699.67 20,-657.69 20,-619.5 20,-619.5 20,-619.5 20,-148.5 20,-74.29 264.54,-36.18 377.74,-22.51"/>
<polygon fill="midnightblue" stroke="midnightblue" points="45.71,-724.64 53.34,-731.98 51.96,-721.48 45.71,-724.64"/>
</g>
<!-- Node3&#45;&gt;Node4 -->
<g id="edge3" class="edge">
<title>Node3&#45;&gt;Node4</title>
<path fill="none" stroke="midnightblue" d="M136.83,-660.66C133.18,-649.77 128.71,-636.49 125.86,-628.01"/>
<polygon fill="midnightblue" stroke="midnightblue" points="133.63,-662.11 140.13,-670.48 140.27,-659.88 133.63,-662.11"/>
</g>
<!-- Node7 -->
<g id="node7" class="node">
<title>Node7</title>
<g id="a_node7"><a xlink:href="_command_pool_8hpp.html" target="_top" xlink:title=" ">
<polygon fill="none" stroke="black" points="462.5,-268.5 462.5,-298.5 573.5,-298.5 573.5,-268.5 462.5,-268.5"/>
<text text-anchor="start" x="470.5" y="-286.5" font-family="Helvetica,sans-Serif" font-size="10.00">include/york/Graphics</text>
<text text-anchor="middle" x="518" y="-275.5" font-family="Helvetica,sans-Serif" font-size="10.00">/CommandPool.hpp</text>
</a>
</g>
</g>
<!-- Node6&#45;&gt;Node7 -->
<g id="edge7" class="edge">
<title>Node6&#45;&gt;Node7</title>
<path fill="none" stroke="midnightblue" d="M513.33,-737.06C475.26,-731.77 428.9,-719.22 398,-690 373.95,-667.26 374,-652.6 374,-619.5 374,-619.5 374,-619.5 374,-483.5 374,-445.74 378.55,-434.36 398,-402 424.58,-357.77 471.77,-318.53 498.37,-298.53"/>
<polygon fill="midnightblue" stroke="midnightblue" points="512.96,-740.54 523.31,-738.31 513.83,-733.6 512.96,-740.54"/>
</g>
<!-- Node9 -->
<g id="node9" class="node">
<title>Node9</title>
<g id="a_node9"><a xlink:href="_device_8hpp.html" target="_top" xlink:title=" ">
<polygon fill="none" stroke="black" points="584.5,-402.5 584.5,-432.5 695.5,-432.5 695.5,-402.5 584.5,-402.5"/>
<text text-anchor="start" x="592.5" y="-420.5" font-family="Helvetica,sans-Serif" font-size="10.00">include/york/Graphics</text>
<text text-anchor="middle" x="640" y="-409.5" font-family="Helvetica,sans-Serif" font-size="10.00">/Device.hpp</text>
</a>
</g>
</g>
<!-- Node6&#45;&gt;Node9 -->
<g id="edge11" class="edge">
<title>Node6&#45;&gt;Node9</title>
<path fill="none" stroke="midnightblue" d="M541.97,-721.01C529.61,-712.89 516.77,-702.43 508,-690 489.22,-663.39 488,-652.07 488,-619.5 488,-619.5 488,-619.5 488,-550.5 488,-490.56 556.22,-451.69 601.25,-432.56"/>
<polygon fill="midnightblue" stroke="midnightblue" points="540.47,-724.2 550.82,-726.5 544.17,-718.25 540.47,-724.2"/>
</g>
<!-- Node10 -->
<g id="node10" class="node">
<title>Node10</title>
<g id="a_node10"><a xlink:href="_fence_8hpp.html" target="_top" xlink:title=" ">
<polygon fill="none" stroke="black" points="294.5,-335.5 294.5,-365.5 405.5,-365.5 405.5,-335.5 294.5,-335.5"/>
<text text-anchor="start" x="302.5" y="-353.5" font-family="Helvetica,sans-Serif" font-size="10.00">include/york/Graphics</text>
<text text-anchor="middle" x="350" y="-342.5" font-family="Helvetica,sans-Serif" font-size="10.00">/Fence.hpp</text>
</a>
</g>
</g>
<!-- Node6&#45;&gt;Node10 -->
<g id="edge34" class="edge">
<title>Node6&#45;&gt;Node10</title>
<path fill="none" stroke="midnightblue" d="M513.19,-732.45C457.17,-724.35 382.32,-710.16 360,-690 335.44,-667.81 336,-652.6 336,-619.5 336,-619.5 336,-619.5 336,-483.5 336,-440.41 343.47,-389.84 347.5,-365.71"/>
<polygon fill="midnightblue" stroke="midnightblue" points="513.03,-735.96 523.42,-733.9 514,-729.03 513.03,-735.96"/>
</g>
<!-- Node11 -->
<g id="node11" class="node">
<title>Node11</title>
<g id="a_node11"><a xlink:href="_image_view_8hpp.html" target="_top" xlink:title=" ">
<polygon fill="none" stroke="black" points="584.5,-335.5 584.5,-365.5 695.5,-365.5 695.5,-335.5 584.5,-335.5"/>
<text text-anchor="start" x="592.5" y="-353.5" font-family="Helvetica,sans-Serif" font-size="10.00">include/york/Graphics</text>
<text text-anchor="middle" x="640" y="-342.5" font-family="Helvetica,sans-Serif" font-size="10.00">/ImageView.hpp</text>
</a>
</g>
</g>
<!-- Node6&#45;&gt;Node11 -->
<g id="edge36" class="edge">
<title>Node6&#45;&gt;Node11</title>
<path fill="none" stroke="midnightblue" d="M535.84,-721.73C498.35,-702.17 450,-667.62 450,-619.5 450,-619.5 450,-619.5 450,-483.5 450,-417.53 528.21,-381.87 584.28,-364.79"/>
<polygon fill="midnightblue" stroke="midnightblue" points="534.6,-725.02 545.11,-726.38 537.74,-718.77 534.6,-725.02"/>
</g>
<!-- Node12 -->
<g id="node12" class="node">
<title>Node12</title>
<g id="a_node12"><a xlink:href="_framebuffer_8hpp.html" target="_top" xlink:title=" ">
<polygon fill="none" stroke="black" points="546.5,-134.5 546.5,-164.5 657.5,-164.5 657.5,-134.5 546.5,-134.5"/>
<text text-anchor="start" x="554.5" y="-152.5" font-family="Helvetica,sans-Serif" font-size="10.00">include/york/Graphics</text>
<text text-anchor="middle" x="602" y="-141.5" font-family="Helvetica,sans-Serif" font-size="10.00">/Framebuffer.hpp</text>
</a>
</g>
</g>
<!-- Node6&#45;&gt;Node12 -->
<g id="edge35" class="edge">
<title>Node6&#45;&gt;Node12</title>
<path fill="none" stroke="midnightblue" d="M516.52,-722.96C469.1,-705.38 412,-673.09 412,-619.5 412,-619.5 412,-619.5 412,-483.5 412,-371.7 530.36,-397.64 583,-299 606.74,-254.51 605.41,-192.17 603.37,-164.58"/>
<polygon fill="midnightblue" stroke="midnightblue" points="515.57,-726.33 526.16,-726.38 517.91,-719.74 515.57,-726.33"/>
</g>
<!-- Node13 -->
<g id="node13" class="node">
<title>Node13</title>
<g id="a_node13"><a xlink:href="_swap_chain_8hpp.html" target="_top" xlink:title=" ">
<polygon fill="none" stroke="black" points="668.5,-268.5 668.5,-298.5 779.5,-298.5 779.5,-268.5 668.5,-268.5"/>
<text text-anchor="start" x="676.5" y="-286.5" font-family="Helvetica,sans-Serif" font-size="10.00">include/york/Graphics</text>
<text text-anchor="middle" x="724" y="-275.5" font-family="Helvetica,sans-Serif" font-size="10.00">/SwapChain.hpp</text>
</a>
</g>
</g>
<!-- Node6&#45;&gt;Node13 -->
<g id="edge49" class="edge">
<title>Node6&#45;&gt;Node13</title>
<path fill="none" stroke="midnightblue" d="M644.28,-727.39C699.6,-712.04 770,-680.51 770,-619.5 770,-619.5 770,-619.5 770,-416.5 770,-371.36 745.72,-322.13 732.44,-298.59"/>
<polygon fill="midnightblue" stroke="midnightblue" points="643.27,-724.04 634.5,-729.99 645.06,-730.81 643.27,-724.04"/>
</g>
<!-- Node14 -->
<g id="node14" class="node">
<title>Node14</title>
<g id="a_node14"><a xlink:href="_pipeline_8hpp.html" target="_top" xlink:title=" ">
<polygon fill="none" stroke="black" points="794.5,-134.5 794.5,-164.5 905.5,-164.5 905.5,-134.5 794.5,-134.5"/>
<text text-anchor="start" x="802.5" y="-152.5" font-family="Helvetica,sans-Serif" font-size="10.00">include/york/Graphics</text>
<text text-anchor="middle" x="850" y="-141.5" font-family="Helvetica,sans-Serif" font-size="10.00">/Pipeline.hpp</text>
</a>
</g>
</g>
<!-- Node6&#45;&gt;Node14 -->
<g id="edge43" class="edge">
<title>Node6&#45;&gt;Node14</title>
<path fill="none" stroke="midnightblue" d="M645.06,-739.06C786.32,-734.19 1105,-712.86 1105,-619.5 1105,-619.5 1105,-619.5 1105,-282.5 1105,-193.39 980.68,-164.37 905.65,-154.96"/>
<polygon fill="midnightblue" stroke="midnightblue" points="644.67,-735.57 634.79,-739.4 644.9,-742.57 644.67,-735.57"/>
</g>
<!-- Node15 -->
<g id="node15" class="node">
<title>Node15</title>
<g id="a_node15"><a xlink:href="_render_pass_8hpp.html" target="_top" xlink:title=" ">
<polygon fill="none" stroke="black" points="752.5,-201.5 752.5,-231.5 863.5,-231.5 863.5,-201.5 752.5,-201.5"/>
<text text-anchor="start" x="760.5" y="-219.5" font-family="Helvetica,sans-Serif" font-size="10.00">include/york/Graphics</text>
<text text-anchor="middle" x="808" y="-208.5" font-family="Helvetica,sans-Serif" font-size="10.00">/RenderPass.hpp</text>
</a>
</g>
</g>
<!-- Node6&#45;&gt;Node15 -->
<g id="edge45" class="edge">
<title>Node6&#45;&gt;Node15</title>
<path fill="none" stroke="midnightblue" d="M644.91,-733.68C712.56,-722.61 808,-693.81 808,-619.5 808,-619.5 808,-619.5 808,-349.5 808,-306.65 808,-255.97 808,-231.76"/>
<polygon fill="midnightblue" stroke="midnightblue" points="644.08,-730.27 634.73,-735.25 645.14,-737.19 644.08,-730.27"/>
</g>
<!-- Node16 -->
<g id="node16" class="node">
<title>Node16</title>
<g id="a_node16"><a xlink:href="_pipeline_layout_8hpp.html" target="_top" xlink:title=" ">
<polygon fill="none" stroke="black" points="965.5,-335.5 965.5,-365.5 1076.5,-365.5 1076.5,-335.5 965.5,-335.5"/>
<text text-anchor="start" x="973.5" y="-353.5" font-family="Helvetica,sans-Serif" font-size="10.00">include/york/Graphics</text>
<text text-anchor="middle" x="1021" y="-342.5" font-family="Helvetica,sans-Serif" font-size="10.00">/PipelineLayout.hpp</text>
</a>
</g>
</g>
<!-- Node6&#45;&gt;Node16 -->
<g id="edge44" class="edge">
<title>Node6&#45;&gt;Node16</title>
<path fill="none" stroke="midnightblue" d="M644.79,-736.93C702.69,-731.86 788.25,-719.6 857,-690 905.62,-669.07 953,-672.44 953,-619.5 953,-619.5 953,-619.5 953,-483.5 953,-436.07 988.13,-388.63 1007.89,-365.69"/>
<polygon fill="midnightblue" stroke="midnightblue" points="644.34,-733.45 634.66,-737.76 644.92,-740.43 644.34,-733.45"/>
</g>
<!-- Node17 -->
<g id="node17" class="node">
<title>Node17</title>
<g id="a_node17"><a xlink:href="_semaphore_8hpp.html" target="_top" xlink:title=" ">
<polygon fill="none" stroke="black" points="294.5,-201.5 294.5,-231.5 405.5,-231.5 405.5,-201.5 294.5,-201.5"/>
<text text-anchor="start" x="302.5" y="-219.5" font-family="Helvetica,sans-Serif" font-size="10.00">include/york/Graphics</text>
<text text-anchor="middle" x="350" y="-208.5" font-family="Helvetica,sans-Serif" font-size="10.00">/Semaphore.hpp</text>
</a>
</g>
</g>
<!-- Node6&#45;&gt;Node17 -->
<g id="edge46" class="edge">
<title>Node6&#45;&gt;Node17</title>
<path fill="none" stroke="midnightblue" d="M513.21,-731.54C411.58,-715.82 228,-679.17 228,-619.5 228,-619.5 228,-619.5 228,-349.5 228,-294.27 286.32,-252.31 322.32,-231.67"/>
<polygon fill="midnightblue" stroke="midnightblue" points="512.97,-735.04 523.38,-733.08 514.02,-728.12 512.97,-735.04"/>
</g>
<!-- Node18 -->
<g id="node18" class="node">
<title>Node18</title>
<g id="a_node18"><a xlink:href="_shader_8hpp.html" target="_top" xlink:title=" ">
<polygon fill="none" stroke="black" points="836.5,-335.5 836.5,-365.5 947.5,-365.5 947.5,-335.5 836.5,-335.5"/>
<text text-anchor="start" x="844.5" y="-353.5" font-family="Helvetica,sans-Serif" font-size="10.00">include/york/Graphics</text>
<text text-anchor="middle" x="892" y="-342.5" font-family="Helvetica,sans-Serif" font-size="10.00">/Shader.hpp</text>
</a>
</g>
</g>
<!-- Node6&#45;&gt;Node18 -->
<g id="edge47" class="edge">
<title>Node6&#45;&gt;Node18</title>
<path fill="none" stroke="midnightblue" d="M644.73,-740.63C730.29,-736.95 869,-716.09 869,-619.5 869,-619.5 869,-619.5 869,-483.5 869,-440 881.27,-389.62 887.89,-365.62"/>
<polygon fill="midnightblue" stroke="midnightblue" points="644.44,-737.14 634.57,-741 644.69,-744.14 644.44,-737.14"/>
</g>
<!-- Node19 -->
<g id="node19" class="node">
<title>Node19</title>
<g id="a_node19"><a xlink:href="_instance_8hpp.html" target="_top" xlink:title=" ">
<polygon fill="none" stroke="black" points="630.5,-603.5 630.5,-633.5 741.5,-633.5 741.5,-603.5 630.5,-603.5"/>
<text text-anchor="start" x="638.5" y="-621.5" font-family="Helvetica,sans-Serif" font-size="10.00">include/york/Graphics</text>
<text text-anchor="middle" x="686" y="-610.5" font-family="Helvetica,sans-Serif" font-size="10.00">/Instance.hpp</text>
</a>
</g>
</g>
<!-- Node6&#45;&gt;Node19 -->
<g id="edge37" class="edge">
<title>Node6&#45;&gt;Node19</title>
<path fill="none" stroke="midnightblue" d="M643.83,-722.6C659.54,-715.11 674.52,-704.61 684,-690 694.93,-673.15 692.68,-648.96 689.64,-633.74"/>
<polygon fill="midnightblue" stroke="midnightblue" points="642.29,-719.46 634.54,-726.68 645.1,-725.87 642.29,-719.46"/>
</g>
<!-- Node20 -->
<g id="node20" class="node">
<title>Node20</title>
<g id="a_node20"><a xlink:href="_surface_8hpp.html" target="_top" xlink:title=" ">
<polygon fill="none" stroke="black" points="554.5,-536.5 554.5,-566.5 665.5,-566.5 665.5,-536.5 554.5,-536.5"/>
<text text-anchor="start" x="562.5" y="-554.5" font-family="Helvetica,sans-Serif" font-size="10.00">include/york/Graphics</text>
<text text-anchor="middle" x="610" y="-543.5" font-family="Helvetica,sans-Serif" font-size="10.00">/Surface.hpp</text>
</a>
</g>
</g>
<!-- Node6&#45;&gt;Node20 -->
<g id="edge48" class="edge">
<title>Node6&#45;&gt;Node20</title>
<path fill="none" stroke="midnightblue" d="M620.39,-721.16C632.48,-713.3 644.25,-702.97 651,-690 663.93,-665.13 633.23,-659.68 622,-634 612.32,-611.85 610.19,-583.43 609.86,-566.67"/>
<polygon fill="midnightblue" stroke="midnightblue" points="618.36,-718.29 611.59,-726.44 621.96,-724.29 618.36,-718.29"/>
</g>
<!-- Node22 -->
<g id="node22" class="node">
<title>Node22</title>
<g id="a_node22"><a xlink:href="_window_8hpp.html" target="_top" xlink:title=" ">
<polygon fill="none" stroke="black" points="516.5,-670.5 516.5,-689.5 641.5,-689.5 641.5,-670.5 516.5,-670.5"/>
<text text-anchor="middle" x="579" y="-677.5" font-family="Helvetica,sans-Serif" font-size="10.00">include/york/Window.hpp</text>
</a>
</g>
</g>
<!-- Node6&#45;&gt;Node22 -->
<g id="edge50" class="edge">
<title>Node6&#45;&gt;Node22</title>
<path fill="none" stroke="midnightblue" d="M579,-716.29C579,-706.86 579,-696.65 579,-689.66"/>
<polygon fill="midnightblue" stroke="midnightblue" points="575.5,-716.4 579,-726.4 582.5,-716.4 575.5,-716.4"/>
</g>
<!-- Node7&#45;&gt;Node5 -->
<g id="edge10" class="edge">
<title>Node7&#45;&gt;Node5</title>
<path fill="none" stroke="midnightblue" d="M521.83,-258.21C527.19,-216.33 532.83,-129.06 499,-67 490.52,-51.44 475,-39.11 461.26,-30.52"/>
<polygon fill="midnightblue" stroke="midnightblue" points="518.34,-257.91 520.43,-268.3 525.27,-258.88 518.34,-257.91"/>
</g>
<!-- Node8 -->
<g id="node8" class="node">
<title>Node8</title>
<g id="a_node8"><a xlink:href="_frame_data_8hpp.html" target="_top" xlink:title=" ">
<polygon fill="none" stroke="black" points="378.5,-67.5 378.5,-97.5 489.5,-97.5 489.5,-67.5 378.5,-67.5"/>
<text text-anchor="start" x="386.5" y="-85.5" font-family="Helvetica,sans-Serif" font-size="10.00">include/york/Graphics</text>
<text text-anchor="middle" x="434" y="-74.5" font-family="Helvetica,sans-Serif" font-size="10.00">/FrameData.hpp</text>
</a>
</g>
</g>
<!-- Node7&#45;&gt;Node8 -->
<g id="edge8" class="edge">
<title>Node7&#45;&gt;Node8</title>
<path fill="none" stroke="midnightblue" d="M508,-258.8C490.36,-217.01 454.25,-131.47 439.99,-97.68"/>
<polygon fill="midnightblue" stroke="midnightblue" points="504.85,-260.34 511.96,-268.19 511.29,-257.61 504.85,-260.34"/>
</g>
<!-- Node8&#45;&gt;Node5 -->
<g id="edge9" class="edge">
<title>Node8&#45;&gt;Node5</title>
<path fill="none" stroke="midnightblue" d="M434,-57.11C434,-48.15 434,-38.32 434,-30.58"/>
<polygon fill="midnightblue" stroke="midnightblue" points="430.5,-57.4 434,-67.4 437.5,-57.4 430.5,-57.4"/>
</g>
<!-- Node9&#45;&gt;Node7 -->
<g id="edge12" class="edge">
<title>Node9&#45;&gt;Node7</title>
<path fill="none" stroke="midnightblue" d="M611.07,-396.44C599.53,-387.76 586.52,-377.06 576,-366 555.65,-344.61 536.75,-315.69 526.35,-298.67"/>
<polygon fill="midnightblue" stroke="midnightblue" points="609.03,-399.28 619.16,-402.38 613.17,-393.64 609.03,-399.28"/>
</g>
<!-- Node9&#45;&gt;Node10 -->
<g id="edge13" class="edge">
<title>Node9&#45;&gt;Node10</title>
<path fill="none" stroke="midnightblue" d="M574.53,-401.83C523.73,-390.44 454.07,-374.83 405.88,-364.02"/>
<polygon fill="midnightblue" stroke="midnightblue" points="573.9,-405.27 584.43,-404.04 575.44,-398.44 573.9,-405.27"/>
</g>
<!-- Node9&#45;&gt;Node11 -->
<g id="edge15" class="edge">
<title>Node9&#45;&gt;Node11</title>
<path fill="none" stroke="midnightblue" d="M640,-392.11C640,-383.15 640,-373.32 640,-365.58"/>
<polygon fill="midnightblue" stroke="midnightblue" points="636.5,-392.4 640,-402.4 643.5,-392.4 636.5,-392.4"/>
</g>
<!-- Node9&#45;&gt;Node13 -->
<g id="edge33" class="edge">
<title>Node9&#45;&gt;Node13</title>
<path fill="none" stroke="midnightblue" d="M674.27,-396.6C685.59,-388.46 697.26,-378.08 705,-366 718.4,-345.08 722.38,-315.74 723.54,-298.57"/>
<polygon fill="midnightblue" stroke="midnightblue" points="672.06,-393.87 665.75,-402.39 675.99,-399.67 672.06,-393.87"/>
</g>
<!-- Node9&#45;&gt;Node16 -->
<g id="edge26" class="edge">
<title>Node9&#45;&gt;Node16</title>
<path fill="none" stroke="midnightblue" d="M705.73,-407.3C769.99,-398 870.52,-382.67 957,-366 959.68,-365.48 962.43,-364.93 965.2,-364.37"/>
<polygon fill="midnightblue" stroke="midnightblue" points="705.14,-403.85 695.74,-408.74 706.13,-410.78 705.14,-403.85"/>
</g>
<!-- Node9&#45;&gt;Node17 -->
<g id="edge28" class="edge">
<title>Node9&#45;&gt;Node17</title>
<path fill="none" stroke="midnightblue" d="M602.61,-397.59C585.39,-388.52 564.85,-377.21 547,-366 476.64,-321.8 399.79,-259.31 366.69,-231.63"/>
<polygon fill="midnightblue" stroke="midnightblue" points="601.32,-400.86 611.8,-402.38 604.55,-394.65 601.32,-400.86"/>
</g>
<!-- Node9&#45;&gt;Node18 -->
<g id="edge31" class="edge">
<title>Node9&#45;&gt;Node18</title>
<path fill="none" stroke="midnightblue" d="M704.29,-399.92C745.41,-389.31 798.18,-375.7 837.29,-365.61"/>
<polygon fill="midnightblue" stroke="midnightblue" points="703.18,-396.59 694.37,-402.48 704.93,-403.37 703.18,-396.59"/>
</g>
<!-- Node10&#45;&gt;Node8 -->
<g id="edge14" class="edge">
<title>Node10&#45;&gt;Node8</title>
<path fill="none" stroke="midnightblue" d="M365.73,-327.19C380.97,-304.39 403.41,-267.4 415,-232 430.52,-184.57 433.45,-124.75 433.94,-97.81"/>
<polygon fill="midnightblue" stroke="midnightblue" points="362.82,-325.24 360.09,-335.48 368.61,-329.18 362.82,-325.24"/>
</g>
<!-- Node11&#45;&gt;Node12 -->
<g id="edge16" class="edge">
<title>Node11&#45;&gt;Node12</title>
<path fill="none" stroke="midnightblue" d="M636.92,-325.3C632.98,-295.78 625.5,-244.44 616,-201 613.28,-188.56 609.35,-174.62 606.34,-164.55"/>
<polygon fill="midnightblue" stroke="midnightblue" points="633.49,-326.02 638.26,-335.48 640.43,-325.11 633.49,-326.02"/>
</g>
<!-- Node11&#45;&gt;Node13 -->
<g id="edge19" class="edge">
<title>Node11&#45;&gt;Node13</title>
<path fill="none" stroke="midnightblue" d="M666.28,-329.17C679.12,-319.23 694.26,-307.51 705.81,-298.58"/>
<polygon fill="midnightblue" stroke="midnightblue" points="663.99,-326.51 658.23,-335.4 668.28,-332.04 663.99,-326.51"/>
</g>
<!-- Node12&#45;&gt;Node5 -->
<g id="edge18" class="edge">
<title>Node12&#45;&gt;Node5</title>
<path fill="none" stroke="midnightblue" d="M586.3,-125.81C573.26,-108.17 553.44,-83.93 532,-67 512.92,-51.93 488.66,-39.39 469.04,-30.57"/>
<polygon fill="midnightblue" stroke="midnightblue" points="583.78,-128.3 592.47,-134.36 589.45,-124.2 583.78,-128.3"/>
</g>
<!-- Node12&#45;&gt;Node8 -->
<g id="edge17" class="edge">
<title>Node12&#45;&gt;Node8</title>
<path fill="none" stroke="midnightblue" d="M555.95,-130.68C529,-120.26 495.46,-107.28 470.38,-97.58"/>
<polygon fill="midnightblue" stroke="midnightblue" points="554.96,-134.05 565.55,-134.4 557.48,-127.52 554.96,-134.05"/>
</g>
<!-- Node13&#45;&gt;Node8 -->
<g id="edge20" class="edge">
<title>Node13&#45;&gt;Node8</title>
<path fill="none" stroke="midnightblue" d="M721.67,-257.89C717.15,-224.62 704.1,-165.82 667,-134 640.8,-111.54 549.88,-96.91 489.66,-89.44"/>
<polygon fill="midnightblue" stroke="midnightblue" points="718.23,-258.6 722.89,-268.12 725.18,-257.77 718.23,-258.6"/>
</g>
<!-- Node13&#45;&gt;Node14 -->
<g id="edge21" class="edge">
<title>Node13&#45;&gt;Node14</title>
<path fill="none" stroke="midnightblue" d="M724.58,-258.11C726.18,-240.51 730.9,-217.09 744,-201 757.9,-183.93 778.94,-172.27 798.62,-164.5"/>
<polygon fill="midnightblue" stroke="midnightblue" points="721.08,-258.01 723.94,-268.21 728.07,-258.45 721.08,-258.01"/>
</g>
<!-- Node13&#45;&gt;Node15 -->
<g id="edge23" class="edge">
<title>Node13&#45;&gt;Node15</title>
<path fill="none" stroke="midnightblue" d="M750.28,-262.17C763.12,-252.23 778.26,-240.51 789.81,-231.58"/>
<polygon fill="midnightblue" stroke="midnightblue" points="747.99,-259.51 742.23,-268.4 752.28,-265.04 747.99,-259.51"/>
</g>
<!-- Node14&#45;&gt;Node5 -->
<g id="edge22" class="edge">
<title>Node14&#45;&gt;Node5</title>
<path fill="none" stroke="midnightblue" d="M796.12,-131.4C713.03,-105.04 555.18,-54.95 478.3,-30.56"/>
<polygon fill="midnightblue" stroke="midnightblue" points="795.28,-134.81 805.87,-134.5 797.4,-128.14 795.28,-134.81"/>
</g>
<!-- Node15&#45;&gt;Node12 -->
<g id="edge24" class="edge">
<title>Node15&#45;&gt;Node12</title>
<path fill="none" stroke="midnightblue" d="M753.95,-198.44C720.55,-187.91 678.22,-174.55 646.72,-164.61"/>
<polygon fill="midnightblue" stroke="midnightblue" points="752.96,-201.8 763.55,-201.48 755.07,-195.13 752.96,-201.8"/>
</g>
<!-- Node15&#45;&gt;Node14 -->
<g id="edge25" class="edge">
<title>Node15&#45;&gt;Node14</title>
<path fill="none" stroke="midnightblue" d="M822.62,-192.87C828.7,-183.46 835.57,-172.83 840.9,-164.58"/>
<polygon fill="midnightblue" stroke="midnightblue" points="819.6,-191.1 817.11,-201.4 825.48,-194.9 819.6,-191.1"/>
</g>
<!-- Node16&#45;&gt;Node14 -->
<g id="edge27" class="edge">
<title>Node16&#45;&gt;Node14</title>
<path fill="none" stroke="midnightblue" d="M1001.98,-327.37C966.6,-286.19 891.59,-198.9 862.19,-164.68"/>
<polygon fill="midnightblue" stroke="midnightblue" points="999.53,-329.88 1008.7,-335.19 1004.84,-325.32 999.53,-329.88"/>
</g>
<!-- Node17&#45;&gt;Node5 -->
<g id="edge30" class="edge">
<title>Node17&#45;&gt;Node5</title>
<path fill="none" stroke="midnightblue" d="M347.91,-191C346.41,-160.03 347.73,-106.04 370,-67 378.76,-51.63 394.23,-39.23 407.76,-30.56"/>
<polygon fill="midnightblue" stroke="midnightblue" points="344.43,-191.54 348.55,-201.3 351.42,-191.1 344.43,-191.54"/>
</g>
<!-- Node17&#45;&gt;Node8 -->
<g id="edge29" class="edge">
<title>Node17&#45;&gt;Node8</title>
<path fill="none" stroke="midnightblue" d="M364.42,-192.83C381.84,-165.47 410.59,-120.28 425.08,-97.52"/>
<polygon fill="midnightblue" stroke="midnightblue" points="361.41,-191.06 358.99,-201.37 367.31,-194.82 361.41,-191.06"/>
</g>
<!-- Node18&#45;&gt;Node14 -->
<g id="edge32" class="edge">
<title>Node18&#45;&gt;Node14</title>
<path fill="none" stroke="midnightblue" d="M891.11,-325C889.52,-295.19 885.11,-243.56 873,-201 869.36,-188.21 862.96,-174.54 857.84,-164.65"/>
<polygon fill="midnightblue" stroke="midnightblue" points="887.63,-325.47 891.59,-335.3 894.62,-325.14 887.63,-325.47"/>
</g>
<!-- Node19&#45;&gt;Node9 -->
<g id="edge38" class="edge">
<title>Node19&#45;&gt;Node9</title>
<path fill="none" stroke="midnightblue" d="M692.47,-593.22C699.28,-562.89 706.86,-510 690,-469 683.95,-454.28 671.3,-441.57 660.24,-432.59"/>
<polygon fill="midnightblue" stroke="midnightblue" points="688.98,-592.77 690.05,-603.31 695.79,-594.4 688.98,-592.77"/>
</g>
<!-- Node19&#45;&gt;Node20 -->
<g id="edge39" class="edge">
<title>Node19&#45;&gt;Node20</title>
<path fill="none" stroke="midnightblue" d="M661.89,-596.88C650.34,-587.01 636.81,-575.43 626.46,-566.58"/>
<polygon fill="midnightblue" stroke="midnightblue" points="659.63,-599.56 669.51,-603.4 664.18,-594.24 659.63,-599.56"/>
</g>
<!-- Node20&#45;&gt;Node9 -->
<g id="edge40" class="edge">
<title>Node20&#45;&gt;Node9</title>
<path fill="none" stroke="midnightblue" d="M646.95,-530.72C658.05,-522.76 668.89,-512.48 675,-500 686.37,-476.76 667.75,-448.93 653.6,-432.53"/>
<polygon fill="midnightblue" stroke="midnightblue" points="644.87,-527.9 638.48,-536.35 648.75,-533.72 644.87,-527.9"/>
</g>
<!-- Node21 -->
<g id="node21" class="node">
<title>Node21</title>
<g id="a_node21"><a xlink:href="_physical_device_8hpp.html" target="_top" xlink:title=" ">
<polygon fill="none" stroke="black" points="554.5,-469.5 554.5,-499.5 665.5,-499.5 665.5,-469.5 554.5,-469.5"/>
<text text-anchor="start" x="562.5" y="-487.5" font-family="Helvetica,sans-Serif" font-size="10.00">include/york/Graphics</text>
<text text-anchor="middle" x="610" y="-476.5" font-family="Helvetica,sans-Serif" font-size="10.00">/PhysicalDevice.hpp</text>
</a>
</g>
</g>
<!-- Node20&#45;&gt;Node21 -->
<g id="edge41" class="edge">
<title>Node20&#45;&gt;Node21</title>
<path fill="none" stroke="midnightblue" d="M610,-526.11C610,-517.15 610,-507.32 610,-499.58"/>
<polygon fill="midnightblue" stroke="midnightblue" points="606.5,-526.4 610,-536.4 613.5,-526.4 606.5,-526.4"/>
</g>
<!-- Node21&#45;&gt;Node9 -->
<g id="edge42" class="edge">
<title>Node21&#45;&gt;Node9</title>
<path fill="none" stroke="midnightblue" d="M620.72,-460.28C624.99,-451.02 629.77,-440.66 633.5,-432.58"/>
<polygon fill="midnightblue" stroke="midnightblue" points="617.52,-458.85 616.51,-469.4 623.88,-461.78 617.52,-458.85"/>
</g>
<!-- Node22&#45;&gt;Node5 -->
<g id="edge53" class="edge">
<title>Node22&#45;&gt;Node5</title>
<path fill="none" stroke="midnightblue" d="M566.59,-662.15C546.2,-634.81 503.88,-579.43 464,-536 367.78,-431.22 266,-426.76 266,-284.5 266,-284.5 266,-284.5 266,-148.5 266,-86.37 337.92,-49.03 387.65,-30.64"/>
<polygon fill="midnightblue" stroke="midnightblue" points="563.86,-664.35 572.63,-670.3 569.49,-660.18 563.86,-664.35"/>
</g>
<!-- Node22&#45;&gt;Node19 -->
<g id="edge51" class="edge">
<title>Node22&#45;&gt;Node19</title>
<path fill="none" stroke="midnightblue" d="M603.2,-665.54C620.38,-655.99 643.38,-643.2 660.78,-633.52"/>
<polygon fill="midnightblue" stroke="midnightblue" points="601.37,-662.56 594.33,-670.48 604.77,-668.67 601.37,-662.56"/>
</g>
<!-- Node22&#45;&gt;Node20 -->
<g id="edge52" class="edge">
<title>Node22&#45;&gt;Node20</title>
<path fill="none" stroke="midnightblue" d="M579.71,-660.04C580.65,-644.48 582.85,-622.01 588,-603 591.45,-590.26 597.57,-576.58 602.48,-566.68"/>
<polygon fill="midnightblue" stroke="midnightblue" points="576.19,-660.25 579.2,-670.41 583.18,-660.59 576.19,-660.25"/>
</g>
</g>
</svg>
