<?xml version="1.0" encoding="UTF-8" standalone="no"?>
<!DOCTYPE svg PUBLIC "-//W3C//DTD SVG 1.1//EN"
 "http://www.w3.org/Graphics/SVG/1.1/DTD/svg11.dtd">
<!-- Generated by graphviz version 2.50.0 (20211204.2007)
 -->
<!-- Title: include/york/Graphics/Instance.hpp Pages: 1 -->
<svg width="460pt" height="263pt"
 viewBox="0.00 0.00 460.02 263.00" xmlns="http://www.w3.org/2000/svg" xmlns:xlink="http://www.w3.org/1999/xlink">
<g id="graph0" class="graph" transform="scale(1 1) rotate(0) translate(4 259)">
<title>include/york/Graphics/Instance.hpp</title>
<!-- Node1 -->
<g id="node1" class="node">
<title>Node1</title>
<g id="a_node1"><a xlink:title=" ">
<polygon fill="#bfbfbf" stroke="black" points="78.02,-224.5 78.02,-254.5 189.02,-254.5 189.02,-224.5 78.02,-224.5"/>
<text text-anchor="start" x="86.02" y="-242.5" font-family="Helvetica,sans-Serif" font-size="10.00">include/york/Graphics</text>
<text text-anchor="middle" x="133.52" y="-231.5" font-family="Helvetica,sans-Serif" font-size="10.00">/Instance.hpp</text>
</a>
</g>
</g>
<!-- Node2 -->
<g id="node2" class="node">
<title>Node2</title>
<g id="a_node2"><a xlink:title=" ">
<polygon fill="none" stroke="#bfbfbf" points="174.02,-112.5 174.02,-131.5 215.02,-131.5 215.02,-112.5 174.02,-112.5"/>
<text text-anchor="middle" x="194.52" y="-119.5" font-family="Helvetica,sans-Serif" font-size="10.00">string</text>
</a>
</g>
</g>
<!-- Node1&#45;&gt;Node2 -->
<g id="edge1" class="edge">
<title>Node1&#45;&gt;Node2</title>
<path fill="none" stroke="midnightblue" d="M77.9,-226.46C38,-215.19 -5.19,-195.88 16.52,-168 34.46,-144.96 117.9,-131.85 163.89,-126.26"/>
<polygon fill="midnightblue" stroke="midnightblue" points="164.38,-129.72 173.91,-125.08 163.57,-122.77 164.38,-129.72"/>
</g>
<!-- Node3 -->
<g id="node3" class="node">
<title>Node3</title>
<g id="a_node3"><a xlink:title=" ">
<polygon fill="none" stroke="#bfbfbf" points="105.52,-56.5 105.52,-75.5 149.52,-75.5 149.52,-56.5 105.52,-56.5"/>
<text text-anchor="middle" x="127.52" y="-63.5" font-family="Helvetica,sans-Serif" font-size="10.00">vector</text>
</a>
</g>
</g>
<!-- Node1&#45;&gt;Node3 -->
<g id="edge2" class="edge">
<title>Node1&#45;&gt;Node3</title>
<path fill="none" stroke="midnightblue" d="M77.71,-230.63C51.8,-223.88 23.3,-211.33 7.52,-188 -22.91,-143.03 51.97,-100.35 96.8,-79.79"/>
<polygon fill="midnightblue" stroke="midnightblue" points="98.42,-82.9 106.13,-75.63 95.57,-76.5 98.42,-82.9"/>
</g>
<!-- Node4 -->
<g id="node4" class="node">
<title>Node4</title>
<g id="a_node4"><a xlink:title=" ">
<polygon fill="none" stroke="#bfbfbf" points="26.02,-168.5 26.02,-187.5 121.02,-187.5 121.02,-168.5 26.02,-168.5"/>
<text text-anchor="middle" x="73.52" y="-175.5" font-family="Helvetica,sans-Serif" font-size="10.00">vulkan/vulkan.hpp</text>
</a>
</g>
</g>
<!-- Node1&#45;&gt;Node4 -->
<g id="edge3" class="edge">
<title>Node1&#45;&gt;Node4</title>
<path fill="none" stroke="midnightblue" d="M119.3,-224.4C110.31,-215.49 98.68,-203.95 89.39,-194.74"/>
<polygon fill="midnightblue" stroke="midnightblue" points="91.81,-192.21 82.25,-187.66 86.88,-197.18 91.81,-192.21"/>
</g>
<!-- Node5 -->
<g id="node5" class="node">
<title>Node5</title>
<g id="a_node5"><a xlink:href="_handle_8hpp.html" target="_top" xlink:title="Contains the declarations for the Handle classes which form the basis of our Vulkan implementation.">
<polygon fill="none" stroke="black" points="339.52,-112.5 339.52,-131.5 405.52,-131.5 405.52,-112.5 339.52,-112.5"/>
<text text-anchor="middle" x="372.52" y="-119.5" font-family="Helvetica,sans-Serif" font-size="10.00">Handle.hpp</text>
</a>
</g>
</g>
<!-- Node1&#45;&gt;Node5 -->
<g id="edge4" class="edge">
<title>Node1&#45;&gt;Node5</title>
<path fill="none" stroke="midnightblue" d="M189.07,-234.18C251.03,-228.1 345.59,-214.66 368.52,-188 379.22,-175.55 379.07,-156.32 376.93,-142"/>
<polygon fill="midnightblue" stroke="midnightblue" points="380.29,-140.95 374.96,-131.79 373.42,-142.27 380.29,-140.95"/>
</g>
<!-- Node9 -->
<g id="node9" class="node">
<title>Node9</title>
<g id="a_node9"><a xlink:href="_requestable_item_8hpp.html" target="_top" xlink:title=" ">
<polygon fill="none" stroke="black" points="139.52,-168.5 139.52,-187.5 249.52,-187.5 249.52,-168.5 139.52,-168.5"/>
<text text-anchor="middle" x="194.52" y="-175.5" font-family="Helvetica,sans-Serif" font-size="10.00">RequestableItem.hpp</text>
</a>
</g>
</g>
<!-- Node1&#45;&gt;Node9 -->
<g id="edge9" class="edge">
<title>Node1&#45;&gt;Node9</title>
<path fill="none" stroke="midnightblue" d="M147.97,-224.4C157.11,-215.49 168.93,-203.95 178.38,-194.74"/>
<polygon fill="midnightblue" stroke="midnightblue" points="180.92,-197.15 185.64,-187.66 176.04,-192.13 180.92,-197.15"/>
</g>
<!-- Node10 -->
<g id="node10" class="node">
<title>Node10</title>
<g id="a_node10"><a xlink:href="_window_8hpp.html" target="_top" xlink:title=" ">
<polygon fill="none" stroke="black" points="268.02,-168.5 268.02,-187.5 359.02,-187.5 359.02,-168.5 268.02,-168.5"/>
<text text-anchor="middle" x="313.52" y="-175.5" font-family="Helvetica,sans-Serif" font-size="10.00">york/Window.hpp</text>
</a>
</g>
</g>
<!-- Node1&#45;&gt;Node10 -->
<g id="edge11" class="edge">
<title>Node1&#45;&gt;Node10</title>
<path fill="none" stroke="midnightblue" d="M176.17,-224.4C207.14,-214.16 248.56,-200.47 277.79,-190.81"/>
<polygon fill="midnightblue" stroke="midnightblue" points="279.19,-194.03 287.59,-187.57 276.99,-187.39 279.19,-194.03"/>
</g>
<!-- Node5&#45;&gt;Node3 -->
<g id="edge5" class="edge">
<title>Node5&#45;&gt;Node3</title>
<path fill="none" stroke="midnightblue" d="M339.47,-113.72C292.24,-103.31 205.98,-84.29 159.39,-74.03"/>
<polygon fill="midnightblue" stroke="midnightblue" points="160.06,-70.59 149.54,-71.85 158.55,-77.42 160.06,-70.59"/>
</g>
<!-- Node6 -->
<g id="node6" class="node">
<title>Node6</title>
<g id="a_node6"><a xlink:title=" ">
<polygon fill="none" stroke="#bfbfbf" points="393.02,-56.5 393.02,-75.5 452.02,-75.5 452.02,-56.5 393.02,-56.5"/>
<text text-anchor="middle" x="422.52" y="-63.5" font-family="Helvetica,sans-Serif" font-size="10.00">functional</text>
</a>
</g>
</g>
<!-- Node5&#45;&gt;Node6 -->
<g id="edge6" class="edge">
<title>Node5&#45;&gt;Node6</title>
<path fill="none" stroke="midnightblue" d="M380.77,-112.08C387.98,-104.3 398.62,-92.8 407.36,-83.37"/>
<polygon fill="midnightblue" stroke="midnightblue" points="410.19,-85.47 414.41,-75.75 405.05,-80.71 410.19,-85.47"/>
</g>
<!-- Node7 -->
<g id="node7" class="node">
<title>Node7</title>
<g id="a_node7"><a xlink:href="_identifiable_8hpp.html" target="_top" xlink:title=" ">
<polygon fill="none" stroke="black" points="270.52,-56.5 270.52,-75.5 374.52,-75.5 374.52,-56.5 270.52,-56.5"/>
<text text-anchor="middle" x="322.52" y="-63.5" font-family="Helvetica,sans-Serif" font-size="10.00">york/Identifiable.hpp</text>
</a>
</g>
</g>
<!-- Node5&#45;&gt;Node7 -->
<g id="edge7" class="edge">
<title>Node5&#45;&gt;Node7</title>
<path fill="none" stroke="midnightblue" d="M364.26,-112.08C357.05,-104.3 346.41,-92.8 337.67,-83.37"/>
<polygon fill="midnightblue" stroke="midnightblue" points="339.98,-80.71 330.62,-75.75 334.84,-85.47 339.98,-80.71"/>
</g>
<!-- Node8 -->
<g id="node8" class="node">
<title>Node8</title>
<g id="a_node8"><a xlink:title=" ">
<polygon fill="none" stroke="#bfbfbf" points="299.52,-0.5 299.52,-19.5 345.52,-19.5 345.52,-0.5 299.52,-0.5"/>
<text text-anchor="middle" x="322.52" y="-7.5" font-family="Helvetica,sans-Serif" font-size="10.00">cstdint</text>
</a>
</g>
</g>
<!-- Node7&#45;&gt;Node8 -->
<g id="edge8" class="edge">
<title>Node7&#45;&gt;Node8</title>
<path fill="none" stroke="midnightblue" d="M322.52,-56.08C322.52,-49.01 322.52,-38.86 322.52,-29.99"/>
<polygon fill="midnightblue" stroke="midnightblue" points="326.02,-29.75 322.52,-19.75 319.02,-29.75 326.02,-29.75"/>
</g>
<!-- Node9&#45;&gt;Node2 -->
<g id="edge10" class="edge">
<title>Node9&#45;&gt;Node2</title>
<path fill="none" stroke="midnightblue" d="M194.52,-168.08C194.52,-161.01 194.52,-150.86 194.52,-141.99"/>
<polygon fill="midnightblue" stroke="midnightblue" points="198.02,-141.75 194.52,-131.75 191.02,-141.75 198.02,-141.75"/>
</g>
<!-- Node10&#45;&gt;Node2 -->
<g id="edge12" class="edge">
<title>Node10&#45;&gt;Node2</title>
<path fill="none" stroke="midnightblue" d="M294.66,-168.44C275.25,-159.64 244.79,-145.81 222.55,-135.72"/>
<polygon fill="midnightblue" stroke="midnightblue" points="223.84,-132.46 213.28,-131.52 220.94,-138.84 223.84,-132.46"/>
</g>
<!-- Node10&#45;&gt;Node5 -->
<g id="edge14" class="edge">
<title>Node10&#45;&gt;Node5</title>
<path fill="none" stroke="midnightblue" d="M322.99,-168.32C331.72,-160.34 344.86,-148.31 355.41,-138.65"/>
<polygon fill="midnightblue" stroke="midnightblue" points="357.85,-141.17 362.86,-131.83 353.12,-136 357.85,-141.17"/>
</g>
<!-- Node11 -->
<g id="node11" class="node">
<title>Node11</title>
<g id="a_node11"><a xlink:title=" ">
<polygon fill="none" stroke="#bfbfbf" points="248.02,-112.5 248.02,-131.5 321.02,-131.5 321.02,-112.5 248.02,-112.5"/>
<text text-anchor="middle" x="284.52" y="-119.5" font-family="Helvetica,sans-Serif" font-size="10.00">SDL_video.h</text>
</a>
</g>
</g>
<!-- Node10&#45;&gt;Node11 -->
<g id="edge13" class="edge">
<title>Node10&#45;&gt;Node11</title>
<path fill="none" stroke="midnightblue" d="M308.73,-168.08C304.76,-160.69 298.99,-149.95 294.08,-140.81"/>
<polygon fill="midnightblue" stroke="midnightblue" points="297.03,-138.91 289.21,-131.75 290.86,-142.22 297.03,-138.91"/>
</g>
</g>
</svg>
