<?xml version="1.0" encoding="UTF-8" standalone="no"?>
<!DOCTYPE svg PUBLIC "-//W3C//DTD SVG 1.1//EN"
 "http://www.w3.org/Graphics/SVG/1.1/DTD/svg11.dtd">
<!-- Generated by graphviz version 2.50.0 (20211204.2007)
 -->
<!-- Title: include/york/KeyCodes.hpp Pages: 1 -->
<svg width="276pt" height="196pt"
 viewBox="0.00 0.00 276.00 196.00" xmlns="http://www.w3.org/2000/svg" xmlns:xlink="http://www.w3.org/1999/xlink">
<g id="graph0" class="graph" transform="scale(1 1) rotate(0) translate(4 192)">
<title>include/york/KeyCodes.hpp</title>
<!-- Node1 -->
<g id="node1" class="node">
<title>Node1</title>
<g id="a_node1"><a xlink:title=" ">
<polygon fill="#bfbfbf" stroke="black" points="101.5,-168.5 101.5,-187.5 238.5,-187.5 238.5,-168.5 101.5,-168.5"/>
<text text-anchor="middle" x="170" y="-175.5" font-family="Helvetica,sans-Serif" font-size="10.00">include/york/KeyCodes.hpp</text>
</a>
</g>
</g>
<!-- Node2 -->
<g id="node2" class="node">
<title>Node2</title>
<g id="a_node2"><a xlink:href="_event_8hpp.html" target="_top" xlink:title=" ">
<polygon fill="none" stroke="black" points="112,-112.5 112,-131.5 228,-131.5 228,-112.5 112,-112.5"/>
<text text-anchor="middle" x="170" y="-119.5" font-family="Helvetica,sans-Serif" font-size="10.00">include/york/Event.hpp</text>
</a>
</g>
</g>
<!-- Node1&#45;&gt;Node2 -->
<g id="edge1" class="edge">
<title>Node1&#45;&gt;Node2</title>
<path fill="none" stroke="midnightblue" d="M170,-157.8C170,-148.91 170,-138.78 170,-131.75"/>
<polygon fill="midnightblue" stroke="midnightblue" points="166.5,-158.08 170,-168.08 173.5,-158.08 166.5,-158.08"/>
</g>
<!-- Node3 -->
<g id="node3" class="node">
<title>Node3</title>
<g id="a_node3"><a xlink:href="_layer_8hpp.html" target="_top" xlink:title=" ">
<polygon fill="none" stroke="black" points="71,-56.5 71,-75.5 185,-75.5 185,-56.5 71,-56.5"/>
<text text-anchor="middle" x="128" y="-63.5" font-family="Helvetica,sans-Serif" font-size="10.00">include/york/Layer.hpp</text>
</a>
</g>
</g>
<!-- Node2&#45;&gt;Node3 -->
<g id="edge2" class="edge">
<title>Node2&#45;&gt;Node3</title>
<path fill="none" stroke="midnightblue" d="M156.89,-104.14C149.57,-94.74 140.76,-83.4 134.81,-75.75"/>
<polygon fill="midnightblue" stroke="midnightblue" points="154.16,-106.34 163.06,-112.08 159.69,-102.04 154.16,-106.34"/>
</g>
<!-- Node5 -->
<g id="node5" class="node">
<title>Node5</title>
<g id="a_node5"><a xlink:href="_york_8hpp.html" target="_top" xlink:title=" ">
<polygon fill="none" stroke="black" points="158,-0.5 158,-19.5 268,-19.5 268,-0.5 158,-0.5"/>
<text text-anchor="middle" x="213" y="-7.5" font-family="Helvetica,sans-Serif" font-size="10.00">include/york/York.hpp</text>
</a>
</g>
</g>
<!-- Node2&#45;&gt;Node5 -->
<g id="edge5" class="edge">
<title>Node2&#45;&gt;Node5</title>
<path fill="none" stroke="midnightblue" d="M180.47,-103.4C185.04,-95.25 190.2,-85.33 194,-76 201.99,-56.4 208.14,-32.23 211.08,-19.6"/>
<polygon fill="midnightblue" stroke="midnightblue" points="177.3,-101.89 175.34,-112.3 183.37,-105.38 177.3,-101.89"/>
</g>
<!-- Node4 -->
<g id="node4" class="node">
<title>Node4</title>
<g id="a_node4"><a xlink:href="_layer_stack_8hpp.html" target="_top" xlink:title=" ">
<polygon fill="none" stroke="black" points="0,-0.5 0,-19.5 140,-19.5 140,-0.5 0,-0.5"/>
<text text-anchor="middle" x="70" y="-7.5" font-family="Helvetica,sans-Serif" font-size="10.00">include/york/LayerStack.hpp</text>
</a>
</g>
</g>
<!-- Node3&#45;&gt;Node4 -->
<g id="edge3" class="edge">
<title>Node3&#45;&gt;Node4</title>
<path fill="none" stroke="midnightblue" d="M111.09,-49.25C100.8,-39.67 88.03,-27.79 79.49,-19.83"/>
<polygon fill="midnightblue" stroke="midnightblue" points="108.98,-52.07 118.68,-56.32 113.75,-46.95 108.98,-52.07"/>
</g>
<!-- Node3&#45;&gt;Node5 -->
<g id="edge4" class="edge">
<title>Node3&#45;&gt;Node5</title>
<path fill="none" stroke="midnightblue" d="M150.19,-50.9C165.78,-41 186.13,-28.07 199.38,-19.65"/>
<polygon fill="midnightblue" stroke="midnightblue" points="148.22,-48.01 141.66,-56.32 151.97,-53.92 148.22,-48.01"/>
</g>
</g>
</svg>
