<?xml version="1.0" encoding="UTF-8" standalone="no"?>
<!DOCTYPE svg PUBLIC "-//W3C//DTD SVG 1.1//EN"
 "http://www.w3.org/Graphics/SVG/1.1/DTD/svg11.dtd">
<!-- Generated by graphviz version 2.50.0 (20211204.2007)
 -->
<!-- Title: include/york/Layer.hpp Pages: 1 -->
<svg width="431pt" height="196pt"
 viewBox="0.00 0.00 430.55 196.00" xmlns="http://www.w3.org/2000/svg" xmlns:xlink="http://www.w3.org/1999/xlink">
<g id="graph0" class="graph" transform="scale(1 1) rotate(0) translate(4 192)">
<title>include/york/Layer.hpp</title>
<!-- Node1 -->
<g id="node1" class="node">
<title>Node1</title>
<g id="a_node1"><a xlink:title=" ">
<polygon fill="#bfbfbf" stroke="black" points="219.05,-168.5 219.05,-187.5 333.05,-187.5 333.05,-168.5 219.05,-168.5"/>
<text text-anchor="middle" x="276.05" y="-175.5" font-family="Helvetica,sans-Serif" font-size="10.00">include/york/Layer.hpp</text>
</a>
</g>
</g>
<!-- Node2 -->
<g id="node2" class="node">
<title>Node2</title>
<g id="a_node2"><a xlink:href="_event_8hpp.html" target="_top" xlink:title=" ">
<polygon fill="none" stroke="black" points="216.55,-112.5 216.55,-131.5 277.55,-131.5 277.55,-112.5 216.55,-112.5"/>
<text text-anchor="middle" x="247.05" y="-119.5" font-family="Helvetica,sans-Serif" font-size="10.00">Event.hpp</text>
</a>
</g>
</g>
<!-- Node1&#45;&gt;Node2 -->
<g id="edge1" class="edge">
<title>Node1&#45;&gt;Node2</title>
<path fill="none" stroke="midnightblue" d="M271.26,-168.08C267.29,-160.69 261.52,-149.95 256.62,-140.81"/>
<polygon fill="midnightblue" stroke="midnightblue" points="259.56,-138.91 251.75,-131.75 253.4,-142.22 259.56,-138.91"/>
</g>
<!-- Node7 -->
<g id="node7" class="node">
<title>Node7</title>
<g id="a_node7"><a xlink:href="_identifiable_8hpp.html" target="_top" xlink:title=" ">
<polygon fill="none" stroke="black" points="339.55,-56.5 339.55,-75.5 422.55,-75.5 422.55,-56.5 339.55,-56.5"/>
<text text-anchor="middle" x="381.05" y="-63.5" font-family="Helvetica,sans-Serif" font-size="10.00">Identifiable.hpp</text>
</a>
</g>
</g>
<!-- Node1&#45;&gt;Node7 -->
<g id="edge11" class="edge">
<title>Node1&#45;&gt;Node7</title>
<path fill="none" stroke="midnightblue" d="M284.29,-168.37C301.85,-149.97 343.18,-106.67 365.73,-83.05"/>
<polygon fill="midnightblue" stroke="midnightblue" points="368.48,-85.24 372.85,-75.59 363.41,-80.41 368.48,-85.24"/>
</g>
<!-- Node3 -->
<g id="node3" class="node">
<title>Node3</title>
<g id="a_node3"><a xlink:title=" ">
<polygon fill="none" stroke="#bfbfbf" points="257.05,-0.5 257.05,-19.5 301.05,-19.5 301.05,-0.5 257.05,-0.5"/>
<text text-anchor="middle" x="279.05" y="-7.5" font-family="Helvetica,sans-Serif" font-size="10.00">vector</text>
</a>
</g>
</g>
<!-- Node2&#45;&gt;Node3 -->
<g id="edge2" class="edge">
<title>Node2&#45;&gt;Node3</title>
<path fill="none" stroke="midnightblue" d="M259.83,-112.37C270.44,-104.36 284.78,-91.38 291.05,-76 297.2,-60.91 292.83,-42.55 287.73,-29.2"/>
<polygon fill="midnightblue" stroke="midnightblue" points="290.82,-27.54 283.66,-19.73 284.39,-30.3 290.82,-27.54"/>
</g>
<!-- Node4 -->
<g id="node4" class="node">
<title>Node4</title>
<g id="a_node4"><a xlink:title=" ">
<polygon fill="none" stroke="#bfbfbf" points="84.55,-0.5 84.55,-19.5 143.55,-19.5 143.55,-0.5 84.55,-0.5"/>
<text text-anchor="middle" x="114.05" y="-7.5" font-family="Helvetica,sans-Serif" font-size="10.00">functional</text>
</a>
</g>
</g>
<!-- Node2&#45;&gt;Node4 -->
<g id="edge3" class="edge">
<title>Node2&#45;&gt;Node4</title>
<path fill="none" stroke="midnightblue" d="M216.13,-119.95C157.23,-117.23 32.43,-107.76 6.05,-76 -17.15,-48.07 35.1,-29.03 74.74,-19.1"/>
<polygon fill="midnightblue" stroke="midnightblue" points="75.58,-22.5 84.49,-16.77 73.95,-15.69 75.58,-22.5"/>
</g>
<!-- Node5 -->
<g id="node5" class="node">
<title>Node5</title>
<g id="a_node5"><a xlink:title=" ">
<polygon fill="none" stroke="#bfbfbf" points="15.55,-56.5 15.55,-75.5 94.55,-75.5 94.55,-56.5 15.55,-56.5"/>
<text text-anchor="middle" x="55.05" y="-63.5" font-family="Helvetica,sans-Serif" font-size="10.00">SDL_events.h</text>
</a>
</g>
</g>
<!-- Node2&#45;&gt;Node5 -->
<g id="edge4" class="edge">
<title>Node2&#45;&gt;Node5</title>
<path fill="none" stroke="midnightblue" d="M216.63,-112.44C183.77,-103.2 131.27,-88.44 95.08,-78.26"/>
<polygon fill="midnightblue" stroke="midnightblue" points="95.9,-74.85 85.33,-75.52 94.01,-81.59 95.9,-74.85"/>
</g>
<!-- Node6 -->
<g id="node6" class="node">
<title>Node6</title>
<g id="a_node6"><a xlink:href="_key_codes_8hpp.html" target="_top" xlink:title=" ">
<polygon fill="none" stroke="black" points="112.55,-56.5 112.55,-75.5 193.55,-75.5 193.55,-56.5 112.55,-56.5"/>
<text text-anchor="middle" x="153.05" y="-63.5" font-family="Helvetica,sans-Serif" font-size="10.00">KeyCodes.hpp</text>
</a>
</g>
</g>
<!-- Node2&#45;&gt;Node6 -->
<g id="edge5" class="edge">
<title>Node2&#45;&gt;Node6</title>
<path fill="none" stroke="midnightblue" d="M231.95,-112.32C217.15,-103.82 194.36,-90.73 177.07,-80.8"/>
<polygon fill="midnightblue" stroke="midnightblue" points="178.53,-77.6 168.12,-75.65 175.04,-83.67 178.53,-77.6"/>
</g>
<!-- Node2&#45;&gt;Node7 -->
<g id="edge6" class="edge">
<title>Node2&#45;&gt;Node7</title>
<path fill="none" stroke="midnightblue" d="M268.28,-112.44C290.43,-103.52 325.37,-89.44 350.49,-79.32"/>
<polygon fill="midnightblue" stroke="midnightblue" points="351.95,-82.5 359.92,-75.52 349.33,-76.01 351.95,-82.5"/>
</g>
<!-- Node9 -->
<g id="node9" class="node">
<title>Node9</title>
<g id="a_node9"><a xlink:href="_registry_8hpp.html" target="_top" xlink:title=" ">
<polygon fill="none" stroke="black" points="211.55,-56.5 211.55,-75.5 282.55,-75.5 282.55,-56.5 211.55,-56.5"/>
<text text-anchor="middle" x="247.05" y="-63.5" font-family="Helvetica,sans-Serif" font-size="10.00">Registry.hpp</text>
</a>
</g>
</g>
<!-- Node2&#45;&gt;Node9 -->
<g id="edge8" class="edge">
<title>Node2&#45;&gt;Node9</title>
<path fill="none" stroke="midnightblue" d="M247.05,-112.08C247.05,-105.01 247.05,-94.86 247.05,-85.99"/>
<polygon fill="midnightblue" stroke="midnightblue" points="250.55,-85.75 247.05,-75.75 243.55,-85.75 250.55,-85.75"/>
</g>
<!-- Node8 -->
<g id="node8" class="node">
<title>Node8</title>
<g id="a_node8"><a xlink:title=" ">
<polygon fill="none" stroke="#bfbfbf" points="358.05,-0.5 358.05,-19.5 404.05,-19.5 404.05,-0.5 358.05,-0.5"/>
<text text-anchor="middle" x="381.05" y="-7.5" font-family="Helvetica,sans-Serif" font-size="10.00">cstdint</text>
</a>
</g>
</g>
<!-- Node7&#45;&gt;Node8 -->
<g id="edge7" class="edge">
<title>Node7&#45;&gt;Node8</title>
<path fill="none" stroke="midnightblue" d="M381.05,-56.08C381.05,-49.01 381.05,-38.86 381.05,-29.99"/>
<polygon fill="midnightblue" stroke="midnightblue" points="384.55,-29.75 381.05,-19.75 377.55,-29.75 384.55,-29.75"/>
</g>
<!-- Node9&#45;&gt;Node3 -->
<g id="edge9" class="edge">
<title>Node9&#45;&gt;Node3</title>
<path fill="none" stroke="midnightblue" d="M252.33,-56.08C256.76,-48.61 263.21,-37.72 268.67,-28.52"/>
<polygon fill="midnightblue" stroke="midnightblue" points="271.78,-30.14 273.86,-19.75 265.76,-26.57 271.78,-30.14"/>
</g>
<!-- Node9&#45;&gt;Node4 -->
<g id="edge10" class="edge">
<title>Node9&#45;&gt;Node4</title>
<path fill="none" stroke="midnightblue" d="M225.98,-56.44C203.99,-47.52 169.32,-33.44 144.39,-23.32"/>
<polygon fill="midnightblue" stroke="midnightblue" points="145.61,-20.04 135.03,-19.52 142.97,-26.52 145.61,-20.04"/>
</g>
</g>
</svg>
