<?xml version="1.0" encoding="UTF-8" standalone="no"?>
<!DOCTYPE svg PUBLIC "-//W3C//DTD SVG 1.1//EN"
 "http://www.w3.org/Graphics/SVG/1.1/DTD/svg11.dtd">
<!-- Generated by graphviz version 2.50.0 (20211204.2007)
 -->
<!-- Title: include/york/LayerStack.hpp Pages: 1 -->
<svg width="496pt" height="252pt"
 viewBox="0.00 0.00 496.17 252.00" xmlns="http://www.w3.org/2000/svg" xmlns:xlink="http://www.w3.org/1999/xlink">
<g id="graph0" class="graph" transform="scale(1 1) rotate(0) translate(4 248)">
<title>include/york/LayerStack.hpp</title>
<!-- Node1 -->
<g id="node1" class="node">
<title>Node1</title>
<g id="a_node1"><a xlink:title=" ">
<polygon fill="#bfbfbf" stroke="black" points="219.5,-224.5 219.5,-243.5 359.5,-243.5 359.5,-224.5 219.5,-224.5"/>
<text text-anchor="middle" x="289.5" y="-231.5" font-family="Helvetica,sans-Serif" font-size="10.00">include/york/LayerStack.hpp</text>
</a>
</g>
</g>
<!-- Node2 -->
<g id="node2" class="node">
<title>Node2</title>
<g id="a_node2"><a xlink:title=" ">
<polygon fill="none" stroke="#bfbfbf" points="0,-0.5 0,-19.5 59,-19.5 59,-0.5 0,-0.5"/>
<text text-anchor="middle" x="29.5" y="-7.5" font-family="Helvetica,sans-Serif" font-size="10.00">functional</text>
</a>
</g>
</g>
<!-- Node1&#45;&gt;Node2 -->
<g id="edge1" class="edge">
<title>Node1&#45;&gt;Node2</title>
<path fill="none" stroke="midnightblue" d="M258.04,-224.4C201.38,-207.04 83.35,-161.95 32.5,-76 24.32,-62.18 24.3,-43.66 25.9,-29.92"/>
<polygon fill="midnightblue" stroke="midnightblue" points="29.41,-30.14 27.48,-19.72 22.49,-29.06 29.41,-30.14"/>
</g>
<!-- Node3 -->
<g id="node3" class="node">
<title>Node3</title>
<g id="a_node3"><a xlink:title=" ">
<polygon fill="none" stroke="#bfbfbf" points="135.5,-0.5 135.5,-19.5 179.5,-19.5 179.5,-0.5 135.5,-0.5"/>
<text text-anchor="middle" x="157.5" y="-7.5" font-family="Helvetica,sans-Serif" font-size="10.00">vector</text>
</a>
</g>
</g>
<!-- Node1&#45;&gt;Node3 -->
<g id="edge2" class="edge">
<title>Node1&#45;&gt;Node3</title>
<path fill="none" stroke="midnightblue" d="M312.08,-224.39C373.56,-199.73 535.4,-126.16 474.5,-56 437.86,-13.79 263.15,-10.13 189.92,-10.5"/>
<polygon fill="midnightblue" stroke="midnightblue" points="189.85,-7 179.88,-10.58 189.91,-14 189.85,-7"/>
</g>
<!-- Node4 -->
<g id="node4" class="node">
<title>Node4</title>
<g id="a_node4"><a xlink:href="_layer_8hpp.html" target="_top" xlink:title=" ">
<polygon fill="none" stroke="black" points="260,-168.5 260,-187.5 319,-187.5 319,-168.5 260,-168.5"/>
<text text-anchor="middle" x="289.5" y="-175.5" font-family="Helvetica,sans-Serif" font-size="10.00">Layer.hpp</text>
</a>
</g>
</g>
<!-- Node1&#45;&gt;Node4 -->
<g id="edge3" class="edge">
<title>Node1&#45;&gt;Node4</title>
<path fill="none" stroke="midnightblue" d="M289.5,-224.08C289.5,-217.01 289.5,-206.86 289.5,-197.99"/>
<polygon fill="midnightblue" stroke="midnightblue" points="293,-197.75 289.5,-187.75 286,-197.75 293,-197.75"/>
</g>
<!-- Node5 -->
<g id="node5" class="node">
<title>Node5</title>
<g id="a_node5"><a xlink:href="_event_8hpp.html" target="_top" xlink:title=" ">
<polygon fill="none" stroke="black" points="195,-112.5 195,-131.5 256,-131.5 256,-112.5 195,-112.5"/>
<text text-anchor="middle" x="225.5" y="-119.5" font-family="Helvetica,sans-Serif" font-size="10.00">Event.hpp</text>
</a>
</g>
</g>
<!-- Node4&#45;&gt;Node5 -->
<g id="edge4" class="edge">
<title>Node4&#45;&gt;Node5</title>
<path fill="none" stroke="midnightblue" d="M279.22,-168.32C269.66,-160.26 255.22,-148.08 243.72,-138.37"/>
<polygon fill="midnightblue" stroke="midnightblue" points="245.87,-135.61 235.97,-131.83 241.36,-140.96 245.87,-135.61"/>
</g>
<!-- Node8 -->
<g id="node8" class="node">
<title>Node8</title>
<g id="a_node8"><a xlink:href="_identifiable_8hpp.html" target="_top" xlink:title=" ">
<polygon fill="none" stroke="black" points="382,-56.5 382,-75.5 465,-75.5 465,-56.5 382,-56.5"/>
<text text-anchor="middle" x="423.5" y="-63.5" font-family="Helvetica,sans-Serif" font-size="10.00">Identifiable.hpp</text>
</a>
</g>
</g>
<!-- Node4&#45;&gt;Node8 -->
<g id="edge14" class="edge">
<title>Node4&#45;&gt;Node8</title>
<path fill="none" stroke="midnightblue" d="M300.01,-168.37C322.72,-149.73 376.56,-105.53 405.06,-82.13"/>
<polygon fill="midnightblue" stroke="midnightblue" points="407.53,-84.64 413.03,-75.59 403.08,-79.23 407.53,-84.64"/>
</g>
<!-- Node5&#45;&gt;Node2 -->
<g id="edge6" class="edge">
<title>Node5&#45;&gt;Node2</title>
<path fill="none" stroke="midnightblue" d="M194.87,-121.9C155.7,-121.33 88.2,-114.31 48.5,-76 36.08,-64.02 31.66,-44.41 30.14,-29.86"/>
<polygon fill="midnightblue" stroke="midnightblue" points="33.61,-29.26 29.46,-19.52 26.63,-29.73 33.61,-29.26"/>
</g>
<!-- Node5&#45;&gt;Node3 -->
<g id="edge5" class="edge">
<title>Node5&#45;&gt;Node3</title>
<path fill="none" stroke="midnightblue" d="M212.83,-112.46C201.71,-104.32 185.89,-91.11 176.5,-76 167.67,-61.8 162.79,-43.32 160.19,-29.7"/>
<polygon fill="midnightblue" stroke="midnightblue" points="163.61,-28.89 158.51,-19.6 156.7,-30.04 163.61,-28.89"/>
</g>
<!-- Node6 -->
<g id="node6" class="node">
<title>Node6</title>
<g id="a_node6"><a xlink:title=" ">
<polygon fill="none" stroke="#bfbfbf" points="186,-56.5 186,-75.5 265,-75.5 265,-56.5 186,-56.5"/>
<text text-anchor="middle" x="225.5" y="-63.5" font-family="Helvetica,sans-Serif" font-size="10.00">SDL_events.h</text>
</a>
</g>
</g>
<!-- Node5&#45;&gt;Node6 -->
<g id="edge7" class="edge">
<title>Node5&#45;&gt;Node6</title>
<path fill="none" stroke="midnightblue" d="M225.5,-112.08C225.5,-105.01 225.5,-94.86 225.5,-85.99"/>
<polygon fill="midnightblue" stroke="midnightblue" points="229,-85.75 225.5,-75.75 222,-85.75 229,-85.75"/>
</g>
<!-- Node7 -->
<g id="node7" class="node">
<title>Node7</title>
<g id="a_node7"><a xlink:href="_key_codes_8hpp.html" target="_top" xlink:title=" ">
<polygon fill="none" stroke="black" points="283,-56.5 283,-75.5 364,-75.5 364,-56.5 283,-56.5"/>
<text text-anchor="middle" x="323.5" y="-63.5" font-family="Helvetica,sans-Serif" font-size="10.00">KeyCodes.hpp</text>
</a>
</g>
</g>
<!-- Node5&#45;&gt;Node7 -->
<g id="edge8" class="edge">
<title>Node5&#45;&gt;Node7</title>
<path fill="none" stroke="midnightblue" d="M241.25,-112.32C256.82,-103.74 280.88,-90.49 298.96,-80.52"/>
<polygon fill="midnightblue" stroke="midnightblue" points="300.72,-83.55 307.79,-75.65 297.35,-77.42 300.72,-83.55"/>
</g>
<!-- Node5&#45;&gt;Node8 -->
<g id="edge9" class="edge">
<title>Node5&#45;&gt;Node8</title>
<path fill="none" stroke="midnightblue" d="M256,-112.68C289.96,-103.42 345,-88.41 382.66,-78.14"/>
<polygon fill="midnightblue" stroke="midnightblue" points="383.58,-81.51 392.31,-75.51 381.74,-74.76 383.58,-81.51"/>
</g>
<!-- Node10 -->
<g id="node10" class="node">
<title>Node10</title>
<g id="a_node10"><a xlink:href="_registry_8hpp.html" target="_top" xlink:title=" ">
<polygon fill="none" stroke="black" points="58,-56.5 58,-75.5 129,-75.5 129,-56.5 58,-56.5"/>
<text text-anchor="middle" x="93.5" y="-63.5" font-family="Helvetica,sans-Serif" font-size="10.00">Registry.hpp</text>
</a>
</g>
</g>
<!-- Node5&#45;&gt;Node10 -->
<g id="edge11" class="edge">
<title>Node5&#45;&gt;Node10</title>
<path fill="none" stroke="midnightblue" d="M204.58,-112.44C182.76,-103.52 148.35,-89.44 123.61,-79.32"/>
<polygon fill="midnightblue" stroke="midnightblue" points="124.9,-76.06 114.32,-75.52 122.25,-82.54 124.9,-76.06"/>
</g>
<!-- Node9 -->
<g id="node9" class="node">
<title>Node9</title>
<g id="a_node9"><a xlink:title=" ">
<polygon fill="none" stroke="#bfbfbf" points="400.5,-0.5 400.5,-19.5 446.5,-19.5 446.5,-0.5 400.5,-0.5"/>
<text text-anchor="middle" x="423.5" y="-7.5" font-family="Helvetica,sans-Serif" font-size="10.00">cstdint</text>
</a>
</g>
</g>
<!-- Node8&#45;&gt;Node9 -->
<g id="edge10" class="edge">
<title>Node8&#45;&gt;Node9</title>
<path fill="none" stroke="midnightblue" d="M423.5,-56.08C423.5,-49.01 423.5,-38.86 423.5,-29.99"/>
<polygon fill="midnightblue" stroke="midnightblue" points="427,-29.75 423.5,-19.75 420,-29.75 427,-29.75"/>
</g>
<!-- Node10&#45;&gt;Node2 -->
<g id="edge13" class="edge">
<title>Node10&#45;&gt;Node2</title>
<path fill="none" stroke="midnightblue" d="M83.22,-56.32C73.66,-48.26 59.22,-36.08 47.72,-26.37"/>
<polygon fill="midnightblue" stroke="midnightblue" points="49.87,-23.61 39.97,-19.83 45.36,-28.96 49.87,-23.61"/>
</g>
<!-- Node10&#45;&gt;Node3 -->
<g id="edge12" class="edge">
<title>Node10&#45;&gt;Node3</title>
<path fill="none" stroke="midnightblue" d="M103.78,-56.32C113.34,-48.26 127.78,-36.08 139.28,-26.37"/>
<polygon fill="midnightblue" stroke="midnightblue" points="141.64,-28.96 147.03,-19.83 137.13,-23.61 141.64,-28.96"/>
</g>
</g>
</svg>
