<?xml version="1.0" encoding="UTF-8" standalone="no"?>
<!DOCTYPE svg PUBLIC "-//W3C//DTD SVG 1.1//EN"
 "http://www.w3.org/Graphics/SVG/1.1/DTD/svg11.dtd">
<!-- Generated by graphviz version 2.50.0 (20211204.2007)
 -->
<!-- Title: include/york/LayerStack.hpp Pages: 1 -->
<svg width="525pt" height="252pt"
 viewBox="0.00 0.00 524.51 252.00" xmlns="http://www.w3.org/2000/svg" xmlns:xlink="http://www.w3.org/1999/xlink">
<g id="graph0" class="graph" transform="scale(1 1) rotate(0) translate(4 248)">
<title>include/york/LayerStack.hpp</title>
<!-- Node1 -->
<g id="node1" class="node">
<title>Node1</title>
<g id="a_node1"><a xlink:title=" ">
<polygon fill="#bfbfbf" stroke="black" points="237.5,-224.5 237.5,-243.5 377.5,-243.5 377.5,-224.5 237.5,-224.5"/>
<text text-anchor="middle" x="307.5" y="-231.5" font-family="Helvetica,sans-Serif" font-size="10.00">include/york/LayerStack.hpp</text>
</a>
</g>
</g>
<!-- Node2 -->
<g id="node2" class="node">
<title>Node2</title>
<g id="a_node2"><a xlink:title=" ">
<polygon fill="none" stroke="#bfbfbf" points="0,-0.5 0,-19.5 59,-19.5 59,-0.5 0,-0.5"/>
<text text-anchor="middle" x="29.5" y="-7.5" font-family="Helvetica,sans-Serif" font-size="10.00">functional</text>
</a>
</g>
</g>
<!-- Node1&#45;&gt;Node2 -->
<g id="edge1" class="edge">
<title>Node1&#45;&gt;Node2</title>
<path fill="none" stroke="midnightblue" d="M271.51,-224.45C210.12,-207.74 86.58,-164.4 32.5,-76 24.12,-62.3 24.12,-43.77 25.78,-29.99"/>
<polygon fill="midnightblue" stroke="midnightblue" points="29.29,-30.18 27.42,-19.76 22.38,-29.08 29.29,-30.18"/>
</g>
<!-- Node3 -->
<g id="node3" class="node">
<title>Node3</title>
<g id="a_node3"><a xlink:title=" ">
<polygon fill="none" stroke="#bfbfbf" points="135.5,-0.5 135.5,-19.5 179.5,-19.5 179.5,-0.5 135.5,-0.5"/>
<text text-anchor="middle" x="157.5" y="-7.5" font-family="Helvetica,sans-Serif" font-size="10.00">vector</text>
</a>
</g>
</g>
<!-- Node1&#45;&gt;Node3 -->
<g id="edge2" class="edge">
<title>Node1&#45;&gt;Node3</title>
<path fill="none" stroke="midnightblue" d="M331.65,-224.38C396.49,-199.99 565.4,-127.63 502.5,-56 482,-32.65 271.58,-17.76 189.78,-12.82"/>
<polygon fill="midnightblue" stroke="midnightblue" points="189.75,-9.31 179.56,-12.22 189.34,-16.3 189.75,-9.31"/>
</g>
<!-- Node4 -->
<g id="node4" class="node">
<title>Node4</title>
<g id="a_node4"><a xlink:href="_layer_8hpp.html" target="_top" xlink:title=" ">
<polygon fill="none" stroke="black" points="278,-168.5 278,-187.5 337,-187.5 337,-168.5 278,-168.5"/>
<text text-anchor="middle" x="307.5" y="-175.5" font-family="Helvetica,sans-Serif" font-size="10.00">Layer.hpp</text>
</a>
</g>
</g>
<!-- Node1&#45;&gt;Node4 -->
<g id="edge3" class="edge">
<title>Node1&#45;&gt;Node4</title>
<path fill="none" stroke="midnightblue" d="M307.5,-224.08C307.5,-217.01 307.5,-206.86 307.5,-197.99"/>
<polygon fill="midnightblue" stroke="midnightblue" points="311,-197.75 307.5,-187.75 304,-197.75 311,-197.75"/>
</g>
<!-- Node5 -->
<g id="node5" class="node">
<title>Node5</title>
<g id="a_node5"><a xlink:href="_event_8hpp.html" target="_top" xlink:title=" ">
<polygon fill="none" stroke="black" points="209,-112.5 209,-131.5 270,-131.5 270,-112.5 209,-112.5"/>
<text text-anchor="middle" x="239.5" y="-119.5" font-family="Helvetica,sans-Serif" font-size="10.00">Event.hpp</text>
</a>
</g>
</g>
<!-- Node4&#45;&gt;Node5 -->
<g id="edge4" class="edge">
<title>Node4&#45;&gt;Node5</title>
<path fill="none" stroke="midnightblue" d="M296.57,-168.32C286.33,-160.18 270.78,-147.84 258.5,-138.09"/>
<polygon fill="midnightblue" stroke="midnightblue" points="260.63,-135.31 250.62,-131.83 256.28,-140.79 260.63,-135.31"/>
</g>
<!-- Node8 -->
<g id="node8" class="node">
<title>Node8</title>
<g id="a_node8"><a xlink:href="_identifiable_8hpp.html" target="_top" xlink:title=" ">
<polygon fill="none" stroke="black" points="410,-56.5 410,-75.5 493,-75.5 493,-56.5 410,-56.5"/>
<text text-anchor="middle" x="451.5" y="-63.5" font-family="Helvetica,sans-Serif" font-size="10.00">Identifiable.hpp</text>
</a>
</g>
</g>
<!-- Node4&#45;&gt;Node8 -->
<g id="edge14" class="edge">
<title>Node4&#45;&gt;Node8</title>
<path fill="none" stroke="midnightblue" d="M318.8,-168.37C343.3,-149.65 401.56,-105.15 432.08,-81.83"/>
<polygon fill="midnightblue" stroke="midnightblue" points="434.43,-84.44 440.25,-75.59 430.18,-78.88 434.43,-84.44"/>
</g>
<!-- Node5&#45;&gt;Node2 -->
<g id="edge6" class="edge">
<title>Node5&#45;&gt;Node2</title>
<path fill="none" stroke="midnightblue" d="M208.85,-117.54C160.93,-111.53 71.37,-97.68 48.5,-76 35.98,-64.13 31.57,-44.5 30.09,-29.92"/>
<polygon fill="midnightblue" stroke="midnightblue" points="33.56,-29.3 29.43,-19.55 26.57,-29.75 33.56,-29.3"/>
</g>
<!-- Node5&#45;&gt;Node3 -->
<g id="edge5" class="edge">
<title>Node5&#45;&gt;Node3</title>
<path fill="none" stroke="midnightblue" d="M221.47,-112.39C207.27,-104.73 188.02,-92.22 176.5,-76 166.82,-62.37 162.03,-43.83 159.69,-30.04"/>
<polygon fill="midnightblue" stroke="midnightblue" points="163.1,-29.19 158.24,-19.78 156.17,-30.17 163.1,-29.19"/>
</g>
<!-- Node6 -->
<g id="node6" class="node">
<title>Node6</title>
<g id="a_node6"><a xlink:title=" ">
<polygon fill="none" stroke="#bfbfbf" points="186,-56.5 186,-75.5 293,-75.5 293,-56.5 186,-56.5"/>
<text text-anchor="middle" x="239.5" y="-63.5" font-family="Helvetica,sans-Serif" font-size="10.00">SDL2/SDL_events.h</text>
</a>
</g>
</g>
<!-- Node5&#45;&gt;Node6 -->
<g id="edge7" class="edge">
<title>Node5&#45;&gt;Node6</title>
<path fill="none" stroke="midnightblue" d="M239.5,-112.08C239.5,-105.01 239.5,-94.86 239.5,-85.99"/>
<polygon fill="midnightblue" stroke="midnightblue" points="243,-85.75 239.5,-75.75 236,-85.75 243,-85.75"/>
</g>
<!-- Node7 -->
<g id="node7" class="node">
<title>Node7</title>
<g id="a_node7"><a xlink:href="_key_codes_8hpp.html" target="_top" xlink:title=" ">
<polygon fill="none" stroke="black" points="311,-56.5 311,-75.5 392,-75.5 392,-56.5 311,-56.5"/>
<text text-anchor="middle" x="351.5" y="-63.5" font-family="Helvetica,sans-Serif" font-size="10.00">KeyCodes.hpp</text>
</a>
</g>
</g>
<!-- Node5&#45;&gt;Node7 -->
<g id="edge8" class="edge">
<title>Node5&#45;&gt;Node7</title>
<path fill="none" stroke="midnightblue" d="M257.49,-112.32C275.54,-103.62 303.55,-90.12 324.3,-80.11"/>
<polygon fill="midnightblue" stroke="midnightblue" points="326.06,-83.15 333.55,-75.65 323.02,-76.84 326.06,-83.15"/>
</g>
<!-- Node5&#45;&gt;Node8 -->
<g id="edge9" class="edge">
<title>Node5&#45;&gt;Node8</title>
<path fill="none" stroke="midnightblue" d="M270.33,-113.15C306.61,-103.91 367.1,-88.5 408.11,-78.05"/>
<polygon fill="midnightblue" stroke="midnightblue" points="409.01,-81.44 417.83,-75.58 407.28,-74.65 409.01,-81.44"/>
</g>
<!-- Node10 -->
<g id="node10" class="node">
<title>Node10</title>
<g id="a_node10"><a xlink:href="_registry_8hpp.html" target="_top" xlink:title=" ">
<polygon fill="none" stroke="black" points="58,-56.5 58,-75.5 129,-75.5 129,-56.5 58,-56.5"/>
<text text-anchor="middle" x="93.5" y="-63.5" font-family="Helvetica,sans-Serif" font-size="10.00">Registry.hpp</text>
</a>
</g>
</g>
<!-- Node5&#45;&gt;Node10 -->
<g id="edge11" class="edge">
<title>Node5&#45;&gt;Node10</title>
<path fill="none" stroke="midnightblue" d="M216.37,-112.44C192.02,-103.44 153.49,-89.19 126.08,-79.05"/>
<polygon fill="midnightblue" stroke="midnightblue" points="127.12,-75.7 116.53,-75.52 124.69,-82.27 127.12,-75.7"/>
</g>
<!-- Node9 -->
<g id="node9" class="node">
<title>Node9</title>
<g id="a_node9"><a xlink:title=" ">
<polygon fill="none" stroke="#bfbfbf" points="428.5,-0.5 428.5,-19.5 474.5,-19.5 474.5,-0.5 428.5,-0.5"/>
<text text-anchor="middle" x="451.5" y="-7.5" font-family="Helvetica,sans-Serif" font-size="10.00">cstdint</text>
</a>
</g>
</g>
<!-- Node8&#45;&gt;Node9 -->
<g id="edge10" class="edge">
<title>Node8&#45;&gt;Node9</title>
<path fill="none" stroke="midnightblue" d="M451.5,-56.08C451.5,-49.01 451.5,-38.86 451.5,-29.99"/>
<polygon fill="midnightblue" stroke="midnightblue" points="455,-29.75 451.5,-19.75 448,-29.75 455,-29.75"/>
</g>
<!-- Node10&#45;&gt;Node2 -->
<g id="edge13" class="edge">
<title>Node10&#45;&gt;Node2</title>
<path fill="none" stroke="midnightblue" d="M83.22,-56.32C73.66,-48.26 59.22,-36.08 47.72,-26.37"/>
<polygon fill="midnightblue" stroke="midnightblue" points="49.87,-23.61 39.97,-19.83 45.36,-28.96 49.87,-23.61"/>
</g>
<!-- Node10&#45;&gt;Node3 -->
<g id="edge12" class="edge">
<title>Node10&#45;&gt;Node3</title>
<path fill="none" stroke="midnightblue" d="M103.78,-56.32C113.34,-48.26 127.78,-36.08 139.28,-26.37"/>
<polygon fill="midnightblue" stroke="midnightblue" points="141.64,-28.96 147.03,-19.83 137.13,-23.61 141.64,-28.96"/>
</g>
</g>
</svg>
