<?xml version="1.0" encoding="UTF-8" standalone="no"?>
<!DOCTYPE svg PUBLIC "-//W3C//DTD SVG 1.1//EN"
 "http://www.w3.org/Graphics/SVG/1.1/DTD/svg11.dtd">
<!-- Generated by graphviz version 2.50.0 (20211204.2007)
 -->
<!-- Title: include/york/Layer.hpp Pages: 1 -->
<svg width="459pt" height="196pt"
 viewBox="0.00 0.00 459.16 196.00" xmlns="http://www.w3.org/2000/svg" xmlns:xlink="http://www.w3.org/1999/xlink">
<g id="graph0" class="graph" transform="scale(1 1) rotate(0) translate(4 192)">
<title>include/york/Layer.hpp</title>
<!-- Node1 -->
<g id="node1" class="node">
<title>Node1</title>
<g id="a_node1"><a xlink:title=" ">
<polygon fill="#bfbfbf" stroke="black" points="247.66,-168.5 247.66,-187.5 361.66,-187.5 361.66,-168.5 247.66,-168.5"/>
<text text-anchor="middle" x="304.66" y="-175.5" font-family="Helvetica,sans-Serif" font-size="10.00">include/york/Layer.hpp</text>
</a>
</g>
</g>
<!-- Node2 -->
<g id="node2" class="node">
<title>Node2</title>
<g id="a_node2"><a xlink:href="_event_8hpp.html" target="_top" xlink:title=" ">
<polygon fill="none" stroke="black" points="245.16,-112.5 245.16,-131.5 306.16,-131.5 306.16,-112.5 245.16,-112.5"/>
<text text-anchor="middle" x="275.66" y="-119.5" font-family="Helvetica,sans-Serif" font-size="10.00">Event.hpp</text>
</a>
</g>
</g>
<!-- Node1&#45;&gt;Node2 -->
<g id="edge1" class="edge">
<title>Node1&#45;&gt;Node2</title>
<path fill="none" stroke="midnightblue" d="M299.87,-168.08C295.91,-160.69 290.14,-149.95 285.23,-140.81"/>
<polygon fill="midnightblue" stroke="midnightblue" points="288.18,-138.91 280.36,-131.75 282.01,-142.22 288.18,-138.91"/>
</g>
<!-- Node7 -->
<g id="node7" class="node">
<title>Node7</title>
<g id="a_node7"><a xlink:href="_identifiable_8hpp.html" target="_top" xlink:title=" ">
<polygon fill="none" stroke="black" points="368.16,-56.5 368.16,-75.5 451.16,-75.5 451.16,-56.5 368.16,-56.5"/>
<text text-anchor="middle" x="409.66" y="-63.5" font-family="Helvetica,sans-Serif" font-size="10.00">Identifiable.hpp</text>
</a>
</g>
</g>
<!-- Node1&#45;&gt;Node7 -->
<g id="edge11" class="edge">
<title>Node1&#45;&gt;Node7</title>
<path fill="none" stroke="midnightblue" d="M312.9,-168.37C330.46,-149.97 371.8,-106.67 394.34,-83.05"/>
<polygon fill="midnightblue" stroke="midnightblue" points="397.09,-85.24 401.46,-75.59 392.03,-80.41 397.09,-85.24"/>
</g>
<!-- Node3 -->
<g id="node3" class="node">
<title>Node3</title>
<g id="a_node3"><a xlink:title=" ">
<polygon fill="none" stroke="#bfbfbf" points="285.66,-0.5 285.66,-19.5 329.66,-19.5 329.66,-0.5 285.66,-0.5"/>
<text text-anchor="middle" x="307.66" y="-7.5" font-family="Helvetica,sans-Serif" font-size="10.00">vector</text>
</a>
</g>
</g>
<!-- Node2&#45;&gt;Node3 -->
<g id="edge2" class="edge">
<title>Node2&#45;&gt;Node3</title>
<path fill="none" stroke="midnightblue" d="M288.44,-112.37C299.06,-104.36 313.39,-91.38 319.66,-76 325.82,-60.91 321.45,-42.55 316.34,-29.2"/>
<polygon fill="midnightblue" stroke="midnightblue" points="319.43,-27.54 312.27,-19.73 313,-30.3 319.43,-27.54"/>
</g>
<!-- Node4 -->
<g id="node4" class="node">
<title>Node4</title>
<g id="a_node4"><a xlink:title=" ">
<polygon fill="none" stroke="#bfbfbf" points="99.16,-0.5 99.16,-19.5 158.16,-19.5 158.16,-0.5 99.16,-0.5"/>
<text text-anchor="middle" x="128.66" y="-7.5" font-family="Helvetica,sans-Serif" font-size="10.00">functional</text>
</a>
</g>
</g>
<!-- Node2&#45;&gt;Node4 -->
<g id="edge3" class="edge">
<title>Node2&#45;&gt;Node4</title>
<path fill="none" stroke="midnightblue" d="M245.16,-120.63C181.31,-119.13 36.95,-111.78 6.66,-76 -20.01,-44.5 44.23,-25.98 89.26,-17.23"/>
<polygon fill="midnightblue" stroke="midnightblue" points="89.9,-20.67 99.1,-15.41 88.63,-13.78 89.9,-20.67"/>
</g>
<!-- Node5 -->
<g id="node5" class="node">
<title>Node5</title>
<g id="a_node5"><a xlink:title=" ">
<polygon fill="none" stroke="#bfbfbf" points="16.16,-56.5 16.16,-75.5 123.16,-75.5 123.16,-56.5 16.16,-56.5"/>
<text text-anchor="middle" x="69.66" y="-63.5" font-family="Helvetica,sans-Serif" font-size="10.00">SDL2/SDL_events.h</text>
</a>
</g>
</g>
<!-- Node2&#45;&gt;Node5 -->
<g id="edge4" class="edge">
<title>Node2&#45;&gt;Node5</title>
<path fill="none" stroke="midnightblue" d="M244.82,-112.92C209.61,-103.69 151.8,-88.53 112.29,-78.17"/>
<polygon fill="midnightblue" stroke="midnightblue" points="112.98,-74.74 102.42,-75.59 111.21,-81.51 112.98,-74.74"/>
</g>
<!-- Node6 -->
<g id="node6" class="node">
<title>Node6</title>
<g id="a_node6"><a xlink:href="_key_codes_8hpp.html" target="_top" xlink:title=" ">
<polygon fill="none" stroke="black" points="141.16,-56.5 141.16,-75.5 222.16,-75.5 222.16,-56.5 141.16,-56.5"/>
<text text-anchor="middle" x="181.66" y="-63.5" font-family="Helvetica,sans-Serif" font-size="10.00">KeyCodes.hpp</text>
</a>
</g>
</g>
<!-- Node2&#45;&gt;Node6 -->
<g id="edge5" class="edge">
<title>Node2&#45;&gt;Node6</title>
<path fill="none" stroke="midnightblue" d="M260.56,-112.32C245.76,-103.82 222.97,-90.73 205.68,-80.8"/>
<polygon fill="midnightblue" stroke="midnightblue" points="207.14,-77.6 196.73,-75.65 203.66,-83.67 207.14,-77.6"/>
</g>
<!-- Node2&#45;&gt;Node7 -->
<g id="edge6" class="edge">
<title>Node2&#45;&gt;Node7</title>
<path fill="none" stroke="midnightblue" d="M296.9,-112.44C319.05,-103.52 353.98,-89.44 379.1,-79.32"/>
<polygon fill="midnightblue" stroke="midnightblue" points="380.56,-82.5 388.53,-75.52 377.95,-76.01 380.56,-82.5"/>
</g>
<!-- Node9 -->
<g id="node9" class="node">
<title>Node9</title>
<g id="a_node9"><a xlink:href="_registry_8hpp.html" target="_top" xlink:title=" ">
<polygon fill="none" stroke="black" points="240.16,-56.5 240.16,-75.5 311.16,-75.5 311.16,-56.5 240.16,-56.5"/>
<text text-anchor="middle" x="275.66" y="-63.5" font-family="Helvetica,sans-Serif" font-size="10.00">Registry.hpp</text>
</a>
</g>
</g>
<!-- Node2&#45;&gt;Node9 -->
<g id="edge8" class="edge">
<title>Node2&#45;&gt;Node9</title>
<path fill="none" stroke="midnightblue" d="M275.66,-112.08C275.66,-105.01 275.66,-94.86 275.66,-85.99"/>
<polygon fill="midnightblue" stroke="midnightblue" points="279.16,-85.75 275.66,-75.75 272.16,-85.75 279.16,-85.75"/>
</g>
<!-- Node8 -->
<g id="node8" class="node">
<title>Node8</title>
<g id="a_node8"><a xlink:title=" ">
<polygon fill="none" stroke="#bfbfbf" points="386.66,-0.5 386.66,-19.5 432.66,-19.5 432.66,-0.5 386.66,-0.5"/>
<text text-anchor="middle" x="409.66" y="-7.5" font-family="Helvetica,sans-Serif" font-size="10.00">cstdint</text>
</a>
</g>
</g>
<!-- Node7&#45;&gt;Node8 -->
<g id="edge7" class="edge">
<title>Node7&#45;&gt;Node8</title>
<path fill="none" stroke="midnightblue" d="M409.66,-56.08C409.66,-49.01 409.66,-38.86 409.66,-29.99"/>
<polygon fill="midnightblue" stroke="midnightblue" points="413.16,-29.75 409.66,-19.75 406.16,-29.75 413.16,-29.75"/>
</g>
<!-- Node9&#45;&gt;Node3 -->
<g id="edge9" class="edge">
<title>Node9&#45;&gt;Node3</title>
<path fill="none" stroke="midnightblue" d="M280.95,-56.08C285.37,-48.61 291.83,-37.72 297.28,-28.52"/>
<polygon fill="midnightblue" stroke="midnightblue" points="300.39,-30.14 302.48,-19.75 294.37,-26.57 300.39,-30.14"/>
</g>
<!-- Node9&#45;&gt;Node4 -->
<g id="edge10" class="edge">
<title>Node9&#45;&gt;Node4</title>
<path fill="none" stroke="midnightblue" d="M252.37,-56.44C227.86,-47.44 189.07,-33.19 161.46,-23.05"/>
<polygon fill="midnightblue" stroke="midnightblue" points="162.44,-19.68 151.85,-19.52 160.03,-26.25 162.44,-19.68"/>
</g>
</g>
</svg>
