<?xml version="1.0" encoding="UTF-8" standalone="no"?>
<!DOCTYPE svg PUBLIC "-//W3C//DTD SVG 1.1//EN"
 "http://www.w3.org/Graphics/SVG/1.1/DTD/svg11.dtd">
<!-- Generated by graphviz version 2.50.0 (20211204.2007)
 -->
<!-- Title: include/york/Graphics/PhysicalDevice.hpp Pages: 1 -->
<svg width="507pt" height="375pt"
 viewBox="0.00 0.00 506.50 375.00" xmlns="http://www.w3.org/2000/svg" xmlns:xlink="http://www.w3.org/1999/xlink">
<g id="graph0" class="graph" transform="scale(1 1) rotate(0) translate(4 371)">
<title>include/york/Graphics/PhysicalDevice.hpp</title>
<!-- Node1 -->
<g id="node1" class="node">
<title>Node1</title>
<g id="a_node1"><a xlink:title=" ">
<polygon fill="#bfbfbf" stroke="black" points="68,-336.5 68,-366.5 179,-366.5 179,-336.5 68,-336.5"/>
<text text-anchor="start" x="76" y="-354.5" font-family="Helvetica,sans-Serif" font-size="10.00">include/york/Graphics</text>
<text text-anchor="middle" x="123.5" y="-343.5" font-family="Helvetica,sans-Serif" font-size="10.00">/PhysicalDevice.hpp</text>
</a>
</g>
</g>
<!-- Node2 -->
<g id="node2" class="node">
<title>Node2</title>
<g id="a_node2"><a xlink:title=" ">
<polygon fill="none" stroke="#bfbfbf" points="7.5,-280.5 7.5,-299.5 57.5,-299.5 57.5,-280.5 7.5,-280.5"/>
<text text-anchor="middle" x="32.5" y="-287.5" font-family="Helvetica,sans-Serif" font-size="10.00">optional</text>
</a>
</g>
</g>
<!-- Node1&#45;&gt;Node2 -->
<g id="edge1" class="edge">
<title>Node1&#45;&gt;Node2</title>
<path fill="none" stroke="midnightblue" d="M101.93,-336.4C87.62,-327.04 68.89,-314.79 54.49,-305.38"/>
<polygon fill="midnightblue" stroke="midnightblue" points="56.03,-302.2 45.74,-299.66 52.2,-308.06 56.03,-302.2"/>
</g>
<!-- Node3 -->
<g id="node3" class="node">
<title>Node3</title>
<g id="a_node3"><a xlink:title=" ">
<polygon fill="none" stroke="#bfbfbf" points="0,-168.5 0,-187.5 95,-187.5 95,-168.5 0,-168.5"/>
<text text-anchor="middle" x="47.5" y="-175.5" font-family="Helvetica,sans-Serif" font-size="10.00">vulkan/vulkan.hpp</text>
</a>
</g>
</g>
<!-- Node1&#45;&gt;Node3 -->
<g id="edge2" class="edge">
<title>Node1&#45;&gt;Node3</title>
<path fill="none" stroke="midnightblue" d="M117.28,-336.47C103.53,-305.44 70.57,-231.05 55.39,-196.81"/>
<polygon fill="midnightblue" stroke="midnightblue" points="58.54,-195.28 51.29,-187.56 52.14,-198.12 58.54,-195.28"/>
</g>
<!-- Node4 -->
<g id="node4" class="node">
<title>Node4</title>
<g id="a_node4"><a xlink:href="_surface_8hpp.html" target="_top" xlink:title=" ">
<polygon fill="none" stroke="black" points="127,-280.5 127,-299.5 196,-299.5 196,-280.5 127,-280.5"/>
<text text-anchor="middle" x="161.5" y="-287.5" font-family="Helvetica,sans-Serif" font-size="10.00">Surface.hpp</text>
</a>
</g>
</g>
<!-- Node1&#45;&gt;Node4 -->
<g id="edge3" class="edge">
<title>Node1&#45;&gt;Node4</title>
<path fill="none" stroke="midnightblue" d="M132.51,-336.4C137.91,-327.93 144.83,-317.1 150.55,-308.14"/>
<polygon fill="midnightblue" stroke="midnightblue" points="153.54,-309.97 155.97,-299.66 147.64,-306.2 153.54,-309.97"/>
</g>
<!-- Node14 -->
<g id="node14" class="node">
<title>Node14</title>
<g id="a_node14"><a xlink:href="_requestable_item_8hpp.html" target="_top" xlink:title=" ">
<polygon fill="none" stroke="black" points="388.5,-168.5 388.5,-187.5 498.5,-187.5 498.5,-168.5 388.5,-168.5"/>
<text text-anchor="middle" x="443.5" y="-175.5" font-family="Helvetica,sans-Serif" font-size="10.00">RequestableItem.hpp</text>
</a>
</g>
</g>
<!-- Node1&#45;&gt;Node14 -->
<g id="edge22" class="edge">
<title>Node1&#45;&gt;Node14</title>
<path fill="none" stroke="midnightblue" d="M149.69,-336.47C210.2,-304.03 359.11,-224.23 418.48,-192.41"/>
<polygon fill="midnightblue" stroke="midnightblue" points="420.37,-195.37 427.53,-187.56 417.06,-189.2 420.37,-195.37"/>
</g>
<!-- Node4&#45;&gt;Node3 -->
<g id="edge4" class="edge">
<title>Node4&#45;&gt;Node3</title>
<path fill="none" stroke="midnightblue" d="M153.73,-280.33C142.22,-267.63 119.82,-243.36 99.5,-224 88.7,-213.71 76.04,-202.74 65.93,-194.2"/>
<polygon fill="midnightblue" stroke="midnightblue" points="68.04,-191.41 58.12,-187.68 63.55,-196.78 68.04,-191.41"/>
</g>
<!-- Node5 -->
<g id="node5" class="node">
<title>Node5</title>
<g id="a_node5"><a xlink:href="_window_8hpp.html" target="_top" xlink:title=" ">
<polygon fill="none" stroke="black" points="241,-168.5 241,-187.5 332,-187.5 332,-168.5 241,-168.5"/>
<text text-anchor="middle" x="286.5" y="-175.5" font-family="Helvetica,sans-Serif" font-size="10.00">york/Window.hpp</text>
</a>
</g>
</g>
<!-- Node4&#45;&gt;Node5 -->
<g id="edge5" class="edge">
<title>Node4&#45;&gt;Node5</title>
<path fill="none" stroke="midnightblue" d="M196.22,-283.46C220.75,-277.73 252.52,-266.32 271.5,-244 282.39,-231.19 285.75,-212 286.62,-197.79"/>
<polygon fill="midnightblue" stroke="midnightblue" points="290.13,-197.77 286.88,-187.68 283.13,-197.59 290.13,-197.77"/>
</g>
<!-- Node8 -->
<g id="node8" class="node">
<title>Node8</title>
<g id="a_node8"><a xlink:href="_handle_8hpp.html" target="_top" xlink:title="Contains the declarations for the Handle classes which form the basis of our Vulkan implementation.">
<polygon fill="none" stroke="black" points="151.5,-112.5 151.5,-131.5 281.5,-131.5 281.5,-112.5 151.5,-112.5"/>
<text text-anchor="middle" x="216.5" y="-119.5" font-family="Helvetica,sans-Serif" font-size="10.00">york/Graphics/Handle.hpp</text>
</a>
</g>
</g>
<!-- Node4&#45;&gt;Node8 -->
<g id="edge13" class="edge">
<title>Node4&#45;&gt;Node8</title>
<path fill="none" stroke="midnightblue" d="M163.92,-280.12C167.38,-267.56 174.05,-243.91 180.5,-224 189.99,-194.73 202.23,-161.15 209.72,-141.03"/>
<polygon fill="midnightblue" stroke="midnightblue" points="213.02,-142.18 213.25,-131.59 206.47,-139.73 213.02,-142.18"/>
</g>
<!-- Node13 -->
<g id="node13" class="node">
<title>Node13</title>
<g id="a_node13"><a xlink:href="_instance_8hpp.html" target="_top" xlink:title=" ">
<polygon fill="none" stroke="black" points="190,-224.5 190,-243.5 263,-243.5 263,-224.5 190,-224.5"/>
<text text-anchor="middle" x="226.5" y="-231.5" font-family="Helvetica,sans-Serif" font-size="10.00">Instance.hpp</text>
</a>
</g>
</g>
<!-- Node4&#45;&gt;Node13 -->
<g id="edge14" class="edge">
<title>Node4&#45;&gt;Node13</title>
<path fill="none" stroke="midnightblue" d="M171.94,-280.32C181.65,-272.26 196.32,-260.08 208,-250.37"/>
<polygon fill="midnightblue" stroke="midnightblue" points="210.41,-252.92 215.87,-243.83 205.94,-247.53 210.41,-252.92"/>
</g>
<!-- Node6 -->
<g id="node6" class="node">
<title>Node6</title>
<g id="a_node6"><a xlink:title=" ">
<polygon fill="none" stroke="#bfbfbf" points="419,-112.5 419,-131.5 460,-131.5 460,-112.5 419,-112.5"/>
<text text-anchor="middle" x="439.5" y="-119.5" font-family="Helvetica,sans-Serif" font-size="10.00">string</text>
</a>
</g>
</g>
<!-- Node5&#45;&gt;Node6 -->
<g id="edge6" class="edge">
<title>Node5&#45;&gt;Node6</title>
<path fill="none" stroke="midnightblue" d="M310.74,-168.44C337.43,-159.03 380.36,-143.87 409.23,-133.68"/>
<polygon fill="midnightblue" stroke="midnightblue" points="410.54,-136.93 418.8,-130.3 408.21,-130.33 410.54,-136.93"/>
</g>
<!-- Node7 -->
<g id="node7" class="node">
<title>Node7</title>
<g id="a_node7"><a xlink:title=" ">
<polygon fill="none" stroke="#bfbfbf" points="300,-112.5 300,-131.5 401,-131.5 401,-112.5 300,-112.5"/>
<text text-anchor="middle" x="350.5" y="-119.5" font-family="Helvetica,sans-Serif" font-size="10.00">SDL2/SDL_video.h</text>
</a>
</g>
</g>
<!-- Node5&#45;&gt;Node7 -->
<g id="edge7" class="edge">
<title>Node5&#45;&gt;Node7</title>
<path fill="none" stroke="midnightblue" d="M296.78,-168.32C306.34,-160.26 320.78,-148.08 332.28,-138.37"/>
<polygon fill="midnightblue" stroke="midnightblue" points="334.64,-140.96 340.03,-131.83 330.13,-135.61 334.64,-140.96"/>
</g>
<!-- Node5&#45;&gt;Node8 -->
<g id="edge8" class="edge">
<title>Node5&#45;&gt;Node8</title>
<path fill="none" stroke="midnightblue" d="M275.25,-168.32C264.7,-160.18 248.7,-147.84 236.06,-138.09"/>
<polygon fill="midnightblue" stroke="midnightblue" points="238.01,-135.17 227.95,-131.83 233.73,-140.71 238.01,-135.17"/>
</g>
<!-- Node9 -->
<g id="node9" class="node">
<title>Node9</title>
<g id="a_node9"><a xlink:title=" ">
<polygon fill="none" stroke="#bfbfbf" points="101.5,-56.5 101.5,-75.5 145.5,-75.5 145.5,-56.5 101.5,-56.5"/>
<text text-anchor="middle" x="123.5" y="-63.5" font-family="Helvetica,sans-Serif" font-size="10.00">vector</text>
</a>
</g>
</g>
<!-- Node8&#45;&gt;Node9 -->
<g id="edge9" class="edge">
<title>Node8&#45;&gt;Node9</title>
<path fill="none" stroke="midnightblue" d="M201.56,-112.32C186.91,-103.82 164.37,-90.73 147.26,-80.8"/>
<polygon fill="midnightblue" stroke="midnightblue" points="148.81,-77.65 138.4,-75.65 145.3,-83.7 148.81,-77.65"/>
</g>
<!-- Node10 -->
<g id="node10" class="node">
<title>Node10</title>
<g id="a_node10"><a xlink:title=" ">
<polygon fill="none" stroke="#bfbfbf" points="286,-56.5 286,-75.5 345,-75.5 345,-56.5 286,-56.5"/>
<text text-anchor="middle" x="315.5" y="-63.5" font-family="Helvetica,sans-Serif" font-size="10.00">functional</text>
</a>
</g>
</g>
<!-- Node8&#45;&gt;Node10 -->
<g id="edge10" class="edge">
<title>Node8&#45;&gt;Node10</title>
<path fill="none" stroke="midnightblue" d="M232.41,-112.32C248.14,-103.74 272.44,-90.49 290.71,-80.52"/>
<polygon fill="midnightblue" stroke="midnightblue" points="292.53,-83.52 299.63,-75.65 289.18,-77.37 292.53,-83.52"/>
</g>
<!-- Node11 -->
<g id="node11" class="node">
<title>Node11</title>
<g id="a_node11"><a xlink:href="_identifiable_8hpp.html" target="_top" xlink:title=" ">
<polygon fill="none" stroke="black" points="163.5,-56.5 163.5,-75.5 267.5,-75.5 267.5,-56.5 163.5,-56.5"/>
<text text-anchor="middle" x="215.5" y="-63.5" font-family="Helvetica,sans-Serif" font-size="10.00">york/Identifiable.hpp</text>
</a>
</g>
</g>
<!-- Node8&#45;&gt;Node11 -->
<g id="edge11" class="edge">
<title>Node8&#45;&gt;Node11</title>
<path fill="none" stroke="midnightblue" d="M216.33,-112.08C216.2,-105.01 216.02,-94.86 215.85,-85.99"/>
<polygon fill="midnightblue" stroke="midnightblue" points="219.35,-85.68 215.66,-75.75 212.35,-85.81 219.35,-85.68"/>
</g>
<!-- Node12 -->
<g id="node12" class="node">
<title>Node12</title>
<g id="a_node12"><a xlink:title=" ">
<polygon fill="none" stroke="#bfbfbf" points="192.5,-0.5 192.5,-19.5 238.5,-19.5 238.5,-0.5 192.5,-0.5"/>
<text text-anchor="middle" x="215.5" y="-7.5" font-family="Helvetica,sans-Serif" font-size="10.00">cstdint</text>
</a>
</g>
</g>
<!-- Node11&#45;&gt;Node12 -->
<g id="edge12" class="edge">
<title>Node11&#45;&gt;Node12</title>
<path fill="none" stroke="midnightblue" d="M215.5,-56.08C215.5,-49.01 215.5,-38.86 215.5,-29.99"/>
<polygon fill="midnightblue" stroke="midnightblue" points="219,-29.75 215.5,-19.75 212,-29.75 219,-29.75"/>
</g>
<!-- Node13&#45;&gt;Node3 -->
<g id="edge17" class="edge">
<title>Node13&#45;&gt;Node3</title>
<path fill="none" stroke="midnightblue" d="M198.14,-224.44C167.76,-215.28 119.39,-200.69 85.68,-190.52"/>
<polygon fill="midnightblue" stroke="midnightblue" points="86.32,-187.05 75.73,-187.52 84.29,-193.76 86.32,-187.05"/>
</g>
<!-- Node13&#45;&gt;Node5 -->
<g id="edge21" class="edge">
<title>Node13&#45;&gt;Node5</title>
<path fill="none" stroke="midnightblue" d="M236.14,-224.32C245.01,-216.34 258.37,-204.31 269.11,-194.65"/>
<polygon fill="midnightblue" stroke="midnightblue" points="271.59,-197.13 276.68,-187.83 266.91,-191.92 271.59,-197.13"/>
</g>
<!-- Node13&#45;&gt;Node6 -->
<g id="edge15" class="edge">
<title>Node13&#45;&gt;Node6</title>
<path fill="none" stroke="midnightblue" d="M252.52,-224.45C276.07,-216.31 311.41,-203.09 340.5,-188 369.47,-172.98 400.56,-151.6 420.02,-137.52"/>
<polygon fill="midnightblue" stroke="midnightblue" points="422.09,-140.35 428.09,-131.62 417.95,-134.7 422.09,-140.35"/>
</g>
<!-- Node13&#45;&gt;Node8 -->
<g id="edge18" class="edge">
<title>Node13&#45;&gt;Node8</title>
<path fill="none" stroke="midnightblue" d="M225.72,-224.37C224.1,-206.62 220.38,-165.67 218.19,-141.6"/>
<polygon fill="midnightblue" stroke="midnightblue" points="221.67,-141.23 217.28,-131.59 214.7,-141.87 221.67,-141.23"/>
</g>
<!-- Node13&#45;&gt;Node9 -->
<g id="edge16" class="edge">
<title>Node13&#45;&gt;Node9</title>
<path fill="none" stroke="midnightblue" d="M217.23,-224.47C200.04,-208.14 163.07,-170.66 142.5,-132 134.73,-117.41 129.77,-99.23 126.87,-85.81"/>
<polygon fill="midnightblue" stroke="midnightblue" points="130.27,-84.98 124.9,-75.85 123.4,-86.33 130.27,-84.98"/>
</g>
<!-- Node13&#45;&gt;Node14 -->
<g id="edge19" class="edge">
<title>Node13&#45;&gt;Node14</title>
<path fill="none" stroke="midnightblue" d="M260.88,-224.44C298.42,-215.1 358.63,-200.12 399.57,-189.93"/>
<polygon fill="midnightblue" stroke="midnightblue" points="400.42,-193.33 409.28,-187.52 398.73,-186.53 400.42,-193.33"/>
</g>
<!-- Node14&#45;&gt;Node6 -->
<g id="edge20" class="edge">
<title>Node14&#45;&gt;Node6</title>
<path fill="none" stroke="midnightblue" d="M442.84,-168.08C442.32,-161.01 441.56,-150.86 440.91,-141.99"/>
<polygon fill="midnightblue" stroke="midnightblue" points="444.38,-141.47 440.15,-131.75 437.4,-141.98 444.38,-141.47"/>
</g>
</g>
</svg>
