<?xml version="1.0" encoding="UTF-8" standalone="no"?>
<!DOCTYPE svg PUBLIC "-//W3C//DTD SVG 1.1//EN"
 "http://www.w3.org/Graphics/SVG/1.1/DTD/svg11.dtd">
<!-- Generated by graphviz version 2.50.0 (20211204.2007)
 -->
<!-- Title: include/york/Graphics/PhysicalDevice.hpp Pages: 1 -->
<svg width="625pt" height="263pt"
 viewBox="0.00 0.00 625.00 263.00" xmlns="http://www.w3.org/2000/svg" xmlns:xlink="http://www.w3.org/1999/xlink">
<g id="graph0" class="graph" transform="scale(1 1) rotate(0) translate(4 259)">
<title>include/york/Graphics/PhysicalDevice.hpp</title>
<!-- Node1 -->
<g id="node1" class="node">
<title>Node1</title>
<g id="a_node1"><a xlink:title=" ">
<polygon fill="#bfbfbf" stroke="black" points="120.5,-224.5 120.5,-254.5 231.5,-254.5 231.5,-224.5 120.5,-224.5"/>
<text text-anchor="start" x="128.5" y="-242.5" font-family="Helvetica,sans-Serif" font-size="10.00">include/york/Graphics</text>
<text text-anchor="middle" x="176" y="-231.5" font-family="Helvetica,sans-Serif" font-size="10.00">/PhysicalDevice.hpp</text>
</a>
</g>
</g>
<!-- Node2 -->
<g id="node2" class="node">
<title>Node2</title>
<g id="a_node2"><a xlink:title=" ">
<polygon fill="none" stroke="#bfbfbf" points="0,-168.5 0,-187.5 50,-187.5 50,-168.5 0,-168.5"/>
<text text-anchor="middle" x="25" y="-175.5" font-family="Helvetica,sans-Serif" font-size="10.00">optional</text>
</a>
</g>
</g>
<!-- Node1&#45;&gt;Node2 -->
<g id="edge1" class="edge">
<title>Node1&#45;&gt;Node2</title>
<path fill="none" stroke="midnightblue" d="M140.22,-224.4C114.77,-214.37 80.9,-201.03 56.48,-191.4"/>
<polygon fill="midnightblue" stroke="midnightblue" points="57.56,-188.07 46.97,-187.66 54.99,-194.58 57.56,-188.07"/>
</g>
<!-- Node3 -->
<g id="node3" class="node">
<title>Node3</title>
<g id="a_node3"><a xlink:title=" ">
<polygon fill="none" stroke="#bfbfbf" points="68.5,-168.5 68.5,-187.5 163.5,-187.5 163.5,-168.5 68.5,-168.5"/>
<text text-anchor="middle" x="116" y="-175.5" font-family="Helvetica,sans-Serif" font-size="10.00">vulkan/vulkan.hpp</text>
</a>
</g>
</g>
<!-- Node1&#45;&gt;Node3 -->
<g id="edge2" class="edge">
<title>Node1&#45;&gt;Node3</title>
<path fill="none" stroke="midnightblue" d="M161.78,-224.4C152.79,-215.49 141.16,-203.95 131.87,-194.74"/>
<polygon fill="midnightblue" stroke="midnightblue" points="134.3,-192.21 124.73,-187.66 129.37,-197.18 134.3,-192.21"/>
</g>
<!-- Node4 -->
<g id="node4" class="node">
<title>Node4</title>
<g id="a_node4"><a xlink:href="_requestable_item_8hpp.html" target="_top" xlink:title=" ">
<polygon fill="none" stroke="black" points="182,-168.5 182,-187.5 292,-187.5 292,-168.5 182,-168.5"/>
<text text-anchor="middle" x="237" y="-175.5" font-family="Helvetica,sans-Serif" font-size="10.00">RequestableItem.hpp</text>
</a>
</g>
</g>
<!-- Node1&#45;&gt;Node4 -->
<g id="edge3" class="edge">
<title>Node1&#45;&gt;Node4</title>
<path fill="none" stroke="midnightblue" d="M190.46,-224.4C199.59,-215.49 211.42,-203.95 220.86,-194.74"/>
<polygon fill="midnightblue" stroke="midnightblue" points="223.41,-197.15 228.12,-187.66 218.52,-192.13 223.41,-197.15"/>
</g>
<!-- Node6 -->
<g id="node6" class="node">
<title>Node6</title>
<g id="a_node6"><a xlink:href="_window_8hpp.html" target="_top" xlink:title=" ">
<polygon fill="none" stroke="black" points="310.5,-168.5 310.5,-187.5 401.5,-187.5 401.5,-168.5 310.5,-168.5"/>
<text text-anchor="middle" x="356" y="-175.5" font-family="Helvetica,sans-Serif" font-size="10.00">york/Window.hpp</text>
</a>
</g>
</g>
<!-- Node1&#45;&gt;Node6 -->
<g id="edge5" class="edge">
<title>Node1&#45;&gt;Node6</title>
<path fill="none" stroke="midnightblue" d="M218.66,-224.4C249.63,-214.16 291.05,-200.47 320.28,-190.81"/>
<polygon fill="midnightblue" stroke="midnightblue" points="321.67,-194.03 330.07,-187.57 319.48,-187.39 321.67,-194.03"/>
</g>
<!-- Node5 -->
<g id="node5" class="node">
<title>Node5</title>
<g id="a_node5"><a xlink:title=" ">
<polygon fill="none" stroke="#bfbfbf" points="238.5,-112.5 238.5,-131.5 279.5,-131.5 279.5,-112.5 238.5,-112.5"/>
<text text-anchor="middle" x="259" y="-119.5" font-family="Helvetica,sans-Serif" font-size="10.00">string</text>
</a>
</g>
</g>
<!-- Node4&#45;&gt;Node5 -->
<g id="edge4" class="edge">
<title>Node4&#45;&gt;Node5</title>
<path fill="none" stroke="midnightblue" d="M240.63,-168.08C243.61,-160.77 247.93,-150.18 251.62,-141.1"/>
<polygon fill="midnightblue" stroke="midnightblue" points="254.9,-142.33 255.43,-131.75 248.42,-139.69 254.9,-142.33"/>
</g>
<!-- Node6&#45;&gt;Node5 -->
<g id="edge6" class="edge">
<title>Node6&#45;&gt;Node5</title>
<path fill="none" stroke="midnightblue" d="M340.42,-168.32C325,-159.74 301.19,-146.49 283.29,-136.52"/>
<polygon fill="midnightblue" stroke="midnightblue" points="284.99,-133.46 274.55,-131.65 281.58,-139.58 284.99,-133.46"/>
</g>
<!-- Node7 -->
<g id="node7" class="node">
<title>Node7</title>
<g id="a_node7"><a xlink:title=" ">
<polygon fill="none" stroke="#bfbfbf" points="308.5,-112.5 308.5,-131.5 381.5,-131.5 381.5,-112.5 308.5,-112.5"/>
<text text-anchor="middle" x="345" y="-119.5" font-family="Helvetica,sans-Serif" font-size="10.00">SDL_video.h</text>
</a>
</g>
</g>
<!-- Node6&#45;&gt;Node7 -->
<g id="edge7" class="edge">
<title>Node6&#45;&gt;Node7</title>
<path fill="none" stroke="midnightblue" d="M354.18,-168.08C352.73,-160.93 350.63,-150.64 348.81,-141.69"/>
<polygon fill="midnightblue" stroke="midnightblue" points="352.21,-140.85 346.78,-131.75 345.35,-142.25 352.21,-140.85"/>
</g>
<!-- Node8 -->
<g id="node8" class="node">
<title>Node8</title>
<g id="a_node8"><a xlink:href="_handle_8hpp.html" target="_top" xlink:title="Contains the declarations for the Handle classes which form the basis of our Vulkan implementation.">
<polygon fill="none" stroke="black" points="400,-112.5 400,-131.5 530,-131.5 530,-112.5 400,-112.5"/>
<text text-anchor="middle" x="465" y="-119.5" font-family="Helvetica,sans-Serif" font-size="10.00">york/Graphics/Handle.hpp</text>
</a>
</g>
</g>
<!-- Node6&#45;&gt;Node8 -->
<g id="edge8" class="edge">
<title>Node6&#45;&gt;Node8</title>
<path fill="none" stroke="midnightblue" d="M373.51,-168.32C391.07,-159.62 418.33,-146.12 438.53,-136.11"/>
<polygon fill="midnightblue" stroke="midnightblue" points="440.12,-139.23 447.53,-131.65 437.02,-132.96 440.12,-139.23"/>
</g>
<!-- Node9 -->
<g id="node9" class="node">
<title>Node9</title>
<g id="a_node9"><a xlink:title=" ">
<polygon fill="none" stroke="#bfbfbf" points="373,-56.5 373,-75.5 417,-75.5 417,-56.5 373,-56.5"/>
<text text-anchor="middle" x="395" y="-63.5" font-family="Helvetica,sans-Serif" font-size="10.00">vector</text>
</a>
</g>
</g>
<!-- Node8&#45;&gt;Node9 -->
<g id="edge9" class="edge">
<title>Node8&#45;&gt;Node9</title>
<path fill="none" stroke="midnightblue" d="M453.75,-112.32C443.2,-104.18 427.2,-91.84 414.56,-82.09"/>
<polygon fill="midnightblue" stroke="midnightblue" points="416.51,-79.17 406.45,-75.83 412.23,-84.71 416.51,-79.17"/>
</g>
<!-- Node10 -->
<g id="node10" class="node">
<title>Node10</title>
<g id="a_node10"><a xlink:title=" ">
<polygon fill="none" stroke="#bfbfbf" points="435.5,-56.5 435.5,-75.5 494.5,-75.5 494.5,-56.5 435.5,-56.5"/>
<text text-anchor="middle" x="465" y="-63.5" font-family="Helvetica,sans-Serif" font-size="10.00">functional</text>
</a>
</g>
</g>
<!-- Node8&#45;&gt;Node10 -->
<g id="edge10" class="edge">
<title>Node8&#45;&gt;Node10</title>
<path fill="none" stroke="midnightblue" d="M465,-112.08C465,-105.01 465,-94.86 465,-85.99"/>
<polygon fill="midnightblue" stroke="midnightblue" points="468.5,-85.75 465,-75.75 461.5,-85.75 468.5,-85.75"/>
</g>
<!-- Node11 -->
<g id="node11" class="node">
<title>Node11</title>
<g id="a_node11"><a xlink:href="_identifiable_8hpp.html" target="_top" xlink:title=" ">
<polygon fill="none" stroke="black" points="513,-56.5 513,-75.5 617,-75.5 617,-56.5 513,-56.5"/>
<text text-anchor="middle" x="565" y="-63.5" font-family="Helvetica,sans-Serif" font-size="10.00">york/Identifiable.hpp</text>
</a>
</g>
</g>
<!-- Node8&#45;&gt;Node11 -->
<g id="edge11" class="edge">
<title>Node8&#45;&gt;Node11</title>
<path fill="none" stroke="midnightblue" d="M481.07,-112.32C496.96,-103.74 521.51,-90.49 539.96,-80.52"/>
<polygon fill="midnightblue" stroke="midnightblue" points="541.84,-83.49 548.97,-75.65 538.51,-77.33 541.84,-83.49"/>
</g>
<!-- Node12 -->
<g id="node12" class="node">
<title>Node12</title>
<g id="a_node12"><a xlink:title=" ">
<polygon fill="none" stroke="#bfbfbf" points="542,-0.5 542,-19.5 588,-19.5 588,-0.5 542,-0.5"/>
<text text-anchor="middle" x="565" y="-7.5" font-family="Helvetica,sans-Serif" font-size="10.00">cstdint</text>
</a>
</g>
</g>
<!-- Node11&#45;&gt;Node12 -->
<g id="edge12" class="edge">
<title>Node11&#45;&gt;Node12</title>
<path fill="none" stroke="midnightblue" d="M565,-56.08C565,-49.01 565,-38.86 565,-29.99"/>
<polygon fill="midnightblue" stroke="midnightblue" points="568.5,-29.75 565,-19.75 561.5,-29.75 568.5,-29.75"/>
</g>
</g>
</svg>
