<?xml version="1.0" encoding="UTF-8" standalone="no"?>
<!DOCTYPE svg PUBLIC "-//W3C//DTD SVG 1.1//EN"
 "http://www.w3.org/Graphics/SVG/1.1/DTD/svg11.dtd">
<!-- Generated by graphviz version 2.50.0 (20211204.2007)
 -->
<!-- Title: include/york/Graphics/PhysicalDevice.hpp Pages: 1 -->
<svg width="503pt" height="375pt"
 viewBox="0.00 0.00 502.50 375.00" xmlns="http://www.w3.org/2000/svg" xmlns:xlink="http://www.w3.org/1999/xlink">
<g id="graph0" class="graph" transform="scale(1 1) rotate(0) translate(4 371)">
<title>include/york/Graphics/PhysicalDevice.hpp</title>
<!-- Node1 -->
<g id="node1" class="node">
<title>Node1</title>
<g id="a_node1"><a xlink:title=" ">
<polygon fill="#bfbfbf" stroke="black" points="68,-336.5 68,-366.5 179,-366.5 179,-336.5 68,-336.5"/>
<text text-anchor="start" x="76" y="-354.5" font-family="Helvetica,sans-Serif" font-size="10.00">include/york/Graphics</text>
<text text-anchor="middle" x="123.5" y="-343.5" font-family="Helvetica,sans-Serif" font-size="10.00">/PhysicalDevice.hpp</text>
</a>
</g>
</g>
<!-- Node2 -->
<g id="node2" class="node">
<title>Node2</title>
<g id="a_node2"><a xlink:title=" ">
<polygon fill="none" stroke="#bfbfbf" points="7.5,-280.5 7.5,-299.5 57.5,-299.5 57.5,-280.5 7.5,-280.5"/>
<text text-anchor="middle" x="32.5" y="-287.5" font-family="Helvetica,sans-Serif" font-size="10.00">optional</text>
</a>
</g>
</g>
<!-- Node1&#45;&gt;Node2 -->
<g id="edge1" class="edge">
<title>Node1&#45;&gt;Node2</title>
<path fill="none" stroke="midnightblue" d="M101.93,-336.4C87.62,-327.04 68.89,-314.79 54.49,-305.38"/>
<polygon fill="midnightblue" stroke="midnightblue" points="56.03,-302.2 45.74,-299.66 52.2,-308.06 56.03,-302.2"/>
</g>
<!-- Node3 -->
<g id="node3" class="node">
<title>Node3</title>
<g id="a_node3"><a xlink:title=" ">
<polygon fill="none" stroke="#bfbfbf" points="0,-168.5 0,-187.5 95,-187.5 95,-168.5 0,-168.5"/>
<text text-anchor="middle" x="47.5" y="-175.5" font-family="Helvetica,sans-Serif" font-size="10.00">vulkan/vulkan.hpp</text>
</a>
</g>
</g>
<!-- Node1&#45;&gt;Node3 -->
<g id="edge2" class="edge">
<title>Node1&#45;&gt;Node3</title>
<path fill="none" stroke="midnightblue" d="M117.28,-336.47C103.53,-305.44 70.57,-231.05 55.39,-196.81"/>
<polygon fill="midnightblue" stroke="midnightblue" points="58.54,-195.28 51.29,-187.56 52.14,-198.12 58.54,-195.28"/>
</g>
<!-- Node4 -->
<g id="node4" class="node">
<title>Node4</title>
<g id="a_node4"><a xlink:href="_surface_8hpp.html" target="_top" xlink:title=" ">
<polygon fill="none" stroke="black" points="127,-280.5 127,-299.5 196,-299.5 196,-280.5 127,-280.5"/>
<text text-anchor="middle" x="161.5" y="-287.5" font-family="Helvetica,sans-Serif" font-size="10.00">Surface.hpp</text>
</a>
</g>
</g>
<!-- Node1&#45;&gt;Node4 -->
<g id="edge3" class="edge">
<title>Node1&#45;&gt;Node4</title>
<path fill="none" stroke="midnightblue" d="M132.51,-336.4C137.91,-327.93 144.83,-317.1 150.55,-308.14"/>
<polygon fill="midnightblue" stroke="midnightblue" points="153.54,-309.97 155.97,-299.66 147.64,-306.2 153.54,-309.97"/>
</g>
<!-- Node14 -->
<g id="node14" class="node">
<title>Node14</title>
<g id="a_node14"><a xlink:href="_requestable_item_8hpp.html" target="_top" xlink:title=" ">
<polygon fill="none" stroke="black" points="384.5,-168.5 384.5,-187.5 494.5,-187.5 494.5,-168.5 384.5,-168.5"/>
<text text-anchor="middle" x="439.5" y="-175.5" font-family="Helvetica,sans-Serif" font-size="10.00">RequestableItem.hpp</text>
</a>
</g>
</g>
<!-- Node1&#45;&gt;Node14 -->
<g id="edge22" class="edge">
<title>Node1&#45;&gt;Node14</title>
<path fill="none" stroke="midnightblue" d="M149.36,-336.47C209.12,-304.03 356.17,-224.23 414.79,-192.41"/>
<polygon fill="midnightblue" stroke="midnightblue" points="416.61,-195.41 423.73,-187.56 413.27,-189.25 416.61,-195.41"/>
</g>
<!-- Node4&#45;&gt;Node3 -->
<g id="edge4" class="edge">
<title>Node4&#45;&gt;Node3</title>
<path fill="none" stroke="midnightblue" d="M153.73,-280.33C142.22,-267.63 119.82,-243.36 99.5,-224 88.7,-213.71 76.04,-202.74 65.93,-194.2"/>
<polygon fill="midnightblue" stroke="midnightblue" points="68.04,-191.41 58.12,-187.68 63.55,-196.78 68.04,-191.41"/>
</g>
<!-- Node5 -->
<g id="node5" class="node">
<title>Node5</title>
<g id="a_node5"><a xlink:href="_window_8hpp.html" target="_top" xlink:title=" ">
<polygon fill="none" stroke="black" points="237,-168.5 237,-187.5 328,-187.5 328,-168.5 237,-168.5"/>
<text text-anchor="middle" x="282.5" y="-175.5" font-family="Helvetica,sans-Serif" font-size="10.00">york/Window.hpp</text>
</a>
</g>
</g>
<!-- Node4&#45;&gt;Node5 -->
<g id="edge5" class="edge">
<title>Node4&#45;&gt;Node5</title>
<path fill="none" stroke="midnightblue" d="M196.1,-283.9C220.9,-278.38 253.06,-267.03 271.5,-244 281.88,-231.03 284.03,-211.86 283.94,-197.7"/>
<polygon fill="midnightblue" stroke="midnightblue" points="287.43,-197.47 283.5,-187.63 280.44,-197.77 287.43,-197.47"/>
</g>
<!-- Node8 -->
<g id="node8" class="node">
<title>Node8</title>
<g id="a_node8"><a xlink:href="_handle_8hpp.html" target="_top" xlink:title="Contains the declarations for the Handle classes which form the basis of our Vulkan implementation.">
<polygon fill="none" stroke="black" points="151.5,-112.5 151.5,-131.5 281.5,-131.5 281.5,-112.5 151.5,-112.5"/>
<text text-anchor="middle" x="216.5" y="-119.5" font-family="Helvetica,sans-Serif" font-size="10.00">york/Graphics/Handle.hpp</text>
</a>
</g>
</g>
<!-- Node4&#45;&gt;Node8 -->
<g id="edge13" class="edge">
<title>Node4&#45;&gt;Node8</title>
<path fill="none" stroke="midnightblue" d="M163.92,-280.12C167.38,-267.56 174.05,-243.91 180.5,-224 189.99,-194.73 202.23,-161.15 209.72,-141.03"/>
<polygon fill="midnightblue" stroke="midnightblue" points="213.02,-142.18 213.25,-131.59 206.47,-139.73 213.02,-142.18"/>
</g>
<!-- Node13 -->
<g id="node13" class="node">
<title>Node13</title>
<g id="a_node13"><a xlink:href="_instance_8hpp.html" target="_top" xlink:title=" ">
<polygon fill="none" stroke="black" points="190,-224.5 190,-243.5 263,-243.5 263,-224.5 190,-224.5"/>
<text text-anchor="middle" x="226.5" y="-231.5" font-family="Helvetica,sans-Serif" font-size="10.00">Instance.hpp</text>
</a>
</g>
</g>
<!-- Node4&#45;&gt;Node13 -->
<g id="edge14" class="edge">
<title>Node4&#45;&gt;Node13</title>
<path fill="none" stroke="midnightblue" d="M171.94,-280.32C181.65,-272.26 196.32,-260.08 208,-250.37"/>
<polygon fill="midnightblue" stroke="midnightblue" points="210.41,-252.92 215.87,-243.83 205.94,-247.53 210.41,-252.92"/>
</g>
<!-- Node6 -->
<g id="node6" class="node">
<title>Node6</title>
<g id="a_node6"><a xlink:title=" ">
<polygon fill="none" stroke="#bfbfbf" points="391,-112.5 391,-131.5 432,-131.5 432,-112.5 391,-112.5"/>
<text text-anchor="middle" x="411.5" y="-119.5" font-family="Helvetica,sans-Serif" font-size="10.00">string</text>
</a>
</g>
</g>
<!-- Node5&#45;&gt;Node6 -->
<g id="edge6" class="edge">
<title>Node5&#45;&gt;Node6</title>
<path fill="none" stroke="midnightblue" d="M302.94,-168.44C324.17,-159.56 357.6,-145.56 381.75,-135.45"/>
<polygon fill="midnightblue" stroke="midnightblue" points="383.28,-138.61 391.16,-131.52 380.58,-132.15 383.28,-138.61"/>
</g>
<!-- Node7 -->
<g id="node7" class="node">
<title>Node7</title>
<g id="a_node7"><a xlink:title=" ">
<polygon fill="none" stroke="#bfbfbf" points="300,-112.5 300,-131.5 373,-131.5 373,-112.5 300,-112.5"/>
<text text-anchor="middle" x="336.5" y="-119.5" font-family="Helvetica,sans-Serif" font-size="10.00">SDL_video.h</text>
</a>
</g>
</g>
<!-- Node5&#45;&gt;Node7 -->
<g id="edge7" class="edge">
<title>Node5&#45;&gt;Node7</title>
<path fill="none" stroke="midnightblue" d="M291.42,-168.08C299.28,-160.22 310.93,-148.57 320.42,-139.08"/>
<polygon fill="midnightblue" stroke="midnightblue" points="323.15,-141.3 327.75,-131.75 318.2,-136.35 323.15,-141.3"/>
</g>
<!-- Node5&#45;&gt;Node8 -->
<g id="edge8" class="edge">
<title>Node5&#45;&gt;Node8</title>
<path fill="none" stroke="midnightblue" d="M271.9,-168.32C262.04,-160.26 247.15,-148.08 235.28,-138.37"/>
<polygon fill="midnightblue" stroke="midnightblue" points="237.25,-135.46 227.3,-131.83 232.82,-140.88 237.25,-135.46"/>
</g>
<!-- Node9 -->
<g id="node9" class="node">
<title>Node9</title>
<g id="a_node9"><a xlink:title=" ">
<polygon fill="none" stroke="#bfbfbf" points="101.5,-56.5 101.5,-75.5 145.5,-75.5 145.5,-56.5 101.5,-56.5"/>
<text text-anchor="middle" x="123.5" y="-63.5" font-family="Helvetica,sans-Serif" font-size="10.00">vector</text>
</a>
</g>
</g>
<!-- Node8&#45;&gt;Node9 -->
<g id="edge9" class="edge">
<title>Node8&#45;&gt;Node9</title>
<path fill="none" stroke="midnightblue" d="M201.56,-112.32C186.91,-103.82 164.37,-90.73 147.26,-80.8"/>
<polygon fill="midnightblue" stroke="midnightblue" points="148.81,-77.65 138.4,-75.65 145.3,-83.7 148.81,-77.65"/>
</g>
<!-- Node10 -->
<g id="node10" class="node">
<title>Node10</title>
<g id="a_node10"><a xlink:title=" ">
<polygon fill="none" stroke="#bfbfbf" points="286,-56.5 286,-75.5 345,-75.5 345,-56.5 286,-56.5"/>
<text text-anchor="middle" x="315.5" y="-63.5" font-family="Helvetica,sans-Serif" font-size="10.00">functional</text>
</a>
</g>
</g>
<!-- Node8&#45;&gt;Node10 -->
<g id="edge10" class="edge">
<title>Node8&#45;&gt;Node10</title>
<path fill="none" stroke="midnightblue" d="M232.41,-112.32C248.14,-103.74 272.44,-90.49 290.71,-80.52"/>
<polygon fill="midnightblue" stroke="midnightblue" points="292.53,-83.52 299.63,-75.65 289.18,-77.37 292.53,-83.52"/>
</g>
<!-- Node11 -->
<g id="node11" class="node">
<title>Node11</title>
<g id="a_node11"><a xlink:href="_identifiable_8hpp.html" target="_top" xlink:title=" ">
<polygon fill="none" stroke="black" points="163.5,-56.5 163.5,-75.5 267.5,-75.5 267.5,-56.5 163.5,-56.5"/>
<text text-anchor="middle" x="215.5" y="-63.5" font-family="Helvetica,sans-Serif" font-size="10.00">york/Identifiable.hpp</text>
</a>
</g>
</g>
<!-- Node8&#45;&gt;Node11 -->
<g id="edge11" class="edge">
<title>Node8&#45;&gt;Node11</title>
<path fill="none" stroke="midnightblue" d="M216.33,-112.08C216.2,-105.01 216.02,-94.86 215.85,-85.99"/>
<polygon fill="midnightblue" stroke="midnightblue" points="219.35,-85.68 215.66,-75.75 212.35,-85.81 219.35,-85.68"/>
</g>
<!-- Node12 -->
<g id="node12" class="node">
<title>Node12</title>
<g id="a_node12"><a xlink:title=" ">
<polygon fill="none" stroke="#bfbfbf" points="192.5,-0.5 192.5,-19.5 238.5,-19.5 238.5,-0.5 192.5,-0.5"/>
<text text-anchor="middle" x="215.5" y="-7.5" font-family="Helvetica,sans-Serif" font-size="10.00">cstdint</text>
</a>
</g>
</g>
<!-- Node11&#45;&gt;Node12 -->
<g id="edge12" class="edge">
<title>Node11&#45;&gt;Node12</title>
<path fill="none" stroke="midnightblue" d="M215.5,-56.08C215.5,-49.01 215.5,-38.86 215.5,-29.99"/>
<polygon fill="midnightblue" stroke="midnightblue" points="219,-29.75 215.5,-19.75 212,-29.75 219,-29.75"/>
</g>
<!-- Node13&#45;&gt;Node3 -->
<g id="edge17" class="edge">
<title>Node13&#45;&gt;Node3</title>
<path fill="none" stroke="midnightblue" d="M198.14,-224.44C167.76,-215.28 119.39,-200.69 85.68,-190.52"/>
<polygon fill="midnightblue" stroke="midnightblue" points="86.32,-187.05 75.73,-187.52 84.29,-193.76 86.32,-187.05"/>
</g>
<!-- Node13&#45;&gt;Node5 -->
<g id="edge21" class="edge">
<title>Node13&#45;&gt;Node5</title>
<path fill="none" stroke="midnightblue" d="M235.5,-224.32C243.69,-216.42 256.01,-204.55 265.97,-194.94"/>
<polygon fill="midnightblue" stroke="midnightblue" points="268.57,-197.29 273.34,-187.83 263.71,-192.26 268.57,-197.29"/>
</g>
<!-- Node13&#45;&gt;Node6 -->
<g id="edge15" class="edge">
<title>Node13&#45;&gt;Node6</title>
<path fill="none" stroke="midnightblue" d="M254.36,-224.43C277.34,-216.7 310.31,-204.1 336.5,-188 359.29,-173.99 382.02,-153.07 396.38,-138.77"/>
<polygon fill="midnightblue" stroke="midnightblue" points="398.93,-141.17 403.45,-131.59 393.94,-136.26 398.93,-141.17"/>
</g>
<!-- Node13&#45;&gt;Node8 -->
<g id="edge18" class="edge">
<title>Node13&#45;&gt;Node8</title>
<path fill="none" stroke="midnightblue" d="M225.72,-224.37C224.1,-206.62 220.38,-165.67 218.19,-141.6"/>
<polygon fill="midnightblue" stroke="midnightblue" points="221.67,-141.23 217.28,-131.59 214.7,-141.87 221.67,-141.23"/>
</g>
<!-- Node13&#45;&gt;Node9 -->
<g id="edge16" class="edge">
<title>Node13&#45;&gt;Node9</title>
<path fill="none" stroke="midnightblue" d="M217.23,-224.47C200.04,-208.14 163.07,-170.66 142.5,-132 134.73,-117.41 129.77,-99.23 126.87,-85.81"/>
<polygon fill="midnightblue" stroke="midnightblue" points="130.27,-84.98 124.9,-75.85 123.4,-86.33 130.27,-84.98"/>
</g>
<!-- Node13&#45;&gt;Node14 -->
<g id="edge19" class="edge">
<title>Node13&#45;&gt;Node14</title>
<path fill="none" stroke="midnightblue" d="M260.25,-224.44C297.02,-215.12 355.95,-200.18 396.12,-190"/>
<polygon fill="midnightblue" stroke="midnightblue" points="397.07,-193.37 405.91,-187.52 395.35,-186.58 397.07,-193.37"/>
</g>
<!-- Node14&#45;&gt;Node6 -->
<g id="edge20" class="edge">
<title>Node14&#45;&gt;Node6</title>
<path fill="none" stroke="midnightblue" d="M434.88,-168.08C431.04,-160.69 425.48,-149.95 420.74,-140.81"/>
<polygon fill="midnightblue" stroke="midnightblue" points="423.75,-139.02 416.04,-131.75 417.53,-142.24 423.75,-139.02"/>
</g>
</g>
</svg>
