<?xml version="1.0" encoding="UTF-8" standalone="no"?>
<!DOCTYPE svg PUBLIC "-//W3C//DTD SVG 1.1//EN"
 "http://www.w3.org/Graphics/SVG/1.1/DTD/svg11.dtd">
<!-- Generated by graphviz version 2.50.0 (20211204.2007)
 -->
<!-- Title: include/york/Graphics/PipelineLayout.hpp Pages: 1 -->
<svg width="588pt" height="487pt"
 viewBox="0.00 0.00 588.00 487.00" xmlns="http://www.w3.org/2000/svg" xmlns:xlink="http://www.w3.org/1999/xlink">
<g id="graph0" class="graph" transform="scale(1 1) rotate(0) translate(4 483)">
<title>include/york/Graphics/PipelineLayout.hpp</title>
<!-- Node1 -->
<g id="node1" class="node">
<title>Node1</title>
<g id="a_node1"><a xlink:title=" ">
<polygon fill="#bfbfbf" stroke="black" points="166,-448.5 166,-478.5 277,-478.5 277,-448.5 166,-448.5"/>
<text text-anchor="start" x="174" y="-466.5" font-family="Helvetica,sans-Serif" font-size="10.00">include/york/Graphics</text>
<text text-anchor="middle" x="221.5" y="-455.5" font-family="Helvetica,sans-Serif" font-size="10.00">/PipelineLayout.hpp</text>
</a>
</g>
</g>
<!-- Node2 -->
<g id="node2" class="node">
<title>Node2</title>
<g id="a_node2"><a xlink:title=" ">
<polygon fill="none" stroke="#bfbfbf" points="0,-168.5 0,-187.5 95,-187.5 95,-168.5 0,-168.5"/>
<text text-anchor="middle" x="47.5" y="-175.5" font-family="Helvetica,sans-Serif" font-size="10.00">vulkan/vulkan.hpp</text>
</a>
</g>
</g>
<!-- Node1&#45;&gt;Node2 -->
<g id="edge1" class="edge">
<title>Node1&#45;&gt;Node2</title>
<path fill="none" stroke="midnightblue" d="M165.83,-456.54C102.43,-446.32 7.5,-418.98 7.5,-347 7.5,-347 7.5,-347 7.5,-289 7.5,-254.62 24.97,-217.63 36.82,-196.5"/>
<polygon fill="midnightblue" stroke="midnightblue" points="39.92,-198.13 41.94,-187.73 33.88,-194.61 39.92,-198.13"/>
</g>
<!-- Node3 -->
<g id="node3" class="node">
<title>Node3</title>
<g id="a_node3"><a xlink:href="_device_8hpp.html" target="_top" xlink:title=" ">
<polygon fill="none" stroke="black" points="188.5,-392.5 188.5,-411.5 254.5,-411.5 254.5,-392.5 188.5,-392.5"/>
<text text-anchor="middle" x="221.5" y="-399.5" font-family="Helvetica,sans-Serif" font-size="10.00">Device.hpp</text>
</a>
</g>
</g>
<!-- Node1&#45;&gt;Node3 -->
<g id="edge2" class="edge">
<title>Node1&#45;&gt;Node3</title>
<path fill="none" stroke="midnightblue" d="M221.5,-448.4C221.5,-440.47 221.5,-430.46 221.5,-421.86"/>
<polygon fill="midnightblue" stroke="midnightblue" points="225,-421.66 221.5,-411.66 218,-421.66 225,-421.66"/>
</g>
<!-- Node5 -->
<g id="node5" class="node">
<title>Node5</title>
<g id="a_node5"><a xlink:href="_handle_8hpp.html" target="_top" xlink:title="Contains the declarations for the Handle classes which form the basis of our Vulkan implementation.">
<polygon fill="none" stroke="black" points="440.5,-112.5 440.5,-131.5 506.5,-131.5 506.5,-112.5 440.5,-112.5"/>
<text text-anchor="middle" x="473.5" y="-119.5" font-family="Helvetica,sans-Serif" font-size="10.00">Handle.hpp</text>
</a>
</g>
</g>
<!-- Node1&#45;&gt;Node5 -->
<g id="edge32" class="edge">
<title>Node1&#45;&gt;Node5</title>
<path fill="none" stroke="midnightblue" d="M277.11,-454.75C371.15,-440.07 551.5,-404.44 551.5,-347 551.5,-347 551.5,-347 551.5,-233 551.5,-192.97 516.7,-157.34 493.59,-138.09"/>
<polygon fill="midnightblue" stroke="midnightblue" points="495.68,-135.28 485.69,-131.76 491.3,-140.74 495.68,-135.28"/>
</g>
<!-- Node3&#45;&gt;Node2 -->
<g id="edge4" class="edge">
<title>Node3&#45;&gt;Node2</title>
<path fill="none" stroke="midnightblue" d="M188.42,-401.66C152.02,-400.42 94.69,-392.3 64.5,-356 26.39,-310.17 36.1,-232.77 43.17,-197.5"/>
<polygon fill="midnightblue" stroke="midnightblue" points="46.61,-198.14 45.31,-187.63 39.77,-196.66 46.61,-198.14"/>
</g>
<!-- Node4 -->
<g id="node4" class="node">
<title>Node4</title>
<g id="a_node4"><a xlink:title=" ">
<polygon fill="none" stroke="#bfbfbf" points="73.5,-336.5 73.5,-355.5 113.5,-355.5 113.5,-336.5 73.5,-336.5"/>
<text text-anchor="middle" x="93.5" y="-343.5" font-family="Helvetica,sans-Serif" font-size="10.00">utility</text>
</a>
</g>
</g>
<!-- Node3&#45;&gt;Node4 -->
<g id="edge3" class="edge">
<title>Node3&#45;&gt;Node4</title>
<path fill="none" stroke="midnightblue" d="M201.22,-392.44C180.15,-383.56 146.98,-369.56 123.01,-359.45"/>
<polygon fill="midnightblue" stroke="midnightblue" points="124.26,-356.18 113.69,-355.52 121.54,-362.63 124.26,-356.18"/>
</g>
<!-- Node3&#45;&gt;Node5 -->
<g id="edge5" class="edge">
<title>Node3&#45;&gt;Node5</title>
<path fill="none" stroke="midnightblue" d="M254.71,-395.73C331.24,-382.66 513.5,-345.78 513.5,-291 513.5,-291 513.5,-291 513.5,-233 513.5,-198.62 496.03,-161.63 484.18,-140.5"/>
<polygon fill="midnightblue" stroke="midnightblue" points="487.12,-138.61 479.06,-131.73 481.08,-142.13 487.12,-138.61"/>
</g>
<!-- Node10 -->
<g id="node10" class="node">
<title>Node10</title>
<g id="a_node10"><a xlink:href="_instance_8hpp.html" target="_top" xlink:title=" ">
<polygon fill="none" stroke="black" points="265,-224.5 265,-243.5 338,-243.5 338,-224.5 265,-224.5"/>
<text text-anchor="middle" x="301.5" y="-231.5" font-family="Helvetica,sans-Serif" font-size="10.00">Instance.hpp</text>
</a>
</g>
</g>
<!-- Node3&#45;&gt;Node10 -->
<g id="edge10" class="edge">
<title>Node3&#45;&gt;Node10</title>
<path fill="none" stroke="midnightblue" d="M239.8,-392.47C253.84,-384.92 272.46,-372.54 282.5,-356 301.92,-324 303.62,-278.79 302.78,-253.67"/>
<polygon fill="midnightblue" stroke="midnightblue" points="306.28,-253.48 302.27,-243.67 299.28,-253.83 306.28,-253.48"/>
</g>
<!-- Node12 -->
<g id="node12" class="node">
<title>Node12</title>
<g id="a_node12"><a xlink:href="_requestable_item_8hpp.html" target="_top" xlink:title=" ">
<polygon fill="none" stroke="black" points="113.5,-168.5 113.5,-187.5 223.5,-187.5 223.5,-168.5 113.5,-168.5"/>
<text text-anchor="middle" x="168.5" y="-175.5" font-family="Helvetica,sans-Serif" font-size="10.00">RequestableItem.hpp</text>
</a>
</g>
</g>
<!-- Node3&#45;&gt;Node12 -->
<g id="edge30" class="edge">
<title>Node3&#45;&gt;Node12</title>
<path fill="none" stroke="midnightblue" d="M201.59,-392.41C187.28,-385.04 169.04,-372.92 160.5,-356 134.09,-303.7 151.41,-231.24 162,-197.58"/>
<polygon fill="midnightblue" stroke="midnightblue" points="165.44,-198.32 165.27,-187.73 158.8,-196.12 165.44,-198.32"/>
</g>
<!-- Node15 -->
<g id="node15" class="node">
<title>Node15</title>
<g id="a_node15"><a xlink:href="_physical_device_8hpp.html" target="_top" xlink:title=" ">
<polygon fill="none" stroke="black" points="169.5,-336.5 169.5,-355.5 273.5,-355.5 273.5,-336.5 169.5,-336.5"/>
<text text-anchor="middle" x="221.5" y="-343.5" font-family="Helvetica,sans-Serif" font-size="10.00">PhysicalDevice.hpp</text>
</a>
</g>
</g>
<!-- Node3&#45;&gt;Node15 -->
<g id="edge21" class="edge">
<title>Node3&#45;&gt;Node15</title>
<path fill="none" stroke="midnightblue" d="M221.5,-392.08C221.5,-385.01 221.5,-374.86 221.5,-365.99"/>
<polygon fill="midnightblue" stroke="midnightblue" points="225,-365.75 221.5,-355.75 218,-365.75 225,-365.75"/>
</g>
<!-- Node17 -->
<g id="node17" class="node">
<title>Node17</title>
<g id="a_node17"><a xlink:href="_surface_8hpp.html" target="_top" xlink:title=" ">
<polygon fill="none" stroke="black" points="330,-280.5 330,-299.5 399,-299.5 399,-280.5 330,-280.5"/>
<text text-anchor="middle" x="364.5" y="-287.5" font-family="Helvetica,sans-Serif" font-size="10.00">Surface.hpp</text>
</a>
</g>
</g>
<!-- Node3&#45;&gt;Node17 -->
<g id="edge31" class="edge">
<title>Node3&#45;&gt;Node17</title>
<path fill="none" stroke="midnightblue" d="M247.33,-392.48C267.36,-385.01 295.05,-372.73 315.5,-356 331.85,-342.62 345.82,-322.7 354.61,-308.44"/>
<polygon fill="midnightblue" stroke="midnightblue" points="357.74,-310.01 359.83,-299.63 351.72,-306.45 357.74,-310.01"/>
</g>
<!-- Node6 -->
<g id="node6" class="node">
<title>Node6</title>
<g id="a_node6"><a xlink:title=" ">
<polygon fill="none" stroke="#bfbfbf" points="313.5,-56.5 313.5,-75.5 357.5,-75.5 357.5,-56.5 313.5,-56.5"/>
<text text-anchor="middle" x="335.5" y="-63.5" font-family="Helvetica,sans-Serif" font-size="10.00">vector</text>
</a>
</g>
</g>
<!-- Node5&#45;&gt;Node6 -->
<g id="edge6" class="edge">
<title>Node5&#45;&gt;Node6</title>
<path fill="none" stroke="midnightblue" d="M451.63,-112.44C428.72,-103.48 392.52,-89.31 366.63,-79.18"/>
<polygon fill="midnightblue" stroke="midnightblue" points="367.85,-75.9 357.26,-75.52 365.3,-82.42 367.85,-75.9"/>
</g>
<!-- Node7 -->
<g id="node7" class="node">
<title>Node7</title>
<g id="a_node7"><a xlink:title=" ">
<polygon fill="none" stroke="#bfbfbf" points="521,-56.5 521,-75.5 580,-75.5 580,-56.5 521,-56.5"/>
<text text-anchor="middle" x="550.5" y="-63.5" font-family="Helvetica,sans-Serif" font-size="10.00">functional</text>
</a>
</g>
</g>
<!-- Node5&#45;&gt;Node7 -->
<g id="edge7" class="edge">
<title>Node5&#45;&gt;Node7</title>
<path fill="none" stroke="midnightblue" d="M485.87,-112.32C497.66,-104.06 515.63,-91.45 529.64,-81.63"/>
<polygon fill="midnightblue" stroke="midnightblue" points="531.98,-84.26 538.16,-75.65 527.96,-78.53 531.98,-84.26"/>
</g>
<!-- Node8 -->
<g id="node8" class="node">
<title>Node8</title>
<g id="a_node8"><a xlink:href="_identifiable_8hpp.html" target="_top" xlink:title=" ">
<polygon fill="none" stroke="black" points="398.5,-56.5 398.5,-75.5 502.5,-75.5 502.5,-56.5 398.5,-56.5"/>
<text text-anchor="middle" x="450.5" y="-63.5" font-family="Helvetica,sans-Serif" font-size="10.00">york/Identifiable.hpp</text>
</a>
</g>
</g>
<!-- Node5&#45;&gt;Node8 -->
<g id="edge8" class="edge">
<title>Node5&#45;&gt;Node8</title>
<path fill="none" stroke="midnightblue" d="M469.7,-112.08C466.59,-104.77 462.08,-94.18 458.21,-85.1"/>
<polygon fill="midnightblue" stroke="midnightblue" points="461.37,-83.58 454.23,-75.75 454.93,-86.32 461.37,-83.58"/>
</g>
<!-- Node9 -->
<g id="node9" class="node">
<title>Node9</title>
<g id="a_node9"><a xlink:title=" ">
<polygon fill="none" stroke="#bfbfbf" points="427.5,-0.5 427.5,-19.5 473.5,-19.5 473.5,-0.5 427.5,-0.5"/>
<text text-anchor="middle" x="450.5" y="-7.5" font-family="Helvetica,sans-Serif" font-size="10.00">cstdint</text>
</a>
</g>
</g>
<!-- Node8&#45;&gt;Node9 -->
<g id="edge9" class="edge">
<title>Node8&#45;&gt;Node9</title>
<path fill="none" stroke="midnightblue" d="M450.5,-56.08C450.5,-49.01 450.5,-38.86 450.5,-29.99"/>
<polygon fill="midnightblue" stroke="midnightblue" points="454,-29.75 450.5,-19.75 447,-29.75 454,-29.75"/>
</g>
<!-- Node10&#45;&gt;Node2 -->
<g id="edge13" class="edge">
<title>Node10&#45;&gt;Node2</title>
<path fill="none" stroke="midnightblue" d="M264.84,-225.21C220.75,-215.83 146.56,-200.06 97.31,-189.59"/>
<polygon fill="midnightblue" stroke="midnightblue" points="98.01,-186.16 87.5,-187.5 96.56,-193.01 98.01,-186.16"/>
</g>
<!-- Node10&#45;&gt;Node5 -->
<g id="edge14" class="edge">
<title>Node10&#45;&gt;Node5</title>
<path fill="none" stroke="midnightblue" d="M335.89,-224.48C360.19,-217.35 392.71,-205.51 417.5,-188 435.86,-175.03 452.04,-154.76 462.23,-140.3"/>
<polygon fill="midnightblue" stroke="midnightblue" points="465.29,-142.02 468.02,-131.78 459.5,-138.09 465.29,-142.02"/>
</g>
<!-- Node10&#45;&gt;Node6 -->
<g id="edge12" class="edge">
<title>Node10&#45;&gt;Node6</title>
<path fill="none" stroke="midnightblue" d="M300.6,-224.24C298.83,-203.96 296.04,-152.42 308.5,-112 311.58,-102.01 317.33,-91.93 322.73,-83.85"/>
<polygon fill="midnightblue" stroke="midnightblue" points="325.59,-85.87 328.52,-75.69 319.88,-81.82 325.59,-85.87"/>
</g>
<!-- Node11 -->
<g id="node11" class="node">
<title>Node11</title>
<g id="a_node11"><a xlink:title=" ">
<polygon fill="none" stroke="#bfbfbf" points="220,-112.5 220,-131.5 261,-131.5 261,-112.5 220,-112.5"/>
<text text-anchor="middle" x="240.5" y="-119.5" font-family="Helvetica,sans-Serif" font-size="10.00">string</text>
</a>
</g>
</g>
<!-- Node10&#45;&gt;Node11 -->
<g id="edge11" class="edge">
<title>Node10&#45;&gt;Node11</title>
<path fill="none" stroke="midnightblue" d="M296.44,-224.42C291.14,-215.39 282.62,-200.76 275.5,-188 266.64,-172.12 256.86,-153.89 249.89,-140.78"/>
<polygon fill="midnightblue" stroke="midnightblue" points="252.95,-139.07 245.17,-131.88 246.76,-142.35 252.95,-139.07"/>
</g>
<!-- Node10&#45;&gt;Node12 -->
<g id="edge15" class="edge">
<title>Node10&#45;&gt;Node12</title>
<path fill="none" stroke="midnightblue" d="M280.43,-224.44C258.44,-215.52 223.77,-201.44 198.84,-191.32"/>
<polygon fill="midnightblue" stroke="midnightblue" points="200.06,-188.04 189.48,-187.52 197.42,-194.52 200.06,-188.04"/>
</g>
<!-- Node13 -->
<g id="node13" class="node">
<title>Node13</title>
<g id="a_node13"><a xlink:href="_window_8hpp.html" target="_top" xlink:title=" ">
<polygon fill="none" stroke="black" points="318,-168.5 318,-187.5 409,-187.5 409,-168.5 318,-168.5"/>
<text text-anchor="middle" x="363.5" y="-175.5" font-family="Helvetica,sans-Serif" font-size="10.00">york/Window.hpp</text>
</a>
</g>
</g>
<!-- Node10&#45;&gt;Node13 -->
<g id="edge17" class="edge">
<title>Node10&#45;&gt;Node13</title>
<path fill="none" stroke="midnightblue" d="M311.46,-224.32C320.63,-216.34 334.44,-204.31 345.53,-194.65"/>
<polygon fill="midnightblue" stroke="midnightblue" points="348.12,-197.04 353.36,-187.83 343.52,-191.76 348.12,-197.04"/>
</g>
<!-- Node12&#45;&gt;Node11 -->
<g id="edge16" class="edge">
<title>Node12&#45;&gt;Node11</title>
<path fill="none" stroke="midnightblue" d="M180.07,-168.32C190.92,-160.18 207.38,-147.84 220.38,-138.09"/>
<polygon fill="midnightblue" stroke="midnightblue" points="222.82,-140.63 228.72,-131.83 218.62,-135.03 222.82,-140.63"/>
</g>
<!-- Node13&#45;&gt;Node5 -->
<g id="edge20" class="edge">
<title>Node13&#45;&gt;Node5</title>
<path fill="none" stroke="midnightblue" d="M381.17,-168.32C398.89,-159.62 426.4,-146.12 446.79,-136.11"/>
<polygon fill="midnightblue" stroke="midnightblue" points="448.44,-139.2 455.87,-131.65 445.35,-132.92 448.44,-139.2"/>
</g>
<!-- Node13&#45;&gt;Node11 -->
<g id="edge18" class="edge">
<title>Node13&#45;&gt;Node11</title>
<path fill="none" stroke="midnightblue" d="M344.01,-168.44C323.86,-159.6 292.18,-145.69 269.17,-135.59"/>
<polygon fill="midnightblue" stroke="midnightblue" points="270.46,-132.33 259.9,-131.52 267.65,-138.74 270.46,-132.33"/>
</g>
<!-- Node14 -->
<g id="node14" class="node">
<title>Node14</title>
<g id="a_node14"><a xlink:title=" ">
<polygon fill="none" stroke="#bfbfbf" points="318,-112.5 318,-131.5 419,-131.5 419,-112.5 318,-112.5"/>
<text text-anchor="middle" x="368.5" y="-119.5" font-family="Helvetica,sans-Serif" font-size="10.00">SDL2/SDL_video.h</text>
</a>
</g>
</g>
<!-- Node13&#45;&gt;Node14 -->
<g id="edge19" class="edge">
<title>Node13&#45;&gt;Node14</title>
<path fill="none" stroke="midnightblue" d="M364.33,-168.08C364.98,-161.01 365.92,-150.86 366.74,-141.99"/>
<polygon fill="midnightblue" stroke="midnightblue" points="370.25,-142.03 367.69,-131.75 363.28,-141.39 370.25,-142.03"/>
</g>
<!-- Node15&#45;&gt;Node2 -->
<g id="edge23" class="edge">
<title>Node15&#45;&gt;Node2</title>
<path fill="none" stroke="midnightblue" d="M212.15,-336.08C184.04,-309.27 100.11,-229.19 64.15,-194.89"/>
<polygon fill="midnightblue" stroke="midnightblue" points="66.13,-191.94 56.48,-187.57 61.3,-197 66.13,-191.94"/>
</g>
<!-- Node15&#45;&gt;Node12 -->
<g id="edge29" class="edge">
<title>Node15&#45;&gt;Node12</title>
<path fill="none" stroke="midnightblue" d="M228.49,-336.2C237.5,-323.74 251.25,-300.21 244.5,-280 232.87,-245.22 204.04,-212.8 185.42,-194.49"/>
<polygon fill="midnightblue" stroke="midnightblue" points="187.79,-191.92 178.14,-187.54 182.95,-196.98 187.79,-191.92"/>
</g>
<!-- Node16 -->
<g id="node16" class="node">
<title>Node16</title>
<g id="a_node16"><a xlink:title=" ">
<polygon fill="none" stroke="#bfbfbf" points="185.5,-280.5 185.5,-299.5 235.5,-299.5 235.5,-280.5 185.5,-280.5"/>
<text text-anchor="middle" x="210.5" y="-287.5" font-family="Helvetica,sans-Serif" font-size="10.00">optional</text>
</a>
</g>
</g>
<!-- Node15&#45;&gt;Node16 -->
<g id="edge22" class="edge">
<title>Node15&#45;&gt;Node16</title>
<path fill="none" stroke="midnightblue" d="M219.68,-336.08C218.23,-328.93 216.13,-318.64 214.31,-309.69"/>
<polygon fill="midnightblue" stroke="midnightblue" points="217.71,-308.85 212.28,-299.75 210.85,-310.25 217.71,-308.85"/>
</g>
<!-- Node15&#45;&gt;Node17 -->
<g id="edge24" class="edge">
<title>Node15&#45;&gt;Node17</title>
<path fill="none" stroke="midnightblue" d="M244.16,-336.44C267.9,-327.48 305.41,-313.31 332.24,-303.18"/>
<polygon fill="midnightblue" stroke="midnightblue" points="333.83,-306.32 341.95,-299.52 331.36,-299.77 333.83,-306.32"/>
</g>
<!-- Node17&#45;&gt;Node2 -->
<g id="edge25" class="edge">
<title>Node17&#45;&gt;Node2</title>
<path fill="none" stroke="midnightblue" d="M339.89,-280.46C283.83,-261.01 146.51,-213.36 82.01,-190.98"/>
<polygon fill="midnightblue" stroke="midnightblue" points="82.91,-187.58 72.31,-187.61 80.61,-194.2 82.91,-187.58"/>
</g>
<!-- Node17&#45;&gt;Node5 -->
<g id="edge27" class="edge">
<title>Node17&#45;&gt;Node5</title>
<path fill="none" stroke="midnightblue" d="M372.28,-280.28C387.14,-263.33 420.1,-224.42 442.5,-188 451.8,-172.87 460.32,-154.52 466.07,-141.18"/>
<polygon fill="midnightblue" stroke="midnightblue" points="469.4,-142.29 470.04,-131.72 462.95,-139.58 469.4,-142.29"/>
</g>
<!-- Node17&#45;&gt;Node10 -->
<g id="edge28" class="edge">
<title>Node17&#45;&gt;Node10</title>
<path fill="none" stroke="midnightblue" d="M354.38,-280.32C344.97,-272.26 330.76,-260.08 319.43,-250.37"/>
<polygon fill="midnightblue" stroke="midnightblue" points="321.68,-247.68 311.81,-243.83 317.12,-253 321.68,-247.68"/>
</g>
<!-- Node17&#45;&gt;Node13 -->
<g id="edge26" class="edge">
<title>Node17&#45;&gt;Node13</title>
<path fill="none" stroke="midnightblue" d="M364.42,-280.37C364.26,-262.62 363.89,-221.67 363.67,-197.6"/>
<polygon fill="midnightblue" stroke="midnightblue" points="367.17,-197.56 363.58,-187.59 360.17,-197.62 367.17,-197.56"/>
</g>
</g>
</svg>
