<?xml version="1.0" encoding="UTF-8" standalone="no"?>
<!DOCTYPE svg PUBLIC "-//W3C//DTD SVG 1.1//EN"
 "http://www.w3.org/Graphics/SVG/1.1/DTD/svg11.dtd">
<!-- Generated by graphviz version 2.50.0 (20211204.2007)
 -->
<!-- Title: include/york/Graphics/PipelineLayout.hpp Pages: 1 -->
<svg width="702pt" height="431pt"
 viewBox="0.00 0.00 702.00 431.00" xmlns="http://www.w3.org/2000/svg" xmlns:xlink="http://www.w3.org/1999/xlink">
<g id="graph0" class="graph" transform="scale(1 1) rotate(0) translate(4 427)">
<title>include/york/Graphics/PipelineLayout.hpp</title>
<!-- Node1 -->
<g id="node1" class="node">
<title>Node1</title>
<g id="a_node1"><a xlink:title=" ">
<polygon fill="#bfbfbf" stroke="black" points="311.5,-392.5 311.5,-422.5 422.5,-422.5 422.5,-392.5 311.5,-392.5"/>
<text text-anchor="start" x="319.5" y="-410.5" font-family="Helvetica,sans-Serif" font-size="10.00">include/york/Graphics</text>
<text text-anchor="middle" x="367" y="-399.5" font-family="Helvetica,sans-Serif" font-size="10.00">/PipelineLayout.hpp</text>
</a>
</g>
</g>
<!-- Node2 -->
<g id="node2" class="node">
<title>Node2</title>
<g id="a_node2"><a xlink:title=" ">
<polygon fill="none" stroke="#bfbfbf" points="402.5,-168.5 402.5,-187.5 497.5,-187.5 497.5,-168.5 402.5,-168.5"/>
<text text-anchor="middle" x="450" y="-175.5" font-family="Helvetica,sans-Serif" font-size="10.00">vulkan/vulkan.hpp</text>
</a>
</g>
</g>
<!-- Node1&#45;&gt;Node2 -->
<g id="edge1" class="edge">
<title>Node1&#45;&gt;Node2</title>
<path fill="none" stroke="midnightblue" d="M393.7,-392.4C435.82,-368.44 516.17,-315.35 548,-244 559.78,-217.59 528.51,-200.5 498.23,-190.51"/>
<polygon fill="midnightblue" stroke="midnightblue" points="499.08,-187.11 488.49,-187.51 497.02,-193.8 499.08,-187.11"/>
</g>
<!-- Node3 -->
<g id="node3" class="node">
<title>Node3</title>
<g id="a_node3"><a xlink:href="_device_8hpp.html" target="_top" xlink:title=" ">
<polygon fill="none" stroke="black" points="334,-336.5 334,-355.5 400,-355.5 400,-336.5 334,-336.5"/>
<text text-anchor="middle" x="367" y="-343.5" font-family="Helvetica,sans-Serif" font-size="10.00">Device.hpp</text>
</a>
</g>
</g>
<!-- Node1&#45;&gt;Node3 -->
<g id="edge2" class="edge">
<title>Node1&#45;&gt;Node3</title>
<path fill="none" stroke="midnightblue" d="M367,-392.4C367,-384.47 367,-374.46 367,-365.86"/>
<polygon fill="midnightblue" stroke="midnightblue" points="370.5,-365.66 367,-355.66 363.5,-365.66 370.5,-365.66"/>
</g>
<!-- Node5 -->
<g id="node5" class="node">
<title>Node5</title>
<g id="a_node5"><a xlink:href="_handle_8hpp.html" target="_top" xlink:title="Contains the declarations for the Handle classes which form the basis of our Vulkan implementation.">
<polygon fill="none" stroke="black" points="118,-112.5 118,-131.5 184,-131.5 184,-112.5 118,-112.5"/>
<text text-anchor="middle" x="151" y="-119.5" font-family="Helvetica,sans-Serif" font-size="10.00">Handle.hpp</text>
</a>
</g>
</g>
<!-- Node1&#45;&gt;Node5 -->
<g id="edge32" class="edge">
<title>Node1&#45;&gt;Node5</title>
<path fill="none" stroke="midnightblue" d="M311.2,-396.31C226.19,-379.17 74,-341.44 74,-291 74,-291 74,-291 74,-233 74,-192.93 108.71,-157.08 131.53,-137.84"/>
<polygon fill="midnightblue" stroke="midnightblue" points="133.74,-140.55 139.31,-131.53 129.33,-135.11 133.74,-140.55"/>
</g>
<!-- Node3&#45;&gt;Node2 -->
<g id="edge4" class="edge">
<title>Node3&#45;&gt;Node2</title>
<path fill="none" stroke="midnightblue" d="M371.04,-336.44C380.45,-316.57 404.65,-265.84 426,-224 430.63,-214.92 435.96,-204.9 440.41,-196.62"/>
<polygon fill="midnightblue" stroke="midnightblue" points="443.62,-198.04 445.31,-187.58 437.47,-194.71 443.62,-198.04"/>
</g>
<!-- Node4 -->
<g id="node4" class="node">
<title>Node4</title>
<g id="a_node4"><a xlink:title=" ">
<polygon fill="none" stroke="#bfbfbf" points="211,-280.5 211,-299.5 251,-299.5 251,-280.5 211,-280.5"/>
<text text-anchor="middle" x="231" y="-287.5" font-family="Helvetica,sans-Serif" font-size="10.00">utility</text>
</a>
</g>
</g>
<!-- Node3&#45;&gt;Node4 -->
<g id="edge3" class="edge">
<title>Node3&#45;&gt;Node4</title>
<path fill="none" stroke="midnightblue" d="M345.45,-336.44C322.57,-327.36 286.26,-312.94 260.68,-302.78"/>
<polygon fill="midnightblue" stroke="midnightblue" points="261.7,-299.43 251.12,-298.99 259.12,-305.93 261.7,-299.43"/>
</g>
<!-- Node3&#45;&gt;Node5 -->
<g id="edge5" class="edge">
<title>Node3&#45;&gt;Node5</title>
<path fill="none" stroke="midnightblue" d="M333.88,-345.05C296.84,-343.28 237.42,-334.71 202,-300 157.89,-256.78 151.31,-178.05 150.74,-141.98"/>
<polygon fill="midnightblue" stroke="midnightblue" points="154.24,-141.86 150.72,-131.86 147.24,-141.87 154.24,-141.86"/>
</g>
<!-- Node10 -->
<g id="node10" class="node">
<title>Node10</title>
<g id="a_node10"><a xlink:href="_instance_8hpp.html" target="_top" xlink:title=" ">
<polygon fill="none" stroke="black" points="267.5,-224.5 267.5,-243.5 340.5,-243.5 340.5,-224.5 267.5,-224.5"/>
<text text-anchor="middle" x="304" y="-231.5" font-family="Helvetica,sans-Serif" font-size="10.00">Instance.hpp</text>
</a>
</g>
</g>
<!-- Node3&#45;&gt;Node10 -->
<g id="edge10" class="edge">
<title>Node3&#45;&gt;Node10</title>
<path fill="none" stroke="midnightblue" d="M365.86,-336.48C363.85,-323.53 358.8,-298.47 348,-280 341.5,-268.88 331.65,-258.46 322.92,-250.45"/>
<polygon fill="midnightblue" stroke="midnightblue" points="325.17,-247.77 315.34,-243.82 320.57,-253.04 325.17,-247.77"/>
</g>
<!-- Node12 -->
<g id="node12" class="node">
<title>Node12</title>
<g id="a_node12"><a xlink:href="_requestable_item_8hpp.html" target="_top" xlink:title=" ">
<polygon fill="none" stroke="black" points="516,-168.5 516,-187.5 626,-187.5 626,-168.5 516,-168.5"/>
<text text-anchor="middle" x="571" y="-175.5" font-family="Helvetica,sans-Serif" font-size="10.00">RequestableItem.hpp</text>
</a>
</g>
</g>
<!-- Node3&#45;&gt;Node12 -->
<g id="edge26" class="edge">
<title>Node3&#45;&gt;Node12</title>
<path fill="none" stroke="midnightblue" d="M395,-336.44C434.52,-322.99 506.46,-293.23 548,-244 559.21,-230.72 565.1,-211.59 568.1,-197.53"/>
<polygon fill="midnightblue" stroke="midnightblue" points="571.57,-198.01 569.94,-187.54 564.69,-196.74 571.57,-198.01"/>
</g>
<!-- Node15 -->
<g id="node15" class="node">
<title>Node15</title>
<g id="a_node15"><a xlink:href="_physical_device_8hpp.html" target="_top" xlink:title=" ">
<polygon fill="none" stroke="black" points="435,-224.5 435,-243.5 539,-243.5 539,-224.5 435,-224.5"/>
<text text-anchor="middle" x="487" y="-231.5" font-family="Helvetica,sans-Serif" font-size="10.00">PhysicalDevice.hpp</text>
</a>
</g>
</g>
<!-- Node3&#45;&gt;Node15 -->
<g id="edge21" class="edge">
<title>Node3&#45;&gt;Node15</title>
<path fill="none" stroke="midnightblue" d="M377.98,-336.29C389.06,-327.41 406.53,-313.11 421,-300 438.76,-283.9 458.22,-264.51 471.37,-251.12"/>
<polygon fill="midnightblue" stroke="midnightblue" points="474.19,-253.24 478.67,-243.65 469.18,-248.35 474.19,-253.24"/>
</g>
<!-- Node17 -->
<g id="node17" class="node">
<title>Node17</title>
<g id="a_node17"><a xlink:href="_surface_8hpp.html" target="_top" xlink:title=" ">
<polygon fill="none" stroke="black" points="269.5,-280.5 269.5,-299.5 338.5,-299.5 338.5,-280.5 269.5,-280.5"/>
<text text-anchor="middle" x="304" y="-287.5" font-family="Helvetica,sans-Serif" font-size="10.00">Surface.hpp</text>
</a>
</g>
</g>
<!-- Node3&#45;&gt;Node17 -->
<g id="edge27" class="edge">
<title>Node3&#45;&gt;Node17</title>
<path fill="none" stroke="midnightblue" d="M356.88,-336.32C347.47,-328.26 333.26,-316.08 321.93,-306.37"/>
<polygon fill="midnightblue" stroke="midnightblue" points="324.18,-303.68 314.31,-299.83 319.62,-309 324.18,-303.68"/>
</g>
<!-- Node6 -->
<g id="node6" class="node">
<title>Node6</title>
<g id="a_node6"><a xlink:title=" ">
<polygon fill="none" stroke="#bfbfbf" points="203,-56.5 203,-75.5 247,-75.5 247,-56.5 203,-56.5"/>
<text text-anchor="middle" x="225" y="-63.5" font-family="Helvetica,sans-Serif" font-size="10.00">vector</text>
</a>
</g>
</g>
<!-- Node5&#45;&gt;Node6 -->
<g id="edge6" class="edge">
<title>Node5&#45;&gt;Node6</title>
<path fill="none" stroke="midnightblue" d="M162.89,-112.32C174.15,-104.11 191.29,-91.6 204.71,-81.81"/>
<polygon fill="midnightblue" stroke="midnightblue" points="206.88,-84.56 212.89,-75.83 202.75,-78.9 206.88,-84.56"/>
</g>
<!-- Node7 -->
<g id="node7" class="node">
<title>Node7</title>
<g id="a_node7"><a xlink:title=" ">
<polygon fill="none" stroke="#bfbfbf" points="122.5,-56.5 122.5,-75.5 181.5,-75.5 181.5,-56.5 122.5,-56.5"/>
<text text-anchor="middle" x="152" y="-63.5" font-family="Helvetica,sans-Serif" font-size="10.00">functional</text>
</a>
</g>
</g>
<!-- Node5&#45;&gt;Node7 -->
<g id="edge7" class="edge">
<title>Node5&#45;&gt;Node7</title>
<path fill="none" stroke="midnightblue" d="M151.17,-112.08C151.3,-105.01 151.48,-94.86 151.65,-85.99"/>
<polygon fill="midnightblue" stroke="midnightblue" points="155.15,-85.81 151.84,-75.75 148.15,-85.68 155.15,-85.81"/>
</g>
<!-- Node8 -->
<g id="node8" class="node">
<title>Node8</title>
<g id="a_node8"><a xlink:href="_identifiable_8hpp.html" target="_top" xlink:title=" ">
<polygon fill="none" stroke="black" points="0,-56.5 0,-75.5 104,-75.5 104,-56.5 0,-56.5"/>
<text text-anchor="middle" x="52" y="-63.5" font-family="Helvetica,sans-Serif" font-size="10.00">york/Identifiable.hpp</text>
</a>
</g>
</g>
<!-- Node5&#45;&gt;Node8 -->
<g id="edge8" class="edge">
<title>Node5&#45;&gt;Node8</title>
<path fill="none" stroke="midnightblue" d="M135.09,-112.32C119.36,-103.74 95.06,-90.49 76.79,-80.52"/>
<polygon fill="midnightblue" stroke="midnightblue" points="78.32,-77.37 67.87,-75.65 74.97,-83.52 78.32,-77.37"/>
</g>
<!-- Node9 -->
<g id="node9" class="node">
<title>Node9</title>
<g id="a_node9"><a xlink:title=" ">
<polygon fill="none" stroke="#bfbfbf" points="29,-0.5 29,-19.5 75,-19.5 75,-0.5 29,-0.5"/>
<text text-anchor="middle" x="52" y="-7.5" font-family="Helvetica,sans-Serif" font-size="10.00">cstdint</text>
</a>
</g>
</g>
<!-- Node8&#45;&gt;Node9 -->
<g id="edge9" class="edge">
<title>Node8&#45;&gt;Node9</title>
<path fill="none" stroke="midnightblue" d="M52,-56.08C52,-49.01 52,-38.86 52,-29.99"/>
<polygon fill="midnightblue" stroke="midnightblue" points="55.5,-29.75 52,-19.75 48.5,-29.75 55.5,-29.75"/>
</g>
<!-- Node10&#45;&gt;Node2 -->
<g id="edge13" class="edge">
<title>Node10&#45;&gt;Node2</title>
<path fill="none" stroke="midnightblue" d="M327.13,-224.44C351.48,-215.44 390.01,-201.19 417.42,-191.05"/>
<polygon fill="midnightblue" stroke="midnightblue" points="418.81,-194.27 426.97,-187.52 416.38,-187.7 418.81,-194.27"/>
</g>
<!-- Node10&#45;&gt;Node5 -->
<g id="edge14" class="edge">
<title>Node10&#45;&gt;Node5</title>
<path fill="none" stroke="midnightblue" d="M280.78,-224.39C261.35,-216.57 233.46,-203.84 212,-188 193.03,-173.99 175.03,-153.63 163.57,-139.44"/>
<polygon fill="midnightblue" stroke="midnightblue" points="166.26,-137.21 157.33,-131.52 160.76,-141.54 166.26,-137.21"/>
</g>
<!-- Node10&#45;&gt;Node6 -->
<g id="edge12" class="edge">
<title>Node10&#45;&gt;Node6</title>
<path fill="none" stroke="midnightblue" d="M286.6,-224.45C273.01,-216.83 254.83,-204.34 245,-188 225.77,-156.02 223.49,-111.12 223.97,-85.98"/>
<polygon fill="midnightblue" stroke="midnightblue" points="227.48,-85.77 224.35,-75.65 220.49,-85.51 227.48,-85.77"/>
</g>
<!-- Node11 -->
<g id="node11" class="node">
<title>Node11</title>
<g id="a_node11"><a xlink:title=" ">
<polygon fill="none" stroke="#bfbfbf" points="353.5,-112.5 353.5,-131.5 394.5,-131.5 394.5,-112.5 353.5,-112.5"/>
<text text-anchor="middle" x="374" y="-119.5" font-family="Helvetica,sans-Serif" font-size="10.00">string</text>
</a>
</g>
</g>
<!-- Node10&#45;&gt;Node11 -->
<g id="edge11" class="edge">
<title>Node10&#45;&gt;Node11</title>
<path fill="none" stroke="midnightblue" d="M317.65,-224.25C329.2,-216.17 345.37,-203.15 355,-188 363.97,-173.89 368.83,-155.4 371.39,-141.75"/>
<polygon fill="midnightblue" stroke="midnightblue" points="374.89,-142.06 373.03,-131.63 367.98,-140.94 374.89,-142.06"/>
</g>
<!-- Node10&#45;&gt;Node12 -->
<g id="edge15" class="edge">
<title>Node10&#45;&gt;Node12</title>
<path fill="none" stroke="midnightblue" d="M340.57,-225.6C386.63,-216.29 466.09,-200.22 518.6,-189.6"/>
<polygon fill="midnightblue" stroke="midnightblue" points="519.61,-192.96 528.72,-187.55 518.23,-186.1 519.61,-192.96"/>
</g>
<!-- Node13 -->
<g id="node13" class="node">
<title>Node13</title>
<g id="a_node13"><a xlink:href="_window_8hpp.html" target="_top" xlink:title=" ">
<polygon fill="none" stroke="black" points="254.5,-168.5 254.5,-187.5 345.5,-187.5 345.5,-168.5 254.5,-168.5"/>
<text text-anchor="middle" x="300" y="-175.5" font-family="Helvetica,sans-Serif" font-size="10.00">york/Window.hpp</text>
</a>
</g>
</g>
<!-- Node10&#45;&gt;Node13 -->
<g id="edge17" class="edge">
<title>Node10&#45;&gt;Node13</title>
<path fill="none" stroke="midnightblue" d="M303.34,-224.08C302.82,-217.01 302.06,-206.86 301.41,-197.99"/>
<polygon fill="midnightblue" stroke="midnightblue" points="304.88,-197.47 300.65,-187.75 297.9,-197.98 304.88,-197.47"/>
</g>
<!-- Node12&#45;&gt;Node11 -->
<g id="edge16" class="edge">
<title>Node12&#45;&gt;Node11</title>
<path fill="none" stroke="midnightblue" d="M539.78,-168.44C502.6,-158.25 440.9,-141.34 404.17,-131.27"/>
<polygon fill="midnightblue" stroke="midnightblue" points="405.09,-127.89 394.52,-128.62 403.24,-134.64 405.09,-127.89"/>
</g>
<!-- Node13&#45;&gt;Node5 -->
<g id="edge20" class="edge">
<title>Node13&#45;&gt;Node5</title>
<path fill="none" stroke="midnightblue" d="M276.39,-168.44C251.54,-159.44 212.23,-145.19 184.25,-135.05"/>
<polygon fill="midnightblue" stroke="midnightblue" points="185.09,-131.63 174.5,-131.52 182.71,-138.21 185.09,-131.63"/>
</g>
<!-- Node13&#45;&gt;Node11 -->
<g id="edge18" class="edge">
<title>Node13&#45;&gt;Node11</title>
<path fill="none" stroke="midnightblue" d="M311.89,-168.32C323.15,-160.11 340.29,-147.6 353.71,-137.81"/>
<polygon fill="midnightblue" stroke="midnightblue" points="355.88,-140.56 361.89,-131.83 351.75,-134.9 355.88,-140.56"/>
</g>
<!-- Node14 -->
<g id="node14" class="node">
<title>Node14</title>
<g id="a_node14"><a xlink:title=" ">
<polygon fill="none" stroke="#bfbfbf" points="262.5,-112.5 262.5,-131.5 335.5,-131.5 335.5,-112.5 262.5,-112.5"/>
<text text-anchor="middle" x="299" y="-119.5" font-family="Helvetica,sans-Serif" font-size="10.00">SDL_video.h</text>
</a>
</g>
</g>
<!-- Node13&#45;&gt;Node14 -->
<g id="edge19" class="edge">
<title>Node13&#45;&gt;Node14</title>
<path fill="none" stroke="midnightblue" d="M299.83,-168.08C299.7,-161.01 299.52,-150.86 299.35,-141.99"/>
<polygon fill="midnightblue" stroke="midnightblue" points="302.85,-141.68 299.16,-131.75 295.85,-141.81 302.85,-141.68"/>
</g>
<!-- Node15&#45;&gt;Node2 -->
<g id="edge23" class="edge">
<title>Node15&#45;&gt;Node2</title>
<path fill="none" stroke="midnightblue" d="M480.89,-224.08C475.72,-216.53 468.15,-205.49 461.81,-196.23"/>
<polygon fill="midnightblue" stroke="midnightblue" points="464.54,-194.02 456,-187.75 458.76,-197.98 464.54,-194.02"/>
</g>
<!-- Node15&#45;&gt;Node12 -->
<g id="edge24" class="edge">
<title>Node15&#45;&gt;Node12</title>
<path fill="none" stroke="midnightblue" d="M500.5,-224.32C513.6,-215.9 533.71,-202.97 549.11,-193.07"/>
<polygon fill="midnightblue" stroke="midnightblue" points="551.02,-196.01 557.54,-187.65 547.23,-190.12 551.02,-196.01"/>
</g>
<!-- Node15&#45;&gt;Node13 -->
<g id="edge25" class="edge">
<title>Node15&#45;&gt;Node13</title>
<path fill="none" stroke="midnightblue" d="M457.37,-224.44C425.5,-215.24 374.67,-200.56 339.44,-190.39"/>
<polygon fill="midnightblue" stroke="midnightblue" points="340.07,-186.93 329.49,-187.52 338.13,-193.65 340.07,-186.93"/>
</g>
<!-- Node16 -->
<g id="node16" class="node">
<title>Node16</title>
<g id="a_node16"><a xlink:title=" ">
<polygon fill="none" stroke="#bfbfbf" points="644,-168.5 644,-187.5 694,-187.5 694,-168.5 644,-168.5"/>
<text text-anchor="middle" x="669" y="-175.5" font-family="Helvetica,sans-Serif" font-size="10.00">optional</text>
</a>
</g>
</g>
<!-- Node15&#45;&gt;Node16 -->
<g id="edge22" class="edge">
<title>Node15&#45;&gt;Node16</title>
<path fill="none" stroke="midnightblue" d="M515.84,-224.44C547.95,-214.92 599.84,-199.52 634.19,-189.33"/>
<polygon fill="midnightblue" stroke="midnightblue" points="635.22,-192.67 643.81,-186.47 633.23,-185.96 635.22,-192.67"/>
</g>
<!-- Node17&#45;&gt;Node2 -->
<g id="edge28" class="edge">
<title>Node17&#45;&gt;Node2</title>
<path fill="none" stroke="midnightblue" d="M315.46,-280.37C340.3,-261.65 399.36,-217.15 430.31,-193.83"/>
<polygon fill="midnightblue" stroke="midnightblue" points="432.72,-196.4 438.6,-187.59 428.5,-190.81 432.72,-196.4"/>
</g>
<!-- Node17&#45;&gt;Node5 -->
<g id="edge29" class="edge">
<title>Node17&#45;&gt;Node5</title>
<path fill="none" stroke="midnightblue" d="M290.93,-280.28C267.58,-264.2 218.15,-227.89 186,-188 174.33,-173.53 164.65,-154.59 158.45,-140.89"/>
<polygon fill="midnightblue" stroke="midnightblue" points="161.61,-139.38 154.41,-131.6 155.19,-142.17 161.61,-139.38"/>
</g>
<!-- Node17&#45;&gt;Node10 -->
<g id="edge30" class="edge">
<title>Node17&#45;&gt;Node10</title>
<path fill="none" stroke="midnightblue" d="M304,-280.08C304,-273.01 304,-262.86 304,-253.99"/>
<polygon fill="midnightblue" stroke="midnightblue" points="307.5,-253.75 304,-243.75 300.5,-253.75 307.5,-253.75"/>
</g>
<!-- Node17&#45;&gt;Node13 -->
<g id="edge31" class="edge">
<title>Node17&#45;&gt;Node13</title>
<path fill="none" stroke="midnightblue" d="M290.94,-280.44C280.09,-272.47 265.43,-259.52 259,-244 251.45,-225.76 266.32,-206.89 280.22,-194.21"/>
<polygon fill="midnightblue" stroke="midnightblue" points="282.75,-196.65 288.11,-187.52 278.22,-191.32 282.75,-196.65"/>
</g>
</g>
</svg>
