<?xml version="1.0" encoding="UTF-8" standalone="no"?>
<!DOCTYPE svg PUBLIC "-//W3C//DTD SVG 1.1//EN"
 "http://www.w3.org/Graphics/SVG/1.1/DTD/svg11.dtd">
<!-- Generated by graphviz version 2.50.0 (20211204.2007)
 -->
<!-- Title: include/york/Graphics/Pipeline.hpp Pages: 1 -->
<svg width="1133pt" height="655pt"
 viewBox="0.00 0.00 1133.00 655.00" xmlns="http://www.w3.org/2000/svg" xmlns:xlink="http://www.w3.org/1999/xlink">
<g id="graph0" class="graph" transform="scale(1 1) rotate(0) translate(4 651)">
<title>include/york/Graphics/Pipeline.hpp</title>
<!-- Node1 -->
<g id="node1" class="node">
<title>Node1</title>
<g id="a_node1"><a xlink:title=" ">
<polygon fill="#bfbfbf" stroke="black" points="255.5,-616.5 255.5,-646.5 366.5,-646.5 366.5,-616.5 255.5,-616.5"/>
<text text-anchor="start" x="263.5" y="-634.5" font-family="Helvetica,sans-Serif" font-size="10.00">include/york/Graphics</text>
<text text-anchor="middle" x="311" y="-623.5" font-family="Helvetica,sans-Serif" font-size="10.00">/Pipeline.hpp</text>
</a>
</g>
</g>
<!-- Node2 -->
<g id="node2" class="node">
<title>Node2</title>
<g id="a_node2"><a xlink:title=" ">
<polygon fill="none" stroke="#bfbfbf" points="338.5,-168.5 338.5,-187.5 433.5,-187.5 433.5,-168.5 338.5,-168.5"/>
<text text-anchor="middle" x="386" y="-175.5" font-family="Helvetica,sans-Serif" font-size="10.00">vulkan/vulkan.hpp</text>
</a>
</g>
</g>
<!-- Node1&#45;&gt;Node2 -->
<g id="edge1" class="edge">
<title>Node1&#45;&gt;Node2</title>
<path fill="none" stroke="midnightblue" d="M311.48,-616.16C313.54,-563.12 323.64,-373.36 366,-224 368.62,-214.75 372.8,-204.94 376.67,-196.84"/>
<polygon fill="midnightblue" stroke="midnightblue" points="379.9,-198.2 381.25,-187.69 373.64,-195.06 379.9,-198.2"/>
</g>
<!-- Node3 -->
<g id="node3" class="node">
<title>Node3</title>
<g id="a_node3"><a xlink:href="_handle_8hpp.html" target="_top" xlink:title="Contains the declarations for the Handle classes which form the basis of our Vulkan implementation.">
<polygon fill="none" stroke="black" points="467,-112.5 467,-131.5 533,-131.5 533,-112.5 467,-112.5"/>
<text text-anchor="middle" x="500" y="-119.5" font-family="Helvetica,sans-Serif" font-size="10.00">Handle.hpp</text>
</a>
</g>
</g>
<!-- Node1&#45;&gt;Node3 -->
<g id="edge2" class="edge">
<title>Node1&#45;&gt;Node3</title>
<path fill="none" stroke="midnightblue" d="M255.4,-621.59C165.94,-605.66 0,-568.85 0,-515 0,-515 0,-515 0,-233 0,-189.23 33.91,-185.57 74,-168 141.95,-138.22 362.75,-127.53 456.87,-124.26"/>
<polygon fill="midnightblue" stroke="midnightblue" points="457.03,-127.75 466.9,-123.92 456.79,-120.76 457.03,-127.75"/>
</g>
<!-- Node8 -->
<g id="node8" class="node">
<title>Node8</title>
<g id="a_node8"><a xlink:href="_pipeline_layout_8hpp.html" target="_top" xlink:title=" ">
<polygon fill="none" stroke="black" points="496.5,-448.5 496.5,-467.5 595.5,-467.5 595.5,-448.5 496.5,-448.5"/>
<text text-anchor="middle" x="546" y="-455.5" font-family="Helvetica,sans-Serif" font-size="10.00">PipelineLayout.hpp</text>
</a>
</g>
</g>
<!-- Node1&#45;&gt;Node8 -->
<g id="edge7" class="edge">
<title>Node1&#45;&gt;Node8</title>
<path fill="none" stroke="midnightblue" d="M330.23,-616.47C374.12,-584.43 481.33,-506.19 525.98,-473.61"/>
<polygon fill="midnightblue" stroke="midnightblue" points="528.26,-476.28 534.27,-467.56 524.13,-470.63 528.26,-476.28"/>
</g>
<!-- Node19 -->
<g id="node19" class="node">
<title>Node19</title>
<g id="a_node19"><a xlink:href="_render_pass_8hpp.html" target="_top" xlink:title=" ">
<polygon fill="none" stroke="black" points="103.5,-560.5 103.5,-579.5 192.5,-579.5 192.5,-560.5 103.5,-560.5"/>
<text text-anchor="middle" x="148" y="-567.5" font-family="Helvetica,sans-Serif" font-size="10.00">RenderPass.hpp</text>
</a>
</g>
</g>
<!-- Node1&#45;&gt;Node19 -->
<g id="edge36" class="edge">
<title>Node1&#45;&gt;Node19</title>
<path fill="none" stroke="midnightblue" d="M272.37,-616.4C244.66,-606.28 207.69,-592.79 181.28,-583.15"/>
<polygon fill="midnightblue" stroke="midnightblue" points="182.31,-579.8 171.72,-579.66 179.91,-586.37 182.31,-579.8"/>
</g>
<!-- Node20 -->
<g id="node20" class="node">
<title>Node20</title>
<g id="a_node20"><a xlink:href="_swap_chain_8hpp.html" target="_top" xlink:title=" ">
<polygon fill="none" stroke="black" points="176,-504.5 176,-523.5 262,-523.5 262,-504.5 176,-504.5"/>
<text text-anchor="middle" x="219" y="-511.5" font-family="Helvetica,sans-Serif" font-size="10.00">SwapChain.hpp</text>
</a>
</g>
</g>
<!-- Node1&#45;&gt;Node20 -->
<g id="edge57" class="edge">
<title>Node1&#45;&gt;Node20</title>
<path fill="none" stroke="midnightblue" d="M299.72,-616.34C282.69,-594.96 250.49,-554.53 232.33,-531.73"/>
<polygon fill="midnightblue" stroke="midnightblue" points="234.87,-529.31 225.91,-523.67 229.4,-533.67 234.87,-529.31"/>
</g>
<!-- Node22 -->
<g id="node22" class="node">
<title>Node22</title>
<g id="a_node22"><a xlink:href="_shader_8hpp.html" target="_top" xlink:title=" ">
<polygon fill="none" stroke="black" points="895.5,-448.5 895.5,-467.5 960.5,-467.5 960.5,-448.5 895.5,-448.5"/>
<text text-anchor="middle" x="928" y="-455.5" font-family="Helvetica,sans-Serif" font-size="10.00">Shader.hpp</text>
</a>
</g>
</g>
<!-- Node1&#45;&gt;Node22 -->
<g id="edge47" class="edge">
<title>Node1&#45;&gt;Node22</title>
<path fill="none" stroke="midnightblue" d="M361.49,-616.47C480.82,-583.3 778.4,-500.58 887.27,-470.32"/>
<polygon fill="midnightblue" stroke="midnightblue" points="888.51,-473.61 897.2,-467.56 886.63,-466.87 888.51,-473.61"/>
</g>
<!-- Node4 -->
<g id="node4" class="node">
<title>Node4</title>
<g id="a_node4"><a xlink:title=" ">
<polygon fill="none" stroke="#bfbfbf" points="797,-56.5 797,-75.5 841,-75.5 841,-56.5 797,-56.5"/>
<text text-anchor="middle" x="819" y="-63.5" font-family="Helvetica,sans-Serif" font-size="10.00">vector</text>
</a>
</g>
</g>
<!-- Node3&#45;&gt;Node4 -->
<g id="edge3" class="edge">
<title>Node3&#45;&gt;Node4</title>
<path fill="none" stroke="midnightblue" d="M533.24,-115.37C594.81,-104.95 725.86,-82.77 786.71,-72.47"/>
<polygon fill="midnightblue" stroke="midnightblue" points="787.61,-75.86 796.88,-70.74 786.44,-68.96 787.61,-75.86"/>
</g>
<!-- Node5 -->
<g id="node5" class="node">
<title>Node5</title>
<g id="a_node5"><a xlink:title=" ">
<polygon fill="none" stroke="#bfbfbf" points="470.5,-56.5 470.5,-75.5 529.5,-75.5 529.5,-56.5 470.5,-56.5"/>
<text text-anchor="middle" x="500" y="-63.5" font-family="Helvetica,sans-Serif" font-size="10.00">functional</text>
</a>
</g>
</g>
<!-- Node3&#45;&gt;Node5 -->
<g id="edge4" class="edge">
<title>Node3&#45;&gt;Node5</title>
<path fill="none" stroke="midnightblue" d="M500,-112.08C500,-105.01 500,-94.86 500,-85.99"/>
<polygon fill="midnightblue" stroke="midnightblue" points="503.5,-85.75 500,-75.75 496.5,-85.75 503.5,-85.75"/>
</g>
<!-- Node6 -->
<g id="node6" class="node">
<title>Node6</title>
<g id="a_node6"><a xlink:href="_identifiable_8hpp.html" target="_top" xlink:title=" ">
<polygon fill="none" stroke="black" points="591,-56.5 591,-75.5 695,-75.5 695,-56.5 591,-56.5"/>
<text text-anchor="middle" x="643" y="-63.5" font-family="Helvetica,sans-Serif" font-size="10.00">york/Identifiable.hpp</text>
</a>
</g>
</g>
<!-- Node3&#45;&gt;Node6 -->
<g id="edge5" class="edge">
<title>Node3&#45;&gt;Node6</title>
<path fill="none" stroke="midnightblue" d="M522.66,-112.44C546.4,-103.48 583.91,-89.31 610.74,-79.18"/>
<polygon fill="midnightblue" stroke="midnightblue" points="612.33,-82.32 620.45,-75.52 609.86,-75.77 612.33,-82.32"/>
</g>
<!-- Node7 -->
<g id="node7" class="node">
<title>Node7</title>
<g id="a_node7"><a xlink:title=" ">
<polygon fill="none" stroke="#bfbfbf" points="861,-0.5 861,-19.5 907,-19.5 907,-0.5 861,-0.5"/>
<text text-anchor="middle" x="884" y="-7.5" font-family="Helvetica,sans-Serif" font-size="10.00">cstdint</text>
</a>
</g>
</g>
<!-- Node6&#45;&gt;Node7 -->
<g id="edge6" class="edge">
<title>Node6&#45;&gt;Node7</title>
<path fill="none" stroke="midnightblue" d="M681.19,-56.44C728,-45.95 806.57,-28.35 850.92,-18.41"/>
<polygon fill="midnightblue" stroke="midnightblue" points="851.9,-21.78 860.89,-16.18 850.37,-14.95 851.9,-21.78"/>
</g>
<!-- Node8&#45;&gt;Node2 -->
<g id="edge8" class="edge">
<title>Node8&#45;&gt;Node2</title>
<path fill="none" stroke="midnightblue" d="M550.78,-448.35C561.43,-427.88 584.8,-375.22 567,-336 558.28,-316.78 449.61,-229.35 404.96,-193.95"/>
<polygon fill="midnightblue" stroke="midnightblue" points="406.95,-191.05 396.93,-187.6 402.6,-196.54 406.95,-191.05"/>
</g>
<!-- Node8&#45;&gt;Node3 -->
<g id="edge35" class="edge">
<title>Node8&#45;&gt;Node3</title>
<path fill="none" stroke="midnightblue" d="M555.76,-448.49C564.49,-440.18 576.7,-426.68 582,-412 593.47,-380.22 589.27,-369.19 583,-336 569.88,-266.58 550.57,-253.86 525,-188 518.91,-172.33 512.06,-154.5 507.07,-141.49"/>
<polygon fill="midnightblue" stroke="midnightblue" points="510.22,-139.92 503.38,-131.84 503.69,-142.43 510.22,-139.92"/>
</g>
<!-- Node9 -->
<g id="node9" class="node">
<title>Node9</title>
<g id="a_node9"><a xlink:href="_device_8hpp.html" target="_top" xlink:title=" ">
<polygon fill="none" stroke="black" points="473,-392.5 473,-411.5 539,-411.5 539,-392.5 473,-392.5"/>
<text text-anchor="middle" x="506" y="-399.5" font-family="Helvetica,sans-Serif" font-size="10.00">Device.hpp</text>
</a>
</g>
</g>
<!-- Node8&#45;&gt;Node9 -->
<g id="edge9" class="edge">
<title>Node8&#45;&gt;Node9</title>
<path fill="none" stroke="midnightblue" d="M539.39,-448.08C533.74,-440.46 525.46,-429.26 518.55,-419.94"/>
<polygon fill="midnightblue" stroke="midnightblue" points="521.25,-417.7 512.48,-411.75 515.62,-421.87 521.25,-417.7"/>
</g>
<!-- Node9&#45;&gt;Node2 -->
<g id="edge11" class="edge">
<title>Node9&#45;&gt;Node2</title>
<path fill="none" stroke="midnightblue" d="M472.8,-398.44C444.77,-394.33 406.23,-383.66 387,-356 353.29,-307.5 369.63,-232.06 379.87,-197.46"/>
<polygon fill="midnightblue" stroke="midnightblue" points="383.27,-198.34 382.91,-187.75 376.59,-196.25 383.27,-198.34"/>
</g>
<!-- Node9&#45;&gt;Node3 -->
<g id="edge12" class="edge">
<title>Node9&#45;&gt;Node3</title>
<path fill="none" stroke="midnightblue" d="M472.83,-398.35C442.9,-394.19 399.72,-383.5 374,-356 315.31,-293.25 276.55,-236.04 329,-168 344.48,-147.93 411.14,-135.02 456.51,-128.4"/>
<polygon fill="midnightblue" stroke="midnightblue" points="457.28,-131.82 466.7,-126.96 456.3,-124.89 457.28,-131.82"/>
</g>
<!-- Node10 -->
<g id="node10" class="node">
<title>Node10</title>
<g id="a_node10"><a xlink:title=" ">
<polygon fill="none" stroke="#bfbfbf" points="396,-336.5 396,-355.5 436,-355.5 436,-336.5 396,-336.5"/>
<text text-anchor="middle" x="416" y="-343.5" font-family="Helvetica,sans-Serif" font-size="10.00">utility</text>
</a>
</g>
</g>
<!-- Node9&#45;&gt;Node10 -->
<g id="edge10" class="edge">
<title>Node9&#45;&gt;Node10</title>
<path fill="none" stroke="midnightblue" d="M491.54,-392.32C477.5,-383.9 455.95,-370.97 439.46,-361.07"/>
<polygon fill="midnightblue" stroke="midnightblue" points="440.8,-357.8 430.42,-355.65 437.2,-363.8 440.8,-357.8"/>
</g>
<!-- Node11 -->
<g id="node11" class="node">
<title>Node11</title>
<g id="a_node11"><a xlink:href="_instance_8hpp.html" target="_top" xlink:title=" ">
<polygon fill="none" stroke="black" points="677.5,-224.5 677.5,-243.5 750.5,-243.5 750.5,-224.5 677.5,-224.5"/>
<text text-anchor="middle" x="714" y="-231.5" font-family="Helvetica,sans-Serif" font-size="10.00">Instance.hpp</text>
</a>
</g>
</g>
<!-- Node9&#45;&gt;Node11 -->
<g id="edge13" class="edge">
<title>Node9&#45;&gt;Node11</title>
<path fill="none" stroke="midnightblue" d="M538.19,-392.42C580.47,-379.49 654.12,-350.91 695,-300 705.69,-286.69 710.36,-267.57 712.41,-253.51"/>
<polygon fill="midnightblue" stroke="midnightblue" points="715.89,-253.86 713.55,-243.53 708.94,-253.07 715.89,-253.86"/>
</g>
<!-- Node13 -->
<g id="node13" class="node">
<title>Node13</title>
<g id="a_node13"><a xlink:href="_requestable_item_8hpp.html" target="_top" xlink:title=" ">
<polygon fill="none" stroke="black" points="771,-168.5 771,-187.5 881,-187.5 881,-168.5 771,-168.5"/>
<text text-anchor="middle" x="826" y="-175.5" font-family="Helvetica,sans-Serif" font-size="10.00">RequestableItem.hpp</text>
</a>
</g>
</g>
<!-- Node9&#45;&gt;Node13 -->
<g id="edge33" class="edge">
<title>Node9&#45;&gt;Node13</title>
<path fill="none" stroke="midnightblue" d="M539.1,-394.87C570.27,-388.22 617.64,-375.81 655,-356 724.79,-319 743.37,-305.45 793,-244 804.53,-229.72 813.59,-210.76 819.27,-197"/>
<polygon fill="midnightblue" stroke="midnightblue" points="822.55,-198.25 822.95,-187.66 816.03,-195.69 822.55,-198.25"/>
</g>
<!-- Node16 -->
<g id="node16" class="node">
<title>Node16</title>
<g id="a_node16"><a xlink:href="_physical_device_8hpp.html" target="_top" xlink:title=" ">
<polygon fill="none" stroke="black" points="454,-336.5 454,-355.5 558,-355.5 558,-336.5 454,-336.5"/>
<text text-anchor="middle" x="506" y="-343.5" font-family="Helvetica,sans-Serif" font-size="10.00">PhysicalDevice.hpp</text>
</a>
</g>
</g>
<!-- Node9&#45;&gt;Node16 -->
<g id="edge24" class="edge">
<title>Node9&#45;&gt;Node16</title>
<path fill="none" stroke="midnightblue" d="M506,-392.08C506,-385.01 506,-374.86 506,-365.99"/>
<polygon fill="midnightblue" stroke="midnightblue" points="509.5,-365.75 506,-355.75 502.5,-365.75 509.5,-365.75"/>
</g>
<!-- Node18 -->
<g id="node18" class="node">
<title>Node18</title>
<g id="a_node18"><a xlink:href="_surface_8hpp.html" target="_top" xlink:title=" ">
<polygon fill="none" stroke="black" points="616.5,-280.5 616.5,-299.5 685.5,-299.5 685.5,-280.5 616.5,-280.5"/>
<text text-anchor="middle" x="651" y="-287.5" font-family="Helvetica,sans-Serif" font-size="10.00">Surface.hpp</text>
</a>
</g>
</g>
<!-- Node9&#45;&gt;Node18 -->
<g id="edge34" class="edge">
<title>Node9&#45;&gt;Node18</title>
<path fill="none" stroke="midnightblue" d="M517.75,-392.45C530.08,-383.46 549.99,-368.85 567,-356 589.43,-339.06 614.93,-319.24 631.89,-305.99"/>
<polygon fill="midnightblue" stroke="midnightblue" points="634.2,-308.62 639.92,-299.7 629.89,-303.11 634.2,-308.62"/>
</g>
<!-- Node11&#45;&gt;Node2 -->
<g id="edge16" class="edge">
<title>Node11&#45;&gt;Node2</title>
<path fill="none" stroke="midnightblue" d="M677.33,-226.96C620.56,-217.62 510.95,-199.57 443.56,-188.48"/>
<polygon fill="midnightblue" stroke="midnightblue" points="443.96,-185 433.52,-186.82 442.82,-191.9 443.96,-185"/>
</g>
<!-- Node11&#45;&gt;Node3 -->
<g id="edge17" class="edge">
<title>Node11&#45;&gt;Node3</title>
<path fill="none" stroke="midnightblue" d="M677.24,-225.01C648.71,-217.87 608.8,-205.76 577,-188 553.29,-174.76 530.02,-153.67 515.37,-139.13"/>
<polygon fill="midnightblue" stroke="midnightblue" points="517.68,-136.48 508.18,-131.81 512.69,-141.39 517.68,-136.48"/>
</g>
<!-- Node11&#45;&gt;Node4 -->
<g id="edge15" class="edge">
<title>Node11&#45;&gt;Node4</title>
<path fill="none" stroke="midnightblue" d="M716.63,-224.23C720.67,-211.39 729.09,-186.96 740,-168 758.67,-135.56 786.89,-102.17 804.06,-83.07"/>
<polygon fill="midnightblue" stroke="midnightblue" points="806.74,-85.32 810.89,-75.57 801.57,-80.6 806.74,-85.32"/>
</g>
<!-- Node12 -->
<g id="node12" class="node">
<title>Node12</title>
<g id="a_node12"><a xlink:title=" ">
<polygon fill="none" stroke="#bfbfbf" points="805.5,-112.5 805.5,-131.5 846.5,-131.5 846.5,-112.5 805.5,-112.5"/>
<text text-anchor="middle" x="826" y="-119.5" font-family="Helvetica,sans-Serif" font-size="10.00">string</text>
</a>
</g>
</g>
<!-- Node11&#45;&gt;Node12 -->
<g id="edge14" class="edge">
<title>Node11&#45;&gt;Node12</title>
<path fill="none" stroke="midnightblue" d="M719.14,-224.32C727.18,-211.17 743.74,-185.84 762,-168 774.12,-156.16 789.62,-145.18 802.33,-137.02"/>
<polygon fill="midnightblue" stroke="midnightblue" points="804.37,-139.88 811.01,-131.62 800.67,-133.94 804.37,-139.88"/>
</g>
<!-- Node11&#45;&gt;Node13 -->
<g id="edge18" class="edge">
<title>Node11&#45;&gt;Node13</title>
<path fill="none" stroke="midnightblue" d="M731.99,-224.32C750.04,-215.62 778.05,-202.12 798.8,-192.11"/>
<polygon fill="midnightblue" stroke="midnightblue" points="800.56,-195.15 808.05,-187.65 797.52,-188.84 800.56,-195.15"/>
</g>
<!-- Node14 -->
<g id="node14" class="node">
<title>Node14</title>
<g id="a_node14"><a xlink:href="_window_8hpp.html" target="_top" xlink:title=" ">
<polygon fill="none" stroke="black" points="585.5,-168.5 585.5,-187.5 676.5,-187.5 676.5,-168.5 585.5,-168.5"/>
<text text-anchor="middle" x="631" y="-175.5" font-family="Helvetica,sans-Serif" font-size="10.00">york/Window.hpp</text>
</a>
</g>
</g>
<!-- Node11&#45;&gt;Node14 -->
<g id="edge20" class="edge">
<title>Node11&#45;&gt;Node14</title>
<path fill="none" stroke="midnightblue" d="M700.66,-224.32C687.84,-215.98 668.22,-203.21 653.06,-193.35"/>
<polygon fill="midnightblue" stroke="midnightblue" points="654.59,-190.17 644.3,-187.65 650.78,-196.04 654.59,-190.17"/>
</g>
<!-- Node13&#45;&gt;Node12 -->
<g id="edge19" class="edge">
<title>Node13&#45;&gt;Node12</title>
<path fill="none" stroke="midnightblue" d="M826,-168.08C826,-161.01 826,-150.86 826,-141.99"/>
<polygon fill="midnightblue" stroke="midnightblue" points="829.5,-141.75 826,-131.75 822.5,-141.75 829.5,-141.75"/>
</g>
<!-- Node14&#45;&gt;Node3 -->
<g id="edge23" class="edge">
<title>Node14&#45;&gt;Node3</title>
<path fill="none" stroke="midnightblue" d="M610.24,-168.44C588.68,-159.56 554.74,-145.56 530.21,-135.45"/>
<polygon fill="midnightblue" stroke="midnightblue" points="531.24,-132.09 520.66,-131.52 528.57,-138.56 531.24,-132.09"/>
</g>
<!-- Node14&#45;&gt;Node12 -->
<g id="edge21" class="edge">
<title>Node14&#45;&gt;Node12</title>
<path fill="none" stroke="midnightblue" d="M661.9,-168.44C698.45,-158.32 758.94,-141.57 795.37,-131.48"/>
<polygon fill="midnightblue" stroke="midnightblue" points="796.71,-134.74 805.42,-128.7 794.84,-128 796.71,-134.74"/>
</g>
<!-- Node15 -->
<g id="node15" class="node">
<title>Node15</title>
<g id="a_node15"><a xlink:title=" ">
<polygon fill="none" stroke="#bfbfbf" points="594.5,-112.5 594.5,-131.5 667.5,-131.5 667.5,-112.5 594.5,-112.5"/>
<text text-anchor="middle" x="631" y="-119.5" font-family="Helvetica,sans-Serif" font-size="10.00">SDL_video.h</text>
</a>
</g>
</g>
<!-- Node14&#45;&gt;Node15 -->
<g id="edge22" class="edge">
<title>Node14&#45;&gt;Node15</title>
<path fill="none" stroke="midnightblue" d="M631,-168.08C631,-161.01 631,-150.86 631,-141.99"/>
<polygon fill="midnightblue" stroke="midnightblue" points="634.5,-141.75 631,-131.75 627.5,-141.75 634.5,-141.75"/>
</g>
<!-- Node16&#45;&gt;Node2 -->
<g id="edge26" class="edge">
<title>Node16&#45;&gt;Node2</title>
<path fill="none" stroke="midnightblue" d="M499.55,-336.08C480.33,-309.49 423.26,-230.54 398.12,-195.76"/>
<polygon fill="midnightblue" stroke="midnightblue" points="400.89,-193.62 392.19,-187.57 395.22,-197.72 400.89,-193.62"/>
</g>
<!-- Node16&#45;&gt;Node13 -->
<g id="edge32" class="edge">
<title>Node16&#45;&gt;Node13</title>
<path fill="none" stroke="midnightblue" d="M558.04,-339.39C597.36,-333.58 651.75,-322.1 695,-300 746.02,-273.92 791.74,-222.31 813.16,-195.71"/>
<polygon fill="midnightblue" stroke="midnightblue" points="816.01,-197.74 819.46,-187.72 810.52,-193.4 816.01,-197.74"/>
</g>
<!-- Node17 -->
<g id="node17" class="node">
<title>Node17</title>
<g id="a_node17"><a xlink:title=" ">
<polygon fill="none" stroke="#bfbfbf" points="396,-280.5 396,-299.5 446,-299.5 446,-280.5 396,-280.5"/>
<text text-anchor="middle" x="421" y="-287.5" font-family="Helvetica,sans-Serif" font-size="10.00">optional</text>
</a>
</g>
</g>
<!-- Node16&#45;&gt;Node17 -->
<g id="edge25" class="edge">
<title>Node16&#45;&gt;Node17</title>
<path fill="none" stroke="midnightblue" d="M492.34,-336.32C479.08,-327.9 458.73,-314.97 443.15,-305.07"/>
<polygon fill="midnightblue" stroke="midnightblue" points="444.94,-302.06 434.62,-299.65 441.19,-307.97 444.94,-302.06"/>
</g>
<!-- Node16&#45;&gt;Node18 -->
<g id="edge27" class="edge">
<title>Node16&#45;&gt;Node18</title>
<path fill="none" stroke="midnightblue" d="M528.98,-336.44C553.16,-327.44 591.42,-313.19 618.65,-303.05"/>
<polygon fill="midnightblue" stroke="midnightblue" points="619.98,-306.29 628.13,-299.52 617.54,-299.73 619.98,-306.29"/>
</g>
<!-- Node18&#45;&gt;Node2 -->
<g id="edge28" class="edge">
<title>Node18&#45;&gt;Node2</title>
<path fill="none" stroke="midnightblue" d="M633.98,-280.5C607.84,-267.58 556.11,-242.55 511,-224 481.25,-211.77 446.81,-199.5 421.62,-190.88"/>
<polygon fill="midnightblue" stroke="midnightblue" points="422.71,-187.55 412.11,-187.64 420.45,-194.18 422.71,-187.55"/>
</g>
<!-- Node18&#45;&gt;Node3 -->
<g id="edge30" class="edge">
<title>Node18&#45;&gt;Node3</title>
<path fill="none" stroke="midnightblue" d="M642.94,-280.36C631.01,-267.68 607.84,-243.45 587,-224 569.03,-207.23 561.47,-206.26 545,-188 531.54,-173.07 518.75,-153.95 510.27,-140.32"/>
<polygon fill="midnightblue" stroke="midnightblue" points="513.1,-138.23 504.91,-131.5 507.12,-141.87 513.1,-138.23"/>
</g>
<!-- Node18&#45;&gt;Node11 -->
<g id="edge31" class="edge">
<title>Node18&#45;&gt;Node11</title>
<path fill="none" stroke="midnightblue" d="M661.12,-280.32C670.53,-272.26 684.74,-260.08 696.07,-250.37"/>
<polygon fill="midnightblue" stroke="midnightblue" points="698.38,-253 703.69,-243.83 693.82,-247.68 698.38,-253"/>
</g>
<!-- Node18&#45;&gt;Node14 -->
<g id="edge29" class="edge">
<title>Node18&#45;&gt;Node14</title>
<path fill="none" stroke="midnightblue" d="M649.43,-280.37C646.2,-262.62 638.76,-221.67 634.38,-197.6"/>
<polygon fill="midnightblue" stroke="midnightblue" points="637.79,-196.8 632.56,-187.59 630.91,-198.06 637.79,-196.8"/>
</g>
<!-- Node19&#45;&gt;Node2 -->
<g id="edge37" class="edge">
<title>Node19&#45;&gt;Node2</title>
<path fill="none" stroke="midnightblue" d="M146.28,-560.4C142.92,-543.03 135.55,-502.47 133,-468 132.35,-459.14 132.69,-456.88 133,-448 134.56,-403.03 140,-392 140,-347 140,-347 140,-347 140,-289 140,-207.06 255.14,-185.75 327.87,-180.47"/>
<polygon fill="midnightblue" stroke="midnightblue" points="328.52,-183.93 338.28,-179.8 328.07,-176.95 328.52,-183.93"/>
</g>
<!-- Node19&#45;&gt;Node3 -->
<g id="edge38" class="edge">
<title>Node19&#45;&gt;Node3</title>
<path fill="none" stroke="midnightblue" d="M128.59,-560.46C97.01,-545.11 38,-509.64 38,-459 38,-459 38,-459 38,-233 38,-147.45 341.59,-128.32 456.57,-124.14"/>
<polygon fill="midnightblue" stroke="midnightblue" points="456.9,-127.63 466.77,-123.79 456.66,-120.63 456.9,-127.63"/>
</g>
<!-- Node19&#45;&gt;Node20 -->
<g id="edge39" class="edge">
<title>Node19&#45;&gt;Node20</title>
<path fill="none" stroke="midnightblue" d="M159.41,-560.32C170.11,-552.18 186.34,-539.84 199.16,-530.09"/>
<polygon fill="midnightblue" stroke="midnightblue" points="201.54,-532.67 207.39,-523.83 197.31,-527.1 201.54,-532.67"/>
</g>
<!-- Node20&#45;&gt;Node2 -->
<g id="edge40" class="edge">
<title>Node20&#45;&gt;Node2</title>
<path fill="none" stroke="midnightblue" d="M223.72,-504.46C233.27,-486.34 254,-442.48 254,-403 254,-403 254,-403 254,-345 254,-284.57 275.41,-268.77 316,-224 327.75,-211.04 344.04,-200.28 357.95,-192.53"/>
<polygon fill="midnightblue" stroke="midnightblue" points="359.93,-195.44 367.11,-187.65 356.64,-189.26 359.93,-195.44"/>
</g>
<!-- Node20&#45;&gt;Node3 -->
<g id="edge42" class="edge">
<title>Node20&#45;&gt;Node3</title>
<path fill="none" stroke="midnightblue" d="M189.4,-504.45C170.61,-497.54 147.23,-485.97 133,-468 98.54,-424.48 102,-402.51 102,-347 102,-347 102,-347 102,-233 102,-160.05 353.52,-133.57 456.67,-125.78"/>
<polygon fill="midnightblue" stroke="midnightblue" points="457.03,-129.26 466.75,-125.04 456.52,-122.28 457.03,-129.26"/>
</g>
<!-- Node20&#45;&gt;Node9 -->
<g id="edge41" class="edge">
<title>Node20&#45;&gt;Node9</title>
<path fill="none" stroke="midnightblue" d="M241.52,-504.37C292.24,-484.93 415.53,-437.67 474.1,-415.23"/>
<polygon fill="midnightblue" stroke="midnightblue" points="475.5,-418.44 483.58,-411.59 472.99,-411.9 475.5,-418.44"/>
</g>
<!-- Node21 -->
<g id="node21" class="node">
<title>Node21</title>
<g id="a_node21"><a xlink:href="_image_view_8hpp.html" target="_top" xlink:title=" ">
<polygon fill="none" stroke="black" points="142.5,-448.5 142.5,-467.5 225.5,-467.5 225.5,-448.5 142.5,-448.5"/>
<text text-anchor="middle" x="184" y="-455.5" font-family="Helvetica,sans-Serif" font-size="10.00">ImageView.hpp</text>
</a>
</g>
</g>
<!-- Node20&#45;&gt;Node21 -->
<g id="edge43" class="edge">
<title>Node20&#45;&gt;Node21</title>
<path fill="none" stroke="midnightblue" d="M213.22,-504.08C208.33,-496.53 201.17,-485.49 195.17,-476.23"/>
<polygon fill="midnightblue" stroke="midnightblue" points="198.05,-474.24 189.67,-467.75 192.17,-478.05 198.05,-474.24"/>
</g>
<!-- Node21&#45;&gt;Node2 -->
<g id="edge46" class="edge">
<title>Node21&#45;&gt;Node2</title>
<path fill="none" stroke="midnightblue" d="M188.32,-448.41C197.05,-430.2 216,-386.18 216,-347 216,-347 216,-347 216,-289 216,-232.81 282.28,-203.9 332.06,-190.12"/>
<polygon fill="midnightblue" stroke="midnightblue" points="333,-193.49 341.78,-187.56 331.22,-186.72 333,-193.49"/>
</g>
<!-- Node21&#45;&gt;Node3 -->
<g id="edge44" class="edge">
<title>Node21&#45;&gt;Node3</title>
<path fill="none" stroke="midnightblue" d="M183.22,-448.45C181.59,-429.96 178,-384.87 178,-347 178,-347 178,-347 178,-233 178,-174.75 369.05,-140.97 456.83,-128.53"/>
<polygon fill="midnightblue" stroke="midnightblue" points="457.33,-131.99 466.75,-127.15 456.37,-125.06 457.33,-131.99"/>
</g>
<!-- Node21&#45;&gt;Node9 -->
<g id="edge45" class="edge">
<title>Node21&#45;&gt;Node9</title>
<path fill="none" stroke="midnightblue" d="M225.77,-450C287.02,-439.72 400.66,-420.67 462.75,-410.25"/>
<polygon fill="midnightblue" stroke="midnightblue" points="463.34,-413.7 472.62,-408.6 462.18,-406.8 463.34,-413.7"/>
</g>
<!-- Node22&#45;&gt;Node2 -->
<g id="edge51" class="edge">
<title>Node22&#45;&gt;Node2</title>
<path fill="none" stroke="midnightblue" d="M909.82,-448.43C860.76,-425.22 721.72,-358.95 608,-300 545.49,-267.6 530.84,-257.67 469,-224 449.5,-213.39 427.41,-201.41 410.92,-192.48"/>
<polygon fill="midnightblue" stroke="midnightblue" points="412.38,-189.29 401.92,-187.61 409.05,-195.45 412.38,-189.29"/>
</g>
<!-- Node22&#45;&gt;Node3 -->
<g id="edge56" class="edge">
<title>Node22&#45;&gt;Node3</title>
<path fill="none" stroke="midnightblue" d="M925.44,-448.25C920.25,-429.74 909,-385.18 909,-347 909,-347 909,-347 909,-233 909,-202.9 913.01,-187.4 890,-168 886.7,-165.22 644.4,-138.66 543.43,-127.7"/>
<polygon fill="midnightblue" stroke="midnightblue" points="543.57,-124.19 533.25,-126.59 542.82,-131.15 543.57,-124.19"/>
</g>
<!-- Node22&#45;&gt;Node4 -->
<g id="edge50" class="edge">
<title>Node22&#45;&gt;Node4</title>
<path fill="none" stroke="midnightblue" d="M960.56,-449.95C1007.08,-437.75 1087,-407.92 1087,-347 1087,-347 1087,-347 1087,-177 1087,-76.3 923.06,-65.83 851.62,-66.05"/>
<polygon fill="midnightblue" stroke="midnightblue" points="851.35,-62.55 841.39,-66.16 851.42,-69.55 851.35,-62.55"/>
</g>
<!-- Node22&#45;&gt;Node7 -->
<g id="edge48" class="edge">
<title>Node22&#45;&gt;Node7</title>
<path fill="none" stroke="midnightblue" d="M960.53,-453.68C1016.48,-445.97 1125,-421.43 1125,-347 1125,-347 1125,-347 1125,-121 1125,-30.82 983.61,-14.25 917.42,-11.44"/>
<polygon fill="midnightblue" stroke="midnightblue" points="917.22,-7.93 907.11,-11.08 916.98,-14.92 917.22,-7.93"/>
</g>
<!-- Node22&#45;&gt;Node9 -->
<g id="edge55" class="edge">
<title>Node22&#45;&gt;Node9</title>
<path fill="none" stroke="midnightblue" d="M895.24,-452.81C819.76,-443.15 633.65,-419.33 549.07,-408.51"/>
<polygon fill="midnightblue" stroke="midnightblue" points="549.4,-405.02 539.03,-407.23 548.51,-411.97 549.4,-405.02"/>
</g>
<!-- Node22&#45;&gt;Node12 -->
<g id="edge49" class="edge">
<title>Node22&#45;&gt;Node12</title>
<path fill="none" stroke="midnightblue" d="M930.56,-448.25C935.75,-429.74 947,-385.18 947,-347 947,-347 947,-347 947,-233 947,-202.2 943.88,-190.64 923,-168 905.26,-148.77 877.65,-137.07 856.42,-130.45"/>
<polygon fill="midnightblue" stroke="midnightblue" points="857.16,-127.02 846.58,-127.59 855.21,-133.74 857.16,-127.02"/>
</g>
<!-- Node23 -->
<g id="node23" class="node">
<title>Node23</title>
<g id="a_node23"><a xlink:href="_asset_8hpp.html" target="_top" xlink:title=" ">
<polygon fill="none" stroke="black" points="975.5,-168.5 975.5,-187.5 1058.5,-187.5 1058.5,-168.5 975.5,-168.5"/>
<text text-anchor="middle" x="1017" y="-175.5" font-family="Helvetica,sans-Serif" font-size="10.00">york/Asset.hpp</text>
</a>
</g>
</g>
<!-- Node22&#45;&gt;Node23 -->
<g id="edge52" class="edge">
<title>Node22&#45;&gt;Node23</title>
<path fill="none" stroke="midnightblue" d="M939.09,-448.33C959.51,-431.29 1001,-391.24 1001,-347 1001,-347 1001,-347 1001,-289 1001,-256.63 1007.87,-219.44 1012.61,-197.66"/>
<polygon fill="midnightblue" stroke="midnightblue" points="1016.05,-198.3 1014.84,-187.78 1009.22,-196.76 1016.05,-198.3"/>
</g>
<!-- Node23&#45;&gt;Node4 -->
<g id="edge54" class="edge">
<title>Node23&#45;&gt;Node4</title>
<path fill="none" stroke="midnightblue" d="M1001.46,-168.37C967.12,-149.29 884.56,-103.42 843.31,-80.51"/>
<polygon fill="midnightblue" stroke="midnightblue" points="844.91,-77.39 834.46,-75.59 841.51,-83.51 844.91,-77.39"/>
</g>
<!-- Node23&#45;&gt;Node12 -->
<g id="edge53" class="edge">
<title>Node23&#45;&gt;Node12</title>
<path fill="none" stroke="midnightblue" d="M986.74,-168.44C951.12,-158.37 892.32,-141.75 856.57,-131.64"/>
<polygon fill="midnightblue" stroke="midnightblue" points="857.28,-128.21 846.7,-128.85 855.37,-134.94 857.28,-128.21"/>
</g>
</g>
</svg>
