<?xml version="1.0" encoding="UTF-8" standalone="no"?>
<!DOCTYPE svg PUBLIC "-//W3C//DTD SVG 1.1//EN"
 "http://www.w3.org/Graphics/SVG/1.1/DTD/svg11.dtd">
<!-- Generated by graphviz version 2.50.0 (20211204.2007)
 -->
<!-- Title: include/york/Graphics/Pipeline.hpp Pages: 1 -->
<svg width="1180pt" height="599pt"
 viewBox="0.00 0.00 1180.00 599.00" xmlns="http://www.w3.org/2000/svg" xmlns:xlink="http://www.w3.org/1999/xlink">
<g id="graph0" class="graph" transform="scale(1 1) rotate(0) translate(4 595)">
<title>include/york/Graphics/Pipeline.hpp</title>
<!-- Node1 -->
<g id="node1" class="node">
<title>Node1</title>
<g id="a_node1"><a xlink:title=" ">
<polygon fill="#bfbfbf" stroke="black" points="236.5,-560.5 236.5,-590.5 347.5,-590.5 347.5,-560.5 236.5,-560.5"/>
<text text-anchor="start" x="244.5" y="-578.5" font-family="Helvetica,sans-Serif" font-size="10.00">include/york/Graphics</text>
<text text-anchor="middle" x="292" y="-567.5" font-family="Helvetica,sans-Serif" font-size="10.00">/Pipeline.hpp</text>
</a>
</g>
</g>
<!-- Node2 -->
<g id="node2" class="node">
<title>Node2</title>
<g id="a_node2"><a xlink:title=" ">
<polygon fill="none" stroke="#bfbfbf" points="313.5,-168.5 313.5,-187.5 408.5,-187.5 408.5,-168.5 313.5,-168.5"/>
<text text-anchor="middle" x="361" y="-175.5" font-family="Helvetica,sans-Serif" font-size="10.00">vulkan/vulkan.hpp</text>
</a>
</g>
</g>
<!-- Node1&#45;&gt;Node2 -->
<g id="edge1" class="edge">
<title>Node1&#45;&gt;Node2</title>
<path fill="none" stroke="midnightblue" d="M294.43,-560.32C297.93,-538.59 304,-495.69 304,-459 304,-459 304,-459 304,-289 304,-252.3 329.32,-215.66 346.21,-195.3"/>
<polygon fill="midnightblue" stroke="midnightblue" points="348.95,-197.48 352.83,-187.62 343.65,-192.9 348.95,-197.48"/>
</g>
<!-- Node3 -->
<g id="node3" class="node">
<title>Node3</title>
<g id="a_node3"><a xlink:href="_handle_8hpp.html" target="_top" xlink:title="Contains the declarations for the Handle classes which form the basis of our Vulkan implementation.">
<polygon fill="none" stroke="black" points="446,-112.5 446,-131.5 512,-131.5 512,-112.5 446,-112.5"/>
<text text-anchor="middle" x="479" y="-119.5" font-family="Helvetica,sans-Serif" font-size="10.00">Handle.hpp</text>
</a>
</g>
</g>
<!-- Node1&#45;&gt;Node3 -->
<g id="edge2" class="edge">
<title>Node1&#45;&gt;Node3</title>
<path fill="none" stroke="midnightblue" d="M236.39,-564.27C151.67,-547.08 0,-509.29 0,-459 0,-459 0,-459 0,-233 0,-193.08 26.2,-185.66 62,-168 126.92,-135.97 342.56,-126.55 435.62,-123.94"/>
<polygon fill="midnightblue" stroke="midnightblue" points="435.92,-127.43 445.82,-123.67 435.73,-120.43 435.92,-127.43"/>
</g>
<!-- Node8 -->
<g id="node8" class="node">
<title>Node8</title>
<g id="a_node8"><a xlink:href="_pipeline_layout_8hpp.html" target="_top" xlink:title=" ">
<polygon fill="none" stroke="black" points="335.5,-392.5 335.5,-411.5 434.5,-411.5 434.5,-392.5 335.5,-392.5"/>
<text text-anchor="middle" x="385" y="-399.5" font-family="Helvetica,sans-Serif" font-size="10.00">PipelineLayout.hpp</text>
</a>
</g>
</g>
<!-- Node1&#45;&gt;Node8 -->
<g id="edge7" class="edge">
<title>Node1&#45;&gt;Node8</title>
<path fill="none" stroke="midnightblue" d="M299.61,-560.47C316.51,-529.3 357.12,-454.41 375.58,-420.37"/>
<polygon fill="midnightblue" stroke="midnightblue" points="378.67,-422.02 380.36,-411.56 372.51,-418.68 378.67,-422.02"/>
</g>
<!-- Node19 -->
<g id="node19" class="node">
<title>Node19</title>
<g id="a_node19"><a xlink:href="_render_pass_8hpp.html" target="_top" xlink:title=" ">
<polygon fill="none" stroke="black" points="116.5,-504.5 116.5,-523.5 205.5,-523.5 205.5,-504.5 116.5,-504.5"/>
<text text-anchor="middle" x="161" y="-511.5" font-family="Helvetica,sans-Serif" font-size="10.00">RenderPass.hpp</text>
</a>
</g>
</g>
<!-- Node1&#45;&gt;Node19 -->
<g id="edge36" class="edge">
<title>Node1&#45;&gt;Node19</title>
<path fill="none" stroke="midnightblue" d="M260.95,-560.4C239.27,-550.55 210.54,-537.5 189.45,-527.92"/>
<polygon fill="midnightblue" stroke="midnightblue" points="190.61,-524.61 180.06,-523.66 187.72,-530.98 190.61,-524.61"/>
</g>
<!-- Node20 -->
<g id="node20" class="node">
<title>Node20</title>
<g id="a_node20"><a xlink:href="_swap_chain_8hpp.html" target="_top" xlink:title=" ">
<polygon fill="none" stroke="black" points="164,-448.5 164,-467.5 250,-467.5 250,-448.5 164,-448.5"/>
<text text-anchor="middle" x="207" y="-455.5" font-family="Helvetica,sans-Serif" font-size="10.00">SwapChain.hpp</text>
</a>
</g>
</g>
<!-- Node1&#45;&gt;Node20 -->
<g id="edge57" class="edge">
<title>Node1&#45;&gt;Node20</title>
<path fill="none" stroke="midnightblue" d="M281.58,-560.34C265.84,-538.96 236.09,-498.53 219.31,-475.73"/>
<polygon fill="midnightblue" stroke="midnightblue" points="222.13,-473.65 213.38,-467.67 216.49,-477.8 222.13,-473.65"/>
</g>
<!-- Node22 -->
<g id="node22" class="node">
<title>Node22</title>
<g id="a_node22"><a xlink:href="_shader_8hpp.html" target="_top" xlink:title=" ">
<polygon fill="none" stroke="black" points="923.5,-392.5 923.5,-411.5 988.5,-411.5 988.5,-392.5 923.5,-392.5"/>
<text text-anchor="middle" x="956" y="-399.5" font-family="Helvetica,sans-Serif" font-size="10.00">Shader.hpp</text>
</a>
</g>
</g>
<!-- Node1&#45;&gt;Node22 -->
<g id="edge47" class="edge">
<title>Node1&#45;&gt;Node22</title>
<path fill="none" stroke="midnightblue" d="M346.34,-560.47C475.17,-527.19 797.05,-444.06 913.28,-414.03"/>
<polygon fill="midnightblue" stroke="midnightblue" points="914.43,-417.35 923.23,-411.46 912.68,-410.58 914.43,-417.35"/>
</g>
<!-- Node4 -->
<g id="node4" class="node">
<title>Node4</title>
<g id="a_node4"><a xlink:title=" ">
<polygon fill="none" stroke="#bfbfbf" points="971,-56.5 971,-75.5 1015,-75.5 1015,-56.5 971,-56.5"/>
<text text-anchor="middle" x="993" y="-63.5" font-family="Helvetica,sans-Serif" font-size="10.00">vector</text>
</a>
</g>
</g>
<!-- Node3&#45;&gt;Node4 -->
<g id="edge3" class="edge">
<title>Node3&#45;&gt;Node4</title>
<path fill="none" stroke="midnightblue" d="M512.33,-117.5C605.63,-107.7 868.6,-80.07 960.67,-70.4"/>
<polygon fill="midnightblue" stroke="midnightblue" points="961.2,-73.86 970.78,-69.33 960.47,-66.9 961.2,-73.86"/>
</g>
<!-- Node5 -->
<g id="node5" class="node">
<title>Node5</title>
<g id="a_node5"><a xlink:title=" ">
<polygon fill="none" stroke="#bfbfbf" points="449.5,-56.5 449.5,-75.5 508.5,-75.5 508.5,-56.5 449.5,-56.5"/>
<text text-anchor="middle" x="479" y="-63.5" font-family="Helvetica,sans-Serif" font-size="10.00">functional</text>
</a>
</g>
</g>
<!-- Node3&#45;&gt;Node5 -->
<g id="edge4" class="edge">
<title>Node3&#45;&gt;Node5</title>
<path fill="none" stroke="midnightblue" d="M479,-112.08C479,-105.01 479,-94.86 479,-85.99"/>
<polygon fill="midnightblue" stroke="midnightblue" points="482.5,-85.75 479,-75.75 475.5,-85.75 482.5,-85.75"/>
</g>
<!-- Node6 -->
<g id="node6" class="node">
<title>Node6</title>
<g id="a_node6"><a xlink:href="_identifiable_8hpp.html" target="_top" xlink:title=" ">
<polygon fill="none" stroke="black" points="662,-56.5 662,-75.5 766,-75.5 766,-56.5 662,-56.5"/>
<text text-anchor="middle" x="714" y="-63.5" font-family="Helvetica,sans-Serif" font-size="10.00">york/Identifiable.hpp</text>
</a>
</g>
</g>
<!-- Node3&#45;&gt;Node6 -->
<g id="edge5" class="edge">
<title>Node3&#45;&gt;Node6</title>
<path fill="none" stroke="midnightblue" d="M512.17,-113.38C552.52,-104.11 620.9,-88.39 666.74,-77.86"/>
<polygon fill="midnightblue" stroke="midnightblue" points="667.77,-81.21 676.73,-75.56 666.2,-74.39 667.77,-81.21"/>
</g>
<!-- Node7 -->
<g id="node7" class="node">
<title>Node7</title>
<g id="a_node7"><a xlink:title=" ">
<polygon fill="none" stroke="#bfbfbf" points="902,-0.5 902,-19.5 948,-19.5 948,-0.5 902,-0.5"/>
<text text-anchor="middle" x="925" y="-7.5" font-family="Helvetica,sans-Serif" font-size="10.00">cstdint</text>
</a>
</g>
</g>
<!-- Node6&#45;&gt;Node7 -->
<g id="edge6" class="edge">
<title>Node6&#45;&gt;Node7</title>
<path fill="none" stroke="midnightblue" d="M747.43,-56.44C787.01,-46.32 852.5,-29.55 891.92,-19.47"/>
<polygon fill="midnightblue" stroke="midnightblue" points="893.01,-22.8 901.83,-16.93 891.27,-16.02 893.01,-22.8"/>
</g>
<!-- Node8&#45;&gt;Node2 -->
<g id="edge8" class="edge">
<title>Node8&#45;&gt;Node2</title>
<path fill="none" stroke="midnightblue" d="M384.06,-392.3C380.53,-359.63 368.01,-243.87 363.05,-197.96"/>
<polygon fill="midnightblue" stroke="midnightblue" points="366.52,-197.45 361.96,-187.88 359.56,-198.2 366.52,-197.45"/>
</g>
<!-- Node8&#45;&gt;Node3 -->
<g id="edge35" class="edge">
<title>Node8&#45;&gt;Node3</title>
<path fill="none" stroke="midnightblue" d="M387.92,-392.38C401.02,-353.62 454.61,-195.13 472.87,-141.13"/>
<polygon fill="midnightblue" stroke="midnightblue" points="476.23,-142.12 476.12,-131.52 469.6,-139.88 476.23,-142.12"/>
</g>
<!-- Node9 -->
<g id="node9" class="node">
<title>Node9</title>
<g id="a_node9"><a xlink:href="_device_8hpp.html" target="_top" xlink:title=" ">
<polygon fill="none" stroke="black" points="433,-336.5 433,-355.5 499,-355.5 499,-336.5 433,-336.5"/>
<text text-anchor="middle" x="466" y="-343.5" font-family="Helvetica,sans-Serif" font-size="10.00">Device.hpp</text>
</a>
</g>
</g>
<!-- Node8&#45;&gt;Node9 -->
<g id="edge9" class="edge">
<title>Node8&#45;&gt;Node9</title>
<path fill="none" stroke="midnightblue" d="M398.01,-392.32C410.53,-383.98 429.68,-371.21 444.47,-361.35"/>
<polygon fill="midnightblue" stroke="midnightblue" points="446.64,-364.11 453.02,-355.65 442.76,-358.29 446.64,-364.11"/>
</g>
<!-- Node9&#45;&gt;Node2 -->
<g id="edge11" class="edge">
<title>Node9&#45;&gt;Node2</title>
<path fill="none" stroke="midnightblue" d="M460.41,-336.39C454.55,-327.35 445.08,-312.7 437,-300 413.58,-263.19 386.47,-219.85 371.79,-196.32"/>
<polygon fill="midnightblue" stroke="midnightblue" points="374.57,-194.16 366.31,-187.53 368.63,-197.87 374.57,-194.16"/>
</g>
<!-- Node9&#45;&gt;Node3 -->
<g id="edge12" class="edge">
<title>Node9&#45;&gt;Node3</title>
<path fill="none" stroke="midnightblue" d="M446.61,-336.43C393.07,-311.59 250.52,-236.97 304,-168 319.99,-147.37 389.14,-134.55 435.58,-128.1"/>
<polygon fill="midnightblue" stroke="midnightblue" points="436.25,-131.54 445.7,-126.74 435.32,-124.6 436.25,-131.54"/>
</g>
<!-- Node10 -->
<g id="node10" class="node">
<title>Node10</title>
<g id="a_node10"><a xlink:title=" ">
<polygon fill="none" stroke="#bfbfbf" points="446,-280.5 446,-299.5 486,-299.5 486,-280.5 446,-280.5"/>
<text text-anchor="middle" x="466" y="-287.5" font-family="Helvetica,sans-Serif" font-size="10.00">utility</text>
</a>
</g>
</g>
<!-- Node9&#45;&gt;Node10 -->
<g id="edge10" class="edge">
<title>Node9&#45;&gt;Node10</title>
<path fill="none" stroke="midnightblue" d="M466,-336.08C466,-329.01 466,-318.86 466,-309.99"/>
<polygon fill="midnightblue" stroke="midnightblue" points="469.5,-309.75 466,-299.75 462.5,-309.75 469.5,-309.75"/>
</g>
<!-- Node11 -->
<g id="node11" class="node">
<title>Node11</title>
<g id="a_node11"><a xlink:href="_instance_8hpp.html" target="_top" xlink:title=" ">
<polygon fill="none" stroke="black" points="720.5,-224.5 720.5,-243.5 793.5,-243.5 793.5,-224.5 720.5,-224.5"/>
<text text-anchor="middle" x="757" y="-231.5" font-family="Helvetica,sans-Serif" font-size="10.00">Instance.hpp</text>
</a>
</g>
</g>
<!-- Node9&#45;&gt;Node11 -->
<g id="edge13" class="edge">
<title>Node9&#45;&gt;Node11</title>
<path fill="none" stroke="midnightblue" d="M499.22,-340.92C538.6,-335.27 605.61,-323.04 659,-300 689.1,-287.01 720,-264.75 738.85,-249.95"/>
<polygon fill="midnightblue" stroke="midnightblue" points="741.23,-252.53 746.85,-243.55 736.85,-247.06 741.23,-252.53"/>
</g>
<!-- Node13 -->
<g id="node13" class="node">
<title>Node13</title>
<g id="a_node13"><a xlink:href="_requestable_item_8hpp.html" target="_top" xlink:title=" ">
<polygon fill="none" stroke="black" points="780,-168.5 780,-187.5 890,-187.5 890,-168.5 780,-168.5"/>
<text text-anchor="middle" x="835" y="-175.5" font-family="Helvetica,sans-Serif" font-size="10.00">RequestableItem.hpp</text>
</a>
</g>
</g>
<!-- Node9&#45;&gt;Node13 -->
<g id="edge29" class="edge">
<title>Node9&#45;&gt;Node13</title>
<path fill="none" stroke="midnightblue" d="M499.21,-344.94C566.29,-342.97 718.72,-328.8 803,-244 816,-230.92 824.61,-211.5 829.59,-197.29"/>
<polygon fill="midnightblue" stroke="midnightblue" points="832.96,-198.23 832.7,-187.64 826.3,-196.08 832.96,-198.23"/>
</g>
<!-- Node16 -->
<g id="node16" class="node">
<title>Node16</title>
<g id="a_node16"><a xlink:href="_physical_device_8hpp.html" target="_top" xlink:title=" ">
<polygon fill="none" stroke="black" points="560,-224.5 560,-243.5 664,-243.5 664,-224.5 560,-224.5"/>
<text text-anchor="middle" x="612" y="-231.5" font-family="Helvetica,sans-Serif" font-size="10.00">PhysicalDevice.hpp</text>
</a>
</g>
</g>
<!-- Node9&#45;&gt;Node16 -->
<g id="edge24" class="edge">
<title>Node9&#45;&gt;Node16</title>
<path fill="none" stroke="midnightblue" d="M477.46,-336.37C502.3,-317.65 561.36,-273.15 592.31,-249.83"/>
<polygon fill="midnightblue" stroke="midnightblue" points="594.72,-252.4 600.6,-243.59 590.5,-246.81 594.72,-252.4"/>
</g>
<!-- Node18 -->
<g id="node18" class="node">
<title>Node18</title>
<g id="a_node18"><a xlink:href="_surface_8hpp.html" target="_top" xlink:title=" ">
<polygon fill="none" stroke="black" points="580.5,-280.5 580.5,-299.5 649.5,-299.5 649.5,-280.5 580.5,-280.5"/>
<text text-anchor="middle" x="615" y="-287.5" font-family="Helvetica,sans-Serif" font-size="10.00">Surface.hpp</text>
</a>
</g>
</g>
<!-- Node9&#45;&gt;Node18 -->
<g id="edge30" class="edge">
<title>Node9&#45;&gt;Node18</title>
<path fill="none" stroke="midnightblue" d="M489.61,-336.44C514.46,-327.44 553.77,-313.19 581.75,-303.05"/>
<polygon fill="midnightblue" stroke="midnightblue" points="583.29,-306.21 591.5,-299.52 580.91,-299.63 583.29,-306.21"/>
</g>
<!-- Node11&#45;&gt;Node2 -->
<g id="edge16" class="edge">
<title>Node11&#45;&gt;Node2</title>
<path fill="none" stroke="midnightblue" d="M720.46,-228.02C651.44,-218.6 501.43,-198.15 418.69,-186.87"/>
<polygon fill="midnightblue" stroke="midnightblue" points="419.07,-183.39 408.69,-185.5 418.13,-190.32 419.07,-183.39"/>
</g>
<!-- Node11&#45;&gt;Node3 -->
<g id="edge17" class="edge">
<title>Node11&#45;&gt;Node3</title>
<path fill="none" stroke="midnightblue" d="M751.32,-224.24C741.6,-210.02 720.36,-182.09 695,-168 640.48,-137.71 567.94,-127.74 522.35,-124.5"/>
<polygon fill="midnightblue" stroke="midnightblue" points="522.41,-121 512.21,-123.86 521.97,-127.99 522.41,-121"/>
</g>
<!-- Node11&#45;&gt;Node4 -->
<g id="edge15" class="edge">
<title>Node11&#45;&gt;Node4</title>
<path fill="none" stroke="midnightblue" d="M793.51,-227.65C823.89,-221.82 867.17,-210.18 899,-188 938.67,-160.35 969.4,-110.96 983.88,-84.64"/>
<polygon fill="midnightblue" stroke="midnightblue" points="986.99,-86.25 988.62,-75.78 980.82,-82.95 986.99,-86.25"/>
</g>
<!-- Node12 -->
<g id="node12" class="node">
<title>Node12</title>
<g id="a_node12"><a xlink:title=" ">
<polygon fill="none" stroke="#bfbfbf" points="814.5,-112.5 814.5,-131.5 855.5,-131.5 855.5,-112.5 814.5,-112.5"/>
<text text-anchor="middle" x="835" y="-119.5" font-family="Helvetica,sans-Serif" font-size="10.00">string</text>
</a>
</g>
</g>
<!-- Node11&#45;&gt;Node12 -->
<g id="edge14" class="edge">
<title>Node11&#45;&gt;Node12</title>
<path fill="none" stroke="midnightblue" d="M756.92,-224.24C757.22,-210.98 759.4,-185.51 771,-168 779.81,-154.7 794.02,-144.13 806.81,-136.58"/>
<polygon fill="midnightblue" stroke="midnightblue" points="808.71,-139.53 815.77,-131.63 805.33,-133.4 808.71,-139.53"/>
</g>
<!-- Node11&#45;&gt;Node13 -->
<g id="edge18" class="edge">
<title>Node11&#45;&gt;Node13</title>
<path fill="none" stroke="midnightblue" d="M769.53,-224.32C781.59,-215.98 800.03,-203.21 814.27,-193.35"/>
<polygon fill="midnightblue" stroke="midnightblue" points="816.27,-196.22 822.5,-187.65 812.28,-190.47 816.27,-196.22"/>
</g>
<!-- Node14 -->
<g id="node14" class="node">
<title>Node14</title>
<g id="a_node14"><a xlink:href="_window_8hpp.html" target="_top" xlink:title=" ">
<polygon fill="none" stroke="black" points="594.5,-168.5 594.5,-187.5 685.5,-187.5 685.5,-168.5 594.5,-168.5"/>
<text text-anchor="middle" x="640" y="-175.5" font-family="Helvetica,sans-Serif" font-size="10.00">york/Window.hpp</text>
</a>
</g>
</g>
<!-- Node11&#45;&gt;Node14 -->
<g id="edge20" class="edge">
<title>Node11&#45;&gt;Node14</title>
<path fill="none" stroke="midnightblue" d="M738.46,-224.44C719.38,-215.64 689.43,-201.81 667.56,-191.72"/>
<polygon fill="midnightblue" stroke="midnightblue" points="669,-188.53 658.45,-187.52 666.07,-194.88 669,-188.53"/>
</g>
<!-- Node13&#45;&gt;Node12 -->
<g id="edge19" class="edge">
<title>Node13&#45;&gt;Node12</title>
<path fill="none" stroke="midnightblue" d="M835,-168.08C835,-161.01 835,-150.86 835,-141.99"/>
<polygon fill="midnightblue" stroke="midnightblue" points="838.5,-141.75 835,-131.75 831.5,-141.75 838.5,-141.75"/>
</g>
<!-- Node14&#45;&gt;Node3 -->
<g id="edge23" class="edge">
<title>Node14&#45;&gt;Node3</title>
<path fill="none" stroke="midnightblue" d="M614.49,-168.44C587.4,-159.36 544.41,-144.94 514.13,-134.78"/>
<polygon fill="midnightblue" stroke="midnightblue" points="514.99,-131.38 504.39,-131.52 512.76,-138.01 514.99,-131.38"/>
</g>
<!-- Node14&#45;&gt;Node12 -->
<g id="edge21" class="edge">
<title>Node14&#45;&gt;Node12</title>
<path fill="none" stroke="midnightblue" d="M670.9,-168.44C707.45,-158.32 767.94,-141.57 804.37,-131.48"/>
<polygon fill="midnightblue" stroke="midnightblue" points="805.71,-134.74 814.42,-128.7 803.84,-128 805.71,-134.74"/>
</g>
<!-- Node15 -->
<g id="node15" class="node">
<title>Node15</title>
<g id="a_node15"><a xlink:title=" ">
<polygon fill="none" stroke="#bfbfbf" points="603.5,-112.5 603.5,-131.5 676.5,-131.5 676.5,-112.5 603.5,-112.5"/>
<text text-anchor="middle" x="640" y="-119.5" font-family="Helvetica,sans-Serif" font-size="10.00">SDL_video.h</text>
</a>
</g>
</g>
<!-- Node14&#45;&gt;Node15 -->
<g id="edge22" class="edge">
<title>Node14&#45;&gt;Node15</title>
<path fill="none" stroke="midnightblue" d="M640,-168.08C640,-161.01 640,-150.86 640,-141.99"/>
<polygon fill="midnightblue" stroke="midnightblue" points="643.5,-141.75 640,-131.75 636.5,-141.75 643.5,-141.75"/>
</g>
<!-- Node16&#45;&gt;Node2 -->
<g id="edge26" class="edge">
<title>Node16&#45;&gt;Node2</title>
<path fill="none" stroke="midnightblue" d="M572.23,-224.44C528.44,-215.02 457.99,-199.87 410.62,-189.68"/>
<polygon fill="midnightblue" stroke="midnightblue" points="411.1,-186.2 400.59,-187.52 409.63,-193.04 411.1,-186.2"/>
</g>
<!-- Node16&#45;&gt;Node13 -->
<g id="edge27" class="edge">
<title>Node16&#45;&gt;Node13</title>
<path fill="none" stroke="midnightblue" d="M647.34,-224.44C685.91,-215.1 747.78,-200.12 789.85,-189.93"/>
<polygon fill="midnightblue" stroke="midnightblue" points="790.93,-193.27 799.83,-187.52 789.29,-186.47 790.93,-193.27"/>
</g>
<!-- Node16&#45;&gt;Node14 -->
<g id="edge28" class="edge">
<title>Node16&#45;&gt;Node14</title>
<path fill="none" stroke="midnightblue" d="M616.62,-224.08C620.46,-216.69 626.02,-205.95 630.76,-196.81"/>
<polygon fill="midnightblue" stroke="midnightblue" points="633.97,-198.24 635.46,-187.75 627.75,-195.02 633.97,-198.24"/>
</g>
<!-- Node17 -->
<g id="node17" class="node">
<title>Node17</title>
<g id="a_node17"><a xlink:title=" ">
<polygon fill="none" stroke="#bfbfbf" points="526,-168.5 526,-187.5 576,-187.5 576,-168.5 526,-168.5"/>
<text text-anchor="middle" x="551" y="-175.5" font-family="Helvetica,sans-Serif" font-size="10.00">optional</text>
</a>
</g>
</g>
<!-- Node16&#45;&gt;Node17 -->
<g id="edge25" class="edge">
<title>Node16&#45;&gt;Node17</title>
<path fill="none" stroke="midnightblue" d="M602.2,-224.32C593.18,-216.34 579.59,-204.31 568.68,-194.65"/>
<polygon fill="midnightblue" stroke="midnightblue" points="570.79,-191.84 560.98,-187.83 566.15,-197.08 570.79,-191.84"/>
</g>
<!-- Node18&#45;&gt;Node2 -->
<g id="edge31" class="edge">
<title>Node18&#45;&gt;Node2</title>
<path fill="none" stroke="midnightblue" d="M595.07,-280.37C550.46,-261.05 442.42,-214.26 390.21,-191.65"/>
<polygon fill="midnightblue" stroke="midnightblue" points="391.41,-188.35 380.84,-187.59 388.62,-194.78 391.41,-188.35"/>
</g>
<!-- Node18&#45;&gt;Node3 -->
<g id="edge32" class="edge">
<title>Node18&#45;&gt;Node3</title>
<path fill="none" stroke="midnightblue" d="M599.15,-280.38C585.28,-272.29 565.19,-259.18 551,-244 521.35,-212.28 498.18,-166.33 486.77,-141.16"/>
<polygon fill="midnightblue" stroke="midnightblue" points="489.86,-139.49 482.62,-131.75 483.46,-142.31 489.86,-139.49"/>
</g>
<!-- Node18&#45;&gt;Node11 -->
<g id="edge33" class="edge">
<title>Node18&#45;&gt;Node11</title>
<path fill="none" stroke="midnightblue" d="M637.5,-280.44C661.08,-271.48 698.32,-257.31 724.96,-247.18"/>
<polygon fill="midnightblue" stroke="midnightblue" points="726.5,-250.34 734.6,-243.52 724.01,-243.8 726.5,-250.34"/>
</g>
<!-- Node18&#45;&gt;Node14 -->
<g id="edge34" class="edge">
<title>Node18&#45;&gt;Node14</title>
<path fill="none" stroke="midnightblue" d="M633.39,-280.47C647.1,-273 664.81,-260.71 673,-244 681.21,-227.25 669.02,-208.24 657.21,-195.12"/>
<polygon fill="midnightblue" stroke="midnightblue" points="659.56,-192.52 650.08,-187.79 654.54,-197.4 659.56,-192.52"/>
</g>
<!-- Node19&#45;&gt;Node2 -->
<g id="edge37" class="edge">
<title>Node19&#45;&gt;Node2</title>
<path fill="none" stroke="midnightblue" d="M154.46,-504.41C141.55,-486.56 114,-443.7 114,-403 114,-403 114,-403 114,-345 114,-252.6 234.54,-208.29 307.21,-189.97"/>
<polygon fill="midnightblue" stroke="midnightblue" points="308.24,-193.32 317.13,-187.55 306.58,-186.52 308.24,-193.32"/>
</g>
<!-- Node19&#45;&gt;Node3 -->
<g id="edge38" class="edge">
<title>Node19&#45;&gt;Node3</title>
<path fill="none" stroke="midnightblue" d="M137.58,-504.42C101.89,-489.66 38,-455.86 38,-403 38,-403 38,-403 38,-233 38,-188.55 73.33,-185.92 114,-168 170.8,-142.97 351.87,-130 435.68,-125.21"/>
<polygon fill="midnightblue" stroke="midnightblue" points="436.09,-128.7 445.88,-124.64 435.7,-121.71 436.09,-128.7"/>
</g>
<!-- Node19&#45;&gt;Node20 -->
<g id="edge39" class="edge">
<title>Node19&#45;&gt;Node20</title>
<path fill="none" stroke="midnightblue" d="M168.6,-504.08C175.23,-496.3 185.02,-484.8 193.06,-475.37"/>
<polygon fill="midnightblue" stroke="midnightblue" points="195.73,-477.63 199.55,-467.75 190.4,-473.09 195.73,-477.63"/>
</g>
<!-- Node20&#45;&gt;Node2 -->
<g id="edge40" class="edge">
<title>Node20&#45;&gt;Node2</title>
<path fill="none" stroke="midnightblue" d="M215.45,-448.44C231.77,-430.96 266,-389.26 266,-347 266,-347 266,-347 266,-289 266,-258.2 270.64,-247.95 290,-224 300.99,-210.41 317.23,-199.68 331.41,-192.12"/>
<polygon fill="midnightblue" stroke="midnightblue" points="333.01,-195.24 340.36,-187.61 329.85,-188.99 333.01,-195.24"/>
</g>
<!-- Node20&#45;&gt;Node3 -->
<g id="edge42" class="edge">
<title>Node20&#45;&gt;Node3</title>
<path fill="none" stroke="midnightblue" d="M180.81,-448.41C142.58,-434.03 76,-401.2 76,-347 76,-347 76,-347 76,-233 76,-159.11 331.29,-133.16 435.49,-125.64"/>
<polygon fill="midnightblue" stroke="midnightblue" points="435.95,-129.12 445.68,-124.93 435.46,-122.14 435.95,-129.12"/>
</g>
<!-- Node20&#45;&gt;Node9 -->
<g id="edge41" class="edge">
<title>Node20&#45;&gt;Node9</title>
<path fill="none" stroke="midnightblue" d="M250.25,-453.96C310.53,-448.87 415.64,-436.67 444,-412 457.32,-400.41 462.59,-380.45 464.67,-365.7"/>
<polygon fill="midnightblue" stroke="midnightblue" points="468.16,-365.97 465.71,-355.66 461.2,-365.24 468.16,-365.97"/>
</g>
<!-- Node21 -->
<g id="node21" class="node">
<title>Node21</title>
<g id="a_node21"><a xlink:href="_image_view_8hpp.html" target="_top" xlink:title=" ">
<polygon fill="none" stroke="black" points="151.5,-392.5 151.5,-411.5 234.5,-411.5 234.5,-392.5 151.5,-392.5"/>
<text text-anchor="middle" x="193" y="-399.5" font-family="Helvetica,sans-Serif" font-size="10.00">ImageView.hpp</text>
</a>
</g>
</g>
<!-- Node20&#45;&gt;Node21 -->
<g id="edge43" class="edge">
<title>Node20&#45;&gt;Node21</title>
<path fill="none" stroke="midnightblue" d="M204.69,-448.08C202.83,-440.93 200.16,-430.64 197.85,-421.69"/>
<polygon fill="midnightblue" stroke="midnightblue" points="201.17,-420.55 195.27,-411.75 194.39,-422.31 201.17,-420.55"/>
</g>
<!-- Node21&#45;&gt;Node2 -->
<g id="edge46" class="edge">
<title>Node21&#45;&gt;Node2</title>
<path fill="none" stroke="midnightblue" d="M193.43,-392.36C195.26,-364.32 204.72,-274.69 252,-224 267.06,-207.85 288.78,-197.32 308.87,-190.54"/>
<polygon fill="midnightblue" stroke="midnightblue" points="310.07,-193.84 318.56,-187.51 307.98,-187.16 310.07,-193.84"/>
</g>
<!-- Node21&#45;&gt;Node3 -->
<g id="edge44" class="edge">
<title>Node21&#45;&gt;Node3</title>
<path fill="none" stroke="midnightblue" d="M192.54,-392.13C192.03,-379.58 191.56,-355.94 194,-336 204.44,-250.64 218.23,-215.37 290,-168 334.15,-138.86 395.15,-128.53 435.78,-124.91"/>
<polygon fill="midnightblue" stroke="midnightblue" points="436.21,-128.38 445.9,-124.1 435.65,-121.41 436.21,-128.38"/>
</g>
<!-- Node21&#45;&gt;Node9 -->
<g id="edge45" class="edge">
<title>Node21&#45;&gt;Node9</title>
<path fill="none" stroke="midnightblue" d="M234.76,-392.74C285.73,-382.66 371.48,-365.7 423.01,-355.5"/>
<polygon fill="midnightblue" stroke="midnightblue" points="423.7,-358.93 432.83,-353.56 422.34,-352.07 423.7,-358.93"/>
</g>
<!-- Node22&#45;&gt;Node2 -->
<g id="edge51" class="edge">
<title>Node22&#45;&gt;Node2</title>
<path fill="none" stroke="midnightblue" d="M923.43,-394.85C856.32,-381.65 698.34,-347.88 572,-300 520.33,-280.42 508.9,-271.54 461,-244 432.82,-227.8 401.61,-207.03 381.67,-193.38"/>
<polygon fill="midnightblue" stroke="midnightblue" points="383.58,-190.45 373.35,-187.66 379.6,-196.21 383.58,-190.45"/>
</g>
<!-- Node22&#45;&gt;Node3 -->
<g id="edge56" class="edge">
<title>Node22&#45;&gt;Node3</title>
<path fill="none" stroke="midnightblue" d="M950.72,-392.23C940.27,-374.04 918,-330.6 918,-291 918,-291 918,-291 918,-233 918,-202.9 922.09,-187.31 899,-168 884.67,-156.02 627.09,-134.6 522.55,-126.36"/>
<polygon fill="midnightblue" stroke="midnightblue" points="522.58,-122.85 512.34,-125.56 522.03,-129.83 522.58,-122.85"/>
</g>
<!-- Node22&#45;&gt;Node4 -->
<g id="edge50" class="edge">
<title>Node22&#45;&gt;Node4</title>
<path fill="none" stroke="midnightblue" d="M988.65,-395.98C1040.04,-386.02 1134,-358.57 1134,-291 1134,-291 1134,-291 1134,-177 1134,-121.93 1066.31,-90.37 1024.73,-76.17"/>
<polygon fill="midnightblue" stroke="midnightblue" points="1025.62,-72.78 1015.03,-73.01 1023.46,-79.44 1025.62,-72.78"/>
</g>
<!-- Node22&#45;&gt;Node7 -->
<g id="edge48" class="edge">
<title>Node22&#45;&gt;Node7</title>
<path fill="none" stroke="midnightblue" d="M988.81,-399.05C1049.23,-393.5 1172,-372.22 1172,-291 1172,-291 1172,-291 1172,-121 1172,-28.54 1025.79,-13.24 958.35,-11.1"/>
<polygon fill="midnightblue" stroke="midnightblue" points="958.32,-7.6 948.24,-10.86 958.15,-14.6 958.32,-7.6"/>
</g>
<!-- Node22&#45;&gt;Node9 -->
<g id="edge55" class="edge">
<title>Node22&#45;&gt;Node9</title>
<path fill="none" stroke="midnightblue" d="M923.37,-398.67C849.86,-393.22 665.79,-378.35 513,-356 511.73,-355.81 510.44,-355.62 509.14,-355.41"/>
<polygon fill="midnightblue" stroke="midnightblue" points="509.51,-351.93 499.06,-353.71 508.34,-358.83 509.51,-351.93"/>
</g>
<!-- Node22&#45;&gt;Node12 -->
<g id="edge49" class="edge">
<title>Node22&#45;&gt;Node12</title>
<path fill="none" stroke="midnightblue" d="M961.28,-392.23C971.73,-374.04 994,-330.6 994,-291 994,-291 994,-291 994,-233 994,-171.21 911.79,-141.41 865.6,-129.54"/>
<polygon fill="midnightblue" stroke="midnightblue" points="866.33,-126.11 855.79,-127.15 864.67,-132.91 866.33,-126.11"/>
</g>
<!-- Node23 -->
<g id="node23" class="node">
<title>Node23</title>
<g id="a_node23"><a xlink:href="_asset_8hpp.html" target="_top" xlink:title=" ">
<polygon fill="none" stroke="black" points="1022.5,-168.5 1022.5,-187.5 1105.5,-187.5 1105.5,-168.5 1022.5,-168.5"/>
<text text-anchor="middle" x="1064" y="-175.5" font-family="Helvetica,sans-Serif" font-size="10.00">york/Asset.hpp</text>
</a>
</g>
</g>
<!-- Node22&#45;&gt;Node23 -->
<g id="edge52" class="edge">
<title>Node22&#45;&gt;Node23</title>
<path fill="none" stroke="midnightblue" d="M969.83,-392.26C981.56,-384.18 998.03,-371.16 1008,-356 1041.74,-304.72 1056.27,-231.76 1061.5,-197.78"/>
<polygon fill="midnightblue" stroke="midnightblue" points="1064.97,-198.23 1062.93,-187.83 1058.05,-197.23 1064.97,-198.23"/>
</g>
<!-- Node23&#45;&gt;Node4 -->
<g id="edge54" class="edge">
<title>Node23&#45;&gt;Node4</title>
<path fill="none" stroke="midnightblue" d="M1058.43,-168.37C1046.76,-150.3 1019.58,-108.18 1004.17,-84.31"/>
<polygon fill="midnightblue" stroke="midnightblue" points="1006.91,-82.1 998.55,-75.59 1001.03,-85.89 1006.91,-82.1"/>
</g>
<!-- Node23&#45;&gt;Node12 -->
<g id="edge53" class="edge">
<title>Node23&#45;&gt;Node12</title>
<path fill="none" stroke="midnightblue" d="M1027.71,-168.44C982.95,-157.89 907.64,-140.13 865.65,-130.23"/>
<polygon fill="midnightblue" stroke="midnightblue" points="866.26,-126.78 855.73,-127.89 864.66,-133.59 866.26,-126.78"/>
</g>
</g>
</svg>
