<?xml version="1.0" encoding="UTF-8" standalone="no"?>
<!DOCTYPE svg PUBLIC "-//W3C//DTD SVG 1.1//EN"
 "http://www.w3.org/Graphics/SVG/1.1/DTD/svg11.dtd">
<!-- Generated by graphviz version 2.50.0 (20211204.2007)
 -->
<!-- Title: include/york/Renderer/Renderer.hpp Pages: 1 -->
<svg width="1635pt" height="767pt"
 viewBox="0.00 0.00 1634.50 767.00" xmlns="http://www.w3.org/2000/svg" xmlns:xlink="http://www.w3.org/1999/xlink">
<g id="graph0" class="graph" transform="scale(1 1) rotate(0) translate(4 763)">
<title>include/york/Renderer/Renderer.hpp</title>
<!-- Node1 -->
<g id="node1" class="node">
<title>Node1</title>
<g id="a_node1"><a xlink:title=" ">
<polygon fill="#bfbfbf" stroke="black" points="636.5,-728.5 636.5,-758.5 748.5,-758.5 748.5,-728.5 636.5,-728.5"/>
<text text-anchor="start" x="644.5" y="-746.5" font-family="Helvetica,sans-Serif" font-size="10.00">include/york/Renderer</text>
<text text-anchor="middle" x="692.5" y="-735.5" font-family="Helvetica,sans-Serif" font-size="10.00">/Renderer.hpp</text>
</a>
</g>
</g>
<!-- Node2 -->
<g id="node2" class="node">
<title>Node2</title>
<g id="a_node2"><a xlink:href="_event_8hpp.html" target="_top" xlink:title=" ">
<polygon fill="none" stroke="black" points="47,-168.5 47,-187.5 130,-187.5 130,-168.5 47,-168.5"/>
<text text-anchor="middle" x="88.5" y="-175.5" font-family="Helvetica,sans-Serif" font-size="10.00">york/Event.hpp</text>
</a>
</g>
</g>
<!-- Node1&#45;&gt;Node2 -->
<g id="edge1" class="edge">
<title>Node1&#45;&gt;Node2</title>
<path fill="none" stroke="midnightblue" d="M636.39,-743.26C489.41,-743.75 104.5,-734.74 104.5,-627 104.5,-627 104.5,-627 104.5,-289 104.5,-256.63 97.63,-219.44 92.89,-197.66"/>
<polygon fill="midnightblue" stroke="midnightblue" points="96.28,-196.76 90.66,-187.78 89.45,-198.3 96.28,-196.76"/>
</g>
<!-- Node10 -->
<g id="node10" class="node">
<title>Node10</title>
<g id="a_node10"><a xlink:href="_window_8hpp.html" target="_top" xlink:title=" ">
<polygon fill="none" stroke="black" points="1163,-168.5 1163,-187.5 1254,-187.5 1254,-168.5 1163,-168.5"/>
<text text-anchor="middle" x="1208.5" y="-175.5" font-family="Helvetica,sans-Serif" font-size="10.00">york/Window.hpp</text>
</a>
</g>
</g>
<!-- Node1&#45;&gt;Node10 -->
<g id="edge11" class="edge">
<title>Node1&#45;&gt;Node10</title>
<path fill="none" stroke="midnightblue" d="M748.65,-740.25C929.71,-732.27 1486.5,-701.66 1486.5,-627 1486.5,-627 1486.5,-627 1486.5,-457 1486.5,-318.15 1310.95,-224.42 1238.85,-191.79"/>
<polygon fill="midnightblue" stroke="midnightblue" points="1239.96,-188.45 1229.4,-187.59 1237.12,-194.85 1239.96,-188.45"/>
</g>
<!-- Node14 -->
<g id="node14" class="node">
<title>Node14</title>
<g id="a_node14"><a xlink:href="_framebuffer_8hpp.html" target="_top" xlink:title=" ">
<polygon fill="none" stroke="black" points="515,-616.5 515,-635.5 666,-635.5 666,-616.5 515,-616.5"/>
<text text-anchor="middle" x="590.5" y="-623.5" font-family="Helvetica,sans-Serif" font-size="10.00">york/Graphics/Framebuffer.hpp</text>
</a>
</g>
</g>
<!-- Node1&#45;&gt;Node14 -->
<g id="edge18" class="edge">
<title>Node1&#45;&gt;Node14</title>
<path fill="none" stroke="midnightblue" d="M691.92,-728.33C690.61,-712.96 686.47,-688.41 673.5,-672 661.78,-657.16 643.77,-646.56 627.51,-639.39"/>
<polygon fill="midnightblue" stroke="midnightblue" points="628.79,-636.13 618.21,-635.56 626.12,-642.6 628.79,-636.13"/>
</g>
<!-- Node26 -->
<g id="node26" class="node">
<title>Node26</title>
<g id="a_node26"><a xlink:href="_pipeline_8hpp.html" target="_top" xlink:title=" ">
<polygon fill="none" stroke="black" points="934.5,-616.5 934.5,-635.5 1068.5,-635.5 1068.5,-616.5 934.5,-616.5"/>
<text text-anchor="middle" x="1001.5" y="-623.5" font-family="Helvetica,sans-Serif" font-size="10.00">york/Graphics/Pipeline.hpp</text>
</a>
</g>
</g>
<!-- Node1&#45;&gt;Node26 -->
<g id="edge55" class="edge">
<title>Node1&#45;&gt;Node26</title>
<path fill="none" stroke="midnightblue" d="M730.08,-728.45C791.23,-705.6 911.21,-660.75 968.95,-639.17"/>
<polygon fill="midnightblue" stroke="midnightblue" points="970.51,-642.32 978.65,-635.54 968.05,-635.77 970.51,-642.32"/>
</g>
<!-- Node30 -->
<g id="node30" class="node">
<title>Node30</title>
<g id="a_node30"><a xlink:href="_command_pool_8hpp.html" target="_top" xlink:title=" ">
<polygon fill="none" stroke="black" points="650.5,-448.5 650.5,-467.5 814.5,-467.5 814.5,-448.5 650.5,-448.5"/>
<text text-anchor="middle" x="732.5" y="-455.5" font-family="Helvetica,sans-Serif" font-size="10.00">york/Graphics/CommandPool.hpp</text>
</a>
</g>
</g>
<!-- Node1&#45;&gt;Node30 -->
<g id="edge74" class="edge">
<title>Node1&#45;&gt;Node30</title>
<path fill="none" stroke="midnightblue" d="M700.79,-728.46C712.5,-707.24 732.5,-665.41 732.5,-627 732.5,-627 732.5,-627 732.5,-569 732.5,-536.95 732.5,-499.64 732.5,-477.75"/>
<polygon fill="midnightblue" stroke="midnightblue" points="736,-477.56 732.5,-467.56 729,-477.56 736,-477.56"/>
</g>
<!-- Node31 -->
<g id="node31" class="node">
<title>Node31</title>
<g id="a_node31"><a xlink:href="_semaphore_8hpp.html" target="_top" xlink:title=" ">
<polygon fill="none" stroke="black" points="225,-448.5 225,-467.5 374,-467.5 374,-448.5 225,-448.5"/>
<text text-anchor="middle" x="299.5" y="-455.5" font-family="Helvetica,sans-Serif" font-size="10.00">york/Graphics/Semaphore.hpp</text>
</a>
</g>
</g>
<!-- Node1&#45;&gt;Node31 -->
<g id="edge78" class="edge">
<title>Node1&#45;&gt;Node31</title>
<path fill="none" stroke="midnightblue" d="M636.21,-739.79C515.89,-732.45 244.5,-707.02 244.5,-627 244.5,-627 244.5,-627 244.5,-569 244.5,-532.57 268.93,-495.84 285.23,-475.39"/>
<polygon fill="midnightblue" stroke="midnightblue" points="287.94,-477.6 291.62,-467.67 282.55,-473.14 287.94,-477.6"/>
</g>
<!-- Node32 -->
<g id="node32" class="node">
<title>Node32</title>
<g id="a_node32"><a xlink:href="_frame_data_8hpp.html" target="_top" xlink:title=" ">
<polygon fill="none" stroke="black" points="516.5,-672.5 516.5,-691.5 664.5,-691.5 664.5,-672.5 516.5,-672.5"/>
<text text-anchor="middle" x="590.5" y="-679.5" font-family="Helvetica,sans-Serif" font-size="10.00">york/Graphics/FrameData.hpp</text>
</a>
</g>
</g>
<!-- Node1&#45;&gt;Node32 -->
<g id="edge82" class="edge">
<title>Node1&#45;&gt;Node32</title>
<path fill="none" stroke="midnightblue" d="M668.33,-728.4C651.98,-718.86 630.49,-706.32 614.23,-696.84"/>
<polygon fill="midnightblue" stroke="midnightblue" points="615.74,-693.67 605.34,-691.66 612.22,-699.72 615.74,-693.67"/>
</g>
<!-- Node3 -->
<g id="node3" class="node">
<title>Node3</title>
<g id="a_node3"><a xlink:title=" ">
<polygon fill="none" stroke="#bfbfbf" points="865.5,-56.5 865.5,-75.5 909.5,-75.5 909.5,-56.5 865.5,-56.5"/>
<text text-anchor="middle" x="887.5" y="-63.5" font-family="Helvetica,sans-Serif" font-size="10.00">vector</text>
</a>
</g>
</g>
<!-- Node2&#45;&gt;Node3 -->
<g id="edge2" class="edge">
<title>Node2&#45;&gt;Node3</title>
<path fill="none" stroke="midnightblue" d="M130.09,-170.29C134.94,-169.51 139.83,-168.74 144.5,-168 247.57,-151.72 273.68,-149.76 376.5,-132 423.31,-123.91 434.52,-119.07 481.5,-112 619.96,-91.17 786.34,-75.7 855.22,-69.72"/>
<polygon fill="midnightblue" stroke="midnightblue" points="855.75,-73.18 865.42,-68.84 855.15,-66.21 855.75,-73.18"/>
</g>
<!-- Node4 -->
<g id="node4" class="node">
<title>Node4</title>
<g id="a_node4"><a xlink:title=" ">
<polygon fill="none" stroke="#bfbfbf" points="250,-56.5 250,-75.5 309,-75.5 309,-56.5 250,-56.5"/>
<text text-anchor="middle" x="279.5" y="-63.5" font-family="Helvetica,sans-Serif" font-size="10.00">functional</text>
</a>
</g>
</g>
<!-- Node2&#45;&gt;Node4 -->
<g id="edge3" class="edge">
<title>Node2&#45;&gt;Node4</title>
<path fill="none" stroke="midnightblue" d="M110.08,-168.41C130.31,-160.05 161.16,-146.52 186.5,-132 213.23,-116.68 242.02,-95.82 260.36,-81.91"/>
<polygon fill="midnightblue" stroke="midnightblue" points="262.67,-84.55 268.48,-75.69 258.41,-78.99 262.67,-84.55"/>
</g>
<!-- Node5 -->
<g id="node5" class="node">
<title>Node5</title>
<g id="a_node5"><a xlink:title=" ">
<polygon fill="none" stroke="#bfbfbf" points="0,-112.5 0,-131.5 79,-131.5 79,-112.5 0,-112.5"/>
<text text-anchor="middle" x="39.5" y="-119.5" font-family="Helvetica,sans-Serif" font-size="10.00">SDL_events.h</text>
</a>
</g>
</g>
<!-- Node2&#45;&gt;Node5 -->
<g id="edge4" class="edge">
<title>Node2&#45;&gt;Node5</title>
<path fill="none" stroke="midnightblue" d="M80.41,-168.08C73.34,-160.3 62.91,-148.8 54.35,-139.37"/>
<polygon fill="midnightblue" stroke="midnightblue" points="56.75,-136.8 47.44,-131.75 51.57,-141.51 56.75,-136.8"/>
</g>
<!-- Node6 -->
<g id="node6" class="node">
<title>Node6</title>
<g id="a_node6"><a xlink:href="_key_codes_8hpp.html" target="_top" xlink:title=" ">
<polygon fill="none" stroke="black" points="97,-112.5 97,-131.5 178,-131.5 178,-112.5 97,-112.5"/>
<text text-anchor="middle" x="137.5" y="-119.5" font-family="Helvetica,sans-Serif" font-size="10.00">KeyCodes.hpp</text>
</a>
</g>
</g>
<!-- Node2&#45;&gt;Node6 -->
<g id="edge5" class="edge">
<title>Node2&#45;&gt;Node6</title>
<path fill="none" stroke="midnightblue" d="M96.59,-168.08C103.66,-160.3 114.09,-148.8 122.65,-139.37"/>
<polygon fill="midnightblue" stroke="midnightblue" points="125.43,-141.51 129.56,-131.75 120.25,-136.8 125.43,-141.51"/>
</g>
<!-- Node7 -->
<g id="node7" class="node">
<title>Node7</title>
<g id="a_node7"><a xlink:href="_identifiable_8hpp.html" target="_top" xlink:title=" ">
<polygon fill="none" stroke="black" points="514,-56.5 514,-75.5 597,-75.5 597,-56.5 514,-56.5"/>
<text text-anchor="middle" x="555.5" y="-63.5" font-family="Helvetica,sans-Serif" font-size="10.00">Identifiable.hpp</text>
</a>
</g>
</g>
<!-- Node2&#45;&gt;Node7 -->
<g id="edge6" class="edge">
<title>Node2&#45;&gt;Node7</title>
<path fill="none" stroke="midnightblue" d="M130.33,-170.08C177.49,-162.03 256.38,-147.8 323.5,-132 392.77,-115.69 472.44,-92.35 518.09,-78.53"/>
<polygon fill="midnightblue" stroke="midnightblue" points="519.29,-81.82 527.84,-75.56 517.25,-75.12 519.29,-81.82"/>
</g>
<!-- Node9 -->
<g id="node9" class="node">
<title>Node9</title>
<g id="a_node9"><a xlink:href="_registry_8hpp.html" target="_top" xlink:title=" ">
<polygon fill="none" stroke="black" points="244,-112.5 244,-131.5 315,-131.5 315,-112.5 244,-112.5"/>
<text text-anchor="middle" x="279.5" y="-119.5" font-family="Helvetica,sans-Serif" font-size="10.00">Registry.hpp</text>
</a>
</g>
</g>
<!-- Node2&#45;&gt;Node9 -->
<g id="edge8" class="edge">
<title>Node2&#45;&gt;Node9</title>
<path fill="none" stroke="midnightblue" d="M118.76,-168.44C151.46,-159.2 203.68,-144.44 239.68,-134.26"/>
<polygon fill="midnightblue" stroke="midnightblue" points="240.71,-137.61 249.38,-131.52 238.8,-130.87 240.71,-137.61"/>
</g>
<!-- Node8 -->
<g id="node8" class="node">
<title>Node8</title>
<g id="a_node8"><a xlink:title=" ">
<polygon fill="none" stroke="#bfbfbf" points="1066.5,-0.5 1066.5,-19.5 1112.5,-19.5 1112.5,-0.5 1066.5,-0.5"/>
<text text-anchor="middle" x="1089.5" y="-7.5" font-family="Helvetica,sans-Serif" font-size="10.00">cstdint</text>
</a>
</g>
</g>
<!-- Node7&#45;&gt;Node8 -->
<g id="edge7" class="edge">
<title>Node7&#45;&gt;Node8</title>
<path fill="none" stroke="midnightblue" d="M597.4,-60.76C700.27,-50.36 963.61,-23.73 1056.47,-14.34"/>
<polygon fill="midnightblue" stroke="midnightblue" points="1056.83,-17.82 1066.43,-13.33 1056.13,-10.86 1056.83,-17.82"/>
</g>
<!-- Node9&#45;&gt;Node3 -->
<g id="edge9" class="edge">
<title>Node9&#45;&gt;Node3</title>
<path fill="none" stroke="midnightblue" d="M315.26,-117.82C424.17,-108.15 750.67,-79.15 855.04,-69.88"/>
<polygon fill="midnightblue" stroke="midnightblue" points="855.62,-73.35 865.27,-68.97 855,-66.37 855.62,-73.35"/>
</g>
<!-- Node9&#45;&gt;Node4 -->
<g id="edge10" class="edge">
<title>Node9&#45;&gt;Node4</title>
<path fill="none" stroke="midnightblue" d="M279.5,-112.08C279.5,-105.01 279.5,-94.86 279.5,-85.99"/>
<polygon fill="midnightblue" stroke="midnightblue" points="283,-85.75 279.5,-75.75 276,-85.75 283,-85.75"/>
</g>
<!-- Node11 -->
<g id="node11" class="node">
<title>Node11</title>
<g id="a_node11"><a xlink:title=" ">
<polygon fill="none" stroke="#bfbfbf" points="1345,-112.5 1345,-131.5 1386,-131.5 1386,-112.5 1345,-112.5"/>
<text text-anchor="middle" x="1365.5" y="-119.5" font-family="Helvetica,sans-Serif" font-size="10.00">string</text>
</a>
</g>
</g>
<!-- Node10&#45;&gt;Node11 -->
<g id="edge12" class="edge">
<title>Node10&#45;&gt;Node11</title>
<path fill="none" stroke="midnightblue" d="M1233.38,-168.44C1260.91,-158.97 1305.31,-143.7 1334.94,-133.51"/>
<polygon fill="midnightblue" stroke="midnightblue" points="1336.43,-136.7 1344.75,-130.14 1334.16,-130.08 1336.43,-136.7"/>
</g>
<!-- Node12 -->
<g id="node12" class="node">
<title>Node12</title>
<g id="a_node12"><a xlink:title=" ">
<polygon fill="none" stroke="#bfbfbf" points="1172,-112.5 1172,-131.5 1245,-131.5 1245,-112.5 1172,-112.5"/>
<text text-anchor="middle" x="1208.5" y="-119.5" font-family="Helvetica,sans-Serif" font-size="10.00">SDL_video.h</text>
</a>
</g>
</g>
<!-- Node10&#45;&gt;Node12 -->
<g id="edge13" class="edge">
<title>Node10&#45;&gt;Node12</title>
<path fill="none" stroke="midnightblue" d="M1208.5,-168.08C1208.5,-161.01 1208.5,-150.86 1208.5,-141.99"/>
<polygon fill="midnightblue" stroke="midnightblue" points="1212,-141.75 1208.5,-131.75 1205,-141.75 1212,-141.75"/>
</g>
<!-- Node13 -->
<g id="node13" class="node">
<title>Node13</title>
<g id="a_node13"><a xlink:href="_handle_8hpp.html" target="_top" xlink:title="Contains the declarations for the Handle classes which form the basis of our Vulkan implementation.">
<polygon fill="none" stroke="black" points="490.5,-112.5 490.5,-131.5 620.5,-131.5 620.5,-112.5 490.5,-112.5"/>
<text text-anchor="middle" x="555.5" y="-119.5" font-family="Helvetica,sans-Serif" font-size="10.00">york/Graphics/Handle.hpp</text>
</a>
</g>
</g>
<!-- Node10&#45;&gt;Node13 -->
<g id="edge14" class="edge">
<title>Node10&#45;&gt;Node13</title>
<path fill="none" stroke="midnightblue" d="M1162.64,-172.69C1146.2,-171.17 1127.52,-169.47 1110.5,-168 939.06,-153.18 737.69,-137.21 630.91,-128.86"/>
<polygon fill="midnightblue" stroke="midnightblue" points="631.12,-125.36 620.88,-128.07 630.58,-132.34 631.12,-125.36"/>
</g>
<!-- Node13&#45;&gt;Node3 -->
<g id="edge15" class="edge">
<title>Node13&#45;&gt;Node3</title>
<path fill="none" stroke="midnightblue" d="M608.11,-112.44C677.65,-101.13 798.04,-81.55 855.37,-72.23"/>
<polygon fill="midnightblue" stroke="midnightblue" points="856,-75.67 865.31,-70.61 854.88,-68.76 856,-75.67"/>
</g>
<!-- Node13&#45;&gt;Node4 -->
<g id="edge16" class="edge">
<title>Node13&#45;&gt;Node4</title>
<path fill="none" stroke="midnightblue" d="M511.77,-112.44C458.72,-102.07 370.09,-84.72 319.02,-74.73"/>
<polygon fill="midnightblue" stroke="midnightblue" points="319.51,-71.26 309.03,-72.78 318.17,-78.13 319.51,-71.26"/>
</g>
<!-- Node13&#45;&gt;Node7 -->
<g id="edge17" class="edge">
<title>Node13&#45;&gt;Node7</title>
<path fill="none" stroke="midnightblue" d="M555.5,-112.08C555.5,-105.01 555.5,-94.86 555.5,-85.99"/>
<polygon fill="midnightblue" stroke="midnightblue" points="559,-85.75 555.5,-75.75 552,-85.75 559,-85.75"/>
</g>
<!-- Node14&#45;&gt;Node13 -->
<g id="edge19" class="edge">
<title>Node14&#45;&gt;Node13</title>
<path fill="none" stroke="midnightblue" d="M514.76,-619.83C390.86,-606.82 158.5,-561.32 158.5,-403 158.5,-403 158.5,-403 158.5,-233 158.5,-187.53 195.88,-186.31 237.5,-168 279.77,-149.4 400.5,-136.03 480.45,-128.91"/>
<polygon fill="midnightblue" stroke="midnightblue" points="480.81,-132.39 490.47,-128.03 480.2,-125.41 480.81,-132.39"/>
</g>
<!-- Node15 -->
<g id="node15" class="node">
<title>Node15</title>
<g id="a_node15"><a xlink:href="_render_pass_8hpp.html" target="_top" xlink:title=" ">
<polygon fill="none" stroke="black" points="789,-560.5 789,-579.5 878,-579.5 878,-560.5 789,-560.5"/>
<text text-anchor="middle" x="833.5" y="-567.5" font-family="Helvetica,sans-Serif" font-size="10.00">RenderPass.hpp</text>
</a>
</g>
</g>
<!-- Node14&#45;&gt;Node15 -->
<g id="edge20" class="edge">
<title>Node14&#45;&gt;Node15</title>
<path fill="none" stroke="midnightblue" d="M629,-616.44C671.31,-607.04 739.32,-591.93 785.17,-581.74"/>
<polygon fill="midnightblue" stroke="midnightblue" points="786.17,-585.1 795.18,-579.52 784.65,-578.27 786.17,-585.1"/>
</g>
<!-- Node16 -->
<g id="node16" class="node">
<title>Node16</title>
<g id="a_node16"><a xlink:title=" ">
<polygon fill="none" stroke="#bfbfbf" points="796,-168.5 796,-187.5 891,-187.5 891,-168.5 796,-168.5"/>
<text text-anchor="middle" x="843.5" y="-175.5" font-family="Helvetica,sans-Serif" font-size="10.00">vulkan/vulkan.hpp</text>
</a>
</g>
</g>
<!-- Node14&#45;&gt;Node16 -->
<g id="edge54" class="edge">
<title>Node14&#45;&gt;Node16</title>
<path fill="none" stroke="midnightblue" d="M580.17,-616.5C560.7,-599.44 520.5,-558.91 520.5,-515 520.5,-515 520.5,-515 520.5,-457 520.5,-307.37 722.09,-220.65 806.75,-190.83"/>
<polygon fill="midnightblue" stroke="midnightblue" points="807.93,-194.13 816.24,-187.56 805.64,-187.51 807.93,-194.13"/>
</g>
<!-- Node25 -->
<g id="node25" class="node">
<title>Node25</title>
<g id="a_node25"><a xlink:href="_image_view_8hpp.html" target="_top" xlink:title=" ">
<polygon fill="none" stroke="black" points="549,-448.5 549,-467.5 632,-467.5 632,-448.5 549,-448.5"/>
<text text-anchor="middle" x="590.5" y="-455.5" font-family="Helvetica,sans-Serif" font-size="10.00">ImageView.hpp</text>
</a>
</g>
</g>
<!-- Node14&#45;&gt;Node25 -->
<g id="edge53" class="edge">
<title>Node14&#45;&gt;Node25</title>
<path fill="none" stroke="midnightblue" d="M590.5,-616.08C590.5,-589.95 590.5,-513.21 590.5,-477.58"/>
<polygon fill="midnightblue" stroke="midnightblue" points="594,-477.57 590.5,-467.57 587,-477.57 594,-477.57"/>
</g>
<!-- Node15&#45;&gt;Node13 -->
<g id="edge22" class="edge">
<title>Node15&#45;&gt;Node13</title>
<path fill="none" stroke="midnightblue" d="M788.64,-567.7C661.23,-563.1 300.9,-543.54 215.5,-468 192.96,-448.06 196.5,-433.1 196.5,-403 196.5,-403 196.5,-403 196.5,-233 196.5,-174.11 375.31,-143.56 480.54,-130.67"/>
<polygon fill="midnightblue" stroke="midnightblue" points="480.98,-134.14 490.49,-129.48 480.14,-127.19 480.98,-134.14"/>
</g>
<!-- Node15&#45;&gt;Node16 -->
<g id="edge21" class="edge">
<title>Node15&#45;&gt;Node16</title>
<path fill="none" stroke="midnightblue" d="M833.72,-560.49C834.97,-511.84 841.2,-268.61 843.01,-198.15"/>
<polygon fill="midnightblue" stroke="midnightblue" points="846.52,-197.82 843.28,-187.73 839.52,-197.64 846.52,-197.82"/>
</g>
<!-- Node17 -->
<g id="node17" class="node">
<title>Node17</title>
<g id="a_node17"><a xlink:href="_swap_chain_8hpp.html" target="_top" xlink:title=" ">
<polygon fill="none" stroke="black" points="864.5,-504.5 864.5,-523.5 950.5,-523.5 950.5,-504.5 864.5,-504.5"/>
<text text-anchor="middle" x="907.5" y="-511.5" font-family="Helvetica,sans-Serif" font-size="10.00">SwapChain.hpp</text>
</a>
</g>
</g>
<!-- Node15&#45;&gt;Node17 -->
<g id="edge23" class="edge">
<title>Node15&#45;&gt;Node17</title>
<path fill="none" stroke="midnightblue" d="M845.39,-560.32C856.65,-552.11 873.79,-539.6 887.21,-529.81"/>
<polygon fill="midnightblue" stroke="midnightblue" points="889.38,-532.56 895.39,-523.83 885.25,-526.9 889.38,-532.56"/>
</g>
<!-- Node17&#45;&gt;Node13 -->
<g id="edge48" class="edge">
<title>Node17&#45;&gt;Node13</title>
<path fill="none" stroke="midnightblue" d="M864.4,-511.49C752.16,-507.21 457.01,-493.63 421.5,-468 373.89,-433.64 368.5,-405.71 368.5,-347 368.5,-347 368.5,-347 368.5,-233 368.5,-174.94 436.31,-146.91 490.26,-133.81"/>
<polygon fill="midnightblue" stroke="midnightblue" points="491.19,-137.18 500.15,-131.53 489.62,-130.36 491.19,-137.18"/>
</g>
<!-- Node17&#45;&gt;Node16 -->
<g id="edge24" class="edge">
<title>Node17&#45;&gt;Node16</title>
<path fill="none" stroke="midnightblue" d="M904.02,-504.5C897.11,-487.3 881.53,-447.04 872.5,-412 853.59,-338.63 849.97,-319.49 843.5,-244 842.17,-228.52 842.27,-210.89 842.65,-197.9"/>
<polygon fill="midnightblue" stroke="midnightblue" points="846.15,-197.97 843.02,-187.85 839.15,-197.72 846.15,-197.97"/>
</g>
<!-- Node18 -->
<g id="node18" class="node">
<title>Node18</title>
<g id="a_node18"><a xlink:href="_device_8hpp.html" target="_top" xlink:title=" ">
<polygon fill="none" stroke="black" points="881.5,-392.5 881.5,-411.5 947.5,-411.5 947.5,-392.5 881.5,-392.5"/>
<text text-anchor="middle" x="914.5" y="-399.5" font-family="Helvetica,sans-Serif" font-size="10.00">Device.hpp</text>
</a>
</g>
</g>
<!-- Node17&#45;&gt;Node18 -->
<g id="edge25" class="edge">
<title>Node17&#45;&gt;Node18</title>
<path fill="none" stroke="midnightblue" d="M908.05,-504.37C909.18,-486.62 911.78,-445.67 913.32,-421.6"/>
<polygon fill="midnightblue" stroke="midnightblue" points="916.81,-421.79 913.95,-411.59 909.83,-421.35 916.81,-421.79"/>
</g>
<!-- Node17&#45;&gt;Node25 -->
<g id="edge49" class="edge">
<title>Node17&#45;&gt;Node25</title>
<path fill="none" stroke="midnightblue" d="M864.18,-505.77C813.52,-497.29 726.88,-482.72 642.28,-468.13"/>
<polygon fill="midnightblue" stroke="midnightblue" points="642.69,-464.64 632.24,-466.39 641.5,-471.54 642.69,-464.64"/>
</g>
<!-- Node18&#45;&gt;Node13 -->
<g id="edge28" class="edge">
<title>Node18&#45;&gt;Node13</title>
<path fill="none" stroke="midnightblue" d="M903.36,-392.38C852.27,-352.81 640.04,-188.46 574.72,-137.88"/>
<polygon fill="midnightblue" stroke="midnightblue" points="576.56,-134.88 566.51,-131.52 572.27,-140.41 576.56,-134.88"/>
</g>
<!-- Node18&#45;&gt;Node16 -->
<g id="edge27" class="edge">
<title>Node18&#45;&gt;Node16</title>
<path fill="none" stroke="midnightblue" d="M906.45,-392.4C898.87,-383.83 887.77,-369.96 881.5,-356 857.08,-301.63 847.99,-230.68 844.91,-197.55"/>
<polygon fill="midnightblue" stroke="midnightblue" points="848.39,-197.17 844.06,-187.5 841.42,-197.76 848.39,-197.17"/>
</g>
<!-- Node19 -->
<g id="node19" class="node">
<title>Node19</title>
<g id="a_node19"><a xlink:title=" ">
<polygon fill="none" stroke="#bfbfbf" points="890.5,-336.5 890.5,-355.5 930.5,-355.5 930.5,-336.5 890.5,-336.5"/>
<text text-anchor="middle" x="910.5" y="-343.5" font-family="Helvetica,sans-Serif" font-size="10.00">utility</text>
</a>
</g>
</g>
<!-- Node18&#45;&gt;Node19 -->
<g id="edge26" class="edge">
<title>Node18&#45;&gt;Node19</title>
<path fill="none" stroke="midnightblue" d="M913.84,-392.08C913.32,-385.01 912.56,-374.86 911.91,-365.99"/>
<polygon fill="midnightblue" stroke="midnightblue" points="915.38,-365.47 911.15,-355.75 908.4,-365.98 915.38,-365.47"/>
</g>
<!-- Node20 -->
<g id="node20" class="node">
<title>Node20</title>
<g id="a_node20"><a xlink:href="_instance_8hpp.html" target="_top" xlink:title=" ">
<polygon fill="none" stroke="black" points="1157,-224.5 1157,-243.5 1230,-243.5 1230,-224.5 1157,-224.5"/>
<text text-anchor="middle" x="1193.5" y="-231.5" font-family="Helvetica,sans-Serif" font-size="10.00">Instance.hpp</text>
</a>
</g>
</g>
<!-- Node18&#45;&gt;Node20 -->
<g id="edge29" class="edge">
<title>Node18&#45;&gt;Node20</title>
<path fill="none" stroke="midnightblue" d="M947.68,-396.61C983.12,-390.93 1040.17,-378.94 1084.5,-356 1118.97,-338.17 1125.79,-329.07 1151.5,-300 1164.54,-285.26 1176.4,-266.11 1184.17,-252.42"/>
<polygon fill="midnightblue" stroke="midnightblue" points="1187.29,-254.01 1189.06,-243.56 1181.17,-250.63 1187.29,-254.01"/>
</g>
<!-- Node21 -->
<g id="node21" class="node">
<title>Node21</title>
<g id="a_node21"><a xlink:href="_requestable_item_8hpp.html" target="_top" xlink:title=" ">
<polygon fill="none" stroke="black" points="1310.5,-168.5 1310.5,-187.5 1420.5,-187.5 1420.5,-168.5 1310.5,-168.5"/>
<text text-anchor="middle" x="1365.5" y="-175.5" font-family="Helvetica,sans-Serif" font-size="10.00">RequestableItem.hpp</text>
</a>
</g>
</g>
<!-- Node18&#45;&gt;Node21 -->
<g id="edge46" class="edge">
<title>Node18&#45;&gt;Node21</title>
<path fill="none" stroke="midnightblue" d="M947.52,-395.85C987.52,-389.09 1056.6,-375.72 1113.5,-356 1222.82,-318.12 1274.77,-333.16 1348.5,-244 1359.29,-230.95 1363.31,-211.79 1364.77,-197.66"/>
<polygon fill="midnightblue" stroke="midnightblue" points="1368.26,-197.83 1365.47,-187.61 1361.28,-197.34 1368.26,-197.83"/>
</g>
<!-- Node22 -->
<g id="node22" class="node">
<title>Node22</title>
<g id="a_node22"><a xlink:href="_physical_device_8hpp.html" target="_top" xlink:title=" ">
<polygon fill="none" stroke="black" points="948.5,-336.5 948.5,-355.5 1052.5,-355.5 1052.5,-336.5 948.5,-336.5"/>
<text text-anchor="middle" x="1000.5" y="-343.5" font-family="Helvetica,sans-Serif" font-size="10.00">PhysicalDevice.hpp</text>
</a>
</g>
</g>
<!-- Node18&#45;&gt;Node22 -->
<g id="edge37" class="edge">
<title>Node18&#45;&gt;Node22</title>
<path fill="none" stroke="midnightblue" d="M928.32,-392.32C941.73,-383.9 962.32,-370.97 978.09,-361.07"/>
<polygon fill="midnightblue" stroke="midnightblue" points="980.11,-363.94 986.72,-355.65 976.39,-358.01 980.11,-363.94"/>
</g>
<!-- Node24 -->
<g id="node24" class="node">
<title>Node24</title>
<g id="a_node24"><a xlink:href="_surface_8hpp.html" target="_top" xlink:title=" ">
<polygon fill="none" stroke="black" points="1073,-280.5 1073,-299.5 1142,-299.5 1142,-280.5 1073,-280.5"/>
<text text-anchor="middle" x="1107.5" y="-287.5" font-family="Helvetica,sans-Serif" font-size="10.00">Surface.hpp</text>
</a>
</g>
</g>
<!-- Node18&#45;&gt;Node24 -->
<g id="edge47" class="edge">
<title>Node18&#45;&gt;Node24</title>
<path fill="none" stroke="midnightblue" d="M947.61,-397.13C979.34,-392.06 1027.33,-380.71 1061.5,-356 1078.43,-343.76 1091.4,-323.32 1099.19,-308.63"/>
<polygon fill="midnightblue" stroke="midnightblue" points="1102.39,-310.05 1103.74,-299.54 1096.13,-306.92 1102.39,-310.05"/>
</g>
<!-- Node20&#45;&gt;Node3 -->
<g id="edge31" class="edge">
<title>Node20&#45;&gt;Node3</title>
<path fill="none" stroke="midnightblue" d="M1177.48,-224.31C1127.29,-197.08 972.83,-113.29 912.25,-80.43"/>
<polygon fill="midnightblue" stroke="midnightblue" points="913.82,-77.3 903.36,-75.61 910.48,-83.45 913.82,-77.3"/>
</g>
<!-- Node20&#45;&gt;Node10 -->
<g id="edge36" class="edge">
<title>Node20&#45;&gt;Node10</title>
<path fill="none" stroke="midnightblue" d="M1195.98,-224.08C1197.99,-216.85 1200.89,-206.41 1203.39,-197.4"/>
<polygon fill="midnightblue" stroke="midnightblue" points="1206.76,-198.32 1206.07,-187.75 1200.02,-196.45 1206.76,-198.32"/>
</g>
<!-- Node20&#45;&gt;Node11 -->
<g id="edge30" class="edge">
<title>Node20&#45;&gt;Node11</title>
<path fill="none" stroke="midnightblue" d="M1207,-224.37C1236.51,-205.49 1307.04,-160.38 1343.24,-137.24"/>
<polygon fill="midnightblue" stroke="midnightblue" points="1345.53,-139.93 1352.07,-131.59 1341.76,-134.03 1345.53,-139.93"/>
</g>
<!-- Node20&#45;&gt;Node13 -->
<g id="edge33" class="edge">
<title>Node20&#45;&gt;Node13</title>
<path fill="none" stroke="midnightblue" d="M1172.2,-224.43C1149.83,-215.43 1113.66,-200.81 1082.5,-188 1061.12,-179.21 1056.93,-173.59 1034.5,-168 894.92,-133.22 726.35,-124.87 630.97,-123.13"/>
<polygon fill="midnightblue" stroke="midnightblue" points="630.9,-119.63 620.84,-122.96 630.78,-126.63 630.9,-119.63"/>
</g>
<!-- Node20&#45;&gt;Node16 -->
<g id="edge32" class="edge">
<title>Node20&#45;&gt;Node16</title>
<path fill="none" stroke="midnightblue" d="M1156.71,-227.32C1095.9,-217.94 973.97,-199.13 901.48,-187.95"/>
<polygon fill="midnightblue" stroke="midnightblue" points="901.58,-184.42 891.16,-186.35 900.51,-191.34 901.58,-184.42"/>
</g>
<!-- Node20&#45;&gt;Node21 -->
<g id="edge34" class="edge">
<title>Node20&#45;&gt;Node21</title>
<path fill="none" stroke="midnightblue" d="M1220.75,-224.44C1249.94,-215.28 1296.42,-200.69 1328.81,-190.52"/>
<polygon fill="midnightblue" stroke="midnightblue" points="1329.88,-193.85 1338.37,-187.52 1327.78,-187.17 1329.88,-193.85"/>
</g>
<!-- Node21&#45;&gt;Node11 -->
<g id="edge35" class="edge">
<title>Node21&#45;&gt;Node11</title>
<path fill="none" stroke="midnightblue" d="M1365.5,-168.08C1365.5,-161.01 1365.5,-150.86 1365.5,-141.99"/>
<polygon fill="midnightblue" stroke="midnightblue" points="1369,-141.75 1365.5,-131.75 1362,-141.75 1369,-141.75"/>
</g>
<!-- Node22&#45;&gt;Node16 -->
<g id="edge39" class="edge">
<title>Node22&#45;&gt;Node16</title>
<path fill="none" stroke="midnightblue" d="M977.72,-336.38C960.17,-328.85 936.17,-316.54 919.5,-300 891.95,-272.66 897.57,-256.59 876.5,-224 870.32,-214.44 862.86,-204.18 856.6,-195.87"/>
<polygon fill="midnightblue" stroke="midnightblue" points="859.25,-193.57 850.39,-187.75 853.68,-197.82 859.25,-193.57"/>
</g>
<!-- Node22&#45;&gt;Node21 -->
<g id="edge45" class="edge">
<title>Node22&#45;&gt;Node21</title>
<path fill="none" stroke="midnightblue" d="M1036.6,-336.46C1067.65,-328.59 1113.32,-315.77 1151.5,-300 1200.02,-279.95 1209.78,-269.8 1255.5,-244 1285.93,-226.83 1320.55,-206.18 1342.69,-192.84"/>
<polygon fill="midnightblue" stroke="midnightblue" points="1344.62,-195.76 1351.37,-187.6 1341,-189.77 1344.62,-195.76"/>
</g>
<!-- Node23 -->
<g id="node23" class="node">
<title>Node23</title>
<g id="a_node23"><a xlink:title=" ">
<polygon fill="none" stroke="#bfbfbf" points="928.5,-280.5 928.5,-299.5 978.5,-299.5 978.5,-280.5 928.5,-280.5"/>
<text text-anchor="middle" x="953.5" y="-287.5" font-family="Helvetica,sans-Serif" font-size="10.00">optional</text>
</a>
</g>
</g>
<!-- Node22&#45;&gt;Node23 -->
<g id="edge38" class="edge">
<title>Node22&#45;&gt;Node23</title>
<path fill="none" stroke="midnightblue" d="M992.74,-336.08C985.96,-328.3 975.96,-316.8 967.74,-307.37"/>
<polygon fill="midnightblue" stroke="midnightblue" points="970.32,-305 961.12,-299.75 965.04,-309.59 970.32,-305"/>
</g>
<!-- Node22&#45;&gt;Node24 -->
<g id="edge40" class="edge">
<title>Node22&#45;&gt;Node24</title>
<path fill="none" stroke="midnightblue" d="M1017.69,-336.32C1034.85,-327.66 1061.45,-314.24 1081.25,-304.25"/>
<polygon fill="midnightblue" stroke="midnightblue" points="1083,-307.28 1090.35,-299.65 1079.85,-301.04 1083,-307.28"/>
</g>
<!-- Node24&#45;&gt;Node10 -->
<g id="edge42" class="edge">
<title>Node24&#45;&gt;Node10</title>
<path fill="none" stroke="midnightblue" d="M1142.24,-281.92C1177.33,-273.99 1227.98,-260.1 1239.5,-244 1250.57,-228.53 1237.53,-208.49 1225.13,-194.78"/>
<polygon fill="midnightblue" stroke="midnightblue" points="1227.57,-192.26 1218.09,-187.52 1222.54,-197.13 1227.57,-192.26"/>
</g>
<!-- Node24&#45;&gt;Node13 -->
<g id="edge43" class="edge">
<title>Node24&#45;&gt;Node13</title>
<path fill="none" stroke="midnightblue" d="M1097.95,-280.41C1082.9,-267.16 1052.39,-241.43 1023.5,-224 972.07,-192.97 958.25,-184.51 900.5,-168 809.86,-142.09 701.5,-131.04 630.73,-126.37"/>
<polygon fill="midnightblue" stroke="midnightblue" points="630.77,-122.87 620.56,-125.73 630.32,-129.85 630.77,-122.87"/>
</g>
<!-- Node24&#45;&gt;Node16 -->
<g id="edge41" class="edge">
<title>Node24&#45;&gt;Node16</title>
<path fill="none" stroke="midnightblue" d="M1094.28,-280.44C1073.07,-266.99 1029.85,-240.73 990.5,-224 957.32,-209.89 918.23,-198.14 888.71,-190.19"/>
<polygon fill="midnightblue" stroke="midnightblue" points="889.25,-186.72 878.69,-187.54 887.46,-193.48 889.25,-186.72"/>
</g>
<!-- Node24&#45;&gt;Node20 -->
<g id="edge44" class="edge">
<title>Node24&#45;&gt;Node20</title>
<path fill="none" stroke="midnightblue" d="M1121.32,-280.32C1134.73,-271.9 1155.32,-258.97 1171.09,-249.07"/>
<polygon fill="midnightblue" stroke="midnightblue" points="1173.11,-251.94 1179.72,-243.65 1169.39,-246.01 1173.11,-251.94"/>
</g>
<!-- Node25&#45;&gt;Node13 -->
<g id="edge50" class="edge">
<title>Node25&#45;&gt;Node13</title>
<path fill="none" stroke="midnightblue" d="M589.6,-448.41C584.99,-404.38 563.96,-203.74 557.44,-141.48"/>
<polygon fill="midnightblue" stroke="midnightblue" points="560.92,-141.12 556.39,-131.54 553.96,-141.85 560.92,-141.12"/>
</g>
<!-- Node25&#45;&gt;Node16 -->
<g id="edge52" class="edge">
<title>Node25&#45;&gt;Node16</title>
<path fill="none" stroke="midnightblue" d="M594.7,-448.26C611.03,-415.06 673.44,-295.06 755.5,-224 771.59,-210.07 792.75,-199.07 810.28,-191.44"/>
<polygon fill="midnightblue" stroke="midnightblue" points="811.72,-194.63 819.6,-187.55 809.02,-188.17 811.72,-194.63"/>
</g>
<!-- Node25&#45;&gt;Node18 -->
<g id="edge51" class="edge">
<title>Node25&#45;&gt;Node18</title>
<path fill="none" stroke="midnightblue" d="M632.24,-449.59C635.37,-449.05 638.49,-448.51 641.5,-448 722.68,-434.15 817.58,-418.66 871.4,-409.95"/>
<polygon fill="midnightblue" stroke="midnightblue" points="871.97,-413.4 881.28,-408.35 870.85,-406.49 871.97,-413.4"/>
</g>
<!-- Node26&#45;&gt;Node13 -->
<g id="edge57" class="edge">
<title>Node26&#45;&gt;Node13</title>
<path fill="none" stroke="midnightblue" d="M1068.75,-621.82C1139.13,-614.45 1239.5,-590.68 1239.5,-515 1239.5,-515 1239.5,-515 1239.5,-401 1239.5,-334.5 1201.22,-324.16 1151.5,-280 1072.71,-210.02 1043.33,-198.66 942.5,-168 837.52,-136.08 710.19,-126.54 630.99,-123.84"/>
<polygon fill="midnightblue" stroke="midnightblue" points="630.73,-120.33 620.62,-123.52 630.51,-127.33 630.73,-120.33"/>
</g>
<!-- Node26&#45;&gt;Node15 -->
<g id="edge62" class="edge">
<title>Node26&#45;&gt;Node15</title>
<path fill="none" stroke="midnightblue" d="M974.88,-616.44C946.49,-607.32 901.36,-592.81 869.75,-582.65"/>
<polygon fill="midnightblue" stroke="midnightblue" points="870.59,-579.24 860,-579.52 868.44,-585.91 870.59,-579.24"/>
</g>
<!-- Node26&#45;&gt;Node16 -->
<g id="edge56" class="edge">
<title>Node26&#45;&gt;Node16</title>
<path fill="none" stroke="midnightblue" d="M1061.51,-616.45C1118.16,-604.59 1194.5,-577.09 1194.5,-515 1194.5,-515 1194.5,-515 1194.5,-401 1194.5,-392.63 957.83,-228.05 950.5,-224 926.94,-210.99 898.84,-199.31 877.35,-191.11"/>
<polygon fill="midnightblue" stroke="midnightblue" points="878.58,-187.83 867.98,-187.6 876.12,-194.39 878.58,-187.83"/>
</g>
<!-- Node26&#45;&gt;Node17 -->
<g id="edge73" class="edge">
<title>Node26&#45;&gt;Node17</title>
<path fill="none" stroke="midnightblue" d="M994.12,-616.37C978.47,-598.05 941.72,-555.05 921.48,-531.36"/>
<polygon fill="midnightblue" stroke="midnightblue" points="924,-528.92 914.84,-523.59 918.68,-533.47 924,-528.92"/>
</g>
<!-- Node27 -->
<g id="node27" class="node">
<title>Node27</title>
<g id="a_node27"><a xlink:href="_pipeline_layout_8hpp.html" target="_top" xlink:title=" ">
<polygon fill="none" stroke="black" points="948,-448.5 948,-467.5 1047,-467.5 1047,-448.5 948,-448.5"/>
<text text-anchor="middle" x="997.5" y="-455.5" font-family="Helvetica,sans-Serif" font-size="10.00">PipelineLayout.hpp</text>
</a>
</g>
</g>
<!-- Node26&#45;&gt;Node27 -->
<g id="edge58" class="edge">
<title>Node26&#45;&gt;Node27</title>
<path fill="none" stroke="midnightblue" d="M1001.28,-616.08C1000.66,-589.95 998.81,-513.21 997.95,-477.58"/>
<polygon fill="midnightblue" stroke="midnightblue" points="1001.45,-477.48 997.71,-467.57 994.45,-477.65 1001.45,-477.48"/>
</g>
<!-- Node28 -->
<g id="node28" class="node">
<title>Node28</title>
<g id="a_node28"><a xlink:href="_shader_8hpp.html" target="_top" xlink:title=" ">
<polygon fill="none" stroke="black" points="1340,-448.5 1340,-467.5 1405,-467.5 1405,-448.5 1340,-448.5"/>
<text text-anchor="middle" x="1372.5" y="-455.5" font-family="Helvetica,sans-Serif" font-size="10.00">Shader.hpp</text>
</a>
</g>
</g>
<!-- Node26&#45;&gt;Node28 -->
<g id="edge63" class="edge">
<title>Node26&#45;&gt;Node28</title>
<path fill="none" stroke="midnightblue" d="M1068.76,-624.01C1121.7,-620.71 1195.91,-610.37 1253.5,-580 1301.53,-554.68 1342.07,-503.12 1361.02,-476.21"/>
<polygon fill="midnightblue" stroke="midnightblue" points="1364.02,-478.03 1366.8,-467.8 1358.25,-474.06 1364.02,-478.03"/>
</g>
<!-- Node27&#45;&gt;Node13 -->
<g id="edge61" class="edge">
<title>Node27&#45;&gt;Node13</title>
<path fill="none" stroke="midnightblue" d="M962.72,-448.47C936.69,-441.16 900.85,-429.08 872.5,-412 738.3,-331.12 610.56,-187.97 569.31,-139.54"/>
<polygon fill="midnightblue" stroke="midnightblue" points="571.76,-137.02 562.64,-131.64 566.42,-141.53 571.76,-137.02"/>
</g>
<!-- Node27&#45;&gt;Node16 -->
<g id="edge59" class="edge">
<title>Node27&#45;&gt;Node16</title>
<path fill="none" stroke="midnightblue" d="M1008.39,-448.27C1031.7,-428.47 1082.66,-378.56 1061.5,-336 1040.82,-294.42 920.44,-222.55 867.95,-192.66"/>
<polygon fill="midnightblue" stroke="midnightblue" points="869.41,-189.46 858.98,-187.58 865.96,-195.55 869.41,-189.46"/>
</g>
<!-- Node27&#45;&gt;Node18 -->
<g id="edge60" class="edge">
<title>Node27&#45;&gt;Node18</title>
<path fill="none" stroke="midnightblue" d="M984.16,-448.32C971.34,-439.98 951.72,-427.21 936.56,-417.35"/>
<polygon fill="midnightblue" stroke="midnightblue" points="938.09,-414.17 927.8,-411.65 934.28,-420.04 938.09,-414.17"/>
</g>
<!-- Node28&#45;&gt;Node3 -->
<g id="edge66" class="edge">
<title>Node28&#45;&gt;Node3</title>
<path fill="none" stroke="midnightblue" d="M1384.27,-448.39C1413.4,-426 1486.5,-362.67 1486.5,-291 1486.5,-291 1486.5,-291 1486.5,-177 1486.5,-127.3 1442.12,-129.24 1395.5,-112 1307.56,-79.47 1017.38,-69.96 919.82,-67.65"/>
<polygon fill="midnightblue" stroke="midnightblue" points="919.76,-64.15 909.68,-67.42 919.6,-71.15 919.76,-64.15"/>
</g>
<!-- Node28&#45;&gt;Node8 -->
<g id="edge64" class="edge">
<title>Node28&#45;&gt;Node8</title>
<path fill="none" stroke="midnightblue" d="M1405.19,-457.28C1473.79,-455.99 1626.5,-442.39 1626.5,-347 1626.5,-347 1626.5,-347 1626.5,-121 1626.5,-17.64 1239.88,-10.49 1122.74,-10.69"/>
<polygon fill="midnightblue" stroke="midnightblue" points="1122.56,-7.19 1112.57,-10.73 1122.59,-14.19 1122.56,-7.19"/>
</g>
<!-- Node28&#45;&gt;Node11 -->
<g id="edge65" class="edge">
<title>Node28&#45;&gt;Node11</title>
<path fill="none" stroke="midnightblue" d="M1378.02,-448.39C1400.53,-412.1 1481.82,-268.75 1429.5,-168 1422.2,-153.94 1408.25,-143.34 1395.24,-135.98"/>
<polygon fill="midnightblue" stroke="midnightblue" points="1396.53,-132.7 1386.04,-131.19 1393.29,-138.91 1396.53,-132.7"/>
</g>
<!-- Node28&#45;&gt;Node13 -->
<g id="edge72" class="edge">
<title>Node28&#45;&gt;Node13</title>
<path fill="none" stroke="midnightblue" d="M1367.22,-448.23C1356.77,-430.04 1334.5,-386.6 1334.5,-347 1334.5,-347 1334.5,-347 1334.5,-289 1334.5,-237.84 1285.3,-246.79 1239.5,-224 1204.46,-206.56 1110.82,-175.98 1072.5,-168 917.72,-135.79 732.22,-126.59 630.84,-123.99"/>
<polygon fill="midnightblue" stroke="midnightblue" points="630.78,-120.49 620.69,-123.75 630.61,-127.49 630.78,-120.49"/>
</g>
<!-- Node28&#45;&gt;Node16 -->
<g id="edge67" class="edge">
<title>Node28&#45;&gt;Node16</title>
<path fill="none" stroke="midnightblue" d="M1362.37,-448.29C1325.37,-416.58 1197.35,-307.72 1151.5,-280 1098.36,-247.87 1082.27,-244.04 1023.5,-224 981.42,-209.65 932.39,-197.69 896.14,-189.72"/>
<polygon fill="midnightblue" stroke="midnightblue" points="896.78,-186.28 886.27,-187.58 895.3,-193.12 896.78,-186.28"/>
</g>
<!-- Node28&#45;&gt;Node18 -->
<g id="edge71" class="edge">
<title>Node28&#45;&gt;Node18</title>
<path fill="none" stroke="midnightblue" d="M1339.93,-453.16C1258.95,-443.61 1048.52,-418.8 957.5,-408.07"/>
<polygon fill="midnightblue" stroke="midnightblue" points="957.86,-404.59 947.52,-406.89 957.04,-411.54 957.86,-404.59"/>
</g>
<!-- Node29 -->
<g id="node29" class="node">
<title>Node29</title>
<g id="a_node29"><a xlink:href="_asset_8hpp.html" target="_top" xlink:title=" ">
<polygon fill="none" stroke="black" points="1515,-168.5 1515,-187.5 1598,-187.5 1598,-168.5 1515,-168.5"/>
<text text-anchor="middle" x="1556.5" y="-175.5" font-family="Helvetica,sans-Serif" font-size="10.00">york/Asset.hpp</text>
</a>
</g>
</g>
<!-- Node28&#45;&gt;Node29 -->
<g id="edge68" class="edge">
<title>Node28&#45;&gt;Node29</title>
<path fill="none" stroke="midnightblue" d="M1405.29,-450.92C1454.18,-439.75 1540.5,-410.97 1540.5,-347 1540.5,-347 1540.5,-347 1540.5,-289 1540.5,-256.63 1547.37,-219.44 1552.11,-197.66"/>
<polygon fill="midnightblue" stroke="midnightblue" points="1555.55,-198.3 1554.34,-187.78 1548.72,-196.76 1555.55,-198.3"/>
</g>
<!-- Node29&#45;&gt;Node3 -->
<g id="edge70" class="edge">
<title>Node29&#45;&gt;Node3</title>
<path fill="none" stroke="midnightblue" d="M1552.04,-168.34C1543.99,-153.75 1525.51,-124.59 1500.5,-112 1448.45,-85.79 1038.94,-71.55 919.87,-67.93"/>
<polygon fill="midnightblue" stroke="midnightblue" points="919.69,-64.42 909.59,-67.62 919.48,-71.42 919.69,-64.42"/>
</g>
<!-- Node29&#45;&gt;Node11 -->
<g id="edge69" class="edge">
<title>Node29&#45;&gt;Node11</title>
<path fill="none" stroke="midnightblue" d="M1526.24,-168.44C1490.62,-158.37 1431.82,-141.75 1396.07,-131.64"/>
<polygon fill="midnightblue" stroke="midnightblue" points="1396.78,-128.21 1386.2,-128.85 1394.87,-134.94 1396.78,-128.21"/>
</g>
<!-- Node30&#45;&gt;Node13 -->
<g id="edge76" class="edge">
<title>Node30&#45;&gt;Node13</title>
<path fill="none" stroke="midnightblue" d="M725.04,-448.35C705.6,-425.49 652.7,-360.99 620.5,-300 591.52,-245.12 569.82,-174.46 560.51,-141.48"/>
<polygon fill="midnightblue" stroke="midnightblue" points="563.87,-140.53 557.83,-131.82 557.13,-142.39 563.87,-140.53"/>
</g>
<!-- Node30&#45;&gt;Node16 -->
<g id="edge75" class="edge">
<title>Node30&#45;&gt;Node16</title>
<path fill="none" stroke="midnightblue" d="M731.28,-448.23C727.16,-414.94 716.93,-294.65 772.5,-224 783.31,-210.26 799.54,-199.53 813.76,-192"/>
<polygon fill="midnightblue" stroke="midnightblue" points="815.36,-195.11 822.74,-187.51 812.23,-188.85 815.36,-195.11"/>
</g>
<!-- Node30&#45;&gt;Node18 -->
<g id="edge77" class="edge">
<title>Node30&#45;&gt;Node18</title>
<path fill="none" stroke="midnightblue" d="M761.34,-448.44C792.36,-439.24 841.83,-424.56 876.12,-414.39"/>
<polygon fill="midnightblue" stroke="midnightblue" points="877.21,-417.72 885.8,-411.52 875.21,-411.01 877.21,-417.72"/>
</g>
<!-- Node31&#45;&gt;Node13 -->
<g id="edge79" class="edge">
<title>Node31&#45;&gt;Node13</title>
<path fill="none" stroke="midnightblue" d="M301.66,-448.22C306.03,-429.66 315.5,-385.02 315.5,-347 315.5,-347 315.5,-347 315.5,-233 315.5,-159.5 409.68,-134.92 480.04,-126.81"/>
<polygon fill="midnightblue" stroke="midnightblue" points="480.66,-130.26 490.24,-125.73 479.92,-123.3 480.66,-130.26"/>
</g>
<!-- Node31&#45;&gt;Node16 -->
<g id="edge81" class="edge">
<title>Node31&#45;&gt;Node16</title>
<path fill="none" stroke="midnightblue" d="M306.99,-448.43C337.84,-413.78 459.53,-282.99 589.5,-224 652.58,-195.37 732.17,-184.91 785.28,-181.11"/>
<polygon fill="midnightblue" stroke="midnightblue" points="785.79,-184.59 795.54,-180.44 785.33,-177.6 785.79,-184.59"/>
</g>
<!-- Node31&#45;&gt;Node18 -->
<g id="edge80" class="edge">
<title>Node31&#45;&gt;Node18</title>
<path fill="none" stroke="midnightblue" d="M374.3,-450.43C504.28,-439.02 767.86,-415.88 871.38,-406.79"/>
<polygon fill="midnightblue" stroke="midnightblue" points="871.81,-410.26 881.47,-405.9 871.2,-403.29 871.81,-410.26"/>
</g>
<!-- Node32&#45;&gt;Node14 -->
<g id="edge89" class="edge">
<title>Node32&#45;&gt;Node14</title>
<path fill="none" stroke="midnightblue" d="M590.5,-672.08C590.5,-665.01 590.5,-654.86 590.5,-645.99"/>
<polygon fill="midnightblue" stroke="midnightblue" points="594,-645.75 590.5,-635.75 587,-645.75 594,-645.75"/>
</g>
<!-- Node32&#45;&gt;Node17 -->
<g id="edge90" class="edge">
<title>Node32&#45;&gt;Node17</title>
<path fill="none" stroke="midnightblue" d="M664.6,-674.61C731.59,-664.97 828.5,-640.76 887.5,-580 899.44,-567.7 904.27,-548.45 906.21,-534.08"/>
<polygon fill="midnightblue" stroke="midnightblue" points="909.73,-534.13 907.24,-523.83 902.76,-533.44 909.73,-534.13"/>
</g>
<!-- Node32&#45;&gt;Node30 -->
<g id="edge84" class="edge">
<title>Node32&#45;&gt;Node30</title>
<path fill="none" stroke="midnightblue" d="M618.59,-672.39C637.15,-665.35 660.7,-653.66 675.5,-636 678.15,-632.84 712.83,-522.14 726.76,-477.44"/>
<polygon fill="midnightblue" stroke="midnightblue" points="730.12,-478.42 729.76,-467.83 723.44,-476.34 730.12,-478.42"/>
</g>
<!-- Node32&#45;&gt;Node31 -->
<g id="edge83" class="edge">
<title>Node32&#45;&gt;Node31</title>
<path fill="none" stroke="midnightblue" d="M565.24,-672.42C544.06,-664.61 513.51,-651.89 489.5,-636 415.68,-587.15 343.32,-509.1 313.61,-475.39"/>
<polygon fill="midnightblue" stroke="midnightblue" points="316.22,-473.05 307,-467.82 310.94,-477.65 316.22,-473.05"/>
</g>
<!-- Node33 -->
<g id="node33" class="node">
<title>Node33</title>
<g id="a_node33"><a xlink:href="_fence_8hpp.html" target="_top" xlink:title=" ">
<polygon fill="none" stroke="black" points="430.5,-448.5 430.5,-467.5 492.5,-467.5 492.5,-448.5 430.5,-448.5"/>
<text text-anchor="middle" x="461.5" y="-455.5" font-family="Helvetica,sans-Serif" font-size="10.00">Fence.hpp</text>
</a>
</g>
</g>
<!-- Node32&#45;&gt;Node33 -->
<g id="edge85" class="edge">
<title>Node32&#45;&gt;Node33</title>
<path fill="none" stroke="midnightblue" d="M561.2,-672.4C542.61,-665.47 519.49,-653.89 505.5,-636 468.17,-588.27 462.06,-512.99 461.36,-478.02"/>
<polygon fill="midnightblue" stroke="midnightblue" points="464.86,-477.78 461.29,-467.81 457.86,-477.83 464.86,-477.78"/>
</g>
<!-- Node33&#45;&gt;Node13 -->
<g id="edge87" class="edge">
<title>Node33&#45;&gt;Node13</title>
<path fill="none" stroke="midnightblue" d="M462.25,-448.08C463.43,-435.48 466.04,-411.78 470.5,-392 492.25,-295.54 532.56,-183.92 548.63,-141.04"/>
<polygon fill="midnightblue" stroke="midnightblue" points="551.91,-142.27 552.17,-131.68 545.36,-139.8 551.91,-142.27"/>
</g>
<!-- Node33&#45;&gt;Node16 -->
<g id="edge86" class="edge">
<title>Node33&#45;&gt;Node16</title>
<path fill="none" stroke="midnightblue" d="M463.36,-448.46C469.8,-420.69 493.61,-331.82 544.5,-280 609.41,-213.91 719,-191.06 785.94,-183.17"/>
<polygon fill="midnightblue" stroke="midnightblue" points="786.34,-186.64 795.9,-182.06 785.57,-179.68 786.34,-186.64"/>
</g>
<!-- Node33&#45;&gt;Node18 -->
<g id="edge88" class="edge">
<title>Node33&#45;&gt;Node18</title>
<path fill="none" stroke="midnightblue" d="M492.64,-453.29C571.74,-443.86 780.6,-418.96 871.37,-408.14"/>
<polygon fill="midnightblue" stroke="midnightblue" points="871.8,-411.61 881.32,-406.96 870.97,-404.66 871.8,-411.61"/>
</g>
</g>
</svg>
