<?xml version="1.0" encoding="UTF-8" standalone="no"?>
<!DOCTYPE svg PUBLIC "-//W3C//DTD SVG 1.1//EN"
 "http://www.w3.org/Graphics/SVG/1.1/DTD/svg11.dtd">
<!-- Generated by graphviz version 2.50.0 (20211204.2007)
 -->
<!-- Title: include/york/Graphics/RenderPass.hpp Pages: 1 -->
<svg width="711pt" height="543pt"
 viewBox="0.00 0.00 711.00 543.00" xmlns="http://www.w3.org/2000/svg" xmlns:xlink="http://www.w3.org/1999/xlink">
<g id="graph0" class="graph" transform="scale(1 1) rotate(0) translate(4 539)">
<title>include/york/Graphics/RenderPass.hpp</title>
<!-- Node1 -->
<g id="node1" class="node">
<title>Node1</title>
<g id="a_node1"><a xlink:title=" ">
<polygon fill="#bfbfbf" stroke="black" points="294.5,-504.5 294.5,-534.5 405.5,-534.5 405.5,-504.5 294.5,-504.5"/>
<text text-anchor="start" x="302.5" y="-522.5" font-family="Helvetica,sans-Serif" font-size="10.00">include/york/Graphics</text>
<text text-anchor="middle" x="350" y="-511.5" font-family="Helvetica,sans-Serif" font-size="10.00">/RenderPass.hpp</text>
</a>
</g>
</g>
<!-- Node2 -->
<g id="node2" class="node">
<title>Node2</title>
<g id="a_node2"><a xlink:title=" ">
<polygon fill="none" stroke="#bfbfbf" points="7.5,-168.5 7.5,-187.5 102.5,-187.5 102.5,-168.5 7.5,-168.5"/>
<text text-anchor="middle" x="55" y="-175.5" font-family="Helvetica,sans-Serif" font-size="10.00">vulkan/vulkan.hpp</text>
</a>
</g>
</g>
<!-- Node1&#45;&gt;Node2 -->
<g id="edge1" class="edge">
<title>Node1&#45;&gt;Node2</title>
<path fill="none" stroke="midnightblue" d="M294.15,-511.81C195.34,-498.41 0,-464.19 0,-403 0,-403 0,-403 0,-289 0,-252.57 24.43,-215.84 40.73,-195.39"/>
<polygon fill="midnightblue" stroke="midnightblue" points="43.44,-197.6 47.12,-187.67 38.05,-193.14 43.44,-197.6"/>
</g>
<!-- Node3 -->
<g id="node3" class="node">
<title>Node3</title>
<g id="a_node3"><a xlink:href="_handle_8hpp.html" target="_top" xlink:title="Contains the declarations for the Handle classes which form the basis of our Vulkan implementation.">
<polygon fill="none" stroke="black" points="537,-112.5 537,-131.5 603,-131.5 603,-112.5 537,-112.5"/>
<text text-anchor="middle" x="570" y="-119.5" font-family="Helvetica,sans-Serif" font-size="10.00">Handle.hpp</text>
</a>
</g>
</g>
<!-- Node1&#45;&gt;Node3 -->
<g id="edge2" class="edge">
<title>Node1&#45;&gt;Node3</title>
<path fill="none" stroke="midnightblue" d="M405.54,-512.01C504.95,-498.83 703,-464.82 703,-403 703,-403 703,-403 703,-233 703,-182.73 645.87,-151.1 606.5,-135.27"/>
<polygon fill="midnightblue" stroke="midnightblue" points="607.5,-131.91 596.91,-131.59 604.99,-138.45 607.5,-131.91"/>
</g>
<!-- Node8 -->
<g id="node8" class="node">
<title>Node8</title>
<g id="a_node8"><a xlink:href="_swap_chain_8hpp.html" target="_top" xlink:title=" ">
<polygon fill="none" stroke="black" points="307,-448.5 307,-467.5 393,-467.5 393,-448.5 307,-448.5"/>
<text text-anchor="middle" x="350" y="-455.5" font-family="Helvetica,sans-Serif" font-size="10.00">SwapChain.hpp</text>
</a>
</g>
</g>
<!-- Node1&#45;&gt;Node8 -->
<g id="edge7" class="edge">
<title>Node1&#45;&gt;Node8</title>
<path fill="none" stroke="midnightblue" d="M350,-504.4C350,-496.47 350,-486.46 350,-477.86"/>
<polygon fill="midnightblue" stroke="midnightblue" points="353.5,-477.66 350,-467.66 346.5,-477.66 353.5,-477.66"/>
</g>
<!-- Node4 -->
<g id="node4" class="node">
<title>Node4</title>
<g id="a_node4"><a xlink:title=" ">
<polygon fill="none" stroke="#bfbfbf" points="390,-56.5 390,-75.5 434,-75.5 434,-56.5 390,-56.5"/>
<text text-anchor="middle" x="412" y="-63.5" font-family="Helvetica,sans-Serif" font-size="10.00">vector</text>
</a>
</g>
</g>
<!-- Node3&#45;&gt;Node4 -->
<g id="edge3" class="edge">
<title>Node3&#45;&gt;Node4</title>
<path fill="none" stroke="midnightblue" d="M544.96,-112.44C517.52,-103.07 473.44,-88 443.63,-77.81"/>
<polygon fill="midnightblue" stroke="midnightblue" points="444.71,-74.48 434.11,-74.56 442.44,-81.1 444.71,-74.48"/>
</g>
<!-- Node5 -->
<g id="node5" class="node">
<title>Node5</title>
<g id="a_node5"><a xlink:title=" ">
<polygon fill="none" stroke="#bfbfbf" points="590.5,-56.5 590.5,-75.5 649.5,-75.5 649.5,-56.5 590.5,-56.5"/>
<text text-anchor="middle" x="620" y="-63.5" font-family="Helvetica,sans-Serif" font-size="10.00">functional</text>
</a>
</g>
</g>
<!-- Node3&#45;&gt;Node5 -->
<g id="edge4" class="edge">
<title>Node3&#45;&gt;Node5</title>
<path fill="none" stroke="midnightblue" d="M578.26,-112.08C585.46,-104.3 596.11,-92.8 604.85,-83.37"/>
<polygon fill="midnightblue" stroke="midnightblue" points="607.67,-85.47 611.9,-75.75 602.53,-80.71 607.67,-85.47"/>
</g>
<!-- Node6 -->
<g id="node6" class="node">
<title>Node6</title>
<g id="a_node6"><a xlink:href="_identifiable_8hpp.html" target="_top" xlink:title=" ">
<polygon fill="none" stroke="black" points="468,-56.5 468,-75.5 572,-75.5 572,-56.5 468,-56.5"/>
<text text-anchor="middle" x="520" y="-63.5" font-family="Helvetica,sans-Serif" font-size="10.00">york/Identifiable.hpp</text>
</a>
</g>
</g>
<!-- Node3&#45;&gt;Node6 -->
<g id="edge5" class="edge">
<title>Node3&#45;&gt;Node6</title>
<path fill="none" stroke="midnightblue" d="M561.74,-112.08C554.54,-104.3 543.89,-92.8 535.15,-83.37"/>
<polygon fill="midnightblue" stroke="midnightblue" points="537.47,-80.71 528.1,-75.75 532.33,-85.47 537.47,-80.71"/>
</g>
<!-- Node7 -->
<g id="node7" class="node">
<title>Node7</title>
<g id="a_node7"><a xlink:title=" ">
<polygon fill="none" stroke="#bfbfbf" points="497,-0.5 497,-19.5 543,-19.5 543,-0.5 497,-0.5"/>
<text text-anchor="middle" x="520" y="-7.5" font-family="Helvetica,sans-Serif" font-size="10.00">cstdint</text>
</a>
</g>
</g>
<!-- Node6&#45;&gt;Node7 -->
<g id="edge6" class="edge">
<title>Node6&#45;&gt;Node7</title>
<path fill="none" stroke="midnightblue" d="M520,-56.08C520,-49.01 520,-38.86 520,-29.99"/>
<polygon fill="midnightblue" stroke="midnightblue" points="523.5,-29.75 520,-19.75 516.5,-29.75 523.5,-29.75"/>
</g>
<!-- Node8&#45;&gt;Node2 -->
<g id="edge8" class="edge">
<title>Node8&#45;&gt;Node2</title>
<path fill="none" stroke="midnightblue" d="M306.95,-451.03C221.36,-437.95 38,-403.36 38,-347 38,-347 38,-347 38,-289 38,-256.58 45.3,-219.42 50.33,-197.64"/>
<polygon fill="midnightblue" stroke="midnightblue" points="53.77,-198.31 52.71,-187.77 46.97,-196.67 53.77,-198.31"/>
</g>
<!-- Node8&#45;&gt;Node3 -->
<g id="edge35" class="edge">
<title>Node8&#45;&gt;Node3</title>
<path fill="none" stroke="midnightblue" d="M393.14,-451.16C479.41,-438.26 665,-403.91 665,-347 665,-347 665,-347 665,-233 665,-189.74 622.39,-155.09 594.25,-136.91"/>
<polygon fill="midnightblue" stroke="midnightblue" points="596.03,-133.9 585.69,-131.6 592.34,-139.85 596.03,-133.9"/>
</g>
<!-- Node9 -->
<g id="node9" class="node">
<title>Node9</title>
<g id="a_node9"><a xlink:href="_device_8hpp.html" target="_top" xlink:title=" ">
<polygon fill="none" stroke="black" points="317,-336.5 317,-355.5 383,-355.5 383,-336.5 317,-336.5"/>
<text text-anchor="middle" x="350" y="-343.5" font-family="Helvetica,sans-Serif" font-size="10.00">Device.hpp</text>
</a>
</g>
</g>
<!-- Node8&#45;&gt;Node9 -->
<g id="edge9" class="edge">
<title>Node8&#45;&gt;Node9</title>
<path fill="none" stroke="midnightblue" d="M353.86,-448.25C357.56,-439.33 362.89,-425.01 365,-412 367.58,-396.1 362.93,-378.3 358.14,-365.35"/>
<polygon fill="midnightblue" stroke="midnightblue" points="361.26,-363.7 354.25,-355.76 354.77,-366.34 361.26,-363.7"/>
</g>
<!-- Node19 -->
<g id="node19" class="node">
<title>Node19</title>
<g id="a_node19"><a xlink:href="_image_view_8hpp.html" target="_top" xlink:title=" ">
<polygon fill="none" stroke="black" points="273.5,-392.5 273.5,-411.5 356.5,-411.5 356.5,-392.5 273.5,-392.5"/>
<text text-anchor="middle" x="315" y="-399.5" font-family="Helvetica,sans-Serif" font-size="10.00">ImageView.hpp</text>
</a>
</g>
</g>
<!-- Node8&#45;&gt;Node19 -->
<g id="edge36" class="edge">
<title>Node8&#45;&gt;Node19</title>
<path fill="none" stroke="midnightblue" d="M344.22,-448.08C339.33,-440.53 332.17,-429.49 326.17,-420.23"/>
<polygon fill="midnightblue" stroke="midnightblue" points="329.05,-418.24 320.67,-411.75 323.17,-422.05 329.05,-418.24"/>
</g>
<!-- Node9&#45;&gt;Node2 -->
<g id="edge11" class="edge">
<title>Node9&#45;&gt;Node2</title>
<path fill="none" stroke="midnightblue" d="M325.11,-336.48C282.69,-321.37 194.53,-287.33 128,-244 106.37,-229.91 84.66,-209.61 70.61,-195.46"/>
<polygon fill="midnightblue" stroke="midnightblue" points="72.77,-192.65 63.29,-187.93 67.75,-197.54 72.77,-192.65"/>
</g>
<!-- Node9&#45;&gt;Node3 -->
<g id="edge12" class="edge">
<title>Node9&#45;&gt;Node3</title>
<path fill="none" stroke="midnightblue" d="M383.28,-344.64C419.87,-342.46 478.2,-333.47 514,-300 559.68,-257.3 568.28,-177.67 569.77,-141.6"/>
<polygon fill="midnightblue" stroke="midnightblue" points="573.28,-141.62 570.05,-131.52 566.28,-141.43 573.28,-141.62"/>
</g>
<!-- Node10 -->
<g id="node10" class="node">
<title>Node10</title>
<g id="a_node10"><a xlink:title=" ">
<polygon fill="none" stroke="#bfbfbf" points="378,-280.5 378,-299.5 418,-299.5 418,-280.5 378,-280.5"/>
<text text-anchor="middle" x="398" y="-287.5" font-family="Helvetica,sans-Serif" font-size="10.00">utility</text>
</a>
</g>
</g>
<!-- Node9&#45;&gt;Node10 -->
<g id="edge10" class="edge">
<title>Node9&#45;&gt;Node10</title>
<path fill="none" stroke="midnightblue" d="M357.93,-336.08C364.85,-328.3 375.07,-316.8 383.45,-307.37"/>
<polygon fill="midnightblue" stroke="midnightblue" points="386.19,-309.55 390.22,-299.75 380.96,-304.9 386.19,-309.55"/>
</g>
<!-- Node11 -->
<g id="node11" class="node">
<title>Node11</title>
<g id="a_node11"><a xlink:href="_instance_8hpp.html" target="_top" xlink:title=" ">
<polygon fill="none" stroke="black" points="340.5,-224.5 340.5,-243.5 413.5,-243.5 413.5,-224.5 340.5,-224.5"/>
<text text-anchor="middle" x="377" y="-231.5" font-family="Helvetica,sans-Serif" font-size="10.00">Instance.hpp</text>
</a>
</g>
</g>
<!-- Node9&#45;&gt;Node11 -->
<g id="edge13" class="edge">
<title>Node9&#45;&gt;Node11</title>
<path fill="none" stroke="midnightblue" d="M352.12,-336.37C356.48,-318.62 366.53,-277.67 372.44,-253.6"/>
<polygon fill="midnightblue" stroke="midnightblue" points="375.91,-254.14 374.89,-243.59 369.11,-252.47 375.91,-254.14"/>
</g>
<!-- Node13 -->
<g id="node13" class="node">
<title>Node13</title>
<g id="a_node13"><a xlink:href="_requestable_item_8hpp.html" target="_top" xlink:title=" ">
<polygon fill="none" stroke="black" points="189,-168.5 189,-187.5 299,-187.5 299,-168.5 189,-168.5"/>
<text text-anchor="middle" x="244" y="-175.5" font-family="Helvetica,sans-Serif" font-size="10.00">RequestableItem.hpp</text>
</a>
</g>
</g>
<!-- Node9&#45;&gt;Node13 -->
<g id="edge29" class="edge">
<title>Node9&#45;&gt;Node13</title>
<path fill="none" stroke="midnightblue" d="M347.27,-336.47C340.41,-315.81 320.93,-261.98 293,-224 284.74,-212.77 273.39,-202.13 263.68,-194.02"/>
<polygon fill="midnightblue" stroke="midnightblue" points="265.69,-191.14 255.7,-187.59 261.29,-196.59 265.69,-191.14"/>
</g>
<!-- Node16 -->
<g id="node16" class="node">
<title>Node16</title>
<g id="a_node16"><a xlink:href="_physical_device_8hpp.html" target="_top" xlink:title=" ">
<polygon fill="none" stroke="black" points="180,-224.5 180,-243.5 284,-243.5 284,-224.5 180,-224.5"/>
<text text-anchor="middle" x="232" y="-231.5" font-family="Helvetica,sans-Serif" font-size="10.00">PhysicalDevice.hpp</text>
</a>
</g>
</g>
<!-- Node9&#45;&gt;Node16 -->
<g id="edge24" class="edge">
<title>Node9&#45;&gt;Node16</title>
<path fill="none" stroke="midnightblue" d="M339.47,-336.23C328.84,-327.3 312.03,-312.96 298,-300 280.39,-283.74 260.91,-264.38 247.71,-251.04"/>
<polygon fill="midnightblue" stroke="midnightblue" points="249.88,-248.26 240.37,-243.59 244.9,-253.17 249.88,-248.26"/>
</g>
<!-- Node18 -->
<g id="node18" class="node">
<title>Node18</title>
<g id="a_node18"><a xlink:href="_surface_8hpp.html" target="_top" xlink:title=" ">
<polygon fill="none" stroke="black" points="436.5,-280.5 436.5,-299.5 505.5,-299.5 505.5,-280.5 436.5,-280.5"/>
<text text-anchor="middle" x="471" y="-287.5" font-family="Helvetica,sans-Serif" font-size="10.00">Surface.hpp</text>
</a>
</g>
</g>
<!-- Node9&#45;&gt;Node18 -->
<g id="edge30" class="edge">
<title>Node9&#45;&gt;Node18</title>
<path fill="none" stroke="midnightblue" d="M369.17,-336.44C388.91,-327.64 419.89,-313.81 442.49,-303.72"/>
<polygon fill="midnightblue" stroke="midnightblue" points="444.21,-306.79 451.92,-299.52 441.36,-300.4 444.21,-306.79"/>
</g>
<!-- Node11&#45;&gt;Node2 -->
<g id="edge16" class="edge">
<title>Node11&#45;&gt;Node2</title>
<path fill="none" stroke="midnightblue" d="M340.38,-226.86C284.83,-217.54 178.79,-199.76 112.77,-188.69"/>
<polygon fill="midnightblue" stroke="midnightblue" points="112.98,-185.17 102.54,-186.97 111.82,-192.08 112.98,-185.17"/>
</g>
<!-- Node11&#45;&gt;Node3 -->
<g id="edge17" class="edge">
<title>Node11&#45;&gt;Node3</title>
<path fill="none" stroke="midnightblue" d="M406.84,-224.44C431.03,-216.81 465.51,-204.32 493,-188 516.36,-174.14 539.7,-153.18 554.46,-138.84"/>
<polygon fill="midnightblue" stroke="midnightblue" points="557.09,-141.16 561.72,-131.63 552.16,-136.19 557.09,-141.16"/>
</g>
<!-- Node11&#45;&gt;Node4 -->
<g id="edge15" class="edge">
<title>Node11&#45;&gt;Node4</title>
<path fill="none" stroke="midnightblue" d="M370.71,-224.29C356.67,-203.68 325.53,-150.73 346,-112 353.48,-97.85 367.62,-87.32 380.9,-80.01"/>
<polygon fill="midnightblue" stroke="midnightblue" points="382.53,-83.11 389.87,-75.47 379.36,-76.87 382.53,-83.11"/>
</g>
<!-- Node12 -->
<g id="node12" class="node">
<title>Node12</title>
<g id="a_node12"><a xlink:title=" ">
<polygon fill="none" stroke="#bfbfbf" points="355.5,-112.5 355.5,-131.5 396.5,-131.5 396.5,-112.5 355.5,-112.5"/>
<text text-anchor="middle" x="376" y="-119.5" font-family="Helvetica,sans-Serif" font-size="10.00">string</text>
</a>
</g>
</g>
<!-- Node11&#45;&gt;Node12 -->
<g id="edge14" class="edge">
<title>Node11&#45;&gt;Node12</title>
<path fill="none" stroke="midnightblue" d="M376.92,-224.37C376.76,-206.62 376.39,-165.67 376.17,-141.6"/>
<polygon fill="midnightblue" stroke="midnightblue" points="379.67,-141.56 376.08,-131.59 372.67,-141.62 379.67,-141.56"/>
</g>
<!-- Node11&#45;&gt;Node13 -->
<g id="edge18" class="edge">
<title>Node11&#45;&gt;Node13</title>
<path fill="none" stroke="midnightblue" d="M355.93,-224.44C333.94,-215.52 299.27,-201.44 274.34,-191.32"/>
<polygon fill="midnightblue" stroke="midnightblue" points="275.56,-188.04 264.98,-187.52 272.92,-194.52 275.56,-188.04"/>
</g>
<!-- Node14 -->
<g id="node14" class="node">
<title>Node14</title>
<g id="a_node14"><a xlink:href="_window_8hpp.html" target="_top" xlink:title=" ">
<polygon fill="none" stroke="black" points="393.5,-168.5 393.5,-187.5 484.5,-187.5 484.5,-168.5 393.5,-168.5"/>
<text text-anchor="middle" x="439" y="-175.5" font-family="Helvetica,sans-Serif" font-size="10.00">york/Window.hpp</text>
</a>
</g>
</g>
<!-- Node11&#45;&gt;Node14 -->
<g id="edge20" class="edge">
<title>Node11&#45;&gt;Node14</title>
<path fill="none" stroke="midnightblue" d="M386.96,-224.32C396.13,-216.34 409.94,-204.31 421.03,-194.65"/>
<polygon fill="midnightblue" stroke="midnightblue" points="423.62,-197.04 428.86,-187.83 419.02,-191.76 423.62,-197.04"/>
</g>
<!-- Node13&#45;&gt;Node12 -->
<g id="edge19" class="edge">
<title>Node13&#45;&gt;Node12</title>
<path fill="none" stroke="midnightblue" d="M264.92,-168.44C286.74,-159.52 321.15,-145.44 345.89,-135.32"/>
<polygon fill="midnightblue" stroke="midnightblue" points="347.25,-138.54 355.18,-131.52 344.6,-132.06 347.25,-138.54"/>
</g>
<!-- Node14&#45;&gt;Node3 -->
<g id="edge23" class="edge">
<title>Node14&#45;&gt;Node3</title>
<path fill="none" stroke="midnightblue" d="M459.76,-168.44C481.32,-159.56 515.26,-145.56 539.79,-135.45"/>
<polygon fill="midnightblue" stroke="midnightblue" points="541.43,-138.56 549.34,-131.52 538.76,-132.09 541.43,-138.56"/>
</g>
<!-- Node14&#45;&gt;Node12 -->
<g id="edge21" class="edge">
<title>Node14&#45;&gt;Node12</title>
<path fill="none" stroke="midnightblue" d="M428.88,-168.32C419.47,-160.26 405.26,-148.08 393.93,-138.37"/>
<polygon fill="midnightblue" stroke="midnightblue" points="396.18,-135.68 386.31,-131.83 391.62,-141 396.18,-135.68"/>
</g>
<!-- Node15 -->
<g id="node15" class="node">
<title>Node15</title>
<g id="a_node15"><a xlink:title=" ">
<polygon fill="none" stroke="#bfbfbf" points="414.5,-112.5 414.5,-131.5 487.5,-131.5 487.5,-112.5 414.5,-112.5"/>
<text text-anchor="middle" x="451" y="-119.5" font-family="Helvetica,sans-Serif" font-size="10.00">SDL_video.h</text>
</a>
</g>
</g>
<!-- Node14&#45;&gt;Node15 -->
<g id="edge22" class="edge">
<title>Node14&#45;&gt;Node15</title>
<path fill="none" stroke="midnightblue" d="M440.98,-168.08C442.57,-160.93 444.86,-150.64 446.85,-141.69"/>
<polygon fill="midnightblue" stroke="midnightblue" points="450.3,-142.27 449.06,-131.75 443.47,-140.75 450.3,-142.27"/>
</g>
<!-- Node16&#45;&gt;Node2 -->
<g id="edge26" class="edge">
<title>Node16&#45;&gt;Node2</title>
<path fill="none" stroke="midnightblue" d="M203.95,-224.44C173.92,-215.28 126.09,-200.69 92.76,-190.52"/>
<polygon fill="midnightblue" stroke="midnightblue" points="93.5,-187.09 82.91,-187.52 91.46,-193.78 93.5,-187.09"/>
</g>
<!-- Node16&#45;&gt;Node13 -->
<g id="edge27" class="edge">
<title>Node16&#45;&gt;Node13</title>
<path fill="none" stroke="midnightblue" d="M233.98,-224.08C235.57,-216.93 237.86,-206.64 239.85,-197.69"/>
<polygon fill="midnightblue" stroke="midnightblue" points="243.3,-198.27 242.06,-187.75 236.47,-196.75 243.3,-198.27"/>
</g>
<!-- Node16&#45;&gt;Node14 -->
<g id="edge28" class="edge">
<title>Node16&#45;&gt;Node14</title>
<path fill="none" stroke="midnightblue" d="M264.8,-224.44C300.38,-215.16 357.31,-200.31 396.35,-190.13"/>
<polygon fill="midnightblue" stroke="midnightblue" points="397.56,-193.43 406.35,-187.52 395.79,-186.65 397.56,-193.43"/>
</g>
<!-- Node17 -->
<g id="node17" class="node">
<title>Node17</title>
<g id="a_node17"><a xlink:title=" ">
<polygon fill="none" stroke="#bfbfbf" points="121,-168.5 121,-187.5 171,-187.5 171,-168.5 121,-168.5"/>
<text text-anchor="middle" x="146" y="-175.5" font-family="Helvetica,sans-Serif" font-size="10.00">optional</text>
</a>
</g>
</g>
<!-- Node16&#45;&gt;Node17 -->
<g id="edge25" class="edge">
<title>Node16&#45;&gt;Node17</title>
<path fill="none" stroke="midnightblue" d="M218.18,-224.32C204.77,-215.9 184.18,-202.97 168.41,-193.07"/>
<polygon fill="midnightblue" stroke="midnightblue" points="170.11,-190.01 159.78,-187.65 166.39,-195.94 170.11,-190.01"/>
</g>
<!-- Node18&#45;&gt;Node2 -->
<g id="edge31" class="edge">
<title>Node18&#45;&gt;Node2</title>
<path fill="none" stroke="midnightblue" d="M436.45,-281.72C433.26,-281.11 430.07,-280.53 427,-280 313.77,-260.48 279.87,-280.71 171,-244 152.03,-237.6 105.54,-210.05 77.51,-192.94"/>
<polygon fill="midnightblue" stroke="midnightblue" points="79.14,-189.83 68.78,-187.58 75.47,-195.79 79.14,-189.83"/>
</g>
<!-- Node18&#45;&gt;Node3 -->
<g id="edge32" class="edge">
<title>Node18&#45;&gt;Node3</title>
<path fill="none" stroke="midnightblue" d="M476.32,-280.08C492.11,-253.61 538.86,-175.21 559.74,-140.21"/>
<polygon fill="midnightblue" stroke="midnightblue" points="562.77,-141.95 564.89,-131.57 556.76,-138.36 562.77,-141.95"/>
</g>
<!-- Node18&#45;&gt;Node11 -->
<g id="edge33" class="edge">
<title>Node18&#45;&gt;Node11</title>
<path fill="none" stroke="midnightblue" d="M455.9,-280.32C441.1,-271.82 418.31,-258.73 401.02,-248.8"/>
<polygon fill="midnightblue" stroke="midnightblue" points="402.48,-245.6 392.07,-243.65 398.99,-251.67 402.48,-245.6"/>
</g>
<!-- Node18&#45;&gt;Node14 -->
<g id="edge34" class="edge">
<title>Node18&#45;&gt;Node14</title>
<path fill="none" stroke="midnightblue" d="M468.49,-280.37C463.3,-262.54 451.3,-221.3 444.32,-197.27"/>
<polygon fill="midnightblue" stroke="midnightblue" points="447.65,-196.22 441.5,-187.59 440.93,-198.17 447.65,-196.22"/>
</g>
<!-- Node19&#45;&gt;Node2 -->
<g id="edge39" class="edge">
<title>Node19&#45;&gt;Node2</title>
<path fill="none" stroke="midnightblue" d="M299.35,-392.36C261.5,-370.93 163.33,-312.13 98,-244 84.28,-229.7 72.19,-210.49 64.35,-196.66"/>
<polygon fill="midnightblue" stroke="midnightblue" points="67.31,-194.78 59.43,-187.7 61.17,-198.15 67.31,-194.78"/>
</g>
<!-- Node19&#45;&gt;Node3 -->
<g id="edge37" class="edge">
<title>Node19&#45;&gt;Node3</title>
<path fill="none" stroke="midnightblue" d="M356.75,-395.23C441.77,-382.3 627,-347.64 627,-291 627,-291 627,-291 627,-233 627,-196.3 601.68,-159.66 584.79,-139.3"/>
<polygon fill="midnightblue" stroke="midnightblue" points="587.35,-136.9 578.17,-131.62 582.05,-141.48 587.35,-136.9"/>
</g>
<!-- Node19&#45;&gt;Node9 -->
<g id="edge38" class="edge">
<title>Node19&#45;&gt;Node9</title>
<path fill="none" stroke="midnightblue" d="M320.78,-392.08C325.67,-384.53 332.83,-373.49 338.83,-364.23"/>
<polygon fill="midnightblue" stroke="midnightblue" points="341.83,-366.05 344.33,-355.75 335.95,-362.24 341.83,-366.05"/>
</g>
</g>
</svg>
