<?xml version="1.0" encoding="UTF-8" standalone="no"?>
<!DOCTYPE svg PUBLIC "-//W3C//DTD SVG 1.1//EN"
 "http://www.w3.org/Graphics/SVG/1.1/DTD/svg11.dtd">
<!-- Generated by graphviz version 2.50.0 (20211204.2007)
 -->
<!-- Title: include/york/Renderer/Renderer.hpp Pages: 1 -->
<svg width="1681pt" height="767pt"
 viewBox="0.00 0.00 1681.36 767.00" xmlns="http://www.w3.org/2000/svg" xmlns:xlink="http://www.w3.org/1999/xlink">
<g id="graph0" class="graph" transform="scale(1 1) rotate(0) translate(4 763)">
<title>include/york/Renderer/Renderer.hpp</title>
<!-- Node1 -->
<g id="node1" class="node">
<title>Node1</title>
<g id="a_node1"><a xlink:title=" ">
<polygon fill="#bfbfbf" stroke="black" points="838.86,-728.5 838.86,-758.5 950.86,-758.5 950.86,-728.5 838.86,-728.5"/>
<text text-anchor="start" x="846.86" y="-746.5" font-family="Helvetica,sans-Serif" font-size="10.00">include/york/Renderer</text>
<text text-anchor="middle" x="894.86" y="-735.5" font-family="Helvetica,sans-Serif" font-size="10.00">/Renderer.hpp</text>
</a>
</g>
</g>
<!-- Node2 -->
<g id="node2" class="node">
<title>Node2</title>
<g id="a_node2"><a xlink:href="_event_8hpp.html" target="_top" xlink:title=" ">
<polygon fill="none" stroke="black" points="1590.36,-168.5 1590.36,-187.5 1673.36,-187.5 1673.36,-168.5 1590.36,-168.5"/>
<text text-anchor="middle" x="1631.86" y="-175.5" font-family="Helvetica,sans-Serif" font-size="10.00">york/Event.hpp</text>
</a>
</g>
</g>
<!-- Node1&#45;&gt;Node2 -->
<g id="edge1" class="edge">
<title>Node1&#45;&gt;Node2</title>
<path fill="none" stroke="midnightblue" d="M951.14,-739.41C1120.82,-729.35 1615.86,-694.23 1615.86,-627 1615.86,-627 1615.86,-627 1615.86,-289 1615.86,-256.63 1622.73,-219.44 1627.47,-197.66"/>
<polygon fill="midnightblue" stroke="midnightblue" points="1630.91,-198.3 1629.7,-187.78 1624.08,-196.76 1630.91,-198.3"/>
</g>
<!-- Node10 -->
<g id="node10" class="node">
<title>Node10</title>
<g id="a_node10"><a xlink:href="_window_8hpp.html" target="_top" xlink:title=" ">
<polygon fill="none" stroke="black" points="389.36,-168.5 389.36,-187.5 480.36,-187.5 480.36,-168.5 389.36,-168.5"/>
<text text-anchor="middle" x="434.86" y="-175.5" font-family="Helvetica,sans-Serif" font-size="10.00">york/Window.hpp</text>
</a>
</g>
</g>
<!-- Node1&#45;&gt;Node10 -->
<g id="edge11" class="edge">
<title>Node1&#45;&gt;Node10</title>
<path fill="none" stroke="midnightblue" d="M838.66,-741.7C704.92,-738.3 378.86,-720.41 378.86,-627 378.86,-627 378.86,-627 378.86,-289 378.86,-252.44 403.74,-215.75 420.33,-195.34"/>
<polygon fill="midnightblue" stroke="midnightblue" points="423.06,-197.54 426.84,-187.64 417.71,-193.02 423.06,-197.54"/>
</g>
<!-- Node14 -->
<g id="node14" class="node">
<title>Node14</title>
<g id="a_node14"><a xlink:href="_framebuffer_8hpp.html" target="_top" xlink:title=" ">
<polygon fill="none" stroke="black" points="1327.36,-616.5 1327.36,-635.5 1478.36,-635.5 1478.36,-616.5 1327.36,-616.5"/>
<text text-anchor="middle" x="1402.86" y="-623.5" font-family="Helvetica,sans-Serif" font-size="10.00">york/Graphics/Framebuffer.hpp</text>
</a>
</g>
</g>
<!-- Node1&#45;&gt;Node14 -->
<g id="edge18" class="edge">
<title>Node1&#45;&gt;Node14</title>
<path fill="none" stroke="midnightblue" d="M951.17,-729.7C1051.99,-706.78 1261.56,-659.13 1355.51,-637.77"/>
<polygon fill="midnightblue" stroke="midnightblue" points="1356.33,-641.17 1365.31,-635.54 1354.78,-634.34 1356.33,-641.17"/>
</g>
<!-- Node26 -->
<g id="node26" class="node">
<title>Node26</title>
<g id="a_node26"><a xlink:href="_pipeline_8hpp.html" target="_top" xlink:title=" ">
<polygon fill="none" stroke="black" points="1158.86,-616.5 1158.86,-635.5 1292.86,-635.5 1292.86,-616.5 1158.86,-616.5"/>
<text text-anchor="middle" x="1225.86" y="-623.5" font-family="Helvetica,sans-Serif" font-size="10.00">york/Graphics/Pipeline.hpp</text>
</a>
</g>
</g>
<!-- Node1&#45;&gt;Node26 -->
<g id="edge55" class="edge">
<title>Node1&#45;&gt;Node26</title>
<path fill="none" stroke="midnightblue" d="M935.12,-728.45C1000.89,-705.5 1130.21,-660.38 1191.76,-638.9"/>
<polygon fill="midnightblue" stroke="midnightblue" points="1193.09,-642.14 1201.38,-635.54 1190.79,-635.53 1193.09,-642.14"/>
</g>
<!-- Node31 -->
<g id="node31" class="node">
<title>Node31</title>
<g id="a_node31"><a xlink:href="_command_pool_8hpp.html" target="_top" xlink:title=" ">
<polygon fill="none" stroke="black" points="513.86,-448.5 513.86,-467.5 677.86,-467.5 677.86,-448.5 513.86,-448.5"/>
<text text-anchor="middle" x="595.86" y="-455.5" font-family="Helvetica,sans-Serif" font-size="10.00">york/Graphics/CommandPool.hpp</text>
</a>
</g>
</g>
<!-- Node1&#45;&gt;Node31 -->
<g id="edge74" class="edge">
<title>Node1&#45;&gt;Node31</title>
<path fill="none" stroke="midnightblue" d="M838.65,-738.52C770.27,-730.27 663.86,-704.91 663.86,-627 663.86,-627 663.86,-627 663.86,-569 663.86,-530.55 633.43,-494.31 613.28,-474.54"/>
<polygon fill="midnightblue" stroke="midnightblue" points="615.57,-471.89 605.9,-467.57 610.76,-476.98 615.57,-471.89"/>
</g>
<!-- Node32 -->
<g id="node32" class="node">
<title>Node32</title>
<g id="a_node32"><a xlink:href="_semaphore_8hpp.html" target="_top" xlink:title=" ">
<polygon fill="none" stroke="black" points="696.36,-448.5 696.36,-467.5 845.36,-467.5 845.36,-448.5 696.36,-448.5"/>
<text text-anchor="middle" x="770.86" y="-455.5" font-family="Helvetica,sans-Serif" font-size="10.00">york/Graphics/Semaphore.hpp</text>
</a>
</g>
</g>
<!-- Node1&#45;&gt;Node32 -->
<g id="edge78" class="edge">
<title>Node1&#45;&gt;Node32</title>
<path fill="none" stroke="midnightblue" d="M861.25,-728.38C824.83,-710.58 771.86,-676.21 771.86,-627 771.86,-627 771.86,-627 771.86,-569 771.86,-536.95 771.43,-499.64 771.14,-477.75"/>
<polygon fill="midnightblue" stroke="midnightblue" points="774.63,-477.51 770.99,-467.56 767.63,-477.61 774.63,-477.51"/>
</g>
<!-- Node33 -->
<g id="node33" class="node">
<title>Node33</title>
<g id="a_node33"><a xlink:href="_frame_data_8hpp.html" target="_top" xlink:title=" ">
<polygon fill="none" stroke="black" points="820.86,-672.5 820.86,-691.5 968.86,-691.5 968.86,-672.5 820.86,-672.5"/>
<text text-anchor="middle" x="894.86" y="-679.5" font-family="Helvetica,sans-Serif" font-size="10.00">york/Graphics/FrameData.hpp</text>
</a>
</g>
</g>
<!-- Node1&#45;&gt;Node33 -->
<g id="edge82" class="edge">
<title>Node1&#45;&gt;Node33</title>
<path fill="none" stroke="midnightblue" d="M894.86,-728.4C894.86,-720.47 894.86,-710.46 894.86,-701.86"/>
<polygon fill="midnightblue" stroke="midnightblue" points="898.36,-701.66 894.86,-691.66 891.36,-701.66 898.36,-701.66"/>
</g>
<!-- Node3 -->
<g id="node3" class="node">
<title>Node3</title>
<g id="a_node3"><a xlink:title=" ">
<polygon fill="none" stroke="#bfbfbf" points="839.86,-56.5 839.86,-75.5 883.86,-75.5 883.86,-56.5 839.86,-56.5"/>
<text text-anchor="middle" x="861.86" y="-63.5" font-family="Helvetica,sans-Serif" font-size="10.00">vector</text>
</a>
</g>
</g>
<!-- Node2&#45;&gt;Node3 -->
<g id="edge2" class="edge">
<title>Node2&#45;&gt;Node3</title>
<path fill="none" stroke="midnightblue" d="M1590.28,-170.25C1585.42,-169.48 1580.53,-168.71 1575.86,-168 1465.76,-151.16 1433.96,-165.87 1327.86,-132 1309.3,-126.08 1307.53,-117.56 1288.86,-112 1146.5,-69.61 967.04,-65.95 894.5,-66.4"/>
<polygon fill="midnightblue" stroke="midnightblue" points="894.16,-62.91 884.19,-66.5 894.23,-69.91 894.16,-62.91"/>
</g>
<!-- Node4 -->
<g id="node4" class="node">
<title>Node4</title>
<g id="a_node4"><a xlink:title=" ">
<polygon fill="none" stroke="#bfbfbf" points="1342.36,-56.5 1342.36,-75.5 1401.36,-75.5 1401.36,-56.5 1342.36,-56.5"/>
<text text-anchor="middle" x="1371.86" y="-63.5" font-family="Helvetica,sans-Serif" font-size="10.00">functional</text>
</a>
</g>
</g>
<!-- Node2&#45;&gt;Node4 -->
<g id="edge3" class="edge">
<title>Node2&#45;&gt;Node4</title>
<path fill="none" stroke="midnightblue" d="M1632.01,-168.37C1631.76,-154.34 1629.08,-126.67 1612.86,-112 1583.85,-85.75 1472.19,-73.99 1411.57,-69.45"/>
<polygon fill="midnightblue" stroke="midnightblue" points="1411.82,-65.96 1401.59,-68.73 1411.31,-72.94 1411.82,-65.96"/>
</g>
<!-- Node5 -->
<g id="node5" class="node">
<title>Node5</title>
<g id="a_node5"><a xlink:title=" ">
<polygon fill="none" stroke="#bfbfbf" points="1425.36,-112.5 1425.36,-131.5 1504.36,-131.5 1504.36,-112.5 1425.36,-112.5"/>
<text text-anchor="middle" x="1464.86" y="-119.5" font-family="Helvetica,sans-Serif" font-size="10.00">SDL_events.h</text>
</a>
</g>
</g>
<!-- Node2&#45;&gt;Node5 -->
<g id="edge4" class="edge">
<title>Node2&#45;&gt;Node5</title>
<path fill="none" stroke="midnightblue" d="M1605.4,-168.44C1577.18,-159.32 1532.32,-144.81 1500.89,-134.65"/>
<polygon fill="midnightblue" stroke="midnightblue" points="1501.79,-131.26 1491.2,-131.52 1499.64,-137.92 1501.79,-131.26"/>
</g>
<!-- Node6 -->
<g id="node6" class="node">
<title>Node6</title>
<g id="a_node6"><a xlink:href="_key_codes_8hpp.html" target="_top" xlink:title=" ">
<polygon fill="none" stroke="black" points="1522.36,-112.5 1522.36,-131.5 1603.36,-131.5 1603.36,-112.5 1522.36,-112.5"/>
<text text-anchor="middle" x="1562.86" y="-119.5" font-family="Helvetica,sans-Serif" font-size="10.00">KeyCodes.hpp</text>
</a>
</g>
</g>
<!-- Node2&#45;&gt;Node6 -->
<g id="edge5" class="edge">
<title>Node2&#45;&gt;Node6</title>
<path fill="none" stroke="midnightblue" d="M1620.78,-168.32C1610.38,-160.18 1594.6,-147.84 1582.14,-138.09"/>
<polygon fill="midnightblue" stroke="midnightblue" points="1584.18,-135.24 1574.15,-131.83 1579.87,-140.75 1584.18,-135.24"/>
</g>
<!-- Node7 -->
<g id="node7" class="node">
<title>Node7</title>
<g id="a_node7"><a xlink:href="_identifiable_8hpp.html" target="_top" xlink:title=" ">
<polygon fill="none" stroke="black" points="1523.36,-56.5 1523.36,-75.5 1606.36,-75.5 1606.36,-56.5 1523.36,-56.5"/>
<text text-anchor="middle" x="1564.86" y="-63.5" font-family="Helvetica,sans-Serif" font-size="10.00">Identifiable.hpp</text>
</a>
</g>
</g>
<!-- Node2&#45;&gt;Node7 -->
<g id="edge6" class="edge">
<title>Node2&#45;&gt;Node7</title>
<path fill="none" stroke="midnightblue" d="M1637.37,-168.39C1644.95,-155.32 1656.52,-130.11 1645.86,-112 1636.94,-96.84 1620.87,-86.43 1605.38,-79.46"/>
<polygon fill="midnightblue" stroke="midnightblue" points="1606.46,-76.12 1595.88,-75.56 1603.81,-82.6 1606.46,-76.12"/>
</g>
<!-- Node9 -->
<g id="node9" class="node">
<title>Node9</title>
<g id="a_node9"><a xlink:href="_registry_8hpp.html" target="_top" xlink:title=" ">
<polygon fill="none" stroke="black" points="1336.36,-112.5 1336.36,-131.5 1407.36,-131.5 1407.36,-112.5 1336.36,-112.5"/>
<text text-anchor="middle" x="1371.86" y="-119.5" font-family="Helvetica,sans-Serif" font-size="10.00">Registry.hpp</text>
</a>
</g>
</g>
<!-- Node2&#45;&gt;Node9 -->
<g id="edge8" class="edge">
<title>Node2&#45;&gt;Node9</title>
<path fill="none" stroke="midnightblue" d="M1590.66,-168.44C1543.47,-158.64 1466.38,-142.63 1417.43,-132.46"/>
<polygon fill="midnightblue" stroke="midnightblue" points="1417.94,-129 1407.44,-130.39 1416.51,-135.85 1417.94,-129"/>
</g>
<!-- Node8 -->
<g id="node8" class="node">
<title>Node8</title>
<g id="a_node8"><a xlink:title=" ">
<polygon fill="none" stroke="#bfbfbf" points="1514.36,-0.5 1514.36,-19.5 1615.36,-19.5 1615.36,-0.5 1514.36,-0.5"/>
<text text-anchor="middle" x="1564.86" y="-7.5" font-family="Helvetica,sans-Serif" font-size="10.00">boost/uuid/uuid.hpp</text>
</a>
</g>
</g>
<!-- Node7&#45;&gt;Node8 -->
<g id="edge7" class="edge">
<title>Node7&#45;&gt;Node8</title>
<path fill="none" stroke="midnightblue" d="M1564.86,-56.08C1564.86,-49.01 1564.86,-38.86 1564.86,-29.99"/>
<polygon fill="midnightblue" stroke="midnightblue" points="1568.36,-29.75 1564.86,-19.75 1561.36,-29.75 1568.36,-29.75"/>
</g>
<!-- Node9&#45;&gt;Node3 -->
<g id="edge9" class="edge">
<title>Node9&#45;&gt;Node3</title>
<path fill="none" stroke="midnightblue" d="M1336.14,-114.21C1331.35,-113.4 1326.49,-112.64 1321.86,-112 1162.02,-89.83 969.43,-74.72 894.19,-69.26"/>
<polygon fill="midnightblue" stroke="midnightblue" points="894.18,-65.75 883.96,-68.53 893.68,-72.73 894.18,-65.75"/>
</g>
<!-- Node9&#45;&gt;Node4 -->
<g id="edge10" class="edge">
<title>Node9&#45;&gt;Node4</title>
<path fill="none" stroke="midnightblue" d="M1371.86,-112.08C1371.86,-105.01 1371.86,-94.86 1371.86,-85.99"/>
<polygon fill="midnightblue" stroke="midnightblue" points="1375.36,-85.75 1371.86,-75.75 1368.36,-85.75 1375.36,-85.75"/>
</g>
<!-- Node11 -->
<g id="node11" class="node">
<title>Node11</title>
<g id="a_node11"><a xlink:title=" ">
<polygon fill="none" stroke="#bfbfbf" points="257.36,-112.5 257.36,-131.5 298.36,-131.5 298.36,-112.5 257.36,-112.5"/>
<text text-anchor="middle" x="277.86" y="-119.5" font-family="Helvetica,sans-Serif" font-size="10.00">string</text>
</a>
</g>
</g>
<!-- Node10&#45;&gt;Node11 -->
<g id="edge12" class="edge">
<title>Node10&#45;&gt;Node11</title>
<path fill="none" stroke="midnightblue" d="M409.98,-168.44C382.45,-158.97 338.05,-143.7 308.42,-133.51"/>
<polygon fill="midnightblue" stroke="midnightblue" points="309.21,-130.08 298.61,-130.14 306.93,-136.7 309.21,-130.08"/>
</g>
<!-- Node12 -->
<g id="node12" class="node">
<title>Node12</title>
<g id="a_node12"><a xlink:title=" ">
<polygon fill="none" stroke="#bfbfbf" points="398.36,-112.5 398.36,-131.5 471.36,-131.5 471.36,-112.5 398.36,-112.5"/>
<text text-anchor="middle" x="434.86" y="-119.5" font-family="Helvetica,sans-Serif" font-size="10.00">SDL_video.h</text>
</a>
</g>
</g>
<!-- Node10&#45;&gt;Node12 -->
<g id="edge13" class="edge">
<title>Node10&#45;&gt;Node12</title>
<path fill="none" stroke="midnightblue" d="M434.86,-168.08C434.86,-161.01 434.86,-150.86 434.86,-141.99"/>
<polygon fill="midnightblue" stroke="midnightblue" points="438.36,-141.75 434.86,-131.75 431.36,-141.75 438.36,-141.75"/>
</g>
<!-- Node13 -->
<g id="node13" class="node">
<title>Node13</title>
<g id="a_node13"><a xlink:href="_handle_8hpp.html" target="_top" xlink:title="Contains the declarations for the Handle classes which form the basis of our Vulkan implementation.">
<polygon fill="none" stroke="black" points="1149.86,-112.5 1149.86,-131.5 1279.86,-131.5 1279.86,-112.5 1149.86,-112.5"/>
<text text-anchor="middle" x="1214.86" y="-119.5" font-family="Helvetica,sans-Serif" font-size="10.00">york/Graphics/Handle.hpp</text>
</a>
</g>
</g>
<!-- Node10&#45;&gt;Node13 -->
<g id="edge14" class="edge">
<title>Node10&#45;&gt;Node13</title>
<path fill="none" stroke="midnightblue" d="M480.71,-172.54C497.15,-171.01 515.83,-169.34 532.86,-168 752.91,-150.64 1013.27,-134.75 1139.17,-127.36"/>
<polygon fill="midnightblue" stroke="midnightblue" points="1139.68,-130.83 1149.46,-126.75 1139.27,-123.85 1139.68,-130.83"/>
</g>
<!-- Node13&#45;&gt;Node3 -->
<g id="edge15" class="edge">
<title>Node13&#45;&gt;Node3</title>
<path fill="none" stroke="midnightblue" d="M1158.93,-112.44C1084.29,-101.03 954.54,-81.18 894.31,-71.96"/>
<polygon fill="midnightblue" stroke="midnightblue" points="894.65,-68.48 884.24,-70.42 893.59,-75.39 894.65,-68.48"/>
</g>
<!-- Node13&#45;&gt;Node4 -->
<g id="edge16" class="edge">
<title>Node13&#45;&gt;Node4</title>
<path fill="none" stroke="midnightblue" d="M1239.74,-112.44C1266.15,-103.36 1308.08,-88.94 1337.6,-78.78"/>
<polygon fill="midnightblue" stroke="midnightblue" points="1338.78,-82.08 1347.1,-75.52 1336.51,-75.46 1338.78,-82.08"/>
</g>
<!-- Node13&#45;&gt;Node7 -->
<g id="edge17" class="edge">
<title>Node13&#45;&gt;Node7</title>
<path fill="none" stroke="midnightblue" d="M1270.32,-112.44C1337.01,-102.15 1448.07,-85.02 1513.08,-74.99"/>
<polygon fill="midnightblue" stroke="midnightblue" points="1513.75,-78.43 1523.1,-73.44 1512.69,-71.51 1513.75,-78.43"/>
</g>
<!-- Node14&#45;&gt;Node13 -->
<g id="edge19" class="edge">
<title>Node14&#45;&gt;Node13</title>
<path fill="none" stroke="midnightblue" d="M1440.95,-616.46C1487.98,-603.4 1561.86,-573.57 1561.86,-515 1561.86,-515 1561.86,-515 1561.86,-233 1561.86,-185.09 1519.82,-187.05 1475.86,-168 1458.42,-160.44 1354.6,-143.87 1283.28,-133.08"/>
<polygon fill="midnightblue" stroke="midnightblue" points="1283.42,-129.57 1273.01,-131.54 1282.37,-136.49 1283.42,-129.57"/>
</g>
<!-- Node15 -->
<g id="node15" class="node">
<title>Node15</title>
<g id="a_node15"><a xlink:href="_render_pass_8hpp.html" target="_top" xlink:title=" ">
<polygon fill="none" stroke="black" points="1264.36,-560.5 1264.36,-579.5 1353.36,-579.5 1353.36,-560.5 1264.36,-560.5"/>
<text text-anchor="middle" x="1308.86" y="-567.5" font-family="Helvetica,sans-Serif" font-size="10.00">RenderPass.hpp</text>
</a>
</g>
</g>
<!-- Node14&#45;&gt;Node15 -->
<g id="edge20" class="edge">
<title>Node14&#45;&gt;Node15</title>
<path fill="none" stroke="midnightblue" d="M1387.76,-616.32C1372.96,-607.82 1350.17,-594.73 1332.88,-584.8"/>
<polygon fill="midnightblue" stroke="midnightblue" points="1334.34,-581.6 1323.93,-579.65 1330.85,-587.67 1334.34,-581.6"/>
</g>
<!-- Node16 -->
<g id="node16" class="node">
<title>Node16</title>
<g id="a_node16"><a xlink:title=" ">
<polygon fill="none" stroke="#bfbfbf" points="989.36,-168.5 989.36,-187.5 1084.36,-187.5 1084.36,-168.5 989.36,-168.5"/>
<text text-anchor="middle" x="1036.86" y="-175.5" font-family="Helvetica,sans-Serif" font-size="10.00">vulkan/vulkan.hpp</text>
</a>
</g>
</g>
<!-- Node14&#45;&gt;Node16 -->
<g id="edge54" class="edge">
<title>Node14&#45;&gt;Node16</title>
<path fill="none" stroke="midnightblue" d="M1403.62,-616.28C1405.62,-590.11 1409.66,-510.21 1390.86,-448 1365.99,-365.68 1344.76,-350.04 1294.86,-280 1275.67,-253.06 1274.36,-240.78 1245.86,-224 1199.57,-196.75 1138.82,-185.93 1094.76,-181.67"/>
<polygon fill="midnightblue" stroke="midnightblue" points="1095.05,-178.18 1084.78,-180.79 1094.43,-185.16 1095.05,-178.18"/>
</g>
<!-- Node25 -->
<g id="node25" class="node">
<title>Node25</title>
<g id="a_node25"><a xlink:href="_image_view_8hpp.html" target="_top" xlink:title=" ">
<polygon fill="none" stroke="black" points="1298.36,-448.5 1298.36,-467.5 1381.36,-467.5 1381.36,-448.5 1298.36,-448.5"/>
<text text-anchor="middle" x="1339.86" y="-455.5" font-family="Helvetica,sans-Serif" font-size="10.00">ImageView.hpp</text>
</a>
</g>
</g>
<!-- Node14&#45;&gt;Node25 -->
<g id="edge53" class="edge">
<title>Node14&#45;&gt;Node25</title>
<path fill="none" stroke="midnightblue" d="M1399.47,-616.08C1389.51,-589.83 1360.18,-512.55 1346.74,-477.12"/>
<polygon fill="midnightblue" stroke="midnightblue" points="1349.93,-475.68 1343.11,-467.57 1343.39,-478.16 1349.93,-475.68"/>
</g>
<!-- Node15&#45;&gt;Node13 -->
<g id="edge22" class="edge">
<title>Node15&#45;&gt;Node13</title>
<path fill="none" stroke="midnightblue" d="M1323.35,-560.47C1365.62,-534.38 1485.86,-451.01 1485.86,-347 1485.86,-347 1485.86,-347 1485.86,-233 1485.86,-186.74 1348.58,-150.61 1269.43,-133.62"/>
<polygon fill="midnightblue" stroke="midnightblue" points="1270.12,-130.19 1259.61,-131.55 1268.67,-137.04 1270.12,-130.19"/>
</g>
<!-- Node15&#45;&gt;Node16 -->
<g id="edge21" class="edge">
<title>Node15&#45;&gt;Node16</title>
<path fill="none" stroke="midnightblue" d="M1306.99,-560.49C1304.16,-547.98 1298.42,-523.95 1291.86,-504 1249.41,-374.88 1274.26,-309.83 1168.86,-224 1147.56,-206.66 1119.22,-195.85 1094.26,-189.19"/>
<polygon fill="midnightblue" stroke="midnightblue" points="1095.07,-185.78 1084.52,-186.75 1093.37,-192.57 1095.07,-185.78"/>
</g>
<!-- Node17 -->
<g id="node17" class="node">
<title>Node17</title>
<g id="a_node17"><a xlink:href="_swap_chain_8hpp.html" target="_top" xlink:title=" ">
<polygon fill="none" stroke="black" points="1196.86,-504.5 1196.86,-523.5 1282.86,-523.5 1282.86,-504.5 1196.86,-504.5"/>
<text text-anchor="middle" x="1239.86" y="-511.5" font-family="Helvetica,sans-Serif" font-size="10.00">SwapChain.hpp</text>
</a>
</g>
</g>
<!-- Node15&#45;&gt;Node17 -->
<g id="edge23" class="edge">
<title>Node15&#45;&gt;Node17</title>
<path fill="none" stroke="midnightblue" d="M1297.78,-560.32C1287.38,-552.18 1271.6,-539.84 1259.14,-530.09"/>
<polygon fill="midnightblue" stroke="midnightblue" points="1261.18,-527.24 1251.15,-523.83 1256.87,-532.75 1261.18,-527.24"/>
</g>
<!-- Node17&#45;&gt;Node13 -->
<g id="edge48" class="edge">
<title>Node17&#45;&gt;Node13</title>
<path fill="none" stroke="midnightblue" d="M1283.12,-513.19C1318.39,-510.76 1366.26,-501.01 1390.86,-468 1396.17,-460.87 1392.52,-456.73 1390.86,-448 1365.47,-313.92 1351.22,-273.66 1264.86,-168 1255.94,-157.09 1244.33,-146.47 1234.53,-138.29"/>
<polygon fill="midnightblue" stroke="midnightblue" points="1236.48,-135.36 1226.51,-131.78 1232.07,-140.8 1236.48,-135.36"/>
</g>
<!-- Node17&#45;&gt;Node16 -->
<g id="edge24" class="edge">
<title>Node17&#45;&gt;Node16</title>
<path fill="none" stroke="midnightblue" d="M1239.4,-504.38C1237.39,-472.58 1227.39,-359.57 1183.86,-280 1169.43,-253.61 1169.19,-242.98 1145.86,-224 1126.94,-208.61 1102.03,-197.79 1080.79,-190.63"/>
<polygon fill="midnightblue" stroke="midnightblue" points="1081.61,-187.22 1071.02,-187.5 1079.48,-193.89 1081.61,-187.22"/>
</g>
<!-- Node18 -->
<g id="node18" class="node">
<title>Node18</title>
<g id="a_node18"><a xlink:href="_device_8hpp.html" target="_top" xlink:title=" ">
<polygon fill="none" stroke="black" points="847.86,-392.5 847.86,-411.5 913.86,-411.5 913.86,-392.5 847.86,-392.5"/>
<text text-anchor="middle" x="880.86" y="-399.5" font-family="Helvetica,sans-Serif" font-size="10.00">Device.hpp</text>
</a>
</g>
</g>
<!-- Node17&#45;&gt;Node18 -->
<g id="edge25" class="edge">
<title>Node17&#45;&gt;Node18</title>
<path fill="none" stroke="midnightblue" d="M1196.56,-505.51C1155.47,-497.89 1092.24,-484.82 1038.86,-468 991.89,-453.2 939.39,-430.26 908.29,-415.96"/>
<polygon fill="midnightblue" stroke="midnightblue" points="909.52,-412.67 898.97,-411.64 906.57,-419.02 909.52,-412.67"/>
</g>
<!-- Node17&#45;&gt;Node25 -->
<g id="edge49" class="edge">
<title>Node17&#45;&gt;Node25</title>
<path fill="none" stroke="midnightblue" d="M1255.93,-504.32C1271.82,-495.74 1296.37,-482.49 1314.82,-472.52"/>
<polygon fill="midnightblue" stroke="midnightblue" points="1316.7,-475.49 1323.83,-467.65 1313.37,-469.33 1316.7,-475.49"/>
</g>
<!-- Node18&#45;&gt;Node13 -->
<g id="edge28" class="edge">
<title>Node18&#45;&gt;Node13</title>
<path fill="none" stroke="midnightblue" d="M914.04,-399.81C952.59,-396.93 1016.56,-387.35 1060.86,-356 1141.3,-299.07 1191.08,-185.68 1208.19,-141.36"/>
<polygon fill="midnightblue" stroke="midnightblue" points="1211.51,-142.46 1211.75,-131.87 1204.95,-140 1211.51,-142.46"/>
</g>
<!-- Node18&#45;&gt;Node16 -->
<g id="edge27" class="edge">
<title>Node18&#45;&gt;Node16</title>
<path fill="none" stroke="midnightblue" d="M897.58,-392.5C933.8,-373.68 1017.46,-327.97 1031.86,-300 1048.81,-267.09 1044.81,-222.23 1040.66,-197.41"/>
<polygon fill="midnightblue" stroke="midnightblue" points="1044.09,-196.72 1038.82,-187.53 1037.21,-198 1044.09,-196.72"/>
</g>
<!-- Node19 -->
<g id="node19" class="node">
<title>Node19</title>
<g id="a_node19"><a xlink:title=" ">
<polygon fill="none" stroke="#bfbfbf" points="1011.86,-336.5 1011.86,-355.5 1051.86,-355.5 1051.86,-336.5 1011.86,-336.5"/>
<text text-anchor="middle" x="1031.86" y="-343.5" font-family="Helvetica,sans-Serif" font-size="10.00">utility</text>
</a>
</g>
</g>
<!-- Node18&#45;&gt;Node19 -->
<g id="edge26" class="edge">
<title>Node18&#45;&gt;Node19</title>
<path fill="none" stroke="midnightblue" d="M904.79,-392.44C931.12,-383.03 973.49,-367.87 1001.99,-357.68"/>
<polygon fill="midnightblue" stroke="midnightblue" points="1003.2,-360.97 1011.44,-354.3 1000.84,-354.38 1003.2,-360.97"/>
</g>
<!-- Node20 -->
<g id="node20" class="node">
<title>Node20</title>
<g id="a_node20"><a xlink:href="_instance_8hpp.html" target="_top" xlink:title=" ">
<polygon fill="none" stroke="black" points="445.36,-224.5 445.36,-243.5 518.36,-243.5 518.36,-224.5 445.36,-224.5"/>
<text text-anchor="middle" x="481.86" y="-231.5" font-family="Helvetica,sans-Serif" font-size="10.00">Instance.hpp</text>
</a>
</g>
</g>
<!-- Node18&#45;&gt;Node20 -->
<g id="edge29" class="edge">
<title>Node18&#45;&gt;Node20</title>
<path fill="none" stroke="midnightblue" d="M860.25,-392.42C794.58,-365.1 590.03,-280 512.27,-247.65"/>
<polygon fill="midnightblue" stroke="midnightblue" points="513.17,-244.23 502.59,-243.62 510.48,-250.7 513.17,-244.23"/>
</g>
<!-- Node21 -->
<g id="node21" class="node">
<title>Node21</title>
<g id="a_node21"><a xlink:href="_requestable_item_8hpp.html" target="_top" xlink:title=" ">
<polygon fill="none" stroke="black" points="222.86,-168.5 222.86,-187.5 332.86,-187.5 332.86,-168.5 222.86,-168.5"/>
<text text-anchor="middle" x="277.86" y="-175.5" font-family="Helvetica,sans-Serif" font-size="10.00">RequestableItem.hpp</text>
</a>
</g>
</g>
<!-- Node18&#45;&gt;Node21 -->
<g id="edge46" class="edge">
<title>Node18&#45;&gt;Node21</title>
<path fill="none" stroke="midnightblue" d="M847.69,-393.98C765.53,-375.88 547.1,-323.45 378.86,-244 348.78,-229.79 316.96,-208.04 297.25,-193.67"/>
<polygon fill="midnightblue" stroke="midnightblue" points="299.22,-190.78 289.1,-187.64 295.06,-196.41 299.22,-190.78"/>
</g>
<!-- Node22 -->
<g id="node22" class="node">
<title>Node22</title>
<g id="a_node22"><a xlink:href="_physical_device_8hpp.html" target="_top" xlink:title=" ">
<polygon fill="none" stroke="black" points="813.86,-336.5 813.86,-355.5 917.86,-355.5 917.86,-336.5 813.86,-336.5"/>
<text text-anchor="middle" x="865.86" y="-343.5" font-family="Helvetica,sans-Serif" font-size="10.00">PhysicalDevice.hpp</text>
</a>
</g>
</g>
<!-- Node18&#45;&gt;Node22 -->
<g id="edge37" class="edge">
<title>Node18&#45;&gt;Node22</title>
<path fill="none" stroke="midnightblue" d="M878.38,-392.08C876.38,-384.85 873.48,-374.41 870.97,-365.4"/>
<polygon fill="midnightblue" stroke="midnightblue" points="874.34,-364.45 868.29,-355.75 867.6,-366.32 874.34,-364.45"/>
</g>
<!-- Node24 -->
<g id="node24" class="node">
<title>Node24</title>
<g id="a_node24"><a xlink:href="_surface_8hpp.html" target="_top" xlink:title=" ">
<polygon fill="none" stroke="black" points="700.36,-280.5 700.36,-299.5 769.36,-299.5 769.36,-280.5 700.36,-280.5"/>
<text text-anchor="middle" x="734.86" y="-287.5" font-family="Helvetica,sans-Serif" font-size="10.00">Surface.hpp</text>
</a>
</g>
</g>
<!-- Node18&#45;&gt;Node24 -->
<g id="edge47" class="edge">
<title>Node18&#45;&gt;Node24</title>
<path fill="none" stroke="midnightblue" d="M864.21,-392.48C848.36,-384.07 824.15,-370.41 804.86,-356 784.65,-340.9 763.74,-320.79 750.1,-306.96"/>
<polygon fill="midnightblue" stroke="midnightblue" points="752.45,-304.36 742.97,-299.63 747.43,-309.24 752.45,-304.36"/>
</g>
<!-- Node20&#45;&gt;Node3 -->
<g id="edge31" class="edge">
<title>Node20&#45;&gt;Node3</title>
<path fill="none" stroke="midnightblue" d="M485.75,-224.45C492.52,-210.54 507.77,-183.04 528.86,-168 624.17,-100.01 766,-77.08 829.31,-69.95"/>
<polygon fill="midnightblue" stroke="midnightblue" points="829.91,-73.41 839.48,-68.87 829.17,-66.44 829.91,-73.41"/>
</g>
<!-- Node20&#45;&gt;Node10 -->
<g id="edge36" class="edge">
<title>Node20&#45;&gt;Node10</title>
<path fill="none" stroke="midnightblue" d="M474.1,-224.08C467.32,-216.3 457.32,-204.8 449.11,-195.37"/>
<polygon fill="midnightblue" stroke="midnightblue" points="451.68,-193 442.48,-187.75 446.4,-197.59 451.68,-193"/>
</g>
<!-- Node20&#45;&gt;Node11 -->
<g id="edge30" class="edge">
<title>Node20&#45;&gt;Node11</title>
<path fill="none" stroke="midnightblue" d="M459.92,-224.45C438.95,-216.02 406.65,-202.34 379.86,-188 350.64,-172.36 318.68,-151.3 298.47,-137.45"/>
<polygon fill="midnightblue" stroke="midnightblue" points="300.27,-134.44 290.06,-131.63 296.29,-140.2 300.27,-134.44"/>
</g>
<!-- Node20&#45;&gt;Node13 -->
<g id="edge33" class="edge">
<title>Node20&#45;&gt;Node13</title>
<path fill="none" stroke="midnightblue" d="M490.21,-224.29C504.91,-209.61 537.07,-180.34 570.86,-168 673.35,-130.56 992.46,-124.04 1139.4,-123.06"/>
<polygon fill="midnightblue" stroke="midnightblue" points="1139.7,-126.56 1149.68,-123 1139.66,-119.56 1139.7,-126.56"/>
</g>
<!-- Node20&#45;&gt;Node16 -->
<g id="edge32" class="edge">
<title>Node20&#45;&gt;Node16</title>
<path fill="none" stroke="midnightblue" d="M518.71,-229.42C613.2,-220.22 864.75,-195.75 978.98,-184.63"/>
<polygon fill="midnightblue" stroke="midnightblue" points="979.66,-188.08 989.27,-183.63 978.98,-181.12 979.66,-188.08"/>
</g>
<!-- Node20&#45;&gt;Node21 -->
<g id="edge34" class="edge">
<title>Node20&#45;&gt;Node21</title>
<path fill="none" stroke="midnightblue" d="M449.54,-224.44C414.47,-215.16 358.36,-200.31 319.9,-190.13"/>
<polygon fill="midnightblue" stroke="midnightblue" points="320.6,-186.69 310.03,-187.52 318.81,-193.46 320.6,-186.69"/>
</g>
<!-- Node21&#45;&gt;Node11 -->
<g id="edge35" class="edge">
<title>Node21&#45;&gt;Node11</title>
<path fill="none" stroke="midnightblue" d="M277.86,-168.08C277.86,-161.01 277.86,-150.86 277.86,-141.99"/>
<polygon fill="midnightblue" stroke="midnightblue" points="281.36,-141.75 277.86,-131.75 274.36,-141.75 281.36,-141.75"/>
</g>
<!-- Node22&#45;&gt;Node16 -->
<g id="edge39" class="edge">
<title>Node22&#45;&gt;Node16</title>
<path fill="none" stroke="midnightblue" d="M895.18,-336.37C915.49,-329.23 942.15,-317.4 960.86,-300 989.28,-273.57 982.79,-256.59 1003.86,-224 1010.04,-214.44 1017.5,-204.18 1023.76,-195.87"/>
<polygon fill="midnightblue" stroke="midnightblue" points="1026.68,-197.82 1029.97,-187.75 1021.12,-193.57 1026.68,-197.82"/>
</g>
<!-- Node22&#45;&gt;Node21 -->
<g id="edge45" class="edge">
<title>Node22&#45;&gt;Node21</title>
<path fill="none" stroke="midnightblue" d="M818.74,-336.49C738.91,-321.51 572.4,-287.81 435.86,-244 388.97,-228.95 336.44,-206.08 305.31,-191.87"/>
<polygon fill="midnightblue" stroke="midnightblue" points="306.54,-188.58 295.99,-187.58 303.61,-194.94 306.54,-188.58"/>
</g>
<!-- Node23 -->
<g id="node23" class="node">
<title>Node23</title>
<g id="a_node23"><a xlink:title=" ">
<polygon fill="none" stroke="#bfbfbf" points="901.86,-280.5 901.86,-299.5 951.86,-299.5 951.86,-280.5 901.86,-280.5"/>
<text text-anchor="middle" x="926.86" y="-287.5" font-family="Helvetica,sans-Serif" font-size="10.00">optional</text>
</a>
</g>
</g>
<!-- Node22&#45;&gt;Node23 -->
<g id="edge38" class="edge">
<title>Node22&#45;&gt;Node23</title>
<path fill="none" stroke="midnightblue" d="M875.66,-336.32C884.68,-328.34 898.27,-316.31 909.18,-306.65"/>
<polygon fill="midnightblue" stroke="midnightblue" points="911.71,-309.08 916.88,-299.83 907.07,-303.84 911.71,-309.08"/>
</g>
<!-- Node22&#45;&gt;Node24 -->
<g id="edge40" class="edge">
<title>Node22&#45;&gt;Node24</title>
<path fill="none" stroke="midnightblue" d="M845.1,-336.44C823.55,-327.56 789.6,-313.56 765.07,-303.45"/>
<polygon fill="midnightblue" stroke="midnightblue" points="766.1,-300.09 755.52,-299.52 763.43,-306.56 766.1,-300.09"/>
</g>
<!-- Node24&#45;&gt;Node10 -->
<g id="edge42" class="edge">
<title>Node24&#45;&gt;Node10</title>
<path fill="none" stroke="midnightblue" d="M711.32,-280.37C658.2,-260.89 528.9,-213.48 467.83,-191.09"/>
<polygon fill="midnightblue" stroke="midnightblue" points="468.89,-187.75 458.29,-187.59 466.48,-194.32 468.89,-187.75"/>
</g>
<!-- Node24&#45;&gt;Node13 -->
<g id="edge43" class="edge">
<title>Node24&#45;&gt;Node13</title>
<path fill="none" stroke="midnightblue" d="M736.81,-280.39C740.42,-266.4 749.54,-238.78 767.86,-224 824.37,-178.39 1027.59,-146.47 1139.54,-131.91"/>
<polygon fill="midnightblue" stroke="midnightblue" points="1140.28,-135.34 1149.75,-130.6 1139.39,-128.4 1140.28,-135.34"/>
</g>
<!-- Node24&#45;&gt;Node16 -->
<g id="edge41" class="edge">
<title>Node24&#45;&gt;Node16</title>
<path fill="none" stroke="midnightblue" d="M740.77,-280.19C750.86,-265.89 772.87,-237.86 798.86,-224 855.27,-193.91 928.61,-183.69 978.89,-180.35"/>
<polygon fill="midnightblue" stroke="midnightblue" points="979.16,-183.84 988.94,-179.75 978.75,-176.85 979.16,-183.84"/>
</g>
<!-- Node24&#45;&gt;Node20 -->
<g id="edge44" class="edge">
<title>Node24&#45;&gt;Node20</title>
<path fill="none" stroke="midnightblue" d="M700.21,-281.6C655.65,-272.09 578.08,-255.54 528.4,-244.93"/>
<polygon fill="midnightblue" stroke="midnightblue" points="529.06,-241.49 518.55,-242.83 527.6,-248.34 529.06,-241.49"/>
</g>
<!-- Node25&#45;&gt;Node13 -->
<g id="edge50" class="edge">
<title>Node25&#45;&gt;Node13</title>
<path fill="none" stroke="midnightblue" d="M1341.22,-448.1C1342.89,-435.51 1345.13,-411.83 1341.86,-392 1324.86,-288.94 1255.45,-180.83 1227.06,-139.97"/>
<polygon fill="midnightblue" stroke="midnightblue" points="1229.84,-137.83 1221.21,-131.68 1224.12,-141.87 1229.84,-137.83"/>
</g>
<!-- Node25&#45;&gt;Node16 -->
<g id="edge52" class="edge">
<title>Node25&#45;&gt;Node16</title>
<path fill="none" stroke="midnightblue" d="M1338.46,-448.33C1332.31,-413.26 1304.19,-281.13 1221.86,-224 1184.34,-197.97 1133.44,-186.93 1094.53,-182.28"/>
<polygon fill="midnightblue" stroke="midnightblue" points="1094.72,-178.78 1084.4,-181.18 1093.96,-185.74 1094.72,-178.78"/>
</g>
<!-- Node25&#45;&gt;Node18 -->
<g id="edge51" class="edge">
<title>Node25&#45;&gt;Node18</title>
<path fill="none" stroke="midnightblue" d="M1298.32,-452.11C1211.69,-441.92 1012.51,-418.49 924.28,-408.11"/>
<polygon fill="midnightblue" stroke="midnightblue" points="924.43,-404.6 914.09,-406.91 923.61,-411.55 924.43,-404.6"/>
</g>
<!-- Node26&#45;&gt;Node13 -->
<g id="edge57" class="edge">
<title>Node26&#45;&gt;Node13</title>
<path fill="none" stroke="midnightblue" d="M1261.81,-616.46C1341.07,-595.26 1523.86,-532.35 1523.86,-403 1523.86,-403 1523.86,-403 1523.86,-233 1523.86,-183.3 1478.41,-187.9 1432.86,-168 1405.75,-156.15 1333.07,-142.38 1279.04,-133.22"/>
<polygon fill="midnightblue" stroke="midnightblue" points="1279.28,-129.71 1268.84,-131.51 1278.12,-136.62 1279.28,-129.71"/>
</g>
<!-- Node26&#45;&gt;Node15 -->
<g id="edge62" class="edge">
<title>Node26&#45;&gt;Node15</title>
<path fill="none" stroke="midnightblue" d="M1239.2,-616.32C1252.02,-607.98 1271.65,-595.21 1286.8,-585.35"/>
<polygon fill="midnightblue" stroke="midnightblue" points="1289.09,-588.04 1295.56,-579.65 1285.27,-582.17 1289.09,-588.04"/>
</g>
<!-- Node26&#45;&gt;Node16 -->
<g id="edge56" class="edge">
<title>Node26&#45;&gt;Node16</title>
<path fill="none" stroke="midnightblue" d="M1222.61,-616.36C1200.8,-558.44 1076.59,-228.7 1073.86,-224 1067.85,-213.63 1059.48,-203.22 1052.22,-195.03"/>
<polygon fill="midnightblue" stroke="midnightblue" points="1054.79,-192.66 1045.45,-187.66 1049.64,-197.39 1054.79,-192.66"/>
</g>
<!-- Node26&#45;&gt;Node17 -->
<g id="edge73" class="edge">
<title>Node26&#45;&gt;Node17</title>
<path fill="none" stroke="midnightblue" d="M1226.96,-616.37C1229.22,-598.62 1234.43,-557.67 1237.49,-533.6"/>
<polygon fill="midnightblue" stroke="midnightblue" points="1240.98,-533.95 1238.77,-523.59 1234.03,-533.07 1240.98,-533.95"/>
</g>
<!-- Node27 -->
<g id="node27" class="node">
<title>Node27</title>
<g id="a_node27"><a xlink:href="_pipeline_layout_8hpp.html" target="_top" xlink:title=" ">
<polygon fill="none" stroke="black" points="1047.36,-448.5 1047.36,-467.5 1146.36,-467.5 1146.36,-448.5 1047.36,-448.5"/>
<text text-anchor="middle" x="1096.86" y="-455.5" font-family="Helvetica,sans-Serif" font-size="10.00">PipelineLayout.hpp</text>
</a>
</g>
</g>
<!-- Node26&#45;&gt;Node27 -->
<g id="edge58" class="edge">
<title>Node26&#45;&gt;Node27</title>
<path fill="none" stroke="midnightblue" d="M1206.27,-616.35C1190.7,-608.66 1169.21,-596.15 1154.86,-580 1127.37,-549.05 1110.1,-502.77 1102.1,-477.35"/>
<polygon fill="midnightblue" stroke="midnightblue" points="1105.39,-476.12 1099.16,-467.55 1098.69,-478.14 1105.39,-476.12"/>
</g>
<!-- Node28 -->
<g id="node28" class="node">
<title>Node28</title>
<g id="a_node28"><a xlink:href="_shader_8hpp.html" target="_top" xlink:title=" ">
<polygon fill="none" stroke="black" points="419.36,-448.5 419.36,-467.5 484.36,-467.5 484.36,-448.5 419.36,-448.5"/>
<text text-anchor="middle" x="451.86" y="-455.5" font-family="Helvetica,sans-Serif" font-size="10.00">Shader.hpp</text>
</a>
</g>
</g>
<!-- Node26&#45;&gt;Node28 -->
<g id="edge63" class="edge">
<title>Node26&#45;&gt;Node28</title>
<path fill="none" stroke="midnightblue" d="M1186.15,-616.48C1054.17,-588.18 630.92,-497.4 494.6,-468.17"/>
<polygon fill="midnightblue" stroke="midnightblue" points="495.05,-464.68 484.54,-466.01 493.59,-471.53 495.05,-464.68"/>
</g>
<!-- Node27&#45;&gt;Node13 -->
<g id="edge61" class="edge">
<title>Node27&#45;&gt;Node13</title>
<path fill="none" stroke="midnightblue" d="M1101.34,-448.47C1118.29,-415.77 1178.96,-294.91 1206.86,-188 1210.86,-172.68 1212.87,-154.8 1213.88,-141.68"/>
<polygon fill="midnightblue" stroke="midnightblue" points="1217.38,-141.75 1214.53,-131.55 1210.4,-141.3 1217.38,-141.75"/>
</g>
<!-- Node27&#45;&gt;Node16 -->
<g id="edge59" class="edge">
<title>Node27&#45;&gt;Node16</title>
<path fill="none" stroke="midnightblue" d="M1096.26,-448.34C1093.93,-417.31 1084.27,-308.99 1057.86,-224 1054.95,-214.63 1050.48,-204.71 1046.41,-196.57"/>
<polygon fill="midnightblue" stroke="midnightblue" points="1049.51,-194.93 1041.78,-187.68 1043.3,-198.17 1049.51,-194.93"/>
</g>
<!-- Node27&#45;&gt;Node18 -->
<g id="edge60" class="edge">
<title>Node27&#45;&gt;Node18</title>
<path fill="none" stroke="midnightblue" d="M1062.64,-448.44C1025.02,-439.04 964.54,-423.92 923.78,-413.73"/>
<polygon fill="midnightblue" stroke="midnightblue" points="924.42,-410.28 913.86,-411.25 922.72,-417.07 924.42,-410.28"/>
</g>
<!-- Node28&#45;&gt;Node3 -->
<g id="edge66" class="edge">
<title>Node28&#45;&gt;Node3</title>
<path fill="none" stroke="midnightblue" d="M419.04,-454.97C323.92,-448.19 54.86,-422.36 54.86,-347 54.86,-347 54.86,-347 54.86,-177 54.86,-165.35 -135.62,-196.53 194.86,-112 317.26,-80.69 713.85,-70.09 829.76,-67.62"/>
<polygon fill="midnightblue" stroke="midnightblue" points="829.86,-71.12 839.78,-67.41 829.71,-64.12 829.86,-71.12"/>
</g>
<!-- Node28&#45;&gt;Node11 -->
<g id="edge65" class="edge">
<title>Node28&#45;&gt;Node11</title>
<path fill="none" stroke="midnightblue" d="M419.31,-457.43C350.16,-456.48 194.86,-443.58 194.86,-347 194.86,-347 194.86,-347 194.86,-233 194.86,-202.9 196.34,-192.48 213.86,-168 223.28,-154.85 237.78,-144.19 250.6,-136.56"/>
<polygon fill="midnightblue" stroke="midnightblue" points="252.54,-139.49 259.55,-131.54 249.11,-133.38 252.54,-139.49"/>
</g>
<!-- Node28&#45;&gt;Node13 -->
<g id="edge72" class="edge">
<title>Node28&#45;&gt;Node13</title>
<path fill="none" stroke="midnightblue" d="M446.3,-448.49C438.62,-435.56 426.79,-410.52 436.86,-392 458.74,-351.77 739.67,-183.24 782.86,-168 846.69,-145.48 1033.44,-132.42 1139.32,-126.62"/>
<polygon fill="midnightblue" stroke="midnightblue" points="1139.83,-130.1 1149.62,-126.06 1139.45,-123.11 1139.83,-130.1"/>
</g>
<!-- Node28&#45;&gt;Node16 -->
<g id="edge67" class="edge">
<title>Node28&#45;&gt;Node16</title>
<path fill="none" stroke="midnightblue" d="M484.58,-451.16C585.49,-432.99 887.45,-377.4 926.86,-356 989.37,-322.06 1020.74,-235.86 1031.94,-197.69"/>
<polygon fill="midnightblue" stroke="midnightblue" points="1035.36,-198.45 1034.67,-187.88 1028.62,-196.57 1035.36,-198.45"/>
</g>
<!-- Node28&#45;&gt;Node18 -->
<g id="edge71" class="edge">
<title>Node28&#45;&gt;Node18</title>
<path fill="none" stroke="midnightblue" d="M484.62,-451.18C491.31,-450.06 498.3,-448.95 504.86,-448 625.08,-430.61 767.63,-414.88 837.65,-407.47"/>
<polygon fill="midnightblue" stroke="midnightblue" points="838.27,-410.93 847.85,-406.4 837.54,-403.97 838.27,-410.93"/>
</g>
<!-- Node29 -->
<g id="node29" class="node">
<title>Node29</title>
<g id="a_node29"><a xlink:title=" ">
<polygon fill="none" stroke="#bfbfbf" points="445.86,-392.5 445.86,-411.5 491.86,-411.5 491.86,-392.5 445.86,-392.5"/>
<text text-anchor="middle" x="468.86" y="-399.5" font-family="Helvetica,sans-Serif" font-size="10.00">cstdint</text>
</a>
</g>
</g>
<!-- Node28&#45;&gt;Node29 -->
<g id="edge64" class="edge">
<title>Node28&#45;&gt;Node29</title>
<path fill="none" stroke="midnightblue" d="M454.67,-448.08C456.95,-440.85 460.23,-430.41 463.07,-421.4"/>
<polygon fill="midnightblue" stroke="midnightblue" points="466.44,-422.34 466.11,-411.75 459.77,-420.24 466.44,-422.34"/>
</g>
<!-- Node30 -->
<g id="node30" class="node">
<title>Node30</title>
<g id="a_node30"><a xlink:href="_asset_8hpp.html" target="_top" xlink:title=" ">
<polygon fill="none" stroke="black" points="83.36,-168.5 83.36,-187.5 166.36,-187.5 166.36,-168.5 83.36,-168.5"/>
<text text-anchor="middle" x="124.86" y="-175.5" font-family="Helvetica,sans-Serif" font-size="10.00">york/Asset.hpp</text>
</a>
</g>
</g>
<!-- Node28&#45;&gt;Node30 -->
<g id="edge68" class="edge">
<title>Node28&#45;&gt;Node30</title>
<path fill="none" stroke="midnightblue" d="M419.12,-454.94C355.79,-450.41 219.35,-437.88 180.86,-412 152.71,-393.08 140.86,-380.92 140.86,-347 140.86,-347 140.86,-347 140.86,-289 140.86,-256.63 133.99,-219.44 129.25,-197.66"/>
<polygon fill="midnightblue" stroke="midnightblue" points="132.64,-196.76 127.02,-187.78 125.81,-198.3 132.64,-196.76"/>
</g>
<!-- Node30&#45;&gt;Node3 -->
<g id="edge70" class="edge">
<title>Node30&#45;&gt;Node3</title>
<path fill="none" stroke="midnightblue" d="M137.05,-168.33C158.34,-153.71 204.22,-124.53 247.86,-112 358.71,-80.16 719.03,-70.02 829.42,-67.63"/>
<polygon fill="midnightblue" stroke="midnightblue" points="829.67,-71.12 839.59,-67.41 829.52,-64.12 829.67,-71.12"/>
</g>
<!-- Node30&#45;&gt;Node11 -->
<g id="edge69" class="edge">
<title>Node30&#45;&gt;Node11</title>
<path fill="none" stroke="midnightblue" d="M149.1,-168.44C175.79,-159.03 218.72,-143.87 247.59,-133.68"/>
<polygon fill="midnightblue" stroke="midnightblue" points="248.9,-136.93 257.17,-130.3 246.57,-130.33 248.9,-136.93"/>
</g>
<!-- Node31&#45;&gt;Node13 -->
<g id="edge76" class="edge">
<title>Node31&#45;&gt;Node13</title>
<path fill="none" stroke="midnightblue" d="M593.41,-448.44C582.73,-409.14 544.48,-244.75 627.86,-168 664.73,-134.06 989.62,-125.71 1139.59,-123.66"/>
<polygon fill="midnightblue" stroke="midnightblue" points="1139.69,-127.16 1149.64,-123.53 1139.6,-120.16 1139.69,-127.16"/>
</g>
<!-- Node31&#45;&gt;Node16 -->
<g id="edge75" class="edge">
<title>Node31&#45;&gt;Node16</title>
<path fill="none" stroke="midnightblue" d="M606.1,-448.32C653.63,-408.06 851.83,-240.81 883.86,-224 914.26,-208.05 951.1,-197 981.02,-189.84"/>
<polygon fill="midnightblue" stroke="midnightblue" points="981.92,-193.22 990.87,-187.55 980.34,-186.4 981.92,-193.22"/>
</g>
<!-- Node31&#45;&gt;Node18 -->
<g id="edge77" class="edge">
<title>Node31&#45;&gt;Node18</title>
<path fill="none" stroke="midnightblue" d="M641.02,-448.44C694.88,-438.24 784.27,-421.3 837.37,-411.24"/>
<polygon fill="midnightblue" stroke="midnightblue" points="838.32,-414.62 847.49,-409.32 837.01,-407.75 838.32,-414.62"/>
</g>
<!-- Node32&#45;&gt;Node13 -->
<g id="edge79" class="edge">
<title>Node32&#45;&gt;Node13</title>
<path fill="none" stroke="midnightblue" d="M761.09,-448.29C719.65,-410.35 564.24,-257.43 646.86,-168 679.62,-132.55 992.63,-125 1139.49,-123.41"/>
<polygon fill="midnightblue" stroke="midnightblue" points="1139.8,-126.91 1149.77,-123.31 1139.73,-119.91 1139.8,-126.91"/>
</g>
<!-- Node32&#45;&gt;Node16 -->
<g id="edge81" class="edge">
<title>Node32&#45;&gt;Node16</title>
<path fill="none" stroke="midnightblue" d="M770.92,-448.23C771.39,-427.47 774.65,-374.25 794.86,-336 837.24,-255.8 940.79,-210.49 997.74,-190.85"/>
<polygon fill="midnightblue" stroke="midnightblue" points="999.1,-194.09 1007.47,-187.59 996.88,-187.45 999.1,-194.09"/>
</g>
<!-- Node32&#45;&gt;Node18 -->
<g id="edge80" class="edge">
<title>Node32&#45;&gt;Node18</title>
<path fill="none" stroke="midnightblue" d="M788.53,-448.32C806.26,-439.62 833.76,-426.12 854.15,-416.11"/>
<polygon fill="midnightblue" stroke="midnightblue" points="855.8,-419.2 863.23,-411.65 852.71,-412.92 855.8,-419.2"/>
</g>
<!-- Node33&#45;&gt;Node14 -->
<g id="edge89" class="edge">
<title>Node33&#45;&gt;Node14</title>
<path fill="none" stroke="midnightblue" d="M969,-673.12C1061.56,-663.28 1219.56,-646.48 1317.2,-636.11"/>
<polygon fill="midnightblue" stroke="midnightblue" points="1317.76,-639.57 1327.33,-635.03 1317.02,-632.61 1317.76,-639.57"/>
</g>
<!-- Node33&#45;&gt;Node17 -->
<g id="edge90" class="edge">
<title>Node33&#45;&gt;Node17</title>
<path fill="none" stroke="midnightblue" d="M912.92,-672.31C969.75,-644.97 1145.09,-560.6 1212.8,-528.02"/>
<polygon fill="midnightblue" stroke="midnightblue" points="1214.48,-531.09 1221.98,-523.61 1211.45,-524.79 1214.48,-531.09"/>
</g>
<!-- Node33&#45;&gt;Node31 -->
<g id="edge84" class="edge">
<title>Node33&#45;&gt;Node31</title>
<path fill="none" stroke="midnightblue" d="M885.41,-672.22C856.06,-645.19 763.33,-561.6 677.86,-504 660.19,-492.09 639.08,-480.56 622.71,-472.16"/>
<polygon fill="midnightblue" stroke="midnightblue" points="624.18,-468.98 613.68,-467.59 621.03,-475.23 624.18,-468.98"/>
</g>
<!-- Node33&#45;&gt;Node32 -->
<g id="edge83" class="edge">
<title>Node33&#45;&gt;Node32</title>
<path fill="none" stroke="midnightblue" d="M893.4,-672.46C888.45,-645.44 870.24,-560.28 828.86,-504 819.72,-491.56 806.24,-480.82 794.58,-472.95"/>
<polygon fill="midnightblue" stroke="midnightblue" points="796.43,-469.98 786.12,-467.52 792.64,-475.87 796.43,-469.98"/>
</g>
<!-- Node34 -->
<g id="node34" class="node">
<title>Node34</title>
<g id="a_node34"><a xlink:href="_fence_8hpp.html" target="_top" xlink:title=" ">
<polygon fill="none" stroke="black" points="863.86,-448.5 863.86,-467.5 925.86,-467.5 925.86,-448.5 863.86,-448.5"/>
<text text-anchor="middle" x="894.86" y="-455.5" font-family="Helvetica,sans-Serif" font-size="10.00">Fence.hpp</text>
</a>
</g>
</g>
<!-- Node33&#45;&gt;Node34 -->
<g id="edge85" class="edge">
<title>Node33&#45;&gt;Node34</title>
<path fill="none" stroke="midnightblue" d="M894.86,-672.3C894.86,-639.63 894.86,-523.87 894.86,-477.96"/>
<polygon fill="midnightblue" stroke="midnightblue" points="898.36,-477.88 894.86,-467.88 891.36,-477.88 898.36,-477.88"/>
</g>
<!-- Node34&#45;&gt;Node13 -->
<g id="edge87" class="edge">
<title>Node34&#45;&gt;Node13</title>
<path fill="none" stroke="midnightblue" d="M866.8,-448.37C803.17,-427.09 656.11,-367.42 691.86,-280 724.17,-201 766.69,-194.37 847.86,-168 945.24,-136.36 1063.74,-126.68 1139.24,-123.88"/>
<polygon fill="midnightblue" stroke="midnightblue" points="1139.72,-127.36 1149.6,-123.52 1139.49,-120.37 1139.72,-127.36"/>
</g>
<!-- Node34&#45;&gt;Node16 -->
<g id="edge86" class="edge">
<title>Node34&#45;&gt;Node16</title>
<path fill="none" stroke="midnightblue" d="M879.35,-448.23C847.69,-429.13 780.56,-381.79 804.86,-336 810.75,-324.91 958.1,-229.55 1014.86,-193.09"/>
<polygon fill="midnightblue" stroke="midnightblue" points="1016.93,-195.92 1023.45,-187.58 1013.15,-190.03 1016.93,-195.92"/>
</g>
<!-- Node34&#45;&gt;Node18 -->
<g id="edge88" class="edge">
<title>Node34&#45;&gt;Node18</title>
<path fill="none" stroke="midnightblue" d="M892.55,-448.08C890.69,-440.93 888.03,-430.64 885.71,-421.69"/>
<polygon fill="midnightblue" stroke="midnightblue" points="889.03,-420.55 883.13,-411.75 882.25,-422.31 889.03,-420.55"/>
</g>
</g>
</svg>
