<?xml version="1.0" encoding="UTF-8" standalone="no"?>
<!DOCTYPE svg PUBLIC "-//W3C//DTD SVG 1.1//EN"
 "http://www.w3.org/Graphics/SVG/1.1/DTD/svg11.dtd">
<!-- Generated by graphviz version 2.50.0 (20211204.2007)
 -->
<!-- Title: include/york/Graphics/RenderPass.hpp Pages: 1 -->
<svg width="667pt" height="599pt"
 viewBox="0.00 0.00 667.00 599.00" xmlns="http://www.w3.org/2000/svg" xmlns:xlink="http://www.w3.org/1999/xlink">
<g id="graph0" class="graph" transform="scale(1 1) rotate(0) translate(4 595)">
<title>include/york/Graphics/RenderPass.hpp</title>
<!-- Node1 -->
<g id="node1" class="node">
<title>Node1</title>
<g id="a_node1"><a xlink:title=" ">
<polygon fill="#bfbfbf" stroke="black" points="269.5,-560.5 269.5,-590.5 380.5,-590.5 380.5,-560.5 269.5,-560.5"/>
<text text-anchor="start" x="277.5" y="-578.5" font-family="Helvetica,sans-Serif" font-size="10.00">include/york/Graphics</text>
<text text-anchor="middle" x="325" y="-567.5" font-family="Helvetica,sans-Serif" font-size="10.00">/RenderPass.hpp</text>
</a>
</g>
</g>
<!-- Node2 -->
<g id="node2" class="node">
<title>Node2</title>
<g id="a_node2"><a xlink:title=" ">
<polygon fill="none" stroke="#bfbfbf" points="532.5,-168.5 532.5,-187.5 627.5,-187.5 627.5,-168.5 532.5,-168.5"/>
<text text-anchor="middle" x="580" y="-175.5" font-family="Helvetica,sans-Serif" font-size="10.00">vulkan/vulkan.hpp</text>
</a>
</g>
</g>
<!-- Node1&#45;&gt;Node2 -->
<g id="edge1" class="edge">
<title>Node1&#45;&gt;Node2</title>
<path fill="none" stroke="midnightblue" d="M380.53,-566.99C475.5,-552.58 659,-517.21 659,-459 659,-459 659,-459 659,-289 659,-248.79 623.75,-213.22 600.34,-194.03"/>
<polygon fill="midnightblue" stroke="midnightblue" points="602.36,-191.17 592.34,-187.72 598.03,-196.66 602.36,-191.17"/>
</g>
<!-- Node3 -->
<g id="node3" class="node">
<title>Node3</title>
<g id="a_node3"><a xlink:href="_handle_8hpp.html" target="_top" xlink:title="Contains the declarations for the Handle classes which form the basis of our Vulkan implementation.">
<polygon fill="none" stroke="black" points="92,-112.5 92,-131.5 158,-131.5 158,-112.5 92,-112.5"/>
<text text-anchor="middle" x="125" y="-119.5" font-family="Helvetica,sans-Serif" font-size="10.00">Handle.hpp</text>
</a>
</g>
</g>
<!-- Node1&#45;&gt;Node3 -->
<g id="edge2" class="edge">
<title>Node1&#45;&gt;Node3</title>
<path fill="none" stroke="midnightblue" d="M269.5,-566.48C176.68,-551.48 0,-515.51 0,-459 0,-459 0,-459 0,-233 0,-184.17 54.42,-151.89 91.44,-135.58"/>
<polygon fill="midnightblue" stroke="midnightblue" points="93.05,-138.7 100.9,-131.59 90.32,-132.25 93.05,-138.7"/>
</g>
<!-- Node8 -->
<g id="node8" class="node">
<title>Node8</title>
<g id="a_node8"><a xlink:href="_swap_chain_8hpp.html" target="_top" xlink:title=" ">
<polygon fill="none" stroke="black" points="282,-504.5 282,-523.5 368,-523.5 368,-504.5 282,-504.5"/>
<text text-anchor="middle" x="325" y="-511.5" font-family="Helvetica,sans-Serif" font-size="10.00">SwapChain.hpp</text>
</a>
</g>
</g>
<!-- Node1&#45;&gt;Node8 -->
<g id="edge7" class="edge">
<title>Node1&#45;&gt;Node8</title>
<path fill="none" stroke="midnightblue" d="M325,-560.4C325,-552.47 325,-542.46 325,-533.86"/>
<polygon fill="midnightblue" stroke="midnightblue" points="328.5,-533.66 325,-523.66 321.5,-533.66 328.5,-533.66"/>
</g>
<!-- Node4 -->
<g id="node4" class="node">
<title>Node4</title>
<g id="a_node4"><a xlink:title=" ">
<polygon fill="none" stroke="#bfbfbf" points="283,-56.5 283,-75.5 327,-75.5 327,-56.5 283,-56.5"/>
<text text-anchor="middle" x="305" y="-63.5" font-family="Helvetica,sans-Serif" font-size="10.00">vector</text>
</a>
</g>
</g>
<!-- Node3&#45;&gt;Node4 -->
<g id="edge3" class="edge">
<title>Node3&#45;&gt;Node4</title>
<path fill="none" stroke="midnightblue" d="M153.52,-112.44C186.04,-102.69 239.08,-86.78 272.99,-76.6"/>
<polygon fill="midnightblue" stroke="midnightblue" points="274.28,-79.87 282.85,-73.64 272.27,-73.17 274.28,-79.87"/>
</g>
<!-- Node5 -->
<g id="node5" class="node">
<title>Node5</title>
<g id="a_node5"><a xlink:title=" ">
<polygon fill="none" stroke="#bfbfbf" points="145.5,-56.5 145.5,-75.5 204.5,-75.5 204.5,-56.5 145.5,-56.5"/>
<text text-anchor="middle" x="175" y="-63.5" font-family="Helvetica,sans-Serif" font-size="10.00">functional</text>
</a>
</g>
</g>
<!-- Node3&#45;&gt;Node5 -->
<g id="edge4" class="edge">
<title>Node3&#45;&gt;Node5</title>
<path fill="none" stroke="midnightblue" d="M133.26,-112.08C140.46,-104.3 151.11,-92.8 159.85,-83.37"/>
<polygon fill="midnightblue" stroke="midnightblue" points="162.67,-85.47 166.9,-75.75 157.53,-80.71 162.67,-85.47"/>
</g>
<!-- Node6 -->
<g id="node6" class="node">
<title>Node6</title>
<g id="a_node6"><a xlink:href="_identifiable_8hpp.html" target="_top" xlink:title=" ">
<polygon fill="none" stroke="black" points="23,-56.5 23,-75.5 127,-75.5 127,-56.5 23,-56.5"/>
<text text-anchor="middle" x="75" y="-63.5" font-family="Helvetica,sans-Serif" font-size="10.00">york/Identifiable.hpp</text>
</a>
</g>
</g>
<!-- Node3&#45;&gt;Node6 -->
<g id="edge5" class="edge">
<title>Node3&#45;&gt;Node6</title>
<path fill="none" stroke="midnightblue" d="M116.74,-112.08C109.54,-104.3 98.89,-92.8 90.15,-83.37"/>
<polygon fill="midnightblue" stroke="midnightblue" points="92.47,-80.71 83.1,-75.75 87.33,-85.47 92.47,-80.71"/>
</g>
<!-- Node7 -->
<g id="node7" class="node">
<title>Node7</title>
<g id="a_node7"><a xlink:title=" ">
<polygon fill="none" stroke="#bfbfbf" points="52,-0.5 52,-19.5 98,-19.5 98,-0.5 52,-0.5"/>
<text text-anchor="middle" x="75" y="-7.5" font-family="Helvetica,sans-Serif" font-size="10.00">cstdint</text>
</a>
</g>
</g>
<!-- Node6&#45;&gt;Node7 -->
<g id="edge6" class="edge">
<title>Node6&#45;&gt;Node7</title>
<path fill="none" stroke="midnightblue" d="M75,-56.08C75,-49.01 75,-38.86 75,-29.99"/>
<polygon fill="midnightblue" stroke="midnightblue" points="78.5,-29.75 75,-19.75 71.5,-29.75 78.5,-29.75"/>
</g>
<!-- Node8&#45;&gt;Node2 -->
<g id="edge8" class="edge">
<title>Node8&#45;&gt;Node2</title>
<path fill="none" stroke="midnightblue" d="M368.04,-506.24C450.14,-492.11 621,-456.32 621,-403 621,-403 621,-403 621,-289 621,-254.52 603.09,-217.56 590.94,-196.47"/>
<polygon fill="midnightblue" stroke="midnightblue" points="593.84,-194.49 585.7,-187.71 587.84,-198.09 593.84,-194.49"/>
</g>
<!-- Node8&#45;&gt;Node3 -->
<g id="edge35" class="edge">
<title>Node8&#45;&gt;Node3</title>
<path fill="none" stroke="midnightblue" d="M281.72,-505.71C201.55,-490.96 38,-454.56 38,-403 38,-403 38,-403 38,-233 38,-191.4 76.75,-156.33 102.53,-137.6"/>
<polygon fill="midnightblue" stroke="midnightblue" points="104.82,-140.27 111.02,-131.68 100.82,-134.53 104.82,-140.27"/>
</g>
<!-- Node9 -->
<g id="node9" class="node">
<title>Node9</title>
<g id="a_node9"><a xlink:href="_device_8hpp.html" target="_top" xlink:title=" ">
<polygon fill="none" stroke="black" points="292,-392.5 292,-411.5 358,-411.5 358,-392.5 292,-392.5"/>
<text text-anchor="middle" x="325" y="-399.5" font-family="Helvetica,sans-Serif" font-size="10.00">Device.hpp</text>
</a>
</g>
</g>
<!-- Node8&#45;&gt;Node9 -->
<g id="edge9" class="edge">
<title>Node8&#45;&gt;Node9</title>
<path fill="none" stroke="midnightblue" d="M329.53,-504.25C335.41,-491.85 344.52,-468.39 341,-448 339.43,-438.91 336.21,-429.22 333.06,-421.17"/>
<polygon fill="midnightblue" stroke="midnightblue" points="336.19,-419.6 329.11,-411.72 329.74,-422.3 336.19,-419.6"/>
</g>
<!-- Node19 -->
<g id="node19" class="node">
<title>Node19</title>
<g id="a_node19"><a xlink:href="_image_view_8hpp.html" target="_top" xlink:title=" ">
<polygon fill="none" stroke="black" points="248.5,-448.5 248.5,-467.5 331.5,-467.5 331.5,-448.5 248.5,-448.5"/>
<text text-anchor="middle" x="290" y="-455.5" font-family="Helvetica,sans-Serif" font-size="10.00">ImageView.hpp</text>
</a>
</g>
</g>
<!-- Node8&#45;&gt;Node19 -->
<g id="edge36" class="edge">
<title>Node8&#45;&gt;Node19</title>
<path fill="none" stroke="midnightblue" d="M319.22,-504.08C314.33,-496.53 307.17,-485.49 301.17,-476.23"/>
<polygon fill="midnightblue" stroke="midnightblue" points="304.05,-474.24 295.67,-467.75 298.17,-478.05 304.05,-474.24"/>
</g>
<!-- Node9&#45;&gt;Node2 -->
<g id="edge11" class="edge">
<title>Node9&#45;&gt;Node2</title>
<path fill="none" stroke="midnightblue" d="M358.34,-401.13C397.59,-399.53 462.66,-391.23 504,-356 529.53,-334.24 561.72,-237.9 574.45,-197.22"/>
<polygon fill="midnightblue" stroke="midnightblue" points="577.84,-198.12 577.44,-187.53 571.15,-196.06 577.84,-198.12"/>
</g>
<!-- Node9&#45;&gt;Node3 -->
<g id="edge12" class="edge">
<title>Node9&#45;&gt;Node3</title>
<path fill="none" stroke="midnightblue" d="M291.93,-395.67C266.44,-389.96 231.95,-378.47 210,-356 149.36,-293.93 131.52,-185.2 126.67,-141.73"/>
<polygon fill="midnightblue" stroke="midnightblue" points="130.13,-141.11 125.64,-131.51 123.16,-141.81 130.13,-141.11"/>
</g>
<!-- Node10 -->
<g id="node10" class="node">
<title>Node10</title>
<g id="a_node10"><a xlink:title=" ">
<polygon fill="none" stroke="#bfbfbf" points="219,-336.5 219,-355.5 259,-355.5 259,-336.5 219,-336.5"/>
<text text-anchor="middle" x="239" y="-343.5" font-family="Helvetica,sans-Serif" font-size="10.00">utility</text>
</a>
</g>
</g>
<!-- Node9&#45;&gt;Node10 -->
<g id="edge10" class="edge">
<title>Node9&#45;&gt;Node10</title>
<path fill="none" stroke="midnightblue" d="M311.18,-392.32C297.77,-383.9 277.18,-370.97 261.41,-361.07"/>
<polygon fill="midnightblue" stroke="midnightblue" points="263.11,-358.01 252.78,-355.65 259.39,-363.94 263.11,-358.01"/>
</g>
<!-- Node11 -->
<g id="node11" class="node">
<title>Node11</title>
<g id="a_node11"><a xlink:href="_instance_8hpp.html" target="_top" xlink:title=" ">
<polygon fill="none" stroke="black" points="288.5,-224.5 288.5,-243.5 361.5,-243.5 361.5,-224.5 288.5,-224.5"/>
<text text-anchor="middle" x="325" y="-231.5" font-family="Helvetica,sans-Serif" font-size="10.00">Instance.hpp</text>
</a>
</g>
</g>
<!-- Node9&#45;&gt;Node11 -->
<g id="edge13" class="edge">
<title>Node9&#45;&gt;Node11</title>
<path fill="none" stroke="midnightblue" d="M325,-392.08C325,-365.95 325,-289.21 325,-253.58"/>
<polygon fill="midnightblue" stroke="midnightblue" points="328.5,-253.57 325,-243.57 321.5,-253.57 328.5,-253.57"/>
</g>
<!-- Node13 -->
<g id="node13" class="node">
<title>Node13</title>
<g id="a_node13"><a xlink:href="_requestable_item_8hpp.html" target="_top" xlink:title=" ">
<polygon fill="none" stroke="black" points="404,-168.5 404,-187.5 514,-187.5 514,-168.5 404,-168.5"/>
<text text-anchor="middle" x="459" y="-175.5" font-family="Helvetica,sans-Serif" font-size="10.00">RequestableItem.hpp</text>
</a>
</g>
</g>
<!-- Node9&#45;&gt;Node13 -->
<g id="edge33" class="edge">
<title>Node9&#45;&gt;Node13</title>
<path fill="none" stroke="midnightblue" d="M328.29,-392.47C336.24,-372.25 357.65,-320.09 382,-280 401.24,-248.32 428.42,-214.69 444.81,-195.33"/>
<polygon fill="midnightblue" stroke="midnightblue" points="447.47,-197.6 451.32,-187.73 442.16,-193.05 447.47,-197.6"/>
</g>
<!-- Node16 -->
<g id="node16" class="node">
<title>Node16</title>
<g id="a_node16"><a xlink:href="_physical_device_8hpp.html" target="_top" xlink:title=" ">
<polygon fill="none" stroke="black" points="391,-336.5 391,-355.5 495,-355.5 495,-336.5 391,-336.5"/>
<text text-anchor="middle" x="443" y="-343.5" font-family="Helvetica,sans-Serif" font-size="10.00">PhysicalDevice.hpp</text>
</a>
</g>
</g>
<!-- Node9&#45;&gt;Node16 -->
<g id="edge24" class="edge">
<title>Node9&#45;&gt;Node16</title>
<path fill="none" stroke="midnightblue" d="M343.7,-392.44C362.94,-383.64 393.15,-369.81 415.2,-359.72"/>
<polygon fill="midnightblue" stroke="midnightblue" points="416.75,-362.86 424.39,-355.52 413.84,-356.5 416.75,-362.86"/>
</g>
<!-- Node18 -->
<g id="node18" class="node">
<title>Node18</title>
<g id="a_node18"><a xlink:href="_surface_8hpp.html" target="_top" xlink:title=" ">
<polygon fill="none" stroke="black" points="227.5,-280.5 227.5,-299.5 296.5,-299.5 296.5,-280.5 227.5,-280.5"/>
<text text-anchor="middle" x="262" y="-287.5" font-family="Helvetica,sans-Serif" font-size="10.00">Surface.hpp</text>
</a>
</g>
</g>
<!-- Node9&#45;&gt;Node18 -->
<g id="edge34" class="edge">
<title>Node9&#45;&gt;Node18</title>
<path fill="none" stroke="midnightblue" d="M320.06,-392.37C309.71,-374.3 285.58,-332.18 271.91,-308.31"/>
<polygon fill="midnightblue" stroke="midnightblue" points="274.93,-306.53 266.92,-299.59 268.85,-310.01 274.93,-306.53"/>
</g>
<!-- Node11&#45;&gt;Node2 -->
<g id="edge16" class="edge">
<title>Node11&#45;&gt;Node2</title>
<path fill="none" stroke="midnightblue" d="M361.54,-225.26C405.73,-215.9 480.34,-200.1 529.88,-189.61"/>
<polygon fill="midnightblue" stroke="midnightblue" points="530.69,-193.02 539.75,-187.52 529.24,-186.17 530.69,-193.02"/>
</g>
<!-- Node11&#45;&gt;Node3 -->
<g id="edge17" class="edge">
<title>Node11&#45;&gt;Node3</title>
<path fill="none" stroke="midnightblue" d="M296.59,-224.36C272.69,-216.52 238.02,-203.78 210,-188 184.64,-173.72 158.48,-152.57 142,-138.31"/>
<polygon fill="midnightblue" stroke="midnightblue" points="144.14,-135.53 134.32,-131.55 139.52,-140.79 144.14,-135.53"/>
</g>
<!-- Node11&#45;&gt;Node4 -->
<g id="edge15" class="edge">
<title>Node11&#45;&gt;Node4</title>
<path fill="none" stroke="midnightblue" d="M331.11,-224.45C344.77,-204.18 375.25,-151.92 357,-112 351.22,-99.36 339.95,-88.91 329.37,-81.27"/>
<polygon fill="midnightblue" stroke="midnightblue" points="331.04,-78.18 320.78,-75.53 327.15,-84 331.04,-78.18"/>
</g>
<!-- Node12 -->
<g id="node12" class="node">
<title>Node12</title>
<g id="a_node12"><a xlink:title=" ">
<polygon fill="none" stroke="#bfbfbf" points="306.5,-112.5 306.5,-131.5 347.5,-131.5 347.5,-112.5 306.5,-112.5"/>
<text text-anchor="middle" x="327" y="-119.5" font-family="Helvetica,sans-Serif" font-size="10.00">string</text>
</a>
</g>
</g>
<!-- Node11&#45;&gt;Node12 -->
<g id="edge14" class="edge">
<title>Node11&#45;&gt;Node12</title>
<path fill="none" stroke="midnightblue" d="M325.16,-224.37C325.48,-206.62 326.22,-165.67 326.66,-141.6"/>
<polygon fill="midnightblue" stroke="midnightblue" points="330.16,-141.65 326.84,-131.59 323.16,-141.53 330.16,-141.65"/>
</g>
<!-- Node11&#45;&gt;Node13 -->
<g id="edge18" class="edge">
<title>Node11&#45;&gt;Node13</title>
<path fill="none" stroke="midnightblue" d="M346.23,-224.44C368.38,-215.52 403.32,-201.44 428.44,-191.32"/>
<polygon fill="midnightblue" stroke="midnightblue" points="429.9,-194.5 437.87,-187.52 427.28,-188.01 429.9,-194.5"/>
</g>
<!-- Node14 -->
<g id="node14" class="node">
<title>Node14</title>
<g id="a_node14"><a xlink:href="_window_8hpp.html" target="_top" xlink:title=" ">
<polygon fill="none" stroke="black" points="218.5,-168.5 218.5,-187.5 309.5,-187.5 309.5,-168.5 218.5,-168.5"/>
<text text-anchor="middle" x="264" y="-175.5" font-family="Helvetica,sans-Serif" font-size="10.00">york/Window.hpp</text>
</a>
</g>
</g>
<!-- Node11&#45;&gt;Node14 -->
<g id="edge20" class="edge">
<title>Node11&#45;&gt;Node14</title>
<path fill="none" stroke="midnightblue" d="M315.2,-224.32C306.18,-216.34 292.59,-204.31 281.68,-194.65"/>
<polygon fill="midnightblue" stroke="midnightblue" points="283.79,-191.84 273.98,-187.83 279.15,-197.08 283.79,-191.84"/>
</g>
<!-- Node13&#45;&gt;Node12 -->
<g id="edge19" class="edge">
<title>Node13&#45;&gt;Node12</title>
<path fill="none" stroke="midnightblue" d="M438.08,-168.44C416.26,-159.52 381.85,-145.44 357.11,-135.32"/>
<polygon fill="midnightblue" stroke="midnightblue" points="358.4,-132.06 347.82,-131.52 355.75,-138.54 358.4,-132.06"/>
</g>
<!-- Node14&#45;&gt;Node3 -->
<g id="edge23" class="edge">
<title>Node14&#45;&gt;Node3</title>
<path fill="none" stroke="midnightblue" d="M241.98,-168.44C218.9,-159.48 182.44,-145.31 156.36,-135.18"/>
<polygon fill="midnightblue" stroke="midnightblue" points="157.51,-131.88 146.92,-131.52 154.98,-138.4 157.51,-131.88"/>
</g>
<!-- Node14&#45;&gt;Node12 -->
<g id="edge21" class="edge">
<title>Node14&#45;&gt;Node12</title>
<path fill="none" stroke="midnightblue" d="M274.12,-168.32C283.53,-160.26 297.74,-148.08 309.07,-138.37"/>
<polygon fill="midnightblue" stroke="midnightblue" points="311.38,-141 316.69,-131.83 306.82,-135.68 311.38,-141"/>
</g>
<!-- Node15 -->
<g id="node15" class="node">
<title>Node15</title>
<g id="a_node15"><a xlink:title=" ">
<polygon fill="none" stroke="#bfbfbf" points="187.5,-112.5 187.5,-131.5 288.5,-131.5 288.5,-112.5 187.5,-112.5"/>
<text text-anchor="middle" x="238" y="-119.5" font-family="Helvetica,sans-Serif" font-size="10.00">SDL2/SDL_video.h</text>
</a>
</g>
</g>
<!-- Node14&#45;&gt;Node15 -->
<g id="edge22" class="edge">
<title>Node14&#45;&gt;Node15</title>
<path fill="none" stroke="midnightblue" d="M259.71,-168.08C256.15,-160.69 250.98,-149.95 246.58,-140.81"/>
<polygon fill="midnightblue" stroke="midnightblue" points="249.71,-139.24 242.21,-131.75 243.4,-142.28 249.71,-139.24"/>
</g>
<!-- Node16&#45;&gt;Node2 -->
<g id="edge26" class="edge">
<title>Node16&#45;&gt;Node2</title>
<path fill="none" stroke="midnightblue" d="M448.43,-336.35C461.47,-315.86 496.07,-263.16 531,-224 540.4,-213.47 551.99,-202.74 561.54,-194.4"/>
<polygon fill="midnightblue" stroke="midnightblue" points="563.98,-196.91 569.3,-187.75 559.42,-191.6 563.98,-196.91"/>
</g>
<!-- Node16&#45;&gt;Node13 -->
<g id="edge32" class="edge">
<title>Node16&#45;&gt;Node13</title>
<path fill="none" stroke="midnightblue" d="M444.55,-336.4C446.12,-327.37 448.54,-312.72 450,-300 454.15,-263.85 456.8,-221.4 458.08,-197.6"/>
<polygon fill="midnightblue" stroke="midnightblue" points="461.58,-197.7 458.6,-187.53 454.59,-197.34 461.58,-197.7"/>
</g>
<!-- Node17 -->
<g id="node17" class="node">
<title>Node17</title>
<g id="a_node17"><a xlink:title=" ">
<polygon fill="none" stroke="#bfbfbf" points="391,-280.5 391,-299.5 441,-299.5 441,-280.5 391,-280.5"/>
<text text-anchor="middle" x="416" y="-287.5" font-family="Helvetica,sans-Serif" font-size="10.00">optional</text>
</a>
</g>
</g>
<!-- Node16&#45;&gt;Node17 -->
<g id="edge25" class="edge">
<title>Node16&#45;&gt;Node17</title>
<path fill="none" stroke="midnightblue" d="M438.54,-336.08C434.85,-328.69 429.48,-317.95 424.91,-308.81"/>
<polygon fill="midnightblue" stroke="midnightblue" points="427.98,-307.13 420.38,-299.75 421.72,-310.26 427.98,-307.13"/>
</g>
<!-- Node16&#45;&gt;Node18 -->
<g id="edge27" class="edge">
<title>Node16&#45;&gt;Node18</title>
<path fill="none" stroke="midnightblue" d="M414.32,-336.44C383.47,-327.24 334.27,-312.56 300.17,-302.39"/>
<polygon fill="midnightblue" stroke="midnightblue" points="301.13,-299.02 290.55,-299.52 299.13,-305.73 301.13,-299.02"/>
</g>
<!-- Node18&#45;&gt;Node2 -->
<g id="edge28" class="edge">
<title>Node18&#45;&gt;Node2</title>
<path fill="none" stroke="midnightblue" d="M286.69,-280.46C342.93,-261.01 480.68,-213.36 545.38,-190.98"/>
<polygon fill="midnightblue" stroke="midnightblue" points="546.8,-194.19 555.11,-187.61 544.51,-187.57 546.8,-194.19"/>
</g>
<!-- Node18&#45;&gt;Node3 -->
<g id="edge30" class="edge">
<title>Node18&#45;&gt;Node3</title>
<path fill="none" stroke="midnightblue" d="M254.52,-280.45C239.44,-263.17 204.42,-222.77 176,-188 162.87,-171.94 148.3,-153.28 138.1,-140.08"/>
<polygon fill="midnightblue" stroke="midnightblue" points="140.69,-137.71 131.82,-131.92 135.15,-141.98 140.69,-137.71"/>
</g>
<!-- Node18&#45;&gt;Node11 -->
<g id="edge31" class="edge">
<title>Node18&#45;&gt;Node11</title>
<path fill="none" stroke="midnightblue" d="M272.12,-280.32C281.53,-272.26 295.74,-260.08 307.07,-250.37"/>
<polygon fill="midnightblue" stroke="midnightblue" points="309.38,-253 314.69,-243.83 304.82,-247.68 309.38,-253"/>
</g>
<!-- Node18&#45;&gt;Node14 -->
<g id="edge29" class="edge">
<title>Node18&#45;&gt;Node14</title>
<path fill="none" stroke="midnightblue" d="M262.16,-280.37C262.48,-262.62 263.22,-221.67 263.66,-197.6"/>
<polygon fill="midnightblue" stroke="midnightblue" points="267.16,-197.65 263.84,-187.59 260.16,-197.53 267.16,-197.65"/>
</g>
<!-- Node19&#45;&gt;Node2 -->
<g id="edge39" class="edge">
<title>Node19&#45;&gt;Node2</title>
<path fill="none" stroke="midnightblue" d="M331.67,-450.32C412.56,-436.16 583,-400.04 583,-347 583,-347 583,-347 583,-289 583,-256.94 581.71,-219.63 580.82,-197.74"/>
<polygon fill="midnightblue" stroke="midnightblue" points="584.31,-197.4 580.39,-187.56 577.32,-197.69 584.31,-197.4"/>
</g>
<!-- Node19&#45;&gt;Node3 -->
<g id="edge37" class="edge">
<title>Node19&#45;&gt;Node3</title>
<path fill="none" stroke="midnightblue" d="M248.29,-449.87C196.24,-438.31 114,-410.06 114,-347 114,-347 114,-347 114,-233 114,-200.79 118.73,-163.53 121.98,-141.69"/>
<polygon fill="midnightblue" stroke="midnightblue" points="125.49,-141.95 123.56,-131.53 118.57,-140.87 125.49,-141.95"/>
</g>
<!-- Node19&#45;&gt;Node9 -->
<g id="edge38" class="edge">
<title>Node19&#45;&gt;Node9</title>
<path fill="none" stroke="midnightblue" d="M295.78,-448.08C300.67,-440.53 307.83,-429.49 313.83,-420.23"/>
<polygon fill="midnightblue" stroke="midnightblue" points="316.83,-422.05 319.33,-411.75 310.95,-418.24 316.83,-422.05"/>
</g>
</g>
</svg>
