<?xml version="1.0" encoding="UTF-8" standalone="no"?>
<!DOCTYPE svg PUBLIC "-//W3C//DTD SVG 1.1//EN"
 "http://www.w3.org/Graphics/SVG/1.1/DTD/svg11.dtd">
<!-- Generated by graphviz version 2.50.0 (20211204.2007)
 -->
<!-- Title: include/york/Renderer/Renderer.hpp Pages: 1 -->
<svg width="1656pt" height="767pt"
 viewBox="0.00 0.00 1655.50 767.00" xmlns="http://www.w3.org/2000/svg" xmlns:xlink="http://www.w3.org/1999/xlink">
<g id="graph0" class="graph" transform="scale(1 1) rotate(0) translate(4 763)">
<title>include/york/Renderer/Renderer.hpp</title>
<!-- Node1 -->
<g id="node1" class="node">
<title>Node1</title>
<g id="a_node1"><a xlink:title=" ">
<polygon fill="#bfbfbf" stroke="black" points="657.5,-728.5 657.5,-758.5 769.5,-758.5 769.5,-728.5 657.5,-728.5"/>
<text text-anchor="start" x="665.5" y="-746.5" font-family="Helvetica,sans-Serif" font-size="10.00">include/york/Renderer</text>
<text text-anchor="middle" x="713.5" y="-735.5" font-family="Helvetica,sans-Serif" font-size="10.00">/Renderer.hpp</text>
</a>
</g>
</g>
<!-- Node2 -->
<g id="node2" class="node">
<title>Node2</title>
<g id="a_node2"><a xlink:href="_event_8hpp.html" target="_top" xlink:title=" ">
<polygon fill="none" stroke="black" points="68,-168.5 68,-187.5 151,-187.5 151,-168.5 68,-168.5"/>
<text text-anchor="middle" x="109.5" y="-175.5" font-family="Helvetica,sans-Serif" font-size="10.00">york/Event.hpp</text>
</a>
</g>
</g>
<!-- Node1&#45;&gt;Node2 -->
<g id="edge1" class="edge">
<title>Node1&#45;&gt;Node2</title>
<path fill="none" stroke="midnightblue" d="M657.39,-743.26C510.41,-743.75 125.5,-734.74 125.5,-627 125.5,-627 125.5,-627 125.5,-289 125.5,-256.63 118.63,-219.44 113.89,-197.66"/>
<polygon fill="midnightblue" stroke="midnightblue" points="117.28,-196.76 111.66,-187.78 110.45,-198.3 117.28,-196.76"/>
</g>
<!-- Node10 -->
<g id="node10" class="node">
<title>Node10</title>
<g id="a_node10"><a xlink:href="_window_8hpp.html" target="_top" xlink:title=" ">
<polygon fill="none" stroke="black" points="1184,-168.5 1184,-187.5 1275,-187.5 1275,-168.5 1184,-168.5"/>
<text text-anchor="middle" x="1229.5" y="-175.5" font-family="Helvetica,sans-Serif" font-size="10.00">york/Window.hpp</text>
</a>
</g>
</g>
<!-- Node1&#45;&gt;Node10 -->
<g id="edge11" class="edge">
<title>Node1&#45;&gt;Node10</title>
<path fill="none" stroke="midnightblue" d="M769.65,-740.25C950.71,-732.27 1507.5,-701.66 1507.5,-627 1507.5,-627 1507.5,-627 1507.5,-457 1507.5,-318.15 1331.95,-224.42 1259.85,-191.79"/>
<polygon fill="midnightblue" stroke="midnightblue" points="1260.96,-188.45 1250.4,-187.59 1258.12,-194.85 1260.96,-188.45"/>
</g>
<!-- Node14 -->
<g id="node14" class="node">
<title>Node14</title>
<g id="a_node14"><a xlink:href="_framebuffer_8hpp.html" target="_top" xlink:title=" ">
<polygon fill="none" stroke="black" points="536,-616.5 536,-635.5 687,-635.5 687,-616.5 536,-616.5"/>
<text text-anchor="middle" x="611.5" y="-623.5" font-family="Helvetica,sans-Serif" font-size="10.00">york/Graphics/Framebuffer.hpp</text>
</a>
</g>
</g>
<!-- Node1&#45;&gt;Node14 -->
<g id="edge18" class="edge">
<title>Node1&#45;&gt;Node14</title>
<path fill="none" stroke="midnightblue" d="M712.92,-728.33C711.61,-712.96 707.47,-688.41 694.5,-672 682.78,-657.16 664.77,-646.56 648.51,-639.39"/>
<polygon fill="midnightblue" stroke="midnightblue" points="649.79,-636.13 639.21,-635.56 647.12,-642.6 649.79,-636.13"/>
</g>
<!-- Node26 -->
<g id="node26" class="node">
<title>Node26</title>
<g id="a_node26"><a xlink:href="_pipeline_8hpp.html" target="_top" xlink:title=" ">
<polygon fill="none" stroke="black" points="955.5,-616.5 955.5,-635.5 1089.5,-635.5 1089.5,-616.5 955.5,-616.5"/>
<text text-anchor="middle" x="1022.5" y="-623.5" font-family="Helvetica,sans-Serif" font-size="10.00">york/Graphics/Pipeline.hpp</text>
</a>
</g>
</g>
<!-- Node1&#45;&gt;Node26 -->
<g id="edge55" class="edge">
<title>Node1&#45;&gt;Node26</title>
<path fill="none" stroke="midnightblue" d="M751.08,-728.45C812.23,-705.6 932.21,-660.75 989.95,-639.17"/>
<polygon fill="midnightblue" stroke="midnightblue" points="991.51,-642.32 999.65,-635.54 989.05,-635.77 991.51,-642.32"/>
</g>
<!-- Node30 -->
<g id="node30" class="node">
<title>Node30</title>
<g id="a_node30"><a xlink:href="_command_pool_8hpp.html" target="_top" xlink:title=" ">
<polygon fill="none" stroke="black" points="671.5,-448.5 671.5,-467.5 835.5,-467.5 835.5,-448.5 671.5,-448.5"/>
<text text-anchor="middle" x="753.5" y="-455.5" font-family="Helvetica,sans-Serif" font-size="10.00">york/Graphics/CommandPool.hpp</text>
</a>
</g>
</g>
<!-- Node1&#45;&gt;Node30 -->
<g id="edge74" class="edge">
<title>Node1&#45;&gt;Node30</title>
<path fill="none" stroke="midnightblue" d="M721.79,-728.46C733.5,-707.24 753.5,-665.41 753.5,-627 753.5,-627 753.5,-627 753.5,-569 753.5,-536.95 753.5,-499.64 753.5,-477.75"/>
<polygon fill="midnightblue" stroke="midnightblue" points="757,-477.56 753.5,-467.56 750,-477.56 757,-477.56"/>
</g>
<!-- Node31 -->
<g id="node31" class="node">
<title>Node31</title>
<g id="a_node31"><a xlink:href="_semaphore_8hpp.html" target="_top" xlink:title=" ">
<polygon fill="none" stroke="black" points="246,-448.5 246,-467.5 395,-467.5 395,-448.5 246,-448.5"/>
<text text-anchor="middle" x="320.5" y="-455.5" font-family="Helvetica,sans-Serif" font-size="10.00">york/Graphics/Semaphore.hpp</text>
</a>
</g>
</g>
<!-- Node1&#45;&gt;Node31 -->
<g id="edge78" class="edge">
<title>Node1&#45;&gt;Node31</title>
<path fill="none" stroke="midnightblue" d="M657.19,-740.25C533.8,-733.8 250.5,-709.95 250.5,-627 250.5,-627 250.5,-627 250.5,-569 250.5,-530.23 281.83,-494.1 302.57,-474.43"/>
<polygon fill="midnightblue" stroke="midnightblue" points="305.14,-476.83 310.17,-467.5 300.42,-471.65 305.14,-476.83"/>
</g>
<!-- Node32 -->
<g id="node32" class="node">
<title>Node32</title>
<g id="a_node32"><a xlink:href="_frame_data_8hpp.html" target="_top" xlink:title=" ">
<polygon fill="none" stroke="black" points="537.5,-672.5 537.5,-691.5 685.5,-691.5 685.5,-672.5 537.5,-672.5"/>
<text text-anchor="middle" x="611.5" y="-679.5" font-family="Helvetica,sans-Serif" font-size="10.00">york/Graphics/FrameData.hpp</text>
</a>
</g>
</g>
<!-- Node1&#45;&gt;Node32 -->
<g id="edge82" class="edge">
<title>Node1&#45;&gt;Node32</title>
<path fill="none" stroke="midnightblue" d="M689.33,-728.4C672.98,-718.86 651.49,-706.32 635.23,-696.84"/>
<polygon fill="midnightblue" stroke="midnightblue" points="636.74,-693.67 626.34,-691.66 633.22,-699.72 636.74,-693.67"/>
</g>
<!-- Node3 -->
<g id="node3" class="node">
<title>Node3</title>
<g id="a_node3"><a xlink:title=" ">
<polygon fill="none" stroke="#bfbfbf" points="886.5,-56.5 886.5,-75.5 930.5,-75.5 930.5,-56.5 886.5,-56.5"/>
<text text-anchor="middle" x="908.5" y="-63.5" font-family="Helvetica,sans-Serif" font-size="10.00">vector</text>
</a>
</g>
</g>
<!-- Node2&#45;&gt;Node3 -->
<g id="edge2" class="edge">
<title>Node2&#45;&gt;Node3</title>
<path fill="none" stroke="midnightblue" d="M151.08,-170.26C155.94,-169.49 160.83,-168.72 165.5,-168 273.84,-151.3 301.64,-151.53 409.5,-132 451.1,-124.47 460.77,-118.78 502.5,-112 640.71,-89.54 807.22,-74.96 876.18,-69.46"/>
<polygon fill="midnightblue" stroke="midnightblue" points="876.69,-72.93 886.39,-68.66 876.14,-65.95 876.69,-72.93"/>
</g>
<!-- Node4 -->
<g id="node4" class="node">
<title>Node4</title>
<g id="a_node4"><a xlink:title=" ">
<polygon fill="none" stroke="#bfbfbf" points="285,-56.5 285,-75.5 344,-75.5 344,-56.5 285,-56.5"/>
<text text-anchor="middle" x="314.5" y="-63.5" font-family="Helvetica,sans-Serif" font-size="10.00">functional</text>
</a>
</g>
</g>
<!-- Node2&#45;&gt;Node4 -->
<g id="edge3" class="edge">
<title>Node2&#45;&gt;Node4</title>
<path fill="none" stroke="midnightblue" d="M132.56,-168.44C154.19,-160.1 187.21,-146.58 214.5,-132 243.33,-116.6 274.62,-95.48 294.38,-81.55"/>
<polygon fill="midnightblue" stroke="midnightblue" points="296.48,-84.35 302.6,-75.7 292.42,-78.65 296.48,-84.35"/>
</g>
<!-- Node5 -->
<g id="node5" class="node">
<title>Node5</title>
<g id="a_node5"><a xlink:title=" ">
<polygon fill="none" stroke="#bfbfbf" points="0,-112.5 0,-131.5 107,-131.5 107,-112.5 0,-112.5"/>
<text text-anchor="middle" x="53.5" y="-119.5" font-family="Helvetica,sans-Serif" font-size="10.00">SDL2/SDL_events.h</text>
</a>
</g>
</g>
<!-- Node2&#45;&gt;Node5 -->
<g id="edge4" class="edge">
<title>Node2&#45;&gt;Node5</title>
<path fill="none" stroke="midnightblue" d="M100.5,-168.32C92.31,-160.42 79.99,-148.55 70.03,-138.94"/>
<polygon fill="midnightblue" stroke="midnightblue" points="72.29,-136.26 62.66,-131.83 67.43,-141.29 72.29,-136.26"/>
</g>
<!-- Node6 -->
<g id="node6" class="node">
<title>Node6</title>
<g id="a_node6"><a xlink:href="_key_codes_8hpp.html" target="_top" xlink:title=" ">
<polygon fill="none" stroke="black" points="125,-112.5 125,-131.5 206,-131.5 206,-112.5 125,-112.5"/>
<text text-anchor="middle" x="165.5" y="-119.5" font-family="Helvetica,sans-Serif" font-size="10.00">KeyCodes.hpp</text>
</a>
</g>
</g>
<!-- Node2&#45;&gt;Node6 -->
<g id="edge5" class="edge">
<title>Node2&#45;&gt;Node6</title>
<path fill="none" stroke="midnightblue" d="M118.5,-168.32C126.69,-160.42 139.01,-148.55 148.97,-138.94"/>
<polygon fill="midnightblue" stroke="midnightblue" points="151.57,-141.29 156.34,-131.83 146.71,-136.26 151.57,-141.29"/>
</g>
<!-- Node7 -->
<g id="node7" class="node">
<title>Node7</title>
<g id="a_node7"><a xlink:href="_identifiable_8hpp.html" target="_top" xlink:title=" ">
<polygon fill="none" stroke="black" points="535,-56.5 535,-75.5 618,-75.5 618,-56.5 535,-56.5"/>
<text text-anchor="middle" x="576.5" y="-63.5" font-family="Helvetica,sans-Serif" font-size="10.00">Identifiable.hpp</text>
</a>
</g>
</g>
<!-- Node2&#45;&gt;Node7 -->
<g id="edge6" class="edge">
<title>Node2&#45;&gt;Node7</title>
<path fill="none" stroke="midnightblue" d="M151.14,-170.05C211.37,-159.9 319.83,-141.23 358.5,-132 423.94,-116.38 498.81,-92.77 541.59,-78.72"/>
<polygon fill="midnightblue" stroke="midnightblue" points="542.84,-81.99 551.24,-75.53 540.65,-75.34 542.84,-81.99"/>
</g>
<!-- Node9 -->
<g id="node9" class="node">
<title>Node9</title>
<g id="a_node9"><a xlink:href="_registry_8hpp.html" target="_top" xlink:title=" ">
<polygon fill="none" stroke="black" points="279,-112.5 279,-131.5 350,-131.5 350,-112.5 279,-112.5"/>
<text text-anchor="middle" x="314.5" y="-119.5" font-family="Helvetica,sans-Serif" font-size="10.00">Registry.hpp</text>
</a>
</g>
</g>
<!-- Node2&#45;&gt;Node9 -->
<g id="edge8" class="edge">
<title>Node2&#45;&gt;Node9</title>
<path fill="none" stroke="midnightblue" d="M141.98,-168.44C177.22,-159.16 233.6,-144.31 272.26,-134.13"/>
<polygon fill="midnightblue" stroke="midnightblue" points="273.39,-137.45 282.17,-131.52 271.61,-130.68 273.39,-137.45"/>
</g>
<!-- Node8 -->
<g id="node8" class="node">
<title>Node8</title>
<g id="a_node8"><a xlink:title=" ">
<polygon fill="none" stroke="#bfbfbf" points="1087.5,-0.5 1087.5,-19.5 1133.5,-19.5 1133.5,-0.5 1087.5,-0.5"/>
<text text-anchor="middle" x="1110.5" y="-7.5" font-family="Helvetica,sans-Serif" font-size="10.00">cstdint</text>
</a>
</g>
</g>
<!-- Node7&#45;&gt;Node8 -->
<g id="edge7" class="edge">
<title>Node7&#45;&gt;Node8</title>
<path fill="none" stroke="midnightblue" d="M618.4,-60.76C721.27,-50.36 984.61,-23.73 1077.47,-14.34"/>
<polygon fill="midnightblue" stroke="midnightblue" points="1077.83,-17.82 1087.43,-13.33 1077.13,-10.86 1077.83,-17.82"/>
</g>
<!-- Node9&#45;&gt;Node3 -->
<g id="edge9" class="edge">
<title>Node9&#45;&gt;Node3</title>
<path fill="none" stroke="midnightblue" d="M350.32,-117.74C457.4,-108.01 773.95,-79.23 876.23,-69.93"/>
<polygon fill="midnightblue" stroke="midnightblue" points="876.63,-73.41 886.27,-69.02 875.99,-66.44 876.63,-73.41"/>
</g>
<!-- Node9&#45;&gt;Node4 -->
<g id="edge10" class="edge">
<title>Node9&#45;&gt;Node4</title>
<path fill="none" stroke="midnightblue" d="M314.5,-112.08C314.5,-105.01 314.5,-94.86 314.5,-85.99"/>
<polygon fill="midnightblue" stroke="midnightblue" points="318,-85.75 314.5,-75.75 311,-85.75 318,-85.75"/>
</g>
<!-- Node11 -->
<g id="node11" class="node">
<title>Node11</title>
<g id="a_node11"><a xlink:title=" ">
<polygon fill="none" stroke="#bfbfbf" points="1366,-112.5 1366,-131.5 1407,-131.5 1407,-112.5 1366,-112.5"/>
<text text-anchor="middle" x="1386.5" y="-119.5" font-family="Helvetica,sans-Serif" font-size="10.00">string</text>
</a>
</g>
</g>
<!-- Node10&#45;&gt;Node11 -->
<g id="edge12" class="edge">
<title>Node10&#45;&gt;Node11</title>
<path fill="none" stroke="midnightblue" d="M1254.38,-168.44C1281.91,-158.97 1326.31,-143.7 1355.94,-133.51"/>
<polygon fill="midnightblue" stroke="midnightblue" points="1357.43,-136.7 1365.75,-130.14 1355.16,-130.08 1357.43,-136.7"/>
</g>
<!-- Node12 -->
<g id="node12" class="node">
<title>Node12</title>
<g id="a_node12"><a xlink:title=" ">
<polygon fill="none" stroke="#bfbfbf" points="1184,-112.5 1184,-131.5 1285,-131.5 1285,-112.5 1184,-112.5"/>
<text text-anchor="middle" x="1234.5" y="-119.5" font-family="Helvetica,sans-Serif" font-size="10.00">SDL2/SDL_video.h</text>
</a>
</g>
</g>
<!-- Node10&#45;&gt;Node12 -->
<g id="edge13" class="edge">
<title>Node10&#45;&gt;Node12</title>
<path fill="none" stroke="midnightblue" d="M1230.33,-168.08C1230.98,-161.01 1231.92,-150.86 1232.74,-141.99"/>
<polygon fill="midnightblue" stroke="midnightblue" points="1236.25,-142.03 1233.69,-131.75 1229.28,-141.39 1236.25,-142.03"/>
</g>
<!-- Node13 -->
<g id="node13" class="node">
<title>Node13</title>
<g id="a_node13"><a xlink:href="_handle_8hpp.html" target="_top" xlink:title="Contains the declarations for the Handle classes which form the basis of our Vulkan implementation.">
<polygon fill="none" stroke="black" points="511.5,-112.5 511.5,-131.5 641.5,-131.5 641.5,-112.5 511.5,-112.5"/>
<text text-anchor="middle" x="576.5" y="-119.5" font-family="Helvetica,sans-Serif" font-size="10.00">york/Graphics/Handle.hpp</text>
</a>
</g>
</g>
<!-- Node10&#45;&gt;Node13 -->
<g id="edge14" class="edge">
<title>Node10&#45;&gt;Node13</title>
<path fill="none" stroke="midnightblue" d="M1183.64,-172.69C1167.2,-171.17 1148.52,-169.47 1131.5,-168 960.06,-153.18 758.69,-137.21 651.91,-128.86"/>
<polygon fill="midnightblue" stroke="midnightblue" points="652.12,-125.36 641.88,-128.07 651.58,-132.34 652.12,-125.36"/>
</g>
<!-- Node13&#45;&gt;Node3 -->
<g id="edge15" class="edge">
<title>Node13&#45;&gt;Node3</title>
<path fill="none" stroke="midnightblue" d="M629.11,-112.44C698.65,-101.13 819.04,-81.55 876.37,-72.23"/>
<polygon fill="midnightblue" stroke="midnightblue" points="877,-75.67 886.31,-70.61 875.88,-68.76 877,-75.67"/>
</g>
<!-- Node13&#45;&gt;Node4 -->
<g id="edge16" class="edge">
<title>Node13&#45;&gt;Node4</title>
<path fill="none" stroke="midnightblue" d="M534.99,-112.44C485.28,-102.2 402.64,-85.17 353.89,-75.12"/>
<polygon fill="midnightblue" stroke="midnightblue" points="354.53,-71.68 344.03,-73.09 353.12,-78.53 354.53,-71.68"/>
</g>
<!-- Node13&#45;&gt;Node7 -->
<g id="edge17" class="edge">
<title>Node13&#45;&gt;Node7</title>
<path fill="none" stroke="midnightblue" d="M576.5,-112.08C576.5,-105.01 576.5,-94.86 576.5,-85.99"/>
<polygon fill="midnightblue" stroke="midnightblue" points="580,-85.75 576.5,-75.75 573,-85.75 580,-85.75"/>
</g>
<!-- Node14&#45;&gt;Node13 -->
<g id="edge19" class="edge">
<title>Node14&#45;&gt;Node13</title>
<path fill="none" stroke="midnightblue" d="M535.76,-619.83C411.86,-606.82 179.5,-561.32 179.5,-403 179.5,-403 179.5,-403 179.5,-233 179.5,-187.53 216.88,-186.31 258.5,-168 280.25,-158.43 414.09,-141.65 501.06,-131.5"/>
<polygon fill="midnightblue" stroke="midnightblue" points="501.63,-134.96 511.16,-130.33 500.82,-128.01 501.63,-134.96"/>
</g>
<!-- Node15 -->
<g id="node15" class="node">
<title>Node15</title>
<g id="a_node15"><a xlink:href="_render_pass_8hpp.html" target="_top" xlink:title=" ">
<polygon fill="none" stroke="black" points="810,-560.5 810,-579.5 899,-579.5 899,-560.5 810,-560.5"/>
<text text-anchor="middle" x="854.5" y="-567.5" font-family="Helvetica,sans-Serif" font-size="10.00">RenderPass.hpp</text>
</a>
</g>
</g>
<!-- Node14&#45;&gt;Node15 -->
<g id="edge20" class="edge">
<title>Node14&#45;&gt;Node15</title>
<path fill="none" stroke="midnightblue" d="M650,-616.44C692.31,-607.04 760.32,-591.93 806.17,-581.74"/>
<polygon fill="midnightblue" stroke="midnightblue" points="807.17,-585.1 816.18,-579.52 805.65,-578.27 807.17,-585.1"/>
</g>
<!-- Node16 -->
<g id="node16" class="node">
<title>Node16</title>
<g id="a_node16"><a xlink:title=" ">
<polygon fill="none" stroke="#bfbfbf" points="817,-168.5 817,-187.5 912,-187.5 912,-168.5 817,-168.5"/>
<text text-anchor="middle" x="864.5" y="-175.5" font-family="Helvetica,sans-Serif" font-size="10.00">vulkan/vulkan.hpp</text>
</a>
</g>
</g>
<!-- Node14&#45;&gt;Node16 -->
<g id="edge54" class="edge">
<title>Node14&#45;&gt;Node16</title>
<path fill="none" stroke="midnightblue" d="M601.17,-616.5C581.7,-599.44 541.5,-558.91 541.5,-515 541.5,-515 541.5,-515 541.5,-457 541.5,-307.37 743.09,-220.65 827.75,-190.83"/>
<polygon fill="midnightblue" stroke="midnightblue" points="828.93,-194.13 837.24,-187.56 826.64,-187.51 828.93,-194.13"/>
</g>
<!-- Node25 -->
<g id="node25" class="node">
<title>Node25</title>
<g id="a_node25"><a xlink:href="_image_view_8hpp.html" target="_top" xlink:title=" ">
<polygon fill="none" stroke="black" points="570,-448.5 570,-467.5 653,-467.5 653,-448.5 570,-448.5"/>
<text text-anchor="middle" x="611.5" y="-455.5" font-family="Helvetica,sans-Serif" font-size="10.00">ImageView.hpp</text>
</a>
</g>
</g>
<!-- Node14&#45;&gt;Node25 -->
<g id="edge53" class="edge">
<title>Node14&#45;&gt;Node25</title>
<path fill="none" stroke="midnightblue" d="M611.5,-616.08C611.5,-589.95 611.5,-513.21 611.5,-477.58"/>
<polygon fill="midnightblue" stroke="midnightblue" points="615,-477.57 611.5,-467.57 608,-477.57 615,-477.57"/>
</g>
<!-- Node15&#45;&gt;Node13 -->
<g id="edge22" class="edge">
<title>Node15&#45;&gt;Node13</title>
<path fill="none" stroke="midnightblue" d="M809.64,-567.7C682.23,-563.1 321.9,-543.54 236.5,-468 213.96,-448.06 217.5,-433.1 217.5,-403 217.5,-403 217.5,-403 217.5,-233 217.5,-174.11 396.31,-143.56 501.54,-130.67"/>
<polygon fill="midnightblue" stroke="midnightblue" points="501.98,-134.14 511.49,-129.48 501.14,-127.19 501.98,-134.14"/>
</g>
<!-- Node15&#45;&gt;Node16 -->
<g id="edge21" class="edge">
<title>Node15&#45;&gt;Node16</title>
<path fill="none" stroke="midnightblue" d="M854.72,-560.49C855.97,-511.84 862.2,-268.61 864.01,-198.15"/>
<polygon fill="midnightblue" stroke="midnightblue" points="867.52,-197.82 864.28,-187.73 860.52,-197.64 867.52,-197.82"/>
</g>
<!-- Node17 -->
<g id="node17" class="node">
<title>Node17</title>
<g id="a_node17"><a xlink:href="_swap_chain_8hpp.html" target="_top" xlink:title=" ">
<polygon fill="none" stroke="black" points="885.5,-504.5 885.5,-523.5 971.5,-523.5 971.5,-504.5 885.5,-504.5"/>
<text text-anchor="middle" x="928.5" y="-511.5" font-family="Helvetica,sans-Serif" font-size="10.00">SwapChain.hpp</text>
</a>
</g>
</g>
<!-- Node15&#45;&gt;Node17 -->
<g id="edge23" class="edge">
<title>Node15&#45;&gt;Node17</title>
<path fill="none" stroke="midnightblue" d="M866.39,-560.32C877.65,-552.11 894.79,-539.6 908.21,-529.81"/>
<polygon fill="midnightblue" stroke="midnightblue" points="910.38,-532.56 916.39,-523.83 906.25,-526.9 910.38,-532.56"/>
</g>
<!-- Node17&#45;&gt;Node13 -->
<g id="edge48" class="edge">
<title>Node17&#45;&gt;Node13</title>
<path fill="none" stroke="midnightblue" d="M885.4,-511.49C773.16,-507.21 478.01,-493.63 442.5,-468 394.89,-433.64 389.5,-405.71 389.5,-347 389.5,-347 389.5,-347 389.5,-233 389.5,-174.94 457.31,-146.91 511.26,-133.81"/>
<polygon fill="midnightblue" stroke="midnightblue" points="512.19,-137.18 521.15,-131.53 510.62,-130.36 512.19,-137.18"/>
</g>
<!-- Node17&#45;&gt;Node16 -->
<g id="edge24" class="edge">
<title>Node17&#45;&gt;Node16</title>
<path fill="none" stroke="midnightblue" d="M925.02,-504.5C918.11,-487.3 902.53,-447.04 893.5,-412 874.59,-338.63 870.97,-319.49 864.5,-244 863.17,-228.52 863.27,-210.89 863.65,-197.9"/>
<polygon fill="midnightblue" stroke="midnightblue" points="867.15,-197.97 864.02,-187.85 860.15,-197.72 867.15,-197.97"/>
</g>
<!-- Node18 -->
<g id="node18" class="node">
<title>Node18</title>
<g id="a_node18"><a xlink:href="_device_8hpp.html" target="_top" xlink:title=" ">
<polygon fill="none" stroke="black" points="902.5,-392.5 902.5,-411.5 968.5,-411.5 968.5,-392.5 902.5,-392.5"/>
<text text-anchor="middle" x="935.5" y="-399.5" font-family="Helvetica,sans-Serif" font-size="10.00">Device.hpp</text>
</a>
</g>
</g>
<!-- Node17&#45;&gt;Node18 -->
<g id="edge25" class="edge">
<title>Node17&#45;&gt;Node18</title>
<path fill="none" stroke="midnightblue" d="M929.05,-504.37C930.18,-486.62 932.78,-445.67 934.32,-421.6"/>
<polygon fill="midnightblue" stroke="midnightblue" points="937.81,-421.79 934.95,-411.59 930.83,-421.35 937.81,-421.79"/>
</g>
<!-- Node17&#45;&gt;Node25 -->
<g id="edge49" class="edge">
<title>Node17&#45;&gt;Node25</title>
<path fill="none" stroke="midnightblue" d="M885.18,-505.77C834.52,-497.29 747.88,-482.72 663.28,-468.13"/>
<polygon fill="midnightblue" stroke="midnightblue" points="663.69,-464.64 653.24,-466.39 662.5,-471.54 663.69,-464.64"/>
</g>
<!-- Node18&#45;&gt;Node13 -->
<g id="edge28" class="edge">
<title>Node18&#45;&gt;Node13</title>
<path fill="none" stroke="midnightblue" d="M924.36,-392.38C873.27,-352.81 661.04,-188.46 595.72,-137.88"/>
<polygon fill="midnightblue" stroke="midnightblue" points="597.56,-134.88 587.51,-131.52 593.27,-140.41 597.56,-134.88"/>
</g>
<!-- Node18&#45;&gt;Node16 -->
<g id="edge27" class="edge">
<title>Node18&#45;&gt;Node16</title>
<path fill="none" stroke="midnightblue" d="M927.45,-392.4C919.87,-383.83 908.77,-369.96 902.5,-356 878.08,-301.63 868.99,-230.68 865.91,-197.55"/>
<polygon fill="midnightblue" stroke="midnightblue" points="869.39,-197.17 865.06,-187.5 862.42,-197.76 869.39,-197.17"/>
</g>
<!-- Node19 -->
<g id="node19" class="node">
<title>Node19</title>
<g id="a_node19"><a xlink:title=" ">
<polygon fill="none" stroke="#bfbfbf" points="911.5,-336.5 911.5,-355.5 951.5,-355.5 951.5,-336.5 911.5,-336.5"/>
<text text-anchor="middle" x="931.5" y="-343.5" font-family="Helvetica,sans-Serif" font-size="10.00">utility</text>
</a>
</g>
</g>
<!-- Node18&#45;&gt;Node19 -->
<g id="edge26" class="edge">
<title>Node18&#45;&gt;Node19</title>
<path fill="none" stroke="midnightblue" d="M934.84,-392.08C934.32,-385.01 933.56,-374.86 932.91,-365.99"/>
<polygon fill="midnightblue" stroke="midnightblue" points="936.38,-365.47 932.15,-355.75 929.4,-365.98 936.38,-365.47"/>
</g>
<!-- Node20 -->
<g id="node20" class="node">
<title>Node20</title>
<g id="a_node20"><a xlink:href="_instance_8hpp.html" target="_top" xlink:title=" ">
<polygon fill="none" stroke="black" points="1178,-224.5 1178,-243.5 1251,-243.5 1251,-224.5 1178,-224.5"/>
<text text-anchor="middle" x="1214.5" y="-231.5" font-family="Helvetica,sans-Serif" font-size="10.00">Instance.hpp</text>
</a>
</g>
</g>
<!-- Node18&#45;&gt;Node20 -->
<g id="edge29" class="edge">
<title>Node18&#45;&gt;Node20</title>
<path fill="none" stroke="midnightblue" d="M968.68,-396.61C1004.12,-390.93 1061.17,-378.94 1105.5,-356 1139.97,-338.17 1146.79,-329.07 1172.5,-300 1185.54,-285.26 1197.4,-266.11 1205.17,-252.42"/>
<polygon fill="midnightblue" stroke="midnightblue" points="1208.29,-254.01 1210.06,-243.56 1202.17,-250.63 1208.29,-254.01"/>
</g>
<!-- Node21 -->
<g id="node21" class="node">
<title>Node21</title>
<g id="a_node21"><a xlink:href="_requestable_item_8hpp.html" target="_top" xlink:title=" ">
<polygon fill="none" stroke="black" points="1331.5,-168.5 1331.5,-187.5 1441.5,-187.5 1441.5,-168.5 1331.5,-168.5"/>
<text text-anchor="middle" x="1386.5" y="-175.5" font-family="Helvetica,sans-Serif" font-size="10.00">RequestableItem.hpp</text>
</a>
</g>
</g>
<!-- Node18&#45;&gt;Node21 -->
<g id="edge46" class="edge">
<title>Node18&#45;&gt;Node21</title>
<path fill="none" stroke="midnightblue" d="M968.52,-395.85C1008.52,-389.09 1077.6,-375.72 1134.5,-356 1243.82,-318.12 1295.77,-333.16 1369.5,-244 1380.29,-230.95 1384.31,-211.79 1385.77,-197.66"/>
<polygon fill="midnightblue" stroke="midnightblue" points="1389.26,-197.83 1386.47,-187.61 1382.28,-197.34 1389.26,-197.83"/>
</g>
<!-- Node22 -->
<g id="node22" class="node">
<title>Node22</title>
<g id="a_node22"><a xlink:href="_physical_device_8hpp.html" target="_top" xlink:title=" ">
<polygon fill="none" stroke="black" points="969.5,-336.5 969.5,-355.5 1073.5,-355.5 1073.5,-336.5 969.5,-336.5"/>
<text text-anchor="middle" x="1021.5" y="-343.5" font-family="Helvetica,sans-Serif" font-size="10.00">PhysicalDevice.hpp</text>
</a>
</g>
</g>
<!-- Node18&#45;&gt;Node22 -->
<g id="edge37" class="edge">
<title>Node18&#45;&gt;Node22</title>
<path fill="none" stroke="midnightblue" d="M949.32,-392.32C962.73,-383.9 983.32,-370.97 999.09,-361.07"/>
<polygon fill="midnightblue" stroke="midnightblue" points="1001.11,-363.94 1007.72,-355.65 997.39,-358.01 1001.11,-363.94"/>
</g>
<!-- Node24 -->
<g id="node24" class="node">
<title>Node24</title>
<g id="a_node24"><a xlink:href="_surface_8hpp.html" target="_top" xlink:title=" ">
<polygon fill="none" stroke="black" points="1094,-280.5 1094,-299.5 1163,-299.5 1163,-280.5 1094,-280.5"/>
<text text-anchor="middle" x="1128.5" y="-287.5" font-family="Helvetica,sans-Serif" font-size="10.00">Surface.hpp</text>
</a>
</g>
</g>
<!-- Node18&#45;&gt;Node24 -->
<g id="edge47" class="edge">
<title>Node18&#45;&gt;Node24</title>
<path fill="none" stroke="midnightblue" d="M968.61,-397.13C1000.34,-392.06 1048.33,-380.71 1082.5,-356 1099.43,-343.76 1112.4,-323.32 1120.19,-308.63"/>
<polygon fill="midnightblue" stroke="midnightblue" points="1123.39,-310.05 1124.74,-299.54 1117.13,-306.92 1123.39,-310.05"/>
</g>
<!-- Node20&#45;&gt;Node3 -->
<g id="edge31" class="edge">
<title>Node20&#45;&gt;Node3</title>
<path fill="none" stroke="midnightblue" d="M1198.48,-224.31C1148.29,-197.08 993.83,-113.29 933.25,-80.43"/>
<polygon fill="midnightblue" stroke="midnightblue" points="934.82,-77.3 924.36,-75.61 931.48,-83.45 934.82,-77.3"/>
</g>
<!-- Node20&#45;&gt;Node10 -->
<g id="edge36" class="edge">
<title>Node20&#45;&gt;Node10</title>
<path fill="none" stroke="midnightblue" d="M1216.98,-224.08C1218.99,-216.85 1221.89,-206.41 1224.39,-197.4"/>
<polygon fill="midnightblue" stroke="midnightblue" points="1227.76,-198.32 1227.07,-187.75 1221.02,-196.45 1227.76,-198.32"/>
</g>
<!-- Node20&#45;&gt;Node11 -->
<g id="edge30" class="edge">
<title>Node20&#45;&gt;Node11</title>
<path fill="none" stroke="midnightblue" d="M1228,-224.37C1257.51,-205.49 1328.04,-160.38 1364.24,-137.24"/>
<polygon fill="midnightblue" stroke="midnightblue" points="1366.53,-139.93 1373.07,-131.59 1362.76,-134.03 1366.53,-139.93"/>
</g>
<!-- Node20&#45;&gt;Node13 -->
<g id="edge33" class="edge">
<title>Node20&#45;&gt;Node13</title>
<path fill="none" stroke="midnightblue" d="M1193.2,-224.43C1170.83,-215.43 1134.66,-200.81 1103.5,-188 1082.12,-179.21 1077.93,-173.59 1055.5,-168 915.92,-133.22 747.35,-124.87 651.97,-123.13"/>
<polygon fill="midnightblue" stroke="midnightblue" points="651.9,-119.63 641.84,-122.96 651.78,-126.63 651.9,-119.63"/>
</g>
<!-- Node20&#45;&gt;Node16 -->
<g id="edge32" class="edge">
<title>Node20&#45;&gt;Node16</title>
<path fill="none" stroke="midnightblue" d="M1177.71,-227.32C1116.9,-217.94 994.97,-199.13 922.48,-187.95"/>
<polygon fill="midnightblue" stroke="midnightblue" points="922.58,-184.42 912.16,-186.35 921.51,-191.34 922.58,-184.42"/>
</g>
<!-- Node20&#45;&gt;Node21 -->
<g id="edge34" class="edge">
<title>Node20&#45;&gt;Node21</title>
<path fill="none" stroke="midnightblue" d="M1241.75,-224.44C1270.94,-215.28 1317.42,-200.69 1349.81,-190.52"/>
<polygon fill="midnightblue" stroke="midnightblue" points="1350.88,-193.85 1359.37,-187.52 1348.78,-187.17 1350.88,-193.85"/>
</g>
<!-- Node21&#45;&gt;Node11 -->
<g id="edge35" class="edge">
<title>Node21&#45;&gt;Node11</title>
<path fill="none" stroke="midnightblue" d="M1386.5,-168.08C1386.5,-161.01 1386.5,-150.86 1386.5,-141.99"/>
<polygon fill="midnightblue" stroke="midnightblue" points="1390,-141.75 1386.5,-131.75 1383,-141.75 1390,-141.75"/>
</g>
<!-- Node22&#45;&gt;Node16 -->
<g id="edge39" class="edge">
<title>Node22&#45;&gt;Node16</title>
<path fill="none" stroke="midnightblue" d="M998.72,-336.38C981.17,-328.85 957.17,-316.54 940.5,-300 912.95,-272.66 918.57,-256.59 897.5,-224 891.32,-214.44 883.86,-204.18 877.6,-195.87"/>
<polygon fill="midnightblue" stroke="midnightblue" points="880.25,-193.57 871.39,-187.75 874.68,-197.82 880.25,-193.57"/>
</g>
<!-- Node22&#45;&gt;Node21 -->
<g id="edge45" class="edge">
<title>Node22&#45;&gt;Node21</title>
<path fill="none" stroke="midnightblue" d="M1057.6,-336.46C1088.65,-328.59 1134.32,-315.77 1172.5,-300 1221.02,-279.95 1230.78,-269.8 1276.5,-244 1306.93,-226.83 1341.55,-206.18 1363.69,-192.84"/>
<polygon fill="midnightblue" stroke="midnightblue" points="1365.62,-195.76 1372.37,-187.6 1362,-189.77 1365.62,-195.76"/>
</g>
<!-- Node23 -->
<g id="node23" class="node">
<title>Node23</title>
<g id="a_node23"><a xlink:title=" ">
<polygon fill="none" stroke="#bfbfbf" points="949.5,-280.5 949.5,-299.5 999.5,-299.5 999.5,-280.5 949.5,-280.5"/>
<text text-anchor="middle" x="974.5" y="-287.5" font-family="Helvetica,sans-Serif" font-size="10.00">optional</text>
</a>
</g>
</g>
<!-- Node22&#45;&gt;Node23 -->
<g id="edge38" class="edge">
<title>Node22&#45;&gt;Node23</title>
<path fill="none" stroke="midnightblue" d="M1013.74,-336.08C1006.96,-328.3 996.96,-316.8 988.74,-307.37"/>
<polygon fill="midnightblue" stroke="midnightblue" points="991.32,-305 982.12,-299.75 986.04,-309.59 991.32,-305"/>
</g>
<!-- Node22&#45;&gt;Node24 -->
<g id="edge40" class="edge">
<title>Node22&#45;&gt;Node24</title>
<path fill="none" stroke="midnightblue" d="M1038.69,-336.32C1055.85,-327.66 1082.45,-314.24 1102.25,-304.25"/>
<polygon fill="midnightblue" stroke="midnightblue" points="1104,-307.28 1111.35,-299.65 1100.85,-301.04 1104,-307.28"/>
</g>
<!-- Node24&#45;&gt;Node10 -->
<g id="edge42" class="edge">
<title>Node24&#45;&gt;Node10</title>
<path fill="none" stroke="midnightblue" d="M1163.24,-281.92C1198.33,-273.99 1248.98,-260.1 1260.5,-244 1271.57,-228.53 1258.53,-208.49 1246.13,-194.78"/>
<polygon fill="midnightblue" stroke="midnightblue" points="1248.57,-192.26 1239.09,-187.52 1243.54,-197.13 1248.57,-192.26"/>
</g>
<!-- Node24&#45;&gt;Node13 -->
<g id="edge43" class="edge">
<title>Node24&#45;&gt;Node13</title>
<path fill="none" stroke="midnightblue" d="M1118.95,-280.41C1103.9,-267.16 1073.39,-241.43 1044.5,-224 993.07,-192.97 979.25,-184.51 921.5,-168 830.86,-142.09 722.5,-131.04 651.73,-126.37"/>
<polygon fill="midnightblue" stroke="midnightblue" points="651.77,-122.87 641.56,-125.73 651.32,-129.85 651.77,-122.87"/>
</g>
<!-- Node24&#45;&gt;Node16 -->
<g id="edge41" class="edge">
<title>Node24&#45;&gt;Node16</title>
<path fill="none" stroke="midnightblue" d="M1115.28,-280.44C1094.07,-266.99 1050.85,-240.73 1011.5,-224 978.32,-209.89 939.23,-198.14 909.71,-190.19"/>
<polygon fill="midnightblue" stroke="midnightblue" points="910.25,-186.72 899.69,-187.54 908.46,-193.48 910.25,-186.72"/>
</g>
<!-- Node24&#45;&gt;Node20 -->
<g id="edge44" class="edge">
<title>Node24&#45;&gt;Node20</title>
<path fill="none" stroke="midnightblue" d="M1142.32,-280.32C1155.73,-271.9 1176.32,-258.97 1192.09,-249.07"/>
<polygon fill="midnightblue" stroke="midnightblue" points="1194.11,-251.94 1200.72,-243.65 1190.39,-246.01 1194.11,-251.94"/>
</g>
<!-- Node25&#45;&gt;Node13 -->
<g id="edge50" class="edge">
<title>Node25&#45;&gt;Node13</title>
<path fill="none" stroke="midnightblue" d="M610.6,-448.41C605.99,-404.38 584.96,-203.74 578.44,-141.48"/>
<polygon fill="midnightblue" stroke="midnightblue" points="581.92,-141.12 577.39,-131.54 574.96,-141.85 581.92,-141.12"/>
</g>
<!-- Node25&#45;&gt;Node16 -->
<g id="edge52" class="edge">
<title>Node25&#45;&gt;Node16</title>
<path fill="none" stroke="midnightblue" d="M615.7,-448.26C632.03,-415.06 694.44,-295.06 776.5,-224 792.59,-210.07 813.75,-199.07 831.28,-191.44"/>
<polygon fill="midnightblue" stroke="midnightblue" points="832.72,-194.63 840.6,-187.55 830.02,-188.17 832.72,-194.63"/>
</g>
<!-- Node25&#45;&gt;Node18 -->
<g id="edge51" class="edge">
<title>Node25&#45;&gt;Node18</title>
<path fill="none" stroke="midnightblue" d="M653.24,-449.59C656.37,-449.05 659.49,-448.51 662.5,-448 743.68,-434.15 838.58,-418.66 892.4,-409.95"/>
<polygon fill="midnightblue" stroke="midnightblue" points="892.97,-413.4 902.28,-408.35 891.85,-406.49 892.97,-413.4"/>
</g>
<!-- Node26&#45;&gt;Node13 -->
<g id="edge57" class="edge">
<title>Node26&#45;&gt;Node13</title>
<path fill="none" stroke="midnightblue" d="M1089.75,-621.82C1160.13,-614.45 1260.5,-590.68 1260.5,-515 1260.5,-515 1260.5,-515 1260.5,-401 1260.5,-334.5 1222.22,-324.16 1172.5,-280 1093.71,-210.02 1064.33,-198.66 963.5,-168 858.52,-136.08 731.19,-126.54 651.99,-123.84"/>
<polygon fill="midnightblue" stroke="midnightblue" points="651.73,-120.33 641.62,-123.52 651.51,-127.33 651.73,-120.33"/>
</g>
<!-- Node26&#45;&gt;Node15 -->
<g id="edge62" class="edge">
<title>Node26&#45;&gt;Node15</title>
<path fill="none" stroke="midnightblue" d="M995.88,-616.44C967.49,-607.32 922.36,-592.81 890.75,-582.65"/>
<polygon fill="midnightblue" stroke="midnightblue" points="891.59,-579.24 881,-579.52 889.44,-585.91 891.59,-579.24"/>
</g>
<!-- Node26&#45;&gt;Node16 -->
<g id="edge56" class="edge">
<title>Node26&#45;&gt;Node16</title>
<path fill="none" stroke="midnightblue" d="M1082.51,-616.45C1139.16,-604.59 1215.5,-577.09 1215.5,-515 1215.5,-515 1215.5,-515 1215.5,-401 1215.5,-392.63 978.83,-228.05 971.5,-224 947.94,-210.99 919.84,-199.31 898.35,-191.11"/>
<polygon fill="midnightblue" stroke="midnightblue" points="899.58,-187.83 888.98,-187.6 897.12,-194.39 899.58,-187.83"/>
</g>
<!-- Node26&#45;&gt;Node17 -->
<g id="edge73" class="edge">
<title>Node26&#45;&gt;Node17</title>
<path fill="none" stroke="midnightblue" d="M1015.12,-616.37C999.47,-598.05 962.72,-555.05 942.48,-531.36"/>
<polygon fill="midnightblue" stroke="midnightblue" points="945,-528.92 935.84,-523.59 939.68,-533.47 945,-528.92"/>
</g>
<!-- Node27 -->
<g id="node27" class="node">
<title>Node27</title>
<g id="a_node27"><a xlink:href="_pipeline_layout_8hpp.html" target="_top" xlink:title=" ">
<polygon fill="none" stroke="black" points="971,-448.5 971,-467.5 1070,-467.5 1070,-448.5 971,-448.5"/>
<text text-anchor="middle" x="1020.5" y="-455.5" font-family="Helvetica,sans-Serif" font-size="10.00">PipelineLayout.hpp</text>
</a>
</g>
</g>
<!-- Node26&#45;&gt;Node27 -->
<g id="edge58" class="edge">
<title>Node26&#45;&gt;Node27</title>
<path fill="none" stroke="midnightblue" d="M1022.39,-616.08C1022.08,-589.95 1021.15,-513.21 1020.72,-477.58"/>
<polygon fill="midnightblue" stroke="midnightblue" points="1024.22,-477.53 1020.6,-467.57 1017.22,-477.61 1024.22,-477.53"/>
</g>
<!-- Node28 -->
<g id="node28" class="node">
<title>Node28</title>
<g id="a_node28"><a xlink:href="_shader_8hpp.html" target="_top" xlink:title=" ">
<polygon fill="none" stroke="black" points="1368,-448.5 1368,-467.5 1433,-467.5 1433,-448.5 1368,-448.5"/>
<text text-anchor="middle" x="1400.5" y="-455.5" font-family="Helvetica,sans-Serif" font-size="10.00">Shader.hpp</text>
</a>
</g>
</g>
<!-- Node26&#45;&gt;Node28 -->
<g id="edge63" class="edge">
<title>Node26&#45;&gt;Node28</title>
<path fill="none" stroke="midnightblue" d="M1089.53,-623.56C1142.34,-620.01 1216.48,-609.54 1274.5,-580 1324.52,-554.53 1368.07,-502.65 1388.36,-475.85"/>
<polygon fill="midnightblue" stroke="midnightblue" points="1391.19,-477.92 1394.33,-467.8 1385.56,-473.75 1391.19,-477.92"/>
</g>
<!-- Node27&#45;&gt;Node13 -->
<g id="edge61" class="edge">
<title>Node27&#45;&gt;Node13</title>
<path fill="none" stroke="midnightblue" d="M984.88,-448.49C958.46,-441.22 922.19,-429.19 893.5,-412 759.09,-331.45 631.49,-188.09 590.29,-139.57"/>
<polygon fill="midnightblue" stroke="midnightblue" points="592.75,-137.05 583.63,-131.65 587.39,-141.56 592.75,-137.05"/>
</g>
<!-- Node27&#45;&gt;Node16 -->
<g id="edge59" class="edge">
<title>Node27&#45;&gt;Node16</title>
<path fill="none" stroke="midnightblue" d="M1031.12,-448.23C1053.85,-428.35 1103.52,-378.27 1082.5,-336 1061.82,-294.42 941.44,-222.55 888.95,-192.66"/>
<polygon fill="midnightblue" stroke="midnightblue" points="890.41,-189.46 879.98,-187.58 886.96,-195.55 890.41,-189.46"/>
</g>
<!-- Node27&#45;&gt;Node18 -->
<g id="edge60" class="edge">
<title>Node27&#45;&gt;Node18</title>
<path fill="none" stroke="midnightblue" d="M1006.84,-448.32C993.58,-439.9 973.23,-426.97 957.65,-417.07"/>
<polygon fill="midnightblue" stroke="midnightblue" points="959.44,-414.06 949.12,-411.65 955.69,-419.97 959.44,-414.06"/>
</g>
<!-- Node28&#45;&gt;Node3 -->
<g id="edge66" class="edge">
<title>Node28&#45;&gt;Node3</title>
<path fill="none" stroke="midnightblue" d="M1411.55,-448.23C1438.89,-425.45 1507.5,-361.29 1507.5,-291 1507.5,-291 1507.5,-291 1507.5,-177 1507.5,-127.3 1463.12,-129.24 1416.5,-112 1328.56,-79.47 1038.38,-69.96 940.82,-67.65"/>
<polygon fill="midnightblue" stroke="midnightblue" points="940.76,-64.15 930.68,-67.42 940.6,-71.15 940.76,-64.15"/>
</g>
<!-- Node28&#45;&gt;Node8 -->
<g id="edge64" class="edge">
<title>Node28&#45;&gt;Node8</title>
<path fill="none" stroke="midnightblue" d="M1433.04,-456.92C1500.12,-454.88 1647.5,-439.83 1647.5,-347 1647.5,-347 1647.5,-347 1647.5,-121 1647.5,-17.64 1260.88,-10.49 1143.74,-10.69"/>
<polygon fill="midnightblue" stroke="midnightblue" points="1143.56,-7.19 1133.57,-10.73 1143.59,-14.19 1143.56,-7.19"/>
</g>
<!-- Node28&#45;&gt;Node11 -->
<g id="edge65" class="edge">
<title>Node28&#45;&gt;Node11</title>
<path fill="none" stroke="midnightblue" d="M1405.67,-448.37C1426.74,-411.98 1502.6,-268.32 1450.5,-168 1443.2,-153.94 1429.25,-143.34 1416.24,-135.98"/>
<polygon fill="midnightblue" stroke="midnightblue" points="1417.53,-132.7 1407.04,-131.19 1414.29,-138.91 1417.53,-132.7"/>
</g>
<!-- Node28&#45;&gt;Node13 -->
<g id="edge72" class="edge">
<title>Node28&#45;&gt;Node13</title>
<path fill="none" stroke="midnightblue" d="M1394.24,-448.37C1381.88,-430.44 1355.5,-387.44 1355.5,-347 1355.5,-347 1355.5,-347 1355.5,-289 1355.5,-237.84 1306.3,-246.79 1260.5,-224 1225.46,-206.56 1131.82,-175.98 1093.5,-168 938.72,-135.79 753.22,-126.59 651.84,-123.99"/>
<polygon fill="midnightblue" stroke="midnightblue" points="651.78,-120.49 641.69,-123.75 651.61,-127.49 651.78,-120.49"/>
</g>
<!-- Node28&#45;&gt;Node16 -->
<g id="edge67" class="edge">
<title>Node28&#45;&gt;Node16</title>
<path fill="none" stroke="midnightblue" d="M1389.16,-448.41C1377.26,-439.38 1358.02,-424.75 1341.5,-412 1266.05,-353.77 1254.36,-328.82 1172.5,-280 1119.17,-248.19 1103.27,-244.04 1044.5,-224 1002.42,-209.65 953.39,-197.69 917.14,-189.72"/>
<polygon fill="midnightblue" stroke="midnightblue" points="917.78,-186.28 907.27,-187.58 916.3,-193.12 917.78,-186.28"/>
</g>
<!-- Node28&#45;&gt;Node18 -->
<g id="edge71" class="edge">
<title>Node28&#45;&gt;Node18</title>
<path fill="none" stroke="midnightblue" d="M1367.8,-453.2C1285.79,-443.68 1071.33,-418.77 978.91,-408.04"/>
<polygon fill="midnightblue" stroke="midnightblue" points="979.12,-404.54 968.78,-406.87 978.31,-411.5 979.12,-404.54"/>
</g>
<!-- Node29 -->
<g id="node29" class="node">
<title>Node29</title>
<g id="a_node29"><a xlink:href="_asset_8hpp.html" target="_top" xlink:title=" ">
<polygon fill="none" stroke="black" points="1536,-168.5 1536,-187.5 1619,-187.5 1619,-168.5 1536,-168.5"/>
<text text-anchor="middle" x="1577.5" y="-175.5" font-family="Helvetica,sans-Serif" font-size="10.00">york/Asset.hpp</text>
</a>
</g>
</g>
<!-- Node28&#45;&gt;Node29 -->
<g id="edge68" class="edge">
<title>Node28&#45;&gt;Node29</title>
<path fill="none" stroke="midnightblue" d="M1433.08,-450.18C1480.13,-438.22 1561.5,-408.61 1561.5,-347 1561.5,-347 1561.5,-347 1561.5,-289 1561.5,-256.63 1568.37,-219.44 1573.11,-197.66"/>
<polygon fill="midnightblue" stroke="midnightblue" points="1576.55,-198.3 1575.34,-187.78 1569.72,-196.76 1576.55,-198.3"/>
</g>
<!-- Node29&#45;&gt;Node3 -->
<g id="edge70" class="edge">
<title>Node29&#45;&gt;Node3</title>
<path fill="none" stroke="midnightblue" d="M1573.04,-168.34C1564.99,-153.75 1546.51,-124.59 1521.5,-112 1469.45,-85.79 1059.94,-71.55 940.87,-67.93"/>
<polygon fill="midnightblue" stroke="midnightblue" points="940.69,-64.42 930.59,-67.62 940.48,-71.42 940.69,-64.42"/>
</g>
<!-- Node29&#45;&gt;Node11 -->
<g id="edge69" class="edge">
<title>Node29&#45;&gt;Node11</title>
<path fill="none" stroke="midnightblue" d="M1547.24,-168.44C1511.62,-158.37 1452.82,-141.75 1417.07,-131.64"/>
<polygon fill="midnightblue" stroke="midnightblue" points="1417.78,-128.21 1407.2,-128.85 1415.87,-134.94 1417.78,-128.21"/>
</g>
<!-- Node30&#45;&gt;Node13 -->
<g id="edge76" class="edge">
<title>Node30&#45;&gt;Node13</title>
<path fill="none" stroke="midnightblue" d="M746.04,-448.35C726.6,-425.49 673.7,-360.99 641.5,-300 612.52,-245.12 590.82,-174.46 581.51,-141.48"/>
<polygon fill="midnightblue" stroke="midnightblue" points="584.87,-140.53 578.83,-131.82 578.13,-142.39 584.87,-140.53"/>
</g>
<!-- Node30&#45;&gt;Node16 -->
<g id="edge75" class="edge">
<title>Node30&#45;&gt;Node16</title>
<path fill="none" stroke="midnightblue" d="M752.28,-448.23C748.16,-414.94 737.93,-294.65 793.5,-224 804.31,-210.26 820.54,-199.53 834.76,-192"/>
<polygon fill="midnightblue" stroke="midnightblue" points="836.36,-195.11 843.74,-187.51 833.23,-188.85 836.36,-195.11"/>
</g>
<!-- Node30&#45;&gt;Node18 -->
<g id="edge77" class="edge">
<title>Node30&#45;&gt;Node18</title>
<path fill="none" stroke="midnightblue" d="M782.34,-448.44C813.36,-439.24 862.83,-424.56 897.12,-414.39"/>
<polygon fill="midnightblue" stroke="midnightblue" points="898.21,-417.72 906.8,-411.52 896.21,-411.01 898.21,-417.72"/>
</g>
<!-- Node31&#45;&gt;Node13 -->
<g id="edge79" class="edge">
<title>Node31&#45;&gt;Node13</title>
<path fill="none" stroke="midnightblue" d="M322.66,-448.22C327.03,-429.66 336.5,-385.02 336.5,-347 336.5,-347 336.5,-347 336.5,-233 336.5,-199.31 348.18,-187.72 375.5,-168 395.98,-153.21 455.06,-141.04 503.91,-133.11"/>
<polygon fill="midnightblue" stroke="midnightblue" points="504.52,-136.55 513.84,-131.52 503.42,-129.64 504.52,-136.55"/>
</g>
<!-- Node31&#45;&gt;Node16 -->
<g id="edge81" class="edge">
<title>Node31&#45;&gt;Node16</title>
<path fill="none" stroke="midnightblue" d="M327.99,-448.43C358.84,-413.78 480.53,-282.99 610.5,-224 673.58,-195.37 753.17,-184.91 806.28,-181.11"/>
<polygon fill="midnightblue" stroke="midnightblue" points="806.79,-184.59 816.54,-180.44 806.33,-177.6 806.79,-184.59"/>
</g>
<!-- Node31&#45;&gt;Node18 -->
<g id="edge80" class="edge">
<title>Node31&#45;&gt;Node18</title>
<path fill="none" stroke="midnightblue" d="M395.3,-450.43C525.28,-439.02 788.86,-415.88 892.38,-406.79"/>
<polygon fill="midnightblue" stroke="midnightblue" points="892.81,-410.26 902.47,-405.9 892.2,-403.29 892.81,-410.26"/>
</g>
<!-- Node32&#45;&gt;Node14 -->
<g id="edge89" class="edge">
<title>Node32&#45;&gt;Node14</title>
<path fill="none" stroke="midnightblue" d="M611.5,-672.08C611.5,-665.01 611.5,-654.86 611.5,-645.99"/>
<polygon fill="midnightblue" stroke="midnightblue" points="615,-645.75 611.5,-635.75 608,-645.75 615,-645.75"/>
</g>
<!-- Node32&#45;&gt;Node17 -->
<g id="edge90" class="edge">
<title>Node32&#45;&gt;Node17</title>
<path fill="none" stroke="midnightblue" d="M685.6,-674.61C752.59,-664.97 849.5,-640.76 908.5,-580 920.44,-567.7 925.27,-548.45 927.21,-534.08"/>
<polygon fill="midnightblue" stroke="midnightblue" points="930.73,-534.13 928.24,-523.83 923.76,-533.44 930.73,-534.13"/>
</g>
<!-- Node32&#45;&gt;Node30 -->
<g id="edge84" class="edge">
<title>Node32&#45;&gt;Node30</title>
<path fill="none" stroke="midnightblue" d="M639.59,-672.39C658.15,-665.35 681.7,-653.66 696.5,-636 699.15,-632.84 733.83,-522.14 747.76,-477.44"/>
<polygon fill="midnightblue" stroke="midnightblue" points="751.12,-478.42 750.76,-467.83 744.44,-476.34 751.12,-478.42"/>
</g>
<!-- Node32&#45;&gt;Node31 -->
<g id="edge83" class="edge">
<title>Node32&#45;&gt;Node31</title>
<path fill="none" stroke="midnightblue" d="M586.24,-672.42C565.06,-664.61 534.51,-651.89 510.5,-636 436.68,-587.15 364.32,-509.1 334.61,-475.39"/>
<polygon fill="midnightblue" stroke="midnightblue" points="337.22,-473.05 328,-467.82 331.94,-477.65 337.22,-473.05"/>
</g>
<!-- Node33 -->
<g id="node33" class="node">
<title>Node33</title>
<g id="a_node33"><a xlink:href="_fence_8hpp.html" target="_top" xlink:title=" ">
<polygon fill="none" stroke="black" points="451.5,-448.5 451.5,-467.5 513.5,-467.5 513.5,-448.5 451.5,-448.5"/>
<text text-anchor="middle" x="482.5" y="-455.5" font-family="Helvetica,sans-Serif" font-size="10.00">Fence.hpp</text>
</a>
</g>
</g>
<!-- Node32&#45;&gt;Node33 -->
<g id="edge85" class="edge">
<title>Node32&#45;&gt;Node33</title>
<path fill="none" stroke="midnightblue" d="M582.2,-672.4C563.61,-665.47 540.49,-653.89 526.5,-636 489.17,-588.27 483.06,-512.99 482.36,-478.02"/>
<polygon fill="midnightblue" stroke="midnightblue" points="485.86,-477.78 482.29,-467.81 478.86,-477.83 485.86,-477.78"/>
</g>
<!-- Node33&#45;&gt;Node13 -->
<g id="edge87" class="edge">
<title>Node33&#45;&gt;Node13</title>
<path fill="none" stroke="midnightblue" d="M483.25,-448.08C484.43,-435.48 487.04,-411.78 491.5,-392 513.25,-295.54 553.56,-183.92 569.63,-141.04"/>
<polygon fill="midnightblue" stroke="midnightblue" points="572.91,-142.27 573.17,-131.68 566.36,-139.8 572.91,-142.27"/>
</g>
<!-- Node33&#45;&gt;Node16 -->
<g id="edge86" class="edge">
<title>Node33&#45;&gt;Node16</title>
<path fill="none" stroke="midnightblue" d="M484.36,-448.46C490.8,-420.69 514.61,-331.82 565.5,-280 630.41,-213.91 740,-191.06 806.94,-183.17"/>
<polygon fill="midnightblue" stroke="midnightblue" points="807.34,-186.64 816.9,-182.06 806.57,-179.68 807.34,-186.64"/>
</g>
<!-- Node33&#45;&gt;Node18 -->
<g id="edge88" class="edge">
<title>Node33&#45;&gt;Node18</title>
<path fill="none" stroke="midnightblue" d="M513.64,-453.29C592.74,-443.86 801.6,-418.96 892.37,-408.14"/>
<polygon fill="midnightblue" stroke="midnightblue" points="892.8,-411.61 902.32,-406.96 891.97,-404.66 892.8,-411.61"/>
</g>
</g>
</svg>
