<?xml version="1.0" encoding="UTF-8" standalone="no"?>
<!DOCTYPE svg PUBLIC "-//W3C//DTD SVG 1.1//EN"
 "http://www.w3.org/Graphics/SVG/1.1/DTD/svg11.dtd">
<!-- Generated by graphviz version 2.50.0 (20211204.2007)
 -->
<!-- Title: include/york/Graphics/Semaphore.hpp Pages: 1 -->
<svg width="635pt" height="431pt"
 viewBox="0.00 0.00 634.78 431.00" xmlns="http://www.w3.org/2000/svg" xmlns:xlink="http://www.w3.org/1999/xlink">
<g id="graph0" class="graph" transform="scale(1 1) rotate(0) translate(4 427)">
<title>include/york/Graphics/Semaphore.hpp</title>
<!-- Node1 -->
<g id="node1" class="node">
<title>Node1</title>
<g id="a_node1"><a xlink:title=" ">
<polygon fill="#bfbfbf" stroke="black" points="0,-392.5 0,-422.5 111,-422.5 111,-392.5 0,-392.5"/>
<text text-anchor="start" x="8" y="-410.5" font-family="Helvetica,sans-Serif" font-size="10.00">include/york/Graphics</text>
<text text-anchor="middle" x="55.5" y="-399.5" font-family="Helvetica,sans-Serif" font-size="10.00">/Semaphore.hpp</text>
</a>
</g>
</g>
<!-- Node2 -->
<g id="node2" class="node">
<title>Node2</title>
<g id="a_node2"><a xlink:href="_handle_8hpp.html" target="_top" xlink:title="Contains the declarations for the Handle classes which form the basis of our Vulkan implementation.">
<polygon fill="none" stroke="black" points="153.5,-112.5 153.5,-131.5 219.5,-131.5 219.5,-112.5 153.5,-112.5"/>
<text text-anchor="middle" x="186.5" y="-119.5" font-family="Helvetica,sans-Serif" font-size="10.00">Handle.hpp</text>
</a>
</g>
</g>
<!-- Node1&#45;&gt;Node2 -->
<g id="edge1" class="edge">
<title>Node1&#45;&gt;Node2</title>
<path fill="none" stroke="midnightblue" d="M47.63,-392.41C36.5,-371.13 17.5,-329.21 17.5,-291 17.5,-291 17.5,-291 17.5,-233 17.5,-173.06 93.09,-144.1 143.16,-131.48"/>
<polygon fill="midnightblue" stroke="midnightblue" points="144.2,-134.83 153.11,-129.1 142.57,-128.03 144.2,-134.83"/>
</g>
<!-- Node7 -->
<g id="node7" class="node">
<title>Node7</title>
<g id="a_node7"><a xlink:href="_device_8hpp.html" target="_top" xlink:title=" ">
<polygon fill="none" stroke="black" points="198.5,-336.5 198.5,-355.5 264.5,-355.5 264.5,-336.5 198.5,-336.5"/>
<text text-anchor="middle" x="231.5" y="-343.5" font-family="Helvetica,sans-Serif" font-size="10.00">Device.hpp</text>
</a>
</g>
</g>
<!-- Node1&#45;&gt;Node7 -->
<g id="edge6" class="edge">
<title>Node1&#45;&gt;Node7</title>
<path fill="none" stroke="midnightblue" d="M97.21,-392.4C127.49,-382.16 167.99,-368.47 196.57,-358.81"/>
<polygon fill="midnightblue" stroke="midnightblue" points="197.8,-362.09 206.15,-355.57 195.55,-355.46 197.8,-362.09"/>
</g>
<!-- Node9 -->
<g id="node9" class="node">
<title>Node9</title>
<g id="a_node9"><a xlink:title=" ">
<polygon fill="none" stroke="#bfbfbf" points="131,-168.5 131,-187.5 226,-187.5 226,-168.5 131,-168.5"/>
<text text-anchor="middle" x="178.5" y="-175.5" font-family="Helvetica,sans-Serif" font-size="10.00">vulkan/vulkan.hpp</text>
</a>
</g>
</g>
<!-- Node1&#45;&gt;Node9 -->
<g id="edge32" class="edge">
<title>Node1&#45;&gt;Node9</title>
<path fill="none" stroke="midnightblue" d="M63.19,-392.27C84.66,-352.56 145.19,-240.61 168.85,-196.85"/>
<polygon fill="midnightblue" stroke="midnightblue" points="172,-198.39 173.67,-187.93 165.84,-195.06 172,-198.39"/>
</g>
<!-- Node3 -->
<g id="node3" class="node">
<title>Node3</title>
<g id="a_node3"><a xlink:title=" ">
<polygon fill="none" stroke="#bfbfbf" points="449.5,-56.5 449.5,-75.5 493.5,-75.5 493.5,-56.5 449.5,-56.5"/>
<text text-anchor="middle" x="471.5" y="-63.5" font-family="Helvetica,sans-Serif" font-size="10.00">vector</text>
</a>
</g>
</g>
<!-- Node2&#45;&gt;Node3 -->
<g id="edge2" class="edge">
<title>Node2&#45;&gt;Node3</title>
<path fill="none" stroke="midnightblue" d="M219.75,-114.7C274.95,-104.24 384.81,-83.42 439.31,-73.1"/>
<polygon fill="midnightblue" stroke="midnightblue" points="440.26,-76.48 449.44,-71.18 438.96,-69.6 440.26,-76.48"/>
</g>
<!-- Node4 -->
<g id="node4" class="node">
<title>Node4</title>
<g id="a_node4"><a xlink:title=" ">
<polygon fill="none" stroke="#bfbfbf" points="207,-56.5 207,-75.5 266,-75.5 266,-56.5 207,-56.5"/>
<text text-anchor="middle" x="236.5" y="-63.5" font-family="Helvetica,sans-Serif" font-size="10.00">functional</text>
</a>
</g>
</g>
<!-- Node2&#45;&gt;Node4 -->
<g id="edge3" class="edge">
<title>Node2&#45;&gt;Node4</title>
<path fill="none" stroke="midnightblue" d="M194.76,-112.08C201.96,-104.3 212.61,-92.8 221.35,-83.37"/>
<polygon fill="midnightblue" stroke="midnightblue" points="224.17,-85.47 228.4,-75.75 219.03,-80.71 224.17,-85.47"/>
</g>
<!-- Node5 -->
<g id="node5" class="node">
<title>Node5</title>
<g id="a_node5"><a xlink:href="_identifiable_8hpp.html" target="_top" xlink:title=" ">
<polygon fill="none" stroke="black" points="84.5,-56.5 84.5,-75.5 188.5,-75.5 188.5,-56.5 84.5,-56.5"/>
<text text-anchor="middle" x="136.5" y="-63.5" font-family="Helvetica,sans-Serif" font-size="10.00">york/Identifiable.hpp</text>
</a>
</g>
</g>
<!-- Node2&#45;&gt;Node5 -->
<g id="edge4" class="edge">
<title>Node2&#45;&gt;Node5</title>
<path fill="none" stroke="midnightblue" d="M178.24,-112.08C171.04,-104.3 160.39,-92.8 151.65,-83.37"/>
<polygon fill="midnightblue" stroke="midnightblue" points="153.97,-80.71 144.6,-75.75 148.83,-85.47 153.97,-80.71"/>
</g>
<!-- Node6 -->
<g id="node6" class="node">
<title>Node6</title>
<g id="a_node6"><a xlink:title=" ">
<polygon fill="none" stroke="#bfbfbf" points="113.5,-0.5 113.5,-19.5 159.5,-19.5 159.5,-0.5 113.5,-0.5"/>
<text text-anchor="middle" x="136.5" y="-7.5" font-family="Helvetica,sans-Serif" font-size="10.00">cstdint</text>
</a>
</g>
</g>
<!-- Node5&#45;&gt;Node6 -->
<g id="edge5" class="edge">
<title>Node5&#45;&gt;Node6</title>
<path fill="none" stroke="midnightblue" d="M136.5,-56.08C136.5,-49.01 136.5,-38.86 136.5,-29.99"/>
<polygon fill="midnightblue" stroke="midnightblue" points="140,-29.75 136.5,-19.75 133,-29.75 140,-29.75"/>
</g>
<!-- Node7&#45;&gt;Node2 -->
<g id="edge9" class="edge">
<title>Node7&#45;&gt;Node2</title>
<path fill="none" stroke="midnightblue" d="M221.76,-336.33C197.95,-314.37 137.13,-253.67 115.5,-188 112.72,-179.56 111.22,-175.79 115.5,-168 123.39,-153.66 137.99,-143.25 151.9,-136.08"/>
<polygon fill="midnightblue" stroke="midnightblue" points="153.79,-139.06 161.34,-131.62 150.8,-132.73 153.79,-139.06"/>
</g>
<!-- Node8 -->
<g id="node8" class="node">
<title>Node8</title>
<g id="a_node8"><a xlink:title=" ">
<polygon fill="none" stroke="#bfbfbf" points="235.5,-280.5 235.5,-299.5 275.5,-299.5 275.5,-280.5 235.5,-280.5"/>
<text text-anchor="middle" x="255.5" y="-287.5" font-family="Helvetica,sans-Serif" font-size="10.00">utility</text>
</a>
</g>
</g>
<!-- Node7&#45;&gt;Node8 -->
<g id="edge7" class="edge">
<title>Node7&#45;&gt;Node8</title>
<path fill="none" stroke="midnightblue" d="M235.46,-336.08C238.71,-328.77 243.42,-318.18 247.45,-309.1"/>
<polygon fill="midnightblue" stroke="midnightblue" points="250.75,-310.31 251.61,-299.75 244.35,-307.47 250.75,-310.31"/>
</g>
<!-- Node7&#45;&gt;Node9 -->
<g id="edge8" class="edge">
<title>Node7&#45;&gt;Node9</title>
<path fill="none" stroke="midnightblue" d="M228.65,-336.08C220.27,-309.83 195.6,-232.55 184.28,-197.12"/>
<polygon fill="midnightblue" stroke="midnightblue" points="187.61,-196.03 181.24,-187.57 180.94,-198.16 187.61,-196.03"/>
</g>
<!-- Node10 -->
<g id="node10" class="node">
<title>Node10</title>
<g id="a_node10"><a xlink:href="_instance_8hpp.html" target="_top" xlink:title=" ">
<polygon fill="none" stroke="black" points="396,-224.5 396,-243.5 469,-243.5 469,-224.5 396,-224.5"/>
<text text-anchor="middle" x="432.5" y="-231.5" font-family="Helvetica,sans-Serif" font-size="10.00">Instance.hpp</text>
</a>
</g>
</g>
<!-- Node7&#45;&gt;Node10 -->
<g id="edge10" class="edge">
<title>Node7&#45;&gt;Node10</title>
<path fill="none" stroke="midnightblue" d="M264.63,-339.45C294.59,-333.3 339.02,-321.33 372.5,-300 392.24,-287.43 409.74,-266.79 420.67,-252.15"/>
<polygon fill="midnightblue" stroke="midnightblue" points="423.58,-254.09 426.59,-243.93 417.9,-250 423.58,-254.09"/>
</g>
<!-- Node12 -->
<g id="node12" class="node">
<title>Node12</title>
<g id="a_node12"><a xlink:href="_requestable_item_8hpp.html" target="_top" xlink:title=" ">
<polygon fill="none" stroke="black" points="498.5,-168.5 498.5,-187.5 608.5,-187.5 608.5,-168.5 498.5,-168.5"/>
<text text-anchor="middle" x="553.5" y="-175.5" font-family="Helvetica,sans-Serif" font-size="10.00">RequestableItem.hpp</text>
</a>
</g>
</g>
<!-- Node7&#45;&gt;Node12 -->
<g id="edge26" class="edge">
<title>Node7&#45;&gt;Node12</title>
<path fill="none" stroke="midnightblue" d="M264.69,-339.58C299.26,-333.14 354.43,-320.59 398.5,-300 437.82,-281.63 444.28,-270.69 478.5,-244 499.13,-227.91 521.68,-208.03 536.61,-194.52"/>
<polygon fill="midnightblue" stroke="midnightblue" points="539.02,-197.06 544.06,-187.74 534.31,-191.89 539.02,-197.06"/>
</g>
<!-- Node15 -->
<g id="node15" class="node">
<title>Node15</title>
<g id="a_node15"><a xlink:href="_physical_device_8hpp.html" target="_top" xlink:title=" ">
<polygon fill="none" stroke="black" points="235.5,-224.5 235.5,-243.5 339.5,-243.5 339.5,-224.5 235.5,-224.5"/>
<text text-anchor="middle" x="287.5" y="-231.5" font-family="Helvetica,sans-Serif" font-size="10.00">PhysicalDevice.hpp</text>
</a>
</g>
</g>
<!-- Node7&#45;&gt;Node15 -->
<g id="edge21" class="edge">
<title>Node7&#45;&gt;Node15</title>
<path fill="none" stroke="midnightblue" d="M228.16,-336.46C223.66,-323.48 217.22,-298.39 226.5,-280 233.31,-266.52 246.27,-256.08 258.5,-248.67"/>
<polygon fill="midnightblue" stroke="midnightblue" points="260.57,-251.52 267.59,-243.59 257.16,-245.41 260.57,-251.52"/>
</g>
<!-- Node17 -->
<g id="node17" class="node">
<title>Node17</title>
<g id="a_node17"><a xlink:href="_surface_8hpp.html" target="_top" xlink:title=" ">
<polygon fill="none" stroke="black" points="294,-280.5 294,-299.5 363,-299.5 363,-280.5 294,-280.5"/>
<text text-anchor="middle" x="328.5" y="-287.5" font-family="Helvetica,sans-Serif" font-size="10.00">Surface.hpp</text>
</a>
</g>
</g>
<!-- Node7&#45;&gt;Node17 -->
<g id="edge27" class="edge">
<title>Node7&#45;&gt;Node17</title>
<path fill="none" stroke="midnightblue" d="M247.08,-336.32C262.5,-327.74 286.31,-314.49 304.21,-304.52"/>
<polygon fill="midnightblue" stroke="midnightblue" points="305.92,-307.58 312.95,-299.65 302.51,-301.46 305.92,-307.58"/>
</g>
<!-- Node10&#45;&gt;Node2 -->
<g id="edge14" class="edge">
<title>Node10&#45;&gt;Node2</title>
<path fill="none" stroke="midnightblue" d="M432.63,-224.39C432.35,-210.39 429.63,-182.76 413.5,-168 387.15,-143.89 287.88,-131.56 229.71,-126.28"/>
<polygon fill="midnightblue" stroke="midnightblue" points="229.96,-122.79 219.7,-125.4 229.35,-129.76 229.96,-122.79"/>
</g>
<!-- Node10&#45;&gt;Node3 -->
<g id="edge12" class="edge">
<title>Node10&#45;&gt;Node3</title>
<path fill="none" stroke="midnightblue" d="M469.32,-229.36C517.91,-223.71 599.42,-211 617.5,-188 656.1,-138.88 557.25,-96.09 503.51,-77.24"/>
<polygon fill="midnightblue" stroke="midnightblue" points="504.33,-73.82 493.73,-73.9 502.06,-80.45 504.33,-73.82"/>
</g>
<!-- Node10&#45;&gt;Node9 -->
<g id="edge13" class="edge">
<title>Node10&#45;&gt;Node9</title>
<path fill="none" stroke="midnightblue" d="M395.84,-225.21C351.75,-215.83 277.56,-200.06 228.31,-189.59"/>
<polygon fill="midnightblue" stroke="midnightblue" points="229.01,-186.16 218.5,-187.5 227.56,-193.01 229.01,-186.16"/>
</g>
<!-- Node11 -->
<g id="node11" class="node">
<title>Node11</title>
<g id="a_node11"><a xlink:title=" ">
<polygon fill="none" stroke="#bfbfbf" points="450,-112.5 450,-131.5 491,-131.5 491,-112.5 450,-112.5"/>
<text text-anchor="middle" x="470.5" y="-119.5" font-family="Helvetica,sans-Serif" font-size="10.00">string</text>
</a>
</g>
</g>
<!-- Node10&#45;&gt;Node11 -->
<g id="edge11" class="edge">
<title>Node10&#45;&gt;Node11</title>
<path fill="none" stroke="midnightblue" d="M435.48,-224.37C441.64,-206.54 455.89,-165.3 464.19,-141.27"/>
<polygon fill="midnightblue" stroke="midnightblue" points="467.57,-142.19 467.53,-131.59 460.96,-139.9 467.57,-142.19"/>
</g>
<!-- Node10&#45;&gt;Node12 -->
<g id="edge15" class="edge">
<title>Node10&#45;&gt;Node12</title>
<path fill="none" stroke="midnightblue" d="M451.67,-224.44C471.41,-215.64 502.39,-201.81 524.99,-191.72"/>
<polygon fill="midnightblue" stroke="midnightblue" points="526.71,-194.79 534.42,-187.52 523.86,-188.4 526.71,-194.79"/>
</g>
<!-- Node13 -->
<g id="node13" class="node">
<title>Node13</title>
<g id="a_node13"><a xlink:href="_window_8hpp.html" target="_top" xlink:title=" ">
<polygon fill="none" stroke="black" points="313,-168.5 313,-187.5 404,-187.5 404,-168.5 313,-168.5"/>
<text text-anchor="middle" x="358.5" y="-175.5" font-family="Helvetica,sans-Serif" font-size="10.00">york/Window.hpp</text>
</a>
</g>
</g>
<!-- Node10&#45;&gt;Node13 -->
<g id="edge17" class="edge">
<title>Node10&#45;&gt;Node13</title>
<path fill="none" stroke="midnightblue" d="M420.61,-224.32C409.35,-216.11 392.21,-203.6 378.79,-193.81"/>
<polygon fill="midnightblue" stroke="midnightblue" points="380.75,-190.9 370.61,-187.83 376.62,-196.56 380.75,-190.9"/>
</g>
<!-- Node12&#45;&gt;Node11 -->
<g id="edge16" class="edge">
<title>Node12&#45;&gt;Node11</title>
<path fill="none" stroke="midnightblue" d="M540.16,-168.32C527.34,-159.98 507.72,-147.21 492.56,-137.35"/>
<polygon fill="midnightblue" stroke="midnightblue" points="494.09,-134.17 483.8,-131.65 490.28,-140.04 494.09,-134.17"/>
</g>
<!-- Node13&#45;&gt;Node2 -->
<g id="edge20" class="edge">
<title>Node13&#45;&gt;Node2</title>
<path fill="none" stroke="midnightblue" d="M331.25,-168.44C302.06,-159.28 255.58,-144.69 223.19,-134.52"/>
<polygon fill="midnightblue" stroke="midnightblue" points="224.22,-131.17 213.63,-131.52 222.12,-137.85 224.22,-131.17"/>
</g>
<!-- Node13&#45;&gt;Node11 -->
<g id="edge18" class="edge">
<title>Node13&#45;&gt;Node11</title>
<path fill="none" stroke="midnightblue" d="M376.49,-168.32C394.54,-159.62 422.55,-146.12 443.3,-136.11"/>
<polygon fill="midnightblue" stroke="midnightblue" points="445.06,-139.15 452.55,-131.65 442.02,-132.84 445.06,-139.15"/>
</g>
<!-- Node14 -->
<g id="node14" class="node">
<title>Node14</title>
<g id="a_node14"><a xlink:title=" ">
<polygon fill="none" stroke="#bfbfbf" points="322,-112.5 322,-131.5 395,-131.5 395,-112.5 322,-112.5"/>
<text text-anchor="middle" x="358.5" y="-119.5" font-family="Helvetica,sans-Serif" font-size="10.00">SDL_video.h</text>
</a>
</g>
</g>
<!-- Node13&#45;&gt;Node14 -->
<g id="edge19" class="edge">
<title>Node13&#45;&gt;Node14</title>
<path fill="none" stroke="midnightblue" d="M358.5,-168.08C358.5,-161.01 358.5,-150.86 358.5,-141.99"/>
<polygon fill="midnightblue" stroke="midnightblue" points="362,-141.75 358.5,-131.75 355,-141.75 362,-141.75"/>
</g>
<!-- Node15&#45;&gt;Node9 -->
<g id="edge23" class="edge">
<title>Node15&#45;&gt;Node9</title>
<path fill="none" stroke="midnightblue" d="M269.99,-224.32C252.43,-215.62 225.17,-202.12 204.97,-192.11"/>
<polygon fill="midnightblue" stroke="midnightblue" points="206.48,-188.96 195.97,-187.65 203.38,-195.23 206.48,-188.96"/>
</g>
<!-- Node15&#45;&gt;Node12 -->
<g id="edge24" class="edge">
<title>Node15&#45;&gt;Node12</title>
<path fill="none" stroke="midnightblue" d="M329.65,-224.44C376.25,-214.98 451.34,-199.74 501.55,-189.55"/>
<polygon fill="midnightblue" stroke="midnightblue" points="502.44,-192.94 511.55,-187.52 501.05,-186.08 502.44,-192.94"/>
</g>
<!-- Node15&#45;&gt;Node13 -->
<g id="edge25" class="edge">
<title>Node15&#45;&gt;Node13</title>
<path fill="none" stroke="midnightblue" d="M298.91,-224.32C309.61,-216.18 325.84,-203.84 338.66,-194.09"/>
<polygon fill="midnightblue" stroke="midnightblue" points="341.04,-196.67 346.89,-187.83 336.81,-191.1 341.04,-196.67"/>
</g>
<!-- Node16 -->
<g id="node16" class="node">
<title>Node16</title>
<g id="a_node16"><a xlink:title=" ">
<polygon fill="none" stroke="#bfbfbf" points="244.5,-168.5 244.5,-187.5 294.5,-187.5 294.5,-168.5 244.5,-168.5"/>
<text text-anchor="middle" x="269.5" y="-175.5" font-family="Helvetica,sans-Serif" font-size="10.00">optional</text>
</a>
</g>
</g>
<!-- Node15&#45;&gt;Node16 -->
<g id="edge22" class="edge">
<title>Node15&#45;&gt;Node16</title>
<path fill="none" stroke="midnightblue" d="M284.53,-224.08C282.12,-216.85 278.64,-206.41 275.63,-197.4"/>
<polygon fill="midnightblue" stroke="midnightblue" points="278.9,-196.13 272.42,-187.75 272.26,-198.34 278.9,-196.13"/>
</g>
<!-- Node17&#45;&gt;Node2 -->
<g id="edge29" class="edge">
<title>Node17&#45;&gt;Node2</title>
<path fill="none" stroke="midnightblue" d="M298.84,-280.49C273.17,-272.61 235.42,-259.74 204.5,-244 164.84,-223.81 142.39,-227.29 121.5,-188 110.23,-166.79 134.67,-148.06 156.74,-136.21"/>
<polygon fill="midnightblue" stroke="midnightblue" points="158.58,-139.2 165.94,-131.57 155.43,-132.95 158.58,-139.2"/>
</g>
<!-- Node17&#45;&gt;Node9 -->
<g id="edge28" class="edge">
<title>Node17&#45;&gt;Node9</title>
<path fill="none" stroke="midnightblue" d="M298.6,-280.4C276.99,-273.14 247.96,-261.18 226.5,-244 210.13,-230.89 196.51,-210.93 188.01,-196.58"/>
<polygon fill="midnightblue" stroke="midnightblue" points="190.95,-194.68 182.97,-187.7 184.86,-198.13 190.95,-194.68"/>
</g>
<!-- Node17&#45;&gt;Node10 -->
<g id="edge30" class="edge">
<title>Node17&#45;&gt;Node10</title>
<path fill="none" stroke="midnightblue" d="M345.21,-280.32C361.81,-271.7 387.5,-258.36 406.72,-248.39"/>
<polygon fill="midnightblue" stroke="midnightblue" points="408.57,-251.37 415.83,-243.65 405.34,-245.16 408.57,-251.37"/>
</g>
<!-- Node17&#45;&gt;Node13 -->
<g id="edge31" class="edge">
<title>Node17&#45;&gt;Node13</title>
<path fill="none" stroke="midnightblue" d="M333.2,-280.3C337.8,-271.42 344.65,-257.13 348.5,-244 352.98,-228.75 355.54,-210.86 356.95,-197.72"/>
<polygon fill="midnightblue" stroke="midnightblue" points="360.45,-197.86 357.91,-187.57 353.48,-197.2 360.45,-197.86"/>
</g>
</g>
</svg>
