<?xml version="1.0" encoding="UTF-8" standalone="no"?>
<!DOCTYPE svg PUBLIC "-//W3C//DTD SVG 1.1//EN"
 "http://www.w3.org/Graphics/SVG/1.1/DTD/svg11.dtd">
<!-- Generated by graphviz version 2.50.0 (20211204.2007)
 -->
<!-- Title: include/york/Graphics/Shader.hpp Pages: 1 -->
<svg width="766pt" height="487pt"
 viewBox="0.00 0.00 766.00 487.00" xmlns="http://www.w3.org/2000/svg" xmlns:xlink="http://www.w3.org/1999/xlink">
<g id="graph0" class="graph" transform="scale(1 1) rotate(0) translate(4 483)">
<title>include/york/Graphics/Shader.hpp</title>
<!-- Node1 -->
<g id="node1" class="node">
<title>Node1</title>
<g id="a_node1"><a xlink:title=" ">
<polygon fill="#bfbfbf" stroke="black" points="122.5,-448.5 122.5,-478.5 233.5,-478.5 233.5,-448.5 122.5,-448.5"/>
<text text-anchor="start" x="130.5" y="-466.5" font-family="Helvetica,sans-Serif" font-size="10.00">include/york/Graphics</text>
<text text-anchor="middle" x="178" y="-455.5" font-family="Helvetica,sans-Serif" font-size="10.00">/Shader.hpp</text>
</a>
</g>
</g>
<!-- Node2 -->
<g id="node2" class="node">
<title>Node2</title>
<g id="a_node2"><a xlink:title=" ">
<polygon fill="none" stroke="#bfbfbf" points="194,-0.5 194,-19.5 240,-19.5 240,-0.5 194,-0.5"/>
<text text-anchor="middle" x="217" y="-7.5" font-family="Helvetica,sans-Serif" font-size="10.00">cstdint</text>
</a>
</g>
</g>
<!-- Node1&#45;&gt;Node2 -->
<g id="edge1" class="edge">
<title>Node1&#45;&gt;Node2</title>
<path fill="none" stroke="midnightblue" d="M122.17,-450.96C69.97,-436.51 0,-406.13 0,-347 0,-347 0,-347 0,-121 0,-39.72 122.63,-18.48 183.52,-12.94"/>
<polygon fill="midnightblue" stroke="midnightblue" points="184.09,-16.41 193.78,-12.11 183.53,-9.43 184.09,-16.41"/>
</g>
<!-- Node3 -->
<g id="node3" class="node">
<title>Node3</title>
<g id="a_node3"><a xlink:title=" ">
<polygon fill="none" stroke="#bfbfbf" points="240.5,-112.5 240.5,-131.5 281.5,-131.5 281.5,-112.5 240.5,-112.5"/>
<text text-anchor="middle" x="261" y="-119.5" font-family="Helvetica,sans-Serif" font-size="10.00">string</text>
</a>
</g>
</g>
<!-- Node1&#45;&gt;Node3 -->
<g id="edge2" class="edge">
<title>Node1&#45;&gt;Node3</title>
<path fill="none" stroke="midnightblue" d="M178,-448.28C178,-426.48 178,-383.49 178,-347 178,-347 178,-347 178,-233 178,-202.9 179.48,-192.48 197,-168 206.41,-154.85 220.92,-144.19 233.74,-136.56"/>
<polygon fill="midnightblue" stroke="midnightblue" points="235.68,-139.49 242.69,-131.54 232.25,-133.38 235.68,-139.49"/>
</g>
<!-- Node4 -->
<g id="node4" class="node">
<title>Node4</title>
<g id="a_node4"><a xlink:title=" ">
<polygon fill="none" stroke="#bfbfbf" points="182,-56.5 182,-75.5 226,-75.5 226,-56.5 182,-56.5"/>
<text text-anchor="middle" x="204" y="-63.5" font-family="Helvetica,sans-Serif" font-size="10.00">vector</text>
</a>
</g>
</g>
<!-- Node1&#45;&gt;Node4 -->
<g id="edge3" class="edge">
<title>Node1&#45;&gt;Node4</title>
<path fill="none" stroke="midnightblue" d="M136.75,-448.49C95.46,-431.54 38,-398.68 38,-347 38,-347 38,-347 38,-177 38,-113.39 123.75,-84.39 171.99,-73.11"/>
<polygon fill="midnightblue" stroke="midnightblue" points="172.95,-76.49 181.96,-70.91 171.44,-69.65 172.95,-76.49"/>
</g>
<!-- Node5 -->
<g id="node5" class="node">
<title>Node5</title>
<g id="a_node5"><a xlink:title=" ">
<polygon fill="none" stroke="#bfbfbf" points="596.5,-168.5 596.5,-187.5 691.5,-187.5 691.5,-168.5 596.5,-168.5"/>
<text text-anchor="middle" x="644" y="-175.5" font-family="Helvetica,sans-Serif" font-size="10.00">vulkan/vulkan.hpp</text>
</a>
</g>
</g>
<!-- Node1&#45;&gt;Node5 -->
<g id="edge4" class="edge">
<title>Node1&#45;&gt;Node5</title>
<path fill="none" stroke="midnightblue" d="M233.57,-462.63C321.32,-460.02 493.24,-443.15 603,-356 645.69,-322.1 646.34,-298.1 653,-244 654.92,-228.43 652.17,-210.81 649.22,-197.85"/>
<polygon fill="midnightblue" stroke="midnightblue" points="652.53,-196.66 646.69,-187.82 645.74,-198.37 652.53,-196.66"/>
</g>
<!-- Node6 -->
<g id="node6" class="node">
<title>Node6</title>
<g id="a_node6"><a xlink:href="_asset_8hpp.html" target="_top" xlink:title=" ">
<polygon fill="none" stroke="black" points="66.5,-168.5 66.5,-187.5 149.5,-187.5 149.5,-168.5 66.5,-168.5"/>
<text text-anchor="middle" x="108" y="-175.5" font-family="Helvetica,sans-Serif" font-size="10.00">york/Asset.hpp</text>
</a>
</g>
</g>
<!-- Node1&#45;&gt;Node6 -->
<g id="edge5" class="edge">
<title>Node1&#45;&gt;Node6</title>
<path fill="none" stroke="midnightblue" d="M166.28,-448.19C150.4,-427.3 124,-386.62 124,-347 124,-347 124,-347 124,-289 124,-256.63 117.13,-219.44 112.39,-197.66"/>
<polygon fill="midnightblue" stroke="midnightblue" points="115.78,-196.76 110.16,-187.78 108.95,-198.3 115.78,-196.76"/>
</g>
<!-- Node7 -->
<g id="node7" class="node">
<title>Node7</title>
<g id="a_node7"><a xlink:href="_device_8hpp.html" target="_top" xlink:title=" ">
<polygon fill="none" stroke="black" points="371,-392.5 371,-411.5 437,-411.5 437,-392.5 371,-392.5"/>
<text text-anchor="middle" x="404" y="-399.5" font-family="Helvetica,sans-Serif" font-size="10.00">Device.hpp</text>
</a>
</g>
</g>
<!-- Node1&#45;&gt;Node7 -->
<g id="edge8" class="edge">
<title>Node1&#45;&gt;Node7</title>
<path fill="none" stroke="midnightblue" d="M231.27,-448.47C271.11,-437.99 324.86,-423.84 361.75,-414.12"/>
<polygon fill="midnightblue" stroke="midnightblue" points="362.91,-417.44 371.69,-411.51 361.13,-410.67 362.91,-417.44"/>
</g>
<!-- Node9 -->
<g id="node9" class="node">
<title>Node9</title>
<g id="a_node9"><a xlink:href="_handle_8hpp.html" target="_top" xlink:title="Contains the declarations for the Handle classes which form the basis of our Vulkan implementation.">
<polygon fill="none" stroke="black" points="506,-112.5 506,-131.5 572,-131.5 572,-112.5 506,-112.5"/>
<text text-anchor="middle" x="539" y="-119.5" font-family="Helvetica,sans-Serif" font-size="10.00">Handle.hpp</text>
</a>
</g>
</g>
<!-- Node1&#45;&gt;Node9 -->
<g id="edge38" class="edge">
<title>Node1&#45;&gt;Node9</title>
<path fill="none" stroke="midnightblue" d="M233.61,-463.1C378.78,-463.2 758,-453.27 758,-347 758,-347 758,-347 758,-233 758,-155.21 646.31,-132.43 582.45,-125.76"/>
<polygon fill="midnightblue" stroke="midnightblue" points="582.55,-122.25 572.26,-124.79 581.88,-129.22 582.55,-122.25"/>
</g>
<!-- Node6&#45;&gt;Node3 -->
<g id="edge6" class="edge">
<title>Node6&#45;&gt;Node3</title>
<path fill="none" stroke="midnightblue" d="M132.24,-168.44C158.93,-159.03 201.86,-143.87 230.73,-133.68"/>
<polygon fill="midnightblue" stroke="midnightblue" points="232.04,-136.93 240.3,-130.3 229.71,-130.33 232.04,-136.93"/>
</g>
<!-- Node6&#45;&gt;Node4 -->
<g id="edge7" class="edge">
<title>Node6&#45;&gt;Node4</title>
<path fill="none" stroke="midnightblue" d="M115.53,-168.37C131.52,-150.05 169.05,-107.05 189.72,-83.36"/>
<polygon fill="midnightblue" stroke="midnightblue" points="192.56,-85.43 196.5,-75.59 187.29,-80.82 192.56,-85.43"/>
</g>
<!-- Node7&#45;&gt;Node5 -->
<g id="edge10" class="edge">
<title>Node7&#45;&gt;Node5</title>
<path fill="none" stroke="midnightblue" d="M437.12,-400.24C475.13,-397.75 537.54,-388.53 579,-356 628.96,-316.79 640.53,-235.36 643.2,-198.22"/>
<polygon fill="midnightblue" stroke="midnightblue" points="646.72,-198.01 643.79,-187.82 639.73,-197.61 646.72,-198.01"/>
</g>
<!-- Node8 -->
<g id="node8" class="node">
<title>Node8</title>
<g id="a_node8"><a xlink:title=" ">
<polygon fill="none" stroke="#bfbfbf" points="408,-336.5 408,-355.5 448,-355.5 448,-336.5 408,-336.5"/>
<text text-anchor="middle" x="428" y="-343.5" font-family="Helvetica,sans-Serif" font-size="10.00">utility</text>
</a>
</g>
</g>
<!-- Node7&#45;&gt;Node8 -->
<g id="edge9" class="edge">
<title>Node7&#45;&gt;Node8</title>
<path fill="none" stroke="midnightblue" d="M407.96,-392.08C411.21,-384.77 415.92,-374.18 419.95,-365.1"/>
<polygon fill="midnightblue" stroke="midnightblue" points="423.25,-366.31 424.11,-355.75 416.85,-363.47 423.25,-366.31"/>
</g>
<!-- Node7&#45;&gt;Node9 -->
<g id="edge11" class="edge">
<title>Node7&#45;&gt;Node9</title>
<path fill="none" stroke="midnightblue" d="M437.36,-400.96C479.57,-399.34 552.81,-391.15 603,-356 628.5,-338.14 693.67,-212.84 700,-188 712.94,-137.2 634,-125.42 582.04,-123.09"/>
<polygon fill="midnightblue" stroke="midnightblue" points="582.16,-119.6 572.05,-122.75 581.92,-126.59 582.16,-119.6"/>
</g>
<!-- Node12 -->
<g id="node12" class="node">
<title>Node12</title>
<g id="a_node12"><a xlink:href="_instance_8hpp.html" target="_top" xlink:title=" ">
<polygon fill="none" stroke="black" points="382.5,-224.5 382.5,-243.5 455.5,-243.5 455.5,-224.5 382.5,-224.5"/>
<text text-anchor="middle" x="419" y="-231.5" font-family="Helvetica,sans-Serif" font-size="10.00">Instance.hpp</text>
</a>
</g>
</g>
<!-- Node7&#45;&gt;Node12 -->
<g id="edge16" class="edge">
<title>Node7&#45;&gt;Node12</title>
<path fill="none" stroke="midnightblue" d="M400.4,-392.22C396.94,-383.28 391.97,-368.94 390,-356 384.37,-318.96 399.68,-276.57 410.14,-253.08"/>
<polygon fill="midnightblue" stroke="midnightblue" points="413.46,-254.25 414.51,-243.71 407.11,-251.29 413.46,-254.25"/>
</g>
<!-- Node13 -->
<g id="node13" class="node">
<title>Node13</title>
<g id="a_node13"><a xlink:href="_requestable_item_8hpp.html" target="_top" xlink:title=" ">
<polygon fill="none" stroke="black" points="206,-168.5 206,-187.5 316,-187.5 316,-168.5 206,-168.5"/>
<text text-anchor="middle" x="261" y="-175.5" font-family="Helvetica,sans-Serif" font-size="10.00">RequestableItem.hpp</text>
</a>
</g>
</g>
<!-- Node7&#45;&gt;Node13 -->
<g id="edge36" class="edge">
<title>Node7&#45;&gt;Node13</title>
<path fill="none" stroke="midnightblue" d="M398.39,-392.3C377.13,-359.29 301.2,-241.4 272.29,-196.52"/>
<polygon fill="midnightblue" stroke="midnightblue" points="275.08,-194.4 266.72,-187.88 269.2,-198.19 275.08,-194.4"/>
</g>
<!-- Node16 -->
<g id="node16" class="node">
<title>Node16</title>
<g id="a_node16"><a xlink:href="_physical_device_8hpp.html" target="_top" xlink:title=" ">
<polygon fill="none" stroke="black" points="466,-336.5 466,-355.5 570,-355.5 570,-336.5 466,-336.5"/>
<text text-anchor="middle" x="518" y="-343.5" font-family="Helvetica,sans-Serif" font-size="10.00">PhysicalDevice.hpp</text>
</a>
</g>
</g>
<!-- Node7&#45;&gt;Node16 -->
<g id="edge27" class="edge">
<title>Node7&#45;&gt;Node16</title>
<path fill="none" stroke="midnightblue" d="M422.06,-392.44C440.57,-383.68 469.58,-369.94 490.86,-359.86"/>
<polygon fill="midnightblue" stroke="midnightblue" points="492.48,-362.96 500.02,-355.52 489.49,-356.63 492.48,-362.96"/>
</g>
<!-- Node18 -->
<g id="node18" class="node">
<title>Node18</title>
<g id="a_node18"><a xlink:href="_surface_8hpp.html" target="_top" xlink:title=" ">
<polygon fill="none" stroke="black" points="440.5,-280.5 440.5,-299.5 509.5,-299.5 509.5,-280.5 440.5,-280.5"/>
<text text-anchor="middle" x="475" y="-287.5" font-family="Helvetica,sans-Serif" font-size="10.00">Surface.hpp</text>
</a>
</g>
</g>
<!-- Node7&#45;&gt;Node18 -->
<g id="edge37" class="edge">
<title>Node7&#45;&gt;Node18</title>
<path fill="none" stroke="midnightblue" d="M400.43,-392.33C395.63,-379.2 388.8,-353.9 399,-336 407.41,-321.25 422.77,-310.84 437.48,-303.77"/>
<polygon fill="midnightblue" stroke="midnightblue" points="439.24,-306.83 446.98,-299.6 436.42,-300.42 439.24,-306.83"/>
</g>
<!-- Node9&#45;&gt;Node4 -->
<g id="edge12" class="edge">
<title>Node9&#45;&gt;Node4</title>
<path fill="none" stroke="midnightblue" d="M505.7,-113.85C502.43,-113.2 499.15,-112.57 496,-112 446.52,-103.02 301.53,-81.39 236.37,-71.76"/>
<polygon fill="midnightblue" stroke="midnightblue" points="236.66,-68.27 226.26,-70.27 235.64,-75.2 236.66,-68.27"/>
</g>
<!-- Node10 -->
<g id="node10" class="node">
<title>Node10</title>
<g id="a_node10"><a xlink:title=" ">
<polygon fill="none" stroke="#bfbfbf" points="509.5,-56.5 509.5,-75.5 568.5,-75.5 568.5,-56.5 509.5,-56.5"/>
<text text-anchor="middle" x="539" y="-63.5" font-family="Helvetica,sans-Serif" font-size="10.00">functional</text>
</a>
</g>
</g>
<!-- Node9&#45;&gt;Node10 -->
<g id="edge13" class="edge">
<title>Node9&#45;&gt;Node10</title>
<path fill="none" stroke="midnightblue" d="M539,-112.08C539,-105.01 539,-94.86 539,-85.99"/>
<polygon fill="midnightblue" stroke="midnightblue" points="542.5,-85.75 539,-75.75 535.5,-85.75 542.5,-85.75"/>
</g>
<!-- Node11 -->
<g id="node11" class="node">
<title>Node11</title>
<g id="a_node11"><a xlink:href="_identifiable_8hpp.html" target="_top" xlink:title=" ">
<polygon fill="none" stroke="black" points="276,-56.5 276,-75.5 380,-75.5 380,-56.5 276,-56.5"/>
<text text-anchor="middle" x="328" y="-63.5" font-family="Helvetica,sans-Serif" font-size="10.00">york/Identifiable.hpp</text>
</a>
</g>
</g>
<!-- Node9&#45;&gt;Node11 -->
<g id="edge14" class="edge">
<title>Node9&#45;&gt;Node11</title>
<path fill="none" stroke="midnightblue" d="M505.57,-112.44C469.14,-103.12 410.77,-88.18 370.97,-78"/>
<polygon fill="midnightblue" stroke="midnightblue" points="371.83,-74.61 361.28,-75.52 370.1,-81.39 371.83,-74.61"/>
</g>
<!-- Node11&#45;&gt;Node2 -->
<g id="edge15" class="edge">
<title>Node11&#45;&gt;Node2</title>
<path fill="none" stroke="midnightblue" d="M310.17,-56.32C292.28,-47.62 264.52,-34.12 243.95,-24.11"/>
<polygon fill="midnightblue" stroke="midnightblue" points="245.31,-20.88 234.79,-19.65 242.25,-27.18 245.31,-20.88"/>
</g>
<!-- Node12&#45;&gt;Node3 -->
<g id="edge17" class="edge">
<title>Node12&#45;&gt;Node3</title>
<path fill="none" stroke="midnightblue" d="M406.6,-224.37C379.6,-205.57 315.25,-160.77 281.88,-137.53"/>
<polygon fill="midnightblue" stroke="midnightblue" points="283.55,-134.43 273.34,-131.59 279.55,-140.18 283.55,-134.43"/>
</g>
<!-- Node12&#45;&gt;Node4 -->
<g id="edge18" class="edge">
<title>Node12&#45;&gt;Node4</title>
<path fill="none" stroke="midnightblue" d="M411.59,-224.43C392.91,-203.21 341.68,-147.39 290,-112 271.99,-99.66 250.18,-88.29 233.03,-80.06"/>
<polygon fill="midnightblue" stroke="midnightblue" points="234.07,-76.68 223.53,-75.6 231.09,-83.02 234.07,-76.68"/>
</g>
<!-- Node12&#45;&gt;Node5 -->
<g id="edge19" class="edge">
<title>Node12&#45;&gt;Node5</title>
<path fill="none" stroke="midnightblue" d="M454.65,-224.44C493.66,-215.08 556.27,-200.06 598.72,-189.87"/>
<polygon fill="midnightblue" stroke="midnightblue" points="599.61,-193.25 608.51,-187.52 597.97,-186.45 599.61,-193.25"/>
</g>
<!-- Node12&#45;&gt;Node9 -->
<g id="edge20" class="edge">
<title>Node12&#45;&gt;Node9</title>
<path fill="none" stroke="midnightblue" d="M448.01,-224.46C467.65,-217.41 493.02,-205.66 510,-188 522.56,-174.94 530.24,-155.51 534.52,-141.3"/>
<polygon fill="midnightblue" stroke="midnightblue" points="537.9,-142.21 537.15,-131.64 531.14,-140.37 537.9,-142.21"/>
</g>
<!-- Node12&#45;&gt;Node13 -->
<g id="edge21" class="edge">
<title>Node12&#45;&gt;Node13</title>
<path fill="none" stroke="midnightblue" d="M393.96,-224.44C367.38,-215.36 325.19,-200.94 295.48,-190.78"/>
<polygon fill="midnightblue" stroke="midnightblue" points="296.51,-187.44 285.92,-187.52 294.25,-194.06 296.51,-187.44"/>
</g>
<!-- Node14 -->
<g id="node14" class="node">
<title>Node14</title>
<g id="a_node14"><a xlink:href="_window_8hpp.html" target="_top" xlink:title=" ">
<polygon fill="none" stroke="black" points="410.5,-168.5 410.5,-187.5 501.5,-187.5 501.5,-168.5 410.5,-168.5"/>
<text text-anchor="middle" x="456" y="-175.5" font-family="Helvetica,sans-Serif" font-size="10.00">york/Window.hpp</text>
</a>
</g>
</g>
<!-- Node12&#45;&gt;Node14 -->
<g id="edge23" class="edge">
<title>Node12&#45;&gt;Node14</title>
<path fill="none" stroke="midnightblue" d="M425.11,-224.08C430.28,-216.53 437.85,-205.49 444.19,-196.23"/>
<polygon fill="midnightblue" stroke="midnightblue" points="447.24,-197.98 450,-187.75 441.46,-194.02 447.24,-197.98"/>
</g>
<!-- Node13&#45;&gt;Node3 -->
<g id="edge22" class="edge">
<title>Node13&#45;&gt;Node3</title>
<path fill="none" stroke="midnightblue" d="M261,-168.08C261,-161.01 261,-150.86 261,-141.99"/>
<polygon fill="midnightblue" stroke="midnightblue" points="264.5,-141.75 261,-131.75 257.5,-141.75 264.5,-141.75"/>
</g>
<!-- Node14&#45;&gt;Node3 -->
<g id="edge24" class="edge">
<title>Node14&#45;&gt;Node3</title>
<path fill="none" stroke="midnightblue" d="M425.1,-168.44C388.55,-158.32 328.06,-141.57 291.63,-131.48"/>
<polygon fill="midnightblue" stroke="midnightblue" points="292.16,-128 281.58,-128.7 290.29,-134.74 292.16,-128"/>
</g>
<!-- Node14&#45;&gt;Node9 -->
<g id="edge26" class="edge">
<title>Node14&#45;&gt;Node9</title>
<path fill="none" stroke="midnightblue" d="M469.34,-168.32C482.16,-159.98 501.78,-147.21 516.94,-137.35"/>
<polygon fill="midnightblue" stroke="midnightblue" points="519.22,-140.04 525.7,-131.65 515.41,-134.17 519.22,-140.04"/>
</g>
<!-- Node15 -->
<g id="node15" class="node">
<title>Node15</title>
<g id="a_node15"><a xlink:title=" ">
<polygon fill="none" stroke="#bfbfbf" points="414.5,-112.5 414.5,-131.5 487.5,-131.5 487.5,-112.5 414.5,-112.5"/>
<text text-anchor="middle" x="451" y="-119.5" font-family="Helvetica,sans-Serif" font-size="10.00">SDL_video.h</text>
</a>
</g>
</g>
<!-- Node14&#45;&gt;Node15 -->
<g id="edge25" class="edge">
<title>Node14&#45;&gt;Node15</title>
<path fill="none" stroke="midnightblue" d="M455.17,-168.08C454.52,-161.01 453.58,-150.86 452.76,-141.99"/>
<polygon fill="midnightblue" stroke="midnightblue" points="456.22,-141.39 451.81,-131.75 449.25,-142.03 456.22,-141.39"/>
</g>
<!-- Node16&#45;&gt;Node5 -->
<g id="edge29" class="edge">
<title>Node16&#45;&gt;Node5</title>
<path fill="none" stroke="midnightblue" d="M536.75,-336.41C551.93,-328.68 573,-316.07 587,-300 614.1,-268.88 631.04,-222.66 638.87,-197.3"/>
<polygon fill="midnightblue" stroke="midnightblue" points="642.28,-198.11 641.75,-187.53 635.57,-196.13 642.28,-198.11"/>
</g>
<!-- Node16&#45;&gt;Node13 -->
<g id="edge35" class="edge">
<title>Node16&#45;&gt;Node13</title>
<path fill="none" stroke="midnightblue" d="M499.6,-336.42C481.7,-327.86 453.93,-314 431,-300 374.15,-265.3 311.27,-218.03 280.35,-194.15"/>
<polygon fill="midnightblue" stroke="midnightblue" points="282.21,-191.16 272.16,-187.79 277.92,-196.69 282.21,-191.16"/>
</g>
<!-- Node17 -->
<g id="node17" class="node">
<title>Node17</title>
<g id="a_node17"><a xlink:title=" ">
<polygon fill="none" stroke="#bfbfbf" points="528,-280.5 528,-299.5 578,-299.5 578,-280.5 528,-280.5"/>
<text text-anchor="middle" x="553" y="-287.5" font-family="Helvetica,sans-Serif" font-size="10.00">optional</text>
</a>
</g>
</g>
<!-- Node16&#45;&gt;Node17 -->
<g id="edge28" class="edge">
<title>Node16&#45;&gt;Node17</title>
<path fill="none" stroke="midnightblue" d="M523.78,-336.08C528.67,-328.53 535.83,-317.49 541.83,-308.23"/>
<polygon fill="midnightblue" stroke="midnightblue" points="544.83,-310.05 547.33,-299.75 538.95,-306.24 544.83,-310.05"/>
</g>
<!-- Node16&#45;&gt;Node18 -->
<g id="edge30" class="edge">
<title>Node16&#45;&gt;Node18</title>
<path fill="none" stroke="midnightblue" d="M510.9,-336.08C504.76,-328.38 495.73,-317.03 488.26,-307.65"/>
<polygon fill="midnightblue" stroke="midnightblue" points="490.94,-305.39 481.97,-299.75 485.46,-309.75 490.94,-305.39"/>
</g>
<!-- Node18&#45;&gt;Node5 -->
<g id="edge31" class="edge">
<title>Node18&#45;&gt;Node5</title>
<path fill="none" stroke="midnightblue" d="M488.26,-280.37C517.26,-261.49 586.56,-216.38 622.13,-193.24"/>
<polygon fill="midnightblue" stroke="midnightblue" points="624.33,-195.98 630.8,-187.59 620.51,-190.11 624.33,-195.98"/>
</g>
<!-- Node18&#45;&gt;Node9 -->
<g id="edge33" class="edge">
<title>Node18&#45;&gt;Node9</title>
<path fill="none" stroke="midnightblue" d="M481.33,-280.35C493.28,-263.52 519.03,-224.8 531,-188 535.89,-172.95 537.83,-155.04 538.58,-141.84"/>
<polygon fill="midnightblue" stroke="midnightblue" points="542.09,-141.77 538.98,-131.64 535.09,-141.5 542.09,-141.77"/>
</g>
<!-- Node18&#45;&gt;Node12 -->
<g id="edge34" class="edge">
<title>Node18&#45;&gt;Node12</title>
<path fill="none" stroke="midnightblue" d="M466,-280.32C457.81,-272.42 445.49,-260.55 435.53,-250.94"/>
<polygon fill="midnightblue" stroke="midnightblue" points="437.79,-248.26 428.16,-243.83 432.93,-253.29 437.79,-248.26"/>
</g>
<!-- Node18&#45;&gt;Node14 -->
<g id="edge32" class="edge">
<title>Node18&#45;&gt;Node14</title>
<path fill="none" stroke="midnightblue" d="M473.53,-280.16C471.44,-267.66 467.48,-244.07 464,-224 462.49,-215.29 460.78,-205.64 459.33,-197.52"/>
<polygon fill="midnightblue" stroke="midnightblue" points="462.76,-196.85 457.55,-187.62 455.87,-198.08 462.76,-196.85"/>
</g>
</g>
</svg>
