<?xml version="1.0" encoding="UTF-8" standalone="no"?>
<!DOCTYPE svg PUBLIC "-//W3C//DTD SVG 1.1//EN"
 "http://www.w3.org/Graphics/SVG/1.1/DTD/svg11.dtd">
<!-- Generated by graphviz version 2.50.0 (20211204.2007)
 -->
<!-- Title: include/york/Graphics/Shader.hpp Pages: 1 -->
<svg width="834pt" height="431pt"
 viewBox="0.00 0.00 834.00 431.00" xmlns="http://www.w3.org/2000/svg" xmlns:xlink="http://www.w3.org/1999/xlink">
<g id="graph0" class="graph" transform="scale(1 1) rotate(0) translate(4 427)">
<title>include/york/Graphics/Shader.hpp</title>
<!-- Node1 -->
<g id="node1" class="node">
<title>Node1</title>
<g id="a_node1"><a xlink:title=" ">
<polygon fill="#bfbfbf" stroke="black" points="127.5,-392.5 127.5,-422.5 238.5,-422.5 238.5,-392.5 127.5,-392.5"/>
<text text-anchor="start" x="135.5" y="-410.5" font-family="Helvetica,sans-Serif" font-size="10.00">include/york/Graphics</text>
<text text-anchor="middle" x="183" y="-399.5" font-family="Helvetica,sans-Serif" font-size="10.00">/Shader.hpp</text>
</a>
</g>
</g>
<!-- Node2 -->
<g id="node2" class="node">
<title>Node2</title>
<g id="a_node2"><a xlink:title=" ">
<polygon fill="none" stroke="#bfbfbf" points="325,-0.5 325,-19.5 371,-19.5 371,-0.5 325,-0.5"/>
<text text-anchor="middle" x="348" y="-7.5" font-family="Helvetica,sans-Serif" font-size="10.00">cstdint</text>
</a>
</g>
</g>
<!-- Node1&#45;&gt;Node2 -->
<g id="edge1" class="edge">
<title>Node1&#45;&gt;Node2</title>
<path fill="none" stroke="midnightblue" d="M127.1,-395.84C73.28,-381.95 0,-351.86 0,-291 0,-291 0,-291 0,-121 0,-55.38 227.78,-23.94 314.77,-14.32"/>
<polygon fill="midnightblue" stroke="midnightblue" points="315.33,-17.78 324.9,-13.23 314.58,-10.82 315.33,-17.78"/>
</g>
<!-- Node3 -->
<g id="node3" class="node">
<title>Node3</title>
<g id="a_node3"><a xlink:title=" ">
<polygon fill="none" stroke="#bfbfbf" points="384.5,-112.5 384.5,-131.5 425.5,-131.5 425.5,-112.5 384.5,-112.5"/>
<text text-anchor="middle" x="405" y="-119.5" font-family="Helvetica,sans-Serif" font-size="10.00">string</text>
</a>
</g>
</g>
<!-- Node1&#45;&gt;Node3 -->
<g id="edge2" class="edge">
<title>Node1&#45;&gt;Node3</title>
<path fill="none" stroke="midnightblue" d="M173.88,-392.19C161.26,-370.97 140,-329.51 140,-291 140,-291 140,-291 140,-233 140,-202.9 136.65,-188.15 159,-168 174.89,-153.67 312.13,-134.73 374.45,-126.78"/>
<polygon fill="midnightblue" stroke="midnightblue" points="374.99,-130.23 384.47,-125.51 374.11,-123.29 374.99,-130.23"/>
</g>
<!-- Node4 -->
<g id="node4" class="node">
<title>Node4</title>
<g id="a_node4"><a xlink:title=" ">
<polygon fill="none" stroke="#bfbfbf" points="504,-56.5 504,-75.5 548,-75.5 548,-56.5 504,-56.5"/>
<text text-anchor="middle" x="526" y="-63.5" font-family="Helvetica,sans-Serif" font-size="10.00">vector</text>
</a>
</g>
</g>
<!-- Node1&#45;&gt;Node4 -->
<g id="edge3" class="edge">
<title>Node1&#45;&gt;Node4</title>
<path fill="none" stroke="midnightblue" d="M238.57,-405.91C329.8,-403.79 516.46,-394.63 669,-356 742.21,-337.46 826,-366.52 826,-291 826,-291 826,-291 826,-177 826,-90.11 611.64,-81.1 558.19,-75.19"/>
<polygon fill="midnightblue" stroke="midnightblue" points="558.7,-71.73 548.29,-73.71 557.66,-78.65 558.7,-71.73"/>
</g>
<!-- Node5 -->
<g id="node5" class="node">
<title>Node5</title>
<g id="a_node5"><a xlink:title=" ">
<polygon fill="none" stroke="#bfbfbf" points="168.5,-168.5 168.5,-187.5 263.5,-187.5 263.5,-168.5 168.5,-168.5"/>
<text text-anchor="middle" x="216" y="-175.5" font-family="Helvetica,sans-Serif" font-size="10.00">vulkan/vulkan.hpp</text>
</a>
</g>
</g>
<!-- Node1&#45;&gt;Node5 -->
<g id="edge4" class="edge">
<title>Node1&#45;&gt;Node5</title>
<path fill="none" stroke="midnightblue" d="M185.06,-392.27C190.78,-352.89 206.79,-242.49 213.25,-197.97"/>
<polygon fill="midnightblue" stroke="midnightblue" points="216.73,-198.33 214.71,-187.93 209.81,-197.32 216.73,-198.33"/>
</g>
<!-- Node6 -->
<g id="node6" class="node">
<title>Node6</title>
<g id="a_node6"><a xlink:href="_asset_8hpp.html" target="_top" xlink:title=" ">
<polygon fill="none" stroke="black" points="28.5,-168.5 28.5,-187.5 111.5,-187.5 111.5,-168.5 28.5,-168.5"/>
<text text-anchor="middle" x="70" y="-175.5" font-family="Helvetica,sans-Serif" font-size="10.00">york/Asset.hpp</text>
</a>
</g>
</g>
<!-- Node1&#45;&gt;Node6 -->
<g id="edge5" class="edge">
<title>Node1&#45;&gt;Node6</title>
<path fill="none" stroke="midnightblue" d="M161.97,-392.32C149.92,-383.21 135.36,-370.41 126,-356 92.56,-304.52 77.88,-231.66 72.56,-197.74"/>
<polygon fill="midnightblue" stroke="midnightblue" points="76.01,-197.19 71.1,-187.81 69.09,-198.21 76.01,-197.19"/>
</g>
<!-- Node7 -->
<g id="node7" class="node">
<title>Node7</title>
<g id="a_node7"><a xlink:href="_device_8hpp.html" target="_top" xlink:title=" ">
<polygon fill="none" stroke="black" points="405,-336.5 405,-355.5 471,-355.5 471,-336.5 405,-336.5"/>
<text text-anchor="middle" x="438" y="-343.5" font-family="Helvetica,sans-Serif" font-size="10.00">Device.hpp</text>
</a>
</g>
</g>
<!-- Node1&#45;&gt;Node7 -->
<g id="edge8" class="edge">
<title>Node1&#45;&gt;Node7</title>
<path fill="none" stroke="midnightblue" d="M238.65,-393.52C285.59,-382.56 351.82,-367.11 394.84,-357.07"/>
<polygon fill="midnightblue" stroke="midnightblue" points="395.77,-360.45 404.71,-354.77 394.18,-353.63 395.77,-360.45"/>
</g>
<!-- Node9 -->
<g id="node9" class="node">
<title>Node9</title>
<g id="a_node9"><a xlink:href="_handle_8hpp.html" target="_top" xlink:title="Contains the declarations for the Handle classes which form the basis of our Vulkan implementation.">
<polygon fill="none" stroke="black" points="659,-112.5 659,-131.5 725,-131.5 725,-112.5 659,-112.5"/>
<text text-anchor="middle" x="692" y="-119.5" font-family="Helvetica,sans-Serif" font-size="10.00">Handle.hpp</text>
</a>
</g>
</g>
<!-- Node1&#45;&gt;Node9 -->
<g id="edge38" class="edge">
<title>Node1&#45;&gt;Node9</title>
<path fill="none" stroke="midnightblue" d="M238.56,-401.73C388.13,-388.15 788,-346.64 788,-291 788,-291 788,-291 788,-233 788,-189.54 744.94,-154.96 716.5,-136.85"/>
<polygon fill="midnightblue" stroke="midnightblue" points="718.21,-133.79 707.85,-131.56 714.56,-139.77 718.21,-133.79"/>
</g>
<!-- Node6&#45;&gt;Node3 -->
<g id="edge6" class="edge">
<title>Node6&#45;&gt;Node3</title>
<path fill="none" stroke="midnightblue" d="M111.75,-170.27C180.09,-159.25 314.23,-137.63 374.45,-127.92"/>
<polygon fill="midnightblue" stroke="midnightblue" points="375.16,-131.36 384.47,-126.31 374.04,-124.44 375.16,-131.36"/>
</g>
<!-- Node6&#45;&gt;Node4 -->
<g id="edge7" class="edge">
<title>Node6&#45;&gt;Node4</title>
<path fill="none" stroke="midnightblue" d="M105.4,-168.46C191.59,-147.67 411.3,-94.67 493.93,-74.74"/>
<polygon fill="midnightblue" stroke="midnightblue" points="494.86,-78.11 503.76,-72.37 493.22,-71.31 494.86,-78.11"/>
</g>
<!-- Node7&#45;&gt;Node5 -->
<g id="edge10" class="edge">
<title>Node7&#45;&gt;Node5</title>
<path fill="none" stroke="midnightblue" d="M410.97,-336.46C371.09,-322.68 296.11,-292.11 249,-244 236.02,-230.74 227.08,-211.35 221.81,-197.2"/>
<polygon fill="midnightblue" stroke="midnightblue" points="225.07,-195.89 218.5,-187.58 218.45,-198.18 225.07,-195.89"/>
</g>
<!-- Node8 -->
<g id="node8" class="node">
<title>Node8</title>
<g id="a_node8"><a xlink:title=" ">
<polygon fill="none" stroke="#bfbfbf" points="485,-280.5 485,-299.5 525,-299.5 525,-280.5 485,-280.5"/>
<text text-anchor="middle" x="505" y="-287.5" font-family="Helvetica,sans-Serif" font-size="10.00">utility</text>
</a>
</g>
</g>
<!-- Node7&#45;&gt;Node8 -->
<g id="edge9" class="edge">
<title>Node7&#45;&gt;Node8</title>
<path fill="none" stroke="midnightblue" d="M448.76,-336.32C458.77,-328.26 473.89,-316.08 485.93,-306.37"/>
<polygon fill="midnightblue" stroke="midnightblue" points="488.45,-308.83 494.04,-299.83 484.06,-303.38 488.45,-308.83"/>
</g>
<!-- Node7&#45;&gt;Node9 -->
<g id="edge11" class="edge">
<title>Node7&#45;&gt;Node9</title>
<path fill="none" stroke="midnightblue" d="M471.04,-344C510.14,-341.32 575.67,-331.95 621,-300 669.76,-265.63 677.83,-245.14 695,-188 699.53,-172.94 698.24,-155.04 696.13,-141.84"/>
<polygon fill="midnightblue" stroke="midnightblue" points="699.5,-140.8 694.18,-131.64 692.62,-142.11 699.5,-140.8"/>
</g>
<!-- Node12 -->
<g id="node12" class="node">
<title>Node12</title>
<g id="a_node12"><a xlink:href="_instance_8hpp.html" target="_top" xlink:title=" ">
<polygon fill="none" stroke="black" points="478.5,-224.5 478.5,-243.5 551.5,-243.5 551.5,-224.5 478.5,-224.5"/>
<text text-anchor="middle" x="515" y="-231.5" font-family="Helvetica,sans-Serif" font-size="10.00">Instance.hpp</text>
</a>
</g>
</g>
<!-- Node7&#45;&gt;Node12 -->
<g id="edge16" class="edge">
<title>Node7&#45;&gt;Node12</title>
<path fill="none" stroke="midnightblue" d="M442.44,-336.27C449.08,-323.49 462.3,-299.13 476,-280 483.22,-269.91 492.24,-259.4 499.79,-251.07"/>
<polygon fill="midnightblue" stroke="midnightblue" points="502.51,-253.28 506.72,-243.57 497.37,-248.53 502.51,-253.28"/>
</g>
<!-- Node13 -->
<g id="node13" class="node">
<title>Node13</title>
<g id="a_node13"><a xlink:href="_requestable_item_8hpp.html" target="_top" xlink:title=" ">
<polygon fill="none" stroke="black" points="350,-168.5 350,-187.5 460,-187.5 460,-168.5 350,-168.5"/>
<text text-anchor="middle" x="405" y="-175.5" font-family="Helvetica,sans-Serif" font-size="10.00">RequestableItem.hpp</text>
</a>
</g>
</g>
<!-- Node7&#45;&gt;Node13 -->
<g id="edge32" class="edge">
<title>Node7&#45;&gt;Node13</title>
<path fill="none" stroke="midnightblue" d="M436.23,-336.08C431.03,-309.95 415.78,-233.21 408.69,-197.58"/>
<polygon fill="midnightblue" stroke="midnightblue" points="412.09,-196.69 406.7,-187.57 405.22,-198.06 412.09,-196.69"/>
</g>
<!-- Node16 -->
<g id="node16" class="node">
<title>Node16</title>
<g id="a_node16"><a xlink:href="_physical_device_8hpp.html" target="_top" xlink:title=" ">
<polygon fill="none" stroke="black" points="287,-224.5 287,-243.5 391,-243.5 391,-224.5 287,-224.5"/>
<text text-anchor="middle" x="339" y="-231.5" font-family="Helvetica,sans-Serif" font-size="10.00">PhysicalDevice.hpp</text>
</a>
</g>
</g>
<!-- Node7&#45;&gt;Node16 -->
<g id="edge27" class="edge">
<title>Node7&#45;&gt;Node16</title>
<path fill="none" stroke="midnightblue" d="M430.23,-336.37C413.68,-317.97 374.7,-274.67 353.45,-251.05"/>
<polygon fill="midnightblue" stroke="midnightblue" points="356.02,-248.68 346.73,-243.59 350.82,-253.37 356.02,-248.68"/>
</g>
<!-- Node18 -->
<g id="node18" class="node">
<title>Node18</title>
<g id="a_node18"><a xlink:href="_surface_8hpp.html" target="_top" xlink:title=" ">
<polygon fill="none" stroke="black" points="543.5,-280.5 543.5,-299.5 612.5,-299.5 612.5,-280.5 543.5,-280.5"/>
<text text-anchor="middle" x="578" y="-287.5" font-family="Helvetica,sans-Serif" font-size="10.00">Surface.hpp</text>
</a>
</g>
</g>
<!-- Node7&#45;&gt;Node18 -->
<g id="edge33" class="edge">
<title>Node7&#45;&gt;Node18</title>
<path fill="none" stroke="midnightblue" d="M460.18,-336.44C483.43,-327.48 520.15,-313.31 546.42,-303.18"/>
<polygon fill="midnightblue" stroke="midnightblue" points="547.85,-306.38 555.92,-299.52 545.33,-299.85 547.85,-306.38"/>
</g>
<!-- Node9&#45;&gt;Node4 -->
<g id="edge12" class="edge">
<title>Node9&#45;&gt;Node4</title>
<path fill="none" stroke="midnightblue" d="M665.7,-112.44C636.41,-102.92 589.09,-87.52 557.76,-77.33"/>
<polygon fill="midnightblue" stroke="midnightblue" points="558.79,-73.99 548.2,-74.22 556.62,-80.64 558.79,-73.99"/>
</g>
<!-- Node10 -->
<g id="node10" class="node">
<title>Node10</title>
<g id="a_node10"><a xlink:title=" ">
<polygon fill="none" stroke="#bfbfbf" points="566.5,-56.5 566.5,-75.5 625.5,-75.5 625.5,-56.5 566.5,-56.5"/>
<text text-anchor="middle" x="596" y="-63.5" font-family="Helvetica,sans-Serif" font-size="10.00">functional</text>
</a>
</g>
</g>
<!-- Node9&#45;&gt;Node10 -->
<g id="edge13" class="edge">
<title>Node9&#45;&gt;Node10</title>
<path fill="none" stroke="midnightblue" d="M676.58,-112.32C661.46,-103.82 638.18,-90.73 620.53,-80.8"/>
<polygon fill="midnightblue" stroke="midnightblue" points="621.82,-77.51 611.39,-75.65 618.39,-83.61 621.82,-77.51"/>
</g>
<!-- Node11 -->
<g id="node11" class="node">
<title>Node11</title>
<g id="a_node11"><a xlink:href="_identifiable_8hpp.html" target="_top" xlink:title=" ">
<polygon fill="none" stroke="black" points="644,-56.5 644,-75.5 748,-75.5 748,-56.5 644,-56.5"/>
<text text-anchor="middle" x="696" y="-63.5" font-family="Helvetica,sans-Serif" font-size="10.00">york/Identifiable.hpp</text>
</a>
</g>
</g>
<!-- Node9&#45;&gt;Node11 -->
<g id="edge14" class="edge">
<title>Node9&#45;&gt;Node11</title>
<path fill="none" stroke="midnightblue" d="M692.66,-112.08C693.18,-105.01 693.94,-94.86 694.59,-85.99"/>
<polygon fill="midnightblue" stroke="midnightblue" points="698.1,-85.98 695.35,-75.75 691.12,-85.47 698.1,-85.98"/>
</g>
<!-- Node11&#45;&gt;Node2 -->
<g id="edge15" class="edge">
<title>Node11&#45;&gt;Node2</title>
<path fill="none" stroke="midnightblue" d="M643.9,-56.92C571.46,-45.67 442.36,-25.64 381.5,-16.2"/>
<polygon fill="midnightblue" stroke="midnightblue" points="381.73,-12.69 371.31,-14.62 380.65,-19.61 381.73,-12.69"/>
</g>
<!-- Node12&#45;&gt;Node3 -->
<g id="edge17" class="edge">
<title>Node12&#45;&gt;Node3</title>
<path fill="none" stroke="midnightblue" d="M510.16,-224.3C502.55,-211.12 486.82,-185.76 469,-168 457,-156.04 441.5,-145.05 428.76,-136.93"/>
<polygon fill="midnightblue" stroke="midnightblue" points="430.41,-133.83 420.06,-131.55 426.73,-139.78 430.41,-133.83"/>
</g>
<!-- Node12&#45;&gt;Node4 -->
<g id="edge18" class="edge">
<title>Node12&#45;&gt;Node4</title>
<path fill="none" stroke="midnightblue" d="M515.59,-224.08C517.32,-197.95 522.41,-121.21 524.77,-85.58"/>
<polygon fill="midnightblue" stroke="midnightblue" points="528.26,-85.78 525.43,-75.57 521.28,-85.31 528.26,-85.78"/>
</g>
<!-- Node12&#45;&gt;Node5 -->
<g id="edge19" class="edge">
<title>Node12&#45;&gt;Node5</title>
<path fill="none" stroke="midnightblue" d="M478.34,-226.38C427.18,-217.14 333.9,-200.29 273.46,-189.38"/>
<polygon fill="midnightblue" stroke="midnightblue" points="273.78,-185.88 263.32,-187.55 272.53,-192.77 273.78,-185.88"/>
</g>
<!-- Node12&#45;&gt;Node9 -->
<g id="edge20" class="edge">
<title>Node12&#45;&gt;Node9</title>
<path fill="none" stroke="midnightblue" d="M551.51,-228.51C581.73,-223.2 624.35,-211.85 654,-188 669.24,-175.74 679.65,-155.59 685.67,-140.98"/>
<polygon fill="midnightblue" stroke="midnightblue" points="688.99,-142.09 689.28,-131.5 682.45,-139.6 688.99,-142.09"/>
</g>
<!-- Node12&#45;&gt;Node13 -->
<g id="edge21" class="edge">
<title>Node12&#45;&gt;Node13</title>
<path fill="none" stroke="midnightblue" d="M497.33,-224.32C479.61,-215.62 452.1,-202.12 431.71,-192.11"/>
<polygon fill="midnightblue" stroke="midnightblue" points="433.15,-188.92 422.63,-187.65 430.06,-195.2 433.15,-188.92"/>
</g>
<!-- Node14 -->
<g id="node14" class="node">
<title>Node14</title>
<g id="a_node14"><a xlink:href="_window_8hpp.html" target="_top" xlink:title=" ">
<polygon fill="none" stroke="black" points="554.5,-168.5 554.5,-187.5 645.5,-187.5 645.5,-168.5 554.5,-168.5"/>
<text text-anchor="middle" x="600" y="-175.5" font-family="Helvetica,sans-Serif" font-size="10.00">york/Window.hpp</text>
</a>
</g>
</g>
<!-- Node12&#45;&gt;Node14 -->
<g id="edge23" class="edge">
<title>Node12&#45;&gt;Node14</title>
<path fill="none" stroke="midnightblue" d="M528.66,-224.32C541.92,-215.9 562.27,-202.97 577.85,-193.07"/>
<polygon fill="midnightblue" stroke="midnightblue" points="579.81,-195.97 586.38,-187.65 576.06,-190.06 579.81,-195.97"/>
</g>
<!-- Node13&#45;&gt;Node3 -->
<g id="edge22" class="edge">
<title>Node13&#45;&gt;Node3</title>
<path fill="none" stroke="midnightblue" d="M405,-168.08C405,-161.01 405,-150.86 405,-141.99"/>
<polygon fill="midnightblue" stroke="midnightblue" points="408.5,-141.75 405,-131.75 401.5,-141.75 408.5,-141.75"/>
</g>
<!-- Node14&#45;&gt;Node3 -->
<g id="edge24" class="edge">
<title>Node14&#45;&gt;Node3</title>
<path fill="none" stroke="midnightblue" d="M569.1,-168.44C532.55,-158.32 472.06,-141.57 435.63,-131.48"/>
<polygon fill="midnightblue" stroke="midnightblue" points="436.16,-128 425.58,-128.7 434.29,-134.74 436.16,-128"/>
</g>
<!-- Node14&#45;&gt;Node9 -->
<g id="edge26" class="edge">
<title>Node14&#45;&gt;Node9</title>
<path fill="none" stroke="midnightblue" d="M614.78,-168.32C629.27,-159.82 651.57,-146.73 668.49,-136.8"/>
<polygon fill="midnightblue" stroke="midnightblue" points="670.4,-139.74 677.26,-131.65 666.86,-133.7 670.4,-139.74"/>
</g>
<!-- Node15 -->
<g id="node15" class="node">
<title>Node15</title>
<g id="a_node15"><a xlink:title=" ">
<polygon fill="none" stroke="#bfbfbf" points="563.5,-112.5 563.5,-131.5 636.5,-131.5 636.5,-112.5 563.5,-112.5"/>
<text text-anchor="middle" x="600" y="-119.5" font-family="Helvetica,sans-Serif" font-size="10.00">SDL_video.h</text>
</a>
</g>
</g>
<!-- Node14&#45;&gt;Node15 -->
<g id="edge25" class="edge">
<title>Node14&#45;&gt;Node15</title>
<path fill="none" stroke="midnightblue" d="M600,-168.08C600,-161.01 600,-150.86 600,-141.99"/>
<polygon fill="midnightblue" stroke="midnightblue" points="603.5,-141.75 600,-131.75 596.5,-141.75 603.5,-141.75"/>
</g>
<!-- Node16&#45;&gt;Node5 -->
<g id="edge29" class="edge">
<title>Node16&#45;&gt;Node5</title>
<path fill="none" stroke="midnightblue" d="M319.51,-224.44C299.36,-215.6 267.68,-201.69 244.67,-191.59"/>
<polygon fill="midnightblue" stroke="midnightblue" points="245.96,-188.33 235.4,-187.52 243.15,-194.74 245.96,-188.33"/>
</g>
<!-- Node16&#45;&gt;Node13 -->
<g id="edge30" class="edge">
<title>Node16&#45;&gt;Node13</title>
<path fill="none" stroke="midnightblue" d="M349.6,-224.32C359.46,-216.26 374.35,-204.08 386.22,-194.37"/>
<polygon fill="midnightblue" stroke="midnightblue" points="388.68,-196.88 394.2,-187.83 384.25,-191.46 388.68,-196.88"/>
</g>
<!-- Node16&#45;&gt;Node14 -->
<g id="edge31" class="edge">
<title>Node16&#45;&gt;Node14</title>
<path fill="none" stroke="midnightblue" d="M380.36,-224.44C426.08,-214.98 499.76,-199.74 549.02,-189.55"/>
<polygon fill="midnightblue" stroke="midnightblue" points="549.75,-192.97 558.84,-187.52 548.34,-186.12 549.75,-192.97"/>
</g>
<!-- Node17 -->
<g id="node17" class="node">
<title>Node17</title>
<g id="a_node17"><a xlink:title=" ">
<polygon fill="none" stroke="#bfbfbf" points="282,-168.5 282,-187.5 332,-187.5 332,-168.5 282,-168.5"/>
<text text-anchor="middle" x="307" y="-175.5" font-family="Helvetica,sans-Serif" font-size="10.00">optional</text>
</a>
</g>
</g>
<!-- Node16&#45;&gt;Node17 -->
<g id="edge28" class="edge">
<title>Node16&#45;&gt;Node17</title>
<path fill="none" stroke="midnightblue" d="M333.72,-224.08C329.29,-216.61 322.84,-205.72 317.38,-196.52"/>
<polygon fill="midnightblue" stroke="midnightblue" points="320.29,-194.57 312.19,-187.75 314.27,-198.14 320.29,-194.57"/>
</g>
<!-- Node18&#45;&gt;Node5 -->
<g id="edge34" class="edge">
<title>Node18&#45;&gt;Node5</title>
<path fill="none" stroke="midnightblue" d="M543.45,-281.72C540.26,-281.11 537.07,-280.53 534,-280 420.77,-260.48 380.21,-296.48 278,-244 256.63,-233.03 238.53,-211.73 227.5,-196.5"/>
<polygon fill="midnightblue" stroke="midnightblue" points="230.15,-194.18 221.58,-187.95 224.4,-198.16 230.15,-194.18"/>
</g>
<!-- Node18&#45;&gt;Node9 -->
<g id="edge35" class="edge">
<title>Node18&#45;&gt;Node9</title>
<path fill="none" stroke="midnightblue" d="M589.88,-280.48C610.91,-264.73 654.59,-228.92 677,-188 684.91,-173.56 688.66,-155.11 690.43,-141.55"/>
<polygon fill="midnightblue" stroke="midnightblue" points="693.92,-141.83 691.5,-131.52 686.96,-141.09 693.92,-141.83"/>
</g>
<!-- Node18&#45;&gt;Node12 -->
<g id="edge36" class="edge">
<title>Node18&#45;&gt;Node12</title>
<path fill="none" stroke="midnightblue" d="M567.88,-280.32C558.47,-272.26 544.26,-260.08 532.93,-250.37"/>
<polygon fill="midnightblue" stroke="midnightblue" points="535.18,-247.68 525.31,-243.83 530.62,-253 535.18,-247.68"/>
</g>
<!-- Node18&#45;&gt;Node14 -->
<g id="edge37" class="edge">
<title>Node18&#45;&gt;Node14</title>
<path fill="none" stroke="midnightblue" d="M579.73,-280.37C583.28,-262.62 591.47,-221.67 596.28,-197.6"/>
<polygon fill="midnightblue" stroke="midnightblue" points="599.75,-198.08 598.28,-187.59 592.89,-196.71 599.75,-198.08"/>
</g>
</g>
</svg>
