<?xml version="1.0" encoding="UTF-8" standalone="no"?>
<!DOCTYPE svg PUBLIC "-//W3C//DTD SVG 1.1//EN"
 "http://www.w3.org/Graphics/SVG/1.1/DTD/svg11.dtd">
<!-- Generated by graphviz version 2.50.0 (20211204.2007)
 -->
<!-- Title: include/york/Graphics/Shader.hpp Pages: 1 -->
<svg width="802pt" height="487pt"
 viewBox="0.00 0.00 802.00 487.00" xmlns="http://www.w3.org/2000/svg" xmlns:xlink="http://www.w3.org/1999/xlink">
<g id="graph0" class="graph" transform="scale(1 1) rotate(0) translate(4 483)">
<title>include/york/Graphics/Shader.hpp</title>
<!-- Node1 -->
<g id="node1" class="node">
<title>Node1</title>
<g id="a_node1"><a xlink:title=" ">
<polygon fill="#bfbfbf" stroke="black" points="560.5,-448.5 560.5,-478.5 671.5,-478.5 671.5,-448.5 560.5,-448.5"/>
<text text-anchor="start" x="568.5" y="-466.5" font-family="Helvetica,sans-Serif" font-size="10.00">include/york/Graphics</text>
<text text-anchor="middle" x="616" y="-455.5" font-family="Helvetica,sans-Serif" font-size="10.00">/Shader.hpp</text>
</a>
</g>
</g>
<!-- Node2 -->
<g id="node2" class="node">
<title>Node2</title>
<g id="a_node2"><a xlink:title=" ">
<polygon fill="none" stroke="#bfbfbf" points="0,-392.5 0,-411.5 46,-411.5 46,-392.5 0,-392.5"/>
<text text-anchor="middle" x="23" y="-399.5" font-family="Helvetica,sans-Serif" font-size="10.00">cstdint</text>
</a>
</g>
</g>
<!-- Node1&#45;&gt;Node2 -->
<g id="edge1" class="edge">
<title>Node1&#45;&gt;Node2</title>
<path fill="none" stroke="midnightblue" d="M560.41,-460.18C459.94,-455.38 241.67,-442.17 60,-412 58.75,-411.79 57.49,-411.57 56.21,-411.32"/>
<polygon fill="midnightblue" stroke="midnightblue" points="56.89,-407.89 46.38,-409.24 55.44,-414.74 56.89,-407.89"/>
</g>
<!-- Node3 -->
<g id="node3" class="node">
<title>Node3</title>
<g id="a_node3"><a xlink:title=" ">
<polygon fill="none" stroke="#bfbfbf" points="436.5,-112.5 436.5,-131.5 477.5,-131.5 477.5,-112.5 436.5,-112.5"/>
<text text-anchor="middle" x="457" y="-119.5" font-family="Helvetica,sans-Serif" font-size="10.00">string</text>
</a>
</g>
</g>
<!-- Node1&#45;&gt;Node3 -->
<g id="edge2" class="edge">
<title>Node1&#45;&gt;Node3</title>
<path fill="none" stroke="midnightblue" d="M623.87,-448.41C635,-427.13 654,-385.21 654,-347 654,-347 654,-347 654,-233 654,-202.77 655.9,-188.84 634,-168 594.11,-130.04 526.88,-122.87 487.77,-122.19"/>
<polygon fill="midnightblue" stroke="midnightblue" points="487.54,-118.69 477.53,-122.15 487.51,-125.69 487.54,-118.69"/>
</g>
<!-- Node4 -->
<g id="node4" class="node">
<title>Node4</title>
<g id="a_node4"><a xlink:title=" ">
<polygon fill="none" stroke="#bfbfbf" points="503,-56.5 503,-75.5 547,-75.5 547,-56.5 503,-56.5"/>
<text text-anchor="middle" x="525" y="-63.5" font-family="Helvetica,sans-Serif" font-size="10.00">vector</text>
</a>
</g>
</g>
<!-- Node1&#45;&gt;Node4 -->
<g id="edge3" class="edge">
<title>Node1&#45;&gt;Node4</title>
<path fill="none" stroke="midnightblue" d="M671.83,-450.96C724.03,-436.51 794,-406.13 794,-347 794,-347 794,-347 794,-177 794,-126.37 628.67,-87.52 557.24,-73.09"/>
<polygon fill="midnightblue" stroke="midnightblue" points="557.5,-69.58 547.01,-71.07 556.14,-76.45 557.5,-69.58"/>
</g>
<!-- Node5 -->
<g id="node5" class="node">
<title>Node5</title>
<g id="a_node5"><a xlink:title=" ">
<polygon fill="none" stroke="#bfbfbf" points="530.5,-168.5 530.5,-187.5 625.5,-187.5 625.5,-168.5 530.5,-168.5"/>
<text text-anchor="middle" x="578" y="-175.5" font-family="Helvetica,sans-Serif" font-size="10.00">vulkan/vulkan.hpp</text>
</a>
</g>
</g>
<!-- Node1&#45;&gt;Node5 -->
<g id="edge4" class="edge">
<title>Node1&#45;&gt;Node5</title>
<path fill="none" stroke="midnightblue" d="M616,-448.28C616,-426.48 616,-383.49 616,-347 616,-347 616,-347 616,-289 616,-254.81 599.4,-217.76 588.14,-196.57"/>
<polygon fill="midnightblue" stroke="midnightblue" points="591.18,-194.83 583.28,-187.77 585.05,-198.22 591.18,-194.83"/>
</g>
<!-- Node6 -->
<g id="node6" class="node">
<title>Node6</title>
<g id="a_node6"><a xlink:href="_asset_8hpp.html" target="_top" xlink:title=" ">
<polygon fill="none" stroke="black" points="682.5,-168.5 682.5,-187.5 765.5,-187.5 765.5,-168.5 682.5,-168.5"/>
<text text-anchor="middle" x="724" y="-175.5" font-family="Helvetica,sans-Serif" font-size="10.00">york/Asset.hpp</text>
</a>
</g>
</g>
<!-- Node1&#45;&gt;Node6 -->
<g id="edge5" class="edge">
<title>Node1&#45;&gt;Node6</title>
<path fill="none" stroke="midnightblue" d="M638.27,-448.27C665.5,-428.93 708,-391.61 708,-347 708,-347 708,-347 708,-289 708,-256.63 714.87,-219.44 719.61,-197.66"/>
<polygon fill="midnightblue" stroke="midnightblue" points="723.05,-198.3 721.84,-187.78 716.22,-196.76 723.05,-198.3"/>
</g>
<!-- Node7 -->
<g id="node7" class="node">
<title>Node7</title>
<g id="a_node7"><a xlink:href="_device_8hpp.html" target="_top" xlink:title=" ">
<polygon fill="none" stroke="black" points="340,-392.5 340,-411.5 406,-411.5 406,-392.5 340,-392.5"/>
<text text-anchor="middle" x="373" y="-399.5" font-family="Helvetica,sans-Serif" font-size="10.00">Device.hpp</text>
</a>
</g>
</g>
<!-- Node1&#45;&gt;Node7 -->
<g id="edge8" class="edge">
<title>Node1&#45;&gt;Node7</title>
<path fill="none" stroke="midnightblue" d="M560.25,-448.85C516.33,-438.1 456.01,-423.33 415.83,-413.49"/>
<polygon fill="midnightblue" stroke="midnightblue" points="416.61,-410.08 406.07,-411.1 414.95,-416.87 416.61,-410.08"/>
</g>
<!-- Node9 -->
<g id="node9" class="node">
<title>Node9</title>
<g id="a_node9"><a xlink:href="_handle_8hpp.html" target="_top" xlink:title="Contains the declarations for the Handle classes which form the basis of our Vulkan implementation.">
<polygon fill="none" stroke="black" points="129,-112.5 129,-131.5 195,-131.5 195,-112.5 129,-112.5"/>
<text text-anchor="middle" x="162" y="-119.5" font-family="Helvetica,sans-Serif" font-size="10.00">Handle.hpp</text>
</a>
</g>
</g>
<!-- Node1&#45;&gt;Node9 -->
<g id="edge38" class="edge">
<title>Node1&#45;&gt;Node9</title>
<path fill="none" stroke="midnightblue" d="M560.29,-462.32C421.98,-460.37 74,-445.68 74,-347 74,-347 74,-347 74,-233 74,-191.03 113.54,-155.9 139.61,-137.3"/>
<polygon fill="midnightblue" stroke="midnightblue" points="141.6,-140.18 147.86,-131.64 137.64,-134.41 141.6,-140.18"/>
</g>
<!-- Node6&#45;&gt;Node3 -->
<g id="edge6" class="edge">
<title>Node6&#45;&gt;Node3</title>
<path fill="none" stroke="midnightblue" d="M682.28,-168.56C628.28,-157.64 535.46,-138.87 487.57,-129.18"/>
<polygon fill="midnightblue" stroke="midnightblue" points="488,-125.7 477.51,-127.15 486.62,-132.56 488,-125.7"/>
</g>
<!-- Node6&#45;&gt;Node4 -->
<g id="edge7" class="edge">
<title>Node6&#45;&gt;Node4</title>
<path fill="none" stroke="midnightblue" d="M708.38,-168.37C673.87,-149.29 590.89,-103.42 549.43,-80.51"/>
<polygon fill="midnightblue" stroke="midnightblue" points="550.99,-77.37 540.54,-75.59 547.6,-83.49 550.99,-77.37"/>
</g>
<!-- Node7&#45;&gt;Node5 -->
<g id="edge10" class="edge">
<title>Node7&#45;&gt;Node5</title>
<path fill="none" stroke="midnightblue" d="M406.22,-400.79C442.3,-398.73 499.3,-389.84 533,-356 576.2,-312.62 579.83,-233.97 579.01,-197.95"/>
<polygon fill="midnightblue" stroke="midnightblue" points="582.5,-197.71 578.63,-187.85 575.51,-197.97 582.5,-197.71"/>
</g>
<!-- Node8 -->
<g id="node8" class="node">
<title>Node8</title>
<g id="a_node8"><a xlink:title=" ">
<polygon fill="none" stroke="#bfbfbf" points="248,-336.5 248,-355.5 288,-355.5 288,-336.5 248,-336.5"/>
<text text-anchor="middle" x="268" y="-343.5" font-family="Helvetica,sans-Serif" font-size="10.00">utility</text>
</a>
</g>
</g>
<!-- Node7&#45;&gt;Node8 -->
<g id="edge9" class="edge">
<title>Node7&#45;&gt;Node8</title>
<path fill="none" stroke="midnightblue" d="M356.13,-392.32C339.29,-383.66 313.19,-370.24 293.76,-360.25"/>
<polygon fill="midnightblue" stroke="midnightblue" points="295.32,-357.12 284.83,-355.65 292.12,-363.34 295.32,-357.12"/>
</g>
<!-- Node7&#45;&gt;Node9 -->
<g id="edge11" class="edge">
<title>Node7&#45;&gt;Node9</title>
<path fill="none" stroke="midnightblue" d="M339.94,-401.62C269.71,-401.04 112,-388.85 112,-291 112,-291 112,-291 112,-233 112,-197.18 134.24,-160.21 149.05,-139.56"/>
<polygon fill="midnightblue" stroke="midnightblue" points="151.88,-141.63 155.05,-131.52 146.27,-137.45 151.88,-141.63"/>
</g>
<!-- Node13 -->
<g id="node13" class="node">
<title>Node13</title>
<g id="a_node13"><a xlink:href="_instance_8hpp.html" target="_top" xlink:title=" ">
<polygon fill="none" stroke="black" points="290.5,-224.5 290.5,-243.5 363.5,-243.5 363.5,-224.5 290.5,-224.5"/>
<text text-anchor="middle" x="327" y="-231.5" font-family="Helvetica,sans-Serif" font-size="10.00">Instance.hpp</text>
</a>
</g>
</g>
<!-- Node7&#45;&gt;Node13 -->
<g id="edge16" class="edge">
<title>Node7&#45;&gt;Node13</title>
<path fill="none" stroke="midnightblue" d="M370.53,-392.08C363.29,-365.95 342.02,-289.21 332.15,-253.58"/>
<polygon fill="midnightblue" stroke="midnightblue" points="335.42,-252.27 329.37,-243.57 328.67,-254.14 335.42,-252.27"/>
</g>
<!-- Node14 -->
<g id="node14" class="node">
<title>Node14</title>
<g id="a_node14"><a xlink:href="_requestable_item_8hpp.html" target="_top" xlink:title=" ">
<polygon fill="none" stroke="black" points="402,-168.5 402,-187.5 512,-187.5 512,-168.5 402,-168.5"/>
<text text-anchor="middle" x="457" y="-175.5" font-family="Helvetica,sans-Serif" font-size="10.00">RequestableItem.hpp</text>
</a>
</g>
</g>
<!-- Node7&#45;&gt;Node14 -->
<g id="edge36" class="edge">
<title>Node7&#45;&gt;Node14</title>
<path fill="none" stroke="midnightblue" d="M376.29,-392.3C388.7,-359.49 432.83,-242.88 450.05,-197.38"/>
<polygon fill="midnightblue" stroke="midnightblue" points="453.37,-198.48 453.64,-187.88 446.83,-196 453.37,-198.48"/>
</g>
<!-- Node17 -->
<g id="node17" class="node">
<title>Node17</title>
<g id="a_node17"><a xlink:href="_physical_device_8hpp.html" target="_top" xlink:title=" ">
<polygon fill="none" stroke="black" points="420,-336.5 420,-355.5 524,-355.5 524,-336.5 420,-336.5"/>
<text text-anchor="middle" x="472" y="-343.5" font-family="Helvetica,sans-Serif" font-size="10.00">PhysicalDevice.hpp</text>
</a>
</g>
</g>
<!-- Node7&#45;&gt;Node17 -->
<g id="edge27" class="edge">
<title>Node7&#45;&gt;Node17</title>
<path fill="none" stroke="midnightblue" d="M388.91,-392.32C404.64,-383.74 428.94,-370.49 447.21,-360.52"/>
<polygon fill="midnightblue" stroke="midnightblue" points="449.03,-363.52 456.13,-355.65 445.68,-357.37 449.03,-363.52"/>
</g>
<!-- Node19 -->
<g id="node19" class="node">
<title>Node19</title>
<g id="a_node19"><a xlink:href="_surface_8hpp.html" target="_top" xlink:title=" ">
<polygon fill="none" stroke="black" points="256.5,-280.5 256.5,-299.5 325.5,-299.5 325.5,-280.5 256.5,-280.5"/>
<text text-anchor="middle" x="291" y="-287.5" font-family="Helvetica,sans-Serif" font-size="10.00">Surface.hpp</text>
</a>
</g>
</g>
<!-- Node7&#45;&gt;Node19 -->
<g id="edge37" class="edge">
<title>Node7&#45;&gt;Node19</title>
<path fill="none" stroke="midnightblue" d="M366.57,-392.37C352.97,-374.14 321.14,-331.43 303.43,-307.68"/>
<polygon fill="midnightblue" stroke="midnightblue" points="306.19,-305.52 297.4,-299.59 300.58,-309.7 306.19,-305.52"/>
</g>
<!-- Node9&#45;&gt;Node4 -->
<g id="edge12" class="edge">
<title>Node9&#45;&gt;Node4</title>
<path fill="none" stroke="midnightblue" d="M195.11,-115.37C202.01,-114.23 209.24,-113.06 216,-112 316.89,-96.25 436.6,-79.31 492.81,-71.47"/>
<polygon fill="midnightblue" stroke="midnightblue" points="493.45,-74.91 502.87,-70.06 492.48,-67.98 493.45,-74.91"/>
</g>
<!-- Node10 -->
<g id="node10" class="node">
<title>Node10</title>
<g id="a_node10"><a xlink:title=" ">
<polygon fill="none" stroke="#bfbfbf" points="117.5,-56.5 117.5,-75.5 176.5,-75.5 176.5,-56.5 117.5,-56.5"/>
<text text-anchor="middle" x="147" y="-63.5" font-family="Helvetica,sans-Serif" font-size="10.00">functional</text>
</a>
</g>
</g>
<!-- Node9&#45;&gt;Node10 -->
<g id="edge13" class="edge">
<title>Node9&#45;&gt;Node10</title>
<path fill="none" stroke="midnightblue" d="M159.52,-112.08C157.51,-104.85 154.61,-94.41 152.11,-85.4"/>
<polygon fill="midnightblue" stroke="midnightblue" points="155.48,-84.45 149.43,-75.75 148.74,-86.32 155.48,-84.45"/>
</g>
<!-- Node11 -->
<g id="node11" class="node">
<title>Node11</title>
<g id="a_node11"><a xlink:href="_identifiable_8hpp.html" target="_top" xlink:title=" ">
<polygon fill="none" stroke="black" points="195,-56.5 195,-75.5 299,-75.5 299,-56.5 195,-56.5"/>
<text text-anchor="middle" x="247" y="-63.5" font-family="Helvetica,sans-Serif" font-size="10.00">york/Identifiable.hpp</text>
</a>
</g>
</g>
<!-- Node9&#45;&gt;Node11 -->
<g id="edge14" class="edge">
<title>Node9&#45;&gt;Node11</title>
<path fill="none" stroke="midnightblue" d="M175.66,-112.32C188.92,-103.9 209.27,-90.97 224.85,-81.07"/>
<polygon fill="midnightblue" stroke="midnightblue" points="226.81,-83.97 233.38,-75.65 223.06,-78.06 226.81,-83.97"/>
</g>
<!-- Node12 -->
<g id="node12" class="node">
<title>Node12</title>
<g id="a_node12"><a xlink:title=" ">
<polygon fill="none" stroke="#bfbfbf" points="196.5,-0.5 196.5,-19.5 297.5,-19.5 297.5,-0.5 196.5,-0.5"/>
<text text-anchor="middle" x="247" y="-7.5" font-family="Helvetica,sans-Serif" font-size="10.00">boost/uuid/uuid.hpp</text>
</a>
</g>
</g>
<!-- Node11&#45;&gt;Node12 -->
<g id="edge15" class="edge">
<title>Node11&#45;&gt;Node12</title>
<path fill="none" stroke="midnightblue" d="M247,-56.08C247,-49.01 247,-38.86 247,-29.99"/>
<polygon fill="midnightblue" stroke="midnightblue" points="250.5,-29.75 247,-19.75 243.5,-29.75 250.5,-29.75"/>
</g>
<!-- Node13&#45;&gt;Node3 -->
<g id="edge17" class="edge">
<title>Node13&#45;&gt;Node3</title>
<path fill="none" stroke="midnightblue" d="M335.12,-224.12C347.17,-211.15 370.77,-186.54 393,-168 406.34,-156.87 422.34,-145.62 435,-137.16"/>
<polygon fill="midnightblue" stroke="midnightblue" points="437.12,-139.95 443.54,-131.53 433.26,-134.11 437.12,-139.95"/>
</g>
<!-- Node13&#45;&gt;Node4 -->
<g id="edge18" class="edge">
<title>Node13&#45;&gt;Node4</title>
<path fill="none" stroke="midnightblue" d="M331.85,-224.15C339.11,-211.22 353.64,-186.68 369,-168 391.76,-140.33 397.41,-132.21 427,-112 447.63,-97.91 473.39,-86.28 493.31,-78.38"/>
<polygon fill="midnightblue" stroke="midnightblue" points="494.79,-81.56 502.86,-74.7 492.27,-75.03 494.79,-81.56"/>
</g>
<!-- Node13&#45;&gt;Node5 -->
<g id="edge19" class="edge">
<title>Node13&#45;&gt;Node5</title>
<path fill="none" stroke="midnightblue" d="M363.77,-225.09C407.24,-215.74 479.81,-200.12 528.27,-189.7"/>
<polygon fill="midnightblue" stroke="midnightblue" points="529.19,-193.08 538.23,-187.56 527.72,-186.24 529.19,-193.08"/>
</g>
<!-- Node13&#45;&gt;Node9 -->
<g id="edge20" class="edge">
<title>Node13&#45;&gt;Node9</title>
<path fill="none" stroke="midnightblue" d="M290.27,-225.38C264.92,-218.73 231.48,-207.08 207,-188 190.82,-175.39 178.19,-155.34 170.48,-140.84"/>
<polygon fill="midnightblue" stroke="midnightblue" points="173.58,-139.2 165.95,-131.85 167.33,-142.35 173.58,-139.2"/>
</g>
<!-- Node13&#45;&gt;Node14 -->
<g id="edge21" class="edge">
<title>Node13&#45;&gt;Node14</title>
<path fill="none" stroke="midnightblue" d="M347.6,-224.44C368.99,-215.56 402.68,-201.56 427.02,-191.45"/>
<polygon fill="midnightblue" stroke="midnightblue" points="428.61,-194.58 436.5,-187.52 425.92,-188.12 428.61,-194.58"/>
</g>
<!-- Node15 -->
<g id="node15" class="node">
<title>Node15</title>
<g id="a_node15"><a xlink:href="_window_8hpp.html" target="_top" xlink:title=" ">
<polygon fill="none" stroke="black" points="216.5,-168.5 216.5,-187.5 307.5,-187.5 307.5,-168.5 216.5,-168.5"/>
<text text-anchor="middle" x="262" y="-175.5" font-family="Helvetica,sans-Serif" font-size="10.00">york/Window.hpp</text>
</a>
</g>
</g>
<!-- Node13&#45;&gt;Node15 -->
<g id="edge23" class="edge">
<title>Node13&#45;&gt;Node15</title>
<path fill="none" stroke="midnightblue" d="M316.56,-224.32C306.85,-216.26 292.18,-204.08 280.5,-194.37"/>
<polygon fill="midnightblue" stroke="midnightblue" points="282.56,-191.53 272.63,-187.83 278.09,-196.92 282.56,-191.53"/>
</g>
<!-- Node14&#45;&gt;Node3 -->
<g id="edge22" class="edge">
<title>Node14&#45;&gt;Node3</title>
<path fill="none" stroke="midnightblue" d="M457,-168.08C457,-161.01 457,-150.86 457,-141.99"/>
<polygon fill="midnightblue" stroke="midnightblue" points="460.5,-141.75 457,-131.75 453.5,-141.75 460.5,-141.75"/>
</g>
<!-- Node15&#45;&gt;Node3 -->
<g id="edge24" class="edge">
<title>Node15&#45;&gt;Node3</title>
<path fill="none" stroke="midnightblue" d="M292.9,-168.44C329.45,-158.32 389.94,-141.57 426.37,-131.48"/>
<polygon fill="midnightblue" stroke="midnightblue" points="427.71,-134.74 436.42,-128.7 425.84,-128 427.71,-134.74"/>
</g>
<!-- Node15&#45;&gt;Node9 -->
<g id="edge26" class="edge">
<title>Node15&#45;&gt;Node9</title>
<path fill="none" stroke="midnightblue" d="M245.93,-168.32C230.04,-159.74 205.49,-146.49 187.04,-136.52"/>
<polygon fill="midnightblue" stroke="midnightblue" points="188.49,-133.33 178.03,-131.65 185.16,-139.49 188.49,-133.33"/>
</g>
<!-- Node16 -->
<g id="node16" class="node">
<title>Node16</title>
<g id="a_node16"><a xlink:title=" ">
<polygon fill="none" stroke="#bfbfbf" points="225.5,-112.5 225.5,-131.5 298.5,-131.5 298.5,-112.5 225.5,-112.5"/>
<text text-anchor="middle" x="262" y="-119.5" font-family="Helvetica,sans-Serif" font-size="10.00">SDL_video.h</text>
</a>
</g>
</g>
<!-- Node15&#45;&gt;Node16 -->
<g id="edge25" class="edge">
<title>Node15&#45;&gt;Node16</title>
<path fill="none" stroke="midnightblue" d="M262,-168.08C262,-161.01 262,-150.86 262,-141.99"/>
<polygon fill="midnightblue" stroke="midnightblue" points="265.5,-141.75 262,-131.75 258.5,-141.75 265.5,-141.75"/>
</g>
<!-- Node17&#45;&gt;Node5 -->
<g id="edge29" class="edge">
<title>Node17&#45;&gt;Node5</title>
<path fill="none" stroke="midnightblue" d="M483.7,-336.41C494.46,-328.05 510.33,-314.52 521,-300 545.33,-266.92 563.24,-221.81 572,-197.07"/>
<polygon fill="midnightblue" stroke="midnightblue" points="575.34,-198.12 575.27,-187.53 568.72,-195.85 575.34,-198.12"/>
</g>
<!-- Node17&#45;&gt;Node14 -->
<g id="edge35" class="edge">
<title>Node17&#45;&gt;Node14</title>
<path fill="none" stroke="midnightblue" d="M467.12,-336.37C462.44,-327.55 455.69,-313.3 453,-300 445.8,-264.42 450.13,-221.76 453.72,-197.78"/>
<polygon fill="midnightblue" stroke="midnightblue" points="457.22,-198.05 455.36,-187.62 450.31,-196.93 457.22,-198.05"/>
</g>
<!-- Node18 -->
<g id="node18" class="node">
<title>Node18</title>
<g id="a_node18"><a xlink:title=" ">
<polygon fill="none" stroke="#bfbfbf" points="462,-280.5 462,-299.5 512,-299.5 512,-280.5 462,-280.5"/>
<text text-anchor="middle" x="487" y="-287.5" font-family="Helvetica,sans-Serif" font-size="10.00">optional</text>
</a>
</g>
</g>
<!-- Node17&#45;&gt;Node18 -->
<g id="edge28" class="edge">
<title>Node17&#45;&gt;Node18</title>
<path fill="none" stroke="midnightblue" d="M474.48,-336.08C476.49,-328.85 479.39,-318.41 481.89,-309.4"/>
<polygon fill="midnightblue" stroke="midnightblue" points="485.26,-310.32 484.57,-299.75 478.52,-308.45 485.26,-310.32"/>
</g>
<!-- Node17&#45;&gt;Node19 -->
<g id="edge30" class="edge">
<title>Node17&#45;&gt;Node19</title>
<path fill="none" stroke="midnightblue" d="M443.32,-336.44C412.47,-327.24 363.27,-312.56 329.17,-302.39"/>
<polygon fill="midnightblue" stroke="midnightblue" points="330.13,-299.02 319.55,-299.52 328.13,-305.73 330.13,-299.02"/>
</g>
<!-- Node19&#45;&gt;Node5 -->
<g id="edge31" class="edge">
<title>Node19&#45;&gt;Node5</title>
<path fill="none" stroke="midnightblue" d="M313.52,-280.37C364.24,-260.93 487.53,-213.67 546.1,-191.23"/>
<polygon fill="midnightblue" stroke="midnightblue" points="547.5,-194.44 555.58,-187.59 544.99,-187.9 547.5,-194.44"/>
</g>
<!-- Node19&#45;&gt;Node9 -->
<g id="edge33" class="edge">
<title>Node19&#45;&gt;Node9</title>
<path fill="none" stroke="midnightblue" d="M278.73,-280.4C256.93,-264.54 211.26,-228.53 185,-188 175.75,-173.72 169.68,-155.25 166.11,-141.65"/>
<polygon fill="midnightblue" stroke="midnightblue" points="169.43,-140.47 163.69,-131.57 162.62,-142.11 169.43,-140.47"/>
</g>
<!-- Node19&#45;&gt;Node13 -->
<g id="edge34" class="edge">
<title>Node19&#45;&gt;Node13</title>
<path fill="none" stroke="midnightblue" d="M296.94,-280.08C301.98,-272.53 309.34,-261.49 315.51,-252.23"/>
<polygon fill="midnightblue" stroke="midnightblue" points="318.53,-254.01 321.17,-243.75 312.71,-250.13 318.53,-254.01"/>
</g>
<!-- Node19&#45;&gt;Node15 -->
<g id="edge32" class="edge">
<title>Node19&#45;&gt;Node15</title>
<path fill="none" stroke="midnightblue" d="M288.72,-280.37C284.02,-262.54 273.15,-221.3 266.82,-197.27"/>
<polygon fill="midnightblue" stroke="midnightblue" points="270.2,-196.37 264.27,-187.59 263.43,-198.15 270.2,-196.37"/>
</g>
</g>
</svg>
