<?xml version="1.0" encoding="UTF-8" standalone="no"?>
<!DOCTYPE svg PUBLIC "-//W3C//DTD SVG 1.1//EN"
 "http://www.w3.org/Graphics/SVG/1.1/DTD/svg11.dtd">
<!-- Generated by graphviz version 2.50.0 (20211204.2007)
 -->
<!-- Title: include/york/Graphics/Surface.hpp Pages: 1 -->
<svg width="526pt" height="319pt"
 viewBox="0.00 0.00 526.00 319.00" xmlns="http://www.w3.org/2000/svg" xmlns:xlink="http://www.w3.org/1999/xlink">
<g id="graph0" class="graph" transform="scale(1 1) rotate(0) translate(4 315)">
<title>include/york/Graphics/Surface.hpp</title>
<!-- Node1 -->
<g id="node1" class="node">
<title>Node1</title>
<g id="a_node1"><a xlink:title=" ">
<polygon fill="#bfbfbf" stroke="black" points="248,-280.5 248,-310.5 359,-310.5 359,-280.5 248,-280.5"/>
<text text-anchor="start" x="256" y="-298.5" font-family="Helvetica,sans-Serif" font-size="10.00">include/york/Graphics</text>
<text text-anchor="middle" x="303.5" y="-287.5" font-family="Helvetica,sans-Serif" font-size="10.00">/Surface.hpp</text>
</a>
</g>
</g>
<!-- Node2 -->
<g id="node2" class="node">
<title>Node2</title>
<g id="a_node2"><a xlink:title=" ">
<polygon fill="none" stroke="#bfbfbf" points="0,-168.5 0,-187.5 95,-187.5 95,-168.5 0,-168.5"/>
<text text-anchor="middle" x="47.5" y="-175.5" font-family="Helvetica,sans-Serif" font-size="10.00">vulkan/vulkan.hpp</text>
</a>
</g>
</g>
<!-- Node1&#45;&gt;Node2 -->
<g id="edge1" class="edge">
<title>Node1&#45;&gt;Node2</title>
<path fill="none" stroke="midnightblue" d="M272.37,-280.45C222.13,-257.79 123.94,-213.49 75.67,-191.71"/>
<polygon fill="midnightblue" stroke="midnightblue" points="76.99,-188.46 66.43,-187.54 74.11,-194.85 76.99,-188.46"/>
</g>
<!-- Node3 -->
<g id="node3" class="node">
<title>Node3</title>
<g id="a_node3"><a xlink:href="_window_8hpp.html" target="_top" xlink:title=" ">
<polygon fill="none" stroke="black" points="318,-168.5 318,-187.5 409,-187.5 409,-168.5 318,-168.5"/>
<text text-anchor="middle" x="363.5" y="-175.5" font-family="Helvetica,sans-Serif" font-size="10.00">york/Window.hpp</text>
</a>
</g>
</g>
<!-- Node1&#45;&gt;Node3 -->
<g id="edge2" class="edge">
<title>Node1&#45;&gt;Node3</title>
<path fill="none" stroke="midnightblue" d="M310.86,-280.34C321.82,-259.24 342.41,-219.6 354.33,-196.65"/>
<polygon fill="midnightblue" stroke="midnightblue" points="357.49,-198.16 359,-187.67 351.28,-194.93 357.49,-198.16"/>
</g>
<!-- Node6 -->
<g id="node6" class="node">
<title>Node6</title>
<g id="a_node6"><a xlink:href="_handle_8hpp.html" target="_top" xlink:title="Contains the declarations for the Handle classes which form the basis of our Vulkan implementation.">
<polygon fill="none" stroke="black" points="373.5,-112.5 373.5,-131.5 503.5,-131.5 503.5,-112.5 373.5,-112.5"/>
<text text-anchor="middle" x="438.5" y="-119.5" font-family="Helvetica,sans-Serif" font-size="10.00">york/Graphics/Handle.hpp</text>
</a>
</g>
</g>
<!-- Node1&#45;&gt;Node6 -->
<g id="edge10" class="edge">
<title>Node1&#45;&gt;Node6</title>
<path fill="none" stroke="midnightblue" d="M334.4,-280.5C367.14,-263.75 417.01,-232.32 438.5,-188 445.5,-173.56 444.72,-155.11 442.65,-141.56"/>
<polygon fill="midnightblue" stroke="midnightblue" points="446.05,-140.69 440.75,-131.52 439.17,-142 446.05,-140.69"/>
</g>
<!-- Node11 -->
<g id="node11" class="node">
<title>Node11</title>
<g id="a_node11"><a xlink:href="_instance_8hpp.html" target="_top" xlink:title=" ">
<polygon fill="none" stroke="black" points="208,-224.5 208,-243.5 281,-243.5 281,-224.5 208,-224.5"/>
<text text-anchor="middle" x="244.5" y="-231.5" font-family="Helvetica,sans-Serif" font-size="10.00">Instance.hpp</text>
</a>
</g>
</g>
<!-- Node1&#45;&gt;Node11 -->
<g id="edge11" class="edge">
<title>Node1&#45;&gt;Node11</title>
<path fill="none" stroke="midnightblue" d="M289.52,-280.4C280.77,-271.58 269.47,-260.18 260.38,-251.02"/>
<polygon fill="midnightblue" stroke="midnightblue" points="262.61,-248.29 253.09,-243.66 257.64,-253.22 262.61,-248.29"/>
</g>
<!-- Node4 -->
<g id="node4" class="node">
<title>Node4</title>
<g id="a_node4"><a xlink:title=" ">
<polygon fill="none" stroke="#bfbfbf" points="223,-112.5 223,-131.5 264,-131.5 264,-112.5 223,-112.5"/>
<text text-anchor="middle" x="243.5" y="-119.5" font-family="Helvetica,sans-Serif" font-size="10.00">string</text>
</a>
</g>
</g>
<!-- Node3&#45;&gt;Node4 -->
<g id="edge3" class="edge">
<title>Node3&#45;&gt;Node4</title>
<path fill="none" stroke="midnightblue" d="M344.49,-168.44C324.91,-159.64 294.19,-145.81 271.77,-135.72"/>
<polygon fill="midnightblue" stroke="midnightblue" points="272.98,-132.43 262.43,-131.52 270.11,-138.81 272.98,-132.43"/>
</g>
<!-- Node5 -->
<g id="node5" class="node">
<title>Node5</title>
<g id="a_node5"><a xlink:title=" ">
<polygon fill="none" stroke="#bfbfbf" points="282,-112.5 282,-131.5 355,-131.5 355,-112.5 282,-112.5"/>
<text text-anchor="middle" x="318.5" y="-119.5" font-family="Helvetica,sans-Serif" font-size="10.00">SDL_video.h</text>
</a>
</g>
</g>
<!-- Node3&#45;&gt;Node5 -->
<g id="edge4" class="edge">
<title>Node3&#45;&gt;Node5</title>
<path fill="none" stroke="midnightblue" d="M356.07,-168.08C349.65,-160.38 340.19,-149.03 332.38,-139.65"/>
<polygon fill="midnightblue" stroke="midnightblue" points="334.88,-137.19 325.79,-131.75 329.51,-141.67 334.88,-137.19"/>
</g>
<!-- Node3&#45;&gt;Node6 -->
<g id="edge5" class="edge">
<title>Node3&#45;&gt;Node6</title>
<path fill="none" stroke="midnightblue" d="M375.55,-168.32C386.96,-160.11 404.33,-147.6 417.93,-137.81"/>
<polygon fill="midnightblue" stroke="midnightblue" points="420.16,-140.52 426.23,-131.83 416.07,-134.84 420.16,-140.52"/>
</g>
<!-- Node7 -->
<g id="node7" class="node">
<title>Node7</title>
<g id="a_node7"><a xlink:title=" ">
<polygon fill="none" stroke="#bfbfbf" points="213.5,-56.5 213.5,-75.5 257.5,-75.5 257.5,-56.5 213.5,-56.5"/>
<text text-anchor="middle" x="235.5" y="-63.5" font-family="Helvetica,sans-Serif" font-size="10.00">vector</text>
</a>
</g>
</g>
<!-- Node6&#45;&gt;Node7 -->
<g id="edge6" class="edge">
<title>Node6&#45;&gt;Node7</title>
<path fill="none" stroke="midnightblue" d="M406.33,-112.44C368.32,-102.33 305.45,-85.61 267.51,-75.51"/>
<polygon fill="midnightblue" stroke="midnightblue" points="268.07,-72.04 257.51,-72.85 266.27,-78.81 268.07,-72.04"/>
</g>
<!-- Node8 -->
<g id="node8" class="node">
<title>Node8</title>
<g id="a_node8"><a xlink:title=" ">
<polygon fill="none" stroke="#bfbfbf" points="459,-56.5 459,-75.5 518,-75.5 518,-56.5 459,-56.5"/>
<text text-anchor="middle" x="488.5" y="-63.5" font-family="Helvetica,sans-Serif" font-size="10.00">functional</text>
</a>
</g>
</g>
<!-- Node6&#45;&gt;Node8 -->
<g id="edge7" class="edge">
<title>Node6&#45;&gt;Node8</title>
<path fill="none" stroke="midnightblue" d="M446.76,-112.08C453.96,-104.3 464.61,-92.8 473.35,-83.37"/>
<polygon fill="midnightblue" stroke="midnightblue" points="476.17,-85.47 480.4,-75.75 471.03,-80.71 476.17,-85.47"/>
</g>
<!-- Node9 -->
<g id="node9" class="node">
<title>Node9</title>
<g id="a_node9"><a xlink:href="_identifiable_8hpp.html" target="_top" xlink:title=" ">
<polygon fill="none" stroke="black" points="336.5,-56.5 336.5,-75.5 440.5,-75.5 440.5,-56.5 336.5,-56.5"/>
<text text-anchor="middle" x="388.5" y="-63.5" font-family="Helvetica,sans-Serif" font-size="10.00">york/Identifiable.hpp</text>
</a>
</g>
</g>
<!-- Node6&#45;&gt;Node9 -->
<g id="edge8" class="edge">
<title>Node6&#45;&gt;Node9</title>
<path fill="none" stroke="midnightblue" d="M430.24,-112.08C423.04,-104.3 412.39,-92.8 403.65,-83.37"/>
<polygon fill="midnightblue" stroke="midnightblue" points="405.97,-80.71 396.6,-75.75 400.83,-85.47 405.97,-80.71"/>
</g>
<!-- Node10 -->
<g id="node10" class="node">
<title>Node10</title>
<g id="a_node10"><a xlink:title=" ">
<polygon fill="none" stroke="#bfbfbf" points="338,-0.5 338,-19.5 439,-19.5 439,-0.5 338,-0.5"/>
<text text-anchor="middle" x="388.5" y="-7.5" font-family="Helvetica,sans-Serif" font-size="10.00">boost/uuid/uuid.hpp</text>
</a>
</g>
</g>
<!-- Node9&#45;&gt;Node10 -->
<g id="edge9" class="edge">
<title>Node9&#45;&gt;Node10</title>
<path fill="none" stroke="midnightblue" d="M388.5,-56.08C388.5,-49.01 388.5,-38.86 388.5,-29.99"/>
<polygon fill="midnightblue" stroke="midnightblue" points="392,-29.75 388.5,-19.75 385,-29.75 392,-29.75"/>
</g>
<!-- Node11&#45;&gt;Node2 -->
<g id="edge14" class="edge">
<title>Node11&#45;&gt;Node2</title>
<path fill="none" stroke="midnightblue" d="M213.28,-224.44C179.57,-215.2 125.7,-200.44 88.57,-190.26"/>
<polygon fill="midnightblue" stroke="midnightblue" points="89.14,-186.78 78.57,-187.52 87.29,-193.54 89.14,-186.78"/>
</g>
<!-- Node11&#45;&gt;Node3 -->
<g id="edge18" class="edge">
<title>Node11&#45;&gt;Node3</title>
<path fill="none" stroke="midnightblue" d="M263.36,-224.44C282.77,-215.64 313.23,-201.81 335.46,-191.72"/>
<polygon fill="midnightblue" stroke="midnightblue" points="337.07,-194.84 344.73,-187.52 334.18,-188.46 337.07,-194.84"/>
</g>
<!-- Node11&#45;&gt;Node4 -->
<g id="edge12" class="edge">
<title>Node11&#45;&gt;Node4</title>
<path fill="none" stroke="midnightblue" d="M223.02,-224.36C208.11,-217.09 189.39,-205.12 180.5,-188 169.6,-167.01 193.29,-148.23 214.67,-136.32"/>
<polygon fill="midnightblue" stroke="midnightblue" points="216.35,-139.4 223.58,-131.65 213.1,-133.2 216.35,-139.4"/>
</g>
<!-- Node11&#45;&gt;Node6 -->
<g id="edge15" class="edge">
<title>Node11&#45;&gt;Node6</title>
<path fill="none" stroke="midnightblue" d="M281.13,-233.28C319.89,-231.57 380.48,-222.93 417.5,-188 430.16,-176.05 435.21,-156.44 437.21,-141.88"/>
<polygon fill="midnightblue" stroke="midnightblue" points="440.73,-141.83 438.25,-131.53 433.76,-141.13 440.73,-141.83"/>
</g>
<!-- Node11&#45;&gt;Node7 -->
<g id="edge13" class="edge">
<title>Node11&#45;&gt;Node7</title>
<path fill="none" stroke="midnightblue" d="M220.03,-224.44C203.93,-217.38 184.12,-205.63 174.5,-188 154.14,-150.71 192.86,-105.82 217.44,-82.61"/>
<polygon fill="midnightblue" stroke="midnightblue" points="220.09,-84.93 225.13,-75.61 215.37,-79.75 220.09,-84.93"/>
</g>
<!-- Node12 -->
<g id="node12" class="node">
<title>Node12</title>
<g id="a_node12"><a xlink:href="_requestable_item_8hpp.html" target="_top" xlink:title=" ">
<polygon fill="none" stroke="black" points="189.5,-168.5 189.5,-187.5 299.5,-187.5 299.5,-168.5 189.5,-168.5"/>
<text text-anchor="middle" x="244.5" y="-175.5" font-family="Helvetica,sans-Serif" font-size="10.00">RequestableItem.hpp</text>
</a>
</g>
</g>
<!-- Node11&#45;&gt;Node12 -->
<g id="edge16" class="edge">
<title>Node11&#45;&gt;Node12</title>
<path fill="none" stroke="midnightblue" d="M244.5,-224.08C244.5,-217.01 244.5,-206.86 244.5,-197.99"/>
<polygon fill="midnightblue" stroke="midnightblue" points="248,-197.75 244.5,-187.75 241,-197.75 248,-197.75"/>
</g>
<!-- Node12&#45;&gt;Node4 -->
<g id="edge17" class="edge">
<title>Node12&#45;&gt;Node4</title>
<path fill="none" stroke="midnightblue" d="M244.33,-168.08C244.2,-161.01 244.02,-150.86 243.85,-141.99"/>
<polygon fill="midnightblue" stroke="midnightblue" points="247.35,-141.68 243.66,-131.75 240.35,-141.81 247.35,-141.68"/>
</g>
</g>
</svg>
