<?xml version="1.0" encoding="UTF-8" standalone="no"?>
<!DOCTYPE svg PUBLIC "-//W3C//DTD SVG 1.1//EN"
 "http://www.w3.org/Graphics/SVG/1.1/DTD/svg11.dtd">
<!-- Generated by graphviz version 2.50.0 (20211204.2007)
 -->
<!-- Title: include/york/Graphics/Surface.hpp Pages: 1 -->
<svg width="540pt" height="319pt"
 viewBox="0.00 0.00 540.00 319.00" xmlns="http://www.w3.org/2000/svg" xmlns:xlink="http://www.w3.org/1999/xlink">
<g id="graph0" class="graph" transform="scale(1 1) rotate(0) translate(4 315)">
<title>include/york/Graphics/Surface.hpp</title>
<!-- Node1 -->
<g id="node1" class="node">
<title>Node1</title>
<g id="a_node1"><a xlink:title=" ">
<polygon fill="#bfbfbf" stroke="black" points="248,-280.5 248,-310.5 359,-310.5 359,-280.5 248,-280.5"/>
<text text-anchor="start" x="256" y="-298.5" font-family="Helvetica,sans-Serif" font-size="10.00">include/york/Graphics</text>
<text text-anchor="middle" x="303.5" y="-287.5" font-family="Helvetica,sans-Serif" font-size="10.00">/Surface.hpp</text>
</a>
</g>
</g>
<!-- Node2 -->
<g id="node2" class="node">
<title>Node2</title>
<g id="a_node2"><a xlink:title=" ">
<polygon fill="none" stroke="#bfbfbf" points="0,-168.5 0,-187.5 95,-187.5 95,-168.5 0,-168.5"/>
<text text-anchor="middle" x="47.5" y="-175.5" font-family="Helvetica,sans-Serif" font-size="10.00">vulkan/vulkan.hpp</text>
</a>
</g>
</g>
<!-- Node1&#45;&gt;Node2 -->
<g id="edge1" class="edge">
<title>Node1&#45;&gt;Node2</title>
<path fill="none" stroke="midnightblue" d="M272.37,-280.45C222.13,-257.79 123.94,-213.49 75.67,-191.71"/>
<polygon fill="midnightblue" stroke="midnightblue" points="76.99,-188.46 66.43,-187.54 74.11,-194.85 76.99,-188.46"/>
</g>
<!-- Node3 -->
<g id="node3" class="node">
<title>Node3</title>
<g id="a_node3"><a xlink:href="_window_8hpp.html" target="_top" xlink:title=" ">
<polygon fill="none" stroke="black" points="318,-168.5 318,-187.5 409,-187.5 409,-168.5 318,-168.5"/>
<text text-anchor="middle" x="363.5" y="-175.5" font-family="Helvetica,sans-Serif" font-size="10.00">york/Window.hpp</text>
</a>
</g>
</g>
<!-- Node1&#45;&gt;Node3 -->
<g id="edge2" class="edge">
<title>Node1&#45;&gt;Node3</title>
<path fill="none" stroke="midnightblue" d="M310.86,-280.34C321.82,-259.24 342.41,-219.6 354.33,-196.65"/>
<polygon fill="midnightblue" stroke="midnightblue" points="357.49,-198.16 359,-187.67 351.28,-194.93 357.49,-198.16"/>
</g>
<!-- Node6 -->
<g id="node6" class="node">
<title>Node6</title>
<g id="a_node6"><a xlink:href="_handle_8hpp.html" target="_top" xlink:title="Contains the declarations for the Handle classes which form the basis of our Vulkan implementation.">
<polygon fill="none" stroke="black" points="387.5,-112.5 387.5,-131.5 517.5,-131.5 517.5,-112.5 387.5,-112.5"/>
<text text-anchor="middle" x="452.5" y="-119.5" font-family="Helvetica,sans-Serif" font-size="10.00">york/Graphics/Handle.hpp</text>
</a>
</g>
</g>
<!-- Node1&#45;&gt;Node6 -->
<g id="edge10" class="edge">
<title>Node1&#45;&gt;Node6</title>
<path fill="none" stroke="midnightblue" d="M332.18,-280.42C364.03,-263.21 414.36,-230.99 440.5,-188 448.98,-174.06 451.74,-155.55 452.52,-141.85"/>
<polygon fill="midnightblue" stroke="midnightblue" points="456.02,-141.77 452.79,-131.68 449.03,-141.58 456.02,-141.77"/>
</g>
<!-- Node11 -->
<g id="node11" class="node">
<title>Node11</title>
<g id="a_node11"><a xlink:href="_instance_8hpp.html" target="_top" xlink:title=" ">
<polygon fill="none" stroke="black" points="208,-224.5 208,-243.5 281,-243.5 281,-224.5 208,-224.5"/>
<text text-anchor="middle" x="244.5" y="-231.5" font-family="Helvetica,sans-Serif" font-size="10.00">Instance.hpp</text>
</a>
</g>
</g>
<!-- Node1&#45;&gt;Node11 -->
<g id="edge11" class="edge">
<title>Node1&#45;&gt;Node11</title>
<path fill="none" stroke="midnightblue" d="M289.52,-280.4C280.77,-271.58 269.47,-260.18 260.38,-251.02"/>
<polygon fill="midnightblue" stroke="midnightblue" points="262.61,-248.29 253.09,-243.66 257.64,-253.22 262.61,-248.29"/>
</g>
<!-- Node4 -->
<g id="node4" class="node">
<title>Node4</title>
<g id="a_node4"><a xlink:title=" ">
<polygon fill="none" stroke="#bfbfbf" points="209,-112.5 209,-131.5 250,-131.5 250,-112.5 209,-112.5"/>
<text text-anchor="middle" x="229.5" y="-119.5" font-family="Helvetica,sans-Serif" font-size="10.00">string</text>
</a>
</g>
</g>
<!-- Node3&#45;&gt;Node4 -->
<g id="edge3" class="edge">
<title>Node3&#45;&gt;Node4</title>
<path fill="none" stroke="midnightblue" d="M342.27,-168.44C319.99,-159.46 284.77,-145.27 259.62,-135.14"/>
<polygon fill="midnightblue" stroke="midnightblue" points="260.78,-131.83 250.19,-131.34 258.16,-138.32 260.78,-131.83"/>
</g>
<!-- Node5 -->
<g id="node5" class="node">
<title>Node5</title>
<g id="a_node5"><a xlink:title=" ">
<polygon fill="none" stroke="#bfbfbf" points="268,-112.5 268,-131.5 369,-131.5 369,-112.5 268,-112.5"/>
<text text-anchor="middle" x="318.5" y="-119.5" font-family="Helvetica,sans-Serif" font-size="10.00">SDL2/SDL_video.h</text>
</a>
</g>
</g>
<!-- Node3&#45;&gt;Node5 -->
<g id="edge4" class="edge">
<title>Node3&#45;&gt;Node5</title>
<path fill="none" stroke="midnightblue" d="M356.07,-168.08C349.65,-160.38 340.19,-149.03 332.38,-139.65"/>
<polygon fill="midnightblue" stroke="midnightblue" points="334.88,-137.19 325.79,-131.75 329.51,-141.67 334.88,-137.19"/>
</g>
<!-- Node3&#45;&gt;Node6 -->
<g id="edge5" class="edge">
<title>Node3&#45;&gt;Node6</title>
<path fill="none" stroke="midnightblue" d="M377.8,-168.32C391.68,-159.9 412.99,-146.97 429.3,-137.07"/>
<polygon fill="midnightblue" stroke="midnightblue" points="431.5,-139.83 438.24,-131.65 427.87,-133.85 431.5,-139.83"/>
</g>
<!-- Node7 -->
<g id="node7" class="node">
<title>Node7</title>
<g id="a_node7"><a xlink:title=" ">
<polygon fill="none" stroke="#bfbfbf" points="227.5,-56.5 227.5,-75.5 271.5,-75.5 271.5,-56.5 227.5,-56.5"/>
<text text-anchor="middle" x="249.5" y="-63.5" font-family="Helvetica,sans-Serif" font-size="10.00">vector</text>
</a>
</g>
</g>
<!-- Node6&#45;&gt;Node7 -->
<g id="edge6" class="edge">
<title>Node6&#45;&gt;Node7</title>
<path fill="none" stroke="midnightblue" d="M420.33,-112.44C382.32,-102.33 319.45,-85.61 281.51,-75.51"/>
<polygon fill="midnightblue" stroke="midnightblue" points="282.07,-72.04 271.51,-72.85 280.27,-78.81 282.07,-72.04"/>
</g>
<!-- Node8 -->
<g id="node8" class="node">
<title>Node8</title>
<g id="a_node8"><a xlink:title=" ">
<polygon fill="none" stroke="#bfbfbf" points="473,-56.5 473,-75.5 532,-75.5 532,-56.5 473,-56.5"/>
<text text-anchor="middle" x="502.5" y="-63.5" font-family="Helvetica,sans-Serif" font-size="10.00">functional</text>
</a>
</g>
</g>
<!-- Node6&#45;&gt;Node8 -->
<g id="edge7" class="edge">
<title>Node6&#45;&gt;Node8</title>
<path fill="none" stroke="midnightblue" d="M460.76,-112.08C467.96,-104.3 478.61,-92.8 487.35,-83.37"/>
<polygon fill="midnightblue" stroke="midnightblue" points="490.17,-85.47 494.4,-75.75 485.03,-80.71 490.17,-85.47"/>
</g>
<!-- Node9 -->
<g id="node9" class="node">
<title>Node9</title>
<g id="a_node9"><a xlink:href="_identifiable_8hpp.html" target="_top" xlink:title=" ">
<polygon fill="none" stroke="black" points="350.5,-56.5 350.5,-75.5 454.5,-75.5 454.5,-56.5 350.5,-56.5"/>
<text text-anchor="middle" x="402.5" y="-63.5" font-family="Helvetica,sans-Serif" font-size="10.00">york/Identifiable.hpp</text>
</a>
</g>
</g>
<!-- Node6&#45;&gt;Node9 -->
<g id="edge8" class="edge">
<title>Node6&#45;&gt;Node9</title>
<path fill="none" stroke="midnightblue" d="M444.24,-112.08C437.04,-104.3 426.39,-92.8 417.65,-83.37"/>
<polygon fill="midnightblue" stroke="midnightblue" points="419.97,-80.71 410.6,-75.75 414.83,-85.47 419.97,-80.71"/>
</g>
<!-- Node10 -->
<g id="node10" class="node">
<title>Node10</title>
<g id="a_node10"><a xlink:title=" ">
<polygon fill="none" stroke="#bfbfbf" points="379.5,-0.5 379.5,-19.5 425.5,-19.5 425.5,-0.5 379.5,-0.5"/>
<text text-anchor="middle" x="402.5" y="-7.5" font-family="Helvetica,sans-Serif" font-size="10.00">cstdint</text>
</a>
</g>
</g>
<!-- Node9&#45;&gt;Node10 -->
<g id="edge9" class="edge">
<title>Node9&#45;&gt;Node10</title>
<path fill="none" stroke="midnightblue" d="M402.5,-56.08C402.5,-49.01 402.5,-38.86 402.5,-29.99"/>
<polygon fill="midnightblue" stroke="midnightblue" points="406,-29.75 402.5,-19.75 399,-29.75 406,-29.75"/>
</g>
<!-- Node11&#45;&gt;Node2 -->
<g id="edge14" class="edge">
<title>Node11&#45;&gt;Node2</title>
<path fill="none" stroke="midnightblue" d="M213.28,-224.44C179.57,-215.2 125.7,-200.44 88.57,-190.26"/>
<polygon fill="midnightblue" stroke="midnightblue" points="89.14,-186.78 78.57,-187.52 87.29,-193.54 89.14,-186.78"/>
</g>
<!-- Node11&#45;&gt;Node3 -->
<g id="edge18" class="edge">
<title>Node11&#45;&gt;Node3</title>
<path fill="none" stroke="midnightblue" d="M263.36,-224.44C282.77,-215.64 313.23,-201.81 335.46,-191.72"/>
<polygon fill="midnightblue" stroke="midnightblue" points="337.07,-194.84 344.73,-187.52 334.18,-188.46 337.07,-194.84"/>
</g>
<!-- Node11&#45;&gt;Node4 -->
<g id="edge12" class="edge">
<title>Node11&#45;&gt;Node4</title>
<path fill="none" stroke="midnightblue" d="M223.02,-224.36C208.11,-217.09 189.39,-205.12 180.5,-188 170.74,-169.2 189.2,-150.14 206.19,-137.56"/>
<polygon fill="midnightblue" stroke="midnightblue" points="208.55,-140.18 214.78,-131.61 204.56,-134.43 208.55,-140.18"/>
</g>
<!-- Node11&#45;&gt;Node6 -->
<g id="edge15" class="edge">
<title>Node11&#45;&gt;Node6</title>
<path fill="none" stroke="midnightblue" d="M281,-231.84C318.82,-228.88 377.84,-219.15 417.5,-188 432.59,-176.15 442,-155.94 447.21,-141.19"/>
<polygon fill="midnightblue" stroke="midnightblue" points="450.56,-142.21 450.29,-131.62 443.9,-140.07 450.56,-142.21"/>
</g>
<!-- Node11&#45;&gt;Node7 -->
<g id="edge13" class="edge">
<title>Node11&#45;&gt;Node7</title>
<path fill="none" stroke="midnightblue" d="M220.03,-224.44C203.93,-217.38 184.12,-205.63 174.5,-188 170.24,-180.2 172.65,-176.69 174.5,-168 180.18,-141.34 183.47,-134.04 199.5,-112 207.68,-100.75 219.08,-90.23 228.92,-82.19"/>
<polygon fill="midnightblue" stroke="midnightblue" points="231.34,-84.74 237.05,-75.81 227.02,-79.23 231.34,-84.74"/>
</g>
<!-- Node12 -->
<g id="node12" class="node">
<title>Node12</title>
<g id="a_node12"><a xlink:href="_requestable_item_8hpp.html" target="_top" xlink:title=" ">
<polygon fill="none" stroke="black" points="189.5,-168.5 189.5,-187.5 299.5,-187.5 299.5,-168.5 189.5,-168.5"/>
<text text-anchor="middle" x="244.5" y="-175.5" font-family="Helvetica,sans-Serif" font-size="10.00">RequestableItem.hpp</text>
</a>
</g>
</g>
<!-- Node11&#45;&gt;Node12 -->
<g id="edge16" class="edge">
<title>Node11&#45;&gt;Node12</title>
<path fill="none" stroke="midnightblue" d="M244.5,-224.08C244.5,-217.01 244.5,-206.86 244.5,-197.99"/>
<polygon fill="midnightblue" stroke="midnightblue" points="248,-197.75 244.5,-187.75 241,-197.75 248,-197.75"/>
</g>
<!-- Node12&#45;&gt;Node4 -->
<g id="edge17" class="edge">
<title>Node12&#45;&gt;Node4</title>
<path fill="none" stroke="midnightblue" d="M242.02,-168.08C240.01,-160.85 237.11,-150.41 234.61,-141.4"/>
<polygon fill="midnightblue" stroke="midnightblue" points="237.98,-140.45 231.93,-131.75 231.24,-142.32 237.98,-140.45"/>
</g>
</g>
</svg>
