<?xml version="1.0" encoding="UTF-8" standalone="no"?>
<!DOCTYPE svg PUBLIC "-//W3C//DTD SVG 1.1//EN"
 "http://www.w3.org/Graphics/SVG/1.1/DTD/svg11.dtd">
<!-- Generated by graphviz version 2.50.0 (20211204.2007)
 -->
<!-- Title: include/york/Graphics/Surface.hpp Pages: 1 -->
<svg width="431pt" height="319pt"
 viewBox="0.00 0.00 431.03 319.00" xmlns="http://www.w3.org/2000/svg" xmlns:xlink="http://www.w3.org/1999/xlink">
<g id="graph0" class="graph" transform="scale(1 1) rotate(0) translate(4 315)">
<title>include/york/Graphics/Surface.hpp</title>
<!-- Node1 -->
<g id="node1" class="node">
<title>Node1</title>
<g id="a_node1"><a xlink:title=" ">
<polygon fill="#bfbfbf" stroke="black" points="62.67,-280.5 62.67,-310.5 173.67,-310.5 173.67,-280.5 62.67,-280.5"/>
<text text-anchor="start" x="70.67" y="-298.5" font-family="Helvetica,sans-Serif" font-size="10.00">include/york/Graphics</text>
<text text-anchor="middle" x="118.17" y="-287.5" font-family="Helvetica,sans-Serif" font-size="10.00">/Surface.hpp</text>
</a>
</g>
</g>
<!-- Node2 -->
<g id="node2" class="node">
<title>Node2</title>
<g id="a_node2"><a xlink:title=" ">
<polygon fill="none" stroke="#bfbfbf" points="17.67,-168.5 17.67,-187.5 112.67,-187.5 112.67,-168.5 17.67,-168.5"/>
<text text-anchor="middle" x="65.17" y="-175.5" font-family="Helvetica,sans-Serif" font-size="10.00">vulkan/vulkan.hpp</text>
</a>
</g>
</g>
<!-- Node1&#45;&gt;Node2 -->
<g id="edge1" class="edge">
<title>Node1&#45;&gt;Node2</title>
<path fill="none" stroke="midnightblue" d="M111.67,-280.34C102.03,-259.34 83.96,-219.96 73.41,-196.96"/>
<polygon fill="midnightblue" stroke="midnightblue" points="76.5,-195.3 69.15,-187.67 70.14,-198.22 76.5,-195.3"/>
</g>
<!-- Node3 -->
<g id="node3" class="node">
<title>Node3</title>
<g id="a_node3"><a xlink:href="_handle_8hpp.html" target="_top" xlink:title="Contains the declarations for the Handle classes which form the basis of our Vulkan implementation.">
<polygon fill="none" stroke="black" points="108.17,-112.5 108.17,-131.5 174.17,-131.5 174.17,-112.5 108.17,-112.5"/>
<text text-anchor="middle" x="141.17" y="-119.5" font-family="Helvetica,sans-Serif" font-size="10.00">Handle.hpp</text>
</a>
</g>
</g>
<!-- Node1&#45;&gt;Node3 -->
<g id="edge2" class="edge">
<title>Node1&#45;&gt;Node3</title>
<path fill="none" stroke="midnightblue" d="M89.55,-280.44C47.44,-257.83 -23.04,-211.51 8.17,-168 28.47,-139.71 67.53,-128.98 98.09,-125.02"/>
<polygon fill="midnightblue" stroke="midnightblue" points="98.53,-128.49 108.09,-123.92 97.76,-121.53 98.53,-128.49"/>
</g>
<!-- Node8 -->
<g id="node8" class="node">
<title>Node8</title>
<g id="a_node8"><a xlink:href="_instance_8hpp.html" target="_top" xlink:title=" ">
<polygon fill="none" stroke="black" points="178.67,-224.5 178.67,-243.5 251.67,-243.5 251.67,-224.5 178.67,-224.5"/>
<text text-anchor="middle" x="215.17" y="-231.5" font-family="Helvetica,sans-Serif" font-size="10.00">Instance.hpp</text>
</a>
</g>
</g>
<!-- Node1&#45;&gt;Node8 -->
<g id="edge7" class="edge">
<title>Node1&#45;&gt;Node8</title>
<path fill="none" stroke="midnightblue" d="M141.16,-280.4C156.56,-270.95 176.76,-258.56 192.17,-249.11"/>
<polygon fill="midnightblue" stroke="midnightblue" points="194.36,-251.87 201.06,-243.66 190.7,-245.9 194.36,-251.87"/>
</g>
<!-- Node11 -->
<g id="node11" class="node">
<title>Node11</title>
<g id="a_node11"><a xlink:href="_window_8hpp.html" target="_top" xlink:title=" ">
<polygon fill="none" stroke="black" points="169.67,-168.5 169.67,-187.5 260.67,-187.5 260.67,-168.5 169.67,-168.5"/>
<text text-anchor="middle" x="215.17" y="-175.5" font-family="Helvetica,sans-Serif" font-size="10.00">york/Window.hpp</text>
</a>
</g>
</g>
<!-- Node1&#45;&gt;Node11 -->
<g id="edge18" class="edge">
<title>Node1&#45;&gt;Node11</title>
<path fill="none" stroke="midnightblue" d="M127.29,-280.46C137.01,-265.85 153.19,-242.54 169.17,-224 178.1,-213.63 189.02,-202.88 197.98,-194.49"/>
<polygon fill="midnightblue" stroke="midnightblue" points="200.56,-196.88 205.54,-187.53 195.81,-191.73 200.56,-196.88"/>
</g>
<!-- Node4 -->
<g id="node4" class="node">
<title>Node4</title>
<g id="a_node4"><a xlink:title=" ">
<polygon fill="none" stroke="#bfbfbf" points="336.17,-56.5 336.17,-75.5 380.17,-75.5 380.17,-56.5 336.17,-56.5"/>
<text text-anchor="middle" x="358.17" y="-63.5" font-family="Helvetica,sans-Serif" font-size="10.00">vector</text>
</a>
</g>
</g>
<!-- Node3&#45;&gt;Node4 -->
<g id="edge3" class="edge">
<title>Node3&#45;&gt;Node4</title>
<path fill="none" stroke="midnightblue" d="M174.6,-112.68C215.83,-102.42 285.43,-85.1 326.05,-74.99"/>
<polygon fill="midnightblue" stroke="midnightblue" points="327.1,-78.34 335.96,-72.53 325.41,-71.55 327.1,-78.34"/>
</g>
<!-- Node5 -->
<g id="node5" class="node">
<title>Node5</title>
<g id="a_node5"><a xlink:title=" ">
<polygon fill="none" stroke="#bfbfbf" points="161.67,-56.5 161.67,-75.5 220.67,-75.5 220.67,-56.5 161.67,-56.5"/>
<text text-anchor="middle" x="191.17" y="-63.5" font-family="Helvetica,sans-Serif" font-size="10.00">functional</text>
</a>
</g>
</g>
<!-- Node3&#45;&gt;Node5 -->
<g id="edge4" class="edge">
<title>Node3&#45;&gt;Node5</title>
<path fill="none" stroke="midnightblue" d="M149.43,-112.08C156.63,-104.3 167.28,-92.8 176.02,-83.37"/>
<polygon fill="midnightblue" stroke="midnightblue" points="178.84,-85.47 183.07,-75.75 173.7,-80.71 178.84,-85.47"/>
</g>
<!-- Node6 -->
<g id="node6" class="node">
<title>Node6</title>
<g id="a_node6"><a xlink:href="_identifiable_8hpp.html" target="_top" xlink:title=" ">
<polygon fill="none" stroke="black" points="39.17,-56.5 39.17,-75.5 143.17,-75.5 143.17,-56.5 39.17,-56.5"/>
<text text-anchor="middle" x="91.17" y="-63.5" font-family="Helvetica,sans-Serif" font-size="10.00">york/Identifiable.hpp</text>
</a>
</g>
</g>
<!-- Node3&#45;&gt;Node6 -->
<g id="edge5" class="edge">
<title>Node3&#45;&gt;Node6</title>
<path fill="none" stroke="midnightblue" d="M132.91,-112.08C125.71,-104.3 115.06,-92.8 106.32,-83.37"/>
<polygon fill="midnightblue" stroke="midnightblue" points="108.64,-80.71 99.27,-75.75 103.5,-85.47 108.64,-80.71"/>
</g>
<!-- Node7 -->
<g id="node7" class="node">
<title>Node7</title>
<g id="a_node7"><a xlink:title=" ">
<polygon fill="none" stroke="#bfbfbf" points="68.17,-0.5 68.17,-19.5 114.17,-19.5 114.17,-0.5 68.17,-0.5"/>
<text text-anchor="middle" x="91.17" y="-7.5" font-family="Helvetica,sans-Serif" font-size="10.00">cstdint</text>
</a>
</g>
</g>
<!-- Node6&#45;&gt;Node7 -->
<g id="edge6" class="edge">
<title>Node6&#45;&gt;Node7</title>
<path fill="none" stroke="midnightblue" d="M91.17,-56.08C91.17,-49.01 91.17,-38.86 91.17,-29.99"/>
<polygon fill="midnightblue" stroke="midnightblue" points="94.67,-29.75 91.17,-19.75 87.67,-29.75 94.67,-29.75"/>
</g>
<!-- Node8&#45;&gt;Node2 -->
<g id="edge10" class="edge">
<title>Node8&#45;&gt;Node2</title>
<path fill="none" stroke="midnightblue" d="M191.4,-224.44C166.28,-215.4 126.46,-201.06 98.27,-190.92"/>
<polygon fill="midnightblue" stroke="midnightblue" points="99.42,-187.61 88.83,-187.52 97.05,-194.2 99.42,-187.61"/>
</g>
<!-- Node8&#45;&gt;Node3 -->
<g id="edge11" class="edge">
<title>Node8&#45;&gt;Node3</title>
<path fill="none" stroke="midnightblue" d="M200.44,-224.5C187.97,-216.57 170.52,-203.64 160.17,-188 150.94,-174.06 146.1,-155.55 143.63,-141.85"/>
<polygon fill="midnightblue" stroke="midnightblue" points="147.04,-141.03 142.05,-131.68 140.12,-142.1 147.04,-141.03"/>
</g>
<!-- Node8&#45;&gt;Node4 -->
<g id="edge9" class="edge">
<title>Node8&#45;&gt;Node4</title>
<path fill="none" stroke="midnightblue" d="M251.68,-230.08C303.47,-225.1 394.21,-212.97 414.17,-188 440.64,-154.88 400.56,-107.2 375.61,-82.76"/>
<polygon fill="midnightblue" stroke="midnightblue" points="377.82,-80.03 368.15,-75.69 373,-85.11 377.82,-80.03"/>
</g>
<!-- Node9 -->
<g id="node9" class="node">
<title>Node9</title>
<g id="a_node9"><a xlink:title=" ">
<polygon fill="none" stroke="#bfbfbf" points="313.67,-112.5 313.67,-131.5 354.67,-131.5 354.67,-112.5 313.67,-112.5"/>
<text text-anchor="middle" x="334.17" y="-119.5" font-family="Helvetica,sans-Serif" font-size="10.00">string</text>
</a>
</g>
</g>
<!-- Node8&#45;&gt;Node9 -->
<g id="edge8" class="edge">
<title>Node8&#45;&gt;Node9</title>
<path fill="none" stroke="midnightblue" d="M252,-229.25C300.12,-223.5 380.36,-210.72 398.17,-188 413.35,-168.63 386.53,-148.83 363.1,-136.26"/>
<polygon fill="midnightblue" stroke="midnightblue" points="364.55,-133.07 354.05,-131.65 361.37,-139.31 364.55,-133.07"/>
</g>
<!-- Node10 -->
<g id="node10" class="node">
<title>Node10</title>
<g id="a_node10"><a xlink:href="_requestable_item_8hpp.html" target="_top" xlink:title=" ">
<polygon fill="none" stroke="black" points="279.17,-168.5 279.17,-187.5 389.17,-187.5 389.17,-168.5 279.17,-168.5"/>
<text text-anchor="middle" x="334.17" y="-175.5" font-family="Helvetica,sans-Serif" font-size="10.00">RequestableItem.hpp</text>
</a>
</g>
</g>
<!-- Node8&#45;&gt;Node10 -->
<g id="edge12" class="edge">
<title>Node8&#45;&gt;Node10</title>
<path fill="none" stroke="midnightblue" d="M234.03,-224.44C253.44,-215.64 283.9,-201.81 306.13,-191.72"/>
<polygon fill="midnightblue" stroke="midnightblue" points="307.74,-194.84 315.4,-187.52 304.85,-188.46 307.74,-194.84"/>
</g>
<!-- Node8&#45;&gt;Node11 -->
<g id="edge14" class="edge">
<title>Node8&#45;&gt;Node11</title>
<path fill="none" stroke="midnightblue" d="M215.17,-224.08C215.17,-217.01 215.17,-206.86 215.17,-197.99"/>
<polygon fill="midnightblue" stroke="midnightblue" points="218.67,-197.75 215.17,-187.75 211.67,-197.75 218.67,-197.75"/>
</g>
<!-- Node10&#45;&gt;Node9 -->
<g id="edge13" class="edge">
<title>Node10&#45;&gt;Node9</title>
<path fill="none" stroke="midnightblue" d="M334.17,-168.08C334.17,-161.01 334.17,-150.86 334.17,-141.99"/>
<polygon fill="midnightblue" stroke="midnightblue" points="337.67,-141.75 334.17,-131.75 330.67,-141.75 337.67,-141.75"/>
</g>
<!-- Node11&#45;&gt;Node3 -->
<g id="edge17" class="edge">
<title>Node11&#45;&gt;Node3</title>
<path fill="none" stroke="midnightblue" d="M203.28,-168.32C192.02,-160.11 174.88,-147.6 161.46,-137.81"/>
<polygon fill="midnightblue" stroke="midnightblue" points="163.42,-134.9 153.28,-131.83 159.29,-140.56 163.42,-134.9"/>
</g>
<!-- Node11&#45;&gt;Node9 -->
<g id="edge15" class="edge">
<title>Node11&#45;&gt;Node9</title>
<path fill="none" stroke="midnightblue" d="M234.03,-168.44C253.44,-159.64 283.9,-145.81 306.13,-135.72"/>
<polygon fill="midnightblue" stroke="midnightblue" points="307.74,-138.84 315.4,-131.52 304.85,-132.46 307.74,-138.84"/>
</g>
<!-- Node12 -->
<g id="node12" class="node">
<title>Node12</title>
<g id="a_node12"><a xlink:title=" ">
<polygon fill="none" stroke="#bfbfbf" points="192.67,-112.5 192.67,-131.5 265.67,-131.5 265.67,-112.5 192.67,-112.5"/>
<text text-anchor="middle" x="229.17" y="-119.5" font-family="Helvetica,sans-Serif" font-size="10.00">SDL_video.h</text>
</a>
</g>
</g>
<!-- Node11&#45;&gt;Node12 -->
<g id="edge16" class="edge">
<title>Node11&#45;&gt;Node12</title>
<path fill="none" stroke="midnightblue" d="M217.48,-168.08C219.34,-160.93 222.01,-150.64 224.32,-141.69"/>
<polygon fill="midnightblue" stroke="midnightblue" points="227.78,-142.31 226.9,-131.75 221,-140.55 227.78,-142.31"/>
</g>
</g>
</svg>
