<?xml version="1.0" encoding="UTF-8" standalone="no"?>
<!DOCTYPE svg PUBLIC "-//W3C//DTD SVG 1.1//EN"
 "http://www.w3.org/Graphics/SVG/1.1/DTD/svg11.dtd">
<!-- Generated by graphviz version 2.50.0 (20211204.2007)
 -->
<!-- Title: include/york/Graphics/Surface.hpp Pages: 1 -->
<svg width="661pt" height="575pt"
 viewBox="0.00 0.00 661.00 575.00" xmlns="http://www.w3.org/2000/svg" xmlns:xlink="http://www.w3.org/1999/xlink">
<g id="graph0" class="graph" transform="scale(1 1) rotate(0) translate(4 571)">
<title>include/york/Graphics/Surface.hpp</title>
<!-- Node1 -->
<g id="node1" class="node">
<title>Node1</title>
<g id="a_node1"><a xlink:title=" ">
<polygon fill="#bfbfbf" stroke="black" points="252,-536.5 252,-566.5 363,-566.5 363,-536.5 252,-536.5"/>
<text text-anchor="start" x="260" y="-554.5" font-family="Helvetica,sans-Serif" font-size="10.00">include/york/Graphics</text>
<text text-anchor="middle" x="307.5" y="-543.5" font-family="Helvetica,sans-Serif" font-size="10.00">/Surface.hpp</text>
</a>
</g>
</g>
<!-- Node2 -->
<g id="node2" class="node">
<title>Node2</title>
<g id="a_node2"><a xlink:href="_device_8hpp.html" target="_top" xlink:title=" ">
<polygon fill="none" stroke="black" points="252,-402.5 252,-432.5 363,-432.5 363,-402.5 252,-402.5"/>
<text text-anchor="start" x="260" y="-420.5" font-family="Helvetica,sans-Serif" font-size="10.00">include/york/Graphics</text>
<text text-anchor="middle" x="307.5" y="-409.5" font-family="Helvetica,sans-Serif" font-size="10.00">/Device.hpp</text>
</a>
</g>
</g>
<!-- Node1&#45;&gt;Node2 -->
<g id="edge1" class="edge">
<title>Node1&#45;&gt;Node2</title>
<path fill="none" stroke="midnightblue" d="M294.46,-527.38C290.44,-519.02 286.53,-509.34 284.5,-500 281.58,-486.54 281.58,-482.46 284.5,-469 287.32,-456.01 293.78,-442.35 299.14,-432.52"/>
<polygon fill="midnightblue" stroke="midnightblue" points="291.46,-529.19 299.14,-536.48 297.68,-525.99 291.46,-529.19"/>
</g>
<!-- Node15 -->
<g id="node15" class="node">
<title>Node15</title>
<g id="a_node15"><a xlink:href="_physical_device_8hpp.html" target="_top" xlink:title=" ">
<polygon fill="none" stroke="black" points="294,-469.5 294,-499.5 405,-499.5 405,-469.5 294,-469.5"/>
<text text-anchor="start" x="302" y="-487.5" font-family="Helvetica,sans-Serif" font-size="10.00">include/york/Graphics</text>
<text text-anchor="middle" x="349.5" y="-476.5" font-family="Helvetica,sans-Serif" font-size="10.00">/PhysicalDevice.hpp</text>
</a>
</g>
</g>
<!-- Node1&#45;&gt;Node15 -->
<g id="edge27" class="edge">
<title>Node1&#45;&gt;Node15</title>
<path fill="none" stroke="midnightblue" d="M322.12,-527.87C328.2,-518.46 335.07,-507.83 340.4,-499.58"/>
<polygon fill="midnightblue" stroke="midnightblue" points="319.1,-526.1 316.61,-536.4 324.98,-529.9 319.1,-526.1"/>
</g>
<!-- Node3 -->
<g id="node3" class="node">
<title>Node3</title>
<g id="a_node3"><a xlink:href="_command_pool_8hpp.html" target="_top" xlink:title=" ">
<polygon fill="none" stroke="black" points="0,-134.5 0,-164.5 111,-164.5 111,-134.5 0,-134.5"/>
<text text-anchor="start" x="8" y="-152.5" font-family="Helvetica,sans-Serif" font-size="10.00">include/york/Graphics</text>
<text text-anchor="middle" x="55.5" y="-141.5" font-family="Helvetica,sans-Serif" font-size="10.00">/CommandPool.hpp</text>
</a>
</g>
</g>
<!-- Node2&#45;&gt;Node3 -->
<g id="edge2" class="edge">
<title>Node2&#45;&gt;Node3</title>
<path fill="none" stroke="midnightblue" d="M242.03,-410.89C181.02,-404.21 96.28,-390.7 74.5,-366 23.08,-307.69 42.39,-202.78 51.67,-164.75"/>
<polygon fill="midnightblue" stroke="midnightblue" points="241.67,-414.37 251.98,-411.95 242.41,-407.41 241.67,-414.37"/>
</g>
<!-- Node6 -->
<g id="node6" class="node">
<title>Node6</title>
<g id="a_node6"><a xlink:href="_fence_8hpp.html" target="_top" xlink:title=" ">
<polygon fill="none" stroke="black" points="84,-335.5 84,-365.5 195,-365.5 195,-335.5 84,-335.5"/>
<text text-anchor="start" x="92" y="-353.5" font-family="Helvetica,sans-Serif" font-size="10.00">include/york/Graphics</text>
<text text-anchor="middle" x="139.5" y="-342.5" font-family="Helvetica,sans-Serif" font-size="10.00">/Fence.hpp</text>
</a>
</g>
</g>
<!-- Node2&#45;&gt;Node6 -->
<g id="edge6" class="edge">
<title>Node2&#45;&gt;Node6</title>
<path fill="none" stroke="midnightblue" d="M261.45,-398.68C234.5,-388.26 200.96,-375.28 175.88,-365.58"/>
<polygon fill="midnightblue" stroke="midnightblue" points="260.46,-402.05 271.05,-402.4 262.98,-395.52 260.46,-402.05"/>
</g>
<!-- Node7 -->
<g id="node7" class="node">
<title>Node7</title>
<g id="a_node7"><a xlink:href="_image_view_8hpp.html" target="_top" xlink:title=" ">
<polygon fill="none" stroke="black" points="252,-335.5 252,-365.5 363,-365.5 363,-335.5 252,-335.5"/>
<text text-anchor="start" x="260" y="-353.5" font-family="Helvetica,sans-Serif" font-size="10.00">include/york/Graphics</text>
<text text-anchor="middle" x="307.5" y="-342.5" font-family="Helvetica,sans-Serif" font-size="10.00">/ImageView.hpp</text>
</a>
</g>
</g>
<!-- Node2&#45;&gt;Node7 -->
<g id="edge8" class="edge">
<title>Node2&#45;&gt;Node7</title>
<path fill="none" stroke="midnightblue" d="M307.5,-392.11C307.5,-383.15 307.5,-373.32 307.5,-365.58"/>
<polygon fill="midnightblue" stroke="midnightblue" points="304,-392.4 307.5,-402.4 311,-392.4 304,-392.4"/>
</g>
<!-- Node9 -->
<g id="node9" class="node">
<title>Node9</title>
<g id="a_node9"><a xlink:href="_swap_chain_8hpp.html" target="_top" xlink:title=" ">
<polygon fill="none" stroke="black" points="329,-268.5 329,-298.5 440,-298.5 440,-268.5 329,-268.5"/>
<text text-anchor="start" x="337" y="-286.5" font-family="Helvetica,sans-Serif" font-size="10.00">include/york/Graphics</text>
<text text-anchor="middle" x="384.5" y="-275.5" font-family="Helvetica,sans-Serif" font-size="10.00">/SwapChain.hpp</text>
</a>
</g>
</g>
<!-- Node2&#45;&gt;Node9 -->
<g id="edge26" class="edge">
<title>Node2&#45;&gt;Node9</title>
<path fill="none" stroke="midnightblue" d="M342.6,-396.75C353.89,-388.67 365.33,-378.29 372.5,-366 384.83,-344.88 386.04,-315.61 385.49,-298.5"/>
<polygon fill="midnightblue" stroke="midnightblue" points="340.42,-394 334.07,-402.48 344.32,-399.81 340.42,-394"/>
</g>
<!-- Node12 -->
<g id="node12" class="node">
<title>Node12</title>
<g id="a_node12"><a xlink:href="_pipeline_layout_8hpp.html" target="_top" xlink:title=" ">
<polygon fill="none" stroke="black" points="458,-268.5 458,-298.5 569,-298.5 569,-268.5 458,-268.5"/>
<text text-anchor="start" x="466" y="-286.5" font-family="Helvetica,sans-Serif" font-size="10.00">include/york/Graphics</text>
<text text-anchor="middle" x="513.5" y="-275.5" font-family="Helvetica,sans-Serif" font-size="10.00">/PipelineLayout.hpp</text>
</a>
</g>
</g>
<!-- Node2&#45;&gt;Node12 -->
<g id="edge19" class="edge">
<title>Node2&#45;&gt;Node12</title>
<path fill="none" stroke="midnightblue" d="M340.35,-397.24C355.96,-387.97 374.8,-376.59 391.5,-366 427.64,-343.08 468.89,-315.15 492.97,-298.65"/>
<polygon fill="midnightblue" stroke="midnightblue" points="338.4,-394.33 331.58,-402.43 341.97,-400.35 338.4,-394.33"/>
</g>
<!-- Node13 -->
<g id="node13" class="node">
<title>Node13</title>
<g id="a_node13"><a xlink:href="_semaphore_8hpp.html" target="_top" xlink:title=" ">
<polygon fill="none" stroke="black" points="168,-134.5 168,-164.5 279,-164.5 279,-134.5 168,-134.5"/>
<text text-anchor="start" x="176" y="-152.5" font-family="Helvetica,sans-Serif" font-size="10.00">include/york/Graphics</text>
<text text-anchor="middle" x="223.5" y="-141.5" font-family="Helvetica,sans-Serif" font-size="10.00">/Semaphore.hpp</text>
</a>
</g>
</g>
<!-- Node2&#45;&gt;Node13 -->
<g id="edge21" class="edge">
<title>Node2&#45;&gt;Node13</title>
<path fill="none" stroke="midnightblue" d="M271.72,-396.79C260.48,-388.75 249.26,-378.4 242.5,-366 205.65,-298.4 215.63,-200.88 221.07,-164.7"/>
<polygon fill="midnightblue" stroke="midnightblue" points="269.98,-399.83 280.24,-402.48 273.87,-394.01 269.98,-399.83"/>
</g>
<!-- Node14 -->
<g id="node14" class="node">
<title>Node14</title>
<g id="a_node14"><a xlink:href="_shader_8hpp.html" target="_top" xlink:title=" ">
<polygon fill="none" stroke="black" points="542,-201.5 542,-231.5 653,-231.5 653,-201.5 542,-201.5"/>
<text text-anchor="start" x="550" y="-219.5" font-family="Helvetica,sans-Serif" font-size="10.00">include/york/Graphics</text>
<text text-anchor="middle" x="597.5" y="-208.5" font-family="Helvetica,sans-Serif" font-size="10.00">/Shader.hpp</text>
</a>
</g>
</g>
<!-- Node2&#45;&gt;Node14 -->
<g id="edge24" class="edge">
<title>Node2&#45;&gt;Node14</title>
<path fill="none" stroke="midnightblue" d="M373.34,-405.55C435.57,-391.68 526.87,-361.57 578.5,-299 594.5,-279.61 597.55,-249.21 597.85,-231.53"/>
<polygon fill="midnightblue" stroke="midnightblue" points="372.27,-402.2 363.23,-407.72 373.74,-409.05 372.27,-402.2"/>
</g>
<!-- Node4 -->
<g id="node4" class="node">
<title>Node4</title>
<g id="a_node4"><a xlink:href="_frame_data_8hpp.html" target="_top" xlink:title=" ">
<polygon fill="none" stroke="black" points="252,-67.5 252,-97.5 363,-97.5 363,-67.5 252,-67.5"/>
<text text-anchor="start" x="260" y="-85.5" font-family="Helvetica,sans-Serif" font-size="10.00">include/york/Graphics</text>
<text text-anchor="middle" x="307.5" y="-74.5" font-family="Helvetica,sans-Serif" font-size="10.00">/FrameData.hpp</text>
</a>
</g>
</g>
<!-- Node3&#45;&gt;Node4 -->
<g id="edge3" class="edge">
<title>Node3&#45;&gt;Node4</title>
<path fill="none" stroke="midnightblue" d="M119.79,-131.92C160.91,-121.31 213.68,-107.7 252.79,-97.61"/>
<polygon fill="midnightblue" stroke="midnightblue" points="118.68,-128.59 109.87,-134.48 120.43,-135.37 118.68,-128.59"/>
</g>
<!-- Node5 -->
<g id="node5" class="node">
<title>Node5</title>
<g id="a_node5"><a xlink:href="_renderer_8hpp.html" target="_top" xlink:title=" ">
<polygon fill="none" stroke="black" points="251.5,-0.5 251.5,-30.5 363.5,-30.5 363.5,-0.5 251.5,-0.5"/>
<text text-anchor="start" x="259.5" y="-18.5" font-family="Helvetica,sans-Serif" font-size="10.00">include/york/Renderer</text>
<text text-anchor="middle" x="307.5" y="-7.5" font-family="Helvetica,sans-Serif" font-size="10.00">/Renderer.hpp</text>
</a>
</g>
</g>
<!-- Node3&#45;&gt;Node5 -->
<g id="edge5" class="edge">
<title>Node3&#45;&gt;Node5</title>
<path fill="none" stroke="midnightblue" d="M91.52,-129.63C142.67,-102.84 235.2,-54.37 280.73,-30.52"/>
<polygon fill="midnightblue" stroke="midnightblue" points="89.7,-126.63 82.47,-134.37 92.95,-132.83 89.7,-126.63"/>
</g>
<!-- Node4&#45;&gt;Node5 -->
<g id="edge4" class="edge">
<title>Node4&#45;&gt;Node5</title>
<path fill="none" stroke="midnightblue" d="M307.5,-57.11C307.5,-48.15 307.5,-38.32 307.5,-30.58"/>
<polygon fill="midnightblue" stroke="midnightblue" points="304,-57.4 307.5,-67.4 311,-57.4 304,-57.4"/>
</g>
<!-- Node6&#45;&gt;Node4 -->
<g id="edge7" class="edge">
<title>Node6&#45;&gt;Node4</title>
<path fill="none" stroke="midnightblue" d="M133.9,-325.35C125.34,-281.99 114.33,-190.22 158.5,-134 180.69,-105.76 219.4,-93.21 251.8,-87.68"/>
<polygon fill="midnightblue" stroke="midnightblue" points="130.5,-326.22 135.98,-335.28 137.35,-324.78 130.5,-326.22"/>
</g>
<!-- Node8 -->
<g id="node8" class="node">
<title>Node8</title>
<g id="a_node8"><a xlink:href="_framebuffer_8hpp.html" target="_top" xlink:title=" ">
<polygon fill="none" stroke="black" points="336,-134.5 336,-164.5 447,-164.5 447,-134.5 336,-134.5"/>
<text text-anchor="start" x="344" y="-152.5" font-family="Helvetica,sans-Serif" font-size="10.00">include/york/Graphics</text>
<text text-anchor="middle" x="391.5" y="-141.5" font-family="Helvetica,sans-Serif" font-size="10.00">/Framebuffer.hpp</text>
</a>
</g>
</g>
<!-- Node7&#45;&gt;Node8 -->
<g id="edge9" class="edge">
<title>Node7&#45;&gt;Node8</title>
<path fill="none" stroke="midnightblue" d="M305.16,-324.99C303.37,-294 304.23,-240 326.5,-201 335.29,-185.61 350.81,-173.28 364.48,-164.66"/>
<polygon fill="midnightblue" stroke="midnightblue" points="301.69,-325.57 305.9,-335.29 308.67,-325.07 301.69,-325.57"/>
</g>
<!-- Node7&#45;&gt;Node9 -->
<g id="edge12" class="edge">
<title>Node7&#45;&gt;Node9</title>
<path fill="none" stroke="midnightblue" d="M331.92,-328.88C343.62,-319.01 357.34,-307.43 367.82,-298.58"/>
<polygon fill="midnightblue" stroke="midnightblue" points="329.59,-326.27 324.21,-335.4 334.11,-331.62 329.59,-326.27"/>
</g>
<!-- Node8&#45;&gt;Node4 -->
<g id="edge10" class="edge">
<title>Node8&#45;&gt;Node4</title>
<path fill="none" stroke="midnightblue" d="M365.22,-128.17C352.38,-118.23 337.24,-106.51 325.69,-97.58"/>
<polygon fill="midnightblue" stroke="midnightblue" points="363.22,-131.04 373.27,-134.4 367.51,-125.51 363.22,-131.04"/>
</g>
<!-- Node8&#45;&gt;Node5 -->
<g id="edge11" class="edge">
<title>Node8&#45;&gt;Node5</title>
<path fill="none" stroke="midnightblue" d="M390.1,-124.11C388.14,-106.99 383.49,-84.16 372.5,-67 362.79,-51.84 346.89,-39.37 333.25,-30.61"/>
<polygon fill="midnightblue" stroke="midnightblue" points="386.65,-124.79 391.04,-134.43 393.62,-124.16 386.65,-124.79"/>
</g>
<!-- Node9&#45;&gt;Node4 -->
<g id="edge13" class="edge">
<title>Node9&#45;&gt;Node4</title>
<path fill="none" stroke="midnightblue" d="M353.21,-262.27C343.06,-254.1 332.81,-243.8 326.5,-232 302.73,-187.53 304.08,-125.18 306.12,-97.59"/>
<polygon fill="midnightblue" stroke="midnightblue" points="351.16,-265.1 361.25,-268.35 355.38,-259.52 351.16,-265.1"/>
</g>
<!-- Node10 -->
<g id="node10" class="node">
<title>Node10</title>
<g id="a_node10"><a xlink:href="_pipeline_8hpp.html" target="_top" xlink:title=" ">
<polygon fill="none" stroke="black" points="465,-134.5 465,-164.5 576,-164.5 576,-134.5 465,-134.5"/>
<text text-anchor="start" x="473" y="-152.5" font-family="Helvetica,sans-Serif" font-size="10.00">include/york/Graphics</text>
<text text-anchor="middle" x="520.5" y="-141.5" font-family="Helvetica,sans-Serif" font-size="10.00">/Pipeline.hpp</text>
</a>
</g>
</g>
<!-- Node9&#45;&gt;Node10 -->
<g id="edge14" class="edge">
<title>Node9&#45;&gt;Node10</title>
<path fill="none" stroke="midnightblue" d="M416.84,-262.77C429.83,-254.11 444.52,-243.35 456.5,-232 478.7,-210.97 499.64,-181.93 511.2,-164.79"/>
<polygon fill="midnightblue" stroke="midnightblue" points="414.66,-260.01 408.18,-268.4 418.47,-265.88 414.66,-260.01"/>
</g>
<!-- Node11 -->
<g id="node11" class="node">
<title>Node11</title>
<g id="a_node11"><a xlink:href="_render_pass_8hpp.html" target="_top" xlink:title=" ">
<polygon fill="none" stroke="black" points="336,-201.5 336,-231.5 447,-231.5 447,-201.5 336,-201.5"/>
<text text-anchor="start" x="344" y="-219.5" font-family="Helvetica,sans-Serif" font-size="10.00">include/york/Graphics</text>
<text text-anchor="middle" x="391.5" y="-208.5" font-family="Helvetica,sans-Serif" font-size="10.00">/RenderPass.hpp</text>
</a>
</g>
</g>
<!-- Node9&#45;&gt;Node11 -->
<g id="edge16" class="edge">
<title>Node9&#45;&gt;Node11</title>
<path fill="none" stroke="midnightblue" d="M387.1,-258.4C388.07,-249.37 389.14,-239.41 389.98,-231.58"/>
<polygon fill="midnightblue" stroke="midnightblue" points="383.61,-258.08 386.02,-268.4 390.57,-258.83 383.61,-258.08"/>
</g>
<!-- Node10&#45;&gt;Node5 -->
<g id="edge15" class="edge">
<title>Node10&#45;&gt;Node5</title>
<path fill="none" stroke="midnightblue" d="M490.29,-128.9C464.46,-112.22 426.22,-87.75 392.5,-67 372.18,-54.5 348.87,-40.68 331.8,-30.67"/>
<polygon fill="midnightblue" stroke="midnightblue" points="488.59,-131.96 498.89,-134.45 492.39,-126.08 488.59,-131.96"/>
</g>
<!-- Node11&#45;&gt;Node8 -->
<g id="edge17" class="edge">
<title>Node11&#45;&gt;Node8</title>
<path fill="none" stroke="midnightblue" d="M391.5,-191.11C391.5,-182.15 391.5,-172.32 391.5,-164.58"/>
<polygon fill="midnightblue" stroke="midnightblue" points="388,-191.4 391.5,-201.4 395,-191.4 388,-191.4"/>
</g>
<!-- Node11&#45;&gt;Node10 -->
<g id="edge18" class="edge">
<title>Node11&#45;&gt;Node10</title>
<path fill="none" stroke="midnightblue" d="M428.51,-196.85C448.9,-186.58 473.81,-174.03 492.56,-164.58"/>
<polygon fill="midnightblue" stroke="midnightblue" points="426.85,-193.77 419.49,-201.4 430,-200.02 426.85,-193.77"/>
</g>
<!-- Node12&#45;&gt;Node10 -->
<g id="edge20" class="edge">
<title>Node12&#45;&gt;Node10</title>
<path fill="none" stroke="midnightblue" d="M514.8,-258.02C516.26,-230.51 518.58,-186.79 519.76,-164.52"/>
<polygon fill="midnightblue" stroke="midnightblue" points="511.28,-258.2 514.25,-268.37 518.27,-258.57 511.28,-258.2"/>
</g>
<!-- Node13&#45;&gt;Node4 -->
<g id="edge22" class="edge">
<title>Node13&#45;&gt;Node4</title>
<path fill="none" stroke="midnightblue" d="M249.78,-128.17C262.62,-118.23 277.76,-106.51 289.31,-97.58"/>
<polygon fill="midnightblue" stroke="midnightblue" points="247.49,-125.51 241.73,-134.4 251.78,-131.04 247.49,-125.51"/>
</g>
<!-- Node13&#45;&gt;Node5 -->
<g id="edge23" class="edge">
<title>Node13&#45;&gt;Node5</title>
<path fill="none" stroke="midnightblue" d="M224.9,-124.11C226.86,-106.99 231.51,-84.16 242.5,-67 252.21,-51.84 268.11,-39.37 281.75,-30.61"/>
<polygon fill="midnightblue" stroke="midnightblue" points="221.38,-124.16 223.96,-134.43 228.35,-124.79 221.38,-124.16"/>
</g>
<!-- Node14&#45;&gt;Node10 -->
<g id="edge25" class="edge">
<title>Node14&#45;&gt;Node10</title>
<path fill="none" stroke="midnightblue" d="M573.08,-194.88C561.38,-185.01 547.66,-173.43 537.18,-164.58"/>
<polygon fill="midnightblue" stroke="midnightblue" points="570.89,-197.62 580.79,-201.4 575.41,-192.27 570.89,-197.62"/>
</g>
<!-- Node15&#45;&gt;Node2 -->
<g id="edge28" class="edge">
<title>Node15&#45;&gt;Node2</title>
<path fill="none" stroke="midnightblue" d="M334.88,-460.87C328.8,-451.46 321.93,-440.83 316.6,-432.58"/>
<polygon fill="midnightblue" stroke="midnightblue" points="332.02,-462.9 340.39,-469.4 337.9,-459.1 332.02,-462.9"/>
</g>
</g>
</svg>
