<?xml version="1.0" encoding="UTF-8" standalone="no"?>
<!DOCTYPE svg PUBLIC "-//W3C//DTD SVG 1.1//EN"
 "http://www.w3.org/Graphics/SVG/1.1/DTD/svg11.dtd">
<!-- Generated by graphviz version 2.50.0 (20211204.2007)
 -->
<!-- Title: include/york/Graphics/SwapChain.hpp Pages: 1 -->
<svg width="674pt" height="543pt"
 viewBox="0.00 0.00 674.00 543.00" xmlns="http://www.w3.org/2000/svg" xmlns:xlink="http://www.w3.org/1999/xlink">
<g id="graph0" class="graph" transform="scale(1 1) rotate(0) translate(4 539)">
<title>include/york/Graphics/SwapChain.hpp</title>
<!-- Node1 -->
<g id="node1" class="node">
<title>Node1</title>
<g id="a_node1"><a xlink:title=" ">
<polygon fill="#bfbfbf" stroke="black" points="534.5,-504.5 534.5,-534.5 645.5,-534.5 645.5,-504.5 534.5,-504.5"/>
<text text-anchor="start" x="542.5" y="-522.5" font-family="Helvetica,sans-Serif" font-size="10.00">include/york/Graphics</text>
<text text-anchor="middle" x="590" y="-511.5" font-family="Helvetica,sans-Serif" font-size="10.00">/SwapChain.hpp</text>
</a>
</g>
</g>
<!-- Node2 -->
<g id="node2" class="node">
<title>Node2</title>
<g id="a_node2"><a xlink:title=" ">
<polygon fill="none" stroke="#bfbfbf" points="390.5,-168.5 390.5,-187.5 485.5,-187.5 485.5,-168.5 390.5,-168.5"/>
<text text-anchor="middle" x="438" y="-175.5" font-family="Helvetica,sans-Serif" font-size="10.00">vulkan/vulkan.hpp</text>
</a>
</g>
</g>
<!-- Node1&#45;&gt;Node2 -->
<g id="edge1" class="edge">
<title>Node1&#45;&gt;Node2</title>
<path fill="none" stroke="midnightblue" d="M597.87,-504.41C609,-483.13 628,-441.21 628,-403 628,-403 628,-403 628,-345 628,-278.76 592.52,-265.63 541,-224 522.61,-209.14 498.55,-198.26 478.31,-190.93"/>
<polygon fill="midnightblue" stroke="midnightblue" points="479.32,-187.58 468.73,-187.61 477.03,-194.19 479.32,-187.58"/>
</g>
<!-- Node3 -->
<g id="node3" class="node">
<title>Node3</title>
<g id="a_node3"><a xlink:href="_device_8hpp.html" target="_top" xlink:title=" ">
<polygon fill="none" stroke="black" points="345,-392.5 345,-411.5 411,-411.5 411,-392.5 345,-392.5"/>
<text text-anchor="middle" x="378" y="-399.5" font-family="Helvetica,sans-Serif" font-size="10.00">Device.hpp</text>
</a>
</g>
</g>
<!-- Node1&#45;&gt;Node3 -->
<g id="edge2" class="edge">
<title>Node1&#45;&gt;Node3</title>
<path fill="none" stroke="midnightblue" d="M564,-504.34C522.75,-481.86 442.85,-438.33 402.54,-416.37"/>
<polygon fill="midnightblue" stroke="midnightblue" points="404.1,-413.23 393.64,-411.52 400.75,-419.38 404.1,-413.23"/>
</g>
<!-- Node5 -->
<g id="node5" class="node">
<title>Node5</title>
<g id="a_node5"><a xlink:href="_handle_8hpp.html" target="_top" xlink:title="Contains the declarations for the Handle classes which form the basis of our Vulkan implementation.">
<polygon fill="none" stroke="black" points="329,-112.5 329,-131.5 395,-131.5 395,-112.5 329,-112.5"/>
<text text-anchor="middle" x="362" y="-119.5" font-family="Helvetica,sans-Serif" font-size="10.00">Handle.hpp</text>
</a>
</g>
</g>
<!-- Node1&#45;&gt;Node5 -->
<g id="edge32" class="edge">
<title>Node1&#45;&gt;Node5</title>
<path fill="none" stroke="midnightblue" d="M607.25,-504.43C629.67,-484.44 666,-445.49 666,-403 666,-403 666,-403 666,-233 666,-178.18 488.98,-142.97 405.1,-129.37"/>
<polygon fill="midnightblue" stroke="midnightblue" points="405.54,-125.89 395.11,-127.78 404.44,-132.8 405.54,-125.89"/>
</g>
<!-- Node18 -->
<g id="node18" class="node">
<title>Node18</title>
<g id="a_node18"><a xlink:href="_image_view_8hpp.html" target="_top" xlink:title=" ">
<polygon fill="none" stroke="black" points="513.5,-448.5 513.5,-467.5 596.5,-467.5 596.5,-448.5 513.5,-448.5"/>
<text text-anchor="middle" x="555" y="-455.5" font-family="Helvetica,sans-Serif" font-size="10.00">ImageView.hpp</text>
</a>
</g>
</g>
<!-- Node1&#45;&gt;Node18 -->
<g id="edge33" class="edge">
<title>Node1&#45;&gt;Node18</title>
<path fill="none" stroke="midnightblue" d="M581.71,-504.4C576.78,-496.02 570.49,-485.33 565.25,-476.42"/>
<polygon fill="midnightblue" stroke="midnightblue" points="568.18,-474.5 560.09,-467.66 562.15,-478.05 568.18,-474.5"/>
</g>
<!-- Node3&#45;&gt;Node2 -->
<g id="edge4" class="edge">
<title>Node3&#45;&gt;Node2</title>
<path fill="none" stroke="midnightblue" d="M394.79,-392.49C408.52,-384.72 427.48,-372.03 439,-356 454.26,-334.77 452.95,-325.83 457,-300 462.71,-263.55 451.95,-220.92 444.43,-197.24"/>
<polygon fill="midnightblue" stroke="midnightblue" points="447.66,-195.88 441.17,-187.51 441.02,-198.1 447.66,-195.88"/>
</g>
<!-- Node4 -->
<g id="node4" class="node">
<title>Node4</title>
<g id="a_node4"><a xlink:title=" ">
<polygon fill="none" stroke="#bfbfbf" points="176,-336.5 176,-355.5 216,-355.5 216,-336.5 176,-336.5"/>
<text text-anchor="middle" x="196" y="-343.5" font-family="Helvetica,sans-Serif" font-size="10.00">utility</text>
</a>
</g>
</g>
<!-- Node3&#45;&gt;Node4 -->
<g id="edge3" class="edge">
<title>Node3&#45;&gt;Node4</title>
<path fill="none" stroke="midnightblue" d="M349.16,-392.44C315.55,-382.47 260.27,-366.07 226.12,-355.94"/>
<polygon fill="midnightblue" stroke="midnightblue" points="226.83,-352.5 216.25,-353.01 224.84,-359.21 226.83,-352.5"/>
</g>
<!-- Node3&#45;&gt;Node5 -->
<g id="edge5" class="edge">
<title>Node3&#45;&gt;Node5</title>
<path fill="none" stroke="midnightblue" d="M405.85,-392.48C445.64,-378.37 514,-346.12 514,-291 514,-291 514,-291 514,-233 514,-202.77 515.05,-189.69 494,-168 470.72,-144.01 434.17,-132.81 405.42,-127.58"/>
<polygon fill="midnightblue" stroke="midnightblue" points="405.66,-124.07 395.22,-125.91 404.53,-130.98 405.66,-124.07"/>
</g>
<!-- Node10 -->
<g id="node10" class="node">
<title>Node10</title>
<g id="a_node10"><a xlink:href="_instance_8hpp.html" target="_top" xlink:title=" ">
<polygon fill="none" stroke="black" points="206.5,-224.5 206.5,-243.5 279.5,-243.5 279.5,-224.5 206.5,-224.5"/>
<text text-anchor="middle" x="243" y="-231.5" font-family="Helvetica,sans-Serif" font-size="10.00">Instance.hpp</text>
</a>
</g>
</g>
<!-- Node3&#45;&gt;Node10 -->
<g id="edge10" class="edge">
<title>Node3&#45;&gt;Node10</title>
<path fill="none" stroke="midnightblue" d="M360.52,-392.37C345.15,-384.27 322.7,-371.16 306,-356 282.77,-334.9 277.4,-327.88 263,-300 255.38,-285.25 250.1,-267.09 246.88,-253.72"/>
<polygon fill="midnightblue" stroke="midnightblue" points="250.26,-252.79 244.66,-243.79 243.43,-254.31 250.26,-252.79"/>
</g>
<!-- Node12 -->
<g id="node12" class="node">
<title>Node12</title>
<g id="a_node12"><a xlink:href="_requestable_item_8hpp.html" target="_top" xlink:title=" ">
<polygon fill="none" stroke="black" points="0,-168.5 0,-187.5 110,-187.5 110,-168.5 0,-168.5"/>
<text text-anchor="middle" x="55" y="-175.5" font-family="Helvetica,sans-Serif" font-size="10.00">RequestableItem.hpp</text>
</a>
</g>
</g>
<!-- Node3&#45;&gt;Node12 -->
<g id="edge30" class="edge">
<title>Node3&#45;&gt;Node12</title>
<path fill="none" stroke="midnightblue" d="M344.91,-401.6C300.54,-400.82 221.09,-393.68 167,-356 108.86,-315.5 74.34,-234.12 61.17,-197.54"/>
<polygon fill="midnightblue" stroke="midnightblue" points="64.35,-196.03 57.76,-187.73 57.73,-198.32 64.35,-196.03"/>
</g>
<!-- Node15 -->
<g id="node15" class="node">
<title>Node15</title>
<g id="a_node15"><a xlink:href="_physical_device_8hpp.html" target="_top" xlink:title=" ">
<polygon fill="none" stroke="black" points="326,-336.5 326,-355.5 430,-355.5 430,-336.5 326,-336.5"/>
<text text-anchor="middle" x="378" y="-343.5" font-family="Helvetica,sans-Serif" font-size="10.00">PhysicalDevice.hpp</text>
</a>
</g>
</g>
<!-- Node3&#45;&gt;Node15 -->
<g id="edge21" class="edge">
<title>Node3&#45;&gt;Node15</title>
<path fill="none" stroke="midnightblue" d="M378,-392.08C378,-385.01 378,-374.86 378,-365.99"/>
<polygon fill="midnightblue" stroke="midnightblue" points="381.5,-365.75 378,-355.75 374.5,-365.75 381.5,-365.75"/>
</g>
<!-- Node17 -->
<g id="node17" class="node">
<title>Node17</title>
<g id="a_node17"><a xlink:href="_surface_8hpp.html" target="_top" xlink:title=" ">
<polygon fill="none" stroke="black" points="272.5,-280.5 272.5,-299.5 341.5,-299.5 341.5,-280.5 272.5,-280.5"/>
<text text-anchor="middle" x="307" y="-287.5" font-family="Helvetica,sans-Serif" font-size="10.00">Surface.hpp</text>
</a>
</g>
</g>
<!-- Node3&#45;&gt;Node17 -->
<g id="edge31" class="edge">
<title>Node3&#45;&gt;Node17</title>
<path fill="none" stroke="midnightblue" d="M359.69,-392.48C345.64,-384.93 327.01,-372.55 317,-356 308.6,-342.11 306.45,-323.6 306.19,-309.88"/>
<polygon fill="midnightblue" stroke="midnightblue" points="309.69,-309.74 306.33,-299.7 302.69,-309.65 309.69,-309.74"/>
</g>
<!-- Node6 -->
<g id="node6" class="node">
<title>Node6</title>
<g id="a_node6"><a xlink:title=" ">
<polygon fill="none" stroke="#bfbfbf" points="182,-56.5 182,-75.5 226,-75.5 226,-56.5 182,-56.5"/>
<text text-anchor="middle" x="204" y="-63.5" font-family="Helvetica,sans-Serif" font-size="10.00">vector</text>
</a>
</g>
</g>
<!-- Node5&#45;&gt;Node6 -->
<g id="edge6" class="edge">
<title>Node5&#45;&gt;Node6</title>
<path fill="none" stroke="midnightblue" d="M336.96,-112.44C309.52,-103.07 265.44,-88 235.63,-77.81"/>
<polygon fill="midnightblue" stroke="midnightblue" points="236.71,-74.48 226.11,-74.56 234.44,-81.1 236.71,-74.48"/>
</g>
<!-- Node7 -->
<g id="node7" class="node">
<title>Node7</title>
<g id="a_node7"><a xlink:title=" ">
<polygon fill="none" stroke="#bfbfbf" points="382.5,-56.5 382.5,-75.5 441.5,-75.5 441.5,-56.5 382.5,-56.5"/>
<text text-anchor="middle" x="412" y="-63.5" font-family="Helvetica,sans-Serif" font-size="10.00">functional</text>
</a>
</g>
</g>
<!-- Node5&#45;&gt;Node7 -->
<g id="edge7" class="edge">
<title>Node5&#45;&gt;Node7</title>
<path fill="none" stroke="midnightblue" d="M370.26,-112.08C377.46,-104.3 388.11,-92.8 396.85,-83.37"/>
<polygon fill="midnightblue" stroke="midnightblue" points="399.67,-85.47 403.9,-75.75 394.53,-80.71 399.67,-85.47"/>
</g>
<!-- Node8 -->
<g id="node8" class="node">
<title>Node8</title>
<g id="a_node8"><a xlink:href="_identifiable_8hpp.html" target="_top" xlink:title=" ">
<polygon fill="none" stroke="black" points="260,-56.5 260,-75.5 364,-75.5 364,-56.5 260,-56.5"/>
<text text-anchor="middle" x="312" y="-63.5" font-family="Helvetica,sans-Serif" font-size="10.00">york/Identifiable.hpp</text>
</a>
</g>
</g>
<!-- Node5&#45;&gt;Node8 -->
<g id="edge8" class="edge">
<title>Node5&#45;&gt;Node8</title>
<path fill="none" stroke="midnightblue" d="M353.74,-112.08C346.54,-104.3 335.89,-92.8 327.15,-83.37"/>
<polygon fill="midnightblue" stroke="midnightblue" points="329.47,-80.71 320.1,-75.75 324.33,-85.47 329.47,-80.71"/>
</g>
<!-- Node9 -->
<g id="node9" class="node">
<title>Node9</title>
<g id="a_node9"><a xlink:title=" ">
<polygon fill="none" stroke="#bfbfbf" points="289,-0.5 289,-19.5 335,-19.5 335,-0.5 289,-0.5"/>
<text text-anchor="middle" x="312" y="-7.5" font-family="Helvetica,sans-Serif" font-size="10.00">cstdint</text>
</a>
</g>
</g>
<!-- Node8&#45;&gt;Node9 -->
<g id="edge9" class="edge">
<title>Node8&#45;&gt;Node9</title>
<path fill="none" stroke="midnightblue" d="M312,-56.08C312,-49.01 312,-38.86 312,-29.99"/>
<polygon fill="midnightblue" stroke="midnightblue" points="315.5,-29.75 312,-19.75 308.5,-29.75 315.5,-29.75"/>
</g>
<!-- Node10&#45;&gt;Node2 -->
<g id="edge13" class="edge">
<title>Node10&#45;&gt;Node2</title>
<path fill="none" stroke="midnightblue" d="M273.9,-224.44C307.27,-215.2 360.59,-200.44 397.35,-190.26"/>
<polygon fill="midnightblue" stroke="midnightblue" points="398.54,-193.56 407.25,-187.52 396.67,-186.81 398.54,-193.56"/>
</g>
<!-- Node10&#45;&gt;Node5 -->
<g id="edge14" class="edge">
<title>Node10&#45;&gt;Node5</title>
<path fill="none" stroke="midnightblue" d="M256.22,-224.42C269,-215.86 288.63,-202 304,-188 320.69,-172.79 337.64,-153.22 348.87,-139.54"/>
<polygon fill="midnightblue" stroke="midnightblue" points="351.8,-141.48 355.36,-131.51 346.35,-137.08 351.8,-141.48"/>
</g>
<!-- Node10&#45;&gt;Node6 -->
<g id="edge12" class="edge">
<title>Node10&#45;&gt;Node6</title>
<path fill="none" stroke="midnightblue" d="M228.64,-224.49C215.91,-216.37 197.45,-203.17 185,-188 167.35,-166.49 163.39,-159.08 157,-132 154.96,-123.35 153.51,-120.17 157,-112 162.15,-99.95 172.28,-89.58 181.83,-81.84"/>
<polygon fill="midnightblue" stroke="midnightblue" points="184.04,-84.55 189.92,-75.74 179.83,-78.96 184.04,-84.55"/>
</g>
<!-- Node11 -->
<g id="node11" class="node">
<title>Node11</title>
<g id="a_node11"><a xlink:title=" ">
<polygon fill="none" stroke="#bfbfbf" points="166.5,-112.5 166.5,-131.5 207.5,-131.5 207.5,-112.5 166.5,-112.5"/>
<text text-anchor="middle" x="187" y="-119.5" font-family="Helvetica,sans-Serif" font-size="10.00">string</text>
</a>
</g>
</g>
<!-- Node10&#45;&gt;Node11 -->
<g id="edge11" class="edge">
<title>Node10&#45;&gt;Node11</title>
<path fill="none" stroke="midnightblue" d="M229.56,-224.42C218.31,-216.44 202.86,-203.48 195,-188 187.68,-173.59 186.02,-155.13 186,-141.57"/>
<polygon fill="midnightblue" stroke="midnightblue" points="189.5,-141.62 186.27,-131.53 182.5,-141.43 189.5,-141.62"/>
</g>
<!-- Node10&#45;&gt;Node12 -->
<g id="edge15" class="edge">
<title>Node10&#45;&gt;Node12</title>
<path fill="none" stroke="midnightblue" d="M213.21,-224.44C181.17,-215.24 130.07,-200.56 94.65,-190.39"/>
<polygon fill="midnightblue" stroke="midnightblue" points="95.23,-186.91 84.65,-187.52 93.29,-193.64 95.23,-186.91"/>
</g>
<!-- Node13 -->
<g id="node13" class="node">
<title>Node13</title>
<g id="a_node13"><a xlink:href="_window_8hpp.html" target="_top" xlink:title=" ">
<polygon fill="none" stroke="black" points="204.5,-168.5 204.5,-187.5 295.5,-187.5 295.5,-168.5 204.5,-168.5"/>
<text text-anchor="middle" x="250" y="-175.5" font-family="Helvetica,sans-Serif" font-size="10.00">york/Window.hpp</text>
</a>
</g>
</g>
<!-- Node10&#45;&gt;Node13 -->
<g id="edge17" class="edge">
<title>Node10&#45;&gt;Node13</title>
<path fill="none" stroke="midnightblue" d="M244.16,-224.08C245.08,-216.93 246.42,-206.64 247.58,-197.69"/>
<polygon fill="midnightblue" stroke="midnightblue" points="251.05,-198.12 248.87,-187.75 244.11,-197.22 251.05,-198.12"/>
</g>
<!-- Node12&#45;&gt;Node11 -->
<g id="edge16" class="edge">
<title>Node12&#45;&gt;Node11</title>
<path fill="none" stroke="midnightblue" d="M75.92,-168.44C97.74,-159.52 132.15,-145.44 156.89,-135.32"/>
<polygon fill="midnightblue" stroke="midnightblue" points="158.25,-138.54 166.18,-131.52 155.6,-132.06 158.25,-138.54"/>
</g>
<!-- Node13&#45;&gt;Node5 -->
<g id="edge20" class="edge">
<title>Node13&#45;&gt;Node5</title>
<path fill="none" stroke="midnightblue" d="M267.99,-168.32C286.04,-159.62 314.05,-146.12 334.8,-136.11"/>
<polygon fill="midnightblue" stroke="midnightblue" points="336.56,-139.15 344.05,-131.65 333.52,-132.84 336.56,-139.15"/>
</g>
<!-- Node13&#45;&gt;Node11 -->
<g id="edge18" class="edge">
<title>Node13&#45;&gt;Node11</title>
<path fill="none" stroke="midnightblue" d="M239.88,-168.32C230.47,-160.26 216.26,-148.08 204.93,-138.37"/>
<polygon fill="midnightblue" stroke="midnightblue" points="207.18,-135.68 197.31,-131.83 202.62,-141 207.18,-135.68"/>
</g>
<!-- Node14 -->
<g id="node14" class="node">
<title>Node14</title>
<g id="a_node14"><a xlink:title=" ">
<polygon fill="none" stroke="#bfbfbf" points="225.5,-112.5 225.5,-131.5 298.5,-131.5 298.5,-112.5 225.5,-112.5"/>
<text text-anchor="middle" x="262" y="-119.5" font-family="Helvetica,sans-Serif" font-size="10.00">SDL_video.h</text>
</a>
</g>
</g>
<!-- Node13&#45;&gt;Node14 -->
<g id="edge19" class="edge">
<title>Node13&#45;&gt;Node14</title>
<path fill="none" stroke="midnightblue" d="M251.98,-168.08C253.57,-160.93 255.86,-150.64 257.85,-141.69"/>
<polygon fill="midnightblue" stroke="midnightblue" points="261.3,-142.27 260.06,-131.75 254.47,-140.75 261.3,-142.27"/>
</g>
<!-- Node15&#45;&gt;Node2 -->
<g id="edge23" class="edge">
<title>Node15&#45;&gt;Node2</title>
<path fill="none" stroke="midnightblue" d="M378.67,-336.4C379.83,-323.79 382.72,-299.62 389,-280 398.86,-249.19 416.53,-215.88 427.74,-196.26"/>
<polygon fill="midnightblue" stroke="midnightblue" points="430.79,-197.97 432.8,-187.57 424.74,-194.45 430.79,-197.97"/>
</g>
<!-- Node15&#45;&gt;Node12 -->
<g id="edge29" class="edge">
<title>Node15&#45;&gt;Node12</title>
<path fill="none" stroke="midnightblue" d="M352.85,-336.42C329.23,-328.07 293.12,-314.55 263,-300 192.6,-266 113.97,-217.05 76.77,-193.17"/>
<polygon fill="midnightblue" stroke="midnightblue" points="78.54,-190.15 68.23,-187.67 74.74,-196.03 78.54,-190.15"/>
</g>
<!-- Node16 -->
<g id="node16" class="node">
<title>Node16</title>
<g id="a_node16"><a xlink:title=" ">
<polygon fill="none" stroke="#bfbfbf" points="398,-280.5 398,-299.5 448,-299.5 448,-280.5 398,-280.5"/>
<text text-anchor="middle" x="423" y="-287.5" font-family="Helvetica,sans-Serif" font-size="10.00">optional</text>
</a>
</g>
</g>
<!-- Node15&#45;&gt;Node16 -->
<g id="edge22" class="edge">
<title>Node15&#45;&gt;Node16</title>
<path fill="none" stroke="midnightblue" d="M385.43,-336.08C391.85,-328.38 401.31,-317.03 409.12,-307.65"/>
<polygon fill="midnightblue" stroke="midnightblue" points="411.99,-309.67 415.71,-299.75 406.62,-305.19 411.99,-309.67"/>
</g>
<!-- Node15&#45;&gt;Node17 -->
<g id="edge24" class="edge">
<title>Node15&#45;&gt;Node17</title>
<path fill="none" stroke="midnightblue" d="M366.59,-336.32C355.89,-328.18 339.66,-315.84 326.84,-306.09"/>
<polygon fill="midnightblue" stroke="midnightblue" points="328.69,-303.1 318.61,-299.83 324.46,-308.67 328.69,-303.1"/>
</g>
<!-- Node17&#45;&gt;Node2 -->
<g id="edge25" class="edge">
<title>Node17&#45;&gt;Node2</title>
<path fill="none" stroke="midnightblue" d="M319.7,-280.49C332.49,-271.76 352.61,-257.57 369,-244 388.07,-228.2 408.56,-208.52 422.21,-194.98"/>
<polygon fill="midnightblue" stroke="midnightblue" points="424.81,-197.34 429.4,-187.79 419.85,-192.39 424.81,-197.34"/>
</g>
<!-- Node17&#45;&gt;Node5 -->
<g id="edge27" class="edge">
<title>Node17&#45;&gt;Node5</title>
<path fill="none" stroke="midnightblue" d="M309.96,-280.08C318.65,-253.83 344.26,-176.55 356,-141.12"/>
<polygon fill="midnightblue" stroke="midnightblue" points="359.34,-142.16 359.16,-131.57 352.69,-139.96 359.34,-142.16"/>
</g>
<!-- Node17&#45;&gt;Node10 -->
<g id="edge28" class="edge">
<title>Node17&#45;&gt;Node10</title>
<path fill="none" stroke="midnightblue" d="M296.72,-280.32C287.16,-272.26 272.72,-260.08 261.22,-250.37"/>
<polygon fill="midnightblue" stroke="midnightblue" points="263.37,-247.61 253.47,-243.83 258.86,-252.96 263.37,-247.61"/>
</g>
<!-- Node17&#45;&gt;Node13 -->
<g id="edge26" class="edge">
<title>Node17&#45;&gt;Node13</title>
<path fill="none" stroke="midnightblue" d="M305.62,-280.14C303.34,-267.2 298.01,-242.64 288,-224 282.34,-213.46 273.92,-203.15 266.44,-195.07"/>
<polygon fill="midnightblue" stroke="midnightblue" points="268.88,-192.56 259.41,-187.8 263.84,-197.42 268.88,-192.56"/>
</g>
<!-- Node18&#45;&gt;Node2 -->
<g id="edge36" class="edge">
<title>Node18&#45;&gt;Node2</title>
<path fill="none" stroke="midnightblue" d="M554.61,-448.44C553.79,-429.94 552,-384.83 552,-347 552,-347 552,-347 552,-289 552,-242.11 501.45,-208.89 467.67,-191.93"/>
<polygon fill="midnightblue" stroke="midnightblue" points="469.17,-188.77 458.64,-187.58 466.13,-195.07 469.17,-188.77"/>
</g>
<!-- Node18&#45;&gt;Node3 -->
<g id="edge35" class="edge">
<title>Node18&#45;&gt;Node3</title>
<path fill="none" stroke="midnightblue" d="M526.95,-448.44C496.92,-439.28 449.09,-424.69 415.76,-414.52"/>
<polygon fill="midnightblue" stroke="midnightblue" points="416.5,-411.09 405.91,-411.52 414.46,-417.78 416.5,-411.09"/>
</g>
<!-- Node18&#45;&gt;Node5 -->
<g id="edge34" class="edge">
<title>Node18&#45;&gt;Node5</title>
<path fill="none" stroke="midnightblue" d="M558.09,-448.17C561.05,-439.2 565.32,-424.83 567,-412 581.39,-302.15 599.47,-240.85 516,-168 485.19,-141.11 439.07,-130.26 405.33,-125.9"/>
<polygon fill="midnightblue" stroke="midnightblue" points="405.63,-122.41 395.29,-124.74 404.83,-129.36 405.63,-122.41"/>
</g>
</g>
</svg>
