<?xml version="1.0" encoding="UTF-8" standalone="no"?>
<!DOCTYPE svg PUBLIC "-//W3C//DTD SVG 1.1//EN"
 "http://www.w3.org/Graphics/SVG/1.1/DTD/svg11.dtd">
<!-- Generated by graphviz version 2.50.0 (20211204.2007)
 -->
<!-- Title: include/york/Graphics/SwapChain.hpp Pages: 1 -->
<svg width="704pt" height="487pt"
 viewBox="0.00 0.00 704.00 487.00" xmlns="http://www.w3.org/2000/svg" xmlns:xlink="http://www.w3.org/1999/xlink">
<g id="graph0" class="graph" transform="scale(1 1) rotate(0) translate(4 483)">
<title>include/york/Graphics/SwapChain.hpp</title>
<!-- Node1 -->
<g id="node1" class="node">
<title>Node1</title>
<g id="a_node1"><a xlink:title=" ">
<polygon fill="#bfbfbf" stroke="black" points="526.5,-448.5 526.5,-478.5 637.5,-478.5 637.5,-448.5 526.5,-448.5"/>
<text text-anchor="start" x="534.5" y="-466.5" font-family="Helvetica,sans-Serif" font-size="10.00">include/york/Graphics</text>
<text text-anchor="middle" x="582" y="-455.5" font-family="Helvetica,sans-Serif" font-size="10.00">/SwapChain.hpp</text>
</a>
</g>
</g>
<!-- Node2 -->
<g id="node2" class="node">
<title>Node2</title>
<g id="a_node2"><a xlink:title=" ">
<polygon fill="none" stroke="#bfbfbf" points="458.5,-168.5 458.5,-187.5 553.5,-187.5 553.5,-168.5 458.5,-168.5"/>
<text text-anchor="middle" x="506" y="-175.5" font-family="Helvetica,sans-Serif" font-size="10.00">vulkan/vulkan.hpp</text>
</a>
</g>
</g>
<!-- Node1&#45;&gt;Node2 -->
<g id="edge1" class="edge">
<title>Node1&#45;&gt;Node2</title>
<path fill="none" stroke="midnightblue" d="M574.13,-448.41C563,-427.13 544,-385.21 544,-347 544,-347 544,-347 544,-289 544,-254.81 527.4,-217.76 516.14,-196.57"/>
<polygon fill="midnightblue" stroke="midnightblue" points="519.18,-194.83 511.28,-187.77 513.05,-198.22 519.18,-194.83"/>
</g>
<!-- Node3 -->
<g id="node3" class="node">
<title>Node3</title>
<g id="a_node3"><a xlink:href="_device_8hpp.html" target="_top" xlink:title=" ">
<polygon fill="none" stroke="black" points="415,-336.5 415,-355.5 481,-355.5 481,-336.5 415,-336.5"/>
<text text-anchor="middle" x="448" y="-343.5" font-family="Helvetica,sans-Serif" font-size="10.00">Device.hpp</text>
</a>
</g>
</g>
<!-- Node1&#45;&gt;Node3 -->
<g id="edge2" class="edge">
<title>Node1&#45;&gt;Node3</title>
<path fill="none" stroke="midnightblue" d="M565.57,-448.34C540.22,-426.49 491.78,-384.73 465.69,-362.24"/>
<polygon fill="midnightblue" stroke="midnightblue" points="467.92,-359.55 458.06,-355.67 463.35,-364.85 467.92,-359.55"/>
</g>
<!-- Node5 -->
<g id="node5" class="node">
<title>Node5</title>
<g id="a_node5"><a xlink:href="_handle_8hpp.html" target="_top" xlink:title="Contains the declarations for the Handle classes which form the basis of our Vulkan implementation.">
<polygon fill="none" stroke="black" points="397,-112.5 397,-131.5 463,-131.5 463,-112.5 397,-112.5"/>
<text text-anchor="middle" x="430" y="-119.5" font-family="Helvetica,sans-Serif" font-size="10.00">Handle.hpp</text>
</a>
</g>
</g>
<!-- Node1&#45;&gt;Node5 -->
<g id="edge32" class="edge">
<title>Node1&#45;&gt;Node5</title>
<path fill="none" stroke="midnightblue" d="M616.04,-448.33C633.12,-439.85 653.08,-427.64 667,-412 688.03,-388.37 696,-378.63 696,-347 696,-347 696,-347 696,-233 696,-137.78 548.64,-123.37 473.28,-122.22"/>
<polygon fill="midnightblue" stroke="midnightblue" points="473.18,-118.72 463.15,-122.14 473.12,-125.72 473.18,-118.72"/>
</g>
<!-- Node18 -->
<g id="node18" class="node">
<title>Node18</title>
<g id="a_node18"><a xlink:href="_image_view_8hpp.html" target="_top" xlink:title=" ">
<polygon fill="none" stroke="black" points="575.5,-392.5 575.5,-411.5 658.5,-411.5 658.5,-392.5 575.5,-392.5"/>
<text text-anchor="middle" x="617" y="-399.5" font-family="Helvetica,sans-Serif" font-size="10.00">ImageView.hpp</text>
</a>
</g>
</g>
<!-- Node1&#45;&gt;Node18 -->
<g id="edge33" class="edge">
<title>Node1&#45;&gt;Node18</title>
<path fill="none" stroke="midnightblue" d="M590.29,-448.4C595.22,-440.02 601.51,-429.33 606.75,-420.42"/>
<polygon fill="midnightblue" stroke="midnightblue" points="609.85,-422.05 611.91,-411.66 603.82,-418.5 609.85,-422.05"/>
</g>
<!-- Node3&#45;&gt;Node2 -->
<g id="edge4" class="edge">
<title>Node3&#45;&gt;Node2</title>
<path fill="none" stroke="midnightblue" d="M450.35,-336.09C453.72,-323.5 460.29,-299.82 467,-280 476.96,-250.57 490.32,-217.04 498.53,-196.97"/>
<polygon fill="midnightblue" stroke="midnightblue" points="501.84,-198.14 502.41,-187.56 495.37,-195.47 501.84,-198.14"/>
</g>
<!-- Node4 -->
<g id="node4" class="node">
<title>Node4</title>
<g id="a_node4"><a xlink:title=" ">
<polygon fill="none" stroke="#bfbfbf" points="476,-280.5 476,-299.5 516,-299.5 516,-280.5 476,-280.5"/>
<text text-anchor="middle" x="496" y="-287.5" font-family="Helvetica,sans-Serif" font-size="10.00">utility</text>
</a>
</g>
</g>
<!-- Node3&#45;&gt;Node4 -->
<g id="edge3" class="edge">
<title>Node3&#45;&gt;Node4</title>
<path fill="none" stroke="midnightblue" d="M455.93,-336.08C462.85,-328.3 473.07,-316.8 481.45,-307.37"/>
<polygon fill="midnightblue" stroke="midnightblue" points="484.19,-309.55 488.22,-299.75 478.96,-304.9 484.19,-309.55"/>
</g>
<!-- Node3&#45;&gt;Node5 -->
<g id="edge5" class="edge">
<title>Node3&#45;&gt;Node5</title>
<path fill="none" stroke="midnightblue" d="M471.62,-336.5C488.68,-329.23 511.07,-317.21 525,-300 563.33,-252.64 597.46,-217.55 562,-168 542.02,-140.08 503.68,-129.29 473.45,-125.21"/>
<polygon fill="midnightblue" stroke="midnightblue" points="473.47,-121.69 463.14,-124.03 472.68,-128.64 473.47,-121.69"/>
</g>
<!-- Node10 -->
<g id="node10" class="node">
<title>Node10</title>
<g id="a_node10"><a xlink:href="_instance_8hpp.html" target="_top" xlink:title=" ">
<polygon fill="none" stroke="black" points="285.5,-224.5 285.5,-243.5 358.5,-243.5 358.5,-224.5 285.5,-224.5"/>
<text text-anchor="middle" x="322" y="-231.5" font-family="Helvetica,sans-Serif" font-size="10.00">Instance.hpp</text>
</a>
</g>
</g>
<!-- Node3&#45;&gt;Node10 -->
<g id="edge10" class="edge">
<title>Node3&#45;&gt;Node10</title>
<path fill="none" stroke="midnightblue" d="M414.58,-338.88C390.89,-332.86 360.05,-321.35 341,-300 329.64,-287.26 325.05,-268.07 323.21,-253.83"/>
<polygon fill="midnightblue" stroke="midnightblue" points="326.68,-253.33 322.25,-243.7 319.71,-253.99 326.68,-253.33"/>
</g>
<!-- Node12 -->
<g id="node12" class="node">
<title>Node12</title>
<g id="a_node12"><a xlink:href="_requestable_item_8hpp.html" target="_top" xlink:title=" ">
<polygon fill="none" stroke="black" points="0,-168.5 0,-187.5 110,-187.5 110,-168.5 0,-168.5"/>
<text text-anchor="middle" x="55" y="-175.5" font-family="Helvetica,sans-Serif" font-size="10.00">RequestableItem.hpp</text>
</a>
</g>
</g>
<!-- Node3&#45;&gt;Node12 -->
<g id="edge26" class="edge">
<title>Node3&#45;&gt;Node12</title>
<path fill="none" stroke="midnightblue" d="M414.82,-337.23C381.59,-329.13 329.2,-315.47 285,-300 225.24,-279.08 209.79,-273.94 154,-244 125.38,-228.64 94.38,-207.49 74.84,-193.54"/>
<polygon fill="midnightblue" stroke="midnightblue" points="76.63,-190.51 66.47,-187.5 72.54,-196.19 76.63,-190.51"/>
</g>
<!-- Node15 -->
<g id="node15" class="node">
<title>Node15</title>
<g id="a_node15"><a xlink:href="_physical_device_8hpp.html" target="_top" xlink:title=" ">
<polygon fill="none" stroke="black" points="163,-224.5 163,-243.5 267,-243.5 267,-224.5 163,-224.5"/>
<text text-anchor="middle" x="215" y="-231.5" font-family="Helvetica,sans-Serif" font-size="10.00">PhysicalDevice.hpp</text>
</a>
</g>
</g>
<!-- Node3&#45;&gt;Node15 -->
<g id="edge21" class="edge">
<title>Node3&#45;&gt;Node15</title>
<path fill="none" stroke="midnightblue" d="M420.79,-336.5C395.69,-328.3 357.64,-314.95 326,-300 293.67,-284.72 258.36,-263.12 236.44,-249.09"/>
<polygon fill="midnightblue" stroke="midnightblue" points="238.22,-246.07 227.92,-243.58 234.42,-251.95 238.22,-246.07"/>
</g>
<!-- Node17 -->
<g id="node17" class="node">
<title>Node17</title>
<g id="a_node17"><a xlink:href="_surface_8hpp.html" target="_top" xlink:title=" ">
<polygon fill="none" stroke="black" points="350.5,-280.5 350.5,-299.5 419.5,-299.5 419.5,-280.5 350.5,-280.5"/>
<text text-anchor="middle" x="385" y="-287.5" font-family="Helvetica,sans-Serif" font-size="10.00">Surface.hpp</text>
</a>
</g>
</g>
<!-- Node3&#45;&gt;Node17 -->
<g id="edge27" class="edge">
<title>Node3&#45;&gt;Node17</title>
<path fill="none" stroke="midnightblue" d="M437.88,-336.32C428.47,-328.26 414.26,-316.08 402.93,-306.37"/>
<polygon fill="midnightblue" stroke="midnightblue" points="405.18,-303.68 395.31,-299.83 400.62,-309 405.18,-303.68"/>
</g>
<!-- Node6 -->
<g id="node6" class="node">
<title>Node6</title>
<g id="a_node6"><a xlink:title=" ">
<polygon fill="none" stroke="#bfbfbf" points="335,-56.5 335,-75.5 379,-75.5 379,-56.5 335,-56.5"/>
<text text-anchor="middle" x="357" y="-63.5" font-family="Helvetica,sans-Serif" font-size="10.00">vector</text>
</a>
</g>
</g>
<!-- Node5&#45;&gt;Node6 -->
<g id="edge6" class="edge">
<title>Node5&#45;&gt;Node6</title>
<path fill="none" stroke="midnightblue" d="M418.27,-112.32C407.16,-104.11 390.26,-91.6 377.02,-81.81"/>
<polygon fill="midnightblue" stroke="midnightblue" points="379.06,-78.97 368.94,-75.83 374.9,-84.59 379.06,-78.97"/>
</g>
<!-- Node7 -->
<g id="node7" class="node">
<title>Node7</title>
<g id="a_node7"><a xlink:title=" ">
<polygon fill="none" stroke="#bfbfbf" points="398.5,-56.5 398.5,-75.5 457.5,-75.5 457.5,-56.5 398.5,-56.5"/>
<text text-anchor="middle" x="428" y="-63.5" font-family="Helvetica,sans-Serif" font-size="10.00">functional</text>
</a>
</g>
</g>
<!-- Node5&#45;&gt;Node7 -->
<g id="edge7" class="edge">
<title>Node5&#45;&gt;Node7</title>
<path fill="none" stroke="midnightblue" d="M429.67,-112.08C429.41,-105.01 429.03,-94.86 428.7,-85.99"/>
<polygon fill="midnightblue" stroke="midnightblue" points="432.19,-85.61 428.32,-75.75 425.2,-85.87 432.19,-85.61"/>
</g>
<!-- Node8 -->
<g id="node8" class="node">
<title>Node8</title>
<g id="a_node8"><a xlink:href="_identifiable_8hpp.html" target="_top" xlink:title=" ">
<polygon fill="none" stroke="black" points="476,-56.5 476,-75.5 580,-75.5 580,-56.5 476,-56.5"/>
<text text-anchor="middle" x="528" y="-63.5" font-family="Helvetica,sans-Serif" font-size="10.00">york/Identifiable.hpp</text>
</a>
</g>
</g>
<!-- Node5&#45;&gt;Node8 -->
<g id="edge8" class="edge">
<title>Node5&#45;&gt;Node8</title>
<path fill="none" stroke="midnightblue" d="M445.75,-112.32C461.32,-103.74 485.38,-90.49 503.46,-80.52"/>
<polygon fill="midnightblue" stroke="midnightblue" points="505.22,-83.55 512.29,-75.65 501.85,-77.42 505.22,-83.55"/>
</g>
<!-- Node9 -->
<g id="node9" class="node">
<title>Node9</title>
<g id="a_node9"><a xlink:title=" ">
<polygon fill="none" stroke="#bfbfbf" points="505,-0.5 505,-19.5 551,-19.5 551,-0.5 505,-0.5"/>
<text text-anchor="middle" x="528" y="-7.5" font-family="Helvetica,sans-Serif" font-size="10.00">cstdint</text>
</a>
</g>
</g>
<!-- Node8&#45;&gt;Node9 -->
<g id="edge9" class="edge">
<title>Node8&#45;&gt;Node9</title>
<path fill="none" stroke="midnightblue" d="M528,-56.08C528,-49.01 528,-38.86 528,-29.99"/>
<polygon fill="midnightblue" stroke="midnightblue" points="531.5,-29.75 528,-19.75 524.5,-29.75 531.5,-29.75"/>
</g>
<!-- Node10&#45;&gt;Node2 -->
<g id="edge13" class="edge">
<title>Node10&#45;&gt;Node2</title>
<path fill="none" stroke="midnightblue" d="M351.16,-224.44C382.51,-215.24 432.53,-200.56 467.2,-190.39"/>
<polygon fill="midnightblue" stroke="midnightblue" points="468.37,-193.69 476.98,-187.52 466.4,-186.97 468.37,-193.69"/>
</g>
<!-- Node10&#45;&gt;Node5 -->
<g id="edge14" class="edge">
<title>Node10&#45;&gt;Node5</title>
<path fill="none" stroke="midnightblue" d="M330.91,-224.46C340.24,-215.48 355.28,-200.88 368,-188 384.33,-171.46 402.67,-152.14 415.13,-138.89"/>
<polygon fill="midnightblue" stroke="midnightblue" points="417.78,-141.19 422.07,-131.5 412.67,-136.4 417.78,-141.19"/>
</g>
<!-- Node10&#45;&gt;Node6 -->
<g id="edge12" class="edge">
<title>Node10&#45;&gt;Node6</title>
<path fill="none" stroke="midnightblue" d="M324.49,-224.42C327.06,-215.4 331.09,-200.77 334,-188 342.21,-151.99 349.81,-109.49 353.89,-85.65"/>
<polygon fill="midnightblue" stroke="midnightblue" points="357.38,-86 355.59,-75.55 350.48,-84.83 357.38,-86"/>
</g>
<!-- Node11 -->
<g id="node11" class="node">
<title>Node11</title>
<g id="a_node11"><a xlink:title=" ">
<polygon fill="none" stroke="#bfbfbf" points="184.5,-112.5 184.5,-131.5 225.5,-131.5 225.5,-112.5 184.5,-112.5"/>
<text text-anchor="middle" x="205" y="-119.5" font-family="Helvetica,sans-Serif" font-size="10.00">string</text>
</a>
</g>
</g>
<!-- Node10&#45;&gt;Node11 -->
<g id="edge11" class="edge">
<title>Node10&#45;&gt;Node11</title>
<path fill="none" stroke="midnightblue" d="M286.64,-224.4C266.01,-217.68 240.99,-206.32 225,-188 213.73,-175.08 208.81,-155.91 206.66,-141.73"/>
<polygon fill="midnightblue" stroke="midnightblue" points="210.12,-141.17 205.47,-131.65 203.17,-141.99 210.12,-141.17"/>
</g>
<!-- Node10&#45;&gt;Node12 -->
<g id="edge15" class="edge">
<title>Node10&#45;&gt;Node12</title>
<path fill="none" stroke="midnightblue" d="M285.43,-225.6C239.37,-216.29 159.91,-200.22 107.4,-189.6"/>
<polygon fill="midnightblue" stroke="midnightblue" points="107.77,-186.1 97.28,-187.55 106.39,-192.96 107.77,-186.1"/>
</g>
<!-- Node13 -->
<g id="node13" class="node">
<title>Node13</title>
<g id="a_node13"><a xlink:href="_window_8hpp.html" target="_top" xlink:title=" ">
<polygon fill="none" stroke="black" points="234.5,-168.5 234.5,-187.5 325.5,-187.5 325.5,-168.5 234.5,-168.5"/>
<text text-anchor="middle" x="280" y="-175.5" font-family="Helvetica,sans-Serif" font-size="10.00">york/Window.hpp</text>
</a>
</g>
</g>
<!-- Node10&#45;&gt;Node13 -->
<g id="edge17" class="edge">
<title>Node10&#45;&gt;Node13</title>
<path fill="none" stroke="midnightblue" d="M315.06,-224.08C309.07,-216.38 300.25,-205.03 292.95,-195.65"/>
<polygon fill="midnightblue" stroke="midnightblue" points="295.71,-193.5 286.81,-187.75 290.18,-197.79 295.71,-193.5"/>
</g>
<!-- Node12&#45;&gt;Node11 -->
<g id="edge16" class="edge">
<title>Node12&#45;&gt;Node11</title>
<path fill="none" stroke="midnightblue" d="M78.77,-168.44C104.67,-159.12 146.18,-144.18 174.47,-133.99"/>
<polygon fill="midnightblue" stroke="midnightblue" points="176.02,-137.15 184.24,-130.47 173.65,-130.57 176.02,-137.15"/>
</g>
<!-- Node13&#45;&gt;Node5 -->
<g id="edge20" class="edge">
<title>Node13&#45;&gt;Node5</title>
<path fill="none" stroke="midnightblue" d="M303.77,-168.44C328.89,-159.4 368.71,-145.06 396.9,-134.92"/>
<polygon fill="midnightblue" stroke="midnightblue" points="398.12,-138.2 406.34,-131.52 395.75,-131.61 398.12,-138.2"/>
</g>
<!-- Node13&#45;&gt;Node11 -->
<g id="edge18" class="edge">
<title>Node13&#45;&gt;Node11</title>
<path fill="none" stroke="midnightblue" d="M267.95,-168.32C256.54,-160.11 239.17,-147.6 225.57,-137.81"/>
<polygon fill="midnightblue" stroke="midnightblue" points="227.43,-134.84 217.27,-131.83 223.34,-140.52 227.43,-134.84"/>
</g>
<!-- Node14 -->
<g id="node14" class="node">
<title>Node14</title>
<g id="a_node14"><a xlink:title=" ">
<polygon fill="none" stroke="#bfbfbf" points="243.5,-112.5 243.5,-131.5 316.5,-131.5 316.5,-112.5 243.5,-112.5"/>
<text text-anchor="middle" x="280" y="-119.5" font-family="Helvetica,sans-Serif" font-size="10.00">SDL_video.h</text>
</a>
</g>
</g>
<!-- Node13&#45;&gt;Node14 -->
<g id="edge19" class="edge">
<title>Node13&#45;&gt;Node14</title>
<path fill="none" stroke="midnightblue" d="M280,-168.08C280,-161.01 280,-150.86 280,-141.99"/>
<polygon fill="midnightblue" stroke="midnightblue" points="283.5,-141.75 280,-131.75 276.5,-141.75 283.5,-141.75"/>
</g>
<!-- Node15&#45;&gt;Node2 -->
<g id="edge23" class="edge">
<title>Node15&#45;&gt;Node2</title>
<path fill="none" stroke="midnightblue" d="M261.11,-224.44C312.41,-214.92 395.27,-199.55 450.19,-189.36"/>
<polygon fill="midnightblue" stroke="midnightblue" points="450.91,-192.78 460.11,-187.52 449.64,-185.9 450.91,-192.78"/>
</g>
<!-- Node15&#45;&gt;Node12 -->
<g id="edge24" class="edge">
<title>Node15&#45;&gt;Node12</title>
<path fill="none" stroke="midnightblue" d="M189.65,-224.44C162.73,-215.36 120,-200.94 89.91,-190.78"/>
<polygon fill="midnightblue" stroke="midnightblue" points="90.83,-187.4 80.23,-187.52 88.59,-194.03 90.83,-187.4"/>
</g>
<!-- Node15&#45;&gt;Node13 -->
<g id="edge25" class="edge">
<title>Node15&#45;&gt;Node13</title>
<path fill="none" stroke="midnightblue" d="M225.44,-224.32C235.15,-216.26 249.82,-204.08 261.5,-194.37"/>
<polygon fill="midnightblue" stroke="midnightblue" points="263.91,-196.92 269.37,-187.83 259.44,-191.53 263.91,-196.92"/>
</g>
<!-- Node16 -->
<g id="node16" class="node">
<title>Node16</title>
<g id="a_node16"><a xlink:title=" ">
<polygon fill="none" stroke="#bfbfbf" points="128,-168.5 128,-187.5 178,-187.5 178,-168.5 128,-168.5"/>
<text text-anchor="middle" x="153" y="-175.5" font-family="Helvetica,sans-Serif" font-size="10.00">optional</text>
</a>
</g>
</g>
<!-- Node15&#45;&gt;Node16 -->
<g id="edge22" class="edge">
<title>Node15&#45;&gt;Node16</title>
<path fill="none" stroke="midnightblue" d="M205.04,-224.32C195.87,-216.34 182.06,-204.31 170.97,-194.65"/>
<polygon fill="midnightblue" stroke="midnightblue" points="172.98,-191.76 163.14,-187.83 168.38,-197.04 172.98,-191.76"/>
</g>
<!-- Node17&#45;&gt;Node2 -->
<g id="edge28" class="edge">
<title>Node17&#45;&gt;Node2</title>
<path fill="none" stroke="midnightblue" d="M396.45,-280.38C407.98,-271.57 426.15,-257.32 441,-244 458.71,-228.12 477.83,-208.69 490.72,-195.24"/>
<polygon fill="midnightblue" stroke="midnightblue" points="493.52,-197.37 497.87,-187.71 488.44,-192.55 493.52,-197.37"/>
</g>
<!-- Node17&#45;&gt;Node5 -->
<g id="edge29" class="edge">
<title>Node17&#45;&gt;Node5</title>
<path fill="none" stroke="midnightblue" d="M387.42,-280.08C394.5,-253.95 415.3,-177.21 424.96,-141.58"/>
<polygon fill="midnightblue" stroke="midnightblue" points="428.44,-142.14 427.68,-131.57 421.68,-140.3 428.44,-142.14"/>
</g>
<!-- Node17&#45;&gt;Node10 -->
<g id="edge30" class="edge">
<title>Node17&#45;&gt;Node10</title>
<path fill="none" stroke="midnightblue" d="M374.88,-280.32C365.47,-272.26 351.26,-260.08 339.93,-250.37"/>
<polygon fill="midnightblue" stroke="midnightblue" points="342.18,-247.68 332.31,-243.83 337.62,-253 342.18,-247.68"/>
</g>
<!-- Node17&#45;&gt;Node13 -->
<g id="edge31" class="edge">
<title>Node17&#45;&gt;Node13</title>
<path fill="none" stroke="midnightblue" d="M384.75,-280.44C383.94,-266.99 380.58,-240.73 367,-224 354.82,-208.99 336.3,-198.44 319.47,-191.34"/>
<polygon fill="midnightblue" stroke="midnightblue" points="320.41,-187.95 309.82,-187.56 317.85,-194.47 320.41,-187.95"/>
</g>
<!-- Node18&#45;&gt;Node2 -->
<g id="edge36" class="edge">
<title>Node18&#45;&gt;Node2</title>
<path fill="none" stroke="midnightblue" d="M615.75,-392.17C611.59,-365 596.18,-281.08 558,-224 550.12,-212.22 538.36,-201.68 528.02,-193.77"/>
<polygon fill="midnightblue" stroke="midnightblue" points="529.92,-190.83 519.78,-187.78 525.8,-196.49 529.92,-190.83"/>
</g>
<!-- Node18&#45;&gt;Node3 -->
<g id="edge35" class="edge">
<title>Node18&#45;&gt;Node3</title>
<path fill="none" stroke="midnightblue" d="M590.22,-392.44C561.67,-383.32 516.27,-368.81 484.46,-358.65"/>
<polygon fill="midnightblue" stroke="midnightblue" points="485.24,-355.23 474.65,-355.52 483.11,-361.89 485.24,-355.23"/>
</g>
<!-- Node18&#45;&gt;Node5 -->
<g id="edge34" class="edge">
<title>Node18&#45;&gt;Node5</title>
<path fill="none" stroke="midnightblue" d="M622.7,-392.29C633.97,-374.2 658,-330.95 658,-291 658,-291 658,-291 658,-233 658,-151.86 539.42,-130.54 473.29,-124.96"/>
<polygon fill="midnightblue" stroke="midnightblue" points="473.39,-121.46 463.15,-124.19 472.86,-128.44 473.39,-121.46"/>
</g>
</g>
</svg>
