<?xml version="1.0" encoding="UTF-8" standalone="no"?>
<!DOCTYPE svg PUBLIC "-//W3C//DTD SVG 1.1//EN"
 "http://www.w3.org/Graphics/SVG/1.1/DTD/svg11.dtd">
<!-- Generated by graphviz version 2.50.0 (20211204.2007)
 -->
<!-- Title: include/york/Window.hpp Pages: 1 -->
<svg width="613pt" height="698pt"
 viewBox="0.00 0.00 612.50 698.00" xmlns="http://www.w3.org/2000/svg" xmlns:xlink="http://www.w3.org/1999/xlink">
<g id="graph0" class="graph" transform="scale(1 1) rotate(0) translate(4 694)">
<title>include/york/Window.hpp</title>
<!-- Node1 -->
<g id="node1" class="node">
<title>Node1</title>
<g id="a_node1"><a xlink:title=" ">
<polygon fill="#bfbfbf" stroke="black" points="390,-670.5 390,-689.5 515,-689.5 515,-670.5 390,-670.5"/>
<text text-anchor="middle" x="452.5" y="-677.5" font-family="Helvetica,sans-Serif" font-size="10.00">include/york/Window.hpp</text>
</a>
</g>
</g>
<!-- Node2 -->
<g id="node2" class="node">
<title>Node2</title>
<g id="a_node2"><a xlink:href="_instance_8hpp.html" target="_top" xlink:title=" ">
<polygon fill="none" stroke="black" points="397,-603.5 397,-633.5 508,-633.5 508,-603.5 397,-603.5"/>
<text text-anchor="start" x="405" y="-621.5" font-family="Helvetica,sans-Serif" font-size="10.00">include/york/Graphics</text>
<text text-anchor="middle" x="452.5" y="-610.5" font-family="Helvetica,sans-Serif" font-size="10.00">/Instance.hpp</text>
</a>
</g>
</g>
<!-- Node1&#45;&gt;Node2 -->
<g id="edge1" class="edge">
<title>Node1&#45;&gt;Node2</title>
<path fill="none" stroke="midnightblue" d="M452.5,-660.23C452.5,-651.59 452.5,-641.5 452.5,-633.52"/>
<polygon fill="midnightblue" stroke="midnightblue" points="449,-660.48 452.5,-670.48 456,-660.48 449,-660.48"/>
</g>
<!-- Node6 -->
<g id="node6" class="node">
<title>Node6</title>
<g id="a_node6"><a xlink:href="_renderer_8hpp.html" target="_top" xlink:title=" ">
<polygon fill="none" stroke="black" points="293.5,-0.5 293.5,-30.5 405.5,-30.5 405.5,-0.5 293.5,-0.5"/>
<text text-anchor="start" x="301.5" y="-18.5" font-family="Helvetica,sans-Serif" font-size="10.00">include/york/Renderer</text>
<text text-anchor="middle" x="349.5" y="-7.5" font-family="Helvetica,sans-Serif" font-size="10.00">/Renderer.hpp</text>
</a>
</g>
</g>
<!-- Node1&#45;&gt;Node6 -->
<g id="edge33" class="edge">
<title>Node1&#45;&gt;Node6</title>
<path fill="none" stroke="midnightblue" d="M489.13,-666.83C534.1,-649.3 604.5,-612.31 604.5,-552.5 604.5,-552.5 604.5,-552.5 604.5,-148.5 604.5,-59.64 480.87,-30.53 405.78,-21.04"/>
<polygon fill="midnightblue" stroke="midnightblue" points="487.81,-663.59 479.67,-670.38 490.27,-670.14 487.81,-663.59"/>
</g>
<!-- Node16 -->
<g id="node16" class="node">
<title>Node16</title>
<g id="a_node16"><a xlink:href="_surface_8hpp.html" target="_top" xlink:title=" ">
<polygon fill="none" stroke="black" points="313,-536.5 313,-566.5 424,-566.5 424,-536.5 313,-536.5"/>
<text text-anchor="start" x="321" y="-554.5" font-family="Helvetica,sans-Serif" font-size="10.00">include/york/Graphics</text>
<text text-anchor="middle" x="368.5" y="-543.5" font-family="Helvetica,sans-Serif" font-size="10.00">/Surface.hpp</text>
</a>
</g>
</g>
<!-- Node1&#45;&gt;Node16 -->
<g id="edge32" class="edge">
<title>Node1&#45;&gt;Node16</title>
<path fill="none" stroke="midnightblue" d="M423.97,-665.45C411,-657.91 396.57,-647.33 387.5,-634 373.53,-613.46 369.75,-583.99 368.77,-566.69"/>
<polygon fill="midnightblue" stroke="midnightblue" points="422.6,-668.68 433.05,-670.39 425.94,-662.54 422.6,-668.68"/>
</g>
<!-- Node3 -->
<g id="node3" class="node">
<title>Node3</title>
<g id="a_node3"><a xlink:href="_device_8hpp.html" target="_top" xlink:title=" ">
<polygon fill="none" stroke="black" points="294,-402.5 294,-432.5 405,-432.5 405,-402.5 294,-402.5"/>
<text text-anchor="start" x="302" y="-420.5" font-family="Helvetica,sans-Serif" font-size="10.00">include/york/Graphics</text>
<text text-anchor="middle" x="349.5" y="-409.5" font-family="Helvetica,sans-Serif" font-size="10.00">/Device.hpp</text>
</a>
</g>
</g>
<!-- Node2&#45;&gt;Node3 -->
<g id="edge2" class="edge">
<title>Node2&#45;&gt;Node3</title>
<path fill="none" stroke="midnightblue" d="M449.31,-593.44C446.52,-576.8 441.63,-554.43 433.5,-536 415.39,-494.93 381.54,-453.85 362.81,-432.85"/>
<polygon fill="midnightblue" stroke="midnightblue" points="445.87,-594.09 450.84,-603.44 452.78,-593.03 445.87,-594.09"/>
</g>
<!-- Node2&#45;&gt;Node16 -->
<g id="edge28" class="edge">
<title>Node2&#45;&gt;Node16</title>
<path fill="none" stroke="midnightblue" d="M426.22,-597.17C413.38,-587.23 398.24,-575.51 386.69,-566.58"/>
<polygon fill="midnightblue" stroke="midnightblue" points="424.22,-600.04 434.27,-603.4 428.51,-594.51 424.22,-600.04"/>
</g>
<!-- Node4 -->
<g id="node4" class="node">
<title>Node4</title>
<g id="a_node4"><a xlink:href="_command_pool_8hpp.html" target="_top" xlink:title=" ">
<polygon fill="none" stroke="black" points="0,-134.5 0,-164.5 111,-164.5 111,-134.5 0,-134.5"/>
<text text-anchor="start" x="8" y="-152.5" font-family="Helvetica,sans-Serif" font-size="10.00">include/york/Graphics</text>
<text text-anchor="middle" x="55.5" y="-141.5" font-family="Helvetica,sans-Serif" font-size="10.00">/CommandPool.hpp</text>
</a>
</g>
</g>
<!-- Node3&#45;&gt;Node4 -->
<g id="edge3" class="edge">
<title>Node3&#45;&gt;Node4</title>
<path fill="none" stroke="midnightblue" d="M283.7,-406.31C250.93,-398.95 211.91,-386.56 181.5,-366 118.36,-323.31 107.75,-300.58 74.5,-232 63.79,-209.91 58.94,-181.46 56.88,-164.69"/>
<polygon fill="midnightblue" stroke="midnightblue" points="283.15,-409.77 293.66,-408.44 284.61,-402.93 283.15,-409.77"/>
</g>
<!-- Node7 -->
<g id="node7" class="node">
<title>Node7</title>
<g id="a_node7"><a xlink:href="_fence_8hpp.html" target="_top" xlink:title=" ">
<polygon fill="none" stroke="black" points="84,-201.5 84,-231.5 195,-231.5 195,-201.5 84,-201.5"/>
<text text-anchor="start" x="92" y="-219.5" font-family="Helvetica,sans-Serif" font-size="10.00">include/york/Graphics</text>
<text text-anchor="middle" x="139.5" y="-208.5" font-family="Helvetica,sans-Serif" font-size="10.00">/Fence.hpp</text>
</a>
</g>
</g>
<!-- Node3&#45;&gt;Node7 -->
<g id="edge7" class="edge">
<title>Node3&#45;&gt;Node7</title>
<path fill="none" stroke="midnightblue" d="M284.05,-404.25C258.38,-396.74 230.17,-384.81 209.5,-366 167.97,-328.21 148.9,-260.64 142.32,-231.51"/>
<polygon fill="midnightblue" stroke="midnightblue" points="283.18,-407.64 293.75,-406.91 285.03,-400.89 283.18,-407.64"/>
</g>
<!-- Node8 -->
<g id="node8" class="node">
<title>Node8</title>
<g id="a_node8"><a xlink:href="_image_view_8hpp.html" target="_top" xlink:title=" ">
<polygon fill="none" stroke="black" points="252,-335.5 252,-365.5 363,-365.5 363,-335.5 252,-335.5"/>
<text text-anchor="start" x="260" y="-353.5" font-family="Helvetica,sans-Serif" font-size="10.00">include/york/Graphics</text>
<text text-anchor="middle" x="307.5" y="-342.5" font-family="Helvetica,sans-Serif" font-size="10.00">/ImageView.hpp</text>
</a>
</g>
</g>
<!-- Node3&#45;&gt;Node8 -->
<g id="edge9" class="edge">
<title>Node3&#45;&gt;Node8</title>
<path fill="none" stroke="midnightblue" d="M334.88,-393.87C328.8,-384.46 321.93,-373.83 316.6,-365.58"/>
<polygon fill="midnightblue" stroke="midnightblue" points="332.02,-395.9 340.39,-402.4 337.9,-392.1 332.02,-395.9"/>
</g>
<!-- Node10 -->
<g id="node10" class="node">
<title>Node10</title>
<g id="a_node10"><a xlink:href="_swap_chain_8hpp.html" target="_top" xlink:title=" ">
<polygon fill="none" stroke="black" points="298,-268.5 298,-298.5 409,-298.5 409,-268.5 298,-268.5"/>
<text text-anchor="start" x="306" y="-286.5" font-family="Helvetica,sans-Serif" font-size="10.00">include/york/Graphics</text>
<text text-anchor="middle" x="353.5" y="-275.5" font-family="Helvetica,sans-Serif" font-size="10.00">/SwapChain.hpp</text>
</a>
</g>
</g>
<!-- Node3&#45;&gt;Node10 -->
<g id="edge27" class="edge">
<title>Node3&#45;&gt;Node10</title>
<path fill="none" stroke="midnightblue" d="M361.97,-393.32C365.83,-384.96 369.57,-375.29 371.5,-366 374.31,-352.51 373.85,-348.58 371.5,-335 369.31,-322.34 364.25,-308.66 360.05,-298.73"/>
<polygon fill="midnightblue" stroke="midnightblue" points="358.76,-391.92 357.5,-402.44 365.05,-395 358.76,-391.92"/>
</g>
<!-- Node13 -->
<g id="node13" class="node">
<title>Node13</title>
<g id="a_node13"><a xlink:href="_pipeline_layout_8hpp.html" target="_top" xlink:title=" ">
<polygon fill="none" stroke="black" points="427,-268.5 427,-298.5 538,-298.5 538,-268.5 427,-268.5"/>
<text text-anchor="start" x="435" y="-286.5" font-family="Helvetica,sans-Serif" font-size="10.00">include/york/Graphics</text>
<text text-anchor="middle" x="482.5" y="-275.5" font-family="Helvetica,sans-Serif" font-size="10.00">/PipelineLayout.hpp</text>
</a>
</g>
</g>
<!-- Node3&#45;&gt;Node13 -->
<g id="edge20" class="edge">
<title>Node3&#45;&gt;Node13</title>
<path fill="none" stroke="midnightblue" d="M370.92,-395.25C398.32,-368.04 445.04,-321.68 468.37,-298.52"/>
<polygon fill="midnightblue" stroke="midnightblue" points="368.37,-392.85 363.73,-402.37 373.3,-397.81 368.37,-392.85"/>
</g>
<!-- Node14 -->
<g id="node14" class="node">
<title>Node14</title>
<g id="a_node14"><a xlink:href="_semaphore_8hpp.html" target="_top" xlink:title=" ">
<polygon fill="none" stroke="black" points="168,-134.5 168,-164.5 279,-164.5 279,-134.5 168,-134.5"/>
<text text-anchor="start" x="176" y="-152.5" font-family="Helvetica,sans-Serif" font-size="10.00">include/york/Graphics</text>
<text text-anchor="middle" x="223.5" y="-141.5" font-family="Helvetica,sans-Serif" font-size="10.00">/Semaphore.hpp</text>
</a>
</g>
</g>
<!-- Node3&#45;&gt;Node14 -->
<g id="edge22" class="edge">
<title>Node3&#45;&gt;Node14</title>
<path fill="none" stroke="midnightblue" d="M284.27,-398.57C268.18,-391.07 252.66,-380.58 242.5,-366 198.25,-302.53 212.91,-201.67 220.33,-164.69"/>
<polygon fill="midnightblue" stroke="midnightblue" points="283.2,-401.93 293.77,-402.65 285.96,-395.49 283.2,-401.93"/>
</g>
<!-- Node15 -->
<g id="node15" class="node">
<title>Node15</title>
<g id="a_node15"><a xlink:href="_shader_8hpp.html" target="_top" xlink:title=" ">
<polygon fill="none" stroke="black" points="463,-335.5 463,-365.5 574,-365.5 574,-335.5 463,-335.5"/>
<text text-anchor="start" x="471" y="-353.5" font-family="Helvetica,sans-Serif" font-size="10.00">include/york/Graphics</text>
<text text-anchor="middle" x="518.5" y="-342.5" font-family="Helvetica,sans-Serif" font-size="10.00">/Shader.hpp</text>
</a>
</g>
</g>
<!-- Node3&#45;&gt;Node15 -->
<g id="edge25" class="edge">
<title>Node3&#45;&gt;Node15</title>
<path fill="none" stroke="midnightblue" d="M395.83,-398.68C422.93,-388.26 456.67,-375.28 481.9,-365.58"/>
<polygon fill="midnightblue" stroke="midnightblue" points="394.25,-395.54 386.17,-402.4 396.76,-402.07 394.25,-395.54"/>
</g>
<!-- Node5 -->
<g id="node5" class="node">
<title>Node5</title>
<g id="a_node5"><a xlink:href="_frame_data_8hpp.html" target="_top" xlink:title=" ">
<polygon fill="none" stroke="black" points="252,-67.5 252,-97.5 363,-97.5 363,-67.5 252,-67.5"/>
<text text-anchor="start" x="260" y="-85.5" font-family="Helvetica,sans-Serif" font-size="10.00">include/york/Graphics</text>
<text text-anchor="middle" x="307.5" y="-74.5" font-family="Helvetica,sans-Serif" font-size="10.00">/FrameData.hpp</text>
</a>
</g>
</g>
<!-- Node4&#45;&gt;Node5 -->
<g id="edge4" class="edge">
<title>Node4&#45;&gt;Node5</title>
<path fill="none" stroke="midnightblue" d="M119.79,-131.92C160.91,-121.31 213.68,-107.7 252.79,-97.61"/>
<polygon fill="midnightblue" stroke="midnightblue" points="118.68,-128.59 109.87,-134.48 120.43,-135.37 118.68,-128.59"/>
</g>
<!-- Node4&#45;&gt;Node6 -->
<g id="edge6" class="edge">
<title>Node4&#45;&gt;Node6</title>
<path fill="none" stroke="midnightblue" d="M92.45,-129.82C126.47,-112.83 178.49,-87.36 224.5,-67 253.93,-53.98 287.81,-40.37 312.86,-30.57"/>
<polygon fill="midnightblue" stroke="midnightblue" points="90.72,-126.77 83.35,-134.38 93.86,-133.03 90.72,-126.77"/>
</g>
<!-- Node5&#45;&gt;Node6 -->
<g id="edge5" class="edge">
<title>Node5&#45;&gt;Node6</title>
<path fill="none" stroke="midnightblue" d="M322.12,-58.87C328.2,-49.46 335.07,-38.83 340.4,-30.58"/>
<polygon fill="midnightblue" stroke="midnightblue" points="319.1,-57.1 316.61,-67.4 324.98,-60.9 319.1,-57.1"/>
</g>
<!-- Node7&#45;&gt;Node5 -->
<g id="edge8" class="edge">
<title>Node7&#45;&gt;Node5</title>
<path fill="none" stroke="midnightblue" d="M139.16,-191.23C140.2,-173.33 144.45,-149.49 158.5,-134 182.26,-107.8 220.11,-95.18 251.71,-89.11"/>
<polygon fill="midnightblue" stroke="midnightblue" points="135.66,-191.13 138.87,-201.23 142.66,-191.33 135.66,-191.13"/>
</g>
<!-- Node9 -->
<g id="node9" class="node">
<title>Node9</title>
<g id="a_node9"><a xlink:href="_framebuffer_8hpp.html" target="_top" xlink:title=" ">
<polygon fill="none" stroke="black" points="336,-134.5 336,-164.5 447,-164.5 447,-134.5 336,-134.5"/>
<text text-anchor="start" x="344" y="-152.5" font-family="Helvetica,sans-Serif" font-size="10.00">include/york/Graphics</text>
<text text-anchor="middle" x="391.5" y="-141.5" font-family="Helvetica,sans-Serif" font-size="10.00">/Framebuffer.hpp</text>
</a>
</g>
</g>
<!-- Node8&#45;&gt;Node9 -->
<g id="edge10" class="edge">
<title>Node8&#45;&gt;Node9</title>
<path fill="none" stroke="midnightblue" d="M295.89,-325.98C289.33,-309.65 283.37,-287.43 288.5,-268 297.23,-234.9 304.1,-226.89 326.5,-201 338.84,-186.73 355.74,-173.75 369.21,-164.52"/>
<polygon fill="midnightblue" stroke="midnightblue" points="292.76,-327.54 299.96,-335.3 299.17,-324.74 292.76,-327.54"/>
</g>
<!-- Node8&#45;&gt;Node10 -->
<g id="edge13" class="edge">
<title>Node8&#45;&gt;Node10</title>
<path fill="none" stroke="midnightblue" d="M323.31,-327.16C330.02,-317.68 337.63,-306.92 343.54,-298.58"/>
<polygon fill="midnightblue" stroke="midnightblue" points="320.4,-325.21 317.48,-335.4 326.12,-329.26 320.4,-325.21"/>
</g>
<!-- Node9&#45;&gt;Node5 -->
<g id="edge11" class="edge">
<title>Node9&#45;&gt;Node5</title>
<path fill="none" stroke="midnightblue" d="M365.22,-128.17C352.38,-118.23 337.24,-106.51 325.69,-97.58"/>
<polygon fill="midnightblue" stroke="midnightblue" points="363.22,-131.04 373.27,-134.4 367.51,-125.51 363.22,-131.04"/>
</g>
<!-- Node9&#45;&gt;Node6 -->
<g id="edge12" class="edge">
<title>Node9&#45;&gt;Node6</title>
<path fill="none" stroke="midnightblue" d="M386.76,-124.59C383.23,-108.18 377.93,-86.02 371.5,-67 367.28,-54.5 361.21,-40.8 356.52,-30.83"/>
<polygon fill="midnightblue" stroke="midnightblue" points="383.34,-125.37 388.81,-134.45 390.2,-123.95 383.34,-125.37"/>
</g>
<!-- Node10&#45;&gt;Node5 -->
<g id="edge14" class="edge">
<title>Node10&#45;&gt;Node5</title>
<path fill="none" stroke="midnightblue" d="M338.84,-259.35C334.19,-251.02 329.49,-241.36 326.5,-232 311.32,-184.46 308.22,-124.7 307.62,-97.79"/>
<polygon fill="midnightblue" stroke="midnightblue" points="335.9,-261.25 343.98,-268.1 341.94,-257.71 335.9,-261.25"/>
</g>
<!-- Node11 -->
<g id="node11" class="node">
<title>Node11</title>
<g id="a_node11"><a xlink:href="_pipeline_8hpp.html" target="_top" xlink:title=" ">
<polygon fill="none" stroke="black" points="465,-134.5 465,-164.5 576,-164.5 576,-134.5 465,-134.5"/>
<text text-anchor="start" x="473" y="-152.5" font-family="Helvetica,sans-Serif" font-size="10.00">include/york/Graphics</text>
<text text-anchor="middle" x="520.5" y="-141.5" font-family="Helvetica,sans-Serif" font-size="10.00">/Pipeline.hpp</text>
</a>
</g>
</g>
<!-- Node10&#45;&gt;Node11 -->
<g id="edge15" class="edge">
<title>Node10&#45;&gt;Node11</title>
<path fill="none" stroke="midnightblue" d="M401.46,-264.39C419.77,-256.14 440.15,-245.23 456.5,-232 480.55,-212.53 501.17,-182.43 512.12,-164.78"/>
<polygon fill="midnightblue" stroke="midnightblue" points="399.88,-261.26 392.1,-268.46 402.67,-267.68 399.88,-261.26"/>
</g>
<!-- Node12 -->
<g id="node12" class="node">
<title>Node12</title>
<g id="a_node12"><a xlink:href="_render_pass_8hpp.html" target="_top" xlink:title=" ">
<polygon fill="none" stroke="black" points="336,-201.5 336,-231.5 447,-231.5 447,-201.5 336,-201.5"/>
<text text-anchor="start" x="344" y="-219.5" font-family="Helvetica,sans-Serif" font-size="10.00">include/york/Graphics</text>
<text text-anchor="middle" x="391.5" y="-208.5" font-family="Helvetica,sans-Serif" font-size="10.00">/RenderPass.hpp</text>
</a>
</g>
</g>
<!-- Node10&#45;&gt;Node12 -->
<g id="edge17" class="edge">
<title>Node10&#45;&gt;Node12</title>
<path fill="none" stroke="midnightblue" d="M366.9,-259.58C372.36,-250.24 378.49,-239.75 383.27,-231.58"/>
<polygon fill="midnightblue" stroke="midnightblue" points="363.77,-258 361.75,-268.4 369.81,-261.53 363.77,-258"/>
</g>
<!-- Node11&#45;&gt;Node6 -->
<g id="edge16" class="edge">
<title>Node11&#45;&gt;Node6</title>
<path fill="none" stroke="midnightblue" d="M493.86,-127.94C458.76,-100.84 397.92,-53.88 367.67,-30.52"/>
<polygon fill="midnightblue" stroke="midnightblue" points="492.15,-131.03 502.2,-134.37 496.42,-125.49 492.15,-131.03"/>
</g>
<!-- Node12&#45;&gt;Node9 -->
<g id="edge18" class="edge">
<title>Node12&#45;&gt;Node9</title>
<path fill="none" stroke="midnightblue" d="M391.5,-191.11C391.5,-182.15 391.5,-172.32 391.5,-164.58"/>
<polygon fill="midnightblue" stroke="midnightblue" points="388,-191.4 391.5,-201.4 395,-191.4 388,-191.4"/>
</g>
<!-- Node12&#45;&gt;Node11 -->
<g id="edge19" class="edge">
<title>Node12&#45;&gt;Node11</title>
<path fill="none" stroke="midnightblue" d="M428.51,-196.85C448.9,-186.58 473.81,-174.03 492.56,-164.58"/>
<polygon fill="midnightblue" stroke="midnightblue" points="426.85,-193.77 419.49,-201.4 430,-200.02 426.85,-193.77"/>
</g>
<!-- Node13&#45;&gt;Node11 -->
<g id="edge21" class="edge">
<title>Node13&#45;&gt;Node11</title>
<path fill="none" stroke="midnightblue" d="M489.34,-258.75C497.24,-231.29 510,-186.99 516.46,-164.52"/>
<polygon fill="midnightblue" stroke="midnightblue" points="485.97,-257.8 486.57,-268.37 492.7,-259.73 485.97,-257.8"/>
</g>
<!-- Node14&#45;&gt;Node5 -->
<g id="edge23" class="edge">
<title>Node14&#45;&gt;Node5</title>
<path fill="none" stroke="midnightblue" d="M249.78,-128.17C262.62,-118.23 277.76,-106.51 289.31,-97.58"/>
<polygon fill="midnightblue" stroke="midnightblue" points="247.49,-125.51 241.73,-134.4 251.78,-131.04 247.49,-125.51"/>
</g>
<!-- Node14&#45;&gt;Node6 -->
<g id="edge24" class="edge">
<title>Node14&#45;&gt;Node6</title>
<path fill="none" stroke="midnightblue" d="M223.72,-124.12C225.08,-106.51 229.5,-83.1 242.5,-67 256.31,-49.9 277.27,-38.27 296.99,-30.53"/>
<polygon fill="midnightblue" stroke="midnightblue" points="220.22,-124.05 223.22,-134.21 227.21,-124.4 220.22,-124.05"/>
</g>
<!-- Node15&#45;&gt;Node11 -->
<g id="edge26" class="edge">
<title>Node15&#45;&gt;Node11</title>
<path fill="none" stroke="midnightblue" d="M534.8,-326.95C539.91,-318.59 544.9,-308.76 547.5,-299 560.47,-250.39 538.8,-191.16 527.15,-164.59"/>
<polygon fill="midnightblue" stroke="midnightblue" points="531.84,-325.08 529.31,-335.37 537.7,-328.91 531.84,-325.08"/>
</g>
<!-- Node16&#45;&gt;Node3 -->
<g id="edge29" class="edge">
<title>Node16&#45;&gt;Node3</title>
<path fill="none" stroke="midnightblue" d="M372.43,-526.17C374.33,-509.83 375.44,-487.92 371.5,-469 368.81,-456.08 362.63,-442.41 357.5,-432.56"/>
<polygon fill="midnightblue" stroke="midnightblue" points="368.91,-526.11 371.04,-536.48 375.84,-527.04 368.91,-526.11"/>
</g>
<!-- Node17 -->
<g id="node17" class="node">
<title>Node17</title>
<g id="a_node17"><a xlink:href="_physical_device_8hpp.html" target="_top" xlink:title=" ">
<polygon fill="none" stroke="black" points="252,-469.5 252,-499.5 363,-499.5 363,-469.5 252,-469.5"/>
<text text-anchor="start" x="260" y="-487.5" font-family="Helvetica,sans-Serif" font-size="10.00">include/york/Graphics</text>
<text text-anchor="middle" x="307.5" y="-476.5" font-family="Helvetica,sans-Serif" font-size="10.00">/PhysicalDevice.hpp</text>
</a>
</g>
</g>
<!-- Node16&#45;&gt;Node17 -->
<g id="edge30" class="edge">
<title>Node16&#45;&gt;Node17</title>
<path fill="none" stroke="midnightblue" d="M348.35,-529.02C339.26,-519.34 328.78,-508.17 320.71,-499.58"/>
<polygon fill="midnightblue" stroke="midnightblue" points="345.87,-531.5 355.26,-536.4 350.97,-526.71 345.87,-531.5"/>
</g>
<!-- Node17&#45;&gt;Node3 -->
<g id="edge31" class="edge">
<title>Node17&#45;&gt;Node3</title>
<path fill="none" stroke="midnightblue" d="M322.12,-460.87C328.2,-451.46 335.07,-440.83 340.4,-432.58"/>
<polygon fill="midnightblue" stroke="midnightblue" points="319.1,-459.1 316.61,-469.4 324.98,-462.9 319.1,-459.1"/>
</g>
</g>
</svg>
