<?xml version="1.0" encoding="UTF-8" standalone="no"?>
<!DOCTYPE svg PUBLIC "-//W3C//DTD SVG 1.1//EN"
 "http://www.w3.org/Graphics/SVG/1.1/DTD/svg11.dtd">
<!-- Generated by graphviz version 2.50.0 (20211204.2007)
 -->
<!-- Title: include/york/Window.hpp Pages: 1 -->
<svg width="645pt" height="631pt"
 viewBox="0.00 0.00 644.50 631.00" xmlns="http://www.w3.org/2000/svg" xmlns:xlink="http://www.w3.org/1999/xlink">
<g id="graph0" class="graph" transform="scale(1 1) rotate(0) translate(4 627)">
<title>include/york/Window.hpp</title>
<!-- Node1 -->
<g id="node1" class="node">
<title>Node1</title>
<g id="a_node1"><a xlink:title=" ">
<polygon fill="#bfbfbf" stroke="black" points="105.5,-603.5 105.5,-622.5 230.5,-622.5 230.5,-603.5 105.5,-603.5"/>
<text text-anchor="middle" x="168" y="-610.5" font-family="Helvetica,sans-Serif" font-size="10.00">include/york/Window.hpp</text>
</a>
</g>
</g>
<!-- Node2 -->
<g id="node2" class="node">
<title>Node2</title>
<g id="a_node2"><a xlink:href="_instance_8hpp.html" target="_top" xlink:title=" ">
<polygon fill="none" stroke="black" points="70.5,-536.5 70.5,-566.5 181.5,-566.5 181.5,-536.5 70.5,-536.5"/>
<text text-anchor="start" x="78.5" y="-554.5" font-family="Helvetica,sans-Serif" font-size="10.00">include/york/Graphics</text>
<text text-anchor="middle" x="126" y="-543.5" font-family="Helvetica,sans-Serif" font-size="10.00">/Instance.hpp</text>
</a>
</g>
</g>
<!-- Node1&#45;&gt;Node2 -->
<g id="edge1" class="edge">
<title>Node1&#45;&gt;Node2</title>
<path fill="none" stroke="midnightblue" d="M156.17,-595.25C149.78,-586.19 141.97,-575.12 135.9,-566.52"/>
<polygon fill="midnightblue" stroke="midnightblue" points="153.36,-597.32 161.98,-603.48 159.07,-593.29 153.36,-597.32"/>
</g>
<!-- Node6 -->
<g id="node6" class="node">
<title>Node6</title>
<g id="a_node6"><a xlink:href="_renderer_8hpp.html" target="_top" xlink:title=" ">
<polygon fill="none" stroke="black" points="175,-0.5 175,-30.5 287,-30.5 287,-0.5 175,-0.5"/>
<text text-anchor="start" x="183" y="-18.5" font-family="Helvetica,sans-Serif" font-size="10.00">include/york/Renderer</text>
<text text-anchor="middle" x="231" y="-7.5" font-family="Helvetica,sans-Serif" font-size="10.00">/Renderer.hpp</text>
</a>
</g>
</g>
<!-- Node1&#45;&gt;Node6 -->
<g id="edge33" class="edge">
<title>Node1&#45;&gt;Node6</title>
<path fill="none" stroke="midnightblue" d="M125.63,-600.37C75.87,-583.83 0,-548.31 0,-485.5 0,-485.5 0,-485.5 0,-148.5 0,-68.24 106.41,-36.12 174.79,-23.77"/>
<polygon fill="midnightblue" stroke="midnightblue" points="124.62,-603.72 135.21,-603.43 126.75,-597.05 124.62,-603.72"/>
</g>
<!-- Node16 -->
<g id="node16" class="node">
<title>Node16</title>
<g id="a_node16"><a xlink:href="_surface_8hpp.html" target="_top" xlink:title=" ">
<polygon fill="none" stroke="black" points="154.5,-469.5 154.5,-499.5 265.5,-499.5 265.5,-469.5 154.5,-469.5"/>
<text text-anchor="start" x="162.5" y="-487.5" font-family="Helvetica,sans-Serif" font-size="10.00">include/york/Graphics</text>
<text text-anchor="middle" x="210" y="-476.5" font-family="Helvetica,sans-Serif" font-size="10.00">/Surface.hpp</text>
</a>
</g>
</g>
<!-- Node1&#45;&gt;Node16 -->
<g id="edge32" class="edge">
<title>Node1&#45;&gt;Node16</title>
<path fill="none" stroke="midnightblue" d="M178.24,-594.44C182.65,-586.3 187.57,-576.37 191,-567 199.39,-544.08 204.95,-516.14 207.78,-499.64"/>
<polygon fill="midnightblue" stroke="midnightblue" points="175.09,-592.89 173.24,-603.32 181.19,-596.32 175.09,-592.89"/>
</g>
<!-- Node17 -->
<g id="node17" class="node">
<title>Node17</title>
<g id="a_node17"><a xlink:href="_physical_device_8hpp.html" target="_top" xlink:title=" ">
<polygon fill="none" stroke="black" points="283.5,-469.5 283.5,-499.5 394.5,-499.5 394.5,-469.5 283.5,-469.5"/>
<text text-anchor="start" x="291.5" y="-487.5" font-family="Helvetica,sans-Serif" font-size="10.00">include/york/Graphics</text>
<text text-anchor="middle" x="339" y="-476.5" font-family="Helvetica,sans-Serif" font-size="10.00">/PhysicalDevice.hpp</text>
</a>
</g>
</g>
<!-- Node1&#45;&gt;Node17 -->
<g id="edge30" class="edge">
<title>Node1&#45;&gt;Node17</title>
<path fill="none" stroke="midnightblue" d="M188.22,-597.05C221.47,-572.44 287.27,-523.77 319.83,-499.68"/>
<polygon fill="midnightblue" stroke="midnightblue" points="185.71,-594.54 179.75,-603.31 189.87,-600.17 185.71,-594.54"/>
</g>
<!-- Node3 -->
<g id="node3" class="node">
<title>Node3</title>
<g id="a_node3"><a xlink:href="_device_8hpp.html" target="_top" xlink:title=" ">
<polygon fill="none" stroke="black" points="238.5,-402.5 238.5,-432.5 349.5,-432.5 349.5,-402.5 238.5,-402.5"/>
<text text-anchor="start" x="246.5" y="-420.5" font-family="Helvetica,sans-Serif" font-size="10.00">include/york/Graphics</text>
<text text-anchor="middle" x="294" y="-409.5" font-family="Helvetica,sans-Serif" font-size="10.00">/Device.hpp</text>
</a>
</g>
</g>
<!-- Node2&#45;&gt;Node3 -->
<g id="edge2" class="edge">
<title>Node2&#45;&gt;Node3</title>
<path fill="none" stroke="midnightblue" d="M125.66,-526.23C126.7,-508.33 130.95,-484.49 145,-469 168.76,-442.8 206.61,-430.18 238.21,-424.11"/>
<polygon fill="midnightblue" stroke="midnightblue" points="122.16,-526.13 125.37,-536.23 129.16,-526.33 122.16,-526.13"/>
</g>
<!-- Node2&#45;&gt;Node16 -->
<g id="edge28" class="edge">
<title>Node2&#45;&gt;Node16</title>
<path fill="none" stroke="midnightblue" d="M152.28,-530.17C165.12,-520.23 180.26,-508.51 191.81,-499.58"/>
<polygon fill="midnightblue" stroke="midnightblue" points="149.99,-527.51 144.23,-536.4 154.28,-533.04 149.99,-527.51"/>
</g>
<!-- Node4 -->
<g id="node4" class="node">
<title>Node4</title>
<g id="a_node4"><a xlink:href="_command_pool_8hpp.html" target="_top" xlink:title=" ">
<polygon fill="none" stroke="black" points="28.5,-134.5 28.5,-164.5 139.5,-164.5 139.5,-134.5 28.5,-134.5"/>
<text text-anchor="start" x="36.5" y="-152.5" font-family="Helvetica,sans-Serif" font-size="10.00">include/york/Graphics</text>
<text text-anchor="middle" x="84" y="-141.5" font-family="Helvetica,sans-Serif" font-size="10.00">/CommandPool.hpp</text>
</a>
</g>
</g>
<!-- Node3&#45;&gt;Node4 -->
<g id="edge3" class="edge">
<title>Node3&#45;&gt;Node4</title>
<path fill="none" stroke="midnightblue" d="M258.25,-397.24C243.79,-388.63 227.38,-377.76 214,-366 155.91,-314.95 137.36,-301.28 103,-232 92.09,-210 87.3,-181.53 85.31,-164.72"/>
<polygon fill="midnightblue" stroke="midnightblue" points="256.56,-400.3 266.97,-402.3 260.08,-394.25 256.56,-400.3"/>
</g>
<!-- Node7 -->
<g id="node7" class="node">
<title>Node7</title>
<g id="a_node7"><a xlink:href="_fence_8hpp.html" target="_top" xlink:title=" ">
<polygon fill="none" stroke="black" points="112.5,-201.5 112.5,-231.5 223.5,-231.5 223.5,-201.5 112.5,-201.5"/>
<text text-anchor="start" x="120.5" y="-219.5" font-family="Helvetica,sans-Serif" font-size="10.00">include/york/Graphics</text>
<text text-anchor="middle" x="168" y="-208.5" font-family="Helvetica,sans-Serif" font-size="10.00">/Fence.hpp</text>
</a>
</g>
</g>
<!-- Node3&#45;&gt;Node7 -->
<g id="edge7" class="edge">
<title>Node3&#45;&gt;Node7</title>
<path fill="none" stroke="midnightblue" d="M267.07,-396.02C257.08,-387.5 246.19,-377.03 238,-366 205.03,-321.61 181.83,-259.22 172.53,-231.6"/>
<polygon fill="midnightblue" stroke="midnightblue" points="264.88,-398.76 274.83,-402.41 269.33,-393.35 264.88,-398.76"/>
</g>
<!-- Node8 -->
<g id="node8" class="node">
<title>Node8</title>
<g id="a_node8"><a xlink:href="_image_view_8hpp.html" target="_top" xlink:title=" ">
<polygon fill="none" stroke="black" points="280.5,-335.5 280.5,-365.5 391.5,-365.5 391.5,-335.5 280.5,-335.5"/>
<text text-anchor="start" x="288.5" y="-353.5" font-family="Helvetica,sans-Serif" font-size="10.00">include/york/Graphics</text>
<text text-anchor="middle" x="336" y="-342.5" font-family="Helvetica,sans-Serif" font-size="10.00">/ImageView.hpp</text>
</a>
</g>
</g>
<!-- Node3&#45;&gt;Node8 -->
<g id="edge9" class="edge">
<title>Node3&#45;&gt;Node8</title>
<path fill="none" stroke="midnightblue" d="M308.62,-393.87C314.7,-384.46 321.57,-373.83 326.9,-365.58"/>
<polygon fill="midnightblue" stroke="midnightblue" points="305.6,-392.1 303.11,-402.4 311.48,-395.9 305.6,-392.1"/>
</g>
<!-- Node10 -->
<g id="node10" class="node">
<title>Node10</title>
<g id="a_node10"><a xlink:href="_swap_chain_8hpp.html" target="_top" xlink:title=" ">
<polygon fill="none" stroke="black" points="326.5,-268.5 326.5,-298.5 437.5,-298.5 437.5,-268.5 326.5,-268.5"/>
<text text-anchor="start" x="334.5" y="-286.5" font-family="Helvetica,sans-Serif" font-size="10.00">include/york/Graphics</text>
<text text-anchor="middle" x="382" y="-275.5" font-family="Helvetica,sans-Serif" font-size="10.00">/SwapChain.hpp</text>
</a>
</g>
</g>
<!-- Node3&#45;&gt;Node10 -->
<g id="edge27" class="edge">
<title>Node3&#45;&gt;Node10</title>
<path fill="none" stroke="midnightblue" d="M359.39,-399.47C375.74,-391.95 391.35,-381.23 401,-366 414.3,-345.02 401.35,-315.7 391.29,-298.55"/>
<polygon fill="midnightblue" stroke="midnightblue" points="357.58,-396.43 349.71,-403.53 360.29,-402.88 357.58,-396.43"/>
</g>
<!-- Node13 -->
<g id="node13" class="node">
<title>Node13</title>
<g id="a_node13"><a xlink:href="_pipeline_layout_8hpp.html" target="_top" xlink:title=" ">
<polygon fill="none" stroke="black" points="455.5,-268.5 455.5,-298.5 566.5,-298.5 566.5,-268.5 455.5,-268.5"/>
<text text-anchor="start" x="463.5" y="-286.5" font-family="Helvetica,sans-Serif" font-size="10.00">include/york/Graphics</text>
<text text-anchor="middle" x="511" y="-275.5" font-family="Helvetica,sans-Serif" font-size="10.00">/PipelineLayout.hpp</text>
</a>
</g>
</g>
<!-- Node3&#45;&gt;Node13 -->
<g id="edge20" class="edge">
<title>Node3&#45;&gt;Node13</title>
<path fill="none" stroke="midnightblue" d="M347.44,-398.89C369.74,-390.46 395.43,-379.28 417,-366 448.63,-346.52 480.19,-316.43 497.5,-298.77"/>
<polygon fill="midnightblue" stroke="midnightblue" points="345.95,-395.71 337.78,-402.46 348.37,-402.28 345.95,-395.71"/>
</g>
<!-- Node14 -->
<g id="node14" class="node">
<title>Node14</title>
<g id="a_node14"><a xlink:href="_semaphore_8hpp.html" target="_top" xlink:title=" ">
<polygon fill="none" stroke="black" points="196.5,-134.5 196.5,-164.5 307.5,-164.5 307.5,-134.5 196.5,-134.5"/>
<text text-anchor="start" x="204.5" y="-152.5" font-family="Helvetica,sans-Serif" font-size="10.00">include/york/Graphics</text>
<text text-anchor="middle" x="252" y="-141.5" font-family="Helvetica,sans-Serif" font-size="10.00">/Semaphore.hpp</text>
</a>
</g>
</g>
<!-- Node3&#45;&gt;Node14 -->
<g id="edge22" class="edge">
<title>Node3&#45;&gt;Node14</title>
<path fill="none" stroke="midnightblue" d="M282.01,-393.21C278.2,-384.84 274.36,-375.19 272,-366 252.96,-291.95 251.55,-199.45 251.78,-164.63"/>
<polygon fill="midnightblue" stroke="midnightblue" points="278.91,-394.84 286.38,-402.35 285.22,-391.82 278.91,-394.84"/>
</g>
<!-- Node15 -->
<g id="node15" class="node">
<title>Node15</title>
<g id="a_node15"><a xlink:href="_shader_8hpp.html" target="_top" xlink:title=" ">
<polygon fill="none" stroke="black" points="525.5,-335.5 525.5,-365.5 636.5,-365.5 636.5,-335.5 525.5,-335.5"/>
<text text-anchor="start" x="533.5" y="-353.5" font-family="Helvetica,sans-Serif" font-size="10.00">include/york/Graphics</text>
<text text-anchor="middle" x="581" y="-342.5" font-family="Helvetica,sans-Serif" font-size="10.00">/Shader.hpp</text>
</a>
</g>
</g>
<!-- Node3&#45;&gt;Node15 -->
<g id="edge25" class="edge">
<title>Node3&#45;&gt;Node15</title>
<path fill="none" stroke="midnightblue" d="M359.45,-401.68C409.59,-390.32 478,-374.83 525.48,-364.07"/>
<polygon fill="midnightblue" stroke="midnightblue" points="358.66,-398.27 349.68,-403.89 360.2,-405.09 358.66,-398.27"/>
</g>
<!-- Node5 -->
<g id="node5" class="node">
<title>Node5</title>
<g id="a_node5"><a xlink:href="_frame_data_8hpp.html" target="_top" xlink:title=" ">
<polygon fill="none" stroke="black" points="217.5,-67.5 217.5,-97.5 328.5,-97.5 328.5,-67.5 217.5,-67.5"/>
<text text-anchor="start" x="225.5" y="-85.5" font-family="Helvetica,sans-Serif" font-size="10.00">include/york/Graphics</text>
<text text-anchor="middle" x="273" y="-74.5" font-family="Helvetica,sans-Serif" font-size="10.00">/FrameData.hpp</text>
</a>
</g>
</g>
<!-- Node4&#45;&gt;Node5 -->
<g id="edge4" class="edge">
<title>Node4&#45;&gt;Node5</title>
<path fill="none" stroke="midnightblue" d="M134.62,-131.09C165.13,-120.6 203.48,-107.41 232.07,-97.58"/>
<polygon fill="midnightblue" stroke="midnightblue" points="133.33,-127.83 125.01,-134.4 135.6,-134.45 133.33,-127.83"/>
</g>
<!-- Node4&#45;&gt;Node6 -->
<g id="edge6" class="edge">
<title>Node4&#45;&gt;Node6</title>
<path fill="none" stroke="midnightblue" d="M107.28,-127.59C137.52,-100.44 189.48,-53.78 215.38,-30.52"/>
<polygon fill="midnightblue" stroke="midnightblue" points="104.83,-125.09 99.73,-134.37 109.51,-130.3 104.83,-125.09"/>
</g>
<!-- Node5&#45;&gt;Node6 -->
<g id="edge5" class="edge">
<title>Node5&#45;&gt;Node6</title>
<path fill="none" stroke="midnightblue" d="M258.38,-58.87C252.3,-49.46 245.43,-38.83 240.1,-30.58"/>
<polygon fill="midnightblue" stroke="midnightblue" points="255.52,-60.9 263.89,-67.4 261.4,-57.1 255.52,-60.9"/>
</g>
<!-- Node7&#45;&gt;Node5 -->
<g id="edge8" class="edge">
<title>Node7&#45;&gt;Node5</title>
<path fill="none" stroke="midnightblue" d="M169.02,-191.46C170.85,-174.02 175.65,-150.67 188,-134 200.06,-117.73 219.06,-105.73 236.04,-97.52"/>
<polygon fill="midnightblue" stroke="midnightblue" points="165.53,-191.19 168.23,-201.44 172.51,-191.75 165.53,-191.19"/>
</g>
<!-- Node9 -->
<g id="node9" class="node">
<title>Node9</title>
<g id="a_node9"><a xlink:href="_framebuffer_8hpp.html" target="_top" xlink:title=" ">
<polygon fill="none" stroke="black" points="364.5,-134.5 364.5,-164.5 475.5,-164.5 475.5,-134.5 364.5,-134.5"/>
<text text-anchor="start" x="372.5" y="-152.5" font-family="Helvetica,sans-Serif" font-size="10.00">include/york/Graphics</text>
<text text-anchor="middle" x="420" y="-141.5" font-family="Helvetica,sans-Serif" font-size="10.00">/Framebuffer.hpp</text>
</a>
</g>
</g>
<!-- Node8&#45;&gt;Node9 -->
<g id="edge10" class="edge">
<title>Node8&#45;&gt;Node9</title>
<path fill="none" stroke="midnightblue" d="M324.84,-325.94C318.55,-309.6 312.89,-287.38 318,-268 326.73,-234.9 333.7,-226.98 356,-201 368.17,-186.82 384.8,-173.84 398.06,-164.59"/>
<polygon fill="midnightblue" stroke="midnightblue" points="321.66,-327.41 328.75,-335.28 328.12,-324.71 321.66,-327.41"/>
</g>
<!-- Node8&#45;&gt;Node10 -->
<g id="edge13" class="edge">
<title>Node8&#45;&gt;Node10</title>
<path fill="none" stroke="midnightblue" d="M351.81,-327.16C358.52,-317.68 366.13,-306.92 372.04,-298.58"/>
<polygon fill="midnightblue" stroke="midnightblue" points="348.9,-325.21 345.98,-335.4 354.62,-329.26 348.9,-325.21"/>
</g>
<!-- Node9&#45;&gt;Node5 -->
<g id="edge11" class="edge">
<title>Node9&#45;&gt;Node5</title>
<path fill="none" stroke="midnightblue" d="M378.77,-130.27C355.36,-119.92 326.49,-107.15 304.83,-97.58"/>
<polygon fill="midnightblue" stroke="midnightblue" points="377.54,-133.55 388.1,-134.4 380.37,-127.15 377.54,-133.55"/>
</g>
<!-- Node9&#45;&gt;Node6 -->
<g id="edge12" class="edge">
<title>Node9&#45;&gt;Node6</title>
<path fill="none" stroke="midnightblue" d="M401.88,-126.74C386.3,-109.02 362.51,-84.19 338,-67 316.56,-51.96 289.93,-39.38 268.61,-30.53"/>
<polygon fill="midnightblue" stroke="midnightblue" points="399.25,-129.06 408.44,-134.34 404.55,-124.48 399.25,-129.06"/>
</g>
<!-- Node10&#45;&gt;Node5 -->
<g id="edge14" class="edge">
<title>Node10&#45;&gt;Node5</title>
<path fill="none" stroke="midnightblue" d="M369.39,-259.16C364.97,-250.7 360.1,-241 356,-232 336.58,-189.33 341.41,-174.02 317,-134 308.89,-120.7 297.21,-107.48 287.93,-97.91"/>
<polygon fill="midnightblue" stroke="midnightblue" points="366.34,-260.89 374.11,-268.1 372.53,-257.62 366.34,-260.89"/>
</g>
<!-- Node11 -->
<g id="node11" class="node">
<title>Node11</title>
<g id="a_node11"><a xlink:href="_pipeline_8hpp.html" target="_top" xlink:title=" ">
<polygon fill="none" stroke="black" points="493.5,-134.5 493.5,-164.5 604.5,-164.5 604.5,-134.5 493.5,-134.5"/>
<text text-anchor="start" x="501.5" y="-152.5" font-family="Helvetica,sans-Serif" font-size="10.00">include/york/Graphics</text>
<text text-anchor="middle" x="549" y="-141.5" font-family="Helvetica,sans-Serif" font-size="10.00">/Pipeline.hpp</text>
</a>
</g>
</g>
<!-- Node10&#45;&gt;Node11 -->
<g id="edge15" class="edge">
<title>Node10&#45;&gt;Node11</title>
<path fill="none" stroke="midnightblue" d="M429.96,-264.39C448.27,-256.14 468.65,-245.23 485,-232 509.05,-212.53 529.67,-182.43 540.62,-164.78"/>
<polygon fill="midnightblue" stroke="midnightblue" points="428.38,-261.26 420.6,-268.46 431.17,-267.68 428.38,-261.26"/>
</g>
<!-- Node12 -->
<g id="node12" class="node">
<title>Node12</title>
<g id="a_node12"><a xlink:href="_render_pass_8hpp.html" target="_top" xlink:title=" ">
<polygon fill="none" stroke="black" points="364.5,-201.5 364.5,-231.5 475.5,-231.5 475.5,-201.5 364.5,-201.5"/>
<text text-anchor="start" x="372.5" y="-219.5" font-family="Helvetica,sans-Serif" font-size="10.00">include/york/Graphics</text>
<text text-anchor="middle" x="420" y="-208.5" font-family="Helvetica,sans-Serif" font-size="10.00">/RenderPass.hpp</text>
</a>
</g>
</g>
<!-- Node10&#45;&gt;Node12 -->
<g id="edge17" class="edge">
<title>Node10&#45;&gt;Node12</title>
<path fill="none" stroke="midnightblue" d="M395.4,-259.58C400.86,-250.24 406.99,-239.75 411.77,-231.58"/>
<polygon fill="midnightblue" stroke="midnightblue" points="392.27,-258 390.25,-268.4 398.31,-261.53 392.27,-258"/>
</g>
<!-- Node11&#45;&gt;Node6 -->
<g id="edge16" class="edge">
<title>Node11&#45;&gt;Node6</title>
<path fill="none" stroke="midnightblue" d="M510.69,-130C474.7,-112.87 419.18,-87.09 370,-67 337.56,-53.74 300.19,-40.27 272.38,-30.57"/>
<polygon fill="midnightblue" stroke="midnightblue" points="509.32,-133.22 519.85,-134.37 512.34,-126.9 509.32,-133.22"/>
</g>
<!-- Node12&#45;&gt;Node9 -->
<g id="edge18" class="edge">
<title>Node12&#45;&gt;Node9</title>
<path fill="none" stroke="midnightblue" d="M420,-191.11C420,-182.15 420,-172.32 420,-164.58"/>
<polygon fill="midnightblue" stroke="midnightblue" points="416.5,-191.4 420,-201.4 423.5,-191.4 416.5,-191.4"/>
</g>
<!-- Node12&#45;&gt;Node11 -->
<g id="edge19" class="edge">
<title>Node12&#45;&gt;Node11</title>
<path fill="none" stroke="midnightblue" d="M457.01,-196.85C477.4,-186.58 502.31,-174.03 521.06,-164.58"/>
<polygon fill="midnightblue" stroke="midnightblue" points="455.35,-193.77 447.99,-201.4 458.5,-200.02 455.35,-193.77"/>
</g>
<!-- Node13&#45;&gt;Node11 -->
<g id="edge21" class="edge">
<title>Node13&#45;&gt;Node11</title>
<path fill="none" stroke="midnightblue" d="M517.84,-258.75C525.74,-231.29 538.5,-186.99 544.96,-164.52"/>
<polygon fill="midnightblue" stroke="midnightblue" points="514.47,-257.8 515.07,-268.37 521.2,-259.73 514.47,-257.8"/>
</g>
<!-- Node14&#45;&gt;Node5 -->
<g id="edge23" class="edge">
<title>Node14&#45;&gt;Node5</title>
<path fill="none" stroke="midnightblue" d="M259.69,-124.7C262.63,-115.59 265.89,-105.49 268.45,-97.58"/>
<polygon fill="midnightblue" stroke="midnightblue" points="256.3,-123.8 256.56,-134.4 262.96,-125.96 256.3,-123.8"/>
</g>
<!-- Node14&#45;&gt;Node6 -->
<g id="edge24" class="edge">
<title>Node14&#45;&gt;Node6</title>
<path fill="none" stroke="midnightblue" d="M228,-127.14C220.41,-118.88 212.98,-108.81 209,-98 200.5,-74.89 212.63,-47.02 221.97,-30.58"/>
<polygon fill="midnightblue" stroke="midnightblue" points="225.7,-129.8 235.2,-134.47 230.69,-124.89 225.7,-129.8"/>
</g>
<!-- Node15&#45;&gt;Node11 -->
<g id="edge26" class="edge">
<title>Node15&#45;&gt;Node11</title>
<path fill="none" stroke="midnightblue" d="M580.55,-325.03C579.99,-308.79 578.75,-287.04 576,-268 570.55,-230.3 559.2,-186.82 553.1,-164.83"/>
<polygon fill="midnightblue" stroke="midnightblue" points="577.06,-325.4 580.84,-335.29 584.05,-325.2 577.06,-325.4"/>
</g>
<!-- Node16&#45;&gt;Node3 -->
<g id="edge29" class="edge">
<title>Node16&#45;&gt;Node3</title>
<path fill="none" stroke="midnightblue" d="M236.28,-463.17C249.12,-453.23 264.26,-441.51 275.81,-432.58"/>
<polygon fill="midnightblue" stroke="midnightblue" points="233.99,-460.51 228.23,-469.4 238.28,-466.04 233.99,-460.51"/>
</g>
<!-- Node17&#45;&gt;Node3 -->
<g id="edge31" class="edge">
<title>Node17&#45;&gt;Node3</title>
<path fill="none" stroke="midnightblue" d="M323.53,-461.16C316.97,-451.68 309.52,-440.92 303.75,-432.58"/>
<polygon fill="midnightblue" stroke="midnightblue" points="320.67,-463.17 329.24,-469.4 326.42,-459.18 320.67,-463.17"/>
</g>
</g>
</svg>
