<?xml version="1.0" encoding="UTF-8" standalone="no"?>
<!DOCTYPE svg PUBLIC "-//W3C//DTD SVG 1.1//EN"
 "http://www.w3.org/Graphics/SVG/1.1/DTD/svg11.dtd">
<!-- Generated by graphviz version 2.50.0 (20211204.2007)
 -->
<!-- Title: include/york/Window.hpp Pages: 1 -->
<svg width="404pt" height="196pt"
 viewBox="0.00 0.00 403.50 196.00" xmlns="http://www.w3.org/2000/svg" xmlns:xlink="http://www.w3.org/1999/xlink">
<g id="graph0" class="graph" transform="scale(1 1) rotate(0) translate(4 192)">
<title>include/york/Window.hpp</title>
<!-- Node1 -->
<g id="node1" class="node">
<title>Node1</title>
<g id="a_node1"><a xlink:title=" ">
<polygon fill="#bfbfbf" stroke="black" points="47,-168.5 47,-187.5 172,-187.5 172,-168.5 47,-168.5"/>
<text text-anchor="middle" x="109.5" y="-175.5" font-family="Helvetica,sans-Serif" font-size="10.00">include/york/Window.hpp</text>
</a>
</g>
</g>
<!-- Node2 -->
<g id="node2" class="node">
<title>Node2</title>
<g id="a_node2"><a xlink:title=" ">
<polygon fill="none" stroke="#bfbfbf" points="0,-112.5 0,-131.5 41,-131.5 41,-112.5 0,-112.5"/>
<text text-anchor="middle" x="20.5" y="-119.5" font-family="Helvetica,sans-Serif" font-size="10.00">string</text>
</a>
</g>
</g>
<!-- Node1&#45;&gt;Node2 -->
<g id="edge1" class="edge">
<title>Node1&#45;&gt;Node2</title>
<path fill="none" stroke="midnightblue" d="M95.2,-168.32C81.32,-159.9 60.01,-146.97 43.7,-137.07"/>
<polygon fill="midnightblue" stroke="midnightblue" points="45.13,-133.85 34.76,-131.65 41.5,-139.83 45.13,-133.85"/>
</g>
<!-- Node3 -->
<g id="node3" class="node">
<title>Node3</title>
<g id="a_node3"><a xlink:title=" ">
<polygon fill="none" stroke="#bfbfbf" points="59,-112.5 59,-131.5 160,-131.5 160,-112.5 59,-112.5"/>
<text text-anchor="middle" x="109.5" y="-119.5" font-family="Helvetica,sans-Serif" font-size="10.00">SDL2/SDL_video.h</text>
</a>
</g>
</g>
<!-- Node1&#45;&gt;Node3 -->
<g id="edge2" class="edge">
<title>Node1&#45;&gt;Node3</title>
<path fill="none" stroke="midnightblue" d="M109.5,-168.08C109.5,-161.01 109.5,-150.86 109.5,-141.99"/>
<polygon fill="midnightblue" stroke="midnightblue" points="113,-141.75 109.5,-131.75 106,-141.75 113,-141.75"/>
</g>
<!-- Node4 -->
<g id="node4" class="node">
<title>Node4</title>
<g id="a_node4"><a xlink:href="_handle_8hpp.html" target="_top" xlink:title="Contains the declarations for the Handle classes which form the basis of our Vulkan implementation.">
<polygon fill="none" stroke="black" points="178.5,-112.5 178.5,-131.5 308.5,-131.5 308.5,-112.5 178.5,-112.5"/>
<text text-anchor="middle" x="243.5" y="-119.5" font-family="Helvetica,sans-Serif" font-size="10.00">york/Graphics/Handle.hpp</text>
</a>
</g>
</g>
<!-- Node1&#45;&gt;Node4 -->
<g id="edge3" class="edge">
<title>Node1&#45;&gt;Node4</title>
<path fill="none" stroke="midnightblue" d="M130.73,-168.44C152.88,-159.52 187.82,-145.44 212.94,-135.32"/>
<polygon fill="midnightblue" stroke="midnightblue" points="214.4,-138.5 222.37,-131.52 211.78,-132.01 214.4,-138.5"/>
</g>
<!-- Node5 -->
<g id="node5" class="node">
<title>Node5</title>
<g id="a_node5"><a xlink:title=" ">
<polygon fill="none" stroke="#bfbfbf" points="151.5,-56.5 151.5,-75.5 195.5,-75.5 195.5,-56.5 151.5,-56.5"/>
<text text-anchor="middle" x="173.5" y="-63.5" font-family="Helvetica,sans-Serif" font-size="10.00">vector</text>
</a>
</g>
</g>
<!-- Node4&#45;&gt;Node5 -->
<g id="edge4" class="edge">
<title>Node4&#45;&gt;Node5</title>
<path fill="none" stroke="midnightblue" d="M232.25,-112.32C221.7,-104.18 205.7,-91.84 193.06,-82.09"/>
<polygon fill="midnightblue" stroke="midnightblue" points="195.01,-79.17 184.95,-75.83 190.73,-84.71 195.01,-79.17"/>
</g>
<!-- Node6 -->
<g id="node6" class="node">
<title>Node6</title>
<g id="a_node6"><a xlink:title=" ">
<polygon fill="none" stroke="#bfbfbf" points="214,-56.5 214,-75.5 273,-75.5 273,-56.5 214,-56.5"/>
<text text-anchor="middle" x="243.5" y="-63.5" font-family="Helvetica,sans-Serif" font-size="10.00">functional</text>
</a>
</g>
</g>
<!-- Node4&#45;&gt;Node6 -->
<g id="edge5" class="edge">
<title>Node4&#45;&gt;Node6</title>
<path fill="none" stroke="midnightblue" d="M243.5,-112.08C243.5,-105.01 243.5,-94.86 243.5,-85.99"/>
<polygon fill="midnightblue" stroke="midnightblue" points="247,-85.75 243.5,-75.75 240,-85.75 247,-85.75"/>
</g>
<!-- Node7 -->
<g id="node7" class="node">
<title>Node7</title>
<g id="a_node7"><a xlink:href="_identifiable_8hpp.html" target="_top" xlink:title=" ">
<polygon fill="none" stroke="black" points="291.5,-56.5 291.5,-75.5 395.5,-75.5 395.5,-56.5 291.5,-56.5"/>
<text text-anchor="middle" x="343.5" y="-63.5" font-family="Helvetica,sans-Serif" font-size="10.00">york/Identifiable.hpp</text>
</a>
</g>
</g>
<!-- Node4&#45;&gt;Node7 -->
<g id="edge6" class="edge">
<title>Node4&#45;&gt;Node7</title>
<path fill="none" stroke="midnightblue" d="M259.57,-112.32C275.46,-103.74 300.01,-90.49 318.46,-80.52"/>
<polygon fill="midnightblue" stroke="midnightblue" points="320.34,-83.49 327.47,-75.65 317.01,-77.33 320.34,-83.49"/>
</g>
<!-- Node8 -->
<g id="node8" class="node">
<title>Node8</title>
<g id="a_node8"><a xlink:title=" ">
<polygon fill="none" stroke="#bfbfbf" points="320.5,-0.5 320.5,-19.5 366.5,-19.5 366.5,-0.5 320.5,-0.5"/>
<text text-anchor="middle" x="343.5" y="-7.5" font-family="Helvetica,sans-Serif" font-size="10.00">cstdint</text>
</a>
</g>
</g>
<!-- Node7&#45;&gt;Node8 -->
<g id="edge7" class="edge">
<title>Node7&#45;&gt;Node8</title>
<path fill="none" stroke="midnightblue" d="M343.5,-56.08C343.5,-49.01 343.5,-38.86 343.5,-29.99"/>
<polygon fill="midnightblue" stroke="midnightblue" points="347,-29.75 343.5,-19.75 340,-29.75 347,-29.75"/>
</g>
</g>
</svg>
