<?xml version="1.0" encoding="UTF-8" standalone="no"?>
<!DOCTYPE svg PUBLIC "-//W3C//DTD SVG 1.1//EN"
 "http://www.w3.org/Graphics/SVG/1.1/DTD/svg11.dtd">
<!-- Generated by graphviz version 2.50.0 (20211204.2007)
 -->
<!-- Title: include/york/York.hpp Pages: 1 -->
<svg width="1041pt" height="252pt"
 viewBox="0.00 0.00 1040.50 252.00" xmlns="http://www.w3.org/2000/svg" xmlns:xlink="http://www.w3.org/1999/xlink">
<g id="graph0" class="graph" transform="scale(1 1) rotate(0) translate(4 248)">
<title>include/york/York.hpp</title>
<!-- Node1 -->
<g id="node1" class="node">
<title>Node1</title>
<g id="a_node1"><a xlink:title=" ">
<polygon fill="#bfbfbf" stroke="black" points="507.5,-224.5 507.5,-243.5 617.5,-243.5 617.5,-224.5 507.5,-224.5"/>
<text text-anchor="middle" x="562.5" y="-231.5" font-family="Helvetica,sans-Serif" font-size="10.00">include/york/York.hpp</text>
</a>
</g>
</g>
<!-- Node2 -->
<g id="node2" class="node">
<title>Node2</title>
<g id="a_node2"><a xlink:href="_asset_8hpp.html" target="_top" xlink:title=" ">
<polygon fill="none" stroke="black" points="39,-168.5 39,-187.5 100,-187.5 100,-168.5 39,-168.5"/>
<text text-anchor="middle" x="69.5" y="-175.5" font-family="Helvetica,sans-Serif" font-size="10.00">Asset.hpp</text>
</a>
</g>
</g>
<!-- Node1&#45;&gt;Node2 -->
<g id="edge1" class="edge">
<title>Node1&#45;&gt;Node2</title>
<path fill="none" stroke="midnightblue" d="M507.38,-226.96C407.42,-216.01 198.43,-193.12 110.2,-183.46"/>
<polygon fill="midnightblue" stroke="midnightblue" points="110.37,-179.96 100.05,-182.35 109.61,-186.91 110.37,-179.96"/>
</g>
<!-- Node5 -->
<g id="node5" class="node">
<title>Node5</title>
<g id="a_node5"><a xlink:href="_async_8hpp.html" target="_top" xlink:title=" ">
<polygon fill="none" stroke="black" points="571,-168.5 571,-187.5 634,-187.5 634,-168.5 571,-168.5"/>
<text text-anchor="middle" x="602.5" y="-175.5" font-family="Helvetica,sans-Serif" font-size="10.00">Async.hpp</text>
</a>
</g>
</g>
<!-- Node1&#45;&gt;Node5 -->
<g id="edge4" class="edge">
<title>Node1&#45;&gt;Node5</title>
<path fill="none" stroke="midnightblue" d="M569.11,-224.08C574.76,-216.46 583.04,-205.26 589.95,-195.94"/>
<polygon fill="midnightblue" stroke="midnightblue" points="592.88,-197.87 596.02,-187.75 587.25,-193.7 592.88,-197.87"/>
</g>
<!-- Node8 -->
<g id="node8" class="node">
<title>Node8</title>
<g id="a_node8"><a xlink:href="_event_8hpp.html" target="_top" xlink:title=" ">
<polygon fill="none" stroke="black" points="389,-112.5 389,-131.5 450,-131.5 450,-112.5 389,-112.5"/>
<text text-anchor="middle" x="419.5" y="-119.5" font-family="Helvetica,sans-Serif" font-size="10.00">Event.hpp</text>
</a>
</g>
</g>
<!-- Node1&#45;&gt;Node8 -->
<g id="edge7" class="edge">
<title>Node1&#45;&gt;Node8</title>
<path fill="none" stroke="midnightblue" d="M544.64,-224.4C528.27,-216.13 503.73,-202.75 484.5,-188 465.41,-173.36 446.27,-153.43 433.75,-139.51"/>
<polygon fill="midnightblue" stroke="midnightblue" points="436.12,-136.9 426.88,-131.72 430.87,-141.53 436.12,-136.9"/>
</g>
<!-- Node14 -->
<g id="node14" class="node">
<title>Node14</title>
<g id="a_node14"><a xlink:href="_layer_8hpp.html" target="_top" xlink:title=" ">
<polygon fill="none" stroke="black" points="494,-168.5 494,-187.5 553,-187.5 553,-168.5 494,-168.5"/>
<text text-anchor="middle" x="523.5" y="-175.5" font-family="Helvetica,sans-Serif" font-size="10.00">Layer.hpp</text>
</a>
</g>
</g>
<!-- Node1&#45;&gt;Node14 -->
<g id="edge17" class="edge">
<title>Node1&#45;&gt;Node14</title>
<path fill="none" stroke="midnightblue" d="M556.06,-224.08C550.55,-216.46 542.47,-205.26 535.74,-195.94"/>
<polygon fill="midnightblue" stroke="midnightblue" points="538.51,-193.81 529.82,-187.75 532.84,-197.91 538.51,-193.81"/>
</g>
<!-- Node15 -->
<g id="node15" class="node">
<title>Node15</title>
<g id="a_node15"><a xlink:href="_log_8hpp.html" target="_top" xlink:title=" ">
<polygon fill="none" stroke="black" points="794,-168.5 794,-187.5 845,-187.5 845,-168.5 794,-168.5"/>
<text text-anchor="middle" x="819.5" y="-175.5" font-family="Helvetica,sans-Serif" font-size="10.00">Log.hpp</text>
</a>
</g>
</g>
<!-- Node1&#45;&gt;Node15 -->
<g id="edge20" class="edge">
<title>Node1&#45;&gt;Node15</title>
<path fill="none" stroke="midnightblue" d="M603.22,-224.44C653.07,-213.97 736.66,-196.41 784,-186.46"/>
<polygon fill="midnightblue" stroke="midnightblue" points="784.74,-189.88 793.81,-184.4 783.3,-183.03 784.74,-189.88"/>
</g>
<!-- Node19 -->
<g id="node19" class="node">
<title>Node19</title>
<g id="a_node19"><a xlink:href="_timer_8hpp.html" target="_top" xlink:title=" ">
<polygon fill="none" stroke="black" points="940,-168.5 940,-187.5 999,-187.5 999,-168.5 940,-168.5"/>
<text text-anchor="middle" x="969.5" y="-175.5" font-family="Helvetica,sans-Serif" font-size="10.00">Timer.hpp</text>
</a>
</g>
</g>
<!-- Node1&#45;&gt;Node19 -->
<g id="edge24" class="edge">
<title>Node1&#45;&gt;Node19</title>
<path fill="none" stroke="midnightblue" d="M617.81,-225.66C701.09,-214.61 856.68,-193.97 929.72,-184.28"/>
<polygon fill="midnightblue" stroke="midnightblue" points="930.42,-187.72 939.87,-182.93 929.5,-180.78 930.42,-187.72"/>
</g>
<!-- Node3 -->
<g id="node3" class="node">
<title>Node3</title>
<g id="a_node3"><a xlink:title=" ">
<polygon fill="none" stroke="#bfbfbf" points="0,-112.5 0,-131.5 41,-131.5 41,-112.5 0,-112.5"/>
<text text-anchor="middle" x="20.5" y="-119.5" font-family="Helvetica,sans-Serif" font-size="10.00">string</text>
</a>
</g>
</g>
<!-- Node2&#45;&gt;Node3 -->
<g id="edge2" class="edge">
<title>Node2&#45;&gt;Node3</title>
<path fill="none" stroke="midnightblue" d="M61.41,-168.08C54.34,-160.3 43.91,-148.8 35.35,-139.37"/>
<polygon fill="midnightblue" stroke="midnightblue" points="37.75,-136.8 28.44,-131.75 32.57,-141.51 37.75,-136.8"/>
</g>
<!-- Node4 -->
<g id="node4" class="node">
<title>Node4</title>
<g id="a_node4"><a xlink:title=" ">
<polygon fill="none" stroke="#bfbfbf" points="185.5,-0.5 185.5,-19.5 229.5,-19.5 229.5,-0.5 185.5,-0.5"/>
<text text-anchor="middle" x="207.5" y="-7.5" font-family="Helvetica,sans-Serif" font-size="10.00">vector</text>
</a>
</g>
</g>
<!-- Node2&#45;&gt;Node4 -->
<g id="edge3" class="edge">
<title>Node2&#45;&gt;Node4</title>
<path fill="none" stroke="midnightblue" d="M68.15,-168.22C65.32,-146.51 61.14,-89.66 88.5,-56 109.75,-29.86 147.92,-18.89 175.3,-14.3"/>
<polygon fill="midnightblue" stroke="midnightblue" points="175.83,-17.76 185.21,-12.83 174.81,-10.84 175.83,-17.76"/>
</g>
<!-- Node6 -->
<g id="node6" class="node">
<title>Node6</title>
<g id="a_node6"><a xlink:title=" ">
<polygon fill="none" stroke="#bfbfbf" points="430,-0.5 430,-19.5 489,-19.5 489,-0.5 430,-0.5"/>
<text text-anchor="middle" x="459.5" y="-7.5" font-family="Helvetica,sans-Serif" font-size="10.00">functional</text>
</a>
</g>
</g>
<!-- Node5&#45;&gt;Node6 -->
<g id="edge5" class="edge">
<title>Node5&#45;&gt;Node6</title>
<path fill="none" stroke="midnightblue" d="M603.61,-168.18C605.83,-146.4 608.47,-89.39 580.5,-56 569.69,-43.09 529.89,-29.84 498.86,-21.09"/>
<polygon fill="midnightblue" stroke="midnightblue" points="499.7,-17.69 489.13,-18.41 497.85,-24.44 499.7,-17.69"/>
</g>
<!-- Node7 -->
<g id="node7" class="node">
<title>Node7</title>
<g id="a_node7"><a xlink:title=" ">
<polygon fill="none" stroke="#bfbfbf" points="628.5,-112.5 628.5,-131.5 738.5,-131.5 738.5,-112.5 628.5,-112.5"/>
<text text-anchor="middle" x="683.5" y="-119.5" font-family="Helvetica,sans-Serif" font-size="10.00">taskflow/taskflow.hpp</text>
</a>
</g>
</g>
<!-- Node5&#45;&gt;Node7 -->
<g id="edge6" class="edge">
<title>Node5&#45;&gt;Node7</title>
<path fill="none" stroke="midnightblue" d="M615.51,-168.32C628.03,-159.98 647.18,-147.21 661.97,-137.35"/>
<polygon fill="midnightblue" stroke="midnightblue" points="664.14,-140.11 670.52,-131.65 660.26,-134.29 664.14,-140.11"/>
</g>
<!-- Node8&#45;&gt;Node4 -->
<g id="edge8" class="edge">
<title>Node8&#45;&gt;Node4</title>
<path fill="none" stroke="midnightblue" d="M388.92,-117.63C340.6,-111.71 249.68,-97.93 226.5,-76 213.97,-64.14 209.56,-44.52 208.08,-29.93"/>
<polygon fill="midnightblue" stroke="midnightblue" points="211.55,-29.31 207.42,-19.55 204.56,-29.75 211.55,-29.31"/>
</g>
<!-- Node8&#45;&gt;Node6 -->
<g id="edge9" class="edge">
<title>Node8&#45;&gt;Node6</title>
<path fill="none" stroke="midnightblue" d="M424.09,-112.21C428.65,-103.26 435.63,-88.91 440.5,-76 446.33,-60.53 451.49,-42.44 454.95,-29.28"/>
<polygon fill="midnightblue" stroke="midnightblue" points="458.36,-30.1 457.44,-19.55 451.57,-28.37 458.36,-30.1"/>
</g>
<!-- Node9 -->
<g id="node9" class="node">
<title>Node9</title>
<g id="a_node9"><a xlink:title=" ">
<polygon fill="none" stroke="#bfbfbf" points="325,-56.5 325,-75.5 432,-75.5 432,-56.5 325,-56.5"/>
<text text-anchor="middle" x="378.5" y="-63.5" font-family="Helvetica,sans-Serif" font-size="10.00">SDL2/SDL_events.h</text>
</a>
</g>
</g>
<!-- Node8&#45;&gt;Node9 -->
<g id="edge10" class="edge">
<title>Node8&#45;&gt;Node9</title>
<path fill="none" stroke="midnightblue" d="M412.73,-112.08C406.94,-104.46 398.44,-93.26 391.36,-83.94"/>
<polygon fill="midnightblue" stroke="midnightblue" points="393.98,-81.6 385.14,-75.75 388.4,-85.83 393.98,-81.6"/>
</g>
<!-- Node10 -->
<g id="node10" class="node">
<title>Node10</title>
<g id="a_node10"><a xlink:href="_key_codes_8hpp.html" target="_top" xlink:title=" ">
<polygon fill="none" stroke="black" points="98,-56.5 98,-75.5 179,-75.5 179,-56.5 98,-56.5"/>
<text text-anchor="middle" x="138.5" y="-63.5" font-family="Helvetica,sans-Serif" font-size="10.00">KeyCodes.hpp</text>
</a>
</g>
</g>
<!-- Node8&#45;&gt;Node10 -->
<g id="edge11" class="edge">
<title>Node8&#45;&gt;Node10</title>
<path fill="none" stroke="midnightblue" d="M388.89,-115.12C340.85,-105.89 247.25,-87.9 189.09,-76.72"/>
<polygon fill="midnightblue" stroke="midnightblue" points="189.49,-73.24 179.01,-74.78 188.17,-80.11 189.49,-73.24"/>
</g>
<!-- Node11 -->
<g id="node11" class="node">
<title>Node11</title>
<g id="a_node11"><a xlink:href="_identifiable_8hpp.html" target="_top" xlink:title=" ">
<polygon fill="none" stroke="black" points="489,-56.5 489,-75.5 572,-75.5 572,-56.5 489,-56.5"/>
<text text-anchor="middle" x="530.5" y="-63.5" font-family="Helvetica,sans-Serif" font-size="10.00">Identifiable.hpp</text>
</a>
</g>
</g>
<!-- Node8&#45;&gt;Node11 -->
<g id="edge12" class="edge">
<title>Node8&#45;&gt;Node11</title>
<path fill="none" stroke="midnightblue" d="M437.33,-112.32C455.22,-103.62 482.98,-90.12 503.55,-80.11"/>
<polygon fill="midnightblue" stroke="midnightblue" points="505.25,-83.18 512.71,-75.65 502.19,-76.88 505.25,-83.18"/>
</g>
<!-- Node13 -->
<g id="node13" class="node">
<title>Node13</title>
<g id="a_node13"><a xlink:href="_registry_8hpp.html" target="_top" xlink:title=" ">
<polygon fill="none" stroke="black" points="236,-56.5 236,-75.5 307,-75.5 307,-56.5 236,-56.5"/>
<text text-anchor="middle" x="271.5" y="-63.5" font-family="Helvetica,sans-Serif" font-size="10.00">Registry.hpp</text>
</a>
</g>
</g>
<!-- Node8&#45;&gt;Node13 -->
<g id="edge14" class="edge">
<title>Node8&#45;&gt;Node13</title>
<path fill="none" stroke="midnightblue" d="M396.05,-112.44C371.37,-103.44 332.31,-89.19 304.52,-79.05"/>
<polygon fill="midnightblue" stroke="midnightblue" points="305.44,-75.66 294.84,-75.52 303.04,-82.23 305.44,-75.66"/>
</g>
<!-- Node12 -->
<g id="node12" class="node">
<title>Node12</title>
<g id="a_node12"><a xlink:title=" ">
<polygon fill="none" stroke="#bfbfbf" points="507.5,-0.5 507.5,-19.5 553.5,-19.5 553.5,-0.5 507.5,-0.5"/>
<text text-anchor="middle" x="530.5" y="-7.5" font-family="Helvetica,sans-Serif" font-size="10.00">cstdint</text>
</a>
</g>
</g>
<!-- Node11&#45;&gt;Node12 -->
<g id="edge13" class="edge">
<title>Node11&#45;&gt;Node12</title>
<path fill="none" stroke="midnightblue" d="M530.5,-56.08C530.5,-49.01 530.5,-38.86 530.5,-29.99"/>
<polygon fill="midnightblue" stroke="midnightblue" points="534,-29.75 530.5,-19.75 527,-29.75 534,-29.75"/>
</g>
<!-- Node13&#45;&gt;Node4 -->
<g id="edge15" class="edge">
<title>Node13&#45;&gt;Node4</title>
<path fill="none" stroke="midnightblue" d="M261.22,-56.32C251.66,-48.26 237.22,-36.08 225.72,-26.37"/>
<polygon fill="midnightblue" stroke="midnightblue" points="227.87,-23.61 217.97,-19.83 223.36,-28.96 227.87,-23.61"/>
</g>
<!-- Node13&#45;&gt;Node6 -->
<g id="edge16" class="edge">
<title>Node13&#45;&gt;Node6</title>
<path fill="none" stroke="midnightblue" d="M301.29,-56.44C333.33,-47.24 384.43,-32.56 419.85,-22.39"/>
<polygon fill="midnightblue" stroke="midnightblue" points="421.21,-25.64 429.85,-19.52 419.27,-18.91 421.21,-25.64"/>
</g>
<!-- Node14&#45;&gt;Node8 -->
<g id="edge18" class="edge">
<title>Node14&#45;&gt;Node8</title>
<path fill="none" stroke="midnightblue" d="M506.79,-168.32C490.19,-159.7 464.5,-146.36 445.28,-136.39"/>
<polygon fill="midnightblue" stroke="midnightblue" points="446.66,-133.16 436.17,-131.65 443.43,-139.37 446.66,-133.16"/>
</g>
<!-- Node14&#45;&gt;Node11 -->
<g id="edge19" class="edge">
<title>Node14&#45;&gt;Node11</title>
<path fill="none" stroke="midnightblue" d="M524.05,-168.37C525.18,-150.62 527.78,-109.67 529.32,-85.6"/>
<polygon fill="midnightblue" stroke="midnightblue" points="532.81,-85.79 529.95,-75.59 525.83,-85.35 532.81,-85.79"/>
</g>
<!-- Node16 -->
<g id="node16" class="node">
<title>Node16</title>
<g id="a_node16"><a xlink:title=" ">
<polygon fill="none" stroke="#bfbfbf" points="756.5,-112.5 756.5,-131.5 808.5,-131.5 808.5,-112.5 756.5,-112.5"/>
<text text-anchor="middle" x="782.5" y="-119.5" font-family="Helvetica,sans-Serif" font-size="10.00">memory</text>
</a>
</g>
</g>
<!-- Node15&#45;&gt;Node16 -->
<g id="edge21" class="edge">
<title>Node15&#45;&gt;Node16</title>
<path fill="none" stroke="midnightblue" d="M813.39,-168.08C808.22,-160.53 800.65,-149.49 794.31,-140.23"/>
<polygon fill="midnightblue" stroke="midnightblue" points="797.04,-138.02 788.5,-131.75 791.26,-141.98 797.04,-138.02"/>
</g>
<!-- Node17 -->
<g id="node17" class="node">
<title>Node17</title>
<g id="a_node17"><a xlink:title=" ">
<polygon fill="none" stroke="#bfbfbf" points="826.5,-112.5 826.5,-131.5 888.5,-131.5 888.5,-112.5 826.5,-112.5"/>
<text text-anchor="middle" x="857.5" y="-119.5" font-family="Helvetica,sans-Serif" font-size="10.00">fmt/color.h</text>
</a>
</g>
</g>
<!-- Node15&#45;&gt;Node17 -->
<g id="edge22" class="edge">
<title>Node15&#45;&gt;Node17</title>
<path fill="none" stroke="midnightblue" d="M825.77,-168.08C831.14,-160.46 839.02,-149.26 845.58,-139.94"/>
<polygon fill="midnightblue" stroke="midnightblue" points="848.45,-141.94 851.34,-131.75 842.72,-137.91 848.45,-141.94"/>
</g>
<!-- Node18 -->
<g id="node18" class="node">
<title>Node18</title>
<g id="a_node18"><a xlink:title=" ">
<polygon fill="none" stroke="#bfbfbf" points="907,-112.5 907,-131.5 968,-131.5 968,-112.5 907,-112.5"/>
<text text-anchor="middle" x="937.5" y="-119.5" font-family="Helvetica,sans-Serif" font-size="10.00">fmt/core.h</text>
</a>
</g>
</g>
<!-- Node15&#45;&gt;Node18 -->
<g id="edge23" class="edge">
<title>Node15&#45;&gt;Node18</title>
<path fill="none" stroke="midnightblue" d="M838.2,-168.44C857.44,-159.64 887.65,-145.81 909.7,-135.72"/>
<polygon fill="midnightblue" stroke="midnightblue" points="911.25,-138.86 918.89,-131.52 908.34,-132.5 911.25,-138.86"/>
</g>
<!-- Node20 -->
<g id="node20" class="node">
<title>Node20</title>
<g id="a_node20"><a xlink:title=" ">
<polygon fill="none" stroke="#bfbfbf" points="986.5,-112.5 986.5,-131.5 1032.5,-131.5 1032.5,-112.5 986.5,-112.5"/>
<text text-anchor="middle" x="1009.5" y="-119.5" font-family="Helvetica,sans-Serif" font-size="10.00">chrono</text>
</a>
</g>
</g>
<!-- Node19&#45;&gt;Node20 -->
<g id="edge25" class="edge">
<title>Node19&#45;&gt;Node20</title>
<path fill="none" stroke="midnightblue" d="M976.11,-168.08C981.76,-160.46 990.04,-149.26 996.95,-139.94"/>
<polygon fill="midnightblue" stroke="midnightblue" points="999.88,-141.87 1003.02,-131.75 994.25,-137.7 999.88,-141.87"/>
</g>
</g>
</svg>
