<?xml version="1.0" encoding="UTF-8" standalone="no"?>
<!DOCTYPE svg PUBLIC "-//W3C//DTD SVG 1.1//EN"
 "http://www.w3.org/Graphics/SVG/1.1/DTD/svg11.dtd">
<!-- Generated by graphviz version 2.50.0 (20211204.2007)
 -->
<!-- Title: york::graphics::HandleBase Pages: 1 -->
<svg width="630pt" height="791pt"
 viewBox="0.00 0.00 630.00 790.50" xmlns="http://www.w3.org/2000/svg" xmlns:xlink="http://www.w3.org/1999/xlink">
<g id="graph0" class="graph" transform="scale(1 1) rotate(0) translate(4 786.5)">
<title>york::graphics::HandleBase</title>
<!-- Node1 -->
<g id="node1" class="node">
<title>Node1</title>
<g id="a_node1"><a xlink:title=" ">
<polygon fill="#bfbfbf" stroke="black" points="125,-365.5 125,-384.5 262,-384.5 262,-365.5 125,-365.5"/>
<text text-anchor="middle" x="193.5" y="-372.5" font-family="Helvetica,sans-Serif" font-size="10.00">york::graphics::HandleBase</text>
</a>
</g>
</g>
<!-- Node3 -->
<g id="node3" class="node">
<title>Node3</title>
<g id="a_node3"><a xlink:href="classyork_1_1graphics_1_1_handle.html" target="_top" xlink:title=" ">
<polygon fill="none" stroke="black" points="309.5,-752 309.5,-782 425.5,-782 425.5,-752 309.5,-752"/>
<text text-anchor="start" x="317.5" y="-770" font-family="Helvetica,sans-Serif" font-size="10.00">york::graphics::Handle</text>
<text text-anchor="middle" x="367.5" y="-759" font-family="Helvetica,sans-Serif" font-size="10.00">&lt; vk::CommandPool &gt;</text>
</a>
</g>
</g>
<!-- Node1&#45;&gt;Node3 -->
<g id="edge2" class="edge">
<title>Node1&#45;&gt;Node3</title>
<path fill="none" stroke="midnightblue" d="M194.09,-394.92C193.92,-455.64 201.75,-640.51 298,-743 301.28,-746.49 305.09,-749.47 309.21,-752.02"/>
<polygon fill="midnightblue" stroke="midnightblue" points="197.59,-394.82 194.19,-384.78 190.59,-394.74 197.59,-394.82"/>
</g>
<!-- Node5 -->
<g id="node5" class="node">
<title>Node5</title>
<g id="a_node5"><a xlink:href="classyork_1_1graphics_1_1_handle.html" target="_top" xlink:title=" ">
<polygon fill="none" stroke="black" points="310,-703 310,-733 425,-733 425,-703 310,-703"/>
<text text-anchor="start" x="318" y="-721" font-family="Helvetica,sans-Serif" font-size="10.00">york::graphics::Handle</text>
<text text-anchor="middle" x="367.5" y="-710" font-family="Helvetica,sans-Serif" font-size="10.00">&lt; vk::Device &gt;</text>
</a>
</g>
</g>
<!-- Node1&#45;&gt;Node5 -->
<g id="edge4" class="edge">
<title>Node1&#45;&gt;Node5</title>
<path fill="none" stroke="midnightblue" d="M195.1,-394.78C197.84,-449.93 213.1,-607.1 298,-694 301.43,-697.52 305.41,-700.52 309.69,-703.08"/>
<polygon fill="midnightblue" stroke="midnightblue" points="198.59,-394.47 194.68,-384.62 191.6,-394.75 198.59,-394.47"/>
</g>
<!-- Node7 -->
<g id="node7" class="node">
<title>Node7</title>
<g id="a_node7"><a xlink:href="classyork_1_1graphics_1_1_handle.html" target="_top" xlink:title=" ">
<polygon fill="none" stroke="black" points="310,-654 310,-684 425,-684 425,-654 310,-654"/>
<text text-anchor="start" x="318" y="-672" font-family="Helvetica,sans-Serif" font-size="10.00">york::graphics::Handle</text>
<text text-anchor="middle" x="367.5" y="-661" font-family="Helvetica,sans-Serif" font-size="10.00">&lt; vk::Fence &gt;</text>
</a>
</g>
</g>
<!-- Node1&#45;&gt;Node7 -->
<g id="edge6" class="edge">
<title>Node1&#45;&gt;Node7</title>
<path fill="none" stroke="midnightblue" d="M196.43,-394.65C202.31,-443.84 224.34,-573.45 298,-645 301.53,-648.42 305.57,-651.36 309.88,-653.88"/>
<polygon fill="midnightblue" stroke="midnightblue" points="199.91,-394.24 195.34,-384.69 192.95,-395.01 199.91,-394.24"/>
</g>
<!-- Node9 -->
<g id="node9" class="node">
<title>Node9</title>
<g id="a_node9"><a xlink:href="classyork_1_1graphics_1_1_handle.html" target="_top" xlink:title=" ">
<polygon fill="none" stroke="black" points="310,-605 310,-635 425,-635 425,-605 310,-605"/>
<text text-anchor="start" x="318" y="-623" font-family="Helvetica,sans-Serif" font-size="10.00">york::graphics::Handle</text>
<text text-anchor="middle" x="367.5" y="-612" font-family="Helvetica,sans-Serif" font-size="10.00">&lt; vk::Framebuffer &gt;</text>
</a>
</g>
</g>
<!-- Node1&#45;&gt;Node9 -->
<g id="edge8" class="edge">
<title>Node1&#45;&gt;Node9</title>
<path fill="none" stroke="midnightblue" d="M198.28,-394.45C207.55,-437.08 235.39,-539.41 298,-596 301.83,-599.46 306.2,-602.43 310.82,-604.98"/>
<polygon fill="midnightblue" stroke="midnightblue" points="201.68,-393.62 196.23,-384.53 194.82,-395.03 201.68,-393.62"/>
</g>
<!-- Node11 -->
<g id="node11" class="node">
<title>Node11</title>
<g id="a_node11"><a xlink:href="classyork_1_1graphics_1_1_handle.html" target="_top" xlink:title=" ">
<polygon fill="none" stroke="black" points="310,-556 310,-586 425,-586 425,-556 310,-556"/>
<text text-anchor="start" x="318" y="-574" font-family="Helvetica,sans-Serif" font-size="10.00">york::graphics::Handle</text>
<text text-anchor="middle" x="367.5" y="-563" font-family="Helvetica,sans-Serif" font-size="10.00">&lt; vk::ImageView &gt;</text>
</a>
</g>
</g>
<!-- Node1&#45;&gt;Node11 -->
<g id="edge10" class="edge">
<title>Node1&#45;&gt;Node11</title>
<path fill="none" stroke="midnightblue" d="M201.1,-394.39C214.09,-429.75 246.31,-504.94 298,-547 302.2,-550.42 306.93,-553.37 311.88,-555.91"/>
<polygon fill="midnightblue" stroke="midnightblue" points="204.33,-393.02 197.68,-384.77 197.73,-395.37 204.33,-393.02"/>
</g>
<!-- Node13 -->
<g id="node13" class="node">
<title>Node13</title>
<g id="a_node13"><a xlink:href="classyork_1_1graphics_1_1_handle.html" target="_top" xlink:title=" ">
<polygon fill="none" stroke="black" points="310,-507 310,-537 425,-537 425,-507 310,-507"/>
<text text-anchor="start" x="318" y="-525" font-family="Helvetica,sans-Serif" font-size="10.00">york::graphics::Handle</text>
<text text-anchor="middle" x="367.5" y="-514" font-family="Helvetica,sans-Serif" font-size="10.00">&lt; vk::Instance &gt;</text>
</a>
</g>
</g>
<!-- Node1&#45;&gt;Node13 -->
<g id="edge12" class="edge">
<title>Node1&#45;&gt;Node13</title>
<path fill="none" stroke="midnightblue" d="M205.54,-393.58C222.32,-420.3 256.68,-469.48 298,-498 302.87,-501.36 308.27,-504.3 313.83,-506.86"/>
<polygon fill="midnightblue" stroke="midnightblue" points="208.39,-391.53 200.18,-384.83 202.42,-395.19 208.39,-391.53"/>
</g>
<!-- Node15 -->
<g id="node15" class="node">
<title>Node15</title>
<g id="a_node15"><a xlink:href="classyork_1_1graphics_1_1_handle.html" target="_top" xlink:title=" ">
<polygon fill="none" stroke="black" points="310,-458 310,-488 425,-488 425,-458 310,-458"/>
<text text-anchor="start" x="318" y="-476" font-family="Helvetica,sans-Serif" font-size="10.00">york::graphics::Handle</text>
<text text-anchor="middle" x="367.5" y="-465" font-family="Helvetica,sans-Serif" font-size="10.00">&lt; vk::Pipeline &gt;</text>
</a>
</g>
</g>
<!-- Node1&#45;&gt;Node15 -->
<g id="edge14" class="edge">
<title>Node1&#45;&gt;Node15</title>
<path fill="none" stroke="midnightblue" d="M213.72,-390.92C233.78,-406.94 266.63,-431.59 298,-448 304.95,-451.64 312.56,-454.98 320.09,-457.96"/>
<polygon fill="midnightblue" stroke="midnightblue" points="215.92,-388.2 205.95,-384.62 211.52,-393.64 215.92,-388.2"/>
</g>
<!-- Node17 -->
<g id="node17" class="node">
<title>Node17</title>
<g id="a_node17"><a xlink:href="classyork_1_1graphics_1_1_handle.html" target="_top" xlink:title=" ">
<polygon fill="none" stroke="black" points="310,-409 310,-439 425,-439 425,-409 310,-409"/>
<text text-anchor="start" x="318" y="-427" font-family="Helvetica,sans-Serif" font-size="10.00">york::graphics::Handle</text>
<text text-anchor="middle" x="367.5" y="-416" font-family="Helvetica,sans-Serif" font-size="10.00">&lt; vk::PipelineLayout &gt;</text>
</a>
</g>
</g>
<!-- Node1&#45;&gt;Node17 -->
<g id="edge16" class="edge">
<title>Node1&#45;&gt;Node17</title>
<path fill="none" stroke="midnightblue" d="M237.91,-387.37C260.94,-393.93 289.42,-402.04 313.72,-408.96"/>
<polygon fill="midnightblue" stroke="midnightblue" points="238.65,-383.94 228.07,-384.56 236.73,-390.67 238.65,-383.94"/>
</g>
<!-- Node19 -->
<g id="node19" class="node">
<title>Node19</title>
<g id="a_node19"><a xlink:href="classyork_1_1graphics_1_1_handle.html" target="_top" xlink:title=" ">
<polygon fill="none" stroke="black" points="310,-360 310,-390 425,-390 425,-360 310,-360"/>
<text text-anchor="start" x="318" y="-378" font-family="Helvetica,sans-Serif" font-size="10.00">york::graphics::Handle</text>
<text text-anchor="middle" x="367.5" y="-367" font-family="Helvetica,sans-Serif" font-size="10.00">&lt; vk::RenderPass &gt;</text>
</a>
</g>
</g>
<!-- Node1&#45;&gt;Node19 -->
<g id="edge18" class="edge">
<title>Node1&#45;&gt;Node19</title>
<path fill="none" stroke="midnightblue" d="M272.49,-375C285.07,-375 297.87,-375 309.82,-375"/>
<polygon fill="midnightblue" stroke="midnightblue" points="272.48,-371.5 262.48,-375 272.48,-378.5 272.48,-371.5"/>
</g>
<!-- Node21 -->
<g id="node21" class="node">
<title>Node21</title>
<g id="a_node21"><a xlink:href="classyork_1_1graphics_1_1_handle.html" target="_top" xlink:title=" ">
<polygon fill="none" stroke="black" points="310,-311 310,-341 425,-341 425,-311 310,-311"/>
<text text-anchor="start" x="318" y="-329" font-family="Helvetica,sans-Serif" font-size="10.00">york::graphics::Handle</text>
<text text-anchor="middle" x="367.5" y="-318" font-family="Helvetica,sans-Serif" font-size="10.00">&lt; vk::Semaphore &gt;</text>
</a>
</g>
</g>
<!-- Node1&#45;&gt;Node21 -->
<g id="edge20" class="edge">
<title>Node1&#45;&gt;Node21</title>
<path fill="none" stroke="midnightblue" d="M237.91,-362.63C260.94,-356.07 289.42,-347.96 313.72,-341.04"/>
<polygon fill="midnightblue" stroke="midnightblue" points="236.73,-359.33 228.07,-365.44 238.65,-366.06 236.73,-359.33"/>
</g>
<!-- Node23 -->
<g id="node23" class="node">
<title>Node23</title>
<g id="a_node23"><a xlink:href="classyork_1_1graphics_1_1_handle.html" target="_top" xlink:title=" ">
<polygon fill="none" stroke="black" points="310,-262 310,-292 425,-292 425,-262 310,-262"/>
<text text-anchor="start" x="318" y="-280" font-family="Helvetica,sans-Serif" font-size="10.00">york::graphics::Handle</text>
<text text-anchor="middle" x="367.5" y="-269" font-family="Helvetica,sans-Serif" font-size="10.00">&lt; vk::ShaderModule &gt;</text>
</a>
</g>
</g>
<!-- Node1&#45;&gt;Node23 -->
<g id="edge22" class="edge">
<title>Node1&#45;&gt;Node23</title>
<path fill="none" stroke="midnightblue" d="M213.32,-359.03C233.28,-342.7 266.27,-317.48 298,-301 304.26,-297.75 311.06,-294.77 317.87,-292.1"/>
<polygon fill="midnightblue" stroke="midnightblue" points="211.06,-356.35 205.6,-365.43 215.53,-361.74 211.06,-356.35"/>
</g>
<!-- Node25 -->
<g id="node25" class="node">
<title>Node25</title>
<g id="a_node25"><a xlink:href="classyork_1_1graphics_1_1_handle.html" target="_top" xlink:title=" ">
<polygon fill="none" stroke="black" points="310,-213 310,-243 425,-243 425,-213 310,-213"/>
<text text-anchor="start" x="318" y="-231" font-family="Helvetica,sans-Serif" font-size="10.00">york::graphics::Handle</text>
<text text-anchor="middle" x="367.5" y="-220" font-family="Helvetica,sans-Serif" font-size="10.00">&lt; vk::SurfaceKHR &gt;</text>
</a>
</g>
</g>
<!-- Node1&#45;&gt;Node25 -->
<g id="edge24" class="edge">
<title>Node1&#45;&gt;Node25</title>
<path fill="none" stroke="midnightblue" d="M205.54,-356.42C222.32,-329.7 256.68,-280.52 298,-252 302.87,-248.64 308.27,-245.7 313.83,-243.14"/>
<polygon fill="midnightblue" stroke="midnightblue" points="202.42,-354.81 200.18,-365.17 208.39,-358.47 202.42,-354.81"/>
</g>
<!-- Node27 -->
<g id="node27" class="node">
<title>Node27</title>
<g id="a_node27"><a xlink:href="classyork_1_1graphics_1_1_handle.html" target="_top" xlink:title=" ">
<polygon fill="none" stroke="black" points="307,-164 307,-194 428,-194 428,-164 307,-164"/>
<text text-anchor="start" x="315" y="-182" font-family="Helvetica,sans-Serif" font-size="10.00">york::graphics::Handle</text>
<text text-anchor="middle" x="367.5" y="-171" font-family="Helvetica,sans-Serif" font-size="10.00">&lt; vk::SwapchainKHR &gt;</text>
</a>
</g>
</g>
<!-- Node1&#45;&gt;Node27 -->
<g id="edge26" class="edge">
<title>Node1&#45;&gt;Node27</title>
<path fill="none" stroke="midnightblue" d="M201.1,-355.61C214.09,-320.25 246.31,-245.06 298,-203 302.2,-199.58 306.93,-196.63 311.88,-194.09"/>
<polygon fill="midnightblue" stroke="midnightblue" points="197.73,-354.63 197.68,-365.23 204.33,-356.98 197.73,-354.63"/>
</g>
<!-- Node29 -->
<g id="node29" class="node">
<title>Node29</title>
<g id="a_node29"><a xlink:href="classyork_1_1graphics_1_1_handle.html" target="_top" xlink:title=" ">
<polygon fill="none" stroke="black" points="310,-115 310,-145 425,-145 425,-115 310,-115"/>
<text text-anchor="start" x="318" y="-133" font-family="Helvetica,sans-Serif" font-size="10.00">york::graphics::Handle</text>
<text text-anchor="middle" x="367.5" y="-122" font-family="Helvetica,sans-Serif" font-size="10.00">&lt; SDL_Window * &gt;</text>
</a>
</g>
</g>
<!-- Node1&#45;&gt;Node29 -->
<g id="edge28" class="edge">
<title>Node1&#45;&gt;Node29</title>
<path fill="none" stroke="midnightblue" d="M198.28,-355.55C207.55,-312.92 235.39,-210.59 298,-154 301.83,-150.54 306.2,-147.57 310.82,-145.02"/>
<polygon fill="midnightblue" stroke="midnightblue" points="194.82,-354.97 196.23,-365.47 201.68,-356.38 194.82,-354.97"/>
</g>
<!-- Node31 -->
<g id="node31" class="node">
<title>Node31</title>
<g id="a_node31"><a xlink:href="classyork_1_1_renderer.html" target="_top" xlink:title="The Renderer allows you to draw content to a Window.">
<polygon fill="none" stroke="black" points="327,-76.5 327,-95.5 408,-95.5 408,-76.5 327,-76.5"/>
<text text-anchor="middle" x="367.5" y="-83.5" font-family="Helvetica,sans-Serif" font-size="10.00">york::Renderer</text>
</a>
</g>
</g>
<!-- Node1&#45;&gt;Node31 -->
<g id="edge30" class="edge">
<title>Node1&#45;&gt;Node31</title>
<path fill="none" stroke="midnightblue" d="M196.12,-355.38C201.28,-305.75 221.83,-174.22 298,-105 305.95,-97.78 316.4,-93.27 326.75,-90.47"/>
<polygon fill="midnightblue" stroke="midnightblue" points="192.62,-355.14 195.17,-365.42 199.59,-355.8 192.62,-355.14"/>
</g>
<!-- Node32 -->
<g id="node32" class="node">
<title>Node32</title>
<g id="a_node32"><a xlink:href="classyork_1_1graphics_1_1_frame_data.html" target="_top" xlink:title="Contains the necessary synchronization data structures, framebuffer and command buffer for a frame.">
<polygon fill="none" stroke="black" points="301,-38.5 301,-57.5 434,-57.5 434,-38.5 301,-38.5"/>
<text text-anchor="middle" x="367.5" y="-45.5" font-family="Helvetica,sans-Serif" font-size="10.00">york::graphics::FrameData</text>
</a>
</g>
</g>
<!-- Node1&#45;&gt;Node32 -->
<g id="edge31" class="edge">
<title>Node1&#45;&gt;Node32</title>
<path fill="none" stroke="midnightblue" d="M195.06,-355.24C197.71,-300.88 212.76,-147.79 298,-67 302.03,-63.18 306.76,-60.12 311.82,-57.66"/>
<polygon fill="midnightblue" stroke="midnightblue" points="191.56,-355.15 194.66,-365.28 198.56,-355.43 191.56,-355.15"/>
</g>
<!-- Node33 -->
<g id="node33" class="node">
<title>Node33</title>
<g id="a_node33"><a xlink:href="classyork_1_1graphics_1_1_handle.html" target="_top" xlink:title="A template wrapper that allows any type to be treated as handle.">
<polygon fill="none" stroke="black" points="298,-0.5 298,-19.5 437,-19.5 437,-0.5 298,-0.5"/>
<text text-anchor="middle" x="367.5" y="-7.5" font-family="Helvetica,sans-Serif" font-size="10.00">york::graphics::Handle&lt; T &gt;</text>
</a>
</g>
</g>
<!-- Node1&#45;&gt;Node33 -->
<g id="edge32" class="edge">
<title>Node1&#45;&gt;Node33</title>
<path fill="none" stroke="midnightblue" d="M194.21,-355.22C194.48,-296.5 203.55,-121.58 298,-29 301.97,-25.11 306.65,-22 311.69,-19.52"/>
<polygon fill="midnightblue" stroke="midnightblue" points="190.71,-355.37 194.25,-365.35 197.71,-355.34 190.71,-355.37"/>
</g>
<!-- Node2 -->
<g id="node2" class="node">
<title>Node2</title>
<g id="a_node2"><a xlink:href="classyork_1_1_identifiable.html" target="_top" xlink:title=" ">
<polygon fill="none" stroke="black" points="0,-365.5 0,-384.5 89,-384.5 89,-365.5 0,-365.5"/>
<text text-anchor="middle" x="44.5" y="-372.5" font-family="Helvetica,sans-Serif" font-size="10.00">york::Identifiable</text>
</a>
</g>
</g>
<!-- Node2&#45;&gt;Node1 -->
<g id="edge1" class="edge">
<title>Node2&#45;&gt;Node1</title>
<path fill="none" stroke="midnightblue" d="M99.22,-375C107.6,-375 116.36,-375 125,-375"/>
<polygon fill="midnightblue" stroke="midnightblue" points="99.21,-371.5 89.21,-375 99.21,-378.5 99.21,-371.5"/>
</g>
<!-- Node4 -->
<g id="node4" class="node">
<title>Node4</title>
<g id="a_node4"><a xlink:href="classyork_1_1graphics_1_1_command_pool.html" target="_top" xlink:title="Handle wrapper for Vulkan Command Pool.">
<polygon fill="none" stroke="black" points="473,-757.5 473,-776.5 622,-776.5 622,-757.5 473,-757.5"/>
<text text-anchor="middle" x="547.5" y="-764.5" font-family="Helvetica,sans-Serif" font-size="10.00">york::graphics::CommandPool</text>
</a>
</g>
</g>
<!-- Node3&#45;&gt;Node4 -->
<g id="edge3" class="edge">
<title>Node3&#45;&gt;Node4</title>
<path fill="none" stroke="midnightblue" d="M436.14,-767C448.1,-767 460.6,-767 472.71,-767"/>
<polygon fill="midnightblue" stroke="midnightblue" points="435.8,-763.5 425.8,-767 435.8,-770.5 435.8,-763.5"/>
</g>
<!-- Node6 -->
<g id="node6" class="node">
<title>Node6</title>
<g id="a_node6"><a xlink:href="classyork_1_1graphics_1_1_device.html" target="_top" xlink:title="A class representing a GPU device.">
<polygon fill="none" stroke="black" points="490,-708.5 490,-727.5 605,-727.5 605,-708.5 490,-708.5"/>
<text text-anchor="middle" x="547.5" y="-715.5" font-family="Helvetica,sans-Serif" font-size="10.00">york::graphics::Device</text>
</a>
</g>
</g>
<!-- Node5&#45;&gt;Node6 -->
<g id="edge5" class="edge">
<title>Node5&#45;&gt;Node6</title>
<path fill="none" stroke="midnightblue" d="M435.42,-718C453.37,-718 472.6,-718 489.92,-718"/>
<polygon fill="midnightblue" stroke="midnightblue" points="435.31,-714.5 425.31,-718 435.31,-721.5 435.31,-714.5"/>
</g>
<!-- Node8 -->
<g id="node8" class="node">
<title>Node8</title>
<g id="a_node8"><a xlink:href="classyork_1_1graphics_1_1_fence.html" target="_top" xlink:title="Handle wrapper for Vulkan Fence.">
<polygon fill="none" stroke="black" points="492,-659.5 492,-678.5 603,-678.5 603,-659.5 492,-659.5"/>
<text text-anchor="middle" x="547.5" y="-666.5" font-family="Helvetica,sans-Serif" font-size="10.00">york::graphics::Fence</text>
</a>
</g>
</g>
<!-- Node7&#45;&gt;Node8 -->
<g id="edge7" class="edge">
<title>Node7&#45;&gt;Node8</title>
<path fill="none" stroke="midnightblue" d="M435.46,-669C454.03,-669 473.97,-669 491.75,-669"/>
<polygon fill="midnightblue" stroke="midnightblue" points="435.31,-665.5 425.31,-669 435.31,-672.5 435.31,-665.5"/>
</g>
<!-- Node10 -->
<g id="node10" class="node">
<title>Node10</title>
<g id="a_node10"><a xlink:href="classyork_1_1graphics_1_1_framebuffer.html" target="_top" xlink:title="Handle wrapper for Vulkan Framebuffer.">
<polygon fill="none" stroke="black" points="479,-610.5 479,-629.5 616,-629.5 616,-610.5 479,-610.5"/>
<text text-anchor="middle" x="547.5" y="-617.5" font-family="Helvetica,sans-Serif" font-size="10.00">york::graphics::Framebuffer</text>
</a>
</g>
</g>
<!-- Node9&#45;&gt;Node10 -->
<g id="edge9" class="edge">
<title>Node9&#45;&gt;Node10</title>
<path fill="none" stroke="midnightblue" d="M435.45,-620C449.6,-620 464.54,-620 478.72,-620"/>
<polygon fill="midnightblue" stroke="midnightblue" points="435.31,-616.5 425.31,-620 435.31,-623.5 435.31,-616.5"/>
</g>
<!-- Node12 -->
<g id="node12" class="node">
<title>Node12</title>
<g id="a_node12"><a xlink:href="classyork_1_1graphics_1_1_image_view.html" target="_top" xlink:title="Handle wrapper for Vulkan Image Views.">
<polygon fill="none" stroke="black" points="481,-561.5 481,-580.5 614,-580.5 614,-561.5 481,-561.5"/>
<text text-anchor="middle" x="547.5" y="-568.5" font-family="Helvetica,sans-Serif" font-size="10.00">york::graphics::ImageView</text>
</a>
</g>
</g>
<!-- Node11&#45;&gt;Node12 -->
<g id="edge11" class="edge">
<title>Node11&#45;&gt;Node12</title>
<path fill="none" stroke="midnightblue" d="M435.45,-571C450.34,-571 466.1,-571 480.93,-571"/>
<polygon fill="midnightblue" stroke="midnightblue" points="435.31,-567.5 425.31,-571 435.31,-574.5 435.31,-567.5"/>
</g>
<!-- Node14 -->
<g id="node14" class="node">
<title>Node14</title>
<g id="a_node14"><a xlink:href="classyork_1_1graphics_1_1_instance.html" target="_top" xlink:title="A handle for Vulkan instances.">
<polygon fill="none" stroke="black" points="486.5,-512.5 486.5,-531.5 608.5,-531.5 608.5,-512.5 486.5,-512.5"/>
<text text-anchor="middle" x="547.5" y="-519.5" font-family="Helvetica,sans-Serif" font-size="10.00">york::graphics::Instance</text>
</a>
</g>
</g>
<!-- Node13&#45;&gt;Node14 -->
<g id="edge13" class="edge">
<title>Node13&#45;&gt;Node14</title>
<path fill="none" stroke="midnightblue" d="M435.52,-522C452.17,-522 469.93,-522 486.24,-522"/>
<polygon fill="midnightblue" stroke="midnightblue" points="435.31,-518.5 425.31,-522 435.31,-525.5 435.31,-518.5"/>
</g>
<!-- Node16 -->
<g id="node16" class="node">
<title>Node16</title>
<g id="a_node16"><a xlink:href="classyork_1_1graphics_1_1_pipeline.html" target="_top" xlink:title="Handle wrapper for Vulkan Pipeline.">
<polygon fill="none" stroke="black" points="488,-463.5 488,-482.5 607,-482.5 607,-463.5 488,-463.5"/>
<text text-anchor="middle" x="547.5" y="-470.5" font-family="Helvetica,sans-Serif" font-size="10.00">york::graphics::Pipeline</text>
</a>
</g>
</g>
<!-- Node15&#45;&gt;Node16 -->
<g id="edge15" class="edge">
<title>Node15&#45;&gt;Node16</title>
<path fill="none" stroke="midnightblue" d="M435.79,-473C452.89,-473 471.14,-473 487.78,-473"/>
<polygon fill="midnightblue" stroke="midnightblue" points="435.31,-469.5 425.31,-473 435.31,-476.5 435.31,-469.5"/>
</g>
<!-- Node18 -->
<g id="node18" class="node">
<title>Node18</title>
<g id="a_node18"><a xlink:href="classyork_1_1graphics_1_1_pipeline_layout.html" target="_top" xlink:title="Handle wrapper for Vulkan Pipeline Layout.">
<polygon fill="none" stroke="black" points="488,-409 488,-439 607,-439 607,-409 488,-409"/>
<text text-anchor="start" x="496" y="-427" font-family="Helvetica,sans-Serif" font-size="10.00">york::graphics::Pipeline</text>
<text text-anchor="middle" x="547.5" y="-416" font-family="Helvetica,sans-Serif" font-size="10.00">Layout</text>
</a>
</g>
</g>
<!-- Node17&#45;&gt;Node18 -->
<g id="edge17" class="edge">
<title>Node17&#45;&gt;Node18</title>
<path fill="none" stroke="midnightblue" d="M435.79,-424C452.89,-424 471.14,-424 487.78,-424"/>
<polygon fill="midnightblue" stroke="midnightblue" points="435.31,-420.5 425.31,-424 435.31,-427.5 435.31,-420.5"/>
</g>
<!-- Node20 -->
<g id="node20" class="node">
<title>Node20</title>
<g id="a_node20"><a xlink:href="classyork_1_1graphics_1_1_render_pass.html" target="_top" xlink:title="Handle wrapper for Vulkan Render Pass.">
<polygon fill="none" stroke="black" points="478.5,-365.5 478.5,-384.5 616.5,-384.5 616.5,-365.5 478.5,-365.5"/>
<text text-anchor="middle" x="547.5" y="-372.5" font-family="Helvetica,sans-Serif" font-size="10.00">york::graphics::RenderPass</text>
</a>
</g>
</g>
<!-- Node19&#45;&gt;Node20 -->
<g id="edge19" class="edge">
<title>Node19&#45;&gt;Node20</title>
<path fill="none" stroke="midnightblue" d="M435.39,-375C449.45,-375 464.3,-375 478.41,-375"/>
<polygon fill="midnightblue" stroke="midnightblue" points="435.31,-371.5 425.31,-375 435.31,-378.5 435.31,-371.5"/>
</g>
<!-- Node22 -->
<g id="node22" class="node">
<title>Node22</title>
<g id="a_node22"><a xlink:href="classyork_1_1graphics_1_1_semaphore.html" target="_top" xlink:title="Handle wrapper for Vulkan Semaphore.">
<polygon fill="none" stroke="black" points="480.5,-316.5 480.5,-335.5 614.5,-335.5 614.5,-316.5 480.5,-316.5"/>
<text text-anchor="middle" x="547.5" y="-323.5" font-family="Helvetica,sans-Serif" font-size="10.00">york::graphics::Semaphore</text>
</a>
</g>
</g>
<!-- Node21&#45;&gt;Node22 -->
<g id="edge21" class="edge">
<title>Node21&#45;&gt;Node22</title>
<path fill="none" stroke="midnightblue" d="M435.33,-326C450.04,-326 465.62,-326 480.3,-326"/>
<polygon fill="midnightblue" stroke="midnightblue" points="435.31,-322.5 425.31,-326 435.31,-329.5 435.31,-322.5"/>
</g>
<!-- Node24 -->
<g id="node24" class="node">
<title>Node24</title>
<g id="a_node24"><a xlink:href="classyork_1_1graphics_1_1_shader.html" target="_top" xlink:title="Represents a SPIR&#45;V shaders for use with a Pipeline.">
<polygon fill="none" stroke="black" points="490,-267.5 490,-286.5 605,-286.5 605,-267.5 490,-267.5"/>
<text text-anchor="middle" x="547.5" y="-274.5" font-family="Helvetica,sans-Serif" font-size="10.00">york::graphics::Shader</text>
</a>
</g>
</g>
<!-- Node23&#45;&gt;Node24 -->
<g id="edge23" class="edge">
<title>Node23&#45;&gt;Node24</title>
<path fill="none" stroke="midnightblue" d="M435.42,-277C453.37,-277 472.6,-277 489.92,-277"/>
<polygon fill="midnightblue" stroke="midnightblue" points="435.31,-273.5 425.31,-277 435.31,-280.5 435.31,-273.5"/>
</g>
<!-- Node26 -->
<g id="node26" class="node">
<title>Node26</title>
<g id="a_node26"><a xlink:href="classyork_1_1graphics_1_1_surface.html" target="_top" xlink:title="Handle wrapper for Vulkan Surface.">
<polygon fill="none" stroke="black" points="488.5,-218.5 488.5,-237.5 606.5,-237.5 606.5,-218.5 488.5,-218.5"/>
<text text-anchor="middle" x="547.5" y="-225.5" font-family="Helvetica,sans-Serif" font-size="10.00">york::graphics::Surface</text>
</a>
</g>
</g>
<!-- Node25&#45;&gt;Node26 -->
<g id="edge25" class="edge">
<title>Node25&#45;&gt;Node26</title>
<path fill="none" stroke="midnightblue" d="M435.41,-228C452.83,-228 471.47,-228 488.4,-228"/>
<polygon fill="midnightblue" stroke="midnightblue" points="435.31,-224.5 425.31,-228 435.31,-231.5 435.31,-224.5"/>
</g>
<!-- Node28 -->
<g id="node28" class="node">
<title>Node28</title>
<g id="a_node28"><a xlink:href="classyork_1_1graphics_1_1_swap_chain.html" target="_top" xlink:title="Handle wrapper for Vulkan Swapchain.">
<polygon fill="none" stroke="black" points="480.5,-169.5 480.5,-188.5 614.5,-188.5 614.5,-169.5 480.5,-169.5"/>
<text text-anchor="middle" x="547.5" y="-176.5" font-family="Helvetica,sans-Serif" font-size="10.00">york::graphics::SwapChain</text>
</a>
</g>
</g>
<!-- Node27&#45;&gt;Node28 -->
<g id="edge27" class="edge">
<title>Node27&#45;&gt;Node28</title>
<path fill="none" stroke="midnightblue" d="M438.65,-179C452.43,-179 466.83,-179 480.46,-179"/>
<polygon fill="midnightblue" stroke="midnightblue" points="438.27,-175.5 428.27,-179 438.27,-182.5 438.27,-175.5"/>
</g>
<!-- Node30 -->
<g id="node30" class="node">
<title>Node30</title>
<g id="a_node30"><a xlink:href="classyork_1_1graphics_1_1_window.html" target="_top" xlink:title="A graphical window to which we can render to.">
<polygon fill="none" stroke="black" points="488,-120.5 488,-139.5 607,-139.5 607,-120.5 488,-120.5"/>
<text text-anchor="middle" x="547.5" y="-127.5" font-family="Helvetica,sans-Serif" font-size="10.00">york::graphics::Window</text>
</a>
</g>
</g>
<!-- Node29&#45;&gt;Node30 -->
<g id="edge29" class="edge">
<title>Node29&#45;&gt;Node30</title>
<path fill="none" stroke="midnightblue" d="M435.79,-130C452.89,-130 471.14,-130 487.78,-130"/>
<polygon fill="midnightblue" stroke="midnightblue" points="435.31,-126.5 425.31,-130 435.31,-133.5 435.31,-126.5"/>
</g>
</g>
</svg>
