<?xml version="1.0" encoding="UTF-8" standalone="no"?>
<!DOCTYPE svg PUBLIC "-//W3C//DTD SVG 1.1//EN"
 "http://www.w3.org/Graphics/SVG/1.1/DTD/svg11.dtd">
<!-- Generated by graphviz version 2.50.0 (20211204.2007)
 -->
<!-- Title: york::EventHandler Pages: 1 -->
<svg width="172pt" height="140pt"
 viewBox="0.00 0.00 172.00 140.00" xmlns="http://www.w3.org/2000/svg" xmlns:xlink="http://www.w3.org/1999/xlink">
<g id="graph0" class="graph" transform="scale(1 1) rotate(0) translate(4 136)">
<title>york::EventHandler</title>
<!-- Node1 -->
<g id="node1" class="node">
<title>Node1</title>
<g id="a_node1"><a xlink:title="Override this to handle events.">
<polygon fill="#bfbfbf" stroke="black" points="27,-56.5 27,-75.5 128,-75.5 128,-56.5 27,-56.5"/>
<text text-anchor="middle" x="77.5" y="-63.5" font-family="Helvetica,sans-Serif" font-size="10.00">york::EventHandler</text>
</a>
</g>
</g>
<!-- Node3 -->
<g id="node3" class="node">
<title>Node3</title>
<g id="a_node3"><a xlink:href="classyork_1_1_layer.html" target="_top" xlink:title="A layer represents a modular part of your application.">
<polygon fill="none" stroke="black" points="0,-0.5 0,-19.5 65,-19.5 65,-0.5 0,-0.5"/>
<text text-anchor="middle" x="32.5" y="-7.5" font-family="Helvetica,sans-Serif" font-size="10.00">york::Layer</text>
</a>
</g>
</g>
<!-- Node1&#45;&gt;Node3 -->
<g id="edge2" class="edge">
<title>Node1&#45;&gt;Node3</title>
<path fill="none" stroke="midnightblue" d="M63.45,-48.14C55.61,-38.74 46.17,-27.4 39.79,-19.75"/>
<polygon fill="midnightblue" stroke="midnightblue" points="60.98,-50.64 70.07,-56.08 66.36,-46.16 60.98,-50.64"/>
</g>
<!-- Node4 -->
<g id="node4" class="node">
<title>Node4</title>
<g id="a_node4"><a xlink:href="classyork_1_1_renderer.html" target="_top" xlink:title="The Renderer allows you to draw content to a Window.">
<polygon fill="none" stroke="black" points="83,-0.5 83,-19.5 164,-19.5 164,-0.5 83,-0.5"/>
<text text-anchor="middle" x="123.5" y="-7.5" font-family="Helvetica,sans-Serif" font-size="10.00">york::Renderer</text>
</a>
</g>
</g>
<!-- Node1&#45;&gt;Node4 -->
<g id="edge3" class="edge">
<title>Node1&#45;&gt;Node4</title>
<path fill="none" stroke="midnightblue" d="M91.61,-48.43C99.68,-38.97 109.46,-27.48 116.05,-19.75"/>
<polygon fill="midnightblue" stroke="midnightblue" points="88.92,-46.2 85.1,-56.08 94.25,-50.74 88.92,-46.2"/>
</g>
<!-- Node2 -->
<g id="node2" class="node">
<title>Node2</title>
<g id="a_node2"><a xlink:href="classyork_1_1_identifiable.html" target="_top" xlink:title="A convience class that generates a unique id upon creation and makes for easy comparison.">
<polygon fill="none" stroke="black" points="33,-112.5 33,-131.5 122,-131.5 122,-112.5 33,-112.5"/>
<text text-anchor="middle" x="77.5" y="-119.5" font-family="Helvetica,sans-Serif" font-size="10.00">york::Identifiable</text>
</a>
</g>
</g>
<!-- Node2&#45;&gt;Node1 -->
<g id="edge1" class="edge">
<title>Node2&#45;&gt;Node1</title>
<path fill="none" stroke="midnightblue" d="M77.5,-101.8C77.5,-92.91 77.5,-82.78 77.5,-75.75"/>
<polygon fill="midnightblue" stroke="midnightblue" points="74,-102.08 77.5,-112.08 81,-102.08 74,-102.08"/>
</g>
</g>
</svg>
