<?xml version="1.0" encoding="UTF-8" standalone="no"?>
<!DOCTYPE svg PUBLIC "-//W3C//DTD SVG 1.1//EN"
 "http://www.w3.org/Graphics/SVG/1.1/DTD/svg11.dtd">
<!-- Generated by graphviz version 2.50.0 (20211204.2007)
 -->
<!-- Title: york::graphics::HandleBase Pages: 1 -->
<svg width="630pt" height="704pt"
 viewBox="0.00 0.00 630.00 703.50" xmlns="http://www.w3.org/2000/svg" xmlns:xlink="http://www.w3.org/1999/xlink">
<g id="graph0" class="graph" transform="scale(1 1) rotate(0) translate(4 699.5)">
<title>york::graphics::HandleBase</title>
<!-- Node1 -->
<g id="node1" class="node">
<title>Node1</title>
<g id="a_node1"><a xlink:title=" ">
<polygon fill="#bfbfbf" stroke="black" points="125,-327.5 125,-346.5 262,-346.5 262,-327.5 125,-327.5"/>
<text text-anchor="middle" x="193.5" y="-334.5" font-family="Helvetica,sans-Serif" font-size="10.00">york::graphics::HandleBase</text>
</a>
</g>
</g>
<!-- Node3 -->
<g id="node3" class="node">
<title>Node3</title>
<g id="a_node3"><a xlink:href="classyork_1_1graphics_1_1_handle.html" target="_top" xlink:title=" ">
<polygon fill="none" stroke="black" points="309.5,-665 309.5,-695 425.5,-695 425.5,-665 309.5,-665"/>
<text text-anchor="start" x="317.5" y="-683" font-family="Helvetica,sans-Serif" font-size="10.00">york::graphics::Handle</text>
<text text-anchor="middle" x="367.5" y="-672" font-family="Helvetica,sans-Serif" font-size="10.00">&lt; vk::CommandPool &gt;</text>
</a>
</g>
</g>
<!-- Node1&#45;&gt;Node3 -->
<g id="edge2" class="edge">
<title>Node1&#45;&gt;Node3</title>
<path fill="none" stroke="midnightblue" d="M195.1,-356.78C197.84,-411.93 213.1,-569.1 298,-656 301.35,-659.43 305.21,-662.36 309.36,-664.88"/>
<polygon fill="midnightblue" stroke="midnightblue" points="198.59,-356.47 194.68,-346.62 191.6,-356.75 198.59,-356.47"/>
</g>
<!-- Node5 -->
<g id="node5" class="node">
<title>Node5</title>
<g id="a_node5"><a xlink:href="classyork_1_1graphics_1_1_handle.html" target="_top" xlink:title=" ">
<polygon fill="none" stroke="black" points="310,-616 310,-646 425,-646 425,-616 310,-616"/>
<text text-anchor="start" x="318" y="-634" font-family="Helvetica,sans-Serif" font-size="10.00">york::graphics::Handle</text>
<text text-anchor="middle" x="367.5" y="-623" font-family="Helvetica,sans-Serif" font-size="10.00">&lt; vk::Device &gt;</text>
</a>
</g>
</g>
<!-- Node1&#45;&gt;Node5 -->
<g id="edge4" class="edge">
<title>Node1&#45;&gt;Node5</title>
<path fill="none" stroke="midnightblue" d="M196.43,-356.65C202.31,-405.84 224.34,-535.45 298,-607 301.53,-610.42 305.57,-613.36 309.88,-615.88"/>
<polygon fill="midnightblue" stroke="midnightblue" points="199.91,-356.24 195.34,-346.69 192.95,-357.01 199.91,-356.24"/>
</g>
<!-- Node7 -->
<g id="node7" class="node">
<title>Node7</title>
<g id="a_node7"><a xlink:href="classyork_1_1graphics_1_1_handle.html" target="_top" xlink:title=" ">
<polygon fill="none" stroke="black" points="310,-567 310,-597 425,-597 425,-567 310,-567"/>
<text text-anchor="start" x="318" y="-585" font-family="Helvetica,sans-Serif" font-size="10.00">york::graphics::Handle</text>
<text text-anchor="middle" x="367.5" y="-574" font-family="Helvetica,sans-Serif" font-size="10.00">&lt; vk::Fence &gt;</text>
</a>
</g>
</g>
<!-- Node1&#45;&gt;Node7 -->
<g id="edge6" class="edge">
<title>Node1&#45;&gt;Node7</title>
<path fill="none" stroke="midnightblue" d="M198.28,-356.45C207.55,-399.08 235.39,-501.41 298,-558 301.83,-561.46 306.2,-564.43 310.82,-566.98"/>
<polygon fill="midnightblue" stroke="midnightblue" points="201.68,-355.62 196.23,-346.53 194.82,-357.03 201.68,-355.62"/>
</g>
<!-- Node9 -->
<g id="node9" class="node">
<title>Node9</title>
<g id="a_node9"><a xlink:href="classyork_1_1graphics_1_1_handle.html" target="_top" xlink:title=" ">
<polygon fill="none" stroke="black" points="310,-518 310,-548 425,-548 425,-518 310,-518"/>
<text text-anchor="start" x="318" y="-536" font-family="Helvetica,sans-Serif" font-size="10.00">york::graphics::Handle</text>
<text text-anchor="middle" x="367.5" y="-525" font-family="Helvetica,sans-Serif" font-size="10.00">&lt; vk::Framebuffer &gt;</text>
</a>
</g>
</g>
<!-- Node1&#45;&gt;Node9 -->
<g id="edge8" class="edge">
<title>Node1&#45;&gt;Node9</title>
<path fill="none" stroke="midnightblue" d="M201.1,-356.39C214.09,-391.75 246.31,-466.94 298,-509 302.2,-512.42 306.93,-515.37 311.88,-517.91"/>
<polygon fill="midnightblue" stroke="midnightblue" points="204.33,-355.02 197.68,-346.77 197.73,-357.37 204.33,-355.02"/>
</g>
<!-- Node11 -->
<g id="node11" class="node">
<title>Node11</title>
<g id="a_node11"><a xlink:href="classyork_1_1graphics_1_1_handle.html" target="_top" xlink:title=" ">
<polygon fill="none" stroke="black" points="310,-469 310,-499 425,-499 425,-469 310,-469"/>
<text text-anchor="start" x="318" y="-487" font-family="Helvetica,sans-Serif" font-size="10.00">york::graphics::Handle</text>
<text text-anchor="middle" x="367.5" y="-476" font-family="Helvetica,sans-Serif" font-size="10.00">&lt; vk::ImageView &gt;</text>
</a>
</g>
</g>
<!-- Node1&#45;&gt;Node11 -->
<g id="edge10" class="edge">
<title>Node1&#45;&gt;Node11</title>
<path fill="none" stroke="midnightblue" d="M205.54,-355.58C222.32,-382.3 256.68,-431.48 298,-460 302.87,-463.36 308.27,-466.3 313.83,-468.86"/>
<polygon fill="midnightblue" stroke="midnightblue" points="208.39,-353.53 200.18,-346.83 202.42,-357.19 208.39,-353.53"/>
</g>
<!-- Node13 -->
<g id="node13" class="node">
<title>Node13</title>
<g id="a_node13"><a xlink:href="classyork_1_1graphics_1_1_handle.html" target="_top" xlink:title=" ">
<polygon fill="none" stroke="black" points="310,-420 310,-450 425,-450 425,-420 310,-420"/>
<text text-anchor="start" x="318" y="-438" font-family="Helvetica,sans-Serif" font-size="10.00">york::graphics::Handle</text>
<text text-anchor="middle" x="367.5" y="-427" font-family="Helvetica,sans-Serif" font-size="10.00">&lt; vk::Instance &gt;</text>
</a>
</g>
</g>
<!-- Node1&#45;&gt;Node13 -->
<g id="edge12" class="edge">
<title>Node1&#45;&gt;Node13</title>
<path fill="none" stroke="midnightblue" d="M213.72,-352.92C233.78,-368.94 266.63,-393.59 298,-410 304.95,-413.64 312.56,-416.98 320.09,-419.96"/>
<polygon fill="midnightblue" stroke="midnightblue" points="215.92,-350.2 205.95,-346.62 211.52,-355.64 215.92,-350.2"/>
</g>
<!-- Node15 -->
<g id="node15" class="node">
<title>Node15</title>
<g id="a_node15"><a xlink:href="classyork_1_1graphics_1_1_handle.html" target="_top" xlink:title=" ">
<polygon fill="none" stroke="black" points="310,-371 310,-401 425,-401 425,-371 310,-371"/>
<text text-anchor="start" x="318" y="-389" font-family="Helvetica,sans-Serif" font-size="10.00">york::graphics::Handle</text>
<text text-anchor="middle" x="367.5" y="-378" font-family="Helvetica,sans-Serif" font-size="10.00">&lt; vk::Pipeline &gt;</text>
</a>
</g>
</g>
<!-- Node1&#45;&gt;Node15 -->
<g id="edge14" class="edge">
<title>Node1&#45;&gt;Node15</title>
<path fill="none" stroke="midnightblue" d="M237.91,-349.37C260.94,-355.93 289.42,-364.04 313.72,-370.96"/>
<polygon fill="midnightblue" stroke="midnightblue" points="238.65,-345.94 228.07,-346.56 236.73,-352.67 238.65,-345.94"/>
</g>
<!-- Node17 -->
<g id="node17" class="node">
<title>Node17</title>
<g id="a_node17"><a xlink:href="classyork_1_1graphics_1_1_handle.html" target="_top" xlink:title=" ">
<polygon fill="none" stroke="black" points="310,-322 310,-352 425,-352 425,-322 310,-322"/>
<text text-anchor="start" x="318" y="-340" font-family="Helvetica,sans-Serif" font-size="10.00">york::graphics::Handle</text>
<text text-anchor="middle" x="367.5" y="-329" font-family="Helvetica,sans-Serif" font-size="10.00">&lt; vk::PipelineLayout &gt;</text>
</a>
</g>
</g>
<!-- Node1&#45;&gt;Node17 -->
<g id="edge16" class="edge">
<title>Node1&#45;&gt;Node17</title>
<path fill="none" stroke="midnightblue" d="M272.49,-337C285.07,-337 297.87,-337 309.82,-337"/>
<polygon fill="midnightblue" stroke="midnightblue" points="272.48,-333.5 262.48,-337 272.48,-340.5 272.48,-333.5"/>
</g>
<!-- Node19 -->
<g id="node19" class="node">
<title>Node19</title>
<g id="a_node19"><a xlink:href="classyork_1_1graphics_1_1_handle.html" target="_top" xlink:title=" ">
<polygon fill="none" stroke="black" points="310,-273 310,-303 425,-303 425,-273 310,-273"/>
<text text-anchor="start" x="318" y="-291" font-family="Helvetica,sans-Serif" font-size="10.00">york::graphics::Handle</text>
<text text-anchor="middle" x="367.5" y="-280" font-family="Helvetica,sans-Serif" font-size="10.00">&lt; vk::RenderPass &gt;</text>
</a>
</g>
</g>
<!-- Node1&#45;&gt;Node19 -->
<g id="edge18" class="edge">
<title>Node1&#45;&gt;Node19</title>
<path fill="none" stroke="midnightblue" d="M237.91,-324.63C260.94,-318.07 289.42,-309.96 313.72,-303.04"/>
<polygon fill="midnightblue" stroke="midnightblue" points="236.73,-321.33 228.07,-327.44 238.65,-328.06 236.73,-321.33"/>
</g>
<!-- Node21 -->
<g id="node21" class="node">
<title>Node21</title>
<g id="a_node21"><a xlink:href="classyork_1_1graphics_1_1_handle.html" target="_top" xlink:title=" ">
<polygon fill="none" stroke="black" points="310,-224 310,-254 425,-254 425,-224 310,-224"/>
<text text-anchor="start" x="318" y="-242" font-family="Helvetica,sans-Serif" font-size="10.00">york::graphics::Handle</text>
<text text-anchor="middle" x="367.5" y="-231" font-family="Helvetica,sans-Serif" font-size="10.00">&lt; vk::Semaphore &gt;</text>
</a>
</g>
</g>
<!-- Node1&#45;&gt;Node21 -->
<g id="edge20" class="edge">
<title>Node1&#45;&gt;Node21</title>
<path fill="none" stroke="midnightblue" d="M213.32,-321.03C233.28,-304.7 266.27,-279.48 298,-263 304.26,-259.75 311.06,-256.77 317.87,-254.1"/>
<polygon fill="midnightblue" stroke="midnightblue" points="211.06,-318.35 205.6,-327.43 215.53,-323.74 211.06,-318.35"/>
</g>
<!-- Node23 -->
<g id="node23" class="node">
<title>Node23</title>
<g id="a_node23"><a xlink:href="classyork_1_1graphics_1_1_handle.html" target="_top" xlink:title=" ">
<polygon fill="none" stroke="black" points="310,-175 310,-205 425,-205 425,-175 310,-175"/>
<text text-anchor="start" x="318" y="-193" font-family="Helvetica,sans-Serif" font-size="10.00">york::graphics::Handle</text>
<text text-anchor="middle" x="367.5" y="-182" font-family="Helvetica,sans-Serif" font-size="10.00">&lt; vk::ShaderModule &gt;</text>
</a>
</g>
</g>
<!-- Node1&#45;&gt;Node23 -->
<g id="edge22" class="edge">
<title>Node1&#45;&gt;Node23</title>
<path fill="none" stroke="midnightblue" d="M205.54,-318.42C222.32,-291.7 256.68,-242.52 298,-214 302.87,-210.64 308.27,-207.7 313.83,-205.14"/>
<polygon fill="midnightblue" stroke="midnightblue" points="202.42,-316.81 200.18,-327.17 208.39,-320.47 202.42,-316.81"/>
</g>
<!-- Node25 -->
<g id="node25" class="node">
<title>Node25</title>
<g id="a_node25"><a xlink:href="classyork_1_1graphics_1_1_handle.html" target="_top" xlink:title=" ">
<polygon fill="none" stroke="black" points="310,-126 310,-156 425,-156 425,-126 310,-126"/>
<text text-anchor="start" x="318" y="-144" font-family="Helvetica,sans-Serif" font-size="10.00">york::graphics::Handle</text>
<text text-anchor="middle" x="367.5" y="-133" font-family="Helvetica,sans-Serif" font-size="10.00">&lt; vk::SurfaceKHR &gt;</text>
</a>
</g>
</g>
<!-- Node1&#45;&gt;Node25 -->
<g id="edge24" class="edge">
<title>Node1&#45;&gt;Node25</title>
<path fill="none" stroke="midnightblue" d="M201.1,-317.61C214.09,-282.25 246.31,-207.06 298,-165 302.2,-161.58 306.93,-158.63 311.88,-156.09"/>
<polygon fill="midnightblue" stroke="midnightblue" points="197.73,-316.63 197.68,-327.23 204.33,-318.98 197.73,-316.63"/>
</g>
<!-- Node27 -->
<g id="node27" class="node">
<title>Node27</title>
<g id="a_node27"><a xlink:href="classyork_1_1graphics_1_1_handle.html" target="_top" xlink:title=" ">
<polygon fill="none" stroke="black" points="307,-77 307,-107 428,-107 428,-77 307,-77"/>
<text text-anchor="start" x="315" y="-95" font-family="Helvetica,sans-Serif" font-size="10.00">york::graphics::Handle</text>
<text text-anchor="middle" x="367.5" y="-84" font-family="Helvetica,sans-Serif" font-size="10.00">&lt; vk::SwapchainKHR &gt;</text>
</a>
</g>
</g>
<!-- Node1&#45;&gt;Node27 -->
<g id="edge26" class="edge">
<title>Node1&#45;&gt;Node27</title>
<path fill="none" stroke="midnightblue" d="M198.28,-317.55C207.55,-274.92 235.39,-172.59 298,-116 301.83,-112.54 306.2,-109.57 310.82,-107.02"/>
<polygon fill="midnightblue" stroke="midnightblue" points="194.82,-316.97 196.23,-327.47 201.68,-318.38 194.82,-316.97"/>
</g>
<!-- Node29 -->
<g id="node29" class="node">
<title>Node29</title>
<g id="a_node29"><a xlink:href="classyork_1_1graphics_1_1_frame_data.html" target="_top" xlink:title="Contains the necessary synchronization data structures, framebuffer and command buffer for a frame.">
<polygon fill="none" stroke="black" points="301,-38.5 301,-57.5 434,-57.5 434,-38.5 301,-38.5"/>
<text text-anchor="middle" x="367.5" y="-45.5" font-family="Helvetica,sans-Serif" font-size="10.00">york::graphics::FrameData</text>
</a>
</g>
</g>
<!-- Node1&#45;&gt;Node29 -->
<g id="edge28" class="edge">
<title>Node1&#45;&gt;Node29</title>
<path fill="none" stroke="midnightblue" d="M196.12,-317.38C201.28,-267.75 221.83,-136.22 298,-67 302.29,-63.1 307.32,-59.99 312.66,-57.51"/>
<polygon fill="midnightblue" stroke="midnightblue" points="192.62,-317.14 195.17,-327.42 199.59,-317.8 192.62,-317.14"/>
</g>
<!-- Node30 -->
<g id="node30" class="node">
<title>Node30</title>
<g id="a_node30"><a xlink:href="classyork_1_1graphics_1_1_handle.html" target="_top" xlink:title="A template wrapper that allows any type to be treated as handle.">
<polygon fill="none" stroke="black" points="298,-0.5 298,-19.5 437,-19.5 437,-0.5 298,-0.5"/>
<text text-anchor="middle" x="367.5" y="-7.5" font-family="Helvetica,sans-Serif" font-size="10.00">york::graphics::Handle&lt; T &gt;</text>
</a>
</g>
</g>
<!-- Node1&#45;&gt;Node30 -->
<g id="edge29" class="edge">
<title>Node1&#45;&gt;Node30</title>
<path fill="none" stroke="midnightblue" d="M195.06,-317.24C197.71,-262.88 212.76,-109.79 298,-29 302.03,-25.18 306.76,-22.12 311.82,-19.66"/>
<polygon fill="midnightblue" stroke="midnightblue" points="191.56,-317.15 194.66,-327.28 198.56,-317.43 191.56,-317.15"/>
</g>
<!-- Node2 -->
<g id="node2" class="node">
<title>Node2</title>
<g id="a_node2"><a xlink:href="classyork_1_1_identifiable.html" target="_top" xlink:title=" ">
<polygon fill="none" stroke="black" points="0,-327.5 0,-346.5 89,-346.5 89,-327.5 0,-327.5"/>
<text text-anchor="middle" x="44.5" y="-334.5" font-family="Helvetica,sans-Serif" font-size="10.00">york::Identifiable</text>
</a>
</g>
</g>
<!-- Node2&#45;&gt;Node1 -->
<g id="edge1" class="edge">
<title>Node2&#45;&gt;Node1</title>
<path fill="none" stroke="midnightblue" d="M99.22,-337C107.6,-337 116.36,-337 125,-337"/>
<polygon fill="midnightblue" stroke="midnightblue" points="99.21,-333.5 89.21,-337 99.21,-340.5 99.21,-333.5"/>
</g>
<!-- Node4 -->
<g id="node4" class="node">
<title>Node4</title>
<g id="a_node4"><a xlink:href="classyork_1_1graphics_1_1_command_pool.html" target="_top" xlink:title="Handle wrapper for Vulkan Command Pool.">
<polygon fill="none" stroke="black" points="473,-670.5 473,-689.5 622,-689.5 622,-670.5 473,-670.5"/>
<text text-anchor="middle" x="547.5" y="-677.5" font-family="Helvetica,sans-Serif" font-size="10.00">york::graphics::CommandPool</text>
</a>
</g>
</g>
<!-- Node3&#45;&gt;Node4 -->
<g id="edge3" class="edge">
<title>Node3&#45;&gt;Node4</title>
<path fill="none" stroke="midnightblue" d="M436.14,-680C448.1,-680 460.6,-680 472.71,-680"/>
<polygon fill="midnightblue" stroke="midnightblue" points="435.8,-676.5 425.8,-680 435.8,-683.5 435.8,-676.5"/>
</g>
<!-- Node6 -->
<g id="node6" class="node">
<title>Node6</title>
<g id="a_node6"><a xlink:href="classyork_1_1graphics_1_1_device.html" target="_top" xlink:title="A class representing a GPU device.">
<polygon fill="none" stroke="black" points="490,-621.5 490,-640.5 605,-640.5 605,-621.5 490,-621.5"/>
<text text-anchor="middle" x="547.5" y="-628.5" font-family="Helvetica,sans-Serif" font-size="10.00">york::graphics::Device</text>
</a>
</g>
</g>
<!-- Node5&#45;&gt;Node6 -->
<g id="edge5" class="edge">
<title>Node5&#45;&gt;Node6</title>
<path fill="none" stroke="midnightblue" d="M435.42,-631C453.37,-631 472.6,-631 489.92,-631"/>
<polygon fill="midnightblue" stroke="midnightblue" points="435.31,-627.5 425.31,-631 435.31,-634.5 435.31,-627.5"/>
</g>
<!-- Node8 -->
<g id="node8" class="node">
<title>Node8</title>
<g id="a_node8"><a xlink:href="classyork_1_1graphics_1_1_fence.html" target="_top" xlink:title="Handle wrapper for Vulkan Fence.">
<polygon fill="none" stroke="black" points="492,-572.5 492,-591.5 603,-591.5 603,-572.5 492,-572.5"/>
<text text-anchor="middle" x="547.5" y="-579.5" font-family="Helvetica,sans-Serif" font-size="10.00">york::graphics::Fence</text>
</a>
</g>
</g>
<!-- Node7&#45;&gt;Node8 -->
<g id="edge7" class="edge">
<title>Node7&#45;&gt;Node8</title>
<path fill="none" stroke="midnightblue" d="M435.46,-582C454.03,-582 473.97,-582 491.75,-582"/>
<polygon fill="midnightblue" stroke="midnightblue" points="435.31,-578.5 425.31,-582 435.31,-585.5 435.31,-578.5"/>
</g>
<!-- Node10 -->
<g id="node10" class="node">
<title>Node10</title>
<g id="a_node10"><a xlink:href="classyork_1_1graphics_1_1_framebuffer.html" target="_top" xlink:title="Handle wrapper for Vulkan Framebuffer.">
<polygon fill="none" stroke="black" points="479,-523.5 479,-542.5 616,-542.5 616,-523.5 479,-523.5"/>
<text text-anchor="middle" x="547.5" y="-530.5" font-family="Helvetica,sans-Serif" font-size="10.00">york::graphics::Framebuffer</text>
</a>
</g>
</g>
<!-- Node9&#45;&gt;Node10 -->
<g id="edge9" class="edge">
<title>Node9&#45;&gt;Node10</title>
<path fill="none" stroke="midnightblue" d="M435.45,-533C449.6,-533 464.54,-533 478.72,-533"/>
<polygon fill="midnightblue" stroke="midnightblue" points="435.31,-529.5 425.31,-533 435.31,-536.5 435.31,-529.5"/>
</g>
<!-- Node12 -->
<g id="node12" class="node">
<title>Node12</title>
<g id="a_node12"><a xlink:href="classyork_1_1graphics_1_1_image_view.html" target="_top" xlink:title="Handle wrapper for Vulkan Image Views.">
<polygon fill="none" stroke="black" points="481,-474.5 481,-493.5 614,-493.5 614,-474.5 481,-474.5"/>
<text text-anchor="middle" x="547.5" y="-481.5" font-family="Helvetica,sans-Serif" font-size="10.00">york::graphics::ImageView</text>
</a>
</g>
</g>
<!-- Node11&#45;&gt;Node12 -->
<g id="edge11" class="edge">
<title>Node11&#45;&gt;Node12</title>
<path fill="none" stroke="midnightblue" d="M435.45,-484C450.34,-484 466.1,-484 480.93,-484"/>
<polygon fill="midnightblue" stroke="midnightblue" points="435.31,-480.5 425.31,-484 435.31,-487.5 435.31,-480.5"/>
</g>
<!-- Node14 -->
<g id="node14" class="node">
<title>Node14</title>
<g id="a_node14"><a xlink:href="classyork_1_1graphics_1_1_instance.html" target="_top" xlink:title="A handle for Vulkan instances.">
<polygon fill="none" stroke="black" points="486.5,-425.5 486.5,-444.5 608.5,-444.5 608.5,-425.5 486.5,-425.5"/>
<text text-anchor="middle" x="547.5" y="-432.5" font-family="Helvetica,sans-Serif" font-size="10.00">york::graphics::Instance</text>
</a>
</g>
</g>
<!-- Node13&#45;&gt;Node14 -->
<g id="edge13" class="edge">
<title>Node13&#45;&gt;Node14</title>
<path fill="none" stroke="midnightblue" d="M435.52,-435C452.17,-435 469.93,-435 486.24,-435"/>
<polygon fill="midnightblue" stroke="midnightblue" points="435.31,-431.5 425.31,-435 435.31,-438.5 435.31,-431.5"/>
</g>
<!-- Node16 -->
<g id="node16" class="node">
<title>Node16</title>
<g id="a_node16"><a xlink:href="classyork_1_1graphics_1_1_pipeline.html" target="_top" xlink:title="Handle wrapper for Vulkan Pipeline.">
<polygon fill="none" stroke="black" points="488,-376.5 488,-395.5 607,-395.5 607,-376.5 488,-376.5"/>
<text text-anchor="middle" x="547.5" y="-383.5" font-family="Helvetica,sans-Serif" font-size="10.00">york::graphics::Pipeline</text>
</a>
</g>
</g>
<!-- Node15&#45;&gt;Node16 -->
<g id="edge15" class="edge">
<title>Node15&#45;&gt;Node16</title>
<path fill="none" stroke="midnightblue" d="M435.79,-386C452.89,-386 471.14,-386 487.78,-386"/>
<polygon fill="midnightblue" stroke="midnightblue" points="435.31,-382.5 425.31,-386 435.31,-389.5 435.31,-382.5"/>
</g>
<!-- Node18 -->
<g id="node18" class="node">
<title>Node18</title>
<g id="a_node18"><a xlink:href="classyork_1_1graphics_1_1_pipeline_layout.html" target="_top" xlink:title="Handle wrapper for Vulkan Pipeline Layout.">
<polygon fill="none" stroke="black" points="488,-322 488,-352 607,-352 607,-322 488,-322"/>
<text text-anchor="start" x="496" y="-340" font-family="Helvetica,sans-Serif" font-size="10.00">york::graphics::Pipeline</text>
<text text-anchor="middle" x="547.5" y="-329" font-family="Helvetica,sans-Serif" font-size="10.00">Layout</text>
</a>
</g>
</g>
<!-- Node17&#45;&gt;Node18 -->
<g id="edge17" class="edge">
<title>Node17&#45;&gt;Node18</title>
<path fill="none" stroke="midnightblue" d="M435.79,-337C452.89,-337 471.14,-337 487.78,-337"/>
<polygon fill="midnightblue" stroke="midnightblue" points="435.31,-333.5 425.31,-337 435.31,-340.5 435.31,-333.5"/>
</g>
<!-- Node20 -->
<g id="node20" class="node">
<title>Node20</title>
<g id="a_node20"><a xlink:href="classyork_1_1graphics_1_1_render_pass.html" target="_top" xlink:title="Handle wrapper for Vulkan Render Pass.">
<polygon fill="none" stroke="black" points="478.5,-278.5 478.5,-297.5 616.5,-297.5 616.5,-278.5 478.5,-278.5"/>
<text text-anchor="middle" x="547.5" y="-285.5" font-family="Helvetica,sans-Serif" font-size="10.00">york::graphics::RenderPass</text>
</a>
</g>
</g>
<!-- Node19&#45;&gt;Node20 -->
<g id="edge19" class="edge">
<title>Node19&#45;&gt;Node20</title>
<path fill="none" stroke="midnightblue" d="M435.39,-288C449.45,-288 464.3,-288 478.41,-288"/>
<polygon fill="midnightblue" stroke="midnightblue" points="435.31,-284.5 425.31,-288 435.31,-291.5 435.31,-284.5"/>
</g>
<!-- Node22 -->
<g id="node22" class="node">
<title>Node22</title>
<g id="a_node22"><a xlink:href="classyork_1_1graphics_1_1_semaphore.html" target="_top" xlink:title="Handle wrapper for Vulkan Semaphore.">
<polygon fill="none" stroke="black" points="480.5,-229.5 480.5,-248.5 614.5,-248.5 614.5,-229.5 480.5,-229.5"/>
<text text-anchor="middle" x="547.5" y="-236.5" font-family="Helvetica,sans-Serif" font-size="10.00">york::graphics::Semaphore</text>
</a>
</g>
</g>
<!-- Node21&#45;&gt;Node22 -->
<g id="edge21" class="edge">
<title>Node21&#45;&gt;Node22</title>
<path fill="none" stroke="midnightblue" d="M435.33,-239C450.04,-239 465.62,-239 480.3,-239"/>
<polygon fill="midnightblue" stroke="midnightblue" points="435.31,-235.5 425.31,-239 435.31,-242.5 435.31,-235.5"/>
</g>
<!-- Node24 -->
<g id="node24" class="node">
<title>Node24</title>
<g id="a_node24"><a xlink:href="classyork_1_1graphics_1_1_shader.html" target="_top" xlink:title="Represents a SPIR&#45;V shader for use with a Pipeline.">
<polygon fill="none" stroke="black" points="490,-180.5 490,-199.5 605,-199.5 605,-180.5 490,-180.5"/>
<text text-anchor="middle" x="547.5" y="-187.5" font-family="Helvetica,sans-Serif" font-size="10.00">york::graphics::Shader</text>
</a>
</g>
</g>
<!-- Node23&#45;&gt;Node24 -->
<g id="edge23" class="edge">
<title>Node23&#45;&gt;Node24</title>
<path fill="none" stroke="midnightblue" d="M435.42,-190C453.37,-190 472.6,-190 489.92,-190"/>
<polygon fill="midnightblue" stroke="midnightblue" points="435.31,-186.5 425.31,-190 435.31,-193.5 435.31,-186.5"/>
</g>
<!-- Node26 -->
<g id="node26" class="node">
<title>Node26</title>
<g id="a_node26"><a xlink:href="classyork_1_1graphics_1_1_surface.html" target="_top" xlink:title="Handle wrapper for Vulkan Surface.">
<polygon fill="none" stroke="black" points="488.5,-131.5 488.5,-150.5 606.5,-150.5 606.5,-131.5 488.5,-131.5"/>
<text text-anchor="middle" x="547.5" y="-138.5" font-family="Helvetica,sans-Serif" font-size="10.00">york::graphics::Surface</text>
</a>
</g>
</g>
<!-- Node25&#45;&gt;Node26 -->
<g id="edge25" class="edge">
<title>Node25&#45;&gt;Node26</title>
<path fill="none" stroke="midnightblue" d="M435.41,-141C452.83,-141 471.47,-141 488.4,-141"/>
<polygon fill="midnightblue" stroke="midnightblue" points="435.31,-137.5 425.31,-141 435.31,-144.5 435.31,-137.5"/>
</g>
<!-- Node28 -->
<g id="node28" class="node">
<title>Node28</title>
<g id="a_node28"><a xlink:href="classyork_1_1graphics_1_1_swap_chain.html" target="_top" xlink:title="Handle wrapper for Vulkan Swapchain.">
<polygon fill="none" stroke="black" points="480.5,-82.5 480.5,-101.5 614.5,-101.5 614.5,-82.5 480.5,-82.5"/>
<text text-anchor="middle" x="547.5" y="-89.5" font-family="Helvetica,sans-Serif" font-size="10.00">york::graphics::SwapChain</text>
</a>
</g>
</g>
<!-- Node27&#45;&gt;Node28 -->
<g id="edge27" class="edge">
<title>Node27&#45;&gt;Node28</title>
<path fill="none" stroke="midnightblue" d="M438.65,-92C452.43,-92 466.83,-92 480.46,-92"/>
<polygon fill="midnightblue" stroke="midnightblue" points="438.27,-88.5 428.27,-92 438.27,-95.5 438.27,-88.5"/>
</g>
</g>
</svg>
