<?xml version="1.0" encoding="UTF-8" standalone="no"?>
<!DOCTYPE svg PUBLIC "-//W3C//DTD SVG 1.1//EN"
 "http://www.w3.org/Graphics/SVG/1.1/DTD/svg11.dtd">
<!-- Generated by graphviz version 2.50.0 (20211204.2007)
 -->
<!-- Title: york::Identifiable Pages: 1 -->
<svg width="630pt" height="780pt"
 viewBox="0.00 0.00 630.00 780.00" xmlns="http://www.w3.org/2000/svg" xmlns:xlink="http://www.w3.org/1999/xlink">
<g id="graph0" class="graph" transform="scale(1 1) rotate(0) translate(4 776)">
<title>york::Identifiable</title>
<!-- Node1 -->
<g id="node1" class="node">
<title>Node1</title>
<g id="a_node1"><a xlink:title=" ">
<polygon fill="#bfbfbf" stroke="black" points="0,-521.5 0,-540.5 89,-540.5 89,-521.5 0,-521.5"/>
<text text-anchor="middle" x="44.5" y="-528.5" font-family="Helvetica,sans-Serif" font-size="10.00">york::Identifiable</text>
</a>
</g>
</g>
<!-- Node2 -->
<g id="node2" class="node">
<title>Node2</title>
<g id="a_node2"><a xlink:href="classyork_1_1_event_handler.html" target="_top" xlink:title="Override this to handle events.">
<polygon fill="none" stroke="black" points="143,-714.5 143,-733.5 244,-733.5 244,-714.5 143,-714.5"/>
<text text-anchor="middle" x="193.5" y="-721.5" font-family="Helvetica,sans-Serif" font-size="10.00">york::EventHandler</text>
</a>
</g>
</g>
<!-- Node1&#45;&gt;Node2 -->
<g id="edge1" class="edge">
<title>Node1&#45;&gt;Node2</title>
<path fill="none" stroke="midnightblue" d="M58.88,-548.56C89.1,-588.25 161.84,-683.74 185.17,-714.37"/>
<polygon fill="midnightblue" stroke="midnightblue" points="61.63,-546.41 52.79,-540.57 56.06,-550.65 61.63,-546.41"/>
</g>
<!-- Node5 -->
<g id="node5" class="node">
<title>Node5</title>
<g id="a_node5"><a xlink:href="classyork_1_1graphics_1_1_handle_base.html" target="_top" xlink:title=" ">
<polygon fill="none" stroke="black" points="125,-352.5 125,-371.5 262,-371.5 262,-352.5 125,-352.5"/>
<text text-anchor="middle" x="193.5" y="-359.5" font-family="Helvetica,sans-Serif" font-size="10.00">york::graphics::HandleBase</text>
</a>
</g>
</g>
<!-- Node1&#45;&gt;Node5 -->
<g id="edge4" class="edge">
<title>Node1&#45;&gt;Node5</title>
<path fill="none" stroke="midnightblue" d="M60.77,-513.44C91.48,-478.14 159.82,-399.57 183.9,-371.89"/>
<polygon fill="midnightblue" stroke="midnightblue" points="57.75,-511.59 53.82,-521.43 63.03,-516.18 57.75,-511.59"/>
</g>
<!-- Node3 -->
<g id="node3" class="node">
<title>Node3</title>
<g id="a_node3"><a xlink:href="classyork_1_1_layer.html" target="_top" xlink:title=" ">
<polygon fill="none" stroke="black" points="335,-752.5 335,-771.5 400,-771.5 400,-752.5 335,-752.5"/>
<text text-anchor="middle" x="367.5" y="-759.5" font-family="Helvetica,sans-Serif" font-size="10.00">york::Layer</text>
</a>
</g>
</g>
<!-- Node2&#45;&gt;Node3 -->
<g id="edge2" class="edge">
<title>Node2&#45;&gt;Node3</title>
<path fill="none" stroke="midnightblue" d="M247.73,-735.76C276.25,-742.06 310.43,-749.61 334.78,-754.99"/>
<polygon fill="midnightblue" stroke="midnightblue" points="248.42,-732.33 237.9,-733.59 246.91,-739.16 248.42,-732.33"/>
</g>
<!-- Node4 -->
<g id="node4" class="node">
<title>Node4</title>
<g id="a_node4"><a xlink:href="classyork_1_1_renderer.html" target="_top" xlink:title="The Renderer allows you to draw content to a Window.">
<polygon fill="none" stroke="black" points="327,-714.5 327,-733.5 408,-733.5 408,-714.5 327,-714.5"/>
<text text-anchor="middle" x="367.5" y="-721.5" font-family="Helvetica,sans-Serif" font-size="10.00">york::Renderer</text>
</a>
</g>
</g>
<!-- Node2&#45;&gt;Node4 -->
<g id="edge3" class="edge">
<title>Node2&#45;&gt;Node4</title>
<path fill="none" stroke="midnightblue" d="M254.34,-724C278.38,-724 305.44,-724 326.95,-724"/>
<polygon fill="midnightblue" stroke="midnightblue" points="254.25,-720.5 244.25,-724 254.25,-727.5 254.25,-720.5"/>
</g>
<!-- Node6 -->
<g id="node6" class="node">
<title>Node6</title>
<g id="a_node6"><a xlink:href="classyork_1_1graphics_1_1_handle.html" target="_top" xlink:title=" ">
<polygon fill="none" stroke="black" points="309.5,-665 309.5,-695 425.5,-695 425.5,-665 309.5,-665"/>
<text text-anchor="start" x="317.5" y="-683" font-family="Helvetica,sans-Serif" font-size="10.00">york::graphics::Handle</text>
<text text-anchor="middle" x="367.5" y="-672" font-family="Helvetica,sans-Serif" font-size="10.00">&lt; vk::CommandPool &gt;</text>
</a>
</g>
</g>
<!-- Node5&#45;&gt;Node6 -->
<g id="edge5" class="edge">
<title>Node5&#45;&gt;Node6</title>
<path fill="none" stroke="midnightblue" d="M195.75,-381.95C200.1,-434.32 218.97,-577.09 298,-656 301.48,-659.47 305.49,-662.44 309.78,-664.99"/>
<polygon fill="midnightblue" stroke="midnightblue" points="199.22,-381.4 194.99,-371.69 192.24,-381.92 199.22,-381.4"/>
</g>
<!-- Node8 -->
<g id="node8" class="node">
<title>Node8</title>
<g id="a_node8"><a xlink:href="classyork_1_1graphics_1_1_handle.html" target="_top" xlink:title=" ">
<polygon fill="none" stroke="black" points="310,-616 310,-646 425,-646 425,-616 310,-616"/>
<text text-anchor="start" x="318" y="-634" font-family="Helvetica,sans-Serif" font-size="10.00">york::graphics::Handle</text>
<text text-anchor="middle" x="367.5" y="-623" font-family="Helvetica,sans-Serif" font-size="10.00">&lt; vk::Device &gt;</text>
</a>
</g>
</g>
<!-- Node5&#45;&gt;Node8 -->
<g id="edge7" class="edge">
<title>Node5&#45;&gt;Node8</title>
<path fill="none" stroke="midnightblue" d="M197.31,-381.66C204.9,-427.65 230.05,-543.18 298,-607 301.67,-610.45 305.87,-613.41 310.34,-615.94"/>
<polygon fill="midnightblue" stroke="midnightblue" points="200.73,-380.88 195.74,-371.54 193.81,-381.95 200.73,-380.88"/>
</g>
<!-- Node10 -->
<g id="node10" class="node">
<title>Node10</title>
<g id="a_node10"><a xlink:href="classyork_1_1graphics_1_1_handle.html" target="_top" xlink:title=" ">
<polygon fill="none" stroke="black" points="310,-567 310,-597 425,-597 425,-567 310,-567"/>
<text text-anchor="start" x="318" y="-585" font-family="Helvetica,sans-Serif" font-size="10.00">york::graphics::Handle</text>
<text text-anchor="middle" x="367.5" y="-574" font-family="Helvetica,sans-Serif" font-size="10.00">&lt; vk::Fence &gt;</text>
</a>
</g>
</g>
<!-- Node5&#45;&gt;Node10 -->
<g id="edge9" class="edge">
<title>Node5&#45;&gt;Node10</title>
<path fill="none" stroke="midnightblue" d="M199.61,-381.63C210.79,-420.77 241.09,-508.98 298,-558 302.01,-561.45 306.55,-564.42 311.33,-566.97"/>
<polygon fill="midnightblue" stroke="midnightblue" points="202.92,-380.47 196.9,-371.76 196.17,-382.33 202.92,-380.47"/>
</g>
<!-- Node12 -->
<g id="node12" class="node">
<title>Node12</title>
<g id="a_node12"><a xlink:href="classyork_1_1graphics_1_1_handle.html" target="_top" xlink:title=" ">
<polygon fill="none" stroke="black" points="310,-518 310,-548 425,-548 425,-518 310,-518"/>
<text text-anchor="start" x="318" y="-536" font-family="Helvetica,sans-Serif" font-size="10.00">york::graphics::Handle</text>
<text text-anchor="middle" x="367.5" y="-525" font-family="Helvetica,sans-Serif" font-size="10.00">&lt; vk::Framebuffer &gt;</text>
</a>
</g>
</g>
<!-- Node5&#45;&gt;Node12 -->
<g id="edge11" class="edge">
<title>Node5&#45;&gt;Node12</title>
<path fill="none" stroke="midnightblue" d="M203.1,-381.12C218.04,-412.27 251.69,-474 298,-509 302.52,-512.42 307.57,-515.38 312.83,-517.93"/>
<polygon fill="midnightblue" stroke="midnightblue" points="206.16,-379.4 198.76,-371.81 199.81,-382.36 206.16,-379.4"/>
</g>
<!-- Node14 -->
<g id="node14" class="node">
<title>Node14</title>
<g id="a_node14"><a xlink:href="classyork_1_1graphics_1_1_handle.html" target="_top" xlink:title=" ">
<polygon fill="none" stroke="black" points="310,-469 310,-499 425,-499 425,-469 310,-469"/>
<text text-anchor="start" x="318" y="-487" font-family="Helvetica,sans-Serif" font-size="10.00">york::graphics::Handle</text>
<text text-anchor="middle" x="367.5" y="-476" font-family="Helvetica,sans-Serif" font-size="10.00">&lt; vk::ImageView &gt;</text>
</a>
</g>
</g>
<!-- Node5&#45;&gt;Node14 -->
<g id="edge13" class="edge">
<title>Node5&#45;&gt;Node14</title>
<path fill="none" stroke="midnightblue" d="M208.83,-379.52C227.37,-401.16 261.63,-437.82 298,-460 303.49,-463.35 309.51,-466.31 315.63,-468.91"/>
<polygon fill="midnightblue" stroke="midnightblue" points="211.43,-377.16 202.31,-371.76 206.07,-381.67 211.43,-377.16"/>
</g>
<!-- Node16 -->
<g id="node16" class="node">
<title>Node16</title>
<g id="a_node16"><a xlink:href="classyork_1_1graphics_1_1_handle.html" target="_top" xlink:title=" ">
<polygon fill="none" stroke="black" points="310,-420 310,-450 425,-450 425,-420 310,-420"/>
<text text-anchor="start" x="318" y="-438" font-family="Helvetica,sans-Serif" font-size="10.00">york::graphics::Handle</text>
<text text-anchor="middle" x="367.5" y="-427" font-family="Helvetica,sans-Serif" font-size="10.00">&lt; vk::Instance &gt;</text>
</a>
</g>
</g>
<!-- Node5&#45;&gt;Node16 -->
<g id="edge15" class="edge">
<title>Node5&#45;&gt;Node16</title>
<path fill="none" stroke="midnightblue" d="M222.44,-376.21C243.07,-386.46 271.96,-400.31 298,-411 305.46,-414.06 313.47,-417.09 321.29,-419.92"/>
<polygon fill="midnightblue" stroke="midnightblue" points="223.82,-372.98 213.31,-371.64 220.68,-379.24 223.82,-372.98"/>
</g>
<!-- Node18 -->
<g id="node18" class="node">
<title>Node18</title>
<g id="a_node18"><a xlink:href="classyork_1_1graphics_1_1_handle.html" target="_top" xlink:title=" ">
<polygon fill="none" stroke="black" points="310,-371 310,-401 425,-401 425,-371 310,-371"/>
<text text-anchor="start" x="318" y="-389" font-family="Helvetica,sans-Serif" font-size="10.00">york::graphics::Handle</text>
<text text-anchor="middle" x="367.5" y="-378" font-family="Helvetica,sans-Serif" font-size="10.00">&lt; vk::Pipeline &gt;</text>
</a>
</g>
</g>
<!-- Node5&#45;&gt;Node18 -->
<g id="edge17" class="edge">
<title>Node5&#45;&gt;Node18</title>
<path fill="none" stroke="midnightblue" d="M272.49,-372.88C285.07,-374.64 297.87,-376.42 309.82,-378.09"/>
<polygon fill="midnightblue" stroke="midnightblue" points="272.87,-369.4 262.48,-371.49 271.9,-376.33 272.87,-369.4"/>
</g>
<!-- Node20 -->
<g id="node20" class="node">
<title>Node20</title>
<g id="a_node20"><a xlink:href="classyork_1_1graphics_1_1_handle.html" target="_top" xlink:title=" ">
<polygon fill="none" stroke="black" points="310,-322 310,-352 425,-352 425,-322 310,-322"/>
<text text-anchor="start" x="318" y="-340" font-family="Helvetica,sans-Serif" font-size="10.00">york::graphics::Handle</text>
<text text-anchor="middle" x="367.5" y="-329" font-family="Helvetica,sans-Serif" font-size="10.00">&lt; vk::PipelineLayout &gt;</text>
</a>
</g>
</g>
<!-- Node5&#45;&gt;Node20 -->
<g id="edge19" class="edge">
<title>Node5&#45;&gt;Node20</title>
<path fill="none" stroke="midnightblue" d="M270.13,-351.01C283.48,-349.07 297.16,-347.08 309.87,-345.23"/>
<polygon fill="midnightblue" stroke="midnightblue" points="269.41,-347.58 260.02,-352.48 270.42,-354.5 269.41,-347.58"/>
</g>
<!-- Node22 -->
<g id="node22" class="node">
<title>Node22</title>
<g id="a_node22"><a xlink:href="classyork_1_1graphics_1_1_handle.html" target="_top" xlink:title=" ">
<polygon fill="none" stroke="black" points="310,-273 310,-303 425,-303 425,-273 310,-273"/>
<text text-anchor="start" x="318" y="-291" font-family="Helvetica,sans-Serif" font-size="10.00">york::graphics::Handle</text>
<text text-anchor="middle" x="367.5" y="-280" font-family="Helvetica,sans-Serif" font-size="10.00">&lt; vk::RenderPass &gt;</text>
</a>
</g>
</g>
<!-- Node5&#45;&gt;Node22 -->
<g id="edge21" class="edge">
<title>Node5&#45;&gt;Node22</title>
<path fill="none" stroke="midnightblue" d="M222.48,-347.89C243.13,-337.69 272.03,-323.86 298,-313 306.18,-309.58 315,-306.16 323.51,-303"/>
<polygon fill="midnightblue" stroke="midnightblue" points="220.74,-344.85 213.34,-352.44 223.85,-351.12 220.74,-344.85"/>
</g>
<!-- Node24 -->
<g id="node24" class="node">
<title>Node24</title>
<g id="a_node24"><a xlink:href="classyork_1_1graphics_1_1_handle.html" target="_top" xlink:title=" ">
<polygon fill="none" stroke="black" points="310,-224 310,-254 425,-254 425,-224 310,-224"/>
<text text-anchor="start" x="318" y="-242" font-family="Helvetica,sans-Serif" font-size="10.00">york::graphics::Handle</text>
<text text-anchor="middle" x="367.5" y="-231" font-family="Helvetica,sans-Serif" font-size="10.00">&lt; vk::Semaphore &gt;</text>
</a>
</g>
</g>
<!-- Node5&#45;&gt;Node24 -->
<g id="edge23" class="edge">
<title>Node5&#45;&gt;Node24</title>
<path fill="none" stroke="midnightblue" d="M208.88,-344.56C227.47,-323 261.77,-286.41 298,-264 304.03,-260.27 310.7,-256.98 317.44,-254.1"/>
<polygon fill="midnightblue" stroke="midnightblue" points="206.13,-342.39 202.34,-352.28 211.47,-346.91 206.13,-342.39"/>
</g>
<!-- Node26 -->
<g id="node26" class="node">
<title>Node26</title>
<g id="a_node26"><a xlink:href="classyork_1_1graphics_1_1_handle.html" target="_top" xlink:title=" ">
<polygon fill="none" stroke="black" points="310,-175 310,-205 425,-205 425,-175 310,-175"/>
<text text-anchor="start" x="318" y="-193" font-family="Helvetica,sans-Serif" font-size="10.00">york::graphics::Handle</text>
<text text-anchor="middle" x="367.5" y="-182" font-family="Helvetica,sans-Serif" font-size="10.00">&lt; vk::ShaderModule &gt;</text>
</a>
</g>
</g>
<!-- Node5&#45;&gt;Node26 -->
<g id="edge25" class="edge">
<title>Node5&#45;&gt;Node26</title>
<path fill="none" stroke="midnightblue" d="M203.15,-342.94C218.17,-311.89 251.92,-250.3 298,-215 303.03,-211.15 308.7,-207.85 314.58,-205.03"/>
<polygon fill="midnightblue" stroke="midnightblue" points="199.88,-341.68 198.79,-352.22 206.21,-344.66 199.88,-341.68"/>
</g>
<!-- Node28 -->
<g id="node28" class="node">
<title>Node28</title>
<g id="a_node28"><a xlink:href="classyork_1_1graphics_1_1_handle.html" target="_top" xlink:title=" ">
<polygon fill="none" stroke="black" points="310,-126 310,-156 425,-156 425,-126 310,-126"/>
<text text-anchor="start" x="318" y="-144" font-family="Helvetica,sans-Serif" font-size="10.00">york::graphics::Handle</text>
<text text-anchor="middle" x="367.5" y="-133" font-family="Helvetica,sans-Serif" font-size="10.00">&lt; vk::SurfaceKHR &gt;</text>
</a>
</g>
</g>
<!-- Node5&#45;&gt;Node28 -->
<g id="edge27" class="edge">
<title>Node5&#45;&gt;Node28</title>
<path fill="none" stroke="midnightblue" d="M199.67,-342.44C210.94,-303.41 241.4,-215.38 298,-166 302.39,-162.17 307.41,-158.91 312.7,-156.14"/>
<polygon fill="midnightblue" stroke="midnightblue" points="196.24,-341.7 196.93,-352.28 202.98,-343.58 196.24,-341.7"/>
</g>
<!-- Node30 -->
<g id="node30" class="node">
<title>Node30</title>
<g id="a_node30"><a xlink:href="classyork_1_1graphics_1_1_handle.html" target="_top" xlink:title=" ">
<polygon fill="none" stroke="black" points="307,-77 307,-107 428,-107 428,-77 307,-77"/>
<text text-anchor="start" x="315" y="-95" font-family="Helvetica,sans-Serif" font-size="10.00">york::graphics::Handle</text>
<text text-anchor="middle" x="367.5" y="-84" font-family="Helvetica,sans-Serif" font-size="10.00">&lt; vk::SwapchainKHR &gt;</text>
</a>
</g>
</g>
<!-- Node5&#45;&gt;Node30 -->
<g id="edge29" class="edge">
<title>Node5&#45;&gt;Node30</title>
<path fill="none" stroke="midnightblue" d="M197.28,-342.27C204.82,-296.09 229.86,-180.09 298,-116 301.67,-112.55 305.87,-109.59 310.34,-107.05"/>
<polygon fill="midnightblue" stroke="midnightblue" points="193.78,-342.01 195.73,-352.43 200.7,-343.07 193.78,-342.01"/>
</g>
<!-- Node32 -->
<g id="node32" class="node">
<title>Node32</title>
<g id="a_node32"><a xlink:href="classyork_1_1graphics_1_1_frame_data.html" target="_top" xlink:title="Contains the necessary synchronization data structures, framebuffer and command buffer for a frame.">
<polygon fill="none" stroke="black" points="301,-38.5 301,-57.5 434,-57.5 434,-38.5 301,-38.5"/>
<text text-anchor="middle" x="367.5" y="-45.5" font-family="Helvetica,sans-Serif" font-size="10.00">york::graphics::FrameData</text>
</a>
</g>
</g>
<!-- Node5&#45;&gt;Node32 -->
<g id="edge31" class="edge">
<title>Node5&#45;&gt;Node32</title>
<path fill="none" stroke="midnightblue" d="M195.39,-342.37C198.87,-289.66 215.83,-143.85 298,-67 302.15,-63.12 307.01,-60.02 312.21,-57.55"/>
<polygon fill="midnightblue" stroke="midnightblue" points="191.89,-342.22 194.82,-352.4 198.88,-342.62 191.89,-342.22"/>
</g>
<!-- Node33 -->
<g id="node33" class="node">
<title>Node33</title>
<g id="a_node33"><a xlink:href="classyork_1_1graphics_1_1_handle.html" target="_top" xlink:title="A template wrapper that allows any type to be treated as handle.">
<polygon fill="none" stroke="black" points="298,-0.5 298,-19.5 437,-19.5 437,-0.5 298,-0.5"/>
<text text-anchor="middle" x="367.5" y="-7.5" font-family="Helvetica,sans-Serif" font-size="10.00">york::graphics::Handle&lt; T &gt;</text>
</a>
</g>
</g>
<!-- Node5&#45;&gt;Node33 -->
<g id="edge32" class="edge">
<title>Node5&#45;&gt;Node33</title>
<path fill="none" stroke="midnightblue" d="M194.48,-342.21C195.55,-284.93 206.72,-117.52 298,-29 301.99,-25.13 306.69,-22.04 311.73,-19.57"/>
<polygon fill="midnightblue" stroke="midnightblue" points="190.98,-342.38 194.38,-352.41 197.98,-342.45 190.98,-342.38"/>
</g>
<!-- Node7 -->
<g id="node7" class="node">
<title>Node7</title>
<g id="a_node7"><a xlink:href="classyork_1_1graphics_1_1_command_pool.html" target="_top" xlink:title="Handle wrapper for Vulkan Command Pool.">
<polygon fill="none" stroke="black" points="473,-670.5 473,-689.5 622,-689.5 622,-670.5 473,-670.5"/>
<text text-anchor="middle" x="547.5" y="-677.5" font-family="Helvetica,sans-Serif" font-size="10.00">york::graphics::CommandPool</text>
</a>
</g>
</g>
<!-- Node6&#45;&gt;Node7 -->
<g id="edge6" class="edge">
<title>Node6&#45;&gt;Node7</title>
<path fill="none" stroke="midnightblue" d="M436.14,-680C448.1,-680 460.6,-680 472.71,-680"/>
<polygon fill="midnightblue" stroke="midnightblue" points="435.8,-676.5 425.8,-680 435.8,-683.5 435.8,-676.5"/>
</g>
<!-- Node9 -->
<g id="node9" class="node">
<title>Node9</title>
<g id="a_node9"><a xlink:href="classyork_1_1graphics_1_1_device.html" target="_top" xlink:title="A class representing a GPU device.">
<polygon fill="none" stroke="black" points="490,-621.5 490,-640.5 605,-640.5 605,-621.5 490,-621.5"/>
<text text-anchor="middle" x="547.5" y="-628.5" font-family="Helvetica,sans-Serif" font-size="10.00">york::graphics::Device</text>
</a>
</g>
</g>
<!-- Node8&#45;&gt;Node9 -->
<g id="edge8" class="edge">
<title>Node8&#45;&gt;Node9</title>
<path fill="none" stroke="midnightblue" d="M435.42,-631C453.37,-631 472.6,-631 489.92,-631"/>
<polygon fill="midnightblue" stroke="midnightblue" points="435.31,-627.5 425.31,-631 435.31,-634.5 435.31,-627.5"/>
</g>
<!-- Node11 -->
<g id="node11" class="node">
<title>Node11</title>
<g id="a_node11"><a xlink:href="classyork_1_1graphics_1_1_fence.html" target="_top" xlink:title="Handle wrapper for Vulkan Fence.">
<polygon fill="none" stroke="black" points="492,-572.5 492,-591.5 603,-591.5 603,-572.5 492,-572.5"/>
<text text-anchor="middle" x="547.5" y="-579.5" font-family="Helvetica,sans-Serif" font-size="10.00">york::graphics::Fence</text>
</a>
</g>
</g>
<!-- Node10&#45;&gt;Node11 -->
<g id="edge10" class="edge">
<title>Node10&#45;&gt;Node11</title>
<path fill="none" stroke="midnightblue" d="M435.46,-582C454.03,-582 473.97,-582 491.75,-582"/>
<polygon fill="midnightblue" stroke="midnightblue" points="435.31,-578.5 425.31,-582 435.31,-585.5 435.31,-578.5"/>
</g>
<!-- Node13 -->
<g id="node13" class="node">
<title>Node13</title>
<g id="a_node13"><a xlink:href="classyork_1_1graphics_1_1_framebuffer.html" target="_top" xlink:title="Handle wrapper for Vulkan Framebuffer.">
<polygon fill="none" stroke="black" points="479,-523.5 479,-542.5 616,-542.5 616,-523.5 479,-523.5"/>
<text text-anchor="middle" x="547.5" y="-530.5" font-family="Helvetica,sans-Serif" font-size="10.00">york::graphics::Framebuffer</text>
</a>
</g>
</g>
<!-- Node12&#45;&gt;Node13 -->
<g id="edge12" class="edge">
<title>Node12&#45;&gt;Node13</title>
<path fill="none" stroke="midnightblue" d="M435.45,-533C449.6,-533 464.54,-533 478.72,-533"/>
<polygon fill="midnightblue" stroke="midnightblue" points="435.31,-529.5 425.31,-533 435.31,-536.5 435.31,-529.5"/>
</g>
<!-- Node15 -->
<g id="node15" class="node">
<title>Node15</title>
<g id="a_node15"><a xlink:href="classyork_1_1graphics_1_1_image_view.html" target="_top" xlink:title="Handle wrapper for Vulkan Image Views.">
<polygon fill="none" stroke="black" points="481,-474.5 481,-493.5 614,-493.5 614,-474.5 481,-474.5"/>
<text text-anchor="middle" x="547.5" y="-481.5" font-family="Helvetica,sans-Serif" font-size="10.00">york::graphics::ImageView</text>
</a>
</g>
</g>
<!-- Node14&#45;&gt;Node15 -->
<g id="edge14" class="edge">
<title>Node14&#45;&gt;Node15</title>
<path fill="none" stroke="midnightblue" d="M435.45,-484C450.34,-484 466.1,-484 480.93,-484"/>
<polygon fill="midnightblue" stroke="midnightblue" points="435.31,-480.5 425.31,-484 435.31,-487.5 435.31,-480.5"/>
</g>
<!-- Node17 -->
<g id="node17" class="node">
<title>Node17</title>
<g id="a_node17"><a xlink:href="classyork_1_1graphics_1_1_instance.html" target="_top" xlink:title="A handle for Vulkan instances.">
<polygon fill="none" stroke="black" points="486.5,-425.5 486.5,-444.5 608.5,-444.5 608.5,-425.5 486.5,-425.5"/>
<text text-anchor="middle" x="547.5" y="-432.5" font-family="Helvetica,sans-Serif" font-size="10.00">york::graphics::Instance</text>
</a>
</g>
</g>
<!-- Node16&#45;&gt;Node17 -->
<g id="edge16" class="edge">
<title>Node16&#45;&gt;Node17</title>
<path fill="none" stroke="midnightblue" d="M435.52,-435C452.17,-435 469.93,-435 486.24,-435"/>
<polygon fill="midnightblue" stroke="midnightblue" points="435.31,-431.5 425.31,-435 435.31,-438.5 435.31,-431.5"/>
</g>
<!-- Node19 -->
<g id="node19" class="node">
<title>Node19</title>
<g id="a_node19"><a xlink:href="classyork_1_1graphics_1_1_pipeline.html" target="_top" xlink:title="Handle wrapper for Vulkan Pipeline.">
<polygon fill="none" stroke="black" points="488,-376.5 488,-395.5 607,-395.5 607,-376.5 488,-376.5"/>
<text text-anchor="middle" x="547.5" y="-383.5" font-family="Helvetica,sans-Serif" font-size="10.00">york::graphics::Pipeline</text>
</a>
</g>
</g>
<!-- Node18&#45;&gt;Node19 -->
<g id="edge18" class="edge">
<title>Node18&#45;&gt;Node19</title>
<path fill="none" stroke="midnightblue" d="M435.79,-386C452.89,-386 471.14,-386 487.78,-386"/>
<polygon fill="midnightblue" stroke="midnightblue" points="435.31,-382.5 425.31,-386 435.31,-389.5 435.31,-382.5"/>
</g>
<!-- Node21 -->
<g id="node21" class="node">
<title>Node21</title>
<g id="a_node21"><a xlink:href="classyork_1_1graphics_1_1_pipeline_layout.html" target="_top" xlink:title="Handle wrapper for Vulkan Pipeline Layout.">
<polygon fill="none" stroke="black" points="488,-322 488,-352 607,-352 607,-322 488,-322"/>
<text text-anchor="start" x="496" y="-340" font-family="Helvetica,sans-Serif" font-size="10.00">york::graphics::Pipeline</text>
<text text-anchor="middle" x="547.5" y="-329" font-family="Helvetica,sans-Serif" font-size="10.00">Layout</text>
</a>
</g>
</g>
<!-- Node20&#45;&gt;Node21 -->
<g id="edge20" class="edge">
<title>Node20&#45;&gt;Node21</title>
<path fill="none" stroke="midnightblue" d="M435.79,-337C452.89,-337 471.14,-337 487.78,-337"/>
<polygon fill="midnightblue" stroke="midnightblue" points="435.31,-333.5 425.31,-337 435.31,-340.5 435.31,-333.5"/>
</g>
<!-- Node23 -->
<g id="node23" class="node">
<title>Node23</title>
<g id="a_node23"><a xlink:href="classyork_1_1graphics_1_1_render_pass.html" target="_top" xlink:title="Handle wrapper for Vulkan Render Pass.">
<polygon fill="none" stroke="black" points="478.5,-278.5 478.5,-297.5 616.5,-297.5 616.5,-278.5 478.5,-278.5"/>
<text text-anchor="middle" x="547.5" y="-285.5" font-family="Helvetica,sans-Serif" font-size="10.00">york::graphics::RenderPass</text>
</a>
</g>
</g>
<!-- Node22&#45;&gt;Node23 -->
<g id="edge22" class="edge">
<title>Node22&#45;&gt;Node23</title>
<path fill="none" stroke="midnightblue" d="M435.39,-288C449.45,-288 464.3,-288 478.41,-288"/>
<polygon fill="midnightblue" stroke="midnightblue" points="435.31,-284.5 425.31,-288 435.31,-291.5 435.31,-284.5"/>
</g>
<!-- Node25 -->
<g id="node25" class="node">
<title>Node25</title>
<g id="a_node25"><a xlink:href="classyork_1_1graphics_1_1_semaphore.html" target="_top" xlink:title="Handle wrapper for Vulkan Semaphore.">
<polygon fill="none" stroke="black" points="480.5,-229.5 480.5,-248.5 614.5,-248.5 614.5,-229.5 480.5,-229.5"/>
<text text-anchor="middle" x="547.5" y="-236.5" font-family="Helvetica,sans-Serif" font-size="10.00">york::graphics::Semaphore</text>
</a>
</g>
</g>
<!-- Node24&#45;&gt;Node25 -->
<g id="edge24" class="edge">
<title>Node24&#45;&gt;Node25</title>
<path fill="none" stroke="midnightblue" d="M435.33,-239C450.04,-239 465.62,-239 480.3,-239"/>
<polygon fill="midnightblue" stroke="midnightblue" points="435.31,-235.5 425.31,-239 435.31,-242.5 435.31,-235.5"/>
</g>
<!-- Node27 -->
<g id="node27" class="node">
<title>Node27</title>
<g id="a_node27"><a xlink:href="classyork_1_1graphics_1_1_shader.html" target="_top" xlink:title="Represents a SPIR&#45;V shader for use with a Pipeline.">
<polygon fill="none" stroke="black" points="490,-180.5 490,-199.5 605,-199.5 605,-180.5 490,-180.5"/>
<text text-anchor="middle" x="547.5" y="-187.5" font-family="Helvetica,sans-Serif" font-size="10.00">york::graphics::Shader</text>
</a>
</g>
</g>
<!-- Node26&#45;&gt;Node27 -->
<g id="edge26" class="edge">
<title>Node26&#45;&gt;Node27</title>
<path fill="none" stroke="midnightblue" d="M435.42,-190C453.37,-190 472.6,-190 489.92,-190"/>
<polygon fill="midnightblue" stroke="midnightblue" points="435.31,-186.5 425.31,-190 435.31,-193.5 435.31,-186.5"/>
</g>
<!-- Node29 -->
<g id="node29" class="node">
<title>Node29</title>
<g id="a_node29"><a xlink:href="classyork_1_1graphics_1_1_surface.html" target="_top" xlink:title="Handle wrapper for Vulkan Surface.">
<polygon fill="none" stroke="black" points="488.5,-131.5 488.5,-150.5 606.5,-150.5 606.5,-131.5 488.5,-131.5"/>
<text text-anchor="middle" x="547.5" y="-138.5" font-family="Helvetica,sans-Serif" font-size="10.00">york::graphics::Surface</text>
</a>
</g>
</g>
<!-- Node28&#45;&gt;Node29 -->
<g id="edge28" class="edge">
<title>Node28&#45;&gt;Node29</title>
<path fill="none" stroke="midnightblue" d="M435.41,-141C452.83,-141 471.47,-141 488.4,-141"/>
<polygon fill="midnightblue" stroke="midnightblue" points="435.31,-137.5 425.31,-141 435.31,-144.5 435.31,-137.5"/>
</g>
<!-- Node31 -->
<g id="node31" class="node">
<title>Node31</title>
<g id="a_node31"><a xlink:href="classyork_1_1graphics_1_1_swap_chain.html" target="_top" xlink:title="Handle wrapper for Vulkan Swapchain.">
<polygon fill="none" stroke="black" points="480.5,-82.5 480.5,-101.5 614.5,-101.5 614.5,-82.5 480.5,-82.5"/>
<text text-anchor="middle" x="547.5" y="-89.5" font-family="Helvetica,sans-Serif" font-size="10.00">york::graphics::SwapChain</text>
</a>
</g>
</g>
<!-- Node30&#45;&gt;Node31 -->
<g id="edge30" class="edge">
<title>Node30&#45;&gt;Node31</title>
<path fill="none" stroke="midnightblue" d="M438.65,-92C452.43,-92 466.83,-92 480.46,-92"/>
<polygon fill="midnightblue" stroke="midnightblue" points="438.27,-88.5 428.27,-92 438.27,-95.5 438.27,-88.5"/>
</g>
</g>
</svg>
