<?xml version="1.0" encoding="UTF-8" standalone="no"?>
<!DOCTYPE svg PUBLIC "-//W3C//DTD SVG 1.1//EN"
 "http://www.w3.org/Graphics/SVG/1.1/DTD/svg11.dtd">
<!-- Generated by graphviz version 2.50.0 (20211204.2007)
 -->
<!-- Title: york::graphics::Device Pages: 1 -->
<svg width="145pt" height="207pt"
 viewBox="0.00 0.00 145.00 207.00" xmlns="http://www.w3.org/2000/svg" xmlns:xlink="http://www.w3.org/1999/xlink">
<g id="graph0" class="graph" transform="scale(1 1) rotate(0) translate(4 203)">
<title>york::graphics::Device</title>
<!-- Node1 -->
<g id="node1" class="node">
<title>Node1</title>
<g id="a_node1"><a xlink:title="A class representing a GPU device.">
<polygon fill="#bfbfbf" stroke="black" points="11,-0.5 11,-19.5 126,-19.5 126,-0.5 11,-0.5"/>
<text text-anchor="middle" x="68.5" y="-7.5" font-family="Helvetica,sans-Serif" font-size="10.00">york::graphics::Device</text>
</a>
</g>
</g>
<!-- Node2 -->
<g id="node2" class="node">
<title>Node2</title>
<g id="a_node2"><a xlink:href="classyork_1_1graphics_1_1_handle.html" target="_top" xlink:title=" ">
<polygon fill="none" stroke="black" points="11,-56.5 11,-86.5 126,-86.5 126,-56.5 11,-56.5"/>
<text text-anchor="start" x="19" y="-74.5" font-family="Helvetica,sans-Serif" font-size="10.00">york::graphics::Handle</text>
<text text-anchor="middle" x="68.5" y="-63.5" font-family="Helvetica,sans-Serif" font-size="10.00">&lt; vk::Device &gt;</text>
</a>
</g>
</g>
<!-- Node2&#45;&gt;Node1 -->
<g id="edge1" class="edge">
<title>Node2&#45;&gt;Node1</title>
<path fill="none" stroke="midnightblue" d="M68.5,-46.29C68.5,-36.86 68.5,-26.65 68.5,-19.66"/>
<polygon fill="midnightblue" stroke="midnightblue" points="65,-46.4 68.5,-56.4 72,-46.4 65,-46.4"/>
</g>
<!-- Node3 -->
<g id="node3" class="node">
<title>Node3</title>
<g id="a_node3"><a xlink:href="classyork_1_1graphics_1_1_handle_base.html" target="_top" xlink:title=" ">
<polygon fill="none" stroke="black" points="0,-123.5 0,-142.5 137,-142.5 137,-123.5 0,-123.5"/>
<text text-anchor="middle" x="68.5" y="-130.5" font-family="Helvetica,sans-Serif" font-size="10.00">york::graphics::HandleBase</text>
</a>
</g>
</g>
<!-- Node3&#45;&gt;Node2 -->
<g id="edge2" class="edge">
<title>Node3&#45;&gt;Node2</title>
<path fill="none" stroke="midnightblue" d="M68.5,-113.23C68.5,-104.59 68.5,-94.5 68.5,-86.52"/>
<polygon fill="midnightblue" stroke="midnightblue" points="65,-113.48 68.5,-123.48 72,-113.48 65,-113.48"/>
</g>
<!-- Node4 -->
<g id="node4" class="node">
<title>Node4</title>
<g id="a_node4"><a xlink:href="classyork_1_1_identifiable.html" target="_top" xlink:title="A convience class that generates a unique id upon creation and makes for easy comparison.">
<polygon fill="none" stroke="black" points="24,-179.5 24,-198.5 113,-198.5 113,-179.5 24,-179.5"/>
<text text-anchor="middle" x="68.5" y="-186.5" font-family="Helvetica,sans-Serif" font-size="10.00">york::Identifiable</text>
</a>
</g>
</g>
<!-- Node4&#45;&gt;Node3 -->
<g id="edge3" class="edge">
<title>Node4&#45;&gt;Node3</title>
<path fill="none" stroke="midnightblue" d="M68.5,-168.8C68.5,-159.91 68.5,-149.78 68.5,-142.75"/>
<polygon fill="midnightblue" stroke="midnightblue" points="65,-169.08 68.5,-179.08 72,-169.08 65,-169.08"/>
</g>
</g>
</svg>
