<?xml version="1.0" encoding="UTF-8" standalone="no"?>
<!DOCTYPE svg PUBLIC "-//W3C//DTD SVG 1.1//EN"
 "http://www.w3.org/Graphics/SVG/1.1/DTD/svg11.dtd">
<!-- Generated by graphviz version 2.50.0 (20211204.2007)
 -->
<!-- Title: Graphical Class Hierarchy Pages: 1 -->
<svg width="335pt" height="28pt"
 viewBox="0.00 0.00 335.00 28.00" xmlns="http://www.w3.org/2000/svg" xmlns:xlink="http://www.w3.org/1999/xlink">
<g id="graph0" class="graph" transform="scale(1 1) rotate(0) translate(4 24)">
<title>Graphical Class Hierarchy</title>
<!-- Node0 -->
<g id="node1" class="node">
<title>Node0</title>
<g id="a_node1"><a xlink:href="classyork_1_1_identifiable.html" target="_top" xlink:title="A convience class that generates a unique id upon creation and makes for easy comparison.">
<polygon fill="none" stroke="black" points="0,-0.5 0,-19.5 89,-19.5 89,-0.5 0,-0.5"/>
<text text-anchor="middle" x="44.5" y="-7.5" font-family="Helvetica,sans-Serif" font-size="10.00">york::Identifiable</text>
</a>
</g>
</g>
<!-- Node1 -->
<g id="node2" class="node">
<title>Node1</title>
<g id="a_node2"><a xlink:href="classyork_1_1_event_handler.html" target="_top" xlink:title="Override this to handle events.">
<polygon fill="none" stroke="black" points="125,-0.5 125,-19.5 226,-19.5 226,-0.5 125,-0.5"/>
<text text-anchor="middle" x="175.5" y="-7.5" font-family="Helvetica,sans-Serif" font-size="10.00">york::EventHandler</text>
</a>
</g>
</g>
<!-- Node0&#45;&gt;Node1 -->
<g id="edge1" class="edge">
<title>Node0&#45;&gt;Node1</title>
<path fill="none" stroke="midnightblue" d="M99.27,-10C107.67,-10 116.33,-10 124.65,-10"/>
<polygon fill="midnightblue" stroke="midnightblue" points="99.17,-6.5 89.17,-10 99.17,-13.5 99.17,-6.5"/>
</g>
<!-- Node2 -->
<g id="node3" class="node">
<title>Node2</title>
<g id="a_node3"><a xlink:href="classyork_1_1_layer.html" target="_top" xlink:title="A layer represents a modular part of your application.">
<polygon fill="none" stroke="black" points="262,-0.5 262,-19.5 327,-19.5 327,-0.5 262,-0.5"/>
<text text-anchor="middle" x="294.5" y="-7.5" font-family="Helvetica,sans-Serif" font-size="10.00">york::Layer</text>
</a>
</g>
</g>
<!-- Node1&#45;&gt;Node2 -->
<g id="edge2" class="edge">
<title>Node1&#45;&gt;Node2</title>
<path fill="none" stroke="midnightblue" d="M236.39,-10C245.16,-10 253.89,-10 261.79,-10"/>
<polygon fill="midnightblue" stroke="midnightblue" points="236.12,-6.5 226.12,-10 236.12,-13.5 236.12,-6.5"/>
</g>
</g>
</svg>
