<?xml version="1.0" encoding="UTF-8" standalone="no"?>
<!DOCTYPE svg PUBLIC "-//W3C//DTD SVG 1.1//EN"
 "http://www.w3.org/Graphics/SVG/1.1/DTD/svg11.dtd">
<!-- Generated by graphviz version 2.50.0 (20211204.2007)
 -->
<!-- Title: Graphical Class Hierarchy Pages: 1 -->
<svg width="231pt" height="104pt"
 viewBox="0.00 0.00 231.00 104.00" xmlns="http://www.w3.org/2000/svg" xmlns:xlink="http://www.w3.org/1999/xlink">
<g id="graph0" class="graph" transform="scale(1 1) rotate(0) translate(4 100)">
<title>Graphical Class Hierarchy</title>
<!-- Node0 -->
<g id="node1" class="node">
<title>Node0</title>
<g id="a_node1"><a xlink:href="classyork_1_1_asset.html" target="_top" xlink:title="An Asset is any file that can be loaded by the engine.">
<polygon fill="none" stroke="black" points="0,-38.5 0,-57.5 67,-57.5 67,-38.5 0,-38.5"/>
<text text-anchor="middle" x="33.5" y="-45.5" font-family="Helvetica,sans-Serif" font-size="10.00">york::Asset</text>
</a>
</g>
</g>
<!-- Node1 -->
<g id="node2" class="node">
<title>Node1</title>
<g id="a_node2"><a xlink:href="classyork_1_1_binary_asset.html" target="_top" xlink:title="An asset that represents an in&#45;memory byte array.">
<polygon fill="none" stroke="black" points="103,-76.5 103,-95.5 223,-95.5 223,-76.5 103,-76.5"/>
<text text-anchor="middle" x="163" y="-83.5" font-family="Helvetica,sans-Serif" font-size="10.00">york::BinaryAsset&lt; N &gt;</text>
</a>
</g>
</g>
<!-- Node0&#45;&gt;Node1 -->
<g id="edge1" class="edge">
<title>Node0&#45;&gt;Node1</title>
<path fill="none" stroke="midnightblue" d="M76.56,-60.54C93.9,-65.7 113.68,-71.6 129.84,-76.41"/>
<polygon fill="midnightblue" stroke="midnightblue" points="77.26,-57.09 66.67,-57.59 75.26,-63.8 77.26,-57.09"/>
</g>
<!-- Node2 -->
<g id="node3" class="node">
<title>Node2</title>
<g id="a_node3"><a xlink:href="classyork_1_1_network_asset.html" target="_top" xlink:title="An asset to be fetched from the internet.">
<polygon fill="none" stroke="black" points="111,-38.5 111,-57.5 215,-57.5 215,-38.5 111,-38.5"/>
<text text-anchor="middle" x="163" y="-45.5" font-family="Helvetica,sans-Serif" font-size="10.00">york::NetworkAsset</text>
</a>
</g>
</g>
<!-- Node0&#45;&gt;Node2 -->
<g id="edge2" class="edge">
<title>Node0&#45;&gt;Node2</title>
<path fill="none" stroke="midnightblue" d="M77.03,-48C87.83,-48 99.54,-48 110.72,-48"/>
<polygon fill="midnightblue" stroke="midnightblue" points="77,-44.5 67,-48 77,-51.5 77,-44.5"/>
</g>
<!-- Node3 -->
<g id="node4" class="node">
<title>Node3</title>
<g id="a_node4"><a xlink:href="classyork_1_1_string_asset.html" target="_top" xlink:title="An that represents and in&#45;memory string.">
<polygon fill="none" stroke="black" points="117,-0.5 117,-19.5 209,-19.5 209,-0.5 117,-0.5"/>
<text text-anchor="middle" x="163" y="-7.5" font-family="Helvetica,sans-Serif" font-size="10.00">york::StringAsset</text>
</a>
</g>
</g>
<!-- Node0&#45;&gt;Node3 -->
<g id="edge3" class="edge">
<title>Node0&#45;&gt;Node3</title>
<path fill="none" stroke="midnightblue" d="M76.56,-35.46C93.9,-30.3 113.68,-24.4 129.84,-19.59"/>
<polygon fill="midnightblue" stroke="midnightblue" points="75.26,-32.2 66.67,-38.41 77.26,-38.91 75.26,-32.2"/>
</g>
</g>
</svg>
